<svg width="309" height="21" viewBox="0 0 309 21" fill="none" xmlns="http://www.w3.org/2000/svg">
<path d="M9.00701 20.9011C7.55449 20.9011 6.27529 20.5759 5.16939 19.9253C4.07175 19.2747 3.21344 18.307 2.59447 17.0223C1.9755 15.7376 1.66602 14.1441 1.66602 12.2417C1.66602 10.3311 1.97137 8.7335 2.58209 7.44879C3.20106 6.16409 4.0635 5.19644 5.16939 4.54585C6.27529 3.88703 7.55449 3.55762 9.00701 3.55762C11.1033 3.55762 12.7002 4.05174 13.7978 5.03997C14.8955 6.02821 15.5475 7.30879 15.7538 8.88174L11.5448 9.61056C11.355 8.90232 11.0537 8.31762 10.6411 7.85644C10.2367 7.38703 9.69201 7.15232 9.00701 7.15232C8.39629 7.15232 7.85573 7.33762 7.38531 7.70821C6.92314 8.07056 6.56414 8.62644 6.3083 9.37585C6.05246 10.1253 5.92454 11.0806 5.92454 12.2417C5.92454 13.3782 6.05658 14.3211 6.32068 15.0706C6.58477 15.8117 6.9479 16.3635 7.41007 16.7259C7.88049 17.0882 8.4128 17.2694 9.00701 17.2694C9.85707 17.2694 10.4925 17.047 10.9134 16.6023C11.3343 16.1494 11.5448 15.6017 11.5448 14.9594H15.729C15.729 16.2359 15.4691 17.3188 14.9491 18.2082C14.4375 19.0894 13.6823 19.7606 12.6837 20.2217C11.6851 20.6747 10.4595 20.9011 9.00701 20.9011Z" fill="#DDFEF8"/>
<path d="M30.6901 20.9011C29.1138 20.9011 27.7356 20.5717 26.5554 19.9129C25.3835 19.2459 24.4716 18.2659 23.8196 16.9729C23.1676 15.6717 22.8416 14.07 22.8416 12.1676C22.8416 10.2159 23.1676 8.60585 23.8196 7.33762C24.4716 6.06115 25.3835 5.11409 26.5554 4.49644C27.7356 3.87056 29.1138 3.55762 30.6901 3.55762C32.283 3.55762 33.6695 3.88291 34.8496 4.5335C36.0381 5.18409 36.9583 6.14762 37.6102 7.42409C38.2622 8.70056 38.5882 10.2817 38.5882 12.1676C38.5882 14.1029 38.2622 15.7211 37.6102 17.0223C36.9583 18.3153 36.0381 19.287 34.8496 19.9376C33.6695 20.58 32.283 20.9011 30.6901 20.9011ZM30.6901 17.3559C31.8456 17.3559 32.7699 16.9029 33.4631 15.997C34.1564 15.0829 34.503 13.7982 34.503 12.1429C34.503 10.5864 34.1564 9.35938 33.4631 8.46174C32.7699 7.55585 31.8456 7.10291 30.6901 7.10291C29.5677 7.10291 28.6599 7.55585 27.9667 8.46174C27.2734 9.35938 26.9268 10.5947 26.9268 12.1676C26.9268 13.8064 27.2734 15.0829 27.9667 15.997C28.6599 16.9029 29.5677 17.3559 30.6901 17.3559Z" fill="#DDFEF8"/>
<path d="M46.6145 3.92821H50.7493L57.4218 13.9588H57.1494V3.92821H61.1108V20.5059H57.2856L49.9198 9.48703H50.5759V20.5059H46.6145V3.92821Z" fill="#DDFEF8"/>
<path d="M76.5468 20.9011C75.1521 20.9011 73.9017 20.5306 72.7959 19.7894C71.6982 19.0482 70.8275 18.027 70.1838 16.7259C69.5483 15.4164 69.2306 13.9135 69.2306 12.217C69.2306 10.9406 69.4163 9.77526 69.7876 8.72115C70.1673 7.65879 70.7037 6.74468 71.397 5.9788C72.0985 5.20468 72.932 4.60762 73.8976 4.18762C74.8715 3.76762 75.9526 3.55762 77.141 3.55762C78.9402 3.55762 80.4051 3.96526 81.5357 4.78056C82.6664 5.58762 83.471 6.85585 83.9497 8.58527L79.7407 9.3388C79.4601 8.65527 79.0887 8.11585 78.6266 7.72056C78.1644 7.32526 77.5949 7.12762 76.9182 7.12762C76.2745 7.12762 75.6926 7.3335 75.1727 7.74527C74.661 8.15703 74.2566 8.74174 73.9595 9.49938C73.6624 10.257 73.5139 11.1629 73.5139 12.217C73.5139 13.2629 73.6624 14.1688 73.9595 14.9347C74.2566 15.6923 74.661 16.277 75.1727 16.6888C75.6926 17.1006 76.2745 17.3064 76.9182 17.3064C77.5537 17.3064 78.119 17.1747 78.6142 16.9111C79.1176 16.6394 79.5096 16.277 79.7902 15.8241C80.0791 15.3629 80.2235 14.8564 80.2235 14.3047H80.9167C80.9167 15.6553 80.7558 16.8247 80.4339 17.8129C80.1121 18.8011 79.6293 19.5629 78.9856 20.0982C78.3418 20.6335 77.5289 20.9011 76.5468 20.9011ZM80.7187 20.5059L80.2235 17.0964V14.1564L76.9182 14.1317V11.7106H83.9868V20.5059H80.7187Z" fill="#DDFEF8"/>
<path d="M92.836 20.5059V3.92821H99.3228C101.403 3.92821 103.016 4.40585 104.163 5.36115C105.319 6.30821 105.896 7.58056 105.896 9.17821C105.896 10.7429 105.319 11.9988 104.163 12.9459C103.016 13.8847 101.403 14.3541 99.3228 14.3541H96.7974V20.5059H92.836ZM101.502 20.5059L97.4535 12.5011H101.638L106.689 20.5059H101.502ZM96.7974 11.7847H98.8772C99.8593 11.7847 100.594 11.5829 101.081 11.1794C101.576 10.7676 101.823 10.2447 101.823 9.61056C101.823 8.95174 101.613 8.41232 101.192 7.99232C100.779 7.56409 100.156 7.34997 99.3228 7.34997H96.7974V11.7847Z" fill="#DDFEF8"/>
<path d="M112.873 20.5059L118.468 3.92821H123.507L128.793 20.5059H124.621L123.717 17.5906H117.986L117.082 20.5059H112.873ZM118.988 14.6629H122.814L120.932 8.59762L118.988 14.6629Z" fill="#DDFEF8"/>
<path d="M133.123 7.34997V3.92821H146.802V7.34997H141.07L141.962 6.46056V20.5059H138V6.46056L138.892 7.34997H133.123Z" fill="#DDFEF8"/>
<path d="M153.857 3.92821H157.818V13.9835C157.818 15.1611 158.12 16.0094 158.722 16.5282C159.325 17.047 160.08 17.3064 160.988 17.3064C161.912 17.3064 162.675 17.047 163.278 16.5282C163.889 16.0094 164.194 15.1611 164.194 13.9835V3.92821H168.143V13.9835C168.143 15.3835 167.866 16.6023 167.313 17.64C166.761 18.6776 165.952 19.4806 164.887 20.0488C163.823 20.617 162.523 20.9011 160.988 20.9011C159.453 20.9011 158.153 20.617 157.088 20.0488C156.032 19.4806 155.227 18.6776 154.674 17.64C154.129 16.6023 153.857 15.3835 153.857 13.9835V3.92821Z" fill="#DDFEF8"/>
<path d="M180.944 3.92821V17.047H187.22V20.5059H176.982V3.92821H180.944Z" fill="#DDFEF8"/>
<path d="M193.223 20.5059L198.819 3.92821H203.857L209.143 20.5059H204.971L204.067 17.5906H198.336L197.432 20.5059H193.223ZM199.338 14.6629H203.164L201.282 8.59762L199.338 14.6629Z" fill="#DDFEF8"/>
<path d="M213.473 7.34997V3.92821H227.152V7.34997H221.42L222.312 6.46056V20.5059H218.35V6.46056L219.242 7.34997H213.473Z" fill="#DDFEF8"/>
<path d="M234.343 20.5059V3.92821H238.305V20.5059H234.343Z" fill="#DDFEF8"/>
<path d="M254.289 20.9011C252.712 20.9011 251.334 20.5717 250.154 19.9129C248.982 19.2459 248.07 18.2659 247.418 16.9729C246.766 15.6717 246.44 14.07 246.44 12.1676C246.44 10.2159 246.766 8.60585 247.418 7.33762C248.07 6.06115 248.982 5.11409 250.154 4.49644C251.334 3.87056 252.712 3.55762 254.289 3.55762C255.881 3.55762 257.268 3.88291 258.448 4.5335C259.637 5.18409 260.557 6.14762 261.209 7.42409C261.861 8.70056 262.187 10.2817 262.187 12.1676C262.187 14.1029 261.861 15.7211 261.209 17.0223C260.557 18.3153 259.637 19.287 258.448 19.9376C257.268 20.58 255.881 20.9011 254.289 20.9011ZM254.289 17.3559C255.444 17.3559 256.368 16.9029 257.062 15.997C257.755 15.0829 258.101 13.7982 258.101 12.1429C258.101 10.5864 257.755 9.35938 257.062 8.46174C256.368 7.55585 255.444 7.10291 254.289 7.10291C253.166 7.10291 252.258 7.55585 251.565 8.46174C250.872 9.35938 250.525 10.5947 250.525 12.1676C250.525 13.8064 250.872 15.0829 251.565 15.997C252.258 16.9029 253.166 17.3559 254.289 17.3559Z" fill="#DDFEF8"/>
<path d="M270.213 3.92821H274.348L281.02 13.9588H280.748V3.92821H284.709V20.5059H280.884L273.518 9.48703H274.174V20.5059H270.213V3.92821Z" fill="#DDFEF8"/>
<path d="M300.108 20.9011C298.92 20.9011 297.818 20.7035 296.803 20.3082C295.788 19.9047 294.962 19.2788 294.327 18.4306C293.691 17.5741 293.341 16.4623 293.275 15.0953H297.187C297.187 15.5976 297.314 16.0135 297.57 16.3429C297.826 16.6723 298.173 16.9153 298.61 17.0717C299.056 17.2282 299.547 17.3064 300.083 17.3064C300.512 17.3064 300.913 17.2694 301.284 17.1953C301.664 17.1211 301.969 16.9894 302.2 16.8C302.431 16.6106 302.547 16.3511 302.547 16.0217C302.547 15.6182 302.423 15.3176 302.175 15.12C301.936 14.9223 301.499 14.6959 300.863 14.4406L297.248 12.8717C296.06 12.3611 295.136 11.76 294.475 11.0682C293.815 10.3764 293.485 9.4335 293.485 8.23938C293.485 6.83938 294.055 5.71115 295.193 4.85468C296.341 3.98997 297.909 3.55762 299.898 3.55762C301.92 3.55762 303.471 4.03526 304.552 4.99056C305.633 5.93762 306.24 7.29232 306.372 9.05468H302.485C302.386 8.51115 302.142 8.05409 301.755 7.6835C301.375 7.31291 300.756 7.12762 299.898 7.12762C299.279 7.12762 298.779 7.24291 298.4 7.4735C298.02 7.69585 297.83 7.97585 297.83 8.3135C297.83 8.62644 297.95 8.8735 298.189 9.05468C298.437 9.23585 298.804 9.4335 299.291 9.64762L303.116 11.2659C304.387 11.8176 305.332 12.4641 305.951 13.2053C306.578 13.9464 306.892 14.8359 306.892 15.8735C306.892 16.9853 306.624 17.9159 306.087 18.6653C305.559 19.4064 304.788 19.9664 303.772 20.3453C302.766 20.7159 301.544 20.9011 300.108 20.9011Z" fill="#DDFEF8"/>
<g clip-path="url(#clip0_1_7626)">
<path d="M9.00701 20.9011C7.55449 20.9011 6.27529 20.5759 5.16939 19.9253C4.07175 19.2747 3.21344 18.307 2.59447 17.0223C1.9755 15.7376 1.66602 14.1441 1.66602 12.2417C1.66602 10.3311 1.97137 8.7335 2.58209 7.44879C3.20106 6.16409 4.0635 5.19644 5.16939 4.54585C6.27529 3.88703 7.55449 3.55762 9.00701 3.55762C11.1033 3.55762 12.7002 4.05174 13.7978 5.03997C14.8955 6.02821 15.5475 7.30879 15.7538 8.88174L11.5448 9.61056C11.355 8.90232 11.0537 8.31762 10.6411 7.85644C10.2367 7.38703 9.69201 7.15232 9.00701 7.15232C8.39629 7.15232 7.85573 7.33762 7.38531 7.70821C6.92314 8.07056 6.56414 8.62644 6.3083 9.37585C6.05246 10.1253 5.92454 11.0806 5.92454 12.2417C5.92454 13.3782 6.05658 14.3211 6.32068 15.0706C6.58477 15.8117 6.9479 16.3635 7.41007 16.7259C7.88049 17.0882 8.4128 17.2694 9.00701 17.2694C9.85707 17.2694 10.4925 17.047 10.9134 16.6023C11.3343 16.1494 11.5448 15.6017 11.5448 14.9594H15.729C15.729 16.2359 15.4691 17.3188 14.9491 18.2082C14.4375 19.0894 13.6823 19.7606 12.6837 20.2217C11.6851 20.6747 10.4595 20.9011 9.00701 20.9011Z" fill="#F4B67C"/>
<path d="M30.6901 20.9011C29.1138 20.9011 27.7356 20.5717 26.5554 19.9129C25.3835 19.2459 24.4716 18.2659 23.8196 16.9729C23.1676 15.6717 22.8416 14.07 22.8416 12.1676C22.8416 10.2159 23.1676 8.60585 23.8196 7.33762C24.4716 6.06115 25.3835 5.11409 26.5554 4.49644C27.7356 3.87056 29.1138 3.55762 30.6901 3.55762C32.283 3.55762 33.6695 3.88291 34.8496 4.5335C36.0381 5.18409 36.9583 6.14762 37.6102 7.42409C38.2622 8.70056 38.5882 10.2817 38.5882 12.1676C38.5882 14.1029 38.2622 15.7211 37.6102 17.0223C36.9583 18.3153 36.0381 19.287 34.8496 19.9376C33.6695 20.58 32.283 20.9011 30.6901 20.9011ZM30.6901 17.3559C31.8456 17.3559 32.7699 16.9029 33.4631 15.997C34.1564 15.0829 34.503 13.7982 34.503 12.1429C34.503 10.5864 34.1564 9.35938 33.4631 8.46174C32.7699 7.55585 31.8456 7.10291 30.6901 7.10291C29.5677 7.10291 28.6599 7.55585 27.9667 8.46174C27.2734 9.35938 26.9268 10.5947 26.9268 12.1676C26.9268 13.8064 27.2734 15.0829 27.9667 15.997C28.6599 16.9029 29.5677 17.3559 30.6901 17.3559Z" fill="#F4B67C"/>
<path d="M46.6145 3.92821H50.7493L57.4218 13.9588H57.1494V3.92821H61.1108V20.5059H57.2856L49.9198 9.48703H50.5759V20.5059H46.6145V3.92821Z" fill="#F4B67C"/>
<path d="M76.5468 20.9011C75.1521 20.9011 73.9017 20.5306 72.7959 19.7894C71.6982 19.0482 70.8275 18.027 70.1838 16.7259C69.5483 15.4164 69.2306 13.9135 69.2306 12.217C69.2306 10.9406 69.4163 9.77526 69.7876 8.72115C70.1673 7.65879 70.7037 6.74468 71.397 5.9788C72.0985 5.20468 72.932 4.60762 73.8976 4.18762C74.8715 3.76762 75.9526 3.55762 77.141 3.55762C78.9402 3.55762 80.4051 3.96526 81.5357 4.78056C82.6664 5.58762 83.471 6.85585 83.9497 8.58527L79.7407 9.3388C79.4601 8.65527 79.0887 8.11585 78.6266 7.72056C78.1644 7.32526 77.5949 7.12762 76.9182 7.12762C76.2745 7.12762 75.6926 7.3335 75.1727 7.74527C74.661 8.15703 74.2566 8.74174 73.9595 9.49938C73.6624 10.257 73.5139 11.1629 73.5139 12.217C73.5139 13.2629 73.6624 14.1688 73.9595 14.9347C74.2566 15.6923 74.661 16.277 75.1727 16.6888C75.6926 17.1006 76.2745 17.3064 76.9182 17.3064C77.5537 17.3064 78.119 17.1747 78.6142 16.9111C79.1176 16.6394 79.5096 16.277 79.7902 15.8241C80.0791 15.3629 80.2235 14.8564 80.2235 14.3047H80.9167C80.9167 15.6553 80.7558 16.8247 80.4339 17.8129C80.1121 18.8011 79.6293 19.5629 78.9856 20.0982C78.3418 20.6335 77.5289 20.9011 76.5468 20.9011ZM80.7187 20.5059L80.2235 17.0964V14.1564L76.9182 14.1317V11.7106H83.9868V20.5059H80.7187Z" fill="#F4B67C"/>
<path d="M92.836 20.5059V3.92821H99.3228C101.403 3.92821 103.016 4.40585 104.163 5.36115C105.319 6.30821 105.896 7.58056 105.896 9.17821C105.896 10.7429 105.319 11.9988 104.163 12.9459C103.016 13.8847 101.403 14.3541 99.3228 14.3541H96.7974V20.5059H92.836ZM101.502 20.5059L97.4535 12.5011H101.638L106.689 20.5059H101.502ZM96.7974 11.7847H98.8772C99.8593 11.7847 100.594 11.5829 101.081 11.1794C101.576 10.7676 101.823 10.2447 101.823 9.61056C101.823 8.95174 101.613 8.41232 101.192 7.99232C100.779 7.56409 100.156 7.34997 99.3228 7.34997H96.7974V11.7847Z" fill="#F4B67C"/>
<path d="M112.873 20.5059L118.468 3.92821H123.507L128.793 20.5059H124.621L123.717 17.5906H117.986L117.082 20.5059H112.873ZM118.988 14.6629H122.814L120.932 8.59762L118.988 14.6629Z" fill="#F4B67C"/>
<path d="M133.123 7.34997V3.92821H146.802V7.34997H141.07L141.962 6.46056V20.5059H138V6.46056L138.892 7.34997H133.123Z" fill="#F4B67C"/>
<path d="M153.857 3.92821H157.818V13.9835C157.818 15.1611 158.12 16.0094 158.722 16.5282C159.325 17.047 160.08 17.3064 160.988 17.3064C161.912 17.3064 162.675 17.047 163.278 16.5282C163.889 16.0094 164.194 15.1611 164.194 13.9835V3.92821H168.143V13.9835C168.143 15.3835 167.866 16.6023 167.313 17.64C166.761 18.6776 165.952 19.4806 164.887 20.0488C163.823 20.617 162.523 20.9011 160.988 20.9011C159.453 20.9011 158.153 20.617 157.088 20.0488C156.032 19.4806 155.227 18.6776 154.674 17.64C154.129 16.6023 153.857 15.3835 153.857 13.9835V3.92821Z" fill="#F4B67C"/>
<path d="M180.944 3.92821V17.047H187.22V20.5059H176.982V3.92821H180.944Z" fill="#F4B67C"/>
<path d="M193.223 20.5059L198.819 3.92821H203.857L209.143 20.5059H204.971L204.067 17.5906H198.336L197.432 20.5059H193.223ZM199.338 14.6629H203.164L201.282 8.59762L199.338 14.6629Z" fill="#F4B67C"/>
<path d="M213.473 7.34997V3.92821H227.152V7.34997H221.42L222.312 6.46056V20.5059H218.35V6.46056L219.242 7.34997H213.473Z" fill="#F4B67C"/>
<path d="M234.343 20.5059V3.92821H238.305V20.5059H234.343Z" fill="#F4B67C"/>
<path d="M254.289 20.9011C252.712 20.9011 251.334 20.5717 250.154 19.9129C248.982 19.2459 248.07 18.2659 247.418 16.9729C246.766 15.6717 246.44 14.07 246.44 12.1676C246.44 10.2159 246.766 8.60585 247.418 7.33762C248.07 6.06115 248.982 5.11409 250.154 4.49644C251.334 3.87056 252.712 3.55762 254.289 3.55762C255.881 3.55762 257.268 3.88291 258.448 4.5335C259.637 5.18409 260.557 6.14762 261.209 7.42409C261.861 8.70056 262.187 10.2817 262.187 12.1676C262.187 14.1029 261.861 15.7211 261.209 17.0223C260.557 18.3153 259.637 19.287 258.448 19.9376C257.268 20.58 255.881 20.9011 254.289 20.9011ZM254.289 17.3559C255.444 17.3559 256.368 16.9029 257.062 15.997C257.755 15.0829 258.101 13.7982 258.101 12.1429C258.101 10.5864 257.755 9.35938 257.062 8.46174C256.368 7.55585 255.444 7.10291 254.289 7.10291C253.166 7.10291 252.258 7.55585 251.565 8.46174C250.872 9.35938 250.525 10.5947 250.525 12.1676C250.525 13.8064 250.872 15.0829 251.565 15.997C252.258 16.9029 253.166 17.3559 254.289 17.3559Z" fill="#F4B67C"/>
<path d="M270.213 3.92821H274.348L281.02 13.9588H280.748V3.92821H284.709V20.5059H280.884L273.518 9.48703H274.174V20.5059H270.213V3.92821Z" fill="#F4B67C"/>
<path d="M300.108 20.9011C298.92 20.9011 297.818 20.7035 296.803 20.3082C295.788 19.9047 294.962 19.2788 294.327 18.4306C293.691 17.5741 293.341 16.4623 293.275 15.0953H297.187C297.187 15.5976 297.314 16.0135 297.57 16.3429C297.826 16.6723 298.173 16.9153 298.61 17.0717C299.056 17.2282 299.547 17.3064 300.083 17.3064C300.512 17.3064 300.913 17.2694 301.284 17.1953C301.664 17.1211 301.969 16.9894 302.2 16.8C302.431 16.6106 302.547 16.3511 302.547 16.0217C302.547 15.6182 302.423 15.3176 302.175 15.12C301.936 14.9223 301.499 14.6959 300.863 14.4406L297.248 12.8717C296.06 12.3611 295.136 11.76 294.475 11.0682C293.815 10.3764 293.485 9.4335 293.485 8.23938C293.485 6.83938 294.055 5.71115 295.193 4.85468C296.341 3.98997 297.909 3.55762 299.898 3.55762C301.92 3.55762 303.471 4.03526 304.552 4.99056C305.633 5.93762 306.24 7.29232 306.372 9.05468H302.485C302.386 8.51115 302.142 8.05409 301.755 7.6835C301.375 7.31291 300.756 7.12762 299.898 7.12762C299.279 7.12762 298.779 7.24291 298.4 7.4735C298.02 7.69585 297.83 7.97585 297.83 8.3135C297.83 8.62644 297.95 8.8735 298.189 9.05468C298.437 9.23585 298.804 9.4335 299.291 9.64762L303.116 11.2659C304.387 11.8176 305.332 12.4641 305.951 13.2053C306.578 13.9464 306.892 14.8359 306.892 15.8735C306.892 16.9853 306.624 17.9159 306.087 18.6653C305.559 19.4064 304.788 19.9664 303.772 20.3453C302.766 20.7159 301.544 20.9011 300.108 20.9011Z" fill="#F4B67C"/>
</g>
<defs>
<clipPath id="clip0_1_7626">
<rect width="308" height="12.3529" fill="white" transform="translate(0.5)"/>
</clipPath>
</defs>
</svg>
