<svg width="240" height="441" viewBox="0 0 240 541" fill="none" xmlns="http://www.w3.org/2000/svg">
<mask id="mask0_4330_30201" style="mask-type:luminance" maskUnits="userSpaceOnUse" x="-201" y="0" width="442" height="441">
<path d="M95.2598 427.566C82.026 432.398 68.3612 435.957 54.4512 438.193C40.6032 440.484 26.5597 441.377 12.533 440.856C4.05075 440.486 -7.19318 439.229 -15.6508 438.119C-20.2371 437.527 -26.2536 436.22 -30.7166 435.135C-35.1797 434.051 -41.7881 432.448 -46.3991 430.845C-54.98 427.861 -66.3224 423.448 -74.6321 419.823C-97.8875 408.92 -119.045 394.013 -137.14 375.784C-140.641 372.086 -145.4 367.228 -148.605 363.283C-153.34 357.513 -159.479 349.672 -163.597 343.557C-166.507 339.143 -170.329 333.2 -172.795 328.54C-176.617 321.365 -181.326 311.575 -184.581 304.104C-185.634 301.514 -186.556 298.872 -187.343 296.189C-208.721 224.065 -133.244 131.672 -19.0536 89.9268C-133.17 131.623 -208.647 224.065 -187.269 295.992C-186.482 298.675 -185.56 301.317 -184.507 303.907C-186.356 298.803 -189.069 292.071 -190.671 286.868C-192.595 280.581 -194.641 272.074 -196.244 265.638C-197.963 258.076 -199.166 250.407 -199.844 242.682C-200.768 234.026 -201.139 225.321 -200.954 216.618C-200.683 211.514 -200.559 204.659 -199.992 199.555C-199.203 192.404 -197.946 182.862 -196.417 175.834C-191.709 152.987 -183.385 131.037 -171.759 110.812C-160.76 91.6391 -146.946 74.2258 -130.778 59.1539C-116.222 45.5283 -99.86 33.9705 -82.1528 24.8057C-73.6939 20.4408 -64.973 16.6033 -56.0402 13.3152C-51.9717 11.9837 -46.6209 9.93707 -42.4784 8.85213C-24.0591 3.92057 -24.0591 3.92055 -15.3549 2.663C-11.2124 2.0219 -5.6891 1.15892 -1.52194 0.887681C6.78772 0.369868 17.9331 0 26.2674 0C35.8655 0.319775 45.4346 1.23386 54.9197 2.73701C65.3287 4.38853 75.5988 6.82005 85.6433 10.011C95.2618 13.1427 104.696 16.8143 113.901 21.0084C130.352 28.7713 145.781 38.5357 159.838 50.0799C173.499 61.817 173.499 61.817 187.825 77.6226C193.342 83.7863 198.355 90.3829 202.817 97.3488C209.115 107.351 214.877 117.68 220.077 128.294C224.342 137.851 228.023 147.659 231.099 157.662C232.628 162.84 234.453 169.793 235.513 175.07C236.869 181.9 238.151 191.122 239.088 198.026C240.173 206.661 240.544 215.37 240.198 224.065C239.754 234.249 238.521 247.81 236.993 257.896C235.804 265.684 234.041 273.373 231.716 280.901C230.212 285.561 228.387 291.825 226.636 296.411C224.368 302.378 221.039 310.244 218.302 316.014C213.297 326.534 207.442 336.628 200.795 346.195C194.67 355.111 187.86 363.536 180.428 371.395C173.466 378.83 165.984 385.76 158.038 392.132C150.438 398.261 142.439 403.879 134.096 408.949C130.298 411.094 125.367 414.176 121.422 416.05C113.728 419.749 103.348 424.459 95.3585 427.516L95.2598 427.566Z" fill="white"/>
</mask>
<g mask="url(#mask0_4330_30201)">
<path d="M95.0631 428.4C93.5343 428.4 89.2685 425.022 72.5012 386.654C-21.1983 415.75 -117.98 392.301 -166.679 332.407C-176.681 322.325 -184.049 309.936 -188.131 296.333L-186.553 295.766C-181.318 308.565 -174.222 320.521 -165.496 331.248C-156.879 339.918 -146.879 347.093 -135.906 352.478C-86.4428 377.358 -13.8997 376.495 58.101 350.21L58.8654 349.914L59.1612 350.678C64.7339 364.314 69.4437 375.509 73.4629 384.706C77.3588 383.473 81.2382 382.15 85.1013 380.736L85.9397 380.44L86.1862 381.279C99.748 426.945 96.937 427.931 95.5808 428.4C95.4096 428.431 95.2343 428.431 95.0631 428.4ZM74.104 386.136C89.5891 421.594 93.8301 426.156 94.9644 426.674C95.4575 425.539 95.6548 419.054 84.8301 382.512C81.3287 383.794 77.7533 385.002 74.104 386.136ZM-155.953 341.752C-105.331 393.287 -15.4038 412.076 71.8354 385.002C67.8901 375.953 63.2792 365.029 57.9038 351.837C-14.2941 378.024 -86.9852 378.764 -136.671 353.785C-143.464 350.431 -149.921 346.435 -155.953 341.851V341.752Z" stroke="#A0A0A0" stroke-opacity="0.6" stroke-miterlimit="10"/>
<path d="M14.9254 440.583C-55.2752 440.583 -117.437 407.714 -140.271 351.815L-138.742 351.174C-107.599 427.391 -2.45831 460.284 95.507 424.457L96.0987 426.01C70.0982 435.566 42.6261 440.498 14.9254 440.583Z" stroke="#A0A0A0" stroke-opacity="0.6" stroke-miterlimit="10"/>
<path d="M-63.2148 417.377C-69.1815 417.41 -75.1291 416.697 -80.9192 415.256C-103.111 409.659 -119.015 393.064 -126.708 367.174L-125.106 366.705C-117.709 391.955 -102.174 408.179 -80.4999 413.555C-42.7242 423.048 8.95835 399.377 57.7807 350.209L58.9644 351.368C16.9229 393.804 -27.3131 417.377 -63.2148 417.377Z" stroke="#A0A0A0" stroke-opacity="0.6" stroke-miterlimit="10"/>
<path d="M4.1249 441.199C-9.04234 441.199 -20.5329 426.207 -28.8672 397.826L-27.2645 397.357C-19.0535 424.949 -8.22863 439.522 4.1249 439.522H4.32206C22.7661 439.3 42.6649 406.061 57.5582 350.754L59.1609 351.198C43.8238 408.206 23.851 441.051 4.34674 441.297L4.1249 441.199Z" stroke="#A0A0A0" stroke-opacity="0.6" stroke-miterlimit="10"/>
<path d="M95.0636 428.398C93.1403 428.398 86.9758 423.122 57.6084 351.195L57.2632 350.406L58.0769 350.11C171.799 308.562 247.029 216.588 225.75 145.056L227.328 144.514C242.344 181.303 241.062 221.594 223.604 261.071C199.982 314.48 149.976 358.494 86.3593 381.894C99.6745 426.82 96.8634 427.807 95.5319 428.275C95.3837 428.342 95.2255 428.384 95.0636 428.398ZM59.4578 351.368C87.0991 418.955 93.658 426.031 94.9648 426.672C95.458 425.538 95.6554 418.955 84.584 381.647L84.362 380.908L85.0771 380.636C148.62 357.433 198.503 313.592 222.1 260.38C237.462 225.662 240.174 190.303 230.139 157.311C239.977 227.314 166.941 311.841 59.4578 351.368Z" stroke="#A0A0A0" stroke-opacity="0.6" stroke-miterlimit="10"/>
<path d="M96.2221 425.985L95.6304 424.432C150.469 404.41 193.546 366.585 213.988 320.672C228.782 287.014 229.99 252.641 217.193 221.277L218.722 220.66C231.692 252.444 230.582 287.236 215.516 321.362C194.902 367.67 151.456 405.815 96.2221 425.985Z" stroke="#A0A0A0" stroke-opacity="0.6" stroke-miterlimit="10"/>
<path d="M148.891 386.037C125.934 386.037 94.0518 374.177 57.9282 351.516L58.816 350.111C110.375 382.363 152.984 392.621 172.809 377.505C185.606 367.889 188.072 348.508 180.058 321.532L181.661 321.039C189.872 348.754 187.184 368.752 173.82 378.911C167.557 383.694 159.099 386.037 148.891 386.037Z" stroke="#A0A0A0" stroke-opacity="0.6" stroke-miterlimit="10"/>
<path d="M84.1146 352.701C75.6981 352.701 67.0925 352.372 58.2979 351.714V350.062C130.545 355.512 190.365 338.128 218.253 303.558C233.664 284.448 237.979 261.319 230.582 236.636L232.184 236.168C239.582 261.393 235.316 285.064 219.56 304.593C194.853 335.366 145.217 352.701 84.1146 352.701Z" stroke="#A0A0A0" stroke-opacity="0.6" stroke-miterlimit="10"/>
<path d="M57.9032 351.938L57.6074 351.198C21.3358 262.431 -25.5633 131.596 -46.9416 59.6451L-47.1636 58.8807L-46.4237 58.6342C68.1116 16.716 190.932 55.33 227.277 144.517C248.804 216.937 173.03 309.724 58.5689 351.642L57.9032 351.938ZM-45.1169 59.9163C-23.714 131.794 22.766 261.395 58.8403 349.818C172.118 308.171 246.979 216.444 225.773 145.158C189.797 56.9574 68.3827 18.8365 -45.1169 59.9163Z" stroke="#A0A0A0" stroke-opacity="0.6" stroke-miterlimit="10"/>
<path d="M217.069 221.274C185.927 145.057 80.7613 112.189 -17.3273 147.992L-17.8945 146.438C81.0571 110.29 187.135 143.603 218.598 220.658L217.069 221.274Z" stroke="#A0A0A0" stroke-opacity="0.6" stroke-miterlimit="10"/>
<path d="M58.9639 351.468L57.7803 350.309C137.819 269.703 185.631 145.798 164.326 74.1423L165.929 73.6738C187.382 145.847 139.398 270.492 58.9639 351.468Z" stroke="#A0A0A0" stroke-opacity="0.6" stroke-miterlimit="10"/>
<path d="M59.1613 351.124L57.5586 350.68C83.8191 253.134 87.8383 115.322 66.5094 43.4939L68.112 43.0254C89.441 115.075 85.4957 253.282 59.1613 351.124Z" stroke="#A0A0A0" stroke-opacity="0.6" stroke-miterlimit="10"/>
<path d="M-50.4423 372.109C-82.818 372.109 -112.481 366.043 -136.744 353.887C-163.178 340.596 -180.956 320.648 -188.23 296.237C-203.222 259.522 -201.94 219.231 -184.482 179.754C-160.761 126.123 -110.509 81.9859 -46.3986 58.635L-45.5601 58.3145L-45.3136 59.1775C-23.9847 131.08 22.8652 261.815 59.1368 350.583L59.4573 351.372L58.6436 351.668C23.7398 364.748 -13.1709 371.664 -50.4423 372.109ZM-46.6945 60.4843C-109.818 83.7859 -159.43 127.455 -182.879 180.42C-200.14 219.478 -201.422 259.325 -186.578 295.67C-179.427 319.736 -161.92 339.314 -135.931 352.383C-86.6154 377.164 -14.4913 376.4 57.2628 350.41C21.1885 261.963 -25.2669 132.411 -46.6945 60.4843Z" stroke="#A0A0A0" stroke-opacity="0.6" stroke-miterlimit="10"/>
<path d="M57.9283 351.595C-31.1356 295.869 -121.013 191.887 -142.416 119.812L-140.813 119.344C-119.509 191.122 -29.8533 294.71 58.9146 350.239L57.9283 351.595Z" stroke="#A0A0A0" stroke-opacity="0.6" stroke-miterlimit="10"/>
<path d="M58.2977 351.712C-58.8513 342.86 -171.611 276.901 -193.211 204.653L-191.609 204.16C-170.329 275.816 -58.2102 341.257 58.2977 350.06V351.712Z" stroke="#A0A0A0" stroke-opacity="0.6" stroke-miterlimit="10"/>
<path d="M-8.44961 399.111C-89.8202 399.111 -161.673 361.064 -188.106 296.312C-209.583 223.942 -133.859 131.105 -19.373 89.1873L-18.6086 88.916L-18.3127 89.6558C17.9342 178.522 64.7839 309.208 86.1622 381.184L86.3842 381.924L85.669 382.195C55.5235 393.282 23.67 399.007 -8.44961 399.111ZM-186.553 295.721C-150.528 383.872 -29.1374 421.993 84.3622 380.913C62.9593 309.036 16.4795 179.435 -19.5948 90.9873C-132.873 132.659 -207.709 224.361 -186.553 295.721Z" stroke="#A0A0A0" stroke-opacity="0.6" stroke-miterlimit="10"/>
<path d="M-24.1576 308.984C-94.3582 308.984 -156.52 276.115 -179.354 220.216L-177.825 219.6C-146.682 295.841 -41.5167 328.686 56.4239 292.882L57.0157 294.436C31.0137 303.983 3.54166 308.907 -24.1576 308.984Z" stroke="#A0A0A0" stroke-opacity="0.6" stroke-miterlimit="10"/>
<path d="M-27.9788 198.246C-69.1326 198.246 -105.577 178.963 -118.991 146.168L-117.437 145.527C-99.3138 189.911 -38.0885 208.996 19.0435 188.136L19.6106 189.714C4.36658 195.312 -11.7395 198.2 -27.9788 198.246Z" stroke="#A0A0A0" stroke-opacity="0.6" stroke-miterlimit="10"/>
<path d="M84.8299 382.512L84.5833 381.649C63.2297 309.747 16.3553 179.011 -19.9163 90.2435L-20.2368 89.4545L-19.4232 89.1586C53.0459 62.6762 126.058 61.8871 175.891 86.9394C202.324 100.23 220.127 120.178 227.376 144.589C242.368 181.305 241.086 221.595 223.628 261.073C199.908 314.678 149.655 358.841 85.6681 382.191L84.8299 382.512ZM-18.0424 90.4162C18.0566 178.864 64.4872 308.415 85.9148 380.342C149.063 357.041 198.675 313.372 222.1 260.382C239.36 221.349 240.667 181.477 225.798 145.132C218.672 121.09 201.141 101.512 175.151 88.4189C125.885 63.6625 53.7363 64.4022 -18.0424 90.4162Z" stroke="#A0A0A0" stroke-opacity="0.6" stroke-miterlimit="10"/>
<path d="M57.1393 294.408L56.5474 292.855C111.386 272.808 154.463 235.008 174.905 189.095C189.699 155.437 190.908 121.04 178.11 89.6997L179.639 89.0586C192.609 120.842 191.499 155.635 176.434 189.786C155.82 236.068 112.373 274.214 57.1393 294.408Z" stroke="#A0A0A0" stroke-opacity="0.6" stroke-miterlimit="10"/>
<path d="M19.61 189.762L19.043 188.184C50.9748 176.521 76.0763 154.502 87.9121 127.773C96.5669 108.195 97.208 88.3204 89.7614 69.9751L91.3148 69.334C98.9341 87.9999 98.293 108.441 89.4408 128.513C77.4325 155.587 51.9857 177.951 19.61 189.762Z" stroke="#A0A0A0" stroke-opacity="0.6" stroke-miterlimit="10"/>
<path d="M180.057 321.533C158.728 249.754 69.0975 146.167 -19.6704 90.6379L-18.7828 89.2324C70.2564 144.934 160.134 248.941 181.562 321.015L180.057 321.533Z" stroke="#A0A0A0" stroke-opacity="0.6" stroke-miterlimit="10"/>
<path d="M230.705 236.635C209.45 165.127 97.3309 99.5623 -19.2017 90.7595L-19.0537 89.1074C98.0953 97.9349 210.855 163.919 232.307 236.166L230.705 236.635Z" stroke="#A0A0A0" stroke-opacity="0.6" stroke-miterlimit="10"/>
<path d="M225.822 145.134C220.559 132.343 213.457 120.39 204.74 109.651C196.115 100.991 186.117 93.8174 175.151 88.4208C125.835 63.5658 53.1935 64.4042 -18.8564 90.714L-19.5961 90.9852L-19.8922 90.2455C-25.4648 76.6097 -30.1991 65.4151 -34.1936 56.2178C-38.0896 57.4507 -41.9608 58.6835 -45.8567 60.1877L-46.6951 60.4836L-46.9417 59.6452C-60.5034 13.979 -57.6678 12.9927 -56.3116 12.4996C-54.9554 12.0064 -52.1445 10.9462 -33.2566 54.1712C60.4428 25.0504 157.249 48.5246 205.924 108.418C215.915 118.505 223.274 130.893 227.351 144.493L225.822 145.134ZM89.6624 68.6946C122.063 68.6946 151.701 74.7604 175.965 86.9167C182.77 90.3019 189.235 94.3313 195.271 98.9497C144.649 47.4396 54.7222 28.6504 -32.5169 55.7C-28.5963 64.7494 -23.9853 75.6728 -18.5852 88.8647C16.0685 75.9679 52.6892 69.1526 89.6624 68.7193V68.6946ZM-55.8184 14.127C-56.3115 15.2613 -56.5088 21.7462 -45.6841 58.289C-42.1334 57.0068 -38.5334 55.8233 -34.958 54.6644C-50.3691 19.2312 -54.6842 14.6695 -55.7198 14.1516L-55.8184 14.127Z" stroke="#A0A0A0" stroke-opacity="0.6" stroke-miterlimit="10"/>
<path d="M177.986 89.7496C146.843 13.5079 41.7028 -19.3609 -56.4105 16.4668L-56.9775 14.9133C41.9494 -21.2349 148.052 12.0777 179.515 89.1086L177.986 89.7496Z" stroke="#A0A0A0" stroke-opacity="0.6" stroke-miterlimit="10"/>
<path d="M89.7864 70.0268C71.663 25.6429 10.4131 6.55775 -46.7189 27.4182L-47.2861 25.8401C10.6596 4.6591 72.8465 24.2127 91.3152 69.3857L89.7864 70.0268Z" stroke="#A0A0A0" stroke-opacity="0.6" stroke-miterlimit="10"/>
<path d="M-18.5361 90.5146L-19.7197 89.3557C29.5958 39.7443 81.8703 15.9002 120.139 25.5661C142.331 31.1634 158.26 47.758 165.929 73.6487L164.326 74.1172C156.928 48.8677 141.419 32.6182 119.745 27.2675C82.0428 17.6509 30.2617 41.347 -18.5361 90.5146Z" stroke="#A0A0A0" stroke-opacity="0.6" stroke-miterlimit="10"/>
<path d="M-18.3136 90.1456L-19.9409 89.7264C-4.60379 32.7177 15.3689 -0.126469 34.8732 -0.373047H35.1938C48.361 -0.373047 59.8516 14.6189 68.2106 42.9999L66.6078 43.4684C58.2981 15.7778 47.5227 1.3037 35.1938 1.3037H34.9965C16.4785 1.52562 -3.42029 34.7396 -18.3136 90.1456Z" stroke="#A0A0A0" stroke-opacity="0.6" stroke-miterlimit="10"/>
<path opacity="0.1" d="M20.0296 441.841C16.9967 441.841 14.4324 441.841 12.4351 441.668C5.23504 441.348 -5.34319 440.312 -15.8227 438.931C-21.2228 438.216 -28.1517 436.589 -30.9626 435.923C-35.0558 434.937 -41.8859 433.285 -46.7188 431.608C-56.2614 428.279 -67.3821 423.939 -75.026 420.561C-98.3713 409.55 -119.603 394.528 -137.755 376.177L-139.481 374.377C-142.786 370.925 -146.509 366.98 -149.345 363.651C-153.019 359.163 -159.824 350.632 -164.386 343.728C-168.627 337.292 -171.783 332.36 -173.632 328.637C-177.454 321.437 -182.213 311.599 -185.419 304.127C-186.06 302.549 -186.676 300.922 -187.219 299.196C-187.219 299.048 -187.342 298.875 -187.416 298.703C-188.945 294.683 -190.523 290.516 -191.608 286.966C-193.235 281.639 -194.937 274.809 -196.416 268.817L-197.205 265.686C-198.924 258.083 -200.127 250.372 -200.805 242.606C-201.758 233.92 -202.137 225.18 -201.939 216.444C-201.939 214.99 -201.792 213.411 -201.718 211.784C-201.57 207.666 -201.372 203.006 -200.978 199.307C-200.214 192.452 -198.956 182.737 -197.378 175.488C-192.687 152.573 -184.362 130.555 -172.72 110.268C-166.991 100.327 -160.52 90.8311 -153.364 81.8623C-146.68 73.5315 -139.413 65.6869 -131.616 58.3881C-116.981 44.6995 -100.537 33.0842 -82.7439 23.8672C-74.2331 19.4906 -65.4632 15.6368 -56.4834 12.3274L-52.3409 10.8973C-49.1107 9.76302 -45.7572 8.60409 -42.8969 7.8397C-24.4282 3.03144 -24.4283 3.03145 -15.5515 1.65061C-11.409 1.00951 -5.83635 0.146489 -1.64453 -0.124747C6.78843 -0.667217 17.7857 -1.03711 25.8735 -1.03711H26.194C35.7908 -0.680947 45.3582 0.241238 54.8463 1.72459C65.3036 3.43329 75.6218 5.90568 85.7179 9.12191C95.3737 12.2679 104.841 15.9644 114.074 20.1932C130.609 27.954 146.108 37.7536 160.209 49.3634C173.919 61.1498 173.919 61.1498 188.27 76.9801C193.827 83.2226 198.873 89.9017 203.36 96.9528C209.667 106.983 215.429 117.346 220.621 127.997C224.899 137.56 228.588 147.375 231.667 157.389C233.122 162.321 235.021 169.447 236.13 174.97C237.536 182.071 238.917 192.009 239.73 197.951C240.812 206.643 241.183 215.41 240.84 224.162C240.371 234.79 239.064 248.425 237.634 258.067C236.434 265.906 234.654 273.645 232.308 281.22C231.864 282.576 231.396 284.056 230.927 285.609C229.769 289.283 228.462 293.475 227.229 296.73C224.763 303.24 221.459 310.958 218.87 316.456C213.809 326.972 207.914 337.064 201.24 346.637C195.081 355.572 188.247 364.021 180.798 371.911C167.066 386.526 151.413 399.209 134.269 409.613L130.472 411.808C127.439 413.583 124.283 415.432 121.546 416.739C117.946 418.465 105.444 424.383 95.4084 428.23L95.0139 427.49L95.3098 428.254C71.1112 437.118 45.5537 441.699 19.7831 441.792L20.0296 441.841ZM-183.791 303.585C-180.586 310.982 -175.876 320.845 -172.079 327.947C-170.131 331.596 -167.147 336.626 -162.906 342.889C-158.394 349.744 -151.613 358.226 -147.964 362.616C-145.276 365.92 -141.553 369.816 -138.273 373.268L-136.547 375.068C-127.524 384.203 -117.695 392.505 -107.18 399.873C-96.8139 407.182 -85.8328 413.576 -74.3602 418.983C-66.741 422.337 -55.6943 426.652 -46.1764 429.956C-41.4175 431.608 -34.6366 433.26 -30.568 434.222C-27.8557 434.887 -20.9268 436.49 -15.6008 437.205C-5.14586 438.586 5.35825 439.671 12.509 439.918C26.5349 440.447 40.5784 439.563 54.4272 437.279C68.2867 435.044 81.9017 431.494 95.0878 426.676C101.893 424.063 111.584 419.797 121.102 415.235C123.765 413.953 126.896 412.128 129.905 410.304L133.727 408.084C142.031 403.029 149.996 397.436 157.571 391.342C165.44 384.988 172.855 378.092 179.763 370.703C187.163 362.864 193.955 354.472 200.081 345.602C206.723 336.138 212.602 326.162 217.662 315.766C220.127 310.341 223.505 302.673 225.971 296.212C227.204 293.007 228.437 288.815 229.645 285.165C230.138 283.637 230.607 282.133 231.051 280.776C233.36 273.288 235.116 265.64 236.303 257.894C237.733 248.302 239.015 234.74 239.508 224.162C239.826 215.508 239.455 206.842 238.399 198.247C237.585 192.329 236.204 182.417 234.823 175.365C233.738 169.89 231.84 162.814 230.41 158.104C227.361 148.138 223.696 138.372 219.437 128.86C214.25 118.263 208.488 107.957 202.176 97.9885C197.78 91.0282 192.833 84.4317 187.382 78.2622C173.105 62.5059 173.105 62.5059 159.469 50.7935C145.478 39.297 130.114 29.5815 113.729 21.87C104.512 17.6565 95.0612 13.9764 85.422 10.8479C75.4521 7.62985 65.2568 5.15726 54.9204 3.45062C45.5073 1.96686 36.0132 1.05286 26.4899 0.713608H26.1695C18.1311 0.713608 7.15823 1.05882 -1.25007 1.60129C-5.36791 1.87252 -10.8912 2.73556 -14.9351 3.35201C-23.8119 4.73284 -23.8119 4.73283 -42.0586 9.54109C-44.845 10.2562 -48.1737 11.4397 -51.3792 12.5493L-55.5463 13.9795C-64.5394 17.3235 -73.3178 21.2186 -81.8316 25.6426C-99.4605 34.7773 -115.755 46.2844 -130.259 59.8429C-146.372 74.8565 -160.13 92.2133 -171.068 111.328C-182.688 131.459 -191.012 153.319 -195.726 176.08C-197.304 183.28 -198.537 192.921 -199.301 199.751C-199.696 203.376 -199.868 208.011 -200.041 212.08C-200.041 213.732 -200.041 215.31 -200.238 216.765C-200.43 225.404 -200.035 234.046 -199.055 242.631C-198.375 250.312 -197.189 257.939 -195.504 265.464L-194.715 268.595C-193.531 273.33 -192.249 278.459 -190.942 283.144C-191.495 279.016 -191.775 274.856 -191.78 270.691C-191.78 203.302 -120.816 126.222 -19.3981 89.1857L-18.8309 90.7391C-119.583 127.528 -190.128 203.943 -190.128 270.617C-190.148 279.139 -188.936 287.619 -186.528 295.793C-186.232 296.804 -185.912 297.815 -185.567 298.801C-184.95 300.478 -184.26 302.105 -183.791 303.585Z" stroke="#A0A0A0" stroke-opacity="0.6" stroke-miterlimit="10"/>
</g>
</svg>
