<svg width="24" height="24" viewBox="0 0 24 24" fill="none" xmlns="http://www.w3.org/2000/svg">
<path d="M12 22C17.5228 22 22 17.5228 22 12C22 6.47715 17.5228 2 12 2C6.47715 2 2 6.47715 2 12C2 17.5228 6.47715 22 12 22Z" stroke="white" stroke-miterlimit="5"/>
<path d="M11 12C10.4696 12 9.96086 11.7893 9.58579 11.4142C9.21071 11.0391 9 10.5304 9 10C9 9.46957 9.21071 8.96086 9.58579 8.58579C9.96086 8.21071 10.4696 8 11 8" stroke="white" stroke-miterlimit="5"/>
<path d="M13 12C13.5304 12 14.0391 12.2107 14.4142 12.5858C14.7893 12.9609 15 13.4696 15 14C15 14.5304 14.7893 15.0391 14.4142 15.4142C14.0391 15.7893 13.5304 16 13 16" stroke="white" stroke-miterlimit="5"/>
<path d="M12 6V8" stroke="white" stroke-miterlimit="5"/>
<path d="M12 16V18" stroke="white" stroke-miterlimit="5"/>
<path d="M11 12H13" stroke="white" stroke-miterlimit="5"/>
<path d="M15 9C15 9 14 8 13 8H11" stroke="white" stroke-miterlimit="5"/>
<path d="M9 15C9 15 10 16 11 16H13" stroke="white" stroke-miterlimit="5"/>
</svg>
