<svg width="1155" height="163" viewBox="0 0 1155 163" fill="none" xmlns="http://www.w3.org/2000/svg">
<g clip-path="url(#clip0_384_22598)">
<g clip-path="url(#clip1_384_22598)">
<path d="M40 107.5C22.9645 104.848 8.85608 101.392 -3 97.4998V127.5H1158V-1.00021C1158 -1.00021 1141 -4 1130.5 2.49979C1120 8.99959 1108.91 7.55934 1095 6.49979C1086.68 5.86577 1074.4 1.5 1074 2.49979C1072.85 5.40523 1074 10.4998 1074 10.4998L907 76.9998V107.5C907 107.5 888.846 99.7934 876.5 97.9998C865.196 96.3574 858.572 99.5169 847.25 97.9998C834.237 96.256 828.021 90.1861 815 88.4998C804.35 87.1204 787.5 88.4998 787.5 88.4998V68.4998H784.5V80.9998H781.5V71.9998L733 63.9998V97.4998C733 97.4998 667.955 77.6394 628 60.4998C599.669 48.3468 557 25.9998 557 25.9998V50.4998L391 46.4998L378.5 76.9998H207.5C206.395 76.9998 205.5 77.8952 205.5 78.9998V83.0571C205.5 84.8076 204.391 86.3434 202.713 86.8405C186.022 91.7835 98.0835 116.54 40 107.5Z" fill="url(#paint0_linear_384_22598)" stroke="#1AEFAF"/>
<circle cx="204" cy="82" r="6" fill="#1AEFAF"/>
<path d="M204 91C208.971 91 213 86.9706 213 82C213 77.0294 208.971 73 204 73C199.029 73 195 77.0294 195 82C195 86.9706 199.029 91 204 91Z" stroke="#1AEFAF" stroke-miterlimit="5"/>
<path d="M199.5 82H208.5" stroke="#D5F8F9" stroke-miterlimit="5"/>
<path d="M204 77.5V86.5" stroke="#D5F8F9" stroke-miterlimit="5"/>
<circle cx="376" cy="76" r="6" fill="#1AEFAF"/>
<circle cx="556" cy="51" r="6" fill="#1AEFAF"/>
<circle cx="733" cy="98" r="6" fill="#1AEFAF"/>
<circle cx="905" cy="105" r="6" fill="#1AEFAF"/>
<circle cx="783" cy="80" r="6" fill="#1AEFAF"/>
<circle cx="1076" cy="10" r="6" fill="#1AEFAF"/>
<path d="M376 85C380.971 85 385 80.9706 385 76C385 71.0294 380.971 67 376 67C371.029 67 367 71.0294 367 76C367 80.9706 371.029 85 376 85Z" stroke="#1AEFAF" stroke-miterlimit="5"/>
<path d="M371.5 76H380.5" stroke="#D5F8F9" stroke-miterlimit="5"/>
<path d="M376 71.5V80.5" stroke="#D5F8F9" stroke-miterlimit="5"/>
<path d="M556 60C560.971 60 565 55.9706 565 51C565 46.0294 560.971 42 556 42C551.029 42 547 46.0294 547 51C547 55.9706 551.029 60 556 60Z" stroke="#1AEFAF" stroke-miterlimit="5"/>
<path d="M551.5 51H560.5" stroke="#D5F8F9" stroke-miterlimit="5"/>
<path d="M556 46.5V55.5" stroke="#D5F8F9" stroke-miterlimit="5"/>
<path d="M733 107C737.971 107 742 102.971 742 98C742 93.0294 737.971 89 733 89C728.029 89 724 93.0294 724 98C724 102.971 728.029 107 733 107Z" stroke="#1AEFAF" stroke-miterlimit="5"/>
<path d="M728.5 98H737.5" stroke="#D5F8F9" stroke-miterlimit="5"/>
<path d="M733 93.5V102.5" stroke="#D5F8F9" stroke-miterlimit="5"/>
<path d="M905 114C909.971 114 914 109.971 914 105C914 100.029 909.971 96 905 96C900.029 96 896 100.029 896 105C896 109.971 900.029 114 905 114Z" stroke="#1AEFAF" stroke-miterlimit="5"/>
<path d="M900.5 105H909.5" stroke="#D5F8F9" stroke-miterlimit="5"/>
<path d="M905 100.5V109.5" stroke="#D5F8F9" stroke-miterlimit="5"/>
<path d="M783 89C787.971 89 792 84.9706 792 80C792 75.0294 787.971 71 783 71C778.029 71 774 75.0294 774 80C774 84.9706 778.029 89 783 89Z" stroke="#1AEFAF" stroke-miterlimit="5"/>
<path d="M778.5 80H787.5" stroke="#D5F8F9" stroke-miterlimit="5"/>
<path d="M783 75.5V84.5" stroke="#D5F8F9" stroke-miterlimit="5"/>
<path d="M1076 19C1080.97 19 1085 14.9706 1085 10C1085 5.02944 1080.97 1 1076 1C1071.03 1 1067 5.02944 1067 10C1067 14.9706 1071.03 19 1076 19Z" stroke="#1AEFAF" stroke-miterlimit="5"/>
<path d="M1071.5 10H1080.5" stroke="#D5F8F9" stroke-miterlimit="5"/>
<path d="M1076 5.5V14.5" stroke="#D5F8F9" stroke-miterlimit="5"/>
</g>
<path d="M3.714 146.156C3.194 146.156 2.716 146.064 2.28 145.88C1.844 145.692 1.492 145.414 1.224 145.046C0.96 144.678 0.822 144.218 0.81 143.666H1.926C1.926 143.998 2.006 144.27 2.166 144.482C2.33 144.694 2.546 144.852 2.814 144.956C3.082 145.056 3.378 145.106 3.702 145.106C4.03 145.106 4.32 145.056 4.572 144.956C4.824 144.856 5.018 144.722 5.154 144.554C5.294 144.386 5.364 144.194 5.364 143.978C5.364 143.686 5.274 143.452 5.094 143.276C4.914 143.096 4.64 142.944 4.272 142.82L2.85 142.292C2.238 142.064 1.772 141.802 1.452 141.506C1.132 141.206 0.972 140.79 0.972 140.258C0.972 139.654 1.208 139.164 1.68 138.788C2.152 138.408 2.816 138.218 3.672 138.218C4.484 138.218 5.114 138.406 5.562 138.782C6.014 139.158 6.272 139.67 6.336 140.318H5.214C5.158 139.99 5.004 139.73 4.752 139.538C4.504 139.346 4.144 139.25 3.672 139.25C3.216 139.25 2.86 139.35 2.604 139.55C2.348 139.746 2.22 139.994 2.22 140.294C2.22 140.542 2.3 140.74 2.46 140.888C2.624 141.036 2.878 141.17 3.222 141.29L4.842 141.884C5.398 142.08 5.832 142.344 6.144 142.676C6.456 143.008 6.612 143.43 6.612 143.942C6.612 144.374 6.5 144.756 6.276 145.088C6.052 145.42 5.724 145.682 5.292 145.874C4.86 146.062 4.334 146.156 3.714 146.156ZM10.658 146.156C10.162 146.156 9.71397 146.028 9.31397 145.772C8.91397 145.516 8.59597 145.16 8.35997 144.704C8.12797 144.248 8.01197 143.72 8.01197 143.12C8.01197 142.484 8.12797 141.94 8.35997 141.488C8.59197 141.032 8.90797 140.682 9.30797 140.438C9.70797 140.194 10.158 140.072 10.658 140.072C11.106 140.072 11.49 140.164 11.81 140.348C12.13 140.528 12.388 140.772 12.584 141.08C12.78 141.384 12.914 141.73 12.986 142.118C13.062 142.506 13.076 142.906 13.028 143.318H8.92397V142.658H12.248L11.972 142.838C11.984 142.622 11.972 142.406 11.936 142.19C11.904 141.974 11.84 141.776 11.744 141.596C11.648 141.412 11.512 141.266 11.336 141.158C11.164 141.046 10.944 140.99 10.676 140.99C10.34 140.99 10.058 141.074 9.82997 141.242C9.60597 141.41 9.43597 141.636 9.31997 141.92C9.20397 142.2 9.14597 142.508 9.14597 142.844V143.306C9.14597 143.678 9.20197 144.008 9.31397 144.296C9.42597 144.584 9.59197 144.812 9.81197 144.98C10.036 145.144 10.318 145.226 10.658 145.226C10.99 145.226 11.264 145.148 11.48 144.992C11.7 144.836 11.836 144.602 11.888 144.29H13.052C12.992 144.666 12.854 144.994 12.638 145.274C12.422 145.554 12.144 145.772 11.804 145.928C11.468 146.08 11.086 146.156 10.658 146.156ZM17.5701 146.156C17.1501 146.156 16.7861 146.062 16.4781 145.874C16.1701 145.682 15.9341 145.402 15.7701 145.034C15.6101 144.662 15.5301 144.202 15.5301 143.654H15.9741C15.9741 143.97 16.0421 144.238 16.1781 144.458C16.3141 144.674 16.4921 144.84 16.7121 144.956C16.9361 145.068 17.1741 145.124 17.4261 145.124C17.6901 145.124 17.9461 145.05 18.1941 144.902C18.4461 144.75 18.6521 144.524 18.8121 144.224C18.9721 143.924 19.0521 143.552 19.0521 143.108C19.0521 142.684 18.9801 142.322 18.8361 142.022C18.6961 141.722 18.5041 141.492 18.2601 141.332C18.0161 141.172 17.7421 141.092 17.4381 141.092C17.1821 141.092 16.9421 141.154 16.7181 141.278C16.4941 141.398 16.3141 141.576 16.1781 141.812C16.0421 142.044 15.9741 142.328 15.9741 142.664H15.5301C15.5301 142.084 15.6221 141.602 15.8061 141.218C15.9941 140.834 16.2461 140.548 16.5621 140.36C16.8781 140.168 17.2281 140.072 17.6121 140.072C18.0641 140.072 18.4881 140.194 18.8841 140.438C19.2801 140.678 19.6001 141.024 19.8441 141.476C20.0921 141.928 20.2161 142.472 20.2161 143.108C20.2161 143.744 20.0921 144.29 19.8441 144.746C19.5961 145.202 19.2701 145.552 18.8661 145.796C18.4661 146.036 18.0341 146.156 17.5701 146.156ZM14.8341 148.832V140.228H15.7761L15.9741 141.614V148.832H14.8341ZM23.8365 146.156C23.5085 146.156 23.2125 146.094 22.9485 145.97C22.6845 145.846 22.4745 145.66 22.3185 145.412C22.1665 145.16 22.0905 144.844 22.0905 144.464V138.656H23.2245V144.428C23.2245 144.972 23.4785 145.244 23.9865 145.244C24.1425 145.244 24.2945 145.228 24.4425 145.196C24.5905 145.16 24.7585 145.108 24.9465 145.04L25.1085 145.85C24.8965 145.938 24.6865 146.01 24.4785 146.066C24.2745 146.126 24.0605 146.156 23.8365 146.156ZM21.2085 141.002V140.228H24.9345V141.002H21.2085ZM30.3817 138.326H31.2697V146H30.1297V139.676C29.9297 139.792 29.7257 139.882 29.5177 139.946C29.3097 140.006 29.1017 140.04 28.8937 140.048V138.944C29.1537 138.912 29.4057 138.848 29.6497 138.752C29.8977 138.652 30.1417 138.51 30.3817 138.326ZM36.1692 146.156C35.5452 146.156 34.9972 145.988 34.5252 145.652C34.0572 145.316 33.6932 144.86 33.4332 144.284C33.1732 143.704 33.0432 143.046 33.0432 142.31C33.0432 141.446 33.1752 140.71 33.4392 140.102C33.7032 139.49 34.0772 139.024 34.5612 138.704C35.0452 138.38 35.6172 138.218 36.2772 138.218C36.7532 138.218 37.1732 138.308 37.5372 138.488C37.9012 138.664 38.1912 138.912 38.4072 139.232C38.6232 139.552 38.7472 139.926 38.7792 140.354H37.5492C37.4972 140.014 37.3712 139.746 37.1712 139.55C36.9712 139.35 36.6832 139.25 36.3072 139.25C35.6512 139.25 35.1332 139.536 34.7532 140.108C34.3772 140.68 34.1892 141.46 34.1892 142.448C34.1892 142.584 34.1912 142.738 34.1952 142.91C34.2032 143.082 34.2192 143.242 34.2432 143.39C34.2912 142.874 34.4212 142.47 34.6332 142.178C34.8452 141.882 35.1072 141.672 35.4192 141.548C35.7352 141.424 36.0672 141.362 36.4152 141.362C36.8832 141.362 37.2992 141.464 37.6632 141.668C38.0312 141.872 38.3192 142.156 38.5272 142.52C38.7392 142.88 38.8452 143.294 38.8452 143.762C38.8452 144.238 38.7332 144.656 38.5092 145.016C38.2852 145.376 37.9712 145.656 37.5672 145.856C37.1632 146.056 36.6972 146.156 36.1692 146.156ZM36.1692 145.106C36.5932 145.106 36.9472 144.982 37.2312 144.734C37.5152 144.482 37.6572 144.146 37.6572 143.726C37.6572 143.29 37.5152 142.95 37.2312 142.706C36.9472 142.458 36.5932 142.334 36.1692 142.334C35.8892 142.334 35.6372 142.394 35.4132 142.514C35.1932 142.63 35.0172 142.794 34.8852 143.006C34.7572 143.214 34.6932 143.454 34.6932 143.726C34.6932 144.146 34.8352 144.482 35.1192 144.734C35.4032 144.982 35.7532 145.106 36.1692 145.106Z" fill="white"/>
<path d="M181.214 146.156C180.694 146.156 180.216 146.064 179.78 145.88C179.344 145.692 178.992 145.414 178.724 145.046C178.46 144.678 178.322 144.218 178.31 143.666H179.426C179.426 143.998 179.506 144.27 179.666 144.482C179.83 144.694 180.046 144.852 180.314 144.956C180.582 145.056 180.878 145.106 181.202 145.106C181.53 145.106 181.82 145.056 182.072 144.956C182.324 144.856 182.518 144.722 182.654 144.554C182.794 144.386 182.864 144.194 182.864 143.978C182.864 143.686 182.774 143.452 182.594 143.276C182.414 143.096 182.14 142.944 181.772 142.82L180.35 142.292C179.738 142.064 179.272 141.802 178.952 141.506C178.632 141.206 178.472 140.79 178.472 140.258C178.472 139.654 178.708 139.164 179.18 138.788C179.652 138.408 180.316 138.218 181.172 138.218C181.984 138.218 182.614 138.406 183.062 138.782C183.514 139.158 183.772 139.67 183.836 140.318H182.714C182.658 139.99 182.504 139.73 182.252 139.538C182.004 139.346 181.644 139.25 181.172 139.25C180.716 139.25 180.36 139.35 180.104 139.55C179.848 139.746 179.72 139.994 179.72 140.294C179.72 140.542 179.8 140.74 179.96 140.888C180.124 141.036 180.378 141.17 180.722 141.29L182.342 141.884C182.898 142.08 183.332 142.344 183.644 142.676C183.956 143.008 184.112 143.43 184.112 143.942C184.112 144.374 184 144.756 183.776 145.088C183.552 145.42 183.224 145.682 182.792 145.874C182.36 146.062 181.834 146.156 181.214 146.156ZM188.158 146.156C187.662 146.156 187.214 146.028 186.814 145.772C186.414 145.516 186.096 145.16 185.86 144.704C185.628 144.248 185.512 143.72 185.512 143.12C185.512 142.484 185.628 141.94 185.86 141.488C186.092 141.032 186.408 140.682 186.808 140.438C187.208 140.194 187.658 140.072 188.158 140.072C188.606 140.072 188.99 140.164 189.31 140.348C189.63 140.528 189.888 140.772 190.084 141.08C190.28 141.384 190.414 141.73 190.486 142.118C190.562 142.506 190.576 142.906 190.528 143.318H186.424V142.658H189.748L189.472 142.838C189.484 142.622 189.472 142.406 189.436 142.19C189.404 141.974 189.34 141.776 189.244 141.596C189.148 141.412 189.012 141.266 188.836 141.158C188.664 141.046 188.444 140.99 188.176 140.99C187.84 140.99 187.558 141.074 187.33 141.242C187.106 141.41 186.936 141.636 186.82 141.92C186.704 142.2 186.646 142.508 186.646 142.844V143.306C186.646 143.678 186.702 144.008 186.814 144.296C186.926 144.584 187.092 144.812 187.312 144.98C187.536 145.144 187.818 145.226 188.158 145.226C188.49 145.226 188.764 145.148 188.98 144.992C189.2 144.836 189.336 144.602 189.388 144.29H190.552C190.492 144.666 190.354 144.994 190.138 145.274C189.922 145.554 189.644 145.772 189.304 145.928C188.968 146.08 188.586 146.156 188.158 146.156ZM195.07 146.156C194.65 146.156 194.286 146.062 193.978 145.874C193.67 145.682 193.434 145.402 193.27 145.034C193.11 144.662 193.03 144.202 193.03 143.654H193.474C193.474 143.97 193.542 144.238 193.678 144.458C193.814 144.674 193.992 144.84 194.212 144.956C194.436 145.068 194.674 145.124 194.926 145.124C195.19 145.124 195.446 145.05 195.694 144.902C195.946 144.75 196.152 144.524 196.312 144.224C196.472 143.924 196.552 143.552 196.552 143.108C196.552 142.684 196.48 142.322 196.336 142.022C196.196 141.722 196.004 141.492 195.76 141.332C195.516 141.172 195.242 141.092 194.938 141.092C194.682 141.092 194.442 141.154 194.218 141.278C193.994 141.398 193.814 141.576 193.678 141.812C193.542 142.044 193.474 142.328 193.474 142.664H193.03C193.03 142.084 193.122 141.602 193.306 141.218C193.494 140.834 193.746 140.548 194.062 140.36C194.378 140.168 194.728 140.072 195.112 140.072C195.564 140.072 195.988 140.194 196.384 140.438C196.78 140.678 197.1 141.024 197.344 141.476C197.592 141.928 197.716 142.472 197.716 143.108C197.716 143.744 197.592 144.29 197.344 144.746C197.096 145.202 196.77 145.552 196.366 145.796C195.966 146.036 195.534 146.156 195.07 146.156ZM192.334 148.832V140.228H193.276L193.474 141.614V148.832H192.334ZM201.337 146.156C201.009 146.156 200.713 146.094 200.449 145.97C200.185 145.846 199.975 145.66 199.819 145.412C199.667 145.16 199.591 144.844 199.591 144.464V138.656H200.725V144.428C200.725 144.972 200.979 145.244 201.487 145.244C201.643 145.244 201.795 145.228 201.943 145.196C202.091 145.16 202.259 145.108 202.447 145.04L202.609 145.85C202.397 145.938 202.187 146.01 201.979 146.066C201.775 146.126 201.561 146.156 201.337 146.156ZM198.708 141.002V140.228H202.435V141.002H198.708ZM207.882 138.326H208.77V146H207.63V139.676C207.43 139.792 207.226 139.882 207.018 139.946C206.81 140.006 206.602 140.04 206.394 140.048V138.944C206.654 138.912 206.906 138.848 207.15 138.752C207.398 138.652 207.642 138.51 207.882 138.326ZM210.579 146L214.173 139.448H210.237V138.356H215.517V139.43L212.109 146H210.579Z" fill="white"/>
<path d="M357.714 146.156C357.194 146.156 356.716 146.064 356.28 145.88C355.844 145.692 355.492 145.414 355.224 145.046C354.96 144.678 354.822 144.218 354.81 143.666H355.926C355.926 143.998 356.006 144.27 356.166 144.482C356.33 144.694 356.546 144.852 356.814 144.956C357.082 145.056 357.378 145.106 357.702 145.106C358.03 145.106 358.32 145.056 358.572 144.956C358.824 144.856 359.018 144.722 359.154 144.554C359.294 144.386 359.364 144.194 359.364 143.978C359.364 143.686 359.274 143.452 359.094 143.276C358.914 143.096 358.64 142.944 358.272 142.82L356.85 142.292C356.238 142.064 355.772 141.802 355.452 141.506C355.132 141.206 354.972 140.79 354.972 140.258C354.972 139.654 355.208 139.164 355.68 138.788C356.152 138.408 356.816 138.218 357.672 138.218C358.484 138.218 359.114 138.406 359.562 138.782C360.014 139.158 360.272 139.67 360.336 140.318H359.214C359.158 139.99 359.004 139.73 358.752 139.538C358.504 139.346 358.144 139.25 357.672 139.25C357.216 139.25 356.86 139.35 356.604 139.55C356.348 139.746 356.22 139.994 356.22 140.294C356.22 140.542 356.3 140.74 356.46 140.888C356.624 141.036 356.878 141.17 357.222 141.29L358.842 141.884C359.398 142.08 359.832 142.344 360.144 142.676C360.456 143.008 360.612 143.43 360.612 143.942C360.612 144.374 360.5 144.756 360.276 145.088C360.052 145.42 359.724 145.682 359.292 145.874C358.86 146.062 358.334 146.156 357.714 146.156ZM364.658 146.156C364.162 146.156 363.714 146.028 363.314 145.772C362.914 145.516 362.596 145.16 362.36 144.704C362.128 144.248 362.012 143.72 362.012 143.12C362.012 142.484 362.128 141.94 362.36 141.488C362.592 141.032 362.908 140.682 363.308 140.438C363.708 140.194 364.158 140.072 364.658 140.072C365.106 140.072 365.49 140.164 365.81 140.348C366.13 140.528 366.388 140.772 366.584 141.08C366.78 141.384 366.914 141.73 366.986 142.118C367.062 142.506 367.076 142.906 367.028 143.318H362.924V142.658H366.248L365.972 142.838C365.984 142.622 365.972 142.406 365.936 142.19C365.904 141.974 365.84 141.776 365.744 141.596C365.648 141.412 365.512 141.266 365.336 141.158C365.164 141.046 364.944 140.99 364.676 140.99C364.34 140.99 364.058 141.074 363.83 141.242C363.606 141.41 363.436 141.636 363.32 141.92C363.204 142.2 363.146 142.508 363.146 142.844V143.306C363.146 143.678 363.202 144.008 363.314 144.296C363.426 144.584 363.592 144.812 363.812 144.98C364.036 145.144 364.318 145.226 364.658 145.226C364.99 145.226 365.264 145.148 365.48 144.992C365.7 144.836 365.836 144.602 365.888 144.29H367.052C366.992 144.666 366.854 144.994 366.638 145.274C366.422 145.554 366.144 145.772 365.804 145.928C365.468 146.08 365.086 146.156 364.658 146.156ZM371.57 146.156C371.15 146.156 370.786 146.062 370.478 145.874C370.17 145.682 369.934 145.402 369.77 145.034C369.61 144.662 369.53 144.202 369.53 143.654H369.974C369.974 143.97 370.042 144.238 370.178 144.458C370.314 144.674 370.492 144.84 370.712 144.956C370.936 145.068 371.174 145.124 371.426 145.124C371.69 145.124 371.946 145.05 372.194 144.902C372.446 144.75 372.652 144.524 372.812 144.224C372.972 143.924 373.052 143.552 373.052 143.108C373.052 142.684 372.98 142.322 372.836 142.022C372.696 141.722 372.504 141.492 372.26 141.332C372.016 141.172 371.742 141.092 371.438 141.092C371.182 141.092 370.942 141.154 370.718 141.278C370.494 141.398 370.314 141.576 370.178 141.812C370.042 142.044 369.974 142.328 369.974 142.664H369.53C369.53 142.084 369.622 141.602 369.806 141.218C369.994 140.834 370.246 140.548 370.562 140.36C370.878 140.168 371.228 140.072 371.612 140.072C372.064 140.072 372.488 140.194 372.884 140.438C373.28 140.678 373.6 141.024 373.844 141.476C374.092 141.928 374.216 142.472 374.216 143.108C374.216 143.744 374.092 144.29 373.844 144.746C373.596 145.202 373.27 145.552 372.866 145.796C372.466 146.036 372.034 146.156 371.57 146.156ZM368.834 148.832V140.228H369.776L369.974 141.614V148.832H368.834ZM377.837 146.156C377.509 146.156 377.213 146.094 376.949 145.97C376.685 145.846 376.475 145.66 376.319 145.412C376.167 145.16 376.091 144.844 376.091 144.464V138.656H377.225V144.428C377.225 144.972 377.479 145.244 377.987 145.244C378.143 145.244 378.295 145.228 378.443 145.196C378.591 145.16 378.759 145.108 378.947 145.04L379.109 145.85C378.897 145.938 378.687 146.01 378.479 146.066C378.275 146.126 378.061 146.156 377.837 146.156ZM375.208 141.002V140.228H378.935V141.002H375.208ZM384.382 138.326H385.27V146H384.13V139.676C383.93 139.792 383.726 139.882 383.518 139.946C383.31 140.006 383.102 140.04 382.894 140.048V138.944C383.154 138.912 383.406 138.848 383.65 138.752C383.898 138.652 384.142 138.51 384.382 138.326ZM390.217 146.156C389.593 146.156 389.045 146.06 388.573 145.868C388.105 145.676 387.739 145.412 387.475 145.076C387.211 144.74 387.079 144.362 387.079 143.942C387.079 143.566 387.177 143.246 387.373 142.982C387.573 142.714 387.843 142.508 388.183 142.364C388.527 142.22 388.915 142.148 389.347 142.148C389.487 142.148 389.619 142.158 389.743 142.178C389.867 142.194 390.005 142.222 390.157 142.262V142.568C389.781 142.568 389.451 142.628 389.167 142.748C388.883 142.864 388.661 143.018 388.501 143.21C388.341 143.402 388.261 143.612 388.261 143.84C388.261 144.108 388.347 144.338 388.519 144.53C388.691 144.718 388.925 144.862 389.221 144.962C389.517 145.058 389.849 145.106 390.217 145.106C390.853 145.106 391.337 145.012 391.669 144.824C392.005 144.636 392.173 144.392 392.173 144.092C392.173 143.852 392.087 143.652 391.915 143.492C391.747 143.328 391.511 143.19 391.207 143.078L389.071 142.256C388.815 142.16 388.553 142.024 388.285 141.848C388.017 141.672 387.791 141.454 387.607 141.194C387.427 140.93 387.337 140.62 387.337 140.264C387.337 139.856 387.449 139.498 387.673 139.19C387.901 138.882 388.229 138.644 388.657 138.476C389.089 138.304 389.609 138.218 390.217 138.218C390.761 138.218 391.249 138.312 391.681 138.5C392.117 138.684 392.459 138.938 392.707 139.262C392.955 139.582 393.079 139.95 393.079 140.366C393.079 140.67 392.999 140.954 392.839 141.218C392.679 141.478 392.445 141.688 392.137 141.848C391.829 142.008 391.453 142.088 391.009 142.088C390.881 142.088 390.761 142.08 390.649 142.064C390.541 142.044 390.415 142.012 390.271 141.968V141.62C390.571 141.62 390.843 141.572 391.087 141.476C391.335 141.376 391.531 141.236 391.675 141.056C391.823 140.876 391.897 140.668 391.897 140.432C391.897 140.2 391.825 139.996 391.681 139.82C391.541 139.64 391.345 139.5 391.093 139.4C390.841 139.3 390.549 139.25 390.217 139.25C389.897 139.25 389.609 139.298 389.353 139.394C389.097 139.486 388.895 139.612 388.747 139.772C388.599 139.932 388.525 140.11 388.525 140.306C388.525 140.546 388.605 140.74 388.765 140.888C388.929 141.032 389.159 141.16 389.455 141.272L391.621 142.106C392.181 142.322 392.611 142.574 392.911 142.862C393.211 143.146 393.361 143.538 393.361 144.038C393.361 144.45 393.237 144.816 392.989 145.136C392.741 145.456 392.383 145.706 391.915 145.886C391.447 146.066 390.881 146.156 390.217 146.156Z" fill="white"/>
<path d="M535.214 146.156C534.694 146.156 534.216 146.064 533.78 145.88C533.344 145.692 532.992 145.414 532.724 145.046C532.46 144.678 532.322 144.218 532.31 143.666H533.426C533.426 143.998 533.506 144.27 533.666 144.482C533.83 144.694 534.046 144.852 534.314 144.956C534.582 145.056 534.878 145.106 535.202 145.106C535.53 145.106 535.82 145.056 536.072 144.956C536.324 144.856 536.518 144.722 536.654 144.554C536.794 144.386 536.864 144.194 536.864 143.978C536.864 143.686 536.774 143.452 536.594 143.276C536.414 143.096 536.14 142.944 535.772 142.82L534.35 142.292C533.738 142.064 533.272 141.802 532.952 141.506C532.632 141.206 532.472 140.79 532.472 140.258C532.472 139.654 532.708 139.164 533.18 138.788C533.652 138.408 534.316 138.218 535.172 138.218C535.984 138.218 536.614 138.406 537.062 138.782C537.514 139.158 537.772 139.67 537.836 140.318H536.714C536.658 139.99 536.504 139.73 536.252 139.538C536.004 139.346 535.644 139.25 535.172 139.25C534.716 139.25 534.36 139.35 534.104 139.55C533.848 139.746 533.72 139.994 533.72 140.294C533.72 140.542 533.8 140.74 533.96 140.888C534.124 141.036 534.378 141.17 534.722 141.29L536.342 141.884C536.898 142.08 537.332 142.344 537.644 142.676C537.956 143.008 538.112 143.43 538.112 143.942C538.112 144.374 538 144.756 537.776 145.088C537.552 145.42 537.224 145.682 536.792 145.874C536.36 146.062 535.834 146.156 535.214 146.156ZM542.158 146.156C541.662 146.156 541.214 146.028 540.814 145.772C540.414 145.516 540.096 145.16 539.86 144.704C539.628 144.248 539.512 143.72 539.512 143.12C539.512 142.484 539.628 141.94 539.86 141.488C540.092 141.032 540.408 140.682 540.808 140.438C541.208 140.194 541.658 140.072 542.158 140.072C542.606 140.072 542.99 140.164 543.31 140.348C543.63 140.528 543.888 140.772 544.084 141.08C544.28 141.384 544.414 141.73 544.486 142.118C544.562 142.506 544.576 142.906 544.528 143.318H540.424V142.658H543.748L543.472 142.838C543.484 142.622 543.472 142.406 543.436 142.19C543.404 141.974 543.34 141.776 543.244 141.596C543.148 141.412 543.012 141.266 542.836 141.158C542.664 141.046 542.444 140.99 542.176 140.99C541.84 140.99 541.558 141.074 541.33 141.242C541.106 141.41 540.936 141.636 540.82 141.92C540.704 142.2 540.646 142.508 540.646 142.844V143.306C540.646 143.678 540.702 144.008 540.814 144.296C540.926 144.584 541.092 144.812 541.312 144.98C541.536 145.144 541.818 145.226 542.158 145.226C542.49 145.226 542.764 145.148 542.98 144.992C543.2 144.836 543.336 144.602 543.388 144.29H544.552C544.492 144.666 544.354 144.994 544.138 145.274C543.922 145.554 543.644 145.772 543.304 145.928C542.968 146.08 542.586 146.156 542.158 146.156ZM549.07 146.156C548.65 146.156 548.286 146.062 547.978 145.874C547.67 145.682 547.434 145.402 547.27 145.034C547.11 144.662 547.03 144.202 547.03 143.654H547.474C547.474 143.97 547.542 144.238 547.678 144.458C547.814 144.674 547.992 144.84 548.212 144.956C548.436 145.068 548.674 145.124 548.926 145.124C549.19 145.124 549.446 145.05 549.694 144.902C549.946 144.75 550.152 144.524 550.312 144.224C550.472 143.924 550.552 143.552 550.552 143.108C550.552 142.684 550.48 142.322 550.336 142.022C550.196 141.722 550.004 141.492 549.76 141.332C549.516 141.172 549.242 141.092 548.938 141.092C548.682 141.092 548.442 141.154 548.218 141.278C547.994 141.398 547.814 141.576 547.678 141.812C547.542 142.044 547.474 142.328 547.474 142.664H547.03C547.03 142.084 547.122 141.602 547.306 141.218C547.494 140.834 547.746 140.548 548.062 140.36C548.378 140.168 548.728 140.072 549.112 140.072C549.564 140.072 549.988 140.194 550.384 140.438C550.78 140.678 551.1 141.024 551.344 141.476C551.592 141.928 551.716 142.472 551.716 143.108C551.716 143.744 551.592 144.29 551.344 144.746C551.096 145.202 550.77 145.552 550.366 145.796C549.966 146.036 549.534 146.156 549.07 146.156ZM546.334 148.832V140.228H547.276L547.474 141.614V148.832H546.334ZM555.337 146.156C555.009 146.156 554.713 146.094 554.449 145.97C554.185 145.846 553.975 145.66 553.819 145.412C553.667 145.16 553.591 144.844 553.591 144.464V138.656H554.725V144.428C554.725 144.972 554.979 145.244 555.487 145.244C555.643 145.244 555.795 145.228 555.943 145.196C556.091 145.16 556.259 145.108 556.447 145.04L556.609 145.85C556.397 145.938 556.187 146.01 555.979 146.066C555.775 146.126 555.561 146.156 555.337 146.156ZM552.708 141.002V140.228H556.435V141.002H552.708ZM561.882 138.326H562.77V146H561.63V139.676C561.43 139.792 561.226 139.882 561.018 139.946C560.81 140.006 560.602 140.04 560.394 140.048V138.944C560.654 138.912 560.906 138.848 561.15 138.752C561.398 138.652 561.642 138.51 561.882 138.326ZM567.423 146.156C566.911 146.156 566.453 146.054 566.049 145.85C565.645 145.642 565.325 145.356 565.089 144.992C564.853 144.628 564.735 144.21 564.735 143.738H565.923C565.939 144.154 566.079 144.486 566.343 144.734C566.607 144.982 566.955 145.106 567.387 145.106C567.847 145.106 568.217 144.976 568.497 144.716C568.781 144.452 568.989 144.08 569.121 143.6C569.253 143.12 569.319 142.558 569.319 141.914C569.319 141.774 569.315 141.642 569.307 141.518C569.299 141.39 569.285 141.252 569.265 141.104C569.201 141.54 569.067 141.898 568.863 142.178C568.663 142.454 568.411 142.66 568.107 142.796C567.803 142.928 567.465 142.994 567.093 142.994C566.629 142.994 566.215 142.892 565.851 142.688C565.487 142.484 565.199 142.202 564.987 141.842C564.779 141.478 564.675 141.062 564.675 140.594C564.675 140.114 564.787 139.696 565.011 139.34C565.235 138.984 565.547 138.708 565.947 138.512C566.347 138.316 566.811 138.218 567.339 138.218C567.783 138.218 568.195 138.308 568.575 138.488C568.959 138.668 569.291 138.926 569.571 139.262C569.855 139.598 570.075 140 570.231 140.468C570.391 140.936 570.471 141.46 570.471 142.04C570.471 142.88 570.359 143.608 570.135 144.224C569.915 144.84 569.579 145.316 569.127 145.652C568.679 145.988 568.111 146.156 567.423 146.156ZM567.345 142.022C567.617 142.022 567.865 141.962 568.089 141.842C568.317 141.722 568.497 141.56 568.629 141.356C568.761 141.148 568.827 140.912 568.827 140.648C568.827 140.216 568.681 139.876 568.389 139.628C568.101 139.38 567.751 139.256 567.339 139.256C566.919 139.256 566.567 139.38 566.283 139.628C565.999 139.876 565.857 140.216 565.857 140.648C565.857 141.076 565.999 141.412 566.283 141.656C566.567 141.9 566.921 142.022 567.345 142.022Z" fill="white"/>
<path d="M712.714 146.156C712.194 146.156 711.716 146.064 711.28 145.88C710.844 145.692 710.492 145.414 710.224 145.046C709.96 144.678 709.822 144.218 709.81 143.666H710.926C710.926 143.998 711.006 144.27 711.166 144.482C711.33 144.694 711.546 144.852 711.814 144.956C712.082 145.056 712.378 145.106 712.702 145.106C713.03 145.106 713.32 145.056 713.572 144.956C713.824 144.856 714.018 144.722 714.154 144.554C714.294 144.386 714.364 144.194 714.364 143.978C714.364 143.686 714.274 143.452 714.094 143.276C713.914 143.096 713.64 142.944 713.272 142.82L711.85 142.292C711.238 142.064 710.772 141.802 710.452 141.506C710.132 141.206 709.972 140.79 709.972 140.258C709.972 139.654 710.208 139.164 710.68 138.788C711.152 138.408 711.816 138.218 712.672 138.218C713.484 138.218 714.114 138.406 714.562 138.782C715.014 139.158 715.272 139.67 715.336 140.318H714.214C714.158 139.99 714.004 139.73 713.752 139.538C713.504 139.346 713.144 139.25 712.672 139.25C712.216 139.25 711.86 139.35 711.604 139.55C711.348 139.746 711.22 139.994 711.22 140.294C711.22 140.542 711.3 140.74 711.46 140.888C711.624 141.036 711.878 141.17 712.222 141.29L713.842 141.884C714.398 142.08 714.832 142.344 715.144 142.676C715.456 143.008 715.612 143.43 715.612 143.942C715.612 144.374 715.5 144.756 715.276 145.088C715.052 145.42 714.724 145.682 714.292 145.874C713.86 146.062 713.334 146.156 712.714 146.156ZM719.658 146.156C719.162 146.156 718.714 146.028 718.314 145.772C717.914 145.516 717.596 145.16 717.36 144.704C717.128 144.248 717.012 143.72 717.012 143.12C717.012 142.484 717.128 141.94 717.36 141.488C717.592 141.032 717.908 140.682 718.308 140.438C718.708 140.194 719.158 140.072 719.658 140.072C720.106 140.072 720.49 140.164 720.81 140.348C721.13 140.528 721.388 140.772 721.584 141.08C721.78 141.384 721.914 141.73 721.986 142.118C722.062 142.506 722.076 142.906 722.028 143.318H717.924V142.658H721.248L720.972 142.838C720.984 142.622 720.972 142.406 720.936 142.19C720.904 141.974 720.84 141.776 720.744 141.596C720.648 141.412 720.512 141.266 720.336 141.158C720.164 141.046 719.944 140.99 719.676 140.99C719.34 140.99 719.058 141.074 718.83 141.242C718.606 141.41 718.436 141.636 718.32 141.92C718.204 142.2 718.146 142.508 718.146 142.844V143.306C718.146 143.678 718.202 144.008 718.314 144.296C718.426 144.584 718.592 144.812 718.812 144.98C719.036 145.144 719.318 145.226 719.658 145.226C719.99 145.226 720.264 145.148 720.48 144.992C720.7 144.836 720.836 144.602 720.888 144.29H722.052C721.992 144.666 721.854 144.994 721.638 145.274C721.422 145.554 721.144 145.772 720.804 145.928C720.468 146.08 720.086 146.156 719.658 146.156ZM726.57 146.156C726.15 146.156 725.786 146.062 725.478 145.874C725.17 145.682 724.934 145.402 724.77 145.034C724.61 144.662 724.53 144.202 724.53 143.654H724.974C724.974 143.97 725.042 144.238 725.178 144.458C725.314 144.674 725.492 144.84 725.712 144.956C725.936 145.068 726.174 145.124 726.426 145.124C726.69 145.124 726.946 145.05 727.194 144.902C727.446 144.75 727.652 144.524 727.812 144.224C727.972 143.924 728.052 143.552 728.052 143.108C728.052 142.684 727.98 142.322 727.836 142.022C727.696 141.722 727.504 141.492 727.26 141.332C727.016 141.172 726.742 141.092 726.438 141.092C726.182 141.092 725.942 141.154 725.718 141.278C725.494 141.398 725.314 141.576 725.178 141.812C725.042 142.044 724.974 142.328 724.974 142.664H724.53C724.53 142.084 724.622 141.602 724.806 141.218C724.994 140.834 725.246 140.548 725.562 140.36C725.878 140.168 726.228 140.072 726.612 140.072C727.064 140.072 727.488 140.194 727.884 140.438C728.28 140.678 728.6 141.024 728.844 141.476C729.092 141.928 729.216 142.472 729.216 143.108C729.216 143.744 729.092 144.29 728.844 144.746C728.596 145.202 728.27 145.552 727.866 145.796C727.466 146.036 727.034 146.156 726.57 146.156ZM723.834 148.832V140.228H724.776L724.974 141.614V148.832H723.834ZM732.837 146.156C732.509 146.156 732.213 146.094 731.949 145.97C731.685 145.846 731.475 145.66 731.319 145.412C731.167 145.16 731.091 144.844 731.091 144.464V138.656H732.225V144.428C732.225 144.972 732.479 145.244 732.987 145.244C733.143 145.244 733.295 145.228 733.443 145.196C733.591 145.16 733.759 145.108 733.947 145.04L734.109 145.85C733.897 145.938 733.687 146.01 733.479 146.066C733.275 146.126 733.061 146.156 732.837 146.156ZM730.208 141.002V140.228H733.935V141.002H730.208ZM738.098 146V144.794C738.098 144.358 738.166 143.992 738.302 143.696C738.438 143.396 738.636 143.146 738.896 142.946C739.156 142.746 739.472 142.574 739.844 142.43L741.38 141.83C741.748 141.682 742.022 141.494 742.202 141.266C742.382 141.038 742.472 140.756 742.472 140.42C742.472 140.072 742.35 139.784 742.106 139.556C741.862 139.328 741.516 139.214 741.068 139.214C740.632 139.214 740.27 139.314 739.982 139.514C739.698 139.71 739.536 140.004 739.496 140.396H738.23C738.25 139.92 738.382 139.52 738.626 139.196C738.87 138.872 739.2 138.628 739.616 138.464C740.032 138.3 740.51 138.218 741.05 138.218C741.554 138.218 742.006 138.314 742.406 138.506C742.806 138.698 743.122 138.964 743.354 139.304C743.59 139.644 743.708 140.036 743.708 140.48C743.708 140.876 743.636 141.222 743.492 141.518C743.348 141.81 743.136 142.064 742.856 142.28C742.576 142.496 742.236 142.684 741.836 142.844L740.276 143.462C739.924 143.598 739.662 143.758 739.49 143.942C739.322 144.122 739.238 144.358 739.238 144.65V144.95H743.648V146H738.098ZM748.104 146.156C747.492 146.156 746.954 146.01 746.49 145.718C746.03 145.426 745.672 144.986 745.416 144.398C745.16 143.81 745.032 143.07 745.032 142.178C745.032 141.29 745.16 140.552 745.416 139.964C745.672 139.376 746.03 138.938 746.49 138.65C746.954 138.362 747.492 138.218 748.104 138.218C748.712 138.218 749.246 138.362 749.706 138.65C750.166 138.938 750.524 139.376 750.78 139.964C751.04 140.552 751.17 141.29 751.17 142.178C751.17 143.07 751.04 143.81 750.78 144.398C750.524 144.986 750.166 145.426 749.706 145.718C749.246 146.01 748.712 146.156 748.104 146.156ZM748.104 145.106C748.712 145.106 749.178 144.854 749.502 144.35C749.83 143.842 749.994 143.118 749.994 142.178C749.994 141.242 749.83 140.52 749.502 140.012C749.178 139.504 748.712 139.25 748.104 139.25C747.496 139.25 747.028 139.504 746.7 140.012C746.376 140.52 746.214 141.242 746.214 142.178C746.214 143.118 746.376 143.842 746.7 144.35C747.028 144.854 747.496 145.106 748.104 145.106Z" fill="white"/>
<path d="M893.214 146.156C892.694 146.156 892.216 146.064 891.78 145.88C891.344 145.692 890.992 145.414 890.724 145.046C890.46 144.678 890.322 144.218 890.31 143.666H891.426C891.426 143.998 891.506 144.27 891.666 144.482C891.83 144.694 892.046 144.852 892.314 144.956C892.582 145.056 892.878 145.106 893.202 145.106C893.53 145.106 893.82 145.056 894.072 144.956C894.324 144.856 894.518 144.722 894.654 144.554C894.794 144.386 894.864 144.194 894.864 143.978C894.864 143.686 894.774 143.452 894.594 143.276C894.414 143.096 894.14 142.944 893.772 142.82L892.35 142.292C891.738 142.064 891.272 141.802 890.952 141.506C890.632 141.206 890.472 140.79 890.472 140.258C890.472 139.654 890.708 139.164 891.18 138.788C891.652 138.408 892.316 138.218 893.172 138.218C893.984 138.218 894.614 138.406 895.062 138.782C895.514 139.158 895.772 139.67 895.836 140.318H894.714C894.658 139.99 894.504 139.73 894.252 139.538C894.004 139.346 893.644 139.25 893.172 139.25C892.716 139.25 892.36 139.35 892.104 139.55C891.848 139.746 891.72 139.994 891.72 140.294C891.72 140.542 891.8 140.74 891.96 140.888C892.124 141.036 892.378 141.17 892.722 141.29L894.342 141.884C894.898 142.08 895.332 142.344 895.644 142.676C895.956 143.008 896.112 143.43 896.112 143.942C896.112 144.374 896 144.756 895.776 145.088C895.552 145.42 895.224 145.682 894.792 145.874C894.36 146.062 893.834 146.156 893.214 146.156ZM900.158 146.156C899.662 146.156 899.214 146.028 898.814 145.772C898.414 145.516 898.096 145.16 897.86 144.704C897.628 144.248 897.512 143.72 897.512 143.12C897.512 142.484 897.628 141.94 897.86 141.488C898.092 141.032 898.408 140.682 898.808 140.438C899.208 140.194 899.658 140.072 900.158 140.072C900.606 140.072 900.99 140.164 901.31 140.348C901.63 140.528 901.888 140.772 902.084 141.08C902.28 141.384 902.414 141.73 902.486 142.118C902.562 142.506 902.576 142.906 902.528 143.318H898.424V142.658H901.748L901.472 142.838C901.484 142.622 901.472 142.406 901.436 142.19C901.404 141.974 901.34 141.776 901.244 141.596C901.148 141.412 901.012 141.266 900.836 141.158C900.664 141.046 900.444 140.99 900.176 140.99C899.84 140.99 899.558 141.074 899.33 141.242C899.106 141.41 898.936 141.636 898.82 141.92C898.704 142.2 898.646 142.508 898.646 142.844V143.306C898.646 143.678 898.702 144.008 898.814 144.296C898.926 144.584 899.092 144.812 899.312 144.98C899.536 145.144 899.818 145.226 900.158 145.226C900.49 145.226 900.764 145.148 900.98 144.992C901.2 144.836 901.336 144.602 901.388 144.29H902.552C902.492 144.666 902.354 144.994 902.138 145.274C901.922 145.554 901.644 145.772 901.304 145.928C900.968 146.08 900.586 146.156 900.158 146.156ZM907.07 146.156C906.65 146.156 906.286 146.062 905.978 145.874C905.67 145.682 905.434 145.402 905.27 145.034C905.11 144.662 905.03 144.202 905.03 143.654H905.474C905.474 143.97 905.542 144.238 905.678 144.458C905.814 144.674 905.992 144.84 906.212 144.956C906.436 145.068 906.674 145.124 906.926 145.124C907.19 145.124 907.446 145.05 907.694 144.902C907.946 144.75 908.152 144.524 908.312 144.224C908.472 143.924 908.552 143.552 908.552 143.108C908.552 142.684 908.48 142.322 908.336 142.022C908.196 141.722 908.004 141.492 907.76 141.332C907.516 141.172 907.242 141.092 906.938 141.092C906.682 141.092 906.442 141.154 906.218 141.278C905.994 141.398 905.814 141.576 905.678 141.812C905.542 142.044 905.474 142.328 905.474 142.664H905.03C905.03 142.084 905.122 141.602 905.306 141.218C905.494 140.834 905.746 140.548 906.062 140.36C906.378 140.168 906.728 140.072 907.112 140.072C907.564 140.072 907.988 140.194 908.384 140.438C908.78 140.678 909.1 141.024 909.344 141.476C909.592 141.928 909.716 142.472 909.716 143.108C909.716 143.744 909.592 144.29 909.344 144.746C909.096 145.202 908.77 145.552 908.366 145.796C907.966 146.036 907.534 146.156 907.07 146.156ZM904.334 148.832V140.228H905.276L905.474 141.614V148.832H904.334ZM913.337 146.156C913.009 146.156 912.713 146.094 912.449 145.97C912.185 145.846 911.975 145.66 911.819 145.412C911.667 145.16 911.591 144.844 911.591 144.464V138.656H912.725V144.428C912.725 144.972 912.979 145.244 913.487 145.244C913.643 145.244 913.795 145.228 913.943 145.196C914.091 145.16 914.259 145.108 914.447 145.04L914.609 145.85C914.397 145.938 914.187 146.01 913.979 146.066C913.775 146.126 913.561 146.156 913.337 146.156ZM910.708 141.002V140.228H914.435V141.002H910.708ZM918.598 146V144.794C918.598 144.358 918.666 143.992 918.802 143.696C918.938 143.396 919.136 143.146 919.396 142.946C919.656 142.746 919.972 142.574 920.344 142.43L921.88 141.83C922.248 141.682 922.522 141.494 922.702 141.266C922.882 141.038 922.972 140.756 922.972 140.42C922.972 140.072 922.85 139.784 922.606 139.556C922.362 139.328 922.016 139.214 921.568 139.214C921.132 139.214 920.77 139.314 920.482 139.514C920.198 139.71 920.036 140.004 919.996 140.396H918.73C918.75 139.92 918.882 139.52 919.126 139.196C919.37 138.872 919.7 138.628 920.116 138.464C920.532 138.3 921.01 138.218 921.55 138.218C922.054 138.218 922.506 138.314 922.906 138.506C923.306 138.698 923.622 138.964 923.854 139.304C924.09 139.644 924.208 140.036 924.208 140.48C924.208 140.876 924.136 141.222 923.992 141.518C923.848 141.81 923.636 142.064 923.356 142.28C923.076 142.496 922.736 142.684 922.336 142.844L920.776 143.462C920.424 143.598 920.162 143.758 919.99 143.942C919.822 144.122 919.738 144.358 919.738 144.65V144.95H924.148V146H918.598ZM926.972 138.326H927.86V146H926.72V139.676C926.52 139.792 926.316 139.882 926.108 139.946C925.9 140.006 925.692 140.04 925.484 140.048V138.944C925.744 138.912 925.996 138.848 926.24 138.752C926.488 138.652 926.732 138.51 926.972 138.326Z" fill="white"/>
<path d="M1070.71 146.156C1070.19 146.156 1069.72 146.064 1069.28 145.88C1068.84 145.692 1068.49 145.414 1068.22 145.046C1067.96 144.678 1067.82 144.218 1067.81 143.666H1068.93C1068.93 143.998 1069.01 144.27 1069.17 144.482C1069.33 144.694 1069.55 144.852 1069.81 144.956C1070.08 145.056 1070.38 145.106 1070.7 145.106C1071.03 145.106 1071.32 145.056 1071.57 144.956C1071.82 144.856 1072.02 144.722 1072.15 144.554C1072.29 144.386 1072.36 144.194 1072.36 143.978C1072.36 143.686 1072.27 143.452 1072.09 143.276C1071.91 143.096 1071.64 142.944 1071.27 142.82L1069.85 142.292C1069.24 142.064 1068.77 141.802 1068.45 141.506C1068.13 141.206 1067.97 140.79 1067.97 140.258C1067.97 139.654 1068.21 139.164 1068.68 138.788C1069.15 138.408 1069.82 138.218 1070.67 138.218C1071.48 138.218 1072.11 138.406 1072.56 138.782C1073.01 139.158 1073.27 139.67 1073.34 140.318H1072.21C1072.16 139.99 1072 139.73 1071.75 139.538C1071.5 139.346 1071.14 139.25 1070.67 139.25C1070.22 139.25 1069.86 139.35 1069.6 139.55C1069.35 139.746 1069.22 139.994 1069.22 140.294C1069.22 140.542 1069.3 140.74 1069.46 140.888C1069.62 141.036 1069.88 141.17 1070.22 141.29L1071.84 141.884C1072.4 142.08 1072.83 142.344 1073.14 142.676C1073.46 143.008 1073.61 143.43 1073.61 143.942C1073.61 144.374 1073.5 144.756 1073.28 145.088C1073.05 145.42 1072.72 145.682 1072.29 145.874C1071.86 146.062 1071.33 146.156 1070.71 146.156ZM1077.66 146.156C1077.16 146.156 1076.71 146.028 1076.31 145.772C1075.91 145.516 1075.6 145.16 1075.36 144.704C1075.13 144.248 1075.01 143.72 1075.01 143.12C1075.01 142.484 1075.13 141.94 1075.36 141.488C1075.59 141.032 1075.91 140.682 1076.31 140.438C1076.71 140.194 1077.16 140.072 1077.66 140.072C1078.11 140.072 1078.49 140.164 1078.81 140.348C1079.13 140.528 1079.39 140.772 1079.58 141.08C1079.78 141.384 1079.91 141.73 1079.99 142.118C1080.06 142.506 1080.08 142.906 1080.03 143.318H1075.92V142.658H1079.25L1078.97 142.838C1078.98 142.622 1078.97 142.406 1078.94 142.19C1078.9 141.974 1078.84 141.776 1078.74 141.596C1078.65 141.412 1078.51 141.266 1078.34 141.158C1078.16 141.046 1077.94 140.99 1077.68 140.99C1077.34 140.99 1077.06 141.074 1076.83 141.242C1076.61 141.41 1076.44 141.636 1076.32 141.92C1076.2 142.2 1076.15 142.508 1076.15 142.844V143.306C1076.15 143.678 1076.2 144.008 1076.31 144.296C1076.43 144.584 1076.59 144.812 1076.81 144.98C1077.04 145.144 1077.32 145.226 1077.66 145.226C1077.99 145.226 1078.26 145.148 1078.48 144.992C1078.7 144.836 1078.84 144.602 1078.89 144.29H1080.05C1079.99 144.666 1079.85 144.994 1079.64 145.274C1079.42 145.554 1079.14 145.772 1078.8 145.928C1078.47 146.08 1078.09 146.156 1077.66 146.156ZM1084.57 146.156C1084.15 146.156 1083.79 146.062 1083.48 145.874C1083.17 145.682 1082.93 145.402 1082.77 145.034C1082.61 144.662 1082.53 144.202 1082.53 143.654H1082.97C1082.97 143.97 1083.04 144.238 1083.18 144.458C1083.31 144.674 1083.49 144.84 1083.71 144.956C1083.94 145.068 1084.17 145.124 1084.43 145.124C1084.69 145.124 1084.95 145.05 1085.19 144.902C1085.45 144.75 1085.65 144.524 1085.81 144.224C1085.97 143.924 1086.05 143.552 1086.05 143.108C1086.05 142.684 1085.98 142.322 1085.84 142.022C1085.7 141.722 1085.5 141.492 1085.26 141.332C1085.02 141.172 1084.74 141.092 1084.44 141.092C1084.18 141.092 1083.94 141.154 1083.72 141.278C1083.49 141.398 1083.31 141.576 1083.18 141.812C1083.04 142.044 1082.97 142.328 1082.97 142.664H1082.53C1082.53 142.084 1082.62 141.602 1082.81 141.218C1082.99 140.834 1083.25 140.548 1083.56 140.36C1083.88 140.168 1084.23 140.072 1084.61 140.072C1085.06 140.072 1085.49 140.194 1085.88 140.438C1086.28 140.678 1086.6 141.024 1086.84 141.476C1087.09 141.928 1087.22 142.472 1087.22 143.108C1087.22 143.744 1087.09 144.29 1086.84 144.746C1086.6 145.202 1086.27 145.552 1085.87 145.796C1085.47 146.036 1085.03 146.156 1084.57 146.156ZM1081.83 148.832V140.228H1082.78L1082.97 141.614V148.832H1081.83ZM1090.84 146.156C1090.51 146.156 1090.21 146.094 1089.95 145.97C1089.68 145.846 1089.47 145.66 1089.32 145.412C1089.17 145.16 1089.09 144.844 1089.09 144.464V138.656H1090.22V144.428C1090.22 144.972 1090.48 145.244 1090.99 145.244C1091.14 145.244 1091.29 145.228 1091.44 145.196C1091.59 145.16 1091.76 145.108 1091.95 145.04L1092.11 145.85C1091.9 145.938 1091.69 146.01 1091.48 146.066C1091.27 146.126 1091.06 146.156 1090.84 146.156ZM1088.21 141.002V140.228H1091.93V141.002H1088.21ZM1096.1 146V144.794C1096.1 144.358 1096.17 143.992 1096.3 143.696C1096.44 143.396 1096.64 143.146 1096.9 142.946C1097.16 142.746 1097.47 142.574 1097.84 142.43L1099.38 141.83C1099.75 141.682 1100.02 141.494 1100.2 141.266C1100.38 141.038 1100.47 140.756 1100.47 140.42C1100.47 140.072 1100.35 139.784 1100.11 139.556C1099.86 139.328 1099.52 139.214 1099.07 139.214C1098.63 139.214 1098.27 139.314 1097.98 139.514C1097.7 139.71 1097.54 140.004 1097.5 140.396H1096.23C1096.25 139.92 1096.38 139.52 1096.63 139.196C1096.87 138.872 1097.2 138.628 1097.62 138.464C1098.03 138.3 1098.51 138.218 1099.05 138.218C1099.55 138.218 1100.01 138.314 1100.41 138.506C1100.81 138.698 1101.12 138.964 1101.35 139.304C1101.59 139.644 1101.71 140.036 1101.71 140.48C1101.71 140.876 1101.64 141.222 1101.49 141.518C1101.35 141.81 1101.14 142.064 1100.86 142.28C1100.58 142.496 1100.24 142.684 1099.84 142.844L1098.28 143.462C1097.92 143.598 1097.66 143.758 1097.49 143.942C1097.32 144.122 1097.24 144.358 1097.24 144.65V144.95H1101.65V146H1096.1ZM1103.19 146V144.794C1103.19 144.358 1103.26 143.992 1103.39 143.696C1103.53 143.396 1103.73 143.146 1103.99 142.946C1104.25 142.746 1104.56 142.574 1104.93 142.43L1106.47 141.83C1106.84 141.682 1107.11 141.494 1107.29 141.266C1107.47 141.038 1107.56 140.756 1107.56 140.42C1107.56 140.072 1107.44 139.784 1107.2 139.556C1106.95 139.328 1106.61 139.214 1106.16 139.214C1105.72 139.214 1105.36 139.314 1105.07 139.514C1104.79 139.71 1104.63 140.004 1104.59 140.396H1103.32C1103.34 139.92 1103.47 139.52 1103.72 139.196C1103.96 138.872 1104.29 138.628 1104.71 138.464C1105.12 138.3 1105.6 138.218 1106.14 138.218C1106.64 138.218 1107.1 138.314 1107.5 138.506C1107.9 138.698 1108.21 138.964 1108.44 139.304C1108.68 139.644 1108.8 140.036 1108.8 140.48C1108.8 140.876 1108.73 141.222 1108.58 141.518C1108.44 141.81 1108.23 142.064 1107.95 142.28C1107.67 142.496 1107.33 142.684 1106.93 142.844L1105.37 143.462C1105.01 143.598 1104.75 143.758 1104.58 143.942C1104.41 144.122 1104.33 144.358 1104.33 144.65V144.95H1108.74V146H1103.19Z" fill="white"/>
</g>
<defs>
<linearGradient id="paint0_linear_384_22598" x1="583.022" y1="38.5" x2="583.022" y2="127.5" gradientUnits="userSpaceOnUse">
<stop stop-color="#53F3C3" stop-opacity="0.6"/>
<stop offset="1" stop-color="#53F3C3" stop-opacity="0"/>
</linearGradient>
<clipPath id="clip0_384_22598">
<rect width="1155" height="163" fill="white"/>
</clipPath>
<clipPath id="clip1_384_22598">
<rect width="1155" height="133" fill="white" transform="translate(0 -6)"/>
</clipPath>
</defs>
</svg>
