<svg width="416" height="102" viewBox="0 0 416 102" fill="none" xmlns="http://www.w3.org/2000/svg">
<path d="M41.7552 102C34.9091 102 28.8799 100.353 23.6675 97.0588C18.4941 93.7648 14.4487 88.8655 11.5313 82.3609C8.61395 75.8563 7.15527 67.788 7.15527 58.1562C7.15527 48.4827 8.5945 40.3936 11.473 33.889C14.3903 27.3844 18.4552 22.4851 23.6675 19.1911C28.8799 15.8554 34.9091 14.1875 41.7552 14.1875C51.6353 14.1875 59.1621 16.6893 64.3356 21.6928C69.509 26.6964 72.582 33.1801 73.5544 41.1441L53.7164 44.8342C52.8217 41.2484 51.4019 38.2879 49.457 35.9529C47.551 33.5763 44.9837 32.3879 41.7552 32.3879C38.8767 32.3879 36.3289 33.3261 34.1117 35.2024C31.9334 37.037 30.2413 39.8515 29.0355 43.6459C27.8296 47.4403 27.2267 52.277 27.2267 58.1562C27.2267 63.9103 27.8491 68.6845 29.0938 72.4789C30.3386 76.2315 32.0501 79.0252 34.2284 80.8598C36.4456 82.6944 38.9545 83.6118 41.7552 83.6118C45.7617 83.6118 48.7568 82.486 50.7406 80.2344C52.7245 77.9411 53.7164 75.1683 53.7164 71.916H73.4377C73.4377 78.3789 72.2124 83.8619 69.7618 88.3651C67.3502 92.8266 63.791 96.2249 59.0843 98.5599C54.3776 100.853 48.6012 102 41.7552 102Z" fill="#CBF6F7"/>
<path d="M120.381 99.9984L146.754 16.0638H170.501L195.415 99.9984H175.752L171.493 85.2379H144.478L140.219 99.9984H120.381ZM149.204 70.4149H167.234L158.365 39.7056L149.204 70.4149Z" fill="#CBF6F7"/>
<path d="M265.69 16.0638V82.486H295.272V99.9984H247.019V16.0638H265.69Z" fill="#CBF6F7"/>
<path d="M377.42 102C370.574 102 364.545 100.353 359.333 97.0588C354.159 93.7648 350.114 88.8655 347.196 82.3609C344.279 75.8563 342.82 67.788 342.82 58.1562C342.82 48.4827 344.26 40.3936 347.138 33.889C350.055 27.3844 354.12 22.4851 359.333 19.1911C364.545 15.8554 370.574 14.1875 377.42 14.1875C387.3 14.1875 394.827 16.6893 400.001 21.6928C405.174 26.6964 408.247 33.1801 409.22 41.1441L389.382 44.8342C388.487 41.2484 387.067 38.2879 385.122 35.9529C383.216 33.5763 380.649 32.3879 377.42 32.3879C374.542 32.3879 371.994 33.3261 369.777 35.2024C367.599 37.037 365.906 39.8515 364.701 43.6459C363.495 47.4403 362.892 52.277 362.892 58.1562C362.892 63.9103 363.514 68.6845 364.759 72.4789C366.004 76.2315 367.715 79.0252 369.894 80.8598C372.111 82.6944 374.62 83.6118 377.42 83.6118C381.427 83.6118 384.422 82.486 386.406 80.2344C388.39 77.9411 389.382 75.1683 389.382 71.916H409.103C409.103 78.3789 407.878 83.8619 405.427 88.3651C403.015 92.8266 399.456 96.2249 394.749 98.5599C390.043 100.853 384.266 102 377.42 102Z" fill="#CBF6F7"/>
<g clip-path="url(#clip0_1643_33858)">
<path d="M41.5999 101.812C34.7538 101.812 28.7246 100.165 23.5123 96.8713C18.3388 93.5773 14.2934 88.678 11.376 82.1734C8.45868 75.6688 7 67.6005 7 57.9687C7 48.2952 8.43923 40.2061 11.3177 33.7015C14.2351 27.1969 18.2999 22.2976 23.5123 19.0036C28.7246 15.6679 34.7538 14 41.5999 14C51.48 14 59.0068 16.5018 64.1803 21.5053C69.3537 26.5089 72.4267 32.9926 73.3991 40.9566L53.5611 44.6468C52.6664 41.0609 51.2466 38.1004 49.3017 35.7654C47.3957 33.3888 44.8284 32.2004 41.5999 32.2004C38.7214 32.2004 36.1736 33.1386 33.9564 35.0149C31.7781 36.8496 30.0861 39.664 28.8802 43.4584C27.6744 47.2528 27.0714 52.0895 27.0714 57.9687C27.0714 63.7228 27.6938 68.497 28.9386 72.2914C30.1833 76.044 31.8948 78.8377 34.0731 80.6723C36.2903 82.5069 38.7992 83.4243 41.5999 83.4243C45.6064 83.4243 48.6016 82.2985 50.5854 80.0469C52.5692 77.7536 53.5611 74.9808 53.5611 71.7285H73.2824C73.2824 78.1914 72.0572 83.6744 69.6066 88.1776C67.1949 92.6391 63.6357 96.0374 58.929 98.3724C54.2223 100.666 48.446 101.812 41.5999 101.812Z" fill="#F4B67C"/>
<path d="M120.226 99.8109L146.598 15.8763H170.346L195.26 99.8109H175.597L171.338 85.0504H144.323L140.064 99.8109H120.226ZM149.049 70.2274H167.078L158.21 39.5181L149.049 70.2274Z" fill="#F4B67C"/>
<path d="M265.535 15.8763V82.2985H295.117V99.8109H246.864V15.8763H265.535Z" fill="#F4B67C"/>
<path d="M377.265 101.812C370.419 101.812 364.39 100.165 359.177 96.8713C354.004 93.5773 349.959 88.678 347.041 82.1734C344.124 75.6688 342.665 67.6005 342.665 57.9687C342.665 48.2952 344.104 40.2061 346.983 33.7015C349.9 27.1969 353.965 22.2976 359.177 19.0036C364.39 15.6679 370.419 14 377.265 14C387.145 14 394.672 16.5018 399.845 21.5053C405.019 26.5089 408.092 32.9926 409.064 40.9566L389.226 44.6468C388.332 41.0609 386.912 38.1004 384.967 35.7654C383.061 33.3888 380.494 32.2004 377.265 32.2004C374.387 32.2004 371.839 33.1386 369.622 35.0149C367.443 36.8496 365.751 39.664 364.545 43.4584C363.339 47.2528 362.737 52.0895 362.737 57.9687C362.737 63.7228 363.359 68.497 364.604 72.2914C365.848 76.044 367.56 78.8377 369.738 80.6723C371.955 82.5069 374.464 83.4243 377.265 83.4243C381.272 83.4243 384.267 82.2985 386.251 80.0469C388.234 77.7536 389.226 74.9808 389.226 71.7285H408.948C408.948 78.1914 407.722 83.6744 405.272 88.1776C402.86 92.6391 399.301 96.0374 394.594 98.3724C389.887 100.666 384.111 101.812 377.265 101.812Z" fill="#F4B67C"/>
</g>
<g clip-path="url(#clip1_1643_33858)">
<path d="M18.0977 7.41835C18.3795 7.31579 18.6416 7.22936 18.9096 7.13821C19.0185 7.096 19.1197 7.0464 19.2294 7.00644C30.5467 2.8873 40.3522 5.17859 42.1682 10.1681C43.9842 15.1575 36.5999 17.3106 29.1 20.0403C24.0729 21.8701 20.4446 23.1907 17.7859 24.0484L17.7828 24.1595L17.1582 43.5712L14.8947 44.3951C14.8947 44.3951 13.2508 41.0862 10.8856 36.9015C7.28762 30.5373 1.65038 13.4047 18.0977 7.41835Z" fill="#DD2E44"/>
<path d="M18.0917 49.6274C20.5918 48.7174 21.8824 45.9572 20.9744 43.4623C20.0663 40.9674 17.3034 39.6826 14.8033 40.5926C12.3031 41.5026 11.0125 44.2627 11.9206 46.7576C12.8286 49.2525 15.5915 50.5374 18.0917 49.6274Z" fill="#F1F2F2"/>
<path d="M43.4111 13.5539C43.6291 14.1529 43.5997 14.8142 43.3294 15.3923C43.0591 15.9704 42.57 16.4179 41.9697 16.6364L13.6766 26.9343C13.0763 27.1527 12.414 27.1243 11.8353 26.8552C11.2567 26.5861 10.8091 26.0984 10.5911 25.4994L10.18 24.37C9.96198 23.771 9.99134 23.1097 10.2616 22.5316C10.532 21.9535 11.0211 21.506 11.6214 21.2875L39.9145 10.9897C40.5148 10.7712 41.1771 10.7996 41.7557 11.0687C42.3344 11.3378 42.782 11.8255 43 12.4245L43.4111 13.5539Z" fill="#F1F2F2"/>
</g>
<g clip-path="url(#clip2_1643_33858)">
<path d="M353.098 7.41835C353.38 7.31579 353.642 7.22936 353.91 7.13821C354.019 7.096 354.12 7.0464 354.229 7.00644C365.547 2.8873 375.352 5.17859 377.168 10.1681C378.984 15.1575 371.6 17.3106 364.1 20.0403C359.073 21.8701 355.445 23.1907 352.786 24.0484L352.783 24.1595L352.158 43.5712L349.895 44.3951C349.895 44.3951 348.251 41.0862 345.886 36.9015C342.288 30.5373 336.65 13.4047 353.098 7.41835Z" fill="#DD2E44"/>
<path d="M353.092 49.6274C355.592 48.7174 356.882 45.9572 355.974 43.4623C355.066 40.9674 352.303 39.6826 349.803 40.5926C347.303 41.5026 346.013 44.2627 346.921 46.7576C347.829 49.2525 350.592 50.5374 353.092 49.6274Z" fill="#F1F2F2"/>
<path d="M378.411 13.5539C378.629 14.1529 378.6 14.8142 378.329 15.3923C378.059 15.9704 377.57 16.4179 376.97 16.6364L348.677 26.9343C348.076 27.1527 347.414 27.1243 346.835 26.8552C346.257 26.5861 345.809 26.0984 345.591 25.4994L345.18 24.37C344.962 23.771 344.991 23.1097 345.262 22.5316C345.532 21.9535 346.021 21.506 346.621 21.2875L374.914 10.9897C375.515 10.7712 376.177 10.7996 376.756 11.0687C377.334 11.3378 377.782 11.8255 378 12.4245L378.411 13.5539Z" fill="#F1F2F2"/>
</g>
<g clip-path="url(#clip3_1643_33858)">
<path d="M153.366 4.70185C153.666 4.70105 153.942 4.70874 154.225 4.714C154.342 4.71128 154.454 4.69897 154.57 4.69866C166.614 4.66682 175.059 10.1513 175.073 15.461C175.087 20.7706 167.41 20.2886 159.429 20.3097C154.079 20.3238 150.218 20.334 147.426 20.238L147.386 20.3415L140.207 38.388L137.799 38.3944C137.799 38.3944 137.376 34.7239 136.572 29.9848C135.349 22.777 135.863 4.74812 153.366 4.70185Z" fill="#DD2E44"/>
<path d="M139.029 44.3987C141.69 44.3917 143.841 42.2337 143.834 39.5787C143.827 36.9237 141.665 34.7771 139.004 34.7841C136.343 34.7912 134.192 36.9492 134.199 39.6042C134.206 42.2592 136.369 44.4058 139.029 44.3987Z" fill="#F1F2F2"/>
<path d="M175.093 19.0659C175.095 19.7034 174.842 20.3154 174.392 20.7674C173.941 21.2193 173.329 21.4742 172.691 21.4759L142.582 21.5555C141.943 21.5572 141.33 21.3056 140.877 20.856C140.424 20.4064 140.168 19.7957 140.167 19.1582L140.164 17.9564C140.162 17.3189 140.414 16.7068 140.865 16.2549C141.315 15.8029 141.927 15.5481 142.566 15.5464L172.675 15.4668C173.314 15.4651 173.927 15.7167 174.38 16.1663C174.833 16.6159 175.088 17.2266 175.09 17.864L175.093 19.0659Z" fill="#F1F2F2"/>
</g>
<g clip-path="url(#clip4_1643_33858)">
<path d="M252.259 4.70185C252.559 4.70105 252.835 4.70874 253.118 4.714C253.235 4.71128 253.347 4.69897 253.464 4.69866C265.507 4.66682 273.952 10.1513 273.966 15.461C273.98 20.7706 266.303 20.2886 258.322 20.3097C252.973 20.3238 249.111 20.334 246.319 20.238L246.279 20.3415L239.1 38.388L236.692 38.3944C236.692 38.3944 236.269 34.7239 235.465 29.9848C234.242 22.777 234.756 4.74812 252.259 4.70185Z" fill="#DD2E44"/>
<path d="M237.922 44.3987C240.583 44.3917 242.734 42.2337 242.727 39.5787C242.72 36.9237 240.558 34.7771 237.897 34.7841C235.236 34.7912 233.085 36.9492 233.092 39.6042C233.099 42.2592 235.262 44.4058 237.922 44.3987Z" fill="#F1F2F2"/>
<path d="M273.986 19.0659C273.988 19.7034 273.736 20.3154 273.285 20.7674C272.834 21.2193 272.222 21.4742 271.584 21.4759L241.475 21.5555C240.836 21.5572 240.223 21.3056 239.77 20.856C239.317 20.4064 239.062 19.7957 239.06 19.1582L239.057 17.9564C239.055 17.3189 239.307 16.7068 239.758 16.2549C240.208 15.8029 240.82 15.5481 241.459 15.5464L271.568 15.4668C272.207 15.4651 272.82 15.7167 273.273 16.1663C273.726 16.6159 273.981 17.2266 273.983 17.864L273.986 19.0659Z" fill="#F1F2F2"/>
</g>
<defs>
<clipPath id="clip0_1643_33858">
<rect width="402.353" height="42.9993" fill="white" transform="translate(7 14)"/>
</clipPath>
<clipPath id="clip1_1643_33858">
<rect width="40.9481" height="43.2659" fill="white" transform="translate(0 14.0059) rotate(-20)"/>
</clipPath>
<clipPath id="clip2_1643_33858">
<rect width="40.9481" height="43.2659" fill="white" transform="translate(335 14.0059) rotate(-20)"/>
</clipPath>
<clipPath id="clip3_1643_33858">
<rect width="40.9481" height="43.2659" fill="white" transform="translate(134.107 4.75195) rotate(-0.15148)"/>
</clipPath>
<clipPath id="clip4_1643_33858">
<rect width="40.9481" height="43.2659" fill="white" transform="translate(233 4.75195) rotate(-0.15148)"/>
</clipPath>
</defs>
</svg>