<svg width="69" height="69" viewBox="0 0 69 69" fill="none" xmlns="http://www.w3.org/2000/svg">
<g filter="url(#filter0_i_1_7630)">
<path d="M35.97 67.442C13.2299 67.442 7.1541 43.737 9.90049 28.2054C10.02 27.5294 10.9061 27.3347 11.2922 27.9023C12.4879 29.6596 13.5518 32.198 15.3147 31.9776C17.9643 31.6464 19.8 8.26614 35.5035 1.68755C36.0019 1.4788 36.5233 1.87488 36.4686 2.41232C35.6921 10.031 40.2664 20.9383 48.3705 20.9383C53.0162 20.9383 56.1948 17.2306 57.7831 13.507C58.2656 12.3759 59.9182 12.5185 60.1949 13.7167C63.0291 25.9915 70.6055 67.442 35.97 67.442Z" fill="#FA7900"/>
</g>
<path d="M27.9982 44.5842C28.533 44.1349 29.3448 44.4432 29.4662 45.1311C29.7503 46.7406 30.6845 49.5067 33.7488 49.5067C37.4349 49.5067 39.9364 39.3637 40.5925 36.3806C40.7004 35.8898 41.1787 35.5565 41.6711 35.6567C50.8831 37.5296 55.362 67.4422 35.1077 67.4422C20.3627 67.4422 23.7031 48.1924 27.9982 44.5842ZM53.1699 12.1902C53.4945 9.65093 48.8591 16.5961 48.8591 16.5961C48.8591 16.5961 52.3931 18.2653 53.1699 12.1902ZM6.46363 50.0596C6.56133 48.9786 5.17068 46.0844 4.92447 47.2303C4.33514 49.972 6.36592 51.1407 6.46363 50.0596Z" fill="#FFB636"/>
<path d="M43.5533 46.979C43.2079 45.5383 41.9691 48.8845 42.1248 50.2476C42.2804 51.6104 44.3796 50.4257 43.5533 46.979Z" fill="#FFD469"/>
<defs>
<filter id="filter0_i_1_7630" x="9.28613" y="1.63086" width="53.6245" height="69.811" filterUnits="userSpaceOnUse" color-interpolation-filters="sRGB">
<feFlood flood-opacity="0" result="BackgroundImageFix"/>
<feBlend mode="normal" in="SourceGraphic" in2="BackgroundImageFix" result="shape"/>
<feColorMatrix in="SourceAlpha" type="matrix" values="0 0 0 0 0 0 0 0 0 0 0 0 0 0 0 0 0 0 127 0" result="hardAlpha"/>
<feOffset dy="4"/>
<feGaussianBlur stdDeviation="2"/>
<feComposite in2="hardAlpha" operator="arithmetic" k2="-1" k3="1"/>
<feColorMatrix type="matrix" values="0 0 0 0 0 0 0 0 0 0 0 0 0 0 0 0 0 0 0.25 0"/>
<feBlend mode="normal" in2="shape" result="effect1_innerShadow_1_7630"/>
</filter>
</defs>
</svg>
