<svg width="253" height="589" viewBox="0 0 253 589" fill="none" xmlns="http://www.w3.org/2000/svg">
<g clip-path="url(#clip0_3046_37942)">
<circle cx="46.5" cy="304.5" r="101.5" fill="#22242F" stroke="#FFB636" stroke-width="10"/>
<path d="M115.613 260.668V250.565H84.0588C82.3639 244.035 80.6719 238.285 78.8242 233L68.2023 234.865C70.2328 240.012 72.0304 245.251 73.5896 250.565H40.1902V260.668H115.613ZM34.7999 335.743V271.238H19.2517C22.483 266.417 25.7172 260.513 28.9514 253.363V245.9H3.55081C4.93731 242.793 6.16811 239.682 7.39892 236.42L-2.4505 233.31C-7.06825 248.542 -14.3033 260.822 -24 270.305L-21.6912 281.34C-19.6937 279.475 -17.6902 277.61 -15.8455 275.59V335.743H34.7999ZM8.63271 271.238H-11.9944C-7.83146 266.051 -4.07475 260.543 -0.758537 254.763H18.6378C15.2508 260.977 12.0197 266.575 8.63271 271.238ZM72.0533 376C79.7496 376 83.7504 371.65 83.7504 363.1V318.8H108.226V274.658H48.3447V318.8H72.9757V360.458C72.9757 364.343 71.4364 366.362 68.3579 366.362C64.8153 366.362 61.1229 366.053 57.4305 365.588L59.5836 376H72.0504H72.0533ZM5.09002 298.905H-6.29862V280.407H5.09002V298.905ZM25.256 298.905H14.02V280.407H25.256V298.905ZM97.7565 309.007H58.814V284.605H97.7565V309.007ZM25.2589 326.418H14.02V307.917H25.256V326.418H25.2589ZM5.09002 326.418H-6.29862V307.917H5.09002V326.418ZM108.843 368.85L117 363.1C112.843 353.15 106.992 341.65 99.2957 328.438L91.1382 333.413C98.526 346.313 104.53 358.125 108.84 368.85H108.843ZM44.3438 371.493C51.1177 360.768 56.9663 348.023 61.8925 333.41L52.9624 329.06C48.1919 343.047 42.4962 355.173 36.0308 365.43L44.3438 371.493V371.493ZM31.5657 360.922L39.1093 359.057C36.9561 351.598 34.7999 345.067 32.3383 339.472L25.1033 341.647C27.6019 347.948 29.7592 354.383 31.5657 360.922V360.922ZM15.2509 369.937L23.2556 369.005C22.3303 357.193 20.6412 347.868 18.1737 341.028L10.4774 341.96C12.942 348.487 14.4812 357.815 15.2509 369.937ZM-14.1506 374.135C-10.9193 364.965 -8.91592 354.55 -7.99355 342.735L-16.3067 341.65C-17.0734 352.84 -19.2295 362.787 -22.6164 371.493L-14.1506 374.135V374.135ZM-1.21967 372.27L6.78494 371.338C6.47651 359.057 5.70694 349.265 4.62888 342.115L-2.75897 343.047C-1.98935 349.888 -1.52517 359.68 -1.21967 372.27V372.27Z" fill="#FFB636"/>
</g>
<defs>
<clipPath id="clip0_3046_37942">
<rect width="253" height="589" fill="white"/>
</clipPath>
</defs>
</svg>
