<svg width="157" height="156" viewBox="0 0 157 156" fill="none" xmlns="http://www.w3.org/2000/svg">
<g filter="url(#filter0_d_295_12502)">
<rect width="70.3688" height="70.3688" transform="matrix(0.866646 0.498924 -0.866646 0.498924 78.9849 70.4348)" fill="url(#paint0_linear_295_12502)"/>
<rect width="70.3688" height="70.3688" transform="matrix(0.866646 0.498924 -0.866646 0.498924 78.9849 70.4348)" fill="url(#paint1_linear_295_12502)"/>
<path d="M56.5081 97.7124C55.7659 97.2852 55.2785 96.8133 55.0456 96.2968C54.817 95.7827 54.8725 95.2459 55.2122 94.6862C55.5519 94.1265 56.2074 93.5671 57.1787 93.0079C58.1542 92.4464 59.1259 92.0666 60.0938 91.8686C61.066 91.673 62.0007 91.6423 62.8978 91.7763C63.7992 91.908 64.621 92.1874 65.3631 92.6146C66.4341 93.2312 66.9977 93.8461 67.0539 94.4594C67.1102 95.0728 66.7894 95.6409 66.0918 96.164L63.5692 95.1402C63.8339 94.8762 63.9785 94.6157 64.0031 94.3588C64.0362 94.1019 63.8777 93.8727 63.5277 93.6712C63.2157 93.4916 62.8449 93.387 62.4154 93.3576C61.9943 93.3282 61.527 93.386 61.0137 93.531C60.5003 93.676 59.9473 93.9192 59.3544 94.2605C58.7742 94.5945 58.3602 94.9105 58.1125 95.2085C57.869 95.504 57.7728 95.773 57.8239 96.0155C57.8793 96.2603 58.0587 96.4701 58.3623 96.6449C58.7966 96.8949 59.2348 97.0165 59.6769 97.0096C60.1232 97.0003 60.5103 96.9012 60.8383 96.7124L62.9761 97.9431C62.3243 98.3183 61.6386 98.5601 60.9189 98.6686C60.2075 98.7771 59.4791 98.7523 58.7334 98.5941C57.9919 98.4335 57.2502 98.1396 56.5081 97.7124Z" fill="white"/>
<path d="M65.2328 102.503L76.5556 99.2759L79.1298 100.758L73.3665 107.185L71.235 105.958L72.2617 104.836L69.3334 103.15L67.3832 103.741L65.2328 102.503ZM71.3404 102.584L73.2948 103.709L75.4302 101.373L71.3404 102.584Z" fill="white"/>
<path d="M89.4481 106.698L82.7501 110.554L85.9568 112.4L84.1908 113.417L78.9602 110.406L87.4242 105.533L89.4481 106.698Z" fill="white"/>
<path d="M92.8938 118.659C92.1516 118.232 91.6642 117.76 91.4313 117.244C91.2027 116.73 91.2582 116.193 91.5979 115.633C91.9376 115.074 92.5931 114.514 93.5644 113.955C94.5399 113.393 95.5116 113.014 96.4795 112.816C97.4517 112.62 98.3864 112.589 99.2835 112.723C100.185 112.855 101.007 113.134 101.749 113.562C102.82 114.178 103.383 114.793 103.44 115.407C103.496 116.02 103.175 116.588 102.477 117.111L99.9549 116.087C100.22 115.823 100.364 115.563 100.389 115.306C100.422 115.049 100.263 114.82 99.9134 114.618C99.6014 114.439 99.2306 114.334 98.8011 114.305C98.38 114.275 97.9127 114.333 97.3994 114.478C96.886 114.623 96.333 114.866 95.7401 115.208C95.1598 115.542 94.7459 115.858 94.4982 116.156C94.2547 116.451 94.1585 116.72 94.2096 116.963C94.265 117.207 94.4444 117.417 94.748 117.592C95.1823 117.842 95.6205 117.964 96.0626 117.957C96.5089 117.947 96.896 117.848 97.224 117.659L99.3618 118.89C98.71 119.265 98.0243 119.507 97.3046 119.616C96.5932 119.724 95.8648 119.699 95.1191 119.541C94.3776 119.381 93.6359 119.087 92.8938 118.659Z" fill="white"/>
<g clip-path="url(#clip0_295_12502)">
<path d="M56.5101 97.6918C55.768 97.2646 55.2805 96.7927 55.0477 96.2762C54.8191 95.7621 54.8746 95.2253 55.2143 94.6656C55.554 94.1059 56.2095 93.5465 57.1807 92.9873C58.1562 92.4258 59.1279 92.046 60.0959 91.848C61.0681 91.6524 62.0027 91.6217 62.8999 91.7557C63.8013 91.8874 64.623 92.1668 65.3652 92.594C66.4361 93.2106 66.9998 93.8255 67.056 94.4388C67.1122 95.0522 66.7915 95.6203 66.0938 96.1434L63.5713 95.1196C63.8359 94.8556 63.9805 94.5951 64.0052 94.3382C64.0382 94.0813 63.8798 93.8521 63.5298 93.6506C63.2178 93.471 62.847 93.3664 62.4175 93.337C61.9963 93.3076 61.5291 93.3654 61.0158 93.5104C60.5024 93.6554 59.9493 93.8986 59.3565 94.2399C58.7762 94.5739 58.3622 94.8899 58.1146 95.1879C57.8711 95.4834 57.7749 95.7524 57.826 95.9949C57.8813 96.2397 58.0608 96.4495 58.3644 96.6243C58.7987 96.8743 59.2369 96.9959 59.679 96.989C60.1253 96.9797 60.5124 96.8806 60.8404 96.6918L62.9781 97.9225C62.3264 98.2977 61.6407 98.5395 60.9209 98.648C60.2096 98.7565 59.4811 98.7317 58.7355 98.5735C57.994 98.4129 57.2522 98.119 56.5101 97.6918Z" fill="#F4B67C"/>
<path d="M65.2349 102.482L76.5577 99.2553L79.1318 100.737L73.3685 107.165L71.2371 105.938L72.2638 104.815L69.3354 103.129L67.3853 103.72L65.2349 102.482ZM71.3425 102.564L73.2969 103.689L75.4322 101.352L71.3425 102.564Z" fill="#F4B67C"/>
<path d="M89.4502 106.678L82.7522 110.534L85.9588 112.38L84.1929 113.396L78.9623 110.385L87.4263 105.512L89.4502 106.678Z" fill="#F4B67C"/>
<path d="M92.8958 118.639C92.1537 118.212 91.6662 117.74 91.4334 117.223C91.2048 116.709 91.2603 116.172 91.6 115.613C91.9397 115.053 92.5952 114.494 93.5664 113.934C94.5419 113.373 95.5136 112.993 96.4816 112.795C97.4538 112.6 98.3884 112.569 99.2856 112.703C100.187 112.834 101.009 113.114 101.751 113.541C102.822 114.158 103.385 114.773 103.442 115.386C103.498 115.999 103.177 116.567 102.48 117.09L99.957 116.067C100.222 115.803 100.366 115.542 100.391 115.285C100.424 115.028 100.265 114.799 99.9155 114.598C99.6035 114.418 99.2327 114.314 98.8032 114.284C98.382 114.255 97.9148 114.312 97.4014 114.457C96.8881 114.603 96.335 114.846 95.7422 115.187C95.1619 115.521 94.7479 115.837 94.5002 116.135C94.2568 116.431 94.1606 116.699 94.2117 116.942C94.267 117.187 94.4465 117.397 94.7501 117.571C95.1844 117.821 95.6226 117.943 96.0647 117.936C96.511 117.927 96.8981 117.828 97.2261 117.639L99.3638 118.87C98.7121 119.245 98.0264 119.487 97.3066 119.595C96.5953 119.704 95.8668 119.679 95.1212 119.521C94.3797 119.36 93.6379 119.066 92.8958 118.639Z" fill="#F4B67C"/>
</g>
</g>
<g filter="url(#filter1_d_295_12502)">
<rect width="70.3688" height="70.3688" transform="matrix(0.866646 0.498924 -0.866646 0.498924 78.9849 35.2174)" fill="url(#paint2_linear_295_12502)"/>
<rect width="70.3688" height="70.3688" transform="matrix(0.866646 0.498924 -0.866646 0.498924 78.9849 35.2174)" fill="url(#paint3_linear_295_12502)"/>
<path d="M56.5081 62.495C55.7659 62.0678 55.2785 61.5959 55.0456 61.0794C54.817 60.5653 54.8725 60.0285 55.2122 59.4688C55.5519 58.9091 56.2074 58.3497 57.1787 57.7905C58.1542 57.229 59.1259 56.8492 60.0938 56.6512C61.066 56.4556 62.0007 56.4249 62.8978 56.5589C63.7992 56.6905 64.621 56.97 65.3631 57.3972C66.4341 58.0138 66.9977 58.6287 67.0539 59.242C67.1102 59.8554 66.7894 60.4235 66.0918 60.9465L63.5692 59.9228C63.8339 59.6588 63.9785 59.3983 64.0031 59.1414C64.0362 58.8845 63.8777 58.6553 63.5277 58.4538C63.2157 58.2742 62.8449 58.1696 62.4154 58.1402C61.9943 58.1108 61.527 58.1686 61.0137 58.3136C60.5003 58.4586 59.9473 58.7018 59.3544 59.0431C58.7742 59.3771 58.3602 59.6931 58.1125 59.9911C57.869 60.2866 57.7728 60.5556 57.8239 60.798C57.8793 61.0429 58.0587 61.2527 58.3623 61.4275C58.7966 61.6775 59.2348 61.7991 59.6769 61.7922C60.1232 61.7828 60.5103 61.6838 60.8383 61.495L62.9761 62.7257C62.3243 63.1009 61.6386 63.3427 60.9189 63.4512C60.2075 63.5597 59.4791 63.5349 58.7334 63.3767C57.9919 63.2161 57.2502 62.9222 56.5081 62.495Z" fill="white"/>
<path d="M65.2328 67.2854L76.5556 64.0585L79.1298 65.5405L73.3665 71.9679L71.235 70.7409L72.2617 69.6182L69.3334 67.9323L67.3832 68.5234L65.2328 67.2854ZM71.3404 67.3667L73.2948 68.4918L75.4302 66.1556L71.3404 67.3667Z" fill="white"/>
<path d="M89.4481 71.4807L82.7501 75.3367L85.9568 77.1828L84.1908 78.1995L78.9602 75.1882L87.4242 70.3155L89.4481 71.4807Z" fill="white"/>
<path d="M92.8938 83.4421C92.1516 83.0149 91.6642 82.543 91.4313 82.0265C91.2027 81.5124 91.2582 80.9755 91.5979 80.4159C91.9376 79.8562 92.5931 79.2968 93.5644 78.7376C94.5399 78.176 95.5116 77.7962 96.4795 77.5983C97.4517 77.4027 98.3864 77.372 99.2835 77.506C100.185 77.6376 101.007 77.9171 101.749 78.3443C102.82 78.9608 103.383 79.5758 103.44 80.1891C103.496 80.8024 103.175 81.3706 102.477 81.8936L99.9549 80.8699C100.22 80.6059 100.364 80.3454 100.389 80.0885C100.422 79.8316 100.263 79.6024 99.9134 79.4009C99.6014 79.2212 99.2306 79.1167 98.8011 79.0873C98.38 79.0579 97.9127 79.1156 97.3994 79.2607C96.886 79.4057 96.333 79.6489 95.7401 79.9902C95.1598 80.3242 94.7459 80.6402 94.4982 80.9382C94.2547 81.2337 94.1585 81.5027 94.2096 81.7451C94.265 81.99 94.4444 82.1998 94.748 82.3746C95.1823 82.6246 95.6205 82.7462 96.0626 82.7393C96.5089 82.7299 96.896 82.6309 97.224 82.442L99.3618 83.6727C98.71 84.0479 98.0243 84.2898 97.3046 84.3983C96.5932 84.5068 95.8648 84.482 95.1191 84.3238C94.3776 84.1632 93.6359 83.8693 92.8938 83.4421Z" fill="white"/>
<g clip-path="url(#clip1_295_12502)">
<path d="M56.5101 62.4744C55.768 62.0472 55.2805 61.5753 55.0477 61.0588C54.8191 60.5447 54.8746 60.0079 55.2143 59.4482C55.554 58.8885 56.2095 58.3291 57.1807 57.7699C58.1562 57.2084 59.1279 56.8286 60.0959 56.6306C61.0681 56.435 62.0027 56.4043 62.8999 56.5383C63.8013 56.6699 64.623 56.9494 65.3652 57.3766C66.4361 57.9932 66.9998 58.6081 67.056 59.2214C67.1122 59.8348 66.7915 60.4029 66.0938 60.9259L63.5713 59.9022C63.8359 59.6382 63.9805 59.3777 64.0052 59.1208C64.0382 58.8639 63.8798 58.6347 63.5298 58.4332C63.2178 58.2536 62.847 58.149 62.4175 58.1196C61.9963 58.0902 61.5291 58.148 61.0158 58.293C60.5024 58.438 59.9493 58.6812 59.3565 59.0225C58.7762 59.3565 58.3622 59.6725 58.1146 59.9705C57.8711 60.266 57.7749 60.535 57.826 60.7774C57.8813 61.0223 58.0608 61.2321 58.3644 61.4069C58.7987 61.6569 59.2369 61.7785 59.679 61.7716C60.1253 61.7622 60.5124 61.6632 60.8404 61.4744L62.9781 62.7051C62.3264 63.0803 61.6407 63.3221 60.9209 63.4306C60.2096 63.5391 59.4811 63.5143 58.7355 63.3561C57.994 63.1955 57.2522 62.9016 56.5101 62.4744Z" fill="#F4B67C"/>
<path d="M65.2349 67.2648L76.5577 64.0379L79.1318 65.5199L73.3685 71.9473L71.2371 70.7203L72.2638 69.5976L69.3354 67.9117L67.3853 68.5028L65.2349 67.2648ZM71.3425 67.3461L73.2969 68.4712L75.4322 66.135L71.3425 67.3461Z" fill="#F4B67C"/>
<path d="M89.4502 71.4601L82.7522 75.3161L85.9588 77.1622L84.1929 78.1789L78.9623 75.1676L87.4263 70.2949L89.4502 71.4601Z" fill="#F4B67C"/>
<path d="M92.8958 83.4215C92.1537 82.9943 91.6662 82.5224 91.4334 82.0059C91.2048 81.4918 91.2603 80.9549 91.6 80.3953C91.9397 79.8356 92.5952 79.2762 93.5664 78.717C94.5419 78.1554 95.5136 77.7757 96.4816 77.5777C97.4538 77.3821 98.3884 77.3514 99.2856 77.4854C100.187 77.617 101.009 77.8965 101.751 78.3237C102.822 78.9402 103.385 79.5552 103.442 80.1685C103.498 80.7818 103.177 81.35 102.48 81.873L99.957 80.8493C100.222 80.5853 100.366 80.3248 100.391 80.0679C100.424 79.811 100.265 79.5818 99.9155 79.3803C99.6035 79.2006 99.2327 79.0961 98.8032 79.0667C98.382 79.0373 97.9148 79.095 97.4014 79.2401C96.8881 79.3851 96.335 79.6283 95.7422 79.9696C95.1619 80.3036 94.7479 80.6196 94.5002 80.9176C94.2568 81.2131 94.1606 81.4821 94.2117 81.7245C94.267 81.9694 94.4465 82.1792 94.7501 82.354C95.1844 82.604 95.6226 82.7256 96.0647 82.7187C96.511 82.7093 96.8981 82.6103 97.2261 82.4214L99.3638 83.6522C98.7121 84.0273 98.0264 84.2692 97.3066 84.3777C96.5953 84.4862 95.8668 84.4614 95.1212 84.3032C94.3797 84.1426 93.6379 83.8487 92.8958 83.4215Z" fill="#F4B67C"/>
</g>
</g>
<g filter="url(#filter2_d_295_12502)">
<rect width="70.3688" height="70.3688" transform="matrix(0.866646 0.498924 -0.866646 0.498924 78.9848 0)" fill="url(#paint4_linear_295_12502)" shape-rendering="crispEdges"/>
</g>
<path d="M56.508 27.2776C55.7659 26.8504 55.2785 26.3785 55.0456 25.862C54.817 25.3479 54.8725 24.811 55.2122 24.2514C55.5519 23.6917 56.2074 23.1323 57.1787 22.5731C58.1541 22.0115 59.1259 21.6318 60.0938 21.4338C61.066 21.2382 62.0006 21.2075 62.8978 21.3415C63.7992 21.4731 64.621 21.7526 65.3631 22.1798C66.4341 22.7964 66.9977 23.4113 67.0539 24.0246C67.1101 24.6379 66.7894 25.2061 66.0917 25.7291L63.5692 24.7054C63.8338 24.4414 63.9785 24.1809 64.0031 23.924C64.0362 23.6671 63.8777 23.4379 63.5277 23.2364C63.2157 23.0568 62.8449 22.9522 62.4154 22.9228C61.9942 22.8934 61.527 22.9512 61.0137 23.0962C60.5003 23.2412 59.9472 23.4844 59.3544 23.8257C58.7741 24.1597 58.3602 24.4757 58.1125 24.7737C57.869 25.0692 57.7728 25.3382 57.8239 25.5806C57.8792 25.8255 58.0587 26.0353 58.3623 26.2101C58.7966 26.4601 59.2348 26.5817 59.6769 26.5748C60.1232 26.5654 60.5103 26.4664 60.8383 26.2776L62.9761 27.5083C62.3243 27.8835 61.6386 28.1253 60.9189 28.2338C60.2075 28.3423 59.479 28.3175 58.7334 28.1593C57.9919 27.9987 57.2501 27.7048 56.508 27.2776Z" fill="white"/>
<path d="M65.2328 32.068L76.5556 28.8411L79.1298 30.3231L73.3664 36.7505L71.235 35.5235L72.2617 34.4008L69.3334 32.7149L67.3832 33.306L65.2328 32.068ZM71.3404 32.1493L73.2948 33.2744L75.4302 30.9382L71.3404 32.1493Z" fill="white"/>
<path d="M89.4481 36.2633L82.7501 40.1193L85.9567 41.9654L84.1908 42.982L78.9602 39.9708L87.4242 35.0981L89.4481 36.2633Z" fill="white"/>
<path d="M92.8937 48.2247C92.1516 47.7974 91.6642 47.3256 91.4313 46.8091C91.2027 46.295 91.2582 45.7581 91.5979 45.1985C91.9376 44.6388 92.5931 44.0794 93.5644 43.5202C94.5398 42.9586 95.5116 42.5788 96.4795 42.3809C97.4517 42.1853 98.3863 42.1545 99.2835 42.2886C100.185 42.4202 101.007 42.6996 101.749 43.1269C102.82 43.7434 103.383 44.3584 103.44 44.9717C103.496 45.585 103.175 46.1532 102.477 46.6762L99.9549 45.6525C100.22 45.3885 100.364 45.128 100.389 44.8711C100.422 44.6141 100.263 44.3849 99.9134 44.1835C99.6014 44.0038 99.2306 43.8993 98.8011 43.8699C98.3799 43.8404 97.9127 43.8982 97.3994 44.0433C96.886 44.1883 96.3329 44.4315 95.7401 44.7728C95.1598 45.1068 94.7459 45.4228 94.4982 45.7208C94.2547 46.0163 94.1585 46.2853 94.2096 46.5277C94.2649 46.7726 94.4444 46.9824 94.748 47.1572C95.1823 47.4072 95.6205 47.5288 96.0626 47.5219C96.5089 47.5125 96.896 47.4134 97.224 47.2246L99.3618 48.4553C98.71 48.8305 98.0243 49.0724 97.3045 49.1809C96.5932 49.2894 95.8647 49.2646 95.1191 49.1064C94.3776 48.9458 93.6358 48.6519 92.8937 48.2247Z" fill="white"/>
<g clip-path="url(#clip2_295_12502)">
<path d="M56.5101 27.257C55.768 26.8298 55.2805 26.3579 55.0477 25.8414C54.8191 25.3273 54.8746 24.7905 55.2143 24.2308C55.554 23.6711 56.2094 23.1117 57.1807 22.5525C58.1562 21.9909 59.1279 21.6112 60.0959 21.4132C61.068 21.2176 62.0027 21.1869 62.8999 21.3209C63.8013 21.4525 64.623 21.732 65.3651 22.1592C66.4361 22.7758 66.9997 23.3907 67.056 24.004C67.1122 24.6173 66.7915 25.1855 66.0938 25.7085L63.5713 24.6848C63.8359 24.4208 63.9805 24.1603 64.0052 23.9034C64.0382 23.6465 63.8798 23.4173 63.5298 23.2158C63.2178 23.0362 62.847 22.9316 62.4174 22.9022C61.9963 22.8728 61.5291 22.9306 61.0157 23.0756C60.5024 23.2206 59.9493 23.4638 59.3564 23.8051C58.7762 24.1391 58.3622 24.4551 58.1145 24.7531C57.871 25.0486 57.7749 25.3176 57.826 25.56C57.8813 25.8049 58.0608 26.0147 58.3644 26.1895C58.7987 26.4395 59.2369 26.5611 59.679 26.5542C60.1253 26.5448 60.5124 26.4458 60.8404 26.257L62.9781 27.4877C62.3264 27.8629 61.6407 28.1047 60.9209 28.2132C60.2096 28.3217 59.4811 28.2969 58.7354 28.1387C57.994 27.9781 57.2522 27.6842 56.5101 27.257Z" fill="#F4B67C"/>
<path d="M65.2349 32.0474L76.5576 28.8205L79.1318 30.3025L73.3685 36.7299L71.2371 35.5029L72.2638 34.3802L69.3354 32.6943L67.3853 33.2854L65.2349 32.0474ZM71.3425 32.1287L73.2969 33.2538L75.4322 30.9176L71.3425 32.1287Z" fill="#F4B67C"/>
<path d="M89.4502 36.2427L82.7522 40.0987L85.9588 41.9448L84.1928 42.9614L78.9623 39.9502L87.4263 35.0775L89.4502 36.2427Z" fill="#F4B67C"/>
<path d="M92.8958 48.2041C92.1537 47.7768 91.6662 47.305 91.4334 46.7885C91.2048 46.2744 91.2603 45.7375 91.6 45.1779C91.9397 44.6182 92.5951 44.0588 93.5664 43.4996C94.5419 42.938 95.5136 42.5582 96.4816 42.3603C97.4537 42.1647 98.3884 42.1339 99.2856 42.268C100.187 42.3996 101.009 42.679 101.751 43.1063C102.822 43.7228 103.385 44.3378 103.442 44.9511C103.498 45.5644 103.177 46.1326 102.48 46.6556L99.957 45.6319C100.222 45.3679 100.366 45.1074 100.391 44.8505C100.424 44.5935 100.265 44.3643 99.9155 44.1629C99.6035 43.9832 99.2327 43.8787 98.8031 43.8493C98.382 43.8198 97.9148 43.8776 97.4014 44.0227C96.8881 44.1677 96.335 44.4109 95.7421 44.7522C95.1619 45.0862 94.7479 45.4022 94.5002 45.7002C94.2567 45.9957 94.1606 46.2647 94.2117 46.5071C94.267 46.752 94.4465 46.9618 94.7501 47.1366C95.1844 47.3866 95.6226 47.5082 96.0647 47.5013C96.511 47.4919 96.8981 47.3928 97.226 47.204L99.3638 48.4347C98.7121 48.8099 98.0264 49.0518 97.3066 49.1603C96.5953 49.2688 95.8668 49.244 95.1211 49.0858C94.3797 48.9252 93.6379 48.6313 92.8958 48.2041Z" fill="#F4B67C"/>
</g>
<defs>
<filter id="filter0_d_295_12502" x="-37" y="70.4348" width="231.97" height="226.217" filterUnits="userSpaceOnUse" color-interpolation-filters="sRGB">
<feFlood flood-opacity="0" result="BackgroundImageFix"/>
<feColorMatrix in="SourceAlpha" type="matrix" values="0 0 0 0 0 0 0 0 0 0 0 0 0 0 0 0 0 0 127 0" result="hardAlpha"/>
<feOffset dy="101"/>
<feGaussianBlur stdDeviation="27.5"/>
<feComposite in2="hardAlpha" operator="out"/>
<feColorMatrix type="matrix" values="0 0 0 0 0 0 0 0 0 0 0 0 0 0 0 0 0 0 0.25 0"/>
<feBlend mode="normal" in2="BackgroundImageFix" result="effect1_dropShadow_295_12502"/>
<feBlend mode="normal" in="SourceGraphic" in2="effect1_dropShadow_295_12502" result="shape"/>
</filter>
<filter id="filter1_d_295_12502" x="-37" y="35.2174" width="231.97" height="226.217" filterUnits="userSpaceOnUse" color-interpolation-filters="sRGB">
<feFlood flood-opacity="0" result="BackgroundImageFix"/>
<feColorMatrix in="SourceAlpha" type="matrix" values="0 0 0 0 0 0 0 0 0 0 0 0 0 0 0 0 0 0 127 0" result="hardAlpha"/>
<feOffset dy="101"/>
<feGaussianBlur stdDeviation="27.5"/>
<feComposite in2="hardAlpha" operator="out"/>
<feColorMatrix type="matrix" values="0 0 0 0 0 0 0 0 0 0 0 0 0 0 0 0 0 0 0.25 0"/>
<feBlend mode="normal" in2="BackgroundImageFix" result="effect1_dropShadow_295_12502"/>
<feBlend mode="normal" in="SourceGraphic" in2="effect1_dropShadow_295_12502" result="shape"/>
</filter>
<filter id="filter2_d_295_12502" x="-37" y="0" width="231.97" height="226.217" filterUnits="userSpaceOnUse" color-interpolation-filters="sRGB">
<feFlood flood-opacity="0" result="BackgroundImageFix"/>
<feColorMatrix in="SourceAlpha" type="matrix" values="0 0 0 0 0 0 0 0 0 0 0 0 0 0 0 0 0 0 127 0" result="hardAlpha"/>
<feOffset dy="101"/>
<feGaussianBlur stdDeviation="27.5"/>
<feComposite in2="hardAlpha" operator="out"/>
<feColorMatrix type="matrix" values="0 0 0 0 0 0 0 0 0 0 0 0 0 0 0 0 0 0 0.25 0"/>
<feBlend mode="normal" in2="BackgroundImageFix" result="effect1_dropShadow_295_12502"/>
<feBlend mode="normal" in="SourceGraphic" in2="effect1_dropShadow_295_12502" result="shape"/>
</filter>
<linearGradient id="paint0_linear_295_12502" x1="0" y1="0" x2="70.3688" y2="70.3688" gradientUnits="userSpaceOnUse">
<stop stop-color="#C4C4C4" stop-opacity="0.22"/>
<stop offset="0.841856" stop-color="#C4C4C4" stop-opacity="0"/>
</linearGradient>
<linearGradient id="paint1_linear_295_12502" x1="0" y1="0" x2="70.3688" y2="70.3688" gradientUnits="userSpaceOnUse">
<stop stop-color="#C4C4C4" stop-opacity="0.22"/>
<stop offset="0.841856" stop-color="#C4C4C4" stop-opacity="0"/>
</linearGradient>
<linearGradient id="paint2_linear_295_12502" x1="0" y1="0" x2="70.3688" y2="70.3688" gradientUnits="userSpaceOnUse">
<stop stop-color="#C4C4C4" stop-opacity="0.22"/>
<stop offset="0.841856" stop-color="#C4C4C4" stop-opacity="0"/>
</linearGradient>
<linearGradient id="paint3_linear_295_12502" x1="0" y1="0" x2="70.3688" y2="70.3688" gradientUnits="userSpaceOnUse">
<stop stop-color="#C4C4C4" stop-opacity="0.22"/>
<stop offset="0.841856" stop-color="#C4C4C4" stop-opacity="0"/>
</linearGradient>
<linearGradient id="paint4_linear_295_12502" x1="0" y1="0" x2="70.3688" y2="70.3688" gradientUnits="userSpaceOnUse">
<stop stop-color="#C4C4C4" stop-opacity="0.22"/>
<stop offset="0.841856" stop-color="#C4C4C4" stop-opacity="0"/>
</linearGradient>
<clipPath id="clip0_295_12502">
<rect width="50.3257" height="5.00327" fill="white" transform="matrix(0.866646 0.498924 -0.866646 0.498924 61.6146 90.4348)"/>
</clipPath>
<clipPath id="clip1_295_12502">
<rect width="50.3257" height="5.00327" fill="white" transform="matrix(0.866646 0.498924 -0.866646 0.498924 61.6146 55.2174)"/>
</clipPath>
<clipPath id="clip2_295_12502">
<rect width="50.3257" height="5.00327" fill="white" transform="matrix(0.866646 0.498924 -0.866646 0.498924 61.6145 20)"/>
</clipPath>
</defs>
</svg>
