<svg width="24" height="24" viewBox="0 0 24 24" fill="none" xmlns="http://www.w3.org/2000/svg">
<path d="M11.3549 16.5003L10.8749 10.6016C10.8659 10.4604 10.8139 10.3253 10.7259 10.2145C10.6379 10.1037 10.5181 10.0224 10.3826 9.98163C10.2472 9.94082 10.1025 9.94241 9.96791 9.98619C9.83336 10.03 9.71542 10.1138 9.62989 10.2266V10.2266C9.54816 10.3295 9.49736 10.4536 9.48341 10.5843C9.46946 10.715 9.49293 10.847 9.55108 10.9648C9.60924 11.0827 9.69969 11.1817 9.8119 11.2501C9.92411 11.3186 10.0535 11.3538 10.1849 11.3516H13.8374C13.9688 11.3538 14.0982 11.3186 14.2104 11.2501C14.3226 11.1817 14.413 11.0827 14.4712 10.9648C14.5294 10.847 14.5528 10.715 14.5389 10.5843C14.5249 10.4536 14.4741 10.3295 14.3924 10.2266V10.2266C14.3069 10.1138 14.1889 10.03 14.0544 9.98619C13.9198 9.94241 13.7751 9.94082 13.6396 9.98163C13.5042 10.0224 13.3844 10.1037 13.2964 10.2145C13.2084 10.3253 13.1564 10.4604 13.1474 10.6016L12.6449 16.5003" stroke="#18e0a4" stroke-miterlimit="5"/>
<path d="M14.0287 16.5C14.0287 14.4713 15.66 12.6488 16.5037 11.3775C17.153 10.4028 17.4664 9.24281 17.3962 8.07375C17.25 5.38125 15.375 3 12 3C8.62495 3 6.59621 5.28 6.59621 8.3925C6.59377 9.47431 6.9179 10.5317 7.5262 11.4262C8.3887 12.6937 9.9712 14.4713 9.9712 16.5" stroke="#18e0a4" stroke-miterlimit="5"/>
<path d="M10.5 19.5C10.5 19.8978 10.658 20.2794 10.9393 20.5607C11.2206 20.842 11.6022 21 12 21C12.3978 21 12.7794 20.842 13.0607 20.5607C13.342 20.2794 13.5 19.8978 13.5 19.5" stroke="#18e0a4" stroke-miterlimit="5"/>
<path d="M13.875 16.5H10.125C9.50368 16.5 9 17.0037 9 17.625V18.375C9 18.9963 9.50368 19.5 10.125 19.5H13.875C14.4963 19.5 15 18.9963 15 18.375V17.625C15 17.0037 14.4963 16.5 13.875 16.5Z" stroke="#18e0a4" stroke-miterlimit="5"/>
</svg>
