<svg width="107" height="21" viewBox="0 0 107 21" fill="none" xmlns="http://www.w3.org/2000/svg">
<path d="M9.24274 21C7.42212 21 5.81874 20.607 4.43258 19.8209C3.05678 19.0348 1.98096 17.8657 1.20513 16.3134C0.429297 14.7612 0.0413818 12.8358 0.0413818 10.5373C0.0413818 8.22887 0.424125 6.29853 1.18961 4.74629C1.96544 3.19405 3.04643 2.0249 4.43258 1.23883C5.81874 0.44281 7.42212 0.0447998 9.24274 0.0447998C11.8702 0.0447998 13.8719 0.641814 15.2477 1.83584C16.6235 3.02987 17.4407 4.57713 17.6993 6.47763L12.4236 7.35823C12.1857 6.50251 11.8082 5.79604 11.2909 5.23883C10.7841 4.67166 10.1013 4.38808 9.24274 4.38808C8.47725 4.38808 7.79969 4.61196 7.21006 5.05972C6.63077 5.49753 6.18079 6.16917 5.86011 7.07465C5.53944 7.98012 5.3791 9.13435 5.3791 10.5373C5.3791 11.9105 5.54461 13.0498 5.87563 13.9552C6.20665 14.8508 6.66181 15.5174 7.24109 15.9552C7.83072 16.393 8.49794 16.6119 9.24274 16.6119C10.3082 16.6119 11.1047 16.3433 11.6323 15.806C12.1599 15.2587 12.4236 14.597 12.4236 13.8209H17.6683C17.6683 15.3632 17.3424 16.6717 16.6907 17.7463C16.0494 18.811 15.1028 19.6219 13.8512 20.1791C12.5995 20.7264 11.0634 21 9.24274 21Z" fill="#F4B67C"/>
<path d="M30.1521 20.5224L37.1656 0.492562H43.4809L50.1065 20.5224H44.8774L43.7447 17H36.5605L35.4278 20.5224H30.1521ZM37.8173 13.4627H42.6119L40.2534 6.13435L37.8173 13.4627Z" fill="#F4B67C"/>
<path d="M68.795 0.492562V16.3433H76.6619V20.5224H63.8297V0.492562H68.795Z" fill="#F4B67C"/>
<path d="M98.5081 21C96.6875 21 95.0841 20.607 93.698 19.8209C92.3222 19.0348 91.2464 17.8657 90.4705 16.3134C89.6947 14.7612 89.3068 12.8358 89.3068 10.5373C89.3068 8.22887 89.6895 6.29853 90.455 4.74629C91.2308 3.19405 92.3118 2.0249 93.698 1.23883C95.0841 0.44281 96.6875 0.0447998 98.5081 0.0447998C101.136 0.0447998 103.137 0.641814 104.513 1.83584C105.889 3.02987 106.706 4.57713 106.965 6.47763L101.689 7.35823C101.451 6.50251 101.074 5.79604 100.556 5.23883C100.049 4.67166 99.3667 4.38808 98.5081 4.38808C97.7426 4.38808 97.0651 4.61196 96.4755 5.05972C95.8962 5.49753 95.4462 6.16917 95.1255 7.07465C94.8048 7.98012 94.6445 9.13435 94.6445 10.5373C94.6445 11.9105 94.81 13.0498 95.141 13.9552C95.472 14.8508 95.9272 15.5174 96.5065 15.9552C97.0961 16.393 97.7633 16.6119 98.5081 16.6119C99.5736 16.6119 100.37 16.3433 100.898 15.806C101.425 15.2587 101.689 14.597 101.689 13.8209H106.934C106.934 15.3632 106.608 16.6717 105.956 17.7463C105.315 18.811 104.368 19.6219 103.117 20.1791C101.865 20.7264 100.329 21 98.5081 21Z" fill="#F4B67C"/>
<g clip-path="url(#clip0_295_12438)">
<path d="M9.20135 20.9552C7.38074 20.9552 5.77735 20.5622 4.3912 19.7761C3.0154 18.99 1.93958 17.8209 1.16375 16.2686C0.387915 14.7164 0 12.791 0 10.4925C0 8.18407 0.382743 6.25373 1.14823 4.70149C1.92406 3.14925 3.00505 1.9801 4.3912 1.19403C5.77735 0.39801 7.38074 0 9.20135 0C11.8288 0 13.8305 0.597014 15.2063 1.79104C16.5821 2.98507 17.3993 4.53233 17.6579 6.43283L12.3823 7.31343C12.1443 6.45771 11.7668 5.75124 11.2495 5.19403C10.7427 4.62686 10.0599 4.34328 9.20135 4.34328C8.43587 4.34328 7.75831 4.56716 7.16868 5.01492C6.58939 5.45273 6.13941 6.12437 5.81873 7.02985C5.49805 7.93532 5.33772 9.08955 5.33772 10.4925C5.33772 11.8657 5.50323 13.005 5.83425 13.9104C6.16527 14.806 6.62042 15.4726 7.19971 15.9104C7.78934 16.3482 8.45656 16.5672 9.20135 16.5672C10.2668 16.5672 11.0633 16.2985 11.5909 15.7612C12.1185 15.2139 12.3823 14.5522 12.3823 13.7761H17.6269C17.6269 15.3184 17.301 16.6269 16.6493 17.7015C16.008 18.7662 15.0615 19.5771 13.8098 20.1343C12.5581 20.6816 11.022 20.9552 9.20135 20.9552Z" fill="#CBF6F7"/>
<path d="M30.1107 20.4776L37.1242 0.447762H43.4395L50.0651 20.4776H44.836L43.7033 16.9552H36.5191L35.3864 20.4776H30.1107ZM37.7759 13.4179H42.5706L40.212 6.08955L37.7759 13.4179Z" fill="#CBF6F7"/>
<path d="M68.7536 0.447762V16.2985H76.6206V20.4776H63.7883V0.447762H68.7536Z" fill="#CBF6F7"/>
<path d="M98.4668 20.9552C96.6461 20.9552 95.0427 20.5622 93.6566 19.7761C92.2808 18.99 91.205 17.8209 90.4291 16.2686C89.6533 14.7164 89.2654 12.791 89.2654 10.4925C89.2654 8.18407 89.6481 6.25373 90.4136 4.70149C91.1895 3.14925 92.2704 1.9801 93.6566 1.19403C95.0427 0.39801 96.6461 0 98.4668 0C101.094 0 103.096 0.597014 104.472 1.79104C105.847 2.98507 106.665 4.53233 106.923 6.43283L101.648 7.31343C101.41 6.45771 101.032 5.75124 100.515 5.19403C100.008 4.62686 99.3253 4.34328 98.4668 4.34328C97.7013 4.34328 97.0237 4.56716 96.4341 5.01492C95.8548 5.45273 95.4048 6.12437 95.0841 7.02985C94.7634 7.93532 94.6031 9.08955 94.6031 10.4925C94.6031 11.8657 94.7686 13.005 95.0996 13.9104C95.4307 14.806 95.8858 15.4726 96.4651 15.9104C97.0547 16.3482 97.722 16.5672 98.4668 16.5672C99.5322 16.5672 100.329 16.2985 100.856 15.7612C101.384 15.2139 101.648 14.5522 101.648 13.7761H106.892C106.892 15.3184 106.566 16.6269 105.915 17.7015C105.273 18.7662 104.327 19.5771 103.075 20.1343C101.824 20.6816 100.287 20.9552 98.4668 20.9552Z" fill="#CBF6F7"/>
</g>
<defs>
<clipPath id="clip0_295_12438">
<rect width="107" height="10.2612" fill="white"/>
</clipPath>
</defs>
</svg>
