<svg width="2239" height="439" viewBox="0 0 2239 439" fill="none" xmlns="http://www.w3.org/2000/svg">
<path d="M193.406 438.999C155.309 438.999 121.758 430.783 92.7522 414.35C63.9631 397.918 41.4513 373.477 25.2169 341.028C8.98246 308.579 0.865234 268.329 0.865234 220.279C0.865234 172.022 8.87422 131.668 24.8922 99.2191C41.1266 66.7699 63.7466 42.329 92.7522 25.8965C121.758 9.25585 155.309 0.935547 193.406 0.935547C248.386 0.935547 290.271 13.416 319.06 38.3769C347.849 63.3378 364.95 95.6829 370.361 135.412L259.967 153.821C254.988 135.932 247.088 121.164 236.265 109.515C225.658 97.659 211.372 91.7308 193.406 91.7308C177.388 91.7308 163.21 96.411 150.871 105.771C138.75 114.924 129.334 128.964 122.624 147.893C115.913 166.821 112.558 190.95 112.558 220.279C112.558 248.984 116.022 272.801 122.948 291.73C129.875 310.451 139.399 324.387 151.521 333.539C163.859 342.692 177.821 347.268 193.406 347.268C215.701 347.268 232.368 341.652 243.408 330.419C254.447 318.979 259.967 305.146 259.967 288.922H369.712C369.712 321.163 362.893 348.516 349.256 370.981C335.836 393.238 316.03 410.19 289.838 421.839C263.647 433.279 231.503 438.999 193.406 438.999Z" fill="#FFB636"/>
<path d="M630.939 429.015L777.698 10.2959H909.847L1048.49 429.015H939.069L915.366 355.38H765.036L741.333 429.015H630.939ZM791.335 281.434H891.664L842.312 128.236L791.335 281.434Z" fill="#FFB636"/>
<path d="M1439.55 10.2959V341.652H1604.17V429.015H1335.65V10.2959H1439.55Z" fill="#FFB636"/>
<path d="M2061.3 438.999C2023.21 438.999 1989.66 430.783 1960.65 414.35C1931.86 397.918 1909.35 373.477 1893.12 341.028C1876.88 308.579 1868.76 268.329 1868.76 220.279C1868.76 172.022 1876.77 131.668 1892.79 99.2191C1909.03 66.7699 1931.65 42.329 1960.65 25.8965C1989.66 9.25585 2023.21 0.935547 2061.3 0.935547C2116.29 0.935547 2158.17 13.416 2186.96 38.3769C2215.75 63.3378 2232.85 95.6829 2238.26 135.412L2127.87 153.821C2122.89 135.932 2114.99 121.164 2104.16 109.515C2093.56 97.659 2079.27 91.7308 2061.3 91.7308C2045.29 91.7308 2031.11 96.411 2018.77 105.771C2006.65 114.924 1997.23 128.964 1990.52 147.893C1983.81 166.821 1980.46 190.95 1980.46 220.279C1980.46 248.984 1983.92 272.801 1990.85 291.73C1997.77 310.451 2007.3 324.387 2019.42 333.539C2031.76 342.692 2045.72 347.268 2061.3 347.268C2083.6 347.268 2100.27 341.652 2111.31 330.419C2122.35 318.979 2127.87 305.146 2127.87 288.922H2237.61C2237.61 321.163 2230.79 348.516 2217.16 370.981C2203.74 393.238 2183.93 410.19 2157.74 421.839C2131.55 433.279 2099.4 438.999 2061.3 438.999Z" fill="#FFB636"/>
<g clip-path="url(#clip0_1695_34104)">
<path d="M192.54 438.064C154.444 438.064 120.892 429.847 91.8869 413.415C63.0979 396.982 40.5861 372.541 24.3517 340.092C8.11722 307.643 0 267.394 0 219.344C0 171.086 8.00899 130.733 24.027 98.2835C40.2614 65.8344 62.8814 41.3935 91.8869 24.9609C120.892 8.3203 154.444 0 192.54 0C247.521 0 289.406 12.4804 318.195 37.4413C346.984 62.4022 364.084 94.7474 369.496 134.477L259.102 152.885C254.123 134.997 246.222 120.228 235.399 108.58C224.793 96.7235 210.507 90.7952 192.54 90.7952C176.523 90.7952 162.344 95.4754 150.006 104.836C137.885 113.988 128.469 128.029 121.758 146.957C115.048 165.886 111.693 190.015 111.693 219.344C111.693 248.049 115.156 271.866 122.083 290.794C129.01 309.515 138.534 323.452 150.656 332.604C162.994 341.756 176.955 346.332 192.54 346.332C214.836 346.332 231.503 340.716 242.543 329.484C253.582 318.043 259.102 304.211 259.102 287.986H368.846C368.846 320.227 362.028 347.58 348.391 370.045C334.971 392.302 315.165 409.255 288.973 420.903C262.781 432.343 230.637 438.064 192.54 438.064Z" fill="#9CCBF0"/>
<path d="M630.074 428.079L776.833 9.36036H908.982L1047.62 428.079H938.203L914.501 354.445H764.17L740.468 428.079H630.074ZM790.47 280.498H890.799L841.446 127.301L790.47 280.498Z" fill="#9CCBF0"/>
<path d="M1438.69 9.36036V340.716H1603.3V428.079H1334.79V9.36036H1438.69Z" fill="#9CCBF0"/>
<path d="M2060.44 438.064C2022.34 438.064 1988.79 429.847 1959.79 413.415C1931 396.982 1908.49 372.541 1892.25 340.092C1876.02 307.643 1867.9 267.394 1867.9 219.344C1867.9 171.086 1875.91 130.733 1891.93 98.2835C1908.16 65.8344 1930.78 41.3935 1959.79 24.9609C1988.79 8.3203 2022.34 0 2060.44 0C2115.42 0 2157.31 12.4804 2186.09 37.4413C2214.88 62.4022 2231.98 94.7474 2237.4 134.477L2127 152.885C2122.02 134.997 2114.12 120.228 2103.3 108.58C2092.69 96.7235 2078.41 90.7952 2060.44 90.7952C2044.42 90.7952 2030.24 95.4754 2017.91 104.836C2005.78 113.988 1996.37 128.029 1989.66 146.957C1982.95 165.886 1979.59 190.015 1979.59 219.344C1979.59 248.049 1983.06 271.866 1989.98 290.794C1996.91 309.515 2006.43 323.452 2018.55 332.604C2030.89 341.756 2044.85 346.332 2060.44 346.332C2082.74 346.332 2099.4 340.716 2110.44 329.484C2121.48 318.043 2127 304.211 2127 287.986H2236.75C2236.75 320.227 2229.93 347.58 2216.29 370.045C2202.87 392.302 2183.06 409.255 2156.87 420.903C2130.68 432.343 2098.54 438.064 2060.44 438.064Z" fill="#9CCBF0"/>
</g>
<defs>
<clipPath id="clip0_1695_34104">
<rect width="2239" height="214.508" fill="white"/>
</clipPath>
</defs>
</svg>
