<svg width="486" height="293" viewBox="0 0 486 293" fill="none" xmlns="http://www.w3.org/2000/svg">
<line x1="160.646" y1="223.5" x2="385.646" y2="223.5" stroke="#9CCBF0" stroke-width="3"/>
<path d="M369.646 71C304.146 71 178.246 107.1 160.646 225.5" stroke="#FFB636" stroke-width="4"/>
<path d="M369.146 61L369.146 71" stroke="#9CCBF0" stroke-dasharray="2 2"/>
<line x1="159.146" y1="225" x2="159.146" y2="-6.55671e-08" stroke="#9CCBF0" stroke-width="3"/>
<path d="M370.646 61.5C305.146 73.5 178.246 107.1 160.646 225.5" stroke="white" stroke-width="4"/>
<path d="M45.7574 107L50.1774 94.02H53.1374L57.3774 107H54.8974L53.9974 104.2H49.1774L48.2574 107H45.7574ZM49.7774 102.42H53.4374L51.6174 96.84L49.7774 102.42ZM63.3169 107.28C62.3836 107.28 61.5802 107.153 60.9069 106.9C60.2402 106.64 59.7269 106.27 59.3669 105.79C59.0069 105.303 58.8236 104.72 58.8169 104.04H60.9969C61.0169 104.52 61.2069 104.87 61.5669 105.09C61.9269 105.31 62.4169 105.42 63.0369 105.42C63.3769 105.42 63.6769 105.37 63.9369 105.27C64.2036 105.17 64.4102 105.033 64.5569 104.86C64.7036 104.687 64.7769 104.493 64.7769 104.28C64.7769 104.007 64.6769 103.793 64.4769 103.64C64.2836 103.48 63.9702 103.333 63.5369 103.2L61.4169 102.44C60.6569 102.167 60.0736 101.807 59.6669 101.36C59.2602 100.913 59.0569 100.38 59.0569 99.76C59.0569 98.94 59.4269 98.28 60.1669 97.78C60.9136 97.2733 61.9102 97.02 63.1569 97.02C64.3969 97.02 65.3536 97.2933 66.0269 97.84C66.7069 98.38 67.0569 99.0667 67.0769 99.9H64.8569C64.8236 99.58 64.6702 99.3267 64.3969 99.14C64.1236 98.9533 63.7102 98.86 63.1569 98.86C62.6569 98.86 62.2636 98.9633 61.9769 99.17C61.6969 99.37 61.5569 99.6067 61.5569 99.88C61.5569 100.34 61.9502 100.687 62.7369 100.92L65.0369 101.78C65.7836 102.033 66.3636 102.36 66.7769 102.76C67.1902 103.16 67.3969 103.667 67.3969 104.28C67.3969 104.793 67.2236 105.28 66.8769 105.74C66.5369 106.193 66.0602 106.563 65.4469 106.85C64.8336 107.137 64.1236 107.28 63.3169 107.28ZM73.8638 107.28C72.9305 107.28 72.1271 107.153 71.4538 106.9C70.7871 106.64 70.2738 106.27 69.9138 105.79C69.5538 105.303 69.3705 104.72 69.3638 104.04H71.5438C71.5638 104.52 71.7538 104.87 72.1138 105.09C72.4738 105.31 72.9638 105.42 73.5838 105.42C73.9238 105.42 74.2238 105.37 74.4838 105.27C74.7505 105.17 74.9571 105.033 75.1038 104.86C75.2505 104.687 75.3238 104.493 75.3238 104.28C75.3238 104.007 75.2238 103.793 75.0238 103.64C74.8305 103.48 74.5171 103.333 74.0838 103.2L71.9638 102.44C71.2038 102.167 70.6205 101.807 70.2138 101.36C69.8071 100.913 69.6038 100.38 69.6038 99.76C69.6038 98.94 69.9738 98.28 70.7138 97.78C71.4605 97.2733 72.4571 97.02 73.7038 97.02C74.9438 97.02 75.9005 97.2933 76.5738 97.84C77.2538 98.38 77.6038 99.0667 77.6238 99.9H75.4038C75.3705 99.58 75.2171 99.3267 74.9438 99.14C74.6705 98.9533 74.2571 98.86 73.7038 98.86C73.2038 98.86 72.8105 98.9633 72.5238 99.17C72.2438 99.37 72.1038 99.6067 72.1038 99.88C72.1038 100.34 72.4971 100.687 73.2838 100.92L75.5838 101.78C76.3305 102.033 76.9105 102.36 77.3238 102.76C77.7371 103.16 77.9438 103.667 77.9438 104.28C77.9438 104.793 77.7705 105.28 77.4238 105.74C77.0838 106.193 76.6071 106.563 75.9938 106.85C75.3805 107.137 74.6705 107.28 73.8638 107.28ZM84.4107 107.28C83.584 107.28 82.8273 107.067 82.1407 106.64C81.454 106.213 80.904 105.617 80.4907 104.85C80.0773 104.077 79.8707 103.173 79.8707 102.14C79.8707 101.073 80.074 100.157 80.4807 99.39C80.894 98.6233 81.444 98.0367 82.1307 97.63C82.8173 97.2233 83.5773 97.02 84.4107 97.02C85.184 97.02 85.8507 97.1767 86.4107 97.49C86.9773 97.7967 87.4307 98.2167 87.7707 98.75C88.1173 99.2767 88.3507 99.8733 88.4707 100.54C88.5907 101.207 88.5973 101.893 88.4907 102.6H81.7507V101.32H86.8207L86.3607 101.62C86.3807 101.307 86.364 100.99 86.3107 100.67C86.264 100.35 86.1707 100.057 86.0307 99.79C85.8907 99.5233 85.6907 99.31 85.4307 99.15C85.1773 98.9833 84.8507 98.9 84.4507 98.9C83.9707 98.9 83.564 99.02 83.2307 99.26C82.8973 99.5 82.644 99.8267 82.4707 100.24C82.2973 100.653 82.2107 101.12 82.2107 101.64V102.58C82.2107 103.127 82.2907 103.61 82.4507 104.03C82.6173 104.45 82.8607 104.78 83.1807 105.02C83.5073 105.26 83.9173 105.38 84.4107 105.38C84.8707 105.38 85.2573 105.273 85.5707 105.06C85.884 104.847 86.084 104.527 86.1707 104.1H88.5507C88.4507 104.727 88.214 105.28 87.8407 105.76C87.474 106.233 86.9973 106.607 86.4107 106.88C85.824 107.147 85.1573 107.28 84.4107 107.28ZM94.6761 107.28C94.1028 107.28 93.5761 107.173 93.0961 106.96C92.6228 106.747 92.2428 106.42 91.9561 105.98C91.6761 105.54 91.5361 104.98 91.5361 104.3V94.72H93.8961V104.22C93.8961 105.02 94.2761 105.42 95.0361 105.42C95.2695 105.42 95.5028 105.393 95.7361 105.34C95.9695 105.287 96.2361 105.207 96.5361 105.1L96.8761 106.76C96.5028 106.907 96.1395 107.03 95.7861 107.13C95.4328 107.23 95.0628 107.28 94.6761 107.28ZM90.1761 98.86V97.3H96.5361V98.86H90.1761ZM102.907 107.28C101.973 107.28 101.17 107.153 100.497 106.9C99.8301 106.64 99.3168 106.27 98.9568 105.79C98.5968 105.303 98.4134 104.72 98.4068 104.04H100.587C100.607 104.52 100.797 104.87 101.157 105.09C101.517 105.31 102.007 105.42 102.627 105.42C102.967 105.42 103.267 105.37 103.527 105.27C103.793 105.17 104 105.033 104.147 104.86C104.293 104.687 104.367 104.493 104.367 104.28C104.367 104.007 104.267 103.793 104.067 103.64C103.873 103.48 103.56 103.333 103.127 103.2L101.007 102.44C100.247 102.167 99.6634 101.807 99.2568 101.36C98.8501 100.913 98.6468 100.38 98.6468 99.76C98.6468 98.94 99.0168 98.28 99.7568 97.78C100.503 97.2733 101.5 97.02 102.747 97.02C103.987 97.02 104.943 97.2933 105.617 97.84C106.297 98.38 106.647 99.0667 106.667 99.9H104.447C104.413 99.58 104.26 99.3267 103.987 99.14C103.713 98.9533 103.3 98.86 102.747 98.86C102.247 98.86 101.853 98.9633 101.567 99.17C101.287 99.37 101.147 99.6067 101.147 99.88C101.147 100.34 101.54 100.687 102.327 100.92L104.627 101.78C105.373 102.033 105.953 102.36 106.367 102.76C106.78 103.16 106.987 103.667 106.987 104.28C106.987 104.793 106.813 105.28 106.467 105.74C106.127 106.193 105.65 106.563 105.037 106.85C104.423 107.137 103.713 107.28 102.907 107.28ZM13.9214 131L18.3414 118.02H21.3014L25.5414 131H23.0614L22.1614 128.2H17.3414L16.4214 131H13.9214ZM17.9414 126.42H21.6014L19.7814 120.84L17.9414 126.42ZM31.541 131.28C30.7276 131.28 29.971 131.07 29.271 130.65C28.5776 130.223 28.0143 129.627 27.581 128.86C27.1543 128.087 26.941 127.18 26.941 126.14C26.941 125.04 27.1543 124.11 27.581 123.35C28.0143 122.583 28.5776 122.003 29.271 121.61C29.971 121.217 30.7276 121.02 31.541 121.02C32.1743 121.02 32.731 121.123 33.211 121.33C33.6976 121.53 34.111 121.803 34.451 122.15C34.791 122.49 35.0576 122.87 35.251 123.29C35.4443 123.71 35.5676 124.133 35.621 124.56L33.241 124.62C33.1343 124.193 32.9343 123.84 32.641 123.56C32.3543 123.28 31.981 123.14 31.521 123.14C31.141 123.14 30.7843 123.247 30.451 123.46C30.1176 123.667 29.8443 123.99 29.631 124.43C29.4243 124.87 29.321 125.44 29.321 126.14C29.321 126.807 29.4176 127.363 29.611 127.81C29.811 128.25 30.0776 128.583 30.411 128.81C30.7443 129.03 31.1143 129.14 31.521 129.14C32.121 129.14 32.5576 128.997 32.831 128.71C33.1043 128.417 33.241 128.027 33.241 127.54H35.621C35.621 128.227 35.4643 128.853 35.151 129.42C34.8376 129.987 34.3776 130.44 33.771 130.78C33.1643 131.113 32.421 131.28 31.541 131.28ZM42.1269 131.28C41.3136 131.28 40.5569 131.07 39.8569 130.65C39.1636 130.223 38.6002 129.627 38.1669 128.86C37.7402 128.087 37.5269 127.18 37.5269 126.14C37.5269 125.04 37.7402 124.11 38.1669 123.35C38.6002 122.583 39.1636 122.003 39.8569 121.61C40.5569 121.217 41.3136 121.02 42.1269 121.02C42.7602 121.02 43.3169 121.123 43.7969 121.33C44.2836 121.53 44.6969 121.803 45.0369 122.15C45.3769 122.49 45.6436 122.87 45.8369 123.29C46.0302 123.71 46.1536 124.133 46.2069 124.56L43.8269 124.62C43.7202 124.193 43.5202 123.84 43.2269 123.56C42.9402 123.28 42.5669 123.14 42.1069 123.14C41.7269 123.14 41.3702 123.247 41.0369 123.46C40.7036 123.667 40.4302 123.99 40.2169 124.43C40.0102 124.87 39.9069 125.44 39.9069 126.14C39.9069 126.807 40.0036 127.363 40.1969 127.81C40.3969 128.25 40.6636 128.583 40.9969 128.81C41.3302 129.03 41.7002 129.14 42.1069 129.14C42.7069 129.14 43.1436 128.997 43.4169 128.71C43.6902 128.417 43.8269 128.027 43.8269 127.54H46.2069C46.2069 128.227 46.0502 128.853 45.7369 129.42C45.4236 129.987 44.9636 130.44 44.3569 130.78C43.7502 131.113 43.0069 131.28 42.1269 131.28ZM55.4929 121.26H57.8529V131H55.4929V121.26ZM48.8329 121.26H51.1929V127.22C51.1929 127.853 51.3495 128.33 51.6629 128.65C51.9762 128.963 52.4062 129.12 52.9529 129.12C53.4195 129.12 53.8429 129 54.2229 128.76C54.6095 128.513 54.9162 128.153 55.1429 127.68C55.3762 127.2 55.4929 126.607 55.4929 125.9H56.1329C56.1329 127.087 55.9795 128.07 55.6729 128.85C55.3662 129.63 54.9429 130.213 54.4029 130.6C53.8629 130.987 53.2395 131.18 52.5329 131.18C51.8395 131.18 51.2129 131.057 50.6529 130.81C50.0929 130.563 49.6495 130.167 49.3229 129.62C48.9962 129.073 48.8329 128.353 48.8329 127.46V121.26ZM74.7519 131V125.32C74.7519 124.6 74.5786 124.057 74.2319 123.69C73.8852 123.323 73.4319 123.14 72.8719 123.14C72.1652 123.14 71.6086 123.427 71.2019 124C70.7952 124.573 70.5919 125.44 70.5919 126.6H69.6119C69.6119 125.58 69.7052 124.717 69.8919 124.01C70.0852 123.297 70.3552 122.723 70.7019 122.29C71.0552 121.85 71.4686 121.53 71.9419 121.33C72.4152 121.123 72.9386 121.02 73.5119 121.02C74.3052 121.02 74.9686 121.2 75.5019 121.56C76.0419 121.913 76.4486 122.413 76.7219 123.06C76.9952 123.707 77.1319 124.46 77.1319 125.32V131H74.7519ZM61.5719 131V121.3H63.6319L63.8919 122.96C64.2119 122.313 64.6352 121.83 65.1619 121.51C65.6886 121.183 66.2919 121.02 66.9719 121.02C67.7719 121.02 68.4386 121.2 68.9719 121.56C69.5119 121.913 69.9152 122.413 70.1819 123.06C70.4552 123.707 70.5919 124.46 70.5919 125.32V131H68.2319V125.32C68.2319 124.6 68.0586 124.057 67.7119 123.69C67.3652 123.323 66.9119 123.14 66.3519 123.14C65.8786 123.14 65.4586 123.27 65.0919 123.53C64.7319 123.79 64.4486 124.183 64.2419 124.71C64.0352 125.23 63.9319 125.88 63.9319 126.66V131H61.5719ZM87.0163 121.26H89.3763V131H87.0163V121.26ZM80.3563 121.26H82.7163V127.22C82.7163 127.853 82.873 128.33 83.1863 128.65C83.4996 128.963 83.9296 129.12 84.4763 129.12C84.943 129.12 85.3663 129 85.7463 128.76C86.133 128.513 86.4396 128.153 86.6663 127.68C86.8996 127.2 87.0163 126.607 87.0163 125.9H87.6563C87.6563 127.087 87.503 128.07 87.1963 128.85C86.8896 129.63 86.4663 130.213 85.9263 130.6C85.3863 130.987 84.763 131.18 84.0563 131.18C83.363 131.18 82.7363 131.057 82.1763 130.81C81.6163 130.563 81.173 130.167 80.8463 129.62C80.5196 129.073 80.3563 128.353 80.3563 127.46V121.26ZM93.0954 131V117.28H95.4554V131H93.0954ZM105.369 131L105.069 128.64V124.74C105.069 124.06 104.929 123.557 104.649 123.23C104.376 122.903 103.909 122.74 103.249 122.74C102.869 122.74 102.539 122.797 102.259 122.91C101.979 123.023 101.762 123.187 101.609 123.4C101.462 123.607 101.389 123.86 101.389 124.16H98.8091C98.8091 123.427 98.9858 122.83 99.3391 122.37C99.6924 121.903 100.199 121.563 100.859 121.35C101.526 121.13 102.322 121.02 103.249 121.02C104.089 121.02 104.822 121.157 105.449 121.43C106.076 121.697 106.562 122.11 106.909 122.67C107.256 123.23 107.429 123.947 107.429 124.82V131H105.369ZM102.189 131.28C101.356 131.28 100.659 131.137 100.099 130.85C99.5458 130.557 99.1291 130.173 98.8491 129.7C98.5691 129.227 98.4291 128.713 98.4291 128.16C98.4291 127.547 98.5891 127.033 98.9091 126.62C99.2358 126.2 99.6958 125.887 100.289 125.68C100.882 125.467 101.582 125.36 102.389 125.36C102.916 125.36 103.412 125.4 103.879 125.48C104.352 125.56 104.822 125.667 105.289 125.8V127.18C104.922 127.06 104.522 126.967 104.089 126.9C103.656 126.833 103.249 126.8 102.869 126.8C102.309 126.8 101.849 126.903 101.489 127.11C101.129 127.317 100.949 127.667 100.949 128.16C100.949 128.52 101.096 128.83 101.389 129.09C101.682 129.35 102.149 129.48 102.789 129.48C103.276 129.48 103.689 129.373 104.029 129.16C104.369 128.947 104.626 128.68 104.799 128.36C104.979 128.04 105.069 127.72 105.069 127.4H105.629C105.629 128.1 105.499 128.747 105.239 129.34C104.979 129.927 104.592 130.397 104.079 130.75C103.572 131.103 102.942 131.28 102.189 131.28ZM114.168 131.28C113.595 131.28 113.068 131.173 112.588 130.96C112.115 130.747 111.735 130.42 111.448 129.98C111.168 129.54 111.028 128.98 111.028 128.3V118.72H113.388V128.22C113.388 129.02 113.768 129.42 114.528 129.42C114.762 129.42 114.995 129.393 115.228 129.34C115.462 129.287 115.728 129.207 116.028 129.1L116.368 130.76C115.995 130.907 115.632 131.03 115.278 131.13C114.925 131.23 114.555 131.28 114.168 131.28ZM109.668 122.86V121.3H116.028V122.86H109.668ZM122.399 131.28C121.572 131.28 120.816 131.067 120.129 130.64C119.442 130.213 118.892 129.617 118.479 128.85C118.066 128.077 117.859 127.173 117.859 126.14C117.859 125.073 118.062 124.157 118.469 123.39C118.882 122.623 119.432 122.037 120.119 121.63C120.806 121.223 121.566 121.02 122.399 121.02C123.172 121.02 123.839 121.177 124.399 121.49C124.966 121.797 125.419 122.217 125.759 122.75C126.106 123.277 126.339 123.873 126.459 124.54C126.579 125.207 126.586 125.893 126.479 126.6H119.739V125.32H124.809L124.349 125.62C124.369 125.307 124.352 124.99 124.299 124.67C124.252 124.35 124.159 124.057 124.019 123.79C123.879 123.523 123.679 123.31 123.419 123.15C123.166 122.983 122.839 122.9 122.439 122.9C121.959 122.9 121.552 123.02 121.219 123.26C120.886 123.5 120.632 123.827 120.459 124.24C120.286 124.653 120.199 125.12 120.199 125.64V126.58C120.199 127.127 120.279 127.61 120.439 128.03C120.606 128.45 120.849 128.78 121.169 129.02C121.496 129.26 121.906 129.38 122.399 129.38C122.859 129.38 123.246 129.273 123.559 129.06C123.872 128.847 124.072 128.527 124.159 128.1H126.539C126.439 128.727 126.202 129.28 125.829 129.76C125.462 130.233 124.986 130.607 124.399 130.88C123.812 131.147 123.146 131.28 122.399 131.28ZM132.964 131.28C132.151 131.28 131.408 131.067 130.734 130.64C130.068 130.207 129.534 129.603 129.134 128.83C128.741 128.05 128.544 127.14 128.544 126.1C128.544 125.073 128.734 124.18 129.114 123.42C129.501 122.653 130.014 122.063 130.654 121.65C131.301 121.23 132.018 121.02 132.804 121.02C133.524 121.02 134.148 121.193 134.674 121.54C135.201 121.88 135.604 122.387 135.884 123.06C136.164 123.733 136.304 124.56 136.304 125.54H135.564C135.564 125.033 135.461 124.603 135.254 124.25C135.048 123.89 134.774 123.617 134.434 123.43C134.101 123.237 133.738 123.14 133.344 123.14C132.871 123.14 132.451 123.263 132.084 123.51C131.724 123.757 131.441 124.103 131.234 124.55C131.028 124.99 130.924 125.507 130.924 126.1C130.924 126.713 131.028 127.247 131.234 127.7C131.441 128.153 131.724 128.507 132.084 128.76C132.451 129.013 132.864 129.14 133.324 129.14C133.698 129.14 134.054 129.04 134.394 128.84C134.741 128.633 135.021 128.347 135.234 127.98C135.454 127.613 135.564 127.187 135.564 126.7H136.304C136.304 127.72 136.151 128.57 135.844 129.25C135.544 129.923 135.141 130.43 134.634 130.77C134.128 131.11 133.571 131.28 132.964 131.28ZM136.004 131L135.564 128.6V117.28H137.944V131H136.004Z" fill="white"/>
<path d="M249.877 251.06V249.02H260.277V251.06H255.727L256.257 250.52V262H253.897V250.52L254.427 251.06H249.877ZM263.622 250.52C263.162 250.52 262.802 250.4 262.542 250.16C262.289 249.913 262.162 249.573 262.162 249.14C262.162 248.72 262.289 248.387 262.542 248.14C262.802 247.887 263.162 247.76 263.622 247.76C264.075 247.76 264.432 247.887 264.692 248.14C264.952 248.387 265.082 248.72 265.082 249.14C265.082 249.573 264.952 249.913 264.692 250.16C264.432 250.4 264.075 250.52 263.622 250.52ZM262.442 262V252.26H264.802V262H262.442ZM281.984 262V256.32C281.984 255.6 281.811 255.057 281.464 254.69C281.118 254.323 280.664 254.14 280.104 254.14C279.398 254.14 278.841 254.427 278.434 255C278.028 255.573 277.824 256.44 277.824 257.6H276.844C276.844 256.58 276.938 255.717 277.124 255.01C277.318 254.297 277.588 253.723 277.934 253.29C278.288 252.85 278.701 252.53 279.174 252.33C279.648 252.123 280.171 252.02 280.744 252.02C281.538 252.02 282.201 252.2 282.734 252.56C283.274 252.913 283.681 253.413 283.954 254.06C284.228 254.707 284.364 255.46 284.364 256.32V262H281.984ZM268.804 262V252.3H270.864L271.124 253.96C271.444 253.313 271.868 252.83 272.394 252.51C272.921 252.183 273.524 252.02 274.204 252.02C275.004 252.02 275.671 252.2 276.204 252.56C276.744 252.913 277.148 253.413 277.414 254.06C277.688 254.707 277.824 255.46 277.824 256.32V262H275.464V256.32C275.464 255.6 275.291 255.057 274.944 254.69C274.598 254.323 274.144 254.14 273.584 254.14C273.111 254.14 272.691 254.27 272.324 254.53C271.964 254.79 271.681 255.183 271.474 255.71C271.268 256.23 271.164 256.88 271.164 257.66V262H268.804ZM291.409 262.28C290.582 262.28 289.825 262.067 289.139 261.64C288.452 261.213 287.902 260.617 287.489 259.85C287.075 259.077 286.869 258.173 286.869 257.14C286.869 256.073 287.072 255.157 287.479 254.39C287.892 253.623 288.442 253.037 289.129 252.63C289.815 252.223 290.575 252.02 291.409 252.02C292.182 252.02 292.849 252.177 293.409 252.49C293.975 252.797 294.429 253.217 294.769 253.75C295.115 254.277 295.349 254.873 295.469 255.54C295.589 256.207 295.595 256.893 295.489 257.6H288.749V256.32H293.819L293.359 256.62C293.379 256.307 293.362 255.99 293.309 255.67C293.262 255.35 293.169 255.057 293.029 254.79C292.889 254.523 292.689 254.31 292.429 254.15C292.175 253.983 291.849 253.9 291.449 253.9C290.969 253.9 290.562 254.02 290.229 254.26C289.895 254.5 289.642 254.827 289.469 255.24C289.295 255.653 289.209 256.12 289.209 256.64V257.58C289.209 258.127 289.289 258.61 289.449 259.03C289.615 259.45 289.859 259.78 290.179 260.02C290.505 260.26 290.915 260.38 291.409 260.38C291.869 260.38 292.255 260.273 292.569 260.06C292.882 259.847 293.082 259.527 293.169 259.1H295.549C295.449 259.727 295.212 260.28 294.839 260.76C294.472 261.233 293.995 261.607 293.409 261.88C292.822 262.147 292.155 262.28 291.409 262.28Z" fill="white"/>
<path d="M237.464 68.696H240.776C241.916 68.696 242.906 68.93 243.746 69.398C244.586 69.86 245.237 70.514 245.699 71.36C246.161 72.206 246.392 73.202 246.392 74.348C246.392 75.482 246.161 76.472 245.699 77.318C245.237 78.164 244.586 78.824 243.746 79.298C242.906 79.766 241.916 80 240.776 80H237.464V68.696ZM238.868 69.938V78.776H240.776C241.628 78.776 242.36 78.584 242.972 78.2C243.59 77.816 244.064 77.291 244.394 76.625C244.73 75.953 244.898 75.194 244.898 74.348C244.898 73.496 244.73 72.74 244.394 72.08C244.064 71.414 243.59 70.892 242.972 70.514C242.36 70.13 241.628 69.938 240.776 69.938H238.868ZM253.27 80.216C252.274 80.216 251.416 79.967 250.696 79.469C249.976 78.965 249.421 78.269 249.031 77.381C248.641 76.487 248.446 75.452 248.446 74.276C248.446 73.022 248.656 71.966 249.076 71.108C249.502 70.25 250.078 69.602 250.804 69.164C251.536 68.72 252.358 68.498 253.27 68.498C254.476 68.498 255.445 68.801 256.177 69.407C256.915 70.007 257.422 70.79 257.698 71.756L256.186 72.062C255.952 71.36 255.577 70.802 255.061 70.388C254.551 69.968 253.954 69.758 253.27 69.758C252.676 69.758 252.127 69.929 251.623 70.271C251.125 70.607 250.723 71.111 250.417 71.783C250.111 72.455 249.958 73.286 249.958 74.276C249.958 75.176 250.078 75.977 250.318 76.679C250.564 77.381 250.93 77.933 251.416 78.335C251.908 78.737 252.526 78.938 253.27 78.938C254.164 78.938 254.872 78.698 255.394 78.218C255.922 77.738 256.186 77.108 256.186 76.328H257.716C257.716 77.138 257.53 77.834 257.158 78.416C256.786 78.992 256.264 79.436 255.592 79.748C254.926 80.06 254.152 80.216 253.27 80.216ZM259.035 80L262.923 68.696H264.633L268.431 80H266.955L266.001 77.102H261.501L260.511 80H259.035ZM261.861 76.004H265.641L263.751 70.406L261.861 76.004Z" fill="white"/>
<path d="M246.464 141.696H249.776C250.916 141.696 251.906 141.93 252.746 142.398C253.586 142.86 254.237 143.514 254.699 144.36C255.161 145.206 255.392 146.202 255.392 147.348C255.392 148.482 255.161 149.472 254.699 150.318C254.237 151.164 253.586 151.824 252.746 152.298C251.906 152.766 250.916 153 249.776 153H246.464V141.696ZM247.868 142.938V151.776H249.776C250.628 151.776 251.36 151.584 251.972 151.2C252.59 150.816 253.064 150.291 253.394 149.625C253.73 148.953 253.898 148.194 253.898 147.348C253.898 146.496 253.73 145.74 253.394 145.08C253.064 144.414 252.59 143.892 251.972 143.514C251.36 143.13 250.628 142.938 249.776 142.938H247.868ZM262.27 153.216C261.274 153.216 260.416 152.967 259.696 152.469C258.976 151.965 258.421 151.269 258.031 150.381C257.641 149.487 257.446 148.452 257.446 147.276C257.446 146.022 257.656 144.966 258.076 144.108C258.502 143.25 259.078 142.602 259.804 142.164C260.536 141.72 261.358 141.498 262.27 141.498C263.476 141.498 264.445 141.801 265.177 142.407C265.915 143.007 266.422 143.79 266.698 144.756L265.186 145.062C264.952 144.36 264.577 143.802 264.061 143.388C263.551 142.968 262.954 142.758 262.27 142.758C261.676 142.758 261.127 142.929 260.623 143.271C260.125 143.607 259.723 144.111 259.417 144.783C259.111 145.455 258.958 146.286 258.958 147.276C258.958 148.176 259.078 148.977 259.318 149.679C259.564 150.381 259.93 150.933 260.416 151.335C260.908 151.737 261.526 151.938 262.27 151.938C263.164 151.938 263.872 151.698 264.394 151.218C264.922 150.738 265.186 150.108 265.186 149.328H266.716C266.716 150.138 266.53 150.834 266.158 151.416C265.786 151.992 265.264 152.436 264.592 152.748C263.926 153.06 263.152 153.216 262.27 153.216ZM268.035 153L271.923 141.696H273.633L277.431 153H275.955L275.001 150.102H270.501L269.511 153H268.035ZM270.861 149.004H274.641L272.751 143.406L270.861 149.004ZM281.953 144.162H283.339V147.978H287.065V149.184H283.339V153H281.953V149.184H278.227V147.978H281.953V144.162Z" fill="#FFB636"/>
<path d="M383.046 61.208H384.348L388.814 68.446H388.716V61.208H389.808V70H388.59L383.97 62.524H384.138V70H383.046V61.208ZM395.738 70.168C395.01 70.168 394.359 70 393.785 69.664C393.211 69.328 392.758 68.824 392.427 68.152C392.095 67.4753 391.93 66.6307 391.93 65.618C391.93 64.5913 392.095 63.742 392.427 63.07C392.758 62.3933 393.211 61.8893 393.785 61.558C394.359 61.222 395.01 61.054 395.738 61.054C396.466 61.054 397.117 61.222 397.691 61.558C398.265 61.894 398.717 62.4003 399.049 63.077C399.38 63.7537 399.546 64.6007 399.546 65.618C399.546 66.64 399.38 67.4893 399.049 68.166C398.717 68.838 398.265 69.3397 397.691 69.671C397.117 70.0023 396.466 70.168 395.738 70.168ZM395.738 69.16C396.564 69.16 397.215 68.859 397.691 68.257C398.171 67.655 398.412 66.7707 398.412 65.604C398.412 64.4607 398.171 63.581 397.691 62.965C397.215 62.3443 396.564 62.034 395.738 62.034C394.921 62.034 394.27 62.3443 393.785 62.965C393.304 63.5857 393.064 64.47 393.064 65.618C393.064 66.78 393.304 67.662 393.785 68.264C394.27 68.8613 394.921 69.16 395.738 69.16ZM404.989 70V61.208H410.337V62.146H406.081V65.072H410.043V66.01H406.081V70H404.989ZM412.317 70V61.208H417.735V62.146H413.409V65.1H417.483V66.038H413.409V69.048H417.735V70H412.317ZM420.178 70V61.208H425.596V62.146H421.27V65.1H425.344V66.038H421.27V69.048H425.596V70H420.178ZM428.04 70V61.208H433.458V62.146H429.132V65.1H433.206V66.038H429.132V69.048H433.458V70H428.04Z" fill="white"/>
</svg>
