<svg width="257" height="56" viewBox="0 0 257 56" fill="none" xmlns="http://www.w3.org/2000/svg">
<path d="M59.684 6.424H62.78L69.86 17.536H69.644V6.424H72.476V22H69.596L62.06 10.216H62.516V22H59.684V6.424ZM82.4071 22.336C81.0231 22.336 79.7991 22.032 78.7351 21.424C77.6791 20.816 76.8511 19.908 76.2511 18.7C75.6511 17.492 75.3511 15.992 75.3511 14.2C75.3511 12.376 75.6511 10.868 76.2511 9.676C76.8511 8.476 77.6791 7.584 78.7351 7C79.7991 6.408 81.0231 6.112 82.4071 6.112C83.7991 6.112 85.0271 6.416 86.0911 7.024C87.1551 7.624 87.9871 8.524 88.5871 9.724C89.1871 10.924 89.4871 12.416 89.4871 14.2C89.4871 16.016 89.1871 17.528 88.5871 18.736C87.9871 19.944 87.1551 20.848 86.0911 21.448C85.0271 22.04 83.7991 22.336 82.4071 22.336ZM82.4071 19.768C83.6791 19.768 84.6871 19.288 85.4311 18.328C86.1831 17.368 86.5591 15.984 86.5591 14.176C86.5591 12.432 86.1831 11.076 85.4311 10.108C84.6871 9.14 83.6791 8.656 82.4071 8.656C81.1591 8.656 80.1591 9.144 79.4071 10.12C78.6551 11.088 78.2791 12.448 78.2791 14.2C78.2791 16 78.6551 17.38 79.4071 18.34C80.1591 19.292 81.1591 19.768 82.4071 19.768ZM90.3659 6.424H93.5339L97.3019 19.504H96.5819L100.302 7.456H102.222L106.086 19.312H105.438L109.398 6.424H112.59L107.238 22H104.262L101.214 12.808H101.478L98.4299 22H95.4539L90.3659 6.424Z" fill="white"/>
<path d="M123.644 8.872V6.424H136.124V8.872H130.664L131.3 8.224V22H128.468V8.224L129.104 8.872H123.644ZM138.002 6.424H140.834V12.928H147.626V6.424H150.458V22H147.626V15.4H140.834V22H138.002V6.424ZM152.74 22L158.044 6.424H161.596L166.684 22H163.708L162.628 18.64H156.844L155.74 22H152.74ZM157.564 16.504H161.956L159.772 9.808L157.564 16.504ZM165.821 8.872V6.424H178.301V8.872H172.841L173.477 8.224V22H170.645V8.224L171.281 8.872H165.821ZM180.611 12.904L178.643 11.8C179.171 11.544 179.639 11.244 180.047 10.9C180.455 10.556 180.731 10.16 180.875 9.712C180.403 9.64 180.011 9.464 179.699 9.184C179.395 8.896 179.243 8.528 179.243 8.08C179.243 7.576 179.431 7.164 179.807 6.844C180.191 6.516 180.659 6.352 181.211 6.352C181.683 6.352 182.083 6.472 182.411 6.712C182.747 6.952 183.003 7.268 183.179 7.66C183.355 8.052 183.443 8.48 183.443 8.944C183.443 9.736 183.179 10.484 182.651 11.188C182.131 11.884 181.451 12.456 180.611 12.904ZM191.639 22.336C190.559 22.336 189.563 22.148 188.651 21.772C187.747 21.396 187.011 20.824 186.443 20.056C185.883 19.288 185.583 18.312 185.543 17.128H188.327C188.327 17.728 188.475 18.22 188.771 18.604C189.067 18.988 189.463 19.276 189.959 19.468C190.463 19.652 191.015 19.744 191.615 19.744C192.191 19.744 192.703 19.668 193.151 19.516C193.607 19.364 193.963 19.148 194.219 18.868C194.483 18.58 194.615 18.24 194.615 17.848C194.615 17.328 194.455 16.92 194.135 16.624C193.823 16.328 193.319 16.056 192.623 15.808L189.551 14.584C188.351 14.112 187.431 13.564 186.791 12.94C186.151 12.316 185.831 11.456 185.831 10.36C185.831 9.096 186.331 8.072 187.331 7.288C188.331 6.504 189.727 6.112 191.519 6.112C193.263 6.112 194.611 6.52 195.563 7.336C196.515 8.144 197.055 9.272 197.183 10.72H194.399C194.295 10.104 194.015 9.612 193.559 9.244C193.103 8.868 192.423 8.68 191.519 8.68C190.719 8.68 190.087 8.848 189.623 9.184C189.159 9.512 188.927 9.928 188.927 10.432C188.927 10.864 189.071 11.208 189.359 11.464C189.655 11.712 190.111 11.952 190.727 12.184L194.135 13.504C195.287 13.952 196.171 14.516 196.787 15.196C197.403 15.876 197.711 16.728 197.711 17.752C197.711 18.688 197.475 19.5 197.003 20.188C196.531 20.868 195.843 21.396 194.939 21.772C194.035 22.148 192.935 22.336 191.639 22.336Z" fill="#FFB636"/>
<path d="M7.896 50.336C6.528 50.336 5.336 50.012 4.32 49.364C3.312 48.708 2.528 47.772 1.968 46.556C1.408 45.34 1.128 43.88 1.128 42.176C1.128 40.416 1.416 38.94 1.992 37.748C2.576 36.548 3.376 35.644 4.392 35.036C5.416 34.42 6.584 34.112 7.896 34.112C9.712 34.112 11.128 34.552 12.144 35.432C13.168 36.312 13.824 37.456 14.112 38.864L11.088 39.416C10.84 38.6 10.444 37.94 9.9 37.436C9.356 36.932 8.688 36.68 7.896 36.68C7.2 36.68 6.572 36.884 6.012 37.292C5.452 37.692 5.004 38.3 4.668 39.116C4.34 39.932 4.176 40.952 4.176 42.176C4.176 43.328 4.32 44.32 4.608 45.152C4.904 45.984 5.328 46.624 5.88 47.072C6.432 47.52 7.104 47.744 7.896 47.744C8.912 47.744 9.696 47.476 10.248 46.94C10.808 46.396 11.088 45.704 11.088 44.864H14.112C14.112 46.024 13.86 47.012 13.356 47.828C12.86 48.636 12.148 49.256 11.22 49.688C10.292 50.12 9.184 50.336 7.896 50.336ZM15.2589 50L20.5629 34.424H24.1149L29.2029 50H26.2269L25.1469 46.64H19.3629L18.2589 50H15.2589ZM20.0829 44.504H24.4749L22.2909 37.808L20.0829 44.504ZM34.3384 34.424V47.528H40.7464V50H31.5064V34.424H34.3384ZM48.5498 50.336C47.1818 50.336 45.9898 50.012 44.9738 49.364C43.9658 48.708 43.1818 47.772 42.6218 46.556C42.0618 45.34 41.7818 43.88 41.7818 42.176C41.7818 40.416 42.0698 38.94 42.6458 37.748C43.2298 36.548 44.0298 35.644 45.0458 35.036C46.0698 34.42 47.2378 34.112 48.5498 34.112C50.3658 34.112 51.7818 34.552 52.7978 35.432C53.8218 36.312 54.4778 37.456 54.7658 38.864L51.7418 39.416C51.4938 38.6 51.0978 37.94 50.5538 37.436C50.0098 36.932 49.3418 36.68 48.5498 36.68C47.8538 36.68 47.2258 36.884 46.6658 37.292C46.1058 37.692 45.6578 38.3 45.3218 39.116C44.9938 39.932 44.8298 40.952 44.8298 42.176C44.8298 43.328 44.9738 44.32 45.2618 45.152C45.5578 45.984 45.9818 46.624 46.5338 47.072C47.0858 47.52 47.7578 47.744 48.5498 47.744C49.5658 47.744 50.3498 47.476 50.9018 46.94C51.4618 46.396 51.7418 45.704 51.7418 44.864H54.7658C54.7658 46.024 54.5138 47.012 54.0098 47.828C53.5138 48.636 52.8018 49.256 51.8738 49.688C50.9458 50.12 49.8378 50.336 48.5498 50.336ZM57.3767 34.424H60.2087V44.12C60.2087 45.4 60.5327 46.324 61.1807 46.892C61.8367 47.46 62.6727 47.744 63.6887 47.744C64.7127 47.744 65.5487 47.46 66.1967 46.892C66.8447 46.324 67.1687 45.4 67.1687 44.12V34.424H70.0007V44.12C70.0007 45.432 69.7487 46.552 69.2447 47.48C68.7407 48.408 68.0167 49.116 67.0727 49.604C66.1367 50.092 65.0087 50.336 63.6887 50.336C62.3687 50.336 61.2367 50.092 60.2927 49.604C59.3567 49.116 58.6367 48.408 58.1327 47.48C57.6287 46.552 57.3767 45.432 57.3767 44.12V34.424ZM76.539 34.424V47.528H82.947V50H73.707V34.424H76.539ZM83.3824 50L88.6864 34.424H92.2384L97.3264 50H94.3504L93.2704 46.64H87.4864L86.3824 50H83.3824ZM88.2064 44.504H92.5984L90.4144 37.808L88.2064 44.504ZM96.4637 36.872V34.424H108.944V36.872H103.484L104.12 36.224V50H101.288V36.224L101.924 36.872H96.4637ZM110.798 50V34.424H120.806V36.872H113.63V40.976H120.374V43.424H113.63V47.528H120.806V50H110.798ZM124.428 34.424H129.468C131.052 34.424 132.44 34.744 133.632 35.384C134.824 36.016 135.752 36.916 136.416 38.084C137.08 39.252 137.412 40.632 137.412 42.224C137.412 43.8 137.08 45.172 136.416 46.34C135.752 47.5 134.824 48.4 133.632 49.04C132.44 49.68 131.052 50 129.468 50H124.428V34.424ZM127.26 36.992V47.456H129.468C130.476 47.456 131.344 47.228 132.072 46.772C132.808 46.316 133.372 45.696 133.764 44.912C134.164 44.12 134.364 43.224 134.364 42.224C134.364 41.208 134.164 40.308 133.764 39.524C133.372 38.74 132.808 38.124 132.072 37.676C131.344 37.22 130.476 36.992 129.468 36.992H127.26Z" fill="#9CCBF0"/>
<path d="M149.144 36.872V34.424H161.624V36.872H156.164L156.8 36.224V50H153.968V36.224L154.604 36.872H149.144ZM163.502 34.424H166.334V40.928H173.126V34.424H175.958V50H173.126V43.4H166.334V50H163.502V34.424ZM179.944 50V34.424H182.776V50H179.944ZM186.728 34.424H189.824L196.904 45.536H196.688V34.424H199.52V50H196.64L189.104 38.216H189.56V50H186.728V34.424ZM212.5 34.424H216.388L206.116 44.936V41.072L212.5 34.424ZM209.044 40.856L216.82 50H213.172L207.076 42.704L209.044 40.856ZM203.5 34.424H206.356V50H203.5V34.424ZM218.723 50V34.424H221.555V50H218.723ZM225.507 34.424H228.603L235.683 45.536H235.467V34.424H238.299V50H235.419L227.883 38.216H228.339V50H225.507V34.424ZM247.966 50.336C246.694 50.336 245.546 50 244.522 49.328C243.498 48.656 242.682 47.72 242.074 46.52C241.474 45.312 241.174 43.904 241.174 42.296C241.174 41.024 241.358 39.884 241.726 38.876C242.102 37.868 242.622 37.008 243.286 36.296C243.95 35.584 244.73 35.044 245.626 34.676C246.522 34.3 247.494 34.112 248.542 34.112C249.998 34.112 251.218 34.428 252.202 35.06C253.194 35.692 253.966 36.688 254.518 38.048L251.614 38.72C251.206 38.056 250.734 37.552 250.198 37.208C249.67 36.856 249.07 36.68 248.398 36.68C247.63 36.68 246.93 36.908 246.298 37.364C245.666 37.812 245.162 38.456 244.786 39.296C244.41 40.136 244.222 41.136 244.222 42.296C244.222 43.384 244.386 44.336 244.714 45.152C245.05 45.968 245.518 46.604 246.118 47.06C246.718 47.516 247.414 47.744 248.206 47.744C248.878 47.744 249.478 47.596 250.006 47.3C250.542 46.996 250.962 46.564 251.266 46.004C251.578 45.444 251.734 44.768 251.734 43.976H252.358C252.358 45.272 252.202 46.396 251.89 47.348C251.586 48.3 251.11 49.036 250.462 49.556C249.814 50.076 248.982 50.336 247.966 50.336ZM252.142 50L251.734 46.568V43.88L248.23 43.808V42.008H254.446V50H252.142Z" fill="white"/>
</svg>
