<svg width="425" height="267" viewBox="0 0 425 267" fill="none" xmlns="http://www.w3.org/2000/svg">
<line x1="160.5" y1="223.5" x2="385.5" y2="223.5" stroke="#9CCBF0" stroke-width="3"/>
<path d="M374 35L374 218" stroke="white"/>
<path d="M159 25L373 25" stroke="white" stroke-dasharray="2 2"/>
<line x1="159" y1="225" x2="159" y2="-6.55671e-08" stroke="#9CCBF0" stroke-width="3"/>
<path d="M372.5 35H375.5" stroke="white"/>
<line x1="372.5" y1="217.5" x2="375.5" y2="217.5" stroke="white"/>
<path d="M28.193 107.28C27.0397 107.28 26.0197 107.027 25.133 106.52C24.253 106.013 23.563 105.257 23.063 104.25C22.563 103.243 22.313 101.993 22.313 100.5C22.313 98.98 22.563 97.7233 23.063 96.73C23.563 95.73 24.253 94.9867 25.133 94.5C26.0197 94.0067 27.0397 93.76 28.193 93.76C29.353 93.76 30.3764 94.0133 31.263 94.52C32.1497 95.02 32.843 95.77 33.343 96.77C33.843 97.77 34.093 99.0133 34.093 100.5C34.093 102.013 33.843 103.273 33.343 104.28C32.843 105.287 32.1497 106.04 31.263 106.54C30.3764 107.033 29.353 107.28 28.193 107.28ZM28.193 105.14C29.253 105.14 30.093 104.74 30.713 103.94C31.3397 103.14 31.653 101.987 31.653 100.48C31.653 99.0267 31.3397 97.8967 30.713 97.09C30.093 96.2833 29.253 95.88 28.193 95.88C27.153 95.88 26.3197 96.2867 25.693 97.1C25.0664 97.9067 24.753 99.04 24.753 100.5C24.753 102 25.0664 103.15 25.693 103.95C26.3197 104.743 27.153 105.14 28.193 105.14ZM43.3454 97.26H45.7054V107H43.3454V97.26ZM36.6854 97.26H39.0454V103.22C39.0454 103.853 39.2021 104.33 39.5154 104.65C39.8287 104.963 40.2587 105.12 40.8054 105.12C41.2721 105.12 41.6954 105 42.0754 104.76C42.4621 104.513 42.7687 104.153 42.9954 103.68C43.2287 103.2 43.3454 102.607 43.3454 101.9H43.9854C43.9854 103.087 43.8321 104.07 43.5254 104.85C43.2187 105.63 42.7954 106.213 42.2554 106.6C41.7154 106.987 41.0921 107.18 40.3854 107.18C39.6921 107.18 39.0654 107.057 38.5054 106.81C37.9454 106.563 37.5021 106.167 37.1754 105.62C36.8487 105.073 36.6854 104.353 36.6854 103.46V97.26ZM52.7045 107.28C52.1311 107.28 51.6045 107.173 51.1245 106.96C50.6511 106.747 50.2711 106.42 49.9845 105.98C49.7045 105.54 49.5645 104.98 49.5645 104.3V94.72H51.9245V104.22C51.9245 105.02 52.3045 105.42 53.0645 105.42C53.2978 105.42 53.5311 105.393 53.7645 105.34C53.9978 105.287 54.2645 105.207 54.5645 105.1L54.9045 106.76C54.5311 106.907 54.1678 107.03 53.8145 107.13C53.4611 107.23 53.0911 107.28 52.7045 107.28ZM48.2045 98.86V97.3H54.5645V98.86H48.2045ZM62.1751 107.28C61.4617 107.28 60.8551 107.127 60.3551 106.82C59.8551 106.513 59.4717 106.05 59.2051 105.43C58.9451 104.803 58.8151 104.02 58.8151 103.08H59.6751C59.6751 103.513 59.7751 103.883 59.9751 104.19C60.1751 104.497 60.4384 104.733 60.7651 104.9C61.0984 105.06 61.4551 105.14 61.8351 105.14C62.2284 105.14 62.6151 105.033 62.9951 104.82C63.3817 104.6 63.7017 104.27 63.9551 103.83C64.2084 103.383 64.3351 102.82 64.3351 102.14C64.3351 101.52 64.2284 100.987 64.0151 100.54C63.8017 100.087 63.5084 99.74 63.1351 99.5C62.7684 99.26 62.3484 99.14 61.8751 99.14C61.4751 99.14 61.1084 99.23 60.7751 99.41C60.4417 99.59 60.1751 99.8533 59.9751 100.2C59.7751 100.54 59.6751 100.953 59.6751 101.44H58.8151C58.8151 100.42 58.9717 99.5867 59.2851 98.94C59.5984 98.2867 60.0184 97.8033 60.5451 97.49C61.0717 97.1767 61.6484 97.02 62.2751 97.02C63.0417 97.02 63.7617 97.2233 64.4351 97.63C65.1151 98.0367 65.6651 98.6233 66.0851 99.39C66.5051 100.15 66.7151 101.067 66.7151 102.14C66.7151 103.22 66.5017 104.143 66.0751 104.91C65.6484 105.677 65.0884 106.263 64.3951 106.67C63.7084 107.077 62.9684 107.28 62.1751 107.28ZM57.3151 111.74V97.3H59.2551L59.6751 99.7V111.74H57.3151ZM73.1421 107.28C72.3154 107.28 71.5588 107.067 70.8721 106.64C70.1854 106.213 69.6354 105.617 69.2221 104.85C68.8088 104.077 68.6021 103.173 68.6021 102.14C68.6021 101.073 68.8054 100.157 69.2121 99.39C69.6254 98.6233 70.1754 98.0367 70.8621 97.63C71.5488 97.2233 72.3088 97.02 73.1421 97.02C73.9154 97.02 74.5821 97.1767 75.1421 97.49C75.7088 97.7967 76.1621 98.2167 76.5021 98.75C76.8488 99.2767 77.0821 99.8733 77.2021 100.54C77.3221 101.207 77.3288 101.893 77.2221 102.6H70.4821V101.32H75.5521L75.0921 101.62C75.1121 101.307 75.0954 100.99 75.0421 100.67C74.9954 100.35 74.9021 100.057 74.7621 99.79C74.6221 99.5233 74.4221 99.31 74.1621 99.15C73.9088 98.9833 73.5821 98.9 73.1821 98.9C72.7021 98.9 72.2954 99.02 71.9621 99.26C71.6288 99.5 71.3754 99.8267 71.2021 100.24C71.0288 100.653 70.9421 101.12 70.9421 101.64V102.58C70.9421 103.127 71.0221 103.61 71.1821 104.03C71.3488 104.45 71.5921 104.78 71.9121 105.02C72.2388 105.26 72.6488 105.38 73.1421 105.38C73.6021 105.38 73.9888 105.273 74.3021 105.06C74.6154 104.847 74.8154 104.527 74.9021 104.1H77.2821C77.1821 104.727 76.9454 105.28 76.5721 105.76C76.2054 106.233 75.7288 106.607 75.1421 106.88C74.5554 107.147 73.8888 107.28 73.1421 107.28ZM80.1276 107V97.26H82.4876V107H80.1276ZM81.9076 102.74C81.9076 101.467 82.0509 100.413 82.3376 99.58C82.6242 98.7467 83.0076 98.13 83.4876 97.73C83.9742 97.3233 84.5142 97.12 85.1076 97.12C85.2676 97.12 85.4176 97.13 85.5576 97.15C85.7042 97.17 85.8476 97.2 85.9876 97.24L85.9476 99.6C85.7742 99.56 85.5876 99.5267 85.3876 99.5C85.1876 99.4733 85.0076 99.46 84.8476 99.46C84.3276 99.46 83.8909 99.5867 83.5376 99.84C83.1909 100.087 82.9276 100.453 82.7476 100.94C82.5742 101.427 82.4876 102.027 82.4876 102.74H81.9076ZM88.5391 107V96.12C88.5391 95.42 88.6758 94.85 88.9491 94.41C89.2225 93.97 89.5825 93.6467 90.0291 93.44C90.4825 93.2267 90.9725 93.12 91.4991 93.12C91.8258 93.12 92.1625 93.1433 92.5091 93.19C92.8558 93.2367 93.1925 93.2933 93.5191 93.36L93.0591 95.18C92.8925 95.12 92.7191 95.0733 92.5391 95.04C92.3591 95 92.1858 94.98 92.0191 94.98C91.8325 94.98 91.6558 95.0167 91.4891 95.09C91.3225 95.1567 91.1858 95.2767 91.0791 95.45C90.9725 95.6233 90.9191 95.86 90.9191 96.16V107H88.5391ZM87.0991 98.86V97.3H92.6991V98.86H87.0991ZM99.1429 107.28C98.2562 107.28 97.4529 107.09 96.7329 106.71C96.0196 106.33 95.4529 105.763 95.0329 105.01C94.6129 104.25 94.4029 103.3 94.4029 102.16C94.4029 101 94.6129 100.04 95.0329 99.28C95.4529 98.52 96.0196 97.9533 96.7329 97.58C97.4529 97.2067 98.2562 97.02 99.1429 97.02C100.016 97.02 100.806 97.2067 101.513 97.58C102.226 97.9533 102.793 98.52 103.213 99.28C103.633 100.04 103.843 101 103.843 102.16C103.843 103.3 103.633 104.25 103.213 105.01C102.793 105.763 102.226 106.33 101.513 106.71C100.806 107.09 100.016 107.28 99.1429 107.28ZM99.0629 105.22C99.5296 105.22 99.9429 105.107 100.303 104.88C100.67 104.647 100.956 104.303 101.163 103.85C101.376 103.397 101.483 102.833 101.483 102.16C101.483 101.133 101.28 100.36 100.873 99.84C100.473 99.32 99.9229 99.06 99.2229 99.06C98.7496 99.06 98.3296 99.1767 97.9629 99.41C97.5962 99.6367 97.3062 99.98 97.0929 100.44C96.8862 100.9 96.7829 101.473 96.7829 102.16C96.7829 103.173 96.9862 103.937 97.3929 104.45C97.8062 104.963 98.3629 105.22 99.0629 105.22ZM106.651 107V97.26H109.011V107H106.651ZM108.431 102.74C108.431 101.467 108.574 100.413 108.861 99.58C109.148 98.7467 109.531 98.13 110.011 97.73C110.498 97.3233 111.038 97.12 111.631 97.12C111.791 97.12 111.941 97.13 112.081 97.15C112.228 97.17 112.371 97.2 112.511 97.24L112.471 99.6C112.298 99.56 112.111 99.5267 111.911 99.5C111.711 99.4733 111.531 99.46 111.371 99.46C110.851 99.46 110.414 99.5867 110.061 99.84C109.714 100.087 109.451 100.453 109.271 100.94C109.098 101.427 109.011 102.027 109.011 102.74H108.431ZM127.683 107V101.32C127.683 100.6 127.509 100.057 127.163 99.69C126.816 99.3233 126.363 99.14 125.803 99.14C125.096 99.14 124.539 99.4267 124.133 100C123.726 100.573 123.523 101.44 123.523 102.6H122.543C122.543 101.58 122.636 100.717 122.823 100.01C123.016 99.2967 123.286 98.7233 123.633 98.29C123.986 97.85 124.399 97.53 124.873 97.33C125.346 97.1233 125.869 97.02 126.443 97.02C127.236 97.02 127.899 97.2 128.433 97.56C128.973 97.9133 129.379 98.4133 129.653 99.06C129.926 99.7067 130.063 100.46 130.063 101.32V107H127.683ZM114.503 107V97.3H116.563L116.823 98.96C117.143 98.3133 117.566 97.83 118.093 97.51C118.619 97.1833 119.223 97.02 119.903 97.02C120.703 97.02 121.369 97.2 121.903 97.56C122.443 97.9133 122.846 98.4133 123.113 99.06C123.386 99.7067 123.523 100.46 123.523 101.32V107H121.163V101.32C121.163 100.6 120.989 100.057 120.643 99.69C120.296 99.3233 119.843 99.14 119.283 99.14C118.809 99.14 118.389 99.27 118.023 99.53C117.663 99.79 117.379 100.183 117.173 100.71C116.966 101.23 116.863 101.88 116.863 102.66V107H114.503ZM30.7981 131.28C30.0848 131.28 29.4781 131.127 28.9781 130.82C28.4781 130.513 28.0948 130.05 27.8281 129.43C27.5681 128.803 27.4381 128.02 27.4381 127.08H28.2981C28.2981 127.513 28.3981 127.883 28.5981 128.19C28.7981 128.497 29.0615 128.733 29.3881 128.9C29.7215 129.06 30.0781 129.14 30.4581 129.14C30.8515 129.14 31.2381 129.033 31.6181 128.82C32.0048 128.6 32.3248 128.27 32.5781 127.83C32.8315 127.383 32.9581 126.82 32.9581 126.14C32.9581 125.52 32.8515 124.987 32.6381 124.54C32.4248 124.087 32.1315 123.74 31.7581 123.5C31.3915 123.26 30.9715 123.14 30.4981 123.14C30.0981 123.14 29.7315 123.23 29.3981 123.41C29.0648 123.59 28.7981 123.853 28.5981 124.2C28.3981 124.54 28.2981 124.953 28.2981 125.44H27.4381C27.4381 124.42 27.5948 123.587 27.9081 122.94C28.2215 122.287 28.6415 121.803 29.1681 121.49C29.6948 121.177 30.2715 121.02 30.8981 121.02C31.6648 121.02 32.3848 121.223 33.0581 121.63C33.7381 122.037 34.2881 122.623 34.7081 123.39C35.1281 124.15 35.3381 125.067 35.3381 126.14C35.3381 127.22 35.1248 128.143 34.6981 128.91C34.2715 129.677 33.7115 130.263 33.0181 130.67C32.3315 131.077 31.5915 131.28 30.7981 131.28ZM25.9381 135.74V121.3H27.8781L28.2981 123.7V135.74H25.9381ZM38.1452 131V121.26H40.5052V131H38.1452ZM39.9252 126.74C39.9252 125.467 40.0685 124.413 40.3552 123.58C40.6418 122.747 41.0252 122.13 41.5052 121.73C41.9918 121.323 42.5318 121.12 43.1252 121.12C43.2852 121.12 43.4352 121.13 43.5752 121.15C43.7218 121.17 43.8652 121.2 44.0052 121.24L43.9652 123.6C43.7918 123.56 43.6052 123.527 43.4052 123.5C43.2052 123.473 43.0252 123.46 42.8652 123.46C42.3452 123.46 41.9085 123.587 41.5552 123.84C41.2085 124.087 40.9452 124.453 40.7652 124.94C40.5918 125.427 40.5052 126.027 40.5052 126.74H39.9252ZM49.8167 131.28C48.9301 131.28 48.1267 131.09 47.4067 130.71C46.6934 130.33 46.1267 129.763 45.7067 129.01C45.2867 128.25 45.0767 127.3 45.0767 126.16C45.0767 125 45.2867 124.04 45.7067 123.28C46.1267 122.52 46.6934 121.953 47.4067 121.58C48.1267 121.207 48.9301 121.02 49.8167 121.02C50.6901 121.02 51.4801 121.207 52.1867 121.58C52.9001 121.953 53.4667 122.52 53.8867 123.28C54.3067 124.04 54.5167 125 54.5167 126.16C54.5167 127.3 54.3067 128.25 53.8867 129.01C53.4667 129.763 52.9001 130.33 52.1867 130.71C51.4801 131.09 50.6901 131.28 49.8167 131.28ZM49.7367 129.22C50.2034 129.22 50.6167 129.107 50.9767 128.88C51.3434 128.647 51.6301 128.303 51.8367 127.85C52.0501 127.397 52.1567 126.833 52.1567 126.16C52.1567 125.133 51.9534 124.36 51.5467 123.84C51.1467 123.32 50.5967 123.06 49.8967 123.06C49.4234 123.06 49.0034 123.177 48.6367 123.41C48.2701 123.637 47.9801 123.98 47.7667 124.44C47.5601 124.9 47.4567 125.473 47.4567 126.16C47.4567 127.173 47.6601 127.937 48.0667 128.45C48.4801 128.963 49.0367 129.22 49.7367 129.22ZM62.2848 131.28C61.6782 131.28 61.1215 131.11 60.6148 130.77C60.1148 130.43 59.7148 129.923 59.4148 129.25C59.1148 128.57 58.9648 127.72 58.9648 126.7H59.6848C59.6848 127.187 59.7948 127.613 60.0148 127.98C60.2348 128.347 60.5182 128.633 60.8648 128.84C61.2115 129.04 61.5715 129.14 61.9448 129.14C62.4048 129.14 62.8148 129.013 63.1748 128.76C63.5348 128.507 63.8182 128.153 64.0248 127.7C64.2382 127.247 64.3448 126.713 64.3448 126.1C64.3448 125.507 64.2415 124.99 64.0348 124.55C63.8282 124.103 63.5415 123.757 63.1748 123.51C62.8148 123.263 62.3982 123.14 61.9248 123.14C61.5315 123.14 61.1648 123.237 60.8248 123.43C60.4848 123.617 60.2082 123.89 59.9948 124.25C59.7882 124.603 59.6848 125.033 59.6848 125.54H58.9648C58.9648 124.56 59.1048 123.733 59.3848 123.06C59.6715 122.387 60.0748 121.88 60.5948 121.54C61.1215 121.193 61.7448 121.02 62.4648 121.02C63.2515 121.02 63.9648 121.23 64.6048 121.65C65.2515 122.063 65.7648 122.653 66.1448 123.42C66.5315 124.18 66.7248 125.073 66.7248 126.1C66.7248 127.14 66.5248 128.05 66.1248 128.83C65.7315 129.603 65.1982 130.207 64.5248 130.64C63.8515 131.067 63.1048 131.28 62.2848 131.28ZM57.3248 131V117.28H59.6848V128.6L58.8648 131H57.3248ZM75.79 131L75.49 128.64V124.74C75.49 124.06 75.35 123.557 75.07 123.23C74.7967 122.903 74.33 122.74 73.67 122.74C73.29 122.74 72.96 122.797 72.68 122.91C72.4 123.023 72.1833 123.187 72.03 123.4C71.8833 123.607 71.81 123.86 71.81 124.16H69.23C69.23 123.427 69.4067 122.83 69.76 122.37C70.1133 121.903 70.62 121.563 71.28 121.35C71.9467 121.13 72.7433 121.02 73.67 121.02C74.51 121.02 75.2433 121.157 75.87 121.43C76.4967 121.697 76.9833 122.11 77.33 122.67C77.6767 123.23 77.85 123.947 77.85 124.82V131H75.79ZM72.61 131.28C71.7767 131.28 71.08 131.137 70.52 130.85C69.9667 130.557 69.55 130.173 69.27 129.7C68.99 129.227 68.85 128.713 68.85 128.16C68.85 127.547 69.01 127.033 69.33 126.62C69.6567 126.2 70.1167 125.887 70.71 125.68C71.3033 125.467 72.0033 125.36 72.81 125.36C73.3367 125.36 73.8333 125.4 74.3 125.48C74.7733 125.56 75.2433 125.667 75.71 125.8V127.18C75.3433 127.06 74.9433 126.967 74.51 126.9C74.0767 126.833 73.67 126.8 73.29 126.8C72.73 126.8 72.27 126.903 71.91 127.11C71.55 127.317 71.37 127.667 71.37 128.16C71.37 128.52 71.5167 128.83 71.81 129.09C72.1033 129.35 72.57 129.48 73.21 129.48C73.6967 129.48 74.11 129.373 74.45 129.16C74.79 128.947 75.0467 128.68 75.22 128.36C75.4 128.04 75.49 127.72 75.49 127.4H76.05C76.05 128.1 75.92 128.747 75.66 129.34C75.4 129.927 75.0133 130.397 74.5 130.75C73.9933 131.103 73.3633 131.28 72.61 131.28ZM86.2692 131.28C85.6626 131.28 85.1059 131.11 84.5992 130.77C84.0992 130.43 83.6992 129.923 83.3992 129.25C83.0992 128.57 82.9492 127.72 82.9492 126.7H83.6692C83.6692 127.187 83.7792 127.613 83.9992 127.98C84.2192 128.347 84.5026 128.633 84.8492 128.84C85.1959 129.04 85.5559 129.14 85.9292 129.14C86.3892 129.14 86.7992 129.013 87.1592 128.76C87.5192 128.507 87.8026 128.153 88.0092 127.7C88.2226 127.247 88.3292 126.713 88.3292 126.1C88.3292 125.507 88.2259 124.99 88.0192 124.55C87.8126 124.103 87.5259 123.757 87.1592 123.51C86.7992 123.263 86.3826 123.14 85.9092 123.14C85.5159 123.14 85.1492 123.237 84.8092 123.43C84.4692 123.617 84.1926 123.89 83.9792 124.25C83.7726 124.603 83.6692 125.033 83.6692 125.54H82.9492C82.9492 124.56 83.0892 123.733 83.3692 123.06C83.6559 122.387 84.0592 121.88 84.5792 121.54C85.1059 121.193 85.7292 121.02 86.4492 121.02C87.2359 121.02 87.9492 121.23 88.5892 121.65C89.2359 122.063 89.7492 122.653 90.1292 123.42C90.5159 124.18 90.7092 125.073 90.7092 126.1C90.7092 127.14 90.5092 128.05 90.1092 128.83C89.7159 129.603 89.1826 130.207 88.5092 130.64C87.8359 131.067 87.0892 131.28 86.2692 131.28ZM81.3092 131V117.28H83.6692V128.6L82.8492 131H81.3092ZM94.9744 119.52C94.5144 119.52 94.1544 119.4 93.8944 119.16C93.641 118.913 93.5144 118.573 93.5144 118.14C93.5144 117.72 93.641 117.387 93.8944 117.14C94.1544 116.887 94.5144 116.76 94.9744 116.76C95.4277 116.76 95.7844 116.887 96.0444 117.14C96.3044 117.387 96.4344 117.72 96.4344 118.14C96.4344 118.573 96.3044 118.913 96.0444 119.16C95.7844 119.4 95.4277 119.52 94.9744 119.52ZM93.7944 131V121.26H96.1544V131H93.7944ZM100.157 131V117.28H102.517V131H100.157ZM107.631 119.52C107.171 119.52 106.811 119.4 106.551 119.16C106.297 118.913 106.171 118.573 106.171 118.14C106.171 117.72 106.297 117.387 106.551 117.14C106.811 116.887 107.171 116.76 107.631 116.76C108.084 116.76 108.441 116.887 108.701 117.14C108.961 117.387 109.091 117.72 109.091 118.14C109.091 118.573 108.961 118.913 108.701 119.16C108.441 119.4 108.084 119.52 107.631 119.52ZM106.451 131V121.26H108.811V131H106.451ZM116.093 131.28C115.52 131.28 114.993 131.173 114.513 130.96C114.04 130.747 113.66 130.42 113.373 129.98C113.093 129.54 112.953 128.98 112.953 128.3V118.72H115.313V128.22C115.313 129.02 115.693 129.42 116.453 129.42C116.686 129.42 116.92 129.393 117.153 129.34C117.386 129.287 117.653 129.207 117.953 129.1L118.293 130.76C117.92 130.907 117.556 131.03 117.203 131.13C116.85 131.23 116.48 131.28 116.093 131.28ZM111.593 122.86V121.3H117.953V122.86H111.593ZM119.224 121.3H121.904L124.484 128.94H124.064L126.284 121.3H128.684L124.964 132.76C124.584 133.907 124.114 134.737 123.554 135.25C123 135.763 122.324 136.02 121.524 136.02C121.064 136.02 120.614 135.967 120.174 135.86C119.74 135.76 119.297 135.6 118.844 135.38V133.3C119.21 133.527 119.564 133.693 119.904 133.8C120.25 133.907 120.597 133.96 120.944 133.96C121.257 133.96 121.53 133.873 121.764 133.7C122.004 133.533 122.21 133.297 122.384 132.99C122.557 132.69 122.704 132.34 122.824 131.94L123.124 131L119.224 121.3Z" fill="white"/>
<path d="M249.731 251.06V249.02H260.131V251.06H255.581L256.111 250.52V262H253.751V250.52L254.281 251.06H249.731ZM263.476 250.52C263.016 250.52 262.656 250.4 262.396 250.16C262.143 249.913 262.016 249.573 262.016 249.14C262.016 248.72 262.143 248.387 262.396 248.14C262.656 247.887 263.016 247.76 263.476 247.76C263.93 247.76 264.286 247.887 264.546 248.14C264.806 248.387 264.936 248.72 264.936 249.14C264.936 249.573 264.806 249.913 264.546 250.16C264.286 250.4 263.93 250.52 263.476 250.52ZM262.296 262V252.26H264.656V262H262.296ZM281.839 262V256.32C281.839 255.6 281.665 255.057 281.319 254.69C280.972 254.323 280.519 254.14 279.959 254.14C279.252 254.14 278.695 254.427 278.289 255C277.882 255.573 277.679 256.44 277.679 257.6H276.699C276.699 256.58 276.792 255.717 276.979 255.01C277.172 254.297 277.442 253.723 277.789 253.29C278.142 252.85 278.555 252.53 279.029 252.33C279.502 252.123 280.025 252.02 280.599 252.02C281.392 252.02 282.055 252.2 282.589 252.56C283.129 252.913 283.535 253.413 283.809 254.06C284.082 254.707 284.219 255.46 284.219 256.32V262H281.839ZM268.659 262V252.3H270.719L270.979 253.96C271.299 253.313 271.722 252.83 272.249 252.51C272.775 252.183 273.379 252.02 274.059 252.02C274.859 252.02 275.525 252.2 276.059 252.56C276.599 252.913 277.002 253.413 277.269 254.06C277.542 254.707 277.679 255.46 277.679 256.32V262H275.319V256.32C275.319 255.6 275.145 255.057 274.799 254.69C274.452 254.323 273.999 254.14 273.439 254.14C272.965 254.14 272.545 254.27 272.179 254.53C271.819 254.79 271.535 255.183 271.329 255.71C271.122 256.23 271.019 256.88 271.019 257.66V262H268.659ZM291.263 262.28C290.437 262.28 289.68 262.067 288.993 261.64C288.307 261.213 287.757 260.617 287.343 259.85C286.93 259.077 286.723 258.173 286.723 257.14C286.723 256.073 286.927 255.157 287.333 254.39C287.747 253.623 288.297 253.037 288.983 252.63C289.67 252.223 290.43 252.02 291.263 252.02C292.037 252.02 292.703 252.177 293.263 252.49C293.83 252.797 294.283 253.217 294.623 253.75C294.97 254.277 295.203 254.873 295.323 255.54C295.443 256.207 295.45 256.893 295.343 257.6H288.603V256.32H293.673L293.213 256.62C293.233 256.307 293.217 255.99 293.163 255.67C293.117 255.35 293.023 255.057 292.883 254.79C292.743 254.523 292.543 254.31 292.283 254.15C292.03 253.983 291.703 253.9 291.303 253.9C290.823 253.9 290.417 254.02 290.083 254.26C289.75 254.5 289.497 254.827 289.323 255.24C289.15 255.653 289.063 256.12 289.063 256.64V257.58C289.063 258.127 289.143 258.61 289.303 259.03C289.47 259.45 289.713 259.78 290.033 260.02C290.36 260.26 290.77 260.38 291.263 260.38C291.723 260.38 292.11 260.273 292.423 260.06C292.737 259.847 292.937 259.527 293.023 259.1H295.403C295.303 259.727 295.067 260.28 294.693 260.76C294.327 261.233 293.85 261.607 293.263 261.88C292.677 262.147 292.01 262.28 291.263 262.28Z" fill="white"/>
<path d="M134.846 247.216C134.282 247.216 133.736 247.138 133.208 246.982C132.686 246.82 132.215 246.586 131.795 246.28C131.381 245.968 131.054 245.584 130.814 245.128C130.574 244.672 130.454 244.144 130.454 243.544H131.894C131.906 244.06 132.044 244.495 132.308 244.849C132.572 245.203 132.923 245.47 133.361 245.65C133.805 245.83 134.3 245.92 134.846 245.92C135.686 245.92 136.337 245.716 136.799 245.308C137.261 244.9 137.492 244.39 137.492 243.778C137.492 243.388 137.396 243.043 137.204 242.743C137.012 242.443 136.706 242.209 136.286 242.041C135.872 241.867 135.326 241.78 134.648 241.78H133.37V240.664H134.234C135.11 240.664 135.8 240.49 136.304 240.142C136.808 239.794 137.06 239.314 137.06 238.702C137.06 238.162 136.856 237.706 136.448 237.334C136.04 236.962 135.458 236.776 134.702 236.776C134.12 236.776 133.601 236.896 133.145 237.136C132.689 237.37 132.38 237.802 132.218 238.432H130.778C130.874 237.73 131.102 237.163 131.462 236.731C131.822 236.299 132.278 235.987 132.83 235.795C133.382 235.597 133.994 235.498 134.666 235.498C135.416 235.498 136.085 235.63 136.673 235.894C137.261 236.158 137.723 236.521 138.059 236.983C138.401 237.445 138.572 237.976 138.572 238.576C138.572 239.17 138.401 239.68 138.059 240.106C137.723 240.526 137.234 240.85 136.592 241.078C137.306 241.282 137.888 241.618 138.338 242.086C138.794 242.554 139.022 243.154 139.022 243.886C139.022 244.534 138.851 245.11 138.509 245.614C138.173 246.112 137.693 246.505 137.069 246.793C136.445 247.075 135.704 247.216 134.846 247.216ZM145.481 247.216C144.593 247.216 143.816 247 143.15 246.568C142.49 246.136 141.974 245.485 141.602 244.615C141.236 243.745 141.053 242.656 141.053 241.348C141.053 240.04 141.236 238.954 141.602 238.09C141.974 237.22 142.49 236.572 143.15 236.146C143.816 235.714 144.593 235.498 145.481 235.498C146.363 235.498 147.137 235.714 147.803 236.146C148.469 236.572 148.985 237.22 149.351 238.09C149.723 238.954 149.909 240.04 149.909 241.348C149.909 242.656 149.723 243.745 149.351 244.615C148.985 245.485 148.469 246.136 147.803 246.568C147.137 247 146.363 247.216 145.481 247.216ZM145.481 245.92C146.453 245.92 147.191 245.524 147.695 244.732C148.199 243.934 148.451 242.806 148.451 241.348C148.451 239.89 148.199 238.765 147.695 237.973C147.191 237.175 146.453 236.776 145.481 236.776C144.521 236.776 143.786 237.175 143.276 237.973C142.766 238.765 142.511 239.89 142.511 241.348C142.511 242.806 142.766 243.934 143.276 244.732C143.786 245.524 144.521 245.92 145.481 245.92ZM156.912 235.696H160.224C161.364 235.696 162.354 235.93 163.194 236.398C164.034 236.86 164.685 237.514 165.147 238.36C165.609 239.206 165.84 240.202 165.84 241.348C165.84 242.482 165.609 243.472 165.147 244.318C164.685 245.164 164.034 245.824 163.194 246.298C162.354 246.766 161.364 247 160.224 247H156.912V235.696ZM158.316 236.938V245.776H160.224C161.076 245.776 161.808 245.584 162.42 245.2C163.038 244.816 163.512 244.291 163.842 243.625C164.178 242.953 164.346 242.194 164.346 241.348C164.346 240.496 164.178 239.74 163.842 239.08C163.512 238.414 163.038 237.892 162.42 237.514C161.808 237.13 161.076 236.938 160.224 236.938H158.316ZM174.123 247L173.943 245.11V241.42C173.943 240.646 173.778 240.091 173.448 239.755C173.118 239.413 172.623 239.242 171.963 239.242C171.591 239.242 171.252 239.296 170.946 239.404C170.646 239.512 170.406 239.68 170.226 239.908C170.052 240.13 169.965 240.418 169.965 240.772H168.399C168.399 240.148 168.552 239.647 168.858 239.269C169.164 238.885 169.584 238.609 170.118 238.441C170.658 238.267 171.273 238.18 171.963 238.18C172.623 238.18 173.208 238.291 173.718 238.513C174.228 238.735 174.627 239.089 174.915 239.575C175.203 240.055 175.347 240.682 175.347 241.456V247H174.123ZM171.189 247.216C170.481 247.216 169.896 247.09 169.434 246.838C168.972 246.586 168.627 246.259 168.399 245.857C168.171 245.455 168.057 245.032 168.057 244.588C168.057 244.006 168.201 243.532 168.489 243.166C168.783 242.8 169.182 242.533 169.686 242.365C170.19 242.191 170.757 242.104 171.387 242.104C171.837 242.104 172.287 242.149 172.737 242.239C173.193 242.329 173.637 242.452 174.069 242.608V243.49C173.709 243.346 173.301 243.232 172.845 243.148C172.395 243.064 171.981 243.022 171.603 243.022C171.027 243.022 170.541 243.142 170.145 243.382C169.749 243.616 169.551 244.018 169.551 244.588C169.551 245.008 169.701 245.368 170.001 245.668C170.307 245.968 170.793 246.118 171.459 246.118C171.927 246.118 172.347 246.01 172.719 245.794C173.097 245.572 173.394 245.296 173.61 244.966C173.832 244.636 173.943 244.306 173.943 243.976H174.285C174.285 244.552 174.159 245.086 173.907 245.578C173.661 246.07 173.307 246.466 172.845 246.766C172.383 247.066 171.831 247.216 171.189 247.216ZM177.287 238.396H178.853L181.661 245.776H181.337L183.515 238.396H184.955L181.715 248.728C181.445 249.592 181.085 250.258 180.635 250.726C180.185 251.194 179.609 251.428 178.907 251.428C178.529 251.428 178.169 251.374 177.827 251.266C177.491 251.158 177.143 251.002 176.783 250.798V249.502C177.101 249.754 177.407 249.934 177.701 250.042C178.001 250.15 178.313 250.204 178.637 250.204C178.997 250.204 179.297 250.09 179.537 249.862C179.783 249.634 179.987 249.34 180.149 248.98C180.311 248.626 180.449 248.254 180.563 247.864L180.815 247L177.287 238.396ZM190.189 247.216C189.355 247.216 188.659 247.099 188.101 246.865C187.543 246.625 187.12 246.298 186.832 245.884C186.544 245.464 186.391 244.984 186.373 244.444H187.723C187.753 244.99 187.972 245.401 188.38 245.677C188.794 245.947 189.355 246.082 190.063 246.082C190.435 246.082 190.777 246.022 191.089 245.902C191.401 245.782 191.65 245.617 191.836 245.407C192.022 245.197 192.115 244.96 192.115 244.696C192.115 244.36 191.992 244.096 191.746 243.904C191.5 243.712 191.107 243.544 190.567 243.4L188.893 242.86C188.167 242.632 187.609 242.32 187.219 241.924C186.835 241.522 186.643 241.042 186.643 240.484C186.643 239.788 186.949 239.23 187.561 238.81C188.173 238.39 188.977 238.18 189.973 238.18C191.029 238.18 191.848 238.396 192.43 238.828C193.012 239.26 193.315 239.8 193.339 240.448H191.953C191.899 240.07 191.707 239.785 191.377 239.593C191.047 239.395 190.579 239.296 189.973 239.296C189.391 239.296 188.935 239.428 188.605 239.692C188.281 239.95 188.119 240.238 188.119 240.556C188.119 241.15 188.629 241.588 189.649 241.87L191.359 242.446C192.097 242.668 192.661 242.959 193.051 243.319C193.447 243.679 193.645 244.138 193.645 244.696C193.645 245.128 193.504 245.536 193.222 245.92C192.94 246.304 192.541 246.616 192.025 246.856C191.509 247.096 190.897 247.216 190.189 247.216Z" fill="white"/>
<path d="M123.526 225.216C122.638 225.216 121.852 225.075 121.168 224.793C120.49 224.511 119.956 224.124 119.566 223.632C119.182 223.14 118.99 222.582 118.99 221.958C118.99 221.388 119.137 220.899 119.431 220.491C119.731 220.083 120.139 219.771 120.655 219.555C121.177 219.333 121.768 219.222 122.428 219.222C122.602 219.222 122.77 219.231 122.932 219.249C123.094 219.267 123.268 219.3 123.454 219.348V219.762C122.854 219.762 122.329 219.861 121.879 220.059C121.429 220.251 121.078 220.506 120.826 220.824C120.574 221.142 120.448 221.484 120.448 221.85C120.448 222.294 120.583 222.672 120.853 222.984C121.123 223.29 121.489 223.524 121.951 223.686C122.419 223.842 122.944 223.92 123.526 223.92C124.498 223.92 125.254 223.764 125.794 223.452C126.334 223.14 126.604 222.732 126.604 222.228C126.604 221.82 126.46 221.484 126.172 221.22C125.89 220.956 125.5 220.734 125.002 220.554L121.888 219.366C121.51 219.222 121.126 219.024 120.736 218.772C120.352 218.52 120.028 218.205 119.764 217.827C119.5 217.449 119.368 217.002 119.368 216.486C119.368 215.904 119.533 215.388 119.863 214.938C120.193 214.488 120.667 214.137 121.285 213.885C121.909 213.627 122.656 213.498 123.526 213.498C124.324 213.498 125.032 213.636 125.65 213.912C126.274 214.182 126.763 214.554 127.117 215.028C127.471 215.496 127.648 216.03 127.648 216.63C127.648 217.098 127.528 217.533 127.288 217.935C127.054 218.331 126.706 218.652 126.244 218.898C125.788 219.138 125.224 219.258 124.552 219.258C124.39 219.258 124.234 219.249 124.084 219.231C123.94 219.207 123.778 219.168 123.598 219.114V218.664C124.084 218.664 124.522 218.583 124.912 218.421C125.302 218.253 125.611 218.022 125.839 217.728C126.073 217.434 126.19 217.092 126.19 216.702C126.19 216.33 126.076 216 125.848 215.712C125.626 215.418 125.314 215.19 124.912 215.028C124.516 214.86 124.054 214.776 123.526 214.776C123.016 214.776 122.557 214.857 122.149 215.019C121.747 215.175 121.429 215.388 121.195 215.658C120.961 215.922 120.844 216.216 120.844 216.54C120.844 216.942 120.979 217.266 121.249 217.512C121.525 217.752 121.906 217.962 122.392 218.142L125.506 219.33C126.334 219.642 126.97 220.011 127.414 220.437C127.858 220.863 128.08 221.442 128.08 222.174C128.08 222.768 127.9 223.296 127.54 223.758C127.18 224.214 126.661 224.571 125.983 224.829C125.305 225.087 124.486 225.216 123.526 225.216ZM134.133 225.216C133.419 225.216 132.768 225.087 132.18 224.829C131.592 224.571 131.121 224.193 130.767 223.695C130.413 223.191 130.233 222.576 130.227 221.85H131.631C131.631 222.534 131.871 223.05 132.351 223.398C132.837 223.746 133.431 223.92 134.133 223.92C134.943 223.92 135.579 223.674 136.041 223.182C136.509 222.684 136.743 222.072 136.743 221.346C136.743 219.894 135.807 219.168 133.935 219.168H130.911L131.397 213.696H137.661V214.974H132.531L132.819 214.488L132.441 218.43L132.261 218.268C132.549 218.202 132.876 218.157 133.242 218.133C133.608 218.103 133.935 218.088 134.223 218.088C135.447 218.088 136.416 218.361 137.13 218.907C137.844 219.453 138.201 220.266 138.201 221.346C138.201 222.078 138.036 222.738 137.706 223.326C137.376 223.908 136.905 224.37 136.293 224.712C135.687 225.048 134.967 225.216 134.133 225.216ZM141.215 225L148.829 213.696H150.287L142.673 225H141.215ZM148.901 225.18C148.505 225.18 148.133 225.084 147.785 224.892C147.437 224.694 147.155 224.403 146.939 224.019C146.723 223.635 146.615 223.158 146.615 222.588C146.615 222.024 146.723 221.553 146.939 221.175C147.155 220.791 147.437 220.503 147.785 220.311C148.133 220.113 148.505 220.014 148.901 220.014C149.315 220.014 149.699 220.113 150.053 220.311C150.407 220.503 150.689 220.791 150.899 221.175C151.115 221.553 151.223 222.024 151.223 222.588C151.223 223.158 151.115 223.635 150.899 224.019C150.689 224.403 150.407 224.694 150.053 224.892C149.699 225.084 149.315 225.18 148.901 225.18ZM148.901 224.208C149.255 224.208 149.54 224.079 149.756 223.821C149.978 223.563 150.089 223.152 150.089 222.588C150.089 222.036 149.978 221.628 149.756 221.364C149.54 221.1 149.255 220.968 148.901 220.968C148.553 220.968 148.271 221.1 148.055 221.364C147.839 221.628 147.731 222.036 147.731 222.588C147.731 223.152 147.839 223.563 148.055 223.821C148.271 224.079 148.553 224.208 148.901 224.208ZM142.601 218.646C142.205 218.646 141.833 218.55 141.485 218.358C141.137 218.16 140.855 217.872 140.639 217.494C140.423 217.11 140.315 216.636 140.315 216.072C140.315 215.508 140.423 215.037 140.639 214.659C140.855 214.275 141.137 213.987 141.485 213.795C141.833 213.597 142.205 213.498 142.601 213.498C143.009 213.498 143.39 213.597 143.744 213.795C144.098 213.987 144.383 214.275 144.599 214.659C144.815 215.037 144.923 215.508 144.923 216.072C144.923 216.636 144.815 217.11 144.599 217.494C144.383 217.872 144.098 218.16 143.744 218.358C143.39 218.55 143.009 218.646 142.601 218.646ZM142.601 217.692C142.943 217.692 143.222 217.563 143.438 217.305C143.66 217.041 143.771 216.63 143.771 216.072C143.771 215.514 143.66 215.103 143.438 214.839C143.222 214.569 142.943 214.434 142.601 214.434C142.253 214.434 141.971 214.569 141.755 214.839C141.539 215.103 141.431 215.514 141.431 216.072C141.431 216.63 141.539 217.041 141.755 217.305C141.971 217.563 142.253 217.692 142.601 217.692Z" fill="white"/>
<path d="M114.988 5.66H116.122V17H114.718V7.316C114.43 7.514 114.127 7.667 113.809 7.775C113.497 7.877 113.182 7.934 112.864 7.946V6.578C113.242 6.524 113.608 6.425 113.962 6.281C114.322 6.137 114.664 5.93 114.988 5.66ZM123.287 17.216C122.399 17.216 121.622 17 120.956 16.568C120.296 16.136 119.78 15.485 119.408 14.615C119.042 13.745 118.859 12.656 118.859 11.348C118.859 10.04 119.042 8.954 119.408 8.09C119.78 7.22 120.296 6.572 120.956 6.146C121.622 5.714 122.399 5.498 123.287 5.498C124.169 5.498 124.943 5.714 125.609 6.146C126.275 6.572 126.791 7.22 127.157 8.09C127.529 8.954 127.715 10.04 127.715 11.348C127.715 12.656 127.529 13.745 127.157 14.615C126.791 15.485 126.275 16.136 125.609 16.568C124.943 17 124.169 17.216 123.287 17.216ZM123.287 15.92C124.259 15.92 124.997 15.524 125.501 14.732C126.005 13.934 126.257 12.806 126.257 11.348C126.257 9.89 126.005 8.765 125.501 7.973C124.997 7.175 124.259 6.776 123.287 6.776C122.327 6.776 121.592 7.175 121.082 7.973C120.572 8.765 120.317 9.89 120.317 11.348C120.317 12.806 120.572 13.934 121.082 14.732C121.592 15.524 122.327 15.92 123.287 15.92ZM133.975 17.216C133.087 17.216 132.31 17 131.644 16.568C130.984 16.136 130.468 15.485 130.096 14.615C129.73 13.745 129.547 12.656 129.547 11.348C129.547 10.04 129.73 8.954 130.096 8.09C130.468 7.22 130.984 6.572 131.644 6.146C132.31 5.714 133.087 5.498 133.975 5.498C134.857 5.498 135.631 5.714 136.297 6.146C136.963 6.572 137.479 7.22 137.845 8.09C138.217 8.954 138.403 10.04 138.403 11.348C138.403 12.656 138.217 13.745 137.845 14.615C137.479 15.485 136.963 16.136 136.297 16.568C135.631 17 134.857 17.216 133.975 17.216ZM133.975 15.92C134.947 15.92 135.685 15.524 136.189 14.732C136.693 13.934 136.945 12.806 136.945 11.348C136.945 9.89 136.693 8.765 136.189 7.973C135.685 7.175 134.947 6.776 133.975 6.776C133.015 6.776 132.28 7.175 131.77 7.973C131.26 8.765 131.005 9.89 131.005 11.348C131.005 12.806 131.26 13.934 131.77 14.732C132.28 15.524 133.015 15.92 133.975 15.92ZM141.314 17L148.928 5.696H150.386L142.772 17H141.314ZM149 17.18C148.604 17.18 148.232 17.084 147.884 16.892C147.536 16.694 147.254 16.403 147.038 16.019C146.822 15.635 146.714 15.158 146.714 14.588C146.714 14.024 146.822 13.553 147.038 13.175C147.254 12.791 147.536 12.503 147.884 12.311C148.232 12.113 148.604 12.014 149 12.014C149.414 12.014 149.798 12.113 150.152 12.311C150.506 12.503 150.788 12.791 150.998 13.175C151.214 13.553 151.322 14.024 151.322 14.588C151.322 15.158 151.214 15.635 150.998 16.019C150.788 16.403 150.506 16.694 150.152 16.892C149.798 17.084 149.414 17.18 149 17.18ZM149 16.208C149.354 16.208 149.639 16.079 149.855 15.821C150.077 15.563 150.188 15.152 150.188 14.588C150.188 14.036 150.077 13.628 149.855 13.364C149.639 13.1 149.354 12.968 149 12.968C148.652 12.968 148.37 13.1 148.154 13.364C147.938 13.628 147.83 14.036 147.83 14.588C147.83 15.152 147.938 15.563 148.154 15.821C148.37 16.079 148.652 16.208 149 16.208ZM142.7 10.646C142.304 10.646 141.932 10.55 141.584 10.358C141.236 10.16 140.954 9.872 140.738 9.494C140.522 9.11 140.414 8.636 140.414 8.072C140.414 7.508 140.522 7.037 140.738 6.659C140.954 6.275 141.236 5.987 141.584 5.795C141.932 5.597 142.304 5.498 142.7 5.498C143.108 5.498 143.489 5.597 143.843 5.795C144.197 5.987 144.482 6.275 144.698 6.659C144.914 7.037 145.022 7.508 145.022 8.072C145.022 8.636 144.914 9.11 144.698 9.494C144.482 9.872 144.197 10.16 143.843 10.358C143.489 10.55 143.108 10.646 142.7 10.646ZM142.7 9.692C143.042 9.692 143.321 9.563 143.537 9.305C143.759 9.041 143.87 8.63 143.87 8.072C143.87 7.514 143.759 7.103 143.537 6.839C143.321 6.569 143.042 6.434 142.7 6.434C142.352 6.434 142.07 6.569 141.854 6.839C141.638 7.103 141.53 7.514 141.53 8.072C141.53 8.63 141.638 9.041 141.854 9.305C142.07 9.563 142.352 9.692 142.7 9.692Z" fill="white"/>
<rect width="36" height="22" transform="translate(181 13)" fill="#171922"/>
<path d="M188.112 30.216C187.368 30.216 186.705 30.063 186.123 29.757C185.547 29.451 185.091 29.031 184.755 28.497C184.425 27.957 184.26 27.342 184.26 26.652H185.718C185.736 27.342 185.952 27.894 186.366 28.308C186.786 28.716 187.356 28.92 188.076 28.92C188.784 28.92 189.357 28.716 189.795 28.308C190.239 27.9 190.563 27.324 190.767 26.58C190.977 25.83 191.082 24.948 191.082 23.934C191.082 23.7 191.076 23.484 191.064 23.286C191.052 23.082 191.028 22.854 190.992 22.602C190.914 23.25 190.728 23.79 190.434 24.222C190.14 24.648 189.762 24.969 189.3 25.185C188.844 25.395 188.328 25.5 187.752 25.5C187.08 25.5 186.474 25.35 185.934 25.05C185.4 24.744 184.974 24.327 184.656 23.799C184.344 23.265 184.188 22.656 184.188 21.972C184.188 21.27 184.347 20.658 184.665 20.136C184.989 19.614 185.439 19.212 186.015 18.93C186.591 18.642 187.26 18.498 188.022 18.498C188.67 18.498 189.267 18.63 189.813 18.894C190.365 19.158 190.842 19.539 191.244 20.037C191.646 20.529 191.958 21.12 192.18 21.81C192.408 22.5 192.522 23.274 192.522 24.132C192.522 25.374 192.363 26.451 192.045 27.363C191.733 28.275 191.25 28.98 190.596 29.478C189.948 29.97 189.12 30.216 188.112 30.216ZM188.022 24.258C188.466 24.258 188.868 24.159 189.228 23.961C189.588 23.763 189.873 23.496 190.083 23.16C190.293 22.824 190.398 22.446 190.398 22.026C190.398 21.33 190.167 20.781 189.705 20.379C189.249 19.977 188.688 19.776 188.022 19.776C187.338 19.776 186.771 19.977 186.321 20.379C185.871 20.781 185.646 21.33 185.646 22.026C185.646 22.716 185.871 23.262 186.321 23.664C186.771 24.06 187.338 24.258 188.022 24.258ZM194.503 30L199.921 20.028H193.873V18.696H201.577V19.992L196.375 30H194.503ZM203.894 30L211.508 18.696H212.966L205.352 30H203.894ZM211.58 30.18C211.184 30.18 210.812 30.084 210.464 29.892C210.116 29.694 209.834 29.403 209.618 29.019C209.402 28.635 209.294 28.158 209.294 27.588C209.294 27.024 209.402 26.553 209.618 26.175C209.834 25.791 210.116 25.503 210.464 25.311C210.812 25.113 211.184 25.014 211.58 25.014C211.994 25.014 212.378 25.113 212.732 25.311C213.086 25.503 213.368 25.791 213.578 26.175C213.794 26.553 213.902 27.024 213.902 27.588C213.902 28.158 213.794 28.635 213.578 29.019C213.368 29.403 213.086 29.694 212.732 29.892C212.378 30.084 211.994 30.18 211.58 30.18ZM211.58 29.208C211.934 29.208 212.219 29.079 212.435 28.821C212.657 28.563 212.768 28.152 212.768 27.588C212.768 27.036 212.657 26.628 212.435 26.364C212.219 26.1 211.934 25.968 211.58 25.968C211.232 25.968 210.95 26.1 210.734 26.364C210.518 26.628 210.41 27.036 210.41 27.588C210.41 28.152 210.518 28.563 210.734 28.821C210.95 29.079 211.232 29.208 211.58 29.208ZM205.28 23.646C204.884 23.646 204.512 23.55 204.164 23.358C203.816 23.16 203.534 22.872 203.318 22.494C203.102 22.11 202.994 21.636 202.994 21.072C202.994 20.508 203.102 20.037 203.318 19.659C203.534 19.275 203.816 18.987 204.164 18.795C204.512 18.597 204.884 18.498 205.28 18.498C205.688 18.498 206.069 18.597 206.423 18.795C206.777 18.987 207.062 19.275 207.278 19.659C207.494 20.037 207.602 20.508 207.602 21.072C207.602 21.636 207.494 22.11 207.278 22.494C207.062 22.872 206.777 23.16 206.423 23.358C206.069 23.55 205.688 23.646 205.28 23.646ZM205.28 22.692C205.622 22.692 205.901 22.563 206.117 22.305C206.339 22.041 206.45 21.63 206.45 21.072C206.45 20.514 206.339 20.103 206.117 19.839C205.901 19.569 205.622 19.434 205.28 19.434C204.932 19.434 204.65 19.569 204.434 19.839C204.218 20.103 204.11 20.514 204.11 21.072C204.11 21.63 204.218 22.041 204.434 22.305C204.65 22.563 204.932 22.692 205.28 22.692Z" fill="white"/>
<path d="M353.846 247.216C353.282 247.216 352.736 247.138 352.208 246.982C351.686 246.82 351.215 246.586 350.795 246.28C350.381 245.968 350.054 245.584 349.814 245.128C349.574 244.672 349.454 244.144 349.454 243.544H350.894C350.906 244.06 351.044 244.495 351.308 244.849C351.572 245.203 351.923 245.47 352.361 245.65C352.805 245.83 353.3 245.92 353.846 245.92C354.686 245.92 355.337 245.716 355.799 245.308C356.261 244.9 356.492 244.39 356.492 243.778C356.492 243.388 356.396 243.043 356.204 242.743C356.012 242.443 355.706 242.209 355.286 242.041C354.872 241.867 354.326 241.78 353.648 241.78H352.37V240.664H353.234C354.11 240.664 354.8 240.49 355.304 240.142C355.808 239.794 356.06 239.314 356.06 238.702C356.06 238.162 355.856 237.706 355.448 237.334C355.04 236.962 354.458 236.776 353.702 236.776C353.12 236.776 352.601 236.896 352.145 237.136C351.689 237.37 351.38 237.802 351.218 238.432H349.778C349.874 237.73 350.102 237.163 350.462 236.731C350.822 236.299 351.278 235.987 351.83 235.795C352.382 235.597 352.994 235.498 353.666 235.498C354.416 235.498 355.085 235.63 355.673 235.894C356.261 236.158 356.723 236.521 357.059 236.983C357.401 237.445 357.572 237.976 357.572 238.576C357.572 239.17 357.401 239.68 357.059 240.106C356.723 240.526 356.234 240.85 355.592 241.078C356.306 241.282 356.888 241.618 357.338 242.086C357.794 242.554 358.022 243.154 358.022 243.886C358.022 244.534 357.851 245.11 357.509 245.614C357.173 246.112 356.693 246.505 356.069 246.793C355.445 247.075 354.704 247.216 353.846 247.216ZM364.553 247.216C363.647 247.216 362.855 246.967 362.177 246.469C361.505 245.971 360.983 245.296 360.611 244.444C360.239 243.586 360.053 242.62 360.053 241.546C360.053 240.28 360.242 239.197 360.62 238.297C360.998 237.391 361.538 236.698 362.24 236.218C362.942 235.738 363.779 235.498 364.751 235.498C365.423 235.498 366.014 235.627 366.524 235.885C367.04 236.137 367.451 236.491 367.757 236.947C368.069 237.403 368.255 237.934 368.315 238.54H366.785C366.695 238 366.491 237.571 366.173 237.253C365.855 236.935 365.393 236.776 364.787 236.776C363.755 236.776 362.945 237.223 362.357 238.117C361.769 239.005 361.475 240.22 361.475 241.762C361.475 241.984 361.481 242.242 361.493 242.536C361.505 242.824 361.529 243.094 361.565 243.346C361.619 242.548 361.802 241.921 362.114 241.465C362.432 241.003 362.828 240.676 363.302 240.484C363.776 240.292 364.277 240.196 364.805 240.196C365.489 240.196 366.101 240.346 366.641 240.646C367.187 240.946 367.616 241.363 367.928 241.897C368.246 242.425 368.405 243.034 368.405 243.724C368.405 244.42 368.243 245.032 367.919 245.56C367.595 246.082 367.142 246.49 366.56 246.784C365.984 247.072 365.315 247.216 364.553 247.216ZM364.553 245.92C365.237 245.92 365.804 245.719 366.254 245.317C366.704 244.915 366.929 244.372 366.929 243.688C366.929 242.986 366.704 242.437 366.254 242.041C365.804 241.639 365.237 241.438 364.553 241.438C364.103 241.438 363.701 241.537 363.347 241.735C362.993 241.927 362.711 242.194 362.501 242.536C362.297 242.872 362.195 243.256 362.195 243.688C362.195 244.372 362.42 244.915 362.87 245.317C363.32 245.719 363.881 245.92 364.553 245.92ZM374.512 247.216C373.798 247.216 373.147 247.087 372.559 246.829C371.971 246.571 371.5 246.193 371.146 245.695C370.792 245.191 370.612 244.576 370.606 243.85H372.01C372.01 244.534 372.25 245.05 372.73 245.398C373.216 245.746 373.81 245.92 374.512 245.92C375.322 245.92 375.958 245.674 376.42 245.182C376.888 244.684 377.122 244.072 377.122 243.346C377.122 241.894 376.186 241.168 374.314 241.168H371.29L371.776 235.696H378.04V236.974H372.91L373.198 236.488L372.82 240.43L372.64 240.268C372.928 240.202 373.255 240.157 373.621 240.133C373.987 240.103 374.314 240.088 374.602 240.088C375.826 240.088 376.795 240.361 377.509 240.907C378.223 241.453 378.58 242.266 378.58 243.346C378.58 244.078 378.415 244.738 378.085 245.326C377.755 245.908 377.284 246.37 376.672 246.712C376.066 247.048 375.346 247.216 374.512 247.216ZM385.685 235.696H388.997C390.137 235.696 391.127 235.93 391.967 236.398C392.807 236.86 393.458 237.514 393.92 238.36C394.382 239.206 394.613 240.202 394.613 241.348C394.613 242.482 394.382 243.472 393.92 244.318C393.458 245.164 392.807 245.824 391.967 246.298C391.127 246.766 390.137 247 388.997 247H385.685V235.696ZM387.089 236.938V245.776H388.997C389.849 245.776 390.581 245.584 391.193 245.2C391.811 244.816 392.285 244.291 392.615 243.625C392.951 242.953 393.119 242.194 393.119 241.348C393.119 240.496 392.951 239.74 392.615 239.08C392.285 238.414 391.811 237.892 391.193 237.514C390.581 237.13 389.849 236.938 388.997 236.938H387.089ZM402.896 247L402.716 245.11V241.42C402.716 240.646 402.551 240.091 402.221 239.755C401.891 239.413 401.396 239.242 400.736 239.242C400.364 239.242 400.025 239.296 399.719 239.404C399.419 239.512 399.179 239.68 398.999 239.908C398.825 240.13 398.738 240.418 398.738 240.772H397.172C397.172 240.148 397.325 239.647 397.631 239.269C397.937 238.885 398.357 238.609 398.891 238.441C399.431 238.267 400.046 238.18 400.736 238.18C401.396 238.18 401.981 238.291 402.491 238.513C403.001 238.735 403.4 239.089 403.688 239.575C403.976 240.055 404.12 240.682 404.12 241.456V247H402.896ZM399.962 247.216C399.254 247.216 398.669 247.09 398.207 246.838C397.745 246.586 397.4 246.259 397.172 245.857C396.944 245.455 396.83 245.032 396.83 244.588C396.83 244.006 396.974 243.532 397.262 243.166C397.556 242.8 397.955 242.533 398.459 242.365C398.963 242.191 399.53 242.104 400.16 242.104C400.61 242.104 401.06 242.149 401.51 242.239C401.966 242.329 402.41 242.452 402.842 242.608V243.49C402.482 243.346 402.074 243.232 401.618 243.148C401.168 243.064 400.754 243.022 400.376 243.022C399.8 243.022 399.314 243.142 398.918 243.382C398.522 243.616 398.324 244.018 398.324 244.588C398.324 245.008 398.474 245.368 398.774 245.668C399.08 245.968 399.566 246.118 400.232 246.118C400.7 246.118 401.12 246.01 401.492 245.794C401.87 245.572 402.167 245.296 402.383 244.966C402.605 244.636 402.716 244.306 402.716 243.976H403.058C403.058 244.552 402.932 245.086 402.68 245.578C402.434 246.07 402.08 246.466 401.618 246.766C401.156 247.066 400.604 247.216 399.962 247.216ZM406.06 238.396H407.626L410.434 245.776H410.11L412.288 238.396H413.728L410.488 248.728C410.218 249.592 409.858 250.258 409.408 250.726C408.958 251.194 408.382 251.428 407.68 251.428C407.302 251.428 406.942 251.374 406.6 251.266C406.264 251.158 405.916 251.002 405.556 250.798V249.502C405.874 249.754 406.18 249.934 406.474 250.042C406.774 250.15 407.086 250.204 407.41 250.204C407.77 250.204 408.07 250.09 408.31 249.862C408.556 249.634 408.76 249.34 408.922 248.98C409.084 248.626 409.222 248.254 409.336 247.864L409.588 247L406.06 238.396ZM418.963 247.216C418.129 247.216 417.433 247.099 416.875 246.865C416.317 246.625 415.894 246.298 415.606 245.884C415.318 245.464 415.165 244.984 415.147 244.444H416.497C416.527 244.99 416.746 245.401 417.154 245.677C417.568 245.947 418.129 246.082 418.837 246.082C419.209 246.082 419.551 246.022 419.863 245.902C420.175 245.782 420.424 245.617 420.61 245.407C420.796 245.197 420.889 244.96 420.889 244.696C420.889 244.36 420.766 244.096 420.52 243.904C420.274 243.712 419.881 243.544 419.341 243.4L417.667 242.86C416.941 242.632 416.383 242.32 415.993 241.924C415.609 241.522 415.417 241.042 415.417 240.484C415.417 239.788 415.723 239.23 416.335 238.81C416.947 238.39 417.751 238.18 418.747 238.18C419.803 238.18 420.622 238.396 421.204 238.828C421.786 239.26 422.089 239.8 422.113 240.448H420.727C420.673 240.07 420.481 239.785 420.151 239.593C419.821 239.395 419.353 239.296 418.747 239.296C418.165 239.296 417.709 239.428 417.379 239.692C417.055 239.95 416.893 240.238 416.893 240.556C416.893 241.15 417.403 241.588 418.423 241.87L420.133 242.446C420.871 242.668 421.435 242.959 421.825 243.319C422.221 243.679 422.419 244.138 422.419 244.696C422.419 245.128 422.278 245.536 421.996 245.92C421.714 246.304 421.315 246.616 420.799 246.856C420.283 247.096 419.671 247.216 418.963 247.216Z" fill="white"/>
<path d="M234.084 139.146V138.208H240.93V139.146H237.801L238.046 138.894V147H236.954V138.894L237.199 139.146H234.084ZM247.188 147V143.066C247.188 142.427 247.034 141.941 246.726 141.61C246.422 141.274 246.007 141.106 245.48 141.106C245.078 141.106 244.731 141.216 244.437 141.435C244.143 141.654 243.916 141.969 243.758 142.38C243.599 142.786 243.52 143.271 243.52 143.836H243.1C243.1 143.057 243.202 142.392 243.408 141.841C243.613 141.29 243.912 140.87 244.304 140.581C244.7 140.287 245.181 140.14 245.746 140.14C246.273 140.14 246.723 140.259 247.097 140.497C247.475 140.73 247.764 141.066 247.965 141.505C248.165 141.944 248.266 142.464 248.266 143.066V147H247.188ZM242.428 147V137.452H243.52V147H242.428ZM253.201 147.168C252.622 147.168 252.104 147.021 251.647 146.727C251.194 146.428 250.835 146.015 250.569 145.488C250.308 144.961 250.177 144.354 250.177 143.668C250.177 142.935 250.308 142.305 250.569 141.778C250.83 141.251 251.187 140.847 251.64 140.567C252.097 140.282 252.618 140.14 253.201 140.14C253.71 140.14 254.144 140.243 254.503 140.448C254.862 140.653 255.152 140.931 255.371 141.281C255.59 141.631 255.742 142.028 255.826 142.471C255.915 142.91 255.94 143.365 255.903 143.836H251.059V143.164H255.182L254.86 143.374C254.874 143.099 254.858 142.823 254.811 142.548C254.769 142.273 254.687 142.021 254.566 141.792C254.445 141.559 254.274 141.372 254.055 141.232C253.836 141.092 253.556 141.022 253.215 141.022C252.786 141.022 252.426 141.132 252.137 141.351C251.848 141.57 251.631 141.86 251.486 142.219C251.341 142.574 251.269 142.959 251.269 143.374V143.822C251.269 144.289 251.339 144.706 251.479 145.075C251.624 145.444 251.838 145.735 252.123 145.95C252.408 146.165 252.767 146.272 253.201 146.272C253.635 146.272 253.992 146.167 254.272 145.957C254.552 145.747 254.722 145.437 254.783 145.026H255.917C255.847 145.469 255.688 145.852 255.441 146.174C255.194 146.491 254.879 146.736 254.496 146.909C254.113 147.082 253.682 147.168 253.201 147.168ZM261.391 147V137.452H262.483V147H261.391ZM265.93 138.726C265.706 138.726 265.529 138.663 265.398 138.537C265.268 138.406 265.202 138.236 265.202 138.026C265.202 137.821 265.268 137.657 265.398 137.536C265.529 137.415 265.706 137.354 265.93 137.354C266.154 137.354 266.332 137.415 266.462 137.536C266.593 137.657 266.658 137.821 266.658 138.026C266.658 138.236 266.593 138.406 266.462 138.537C266.332 138.663 266.154 138.726 265.93 138.726ZM265.384 147V140.294H266.476V147H265.384ZM269.484 147V137.452H270.576V147H269.484ZM270.408 143.164L273.824 140.308H275.35L270.408 144.326V143.164ZM274.16 147L270.982 142.772L272.088 142.576L275.504 147H274.16ZM279.697 147.168C279.118 147.168 278.6 147.021 278.143 146.727C277.69 146.428 277.331 146.015 277.065 145.488C276.804 144.961 276.673 144.354 276.673 143.668C276.673 142.935 276.804 142.305 277.065 141.778C277.326 141.251 277.683 140.847 278.136 140.567C278.593 140.282 279.114 140.14 279.697 140.14C280.206 140.14 280.64 140.243 280.999 140.448C281.358 140.653 281.648 140.931 281.867 141.281C282.086 141.631 282.238 142.028 282.322 142.471C282.411 142.91 282.436 143.365 282.399 143.836H277.555V143.164H281.678L281.356 143.374C281.37 143.099 281.354 142.823 281.307 142.548C281.265 142.273 281.183 142.021 281.062 141.792C280.941 141.559 280.77 141.372 280.551 141.232C280.332 141.092 280.052 141.022 279.711 141.022C279.282 141.022 278.922 141.132 278.633 141.351C278.344 141.57 278.127 141.86 277.982 142.219C277.837 142.574 277.765 142.959 277.765 143.374V143.822C277.765 144.289 277.835 144.706 277.975 145.075C278.12 145.444 278.334 145.735 278.619 145.95C278.904 146.165 279.263 146.272 279.697 146.272C280.131 146.272 280.488 146.167 280.768 145.957C281.048 145.747 281.218 145.437 281.279 145.026H282.413C282.343 145.469 282.184 145.852 281.937 146.174C281.69 146.491 281.375 146.736 280.992 146.909C280.609 147.082 280.178 147.168 279.697 147.168ZM284.564 147V137.452H285.656V147H284.564ZM289.104 138.726C288.88 138.726 288.703 138.663 288.572 138.537C288.442 138.406 288.376 138.236 288.376 138.026C288.376 137.821 288.442 137.657 288.572 137.536C288.703 137.415 288.88 137.354 289.104 137.354C289.328 137.354 289.506 137.415 289.636 137.536C289.767 137.657 289.832 137.821 289.832 138.026C289.832 138.236 289.767 138.406 289.636 138.537C289.506 138.663 289.328 138.726 289.104 138.726ZM288.558 147V140.294H289.65V147H288.558ZM297.418 147V143.066C297.418 142.427 297.264 141.941 296.956 141.61C296.653 141.274 296.237 141.106 295.71 141.106C295.309 141.106 294.961 141.216 294.667 141.435C294.373 141.654 294.147 141.969 293.988 142.38C293.829 142.786 293.75 143.271 293.75 143.836H293.33C293.33 143.057 293.433 142.392 293.638 141.841C293.843 141.29 294.142 140.87 294.534 140.581C294.931 140.287 295.411 140.14 295.976 140.14C296.503 140.14 296.954 140.259 297.327 140.497C297.705 140.73 297.994 141.066 298.195 141.505C298.396 141.944 298.496 142.464 298.496 143.066V147H297.418ZM292.658 147V137.452H293.75V147H292.658ZM303.529 147.168C302.927 147.168 302.391 147.035 301.919 146.769C301.453 146.503 301.084 146.109 300.813 145.586C300.543 145.063 300.407 144.419 300.407 143.654C300.407 142.884 300.543 142.24 300.813 141.722C301.084 141.199 301.453 140.805 301.919 140.539C302.391 140.273 302.927 140.14 303.529 140.14C304.127 140.14 304.659 140.273 305.125 140.539C305.597 140.805 305.965 141.199 306.231 141.722C306.502 142.24 306.637 142.884 306.637 143.654C306.637 144.419 306.502 145.063 306.231 145.586C305.965 146.109 305.597 146.503 305.125 146.769C304.659 147.035 304.127 147.168 303.529 147.168ZM303.501 146.216C303.935 146.216 304.304 146.113 304.607 145.908C304.911 145.698 305.139 145.402 305.293 145.019C305.452 144.636 305.531 144.181 305.531 143.654C305.531 142.856 305.366 142.228 305.034 141.771C304.703 141.309 304.211 141.078 303.557 141.078C303.119 141.078 302.748 141.183 302.444 141.393C302.146 141.598 301.917 141.895 301.758 142.282C301.604 142.665 301.527 143.122 301.527 143.654C301.527 144.443 301.693 145.068 302.024 145.53C302.36 145.987 302.853 146.216 303.501 146.216ZM311.186 147.168C310.584 147.168 310.047 147.035 309.576 146.769C309.109 146.503 308.74 146.109 308.47 145.586C308.199 145.063 308.064 144.419 308.064 143.654C308.064 142.884 308.199 142.24 308.47 141.722C308.74 141.199 309.109 140.805 309.576 140.539C310.047 140.273 310.584 140.14 311.186 140.14C311.783 140.14 312.315 140.273 312.782 140.539C313.253 140.805 313.622 141.199 313.888 141.722C314.158 142.24 314.294 142.884 314.294 143.654C314.294 144.419 314.158 145.063 313.888 145.586C313.622 146.109 313.253 146.503 312.782 146.769C312.315 147.035 311.783 147.168 311.186 147.168ZM311.158 146.216C311.592 146.216 311.96 146.113 312.264 145.908C312.567 145.698 312.796 145.402 312.95 145.019C313.108 144.636 313.188 144.181 313.188 143.654C313.188 142.856 313.022 142.228 312.691 141.771C312.359 141.309 311.867 141.078 311.214 141.078C310.775 141.078 310.404 141.183 310.101 141.393C309.802 141.598 309.573 141.895 309.415 142.282C309.261 142.665 309.184 143.122 309.184 143.654C309.184 144.443 309.349 145.068 309.681 145.53C310.017 145.987 310.509 146.216 311.158 146.216ZM318.814 147.168C318.273 147.168 317.776 147.023 317.323 146.734C316.87 146.44 316.509 146.029 316.238 145.502C315.967 144.97 315.832 144.345 315.832 143.626C315.832 142.912 315.965 142.294 316.231 141.771C316.497 141.248 316.849 140.847 317.288 140.567C317.731 140.282 318.217 140.14 318.744 140.14C319.234 140.14 319.663 140.259 320.032 140.497C320.405 140.735 320.695 141.078 320.9 141.526C321.105 141.974 321.208 142.515 321.208 143.15H320.788C320.788 142.707 320.699 142.333 320.522 142.03C320.349 141.727 320.123 141.498 319.843 141.344C319.563 141.185 319.262 141.106 318.94 141.106C318.576 141.106 318.242 141.209 317.939 141.414C317.64 141.615 317.4 141.904 317.218 142.282C317.041 142.655 316.952 143.103 316.952 143.626C316.952 144.158 317.041 144.615 317.218 144.998C317.4 145.381 317.64 145.675 317.939 145.88C318.242 146.085 318.576 146.188 318.94 146.188C319.243 146.188 319.535 146.109 319.815 145.95C320.1 145.791 320.333 145.56 320.515 145.257C320.697 144.949 320.788 144.578 320.788 144.144H321.208C321.208 144.793 321.101 145.343 320.886 145.796C320.676 146.244 320.389 146.585 320.025 146.818C319.666 147.051 319.262 147.168 318.814 147.168ZM320.97 147L320.788 145.432V137.452H321.88V147H320.97ZM330.463 147.168C329.861 147.168 329.324 147.035 328.853 146.769C328.386 146.503 328.018 146.109 327.747 145.586C327.476 145.063 327.341 144.419 327.341 143.654C327.341 142.884 327.476 142.24 327.747 141.722C328.018 141.199 328.386 140.805 328.853 140.539C329.324 140.273 329.861 140.14 330.463 140.14C331.06 140.14 331.592 140.273 332.059 140.539C332.53 140.805 332.899 141.199 333.165 141.722C333.436 142.24 333.571 142.884 333.571 143.654C333.571 144.419 333.436 145.063 333.165 145.586C332.899 146.109 332.53 146.503 332.059 146.769C331.592 147.035 331.06 147.168 330.463 147.168ZM330.435 146.216C330.869 146.216 331.238 146.113 331.541 145.908C331.844 145.698 332.073 145.402 332.227 145.019C332.386 144.636 332.465 144.181 332.465 143.654C332.465 142.856 332.299 142.228 331.968 141.771C331.637 141.309 331.144 141.078 330.491 141.078C330.052 141.078 329.681 141.183 329.378 141.393C329.079 141.598 328.851 141.895 328.692 142.282C328.538 142.665 328.461 143.122 328.461 143.654C328.461 144.443 328.627 145.068 328.958 145.53C329.294 145.987 329.786 146.216 330.435 146.216ZM336.061 147V139.272C336.061 138.829 336.145 138.467 336.313 138.187C336.486 137.902 336.715 137.692 336.999 137.557C337.289 137.422 337.611 137.354 337.965 137.354C338.157 137.354 338.35 137.368 338.546 137.396C338.747 137.424 338.945 137.466 339.141 137.522L338.931 138.39C338.791 138.334 338.651 138.292 338.511 138.264C338.376 138.236 338.245 138.222 338.119 138.222C337.97 138.222 337.821 138.25 337.671 138.306C337.522 138.362 337.398 138.467 337.3 138.621C337.202 138.775 337.153 138.997 337.153 139.286V147H336.061ZM334.969 141.064V140.308H338.539V141.064H334.969ZM235.414 160.208H237.99C238.877 160.208 239.647 160.39 240.3 160.754C240.953 161.113 241.46 161.622 241.819 162.28C242.178 162.938 242.358 163.713 242.358 164.604C242.358 165.486 242.178 166.256 241.819 166.914C241.46 167.572 240.953 168.085 240.3 168.454C239.647 168.818 238.877 169 237.99 169H235.414V160.208ZM236.506 161.174V168.048H237.99C238.653 168.048 239.222 167.899 239.698 167.6C240.179 167.301 240.547 166.893 240.804 166.375C241.065 165.852 241.196 165.262 241.196 164.604C241.196 163.941 241.065 163.353 240.804 162.84C240.547 162.322 240.179 161.916 239.698 161.622C239.222 161.323 238.653 161.174 237.99 161.174H236.506ZM247.708 169.168C246.934 169.168 246.266 168.974 245.706 168.587C245.146 168.195 244.715 167.654 244.411 166.963C244.108 166.268 243.956 165.463 243.956 164.548C243.956 163.573 244.12 162.751 244.446 162.084C244.778 161.417 245.226 160.913 245.79 160.572C246.36 160.227 246.999 160.054 247.708 160.054C248.646 160.054 249.4 160.29 249.969 160.761C250.543 161.228 250.938 161.837 251.152 162.588L249.976 162.826C249.794 162.28 249.503 161.846 249.101 161.524C248.705 161.197 248.24 161.034 247.708 161.034C247.246 161.034 246.819 161.167 246.427 161.433C246.04 161.694 245.727 162.086 245.489 162.609C245.251 163.132 245.132 163.778 245.132 164.548C245.132 165.248 245.226 165.871 245.412 166.417C245.604 166.963 245.888 167.392 246.266 167.705C246.649 168.018 247.13 168.174 247.708 168.174C248.404 168.174 248.954 167.987 249.36 167.614C249.771 167.241 249.976 166.751 249.976 166.144H251.166C251.166 166.774 251.022 167.315 250.732 167.768C250.443 168.216 250.037 168.561 249.514 168.804C248.996 169.047 248.394 169.168 247.708 169.168ZM252.192 169L255.216 160.208H256.546L259.5 169H258.352L257.61 166.746H254.11L253.34 169H252.192ZM254.39 165.892H257.33L255.86 161.538L254.39 165.892ZM263.017 162.126H264.095V165.094H266.993V166.032H264.095V169H263.017V166.032H260.119V165.094H263.017V162.126ZM274.408 169.168C273.806 169.168 273.27 169.035 272.798 168.769C272.332 168.503 271.963 168.109 271.692 167.586C271.422 167.063 271.286 166.419 271.286 165.654C271.286 164.884 271.422 164.24 271.692 163.722C271.963 163.199 272.332 162.805 272.798 162.539C273.27 162.273 273.806 162.14 274.408 162.14C275.006 162.14 275.538 162.273 276.004 162.539C276.476 162.805 276.844 163.199 277.11 163.722C277.381 164.24 277.516 164.884 277.516 165.654C277.516 166.419 277.381 167.063 277.11 167.586C276.844 168.109 276.476 168.503 276.004 168.769C275.538 169.035 275.006 169.168 274.408 169.168ZM274.38 168.216C274.814 168.216 275.183 168.113 275.486 167.908C275.79 167.698 276.018 167.402 276.172 167.019C276.331 166.636 276.41 166.181 276.41 165.654C276.41 164.856 276.245 164.228 275.913 163.771C275.582 163.309 275.09 163.078 274.436 163.078C273.998 163.078 273.627 163.183 273.323 163.393C273.025 163.598 272.796 163.895 272.637 164.282C272.483 164.665 272.406 165.122 272.406 165.654C272.406 166.443 272.572 167.068 272.903 167.53C273.239 167.987 273.732 168.216 274.38 168.216ZM284.193 162.294H285.285V169H284.193V162.294ZM279.447 162.294H280.539V166.466C280.539 167.026 280.674 167.451 280.945 167.74C281.22 168.029 281.612 168.174 282.121 168.174C282.541 168.174 282.905 168.062 283.213 167.838C283.525 167.614 283.766 167.306 283.934 166.914C284.106 166.517 284.193 166.065 284.193 165.556H284.599C284.599 166.307 284.489 166.949 284.27 167.481C284.055 168.013 283.749 168.421 283.353 168.706C282.961 168.986 282.499 169.126 281.967 169.126C281.463 169.126 281.022 169.033 280.644 168.846C280.266 168.659 279.972 168.377 279.762 167.999C279.552 167.616 279.447 167.133 279.447 166.55V162.294ZM290.177 169.168C289.813 169.168 289.486 169.098 289.197 168.958C288.908 168.818 288.679 168.608 288.511 168.328C288.343 168.048 288.259 167.698 288.259 167.278V160.446H289.337V167.25C289.337 167.941 289.659 168.286 290.303 168.286C290.494 168.286 290.679 168.265 290.856 168.223C291.038 168.181 291.241 168.118 291.465 168.034L291.619 168.818C291.381 168.921 291.143 169.005 290.905 169.07C290.672 169.135 290.429 169.168 290.177 169.168ZM287.181 163.064V162.308H291.451V163.064H287.181ZM296.421 169.168C295.931 169.168 295.504 169.056 295.14 168.832C294.78 168.608 294.503 168.281 294.307 167.852C294.111 167.418 294.013 166.891 294.013 166.27H294.475C294.475 166.685 294.561 167.035 294.734 167.32C294.906 167.605 295.13 167.822 295.406 167.971C295.686 168.116 295.982 168.188 296.295 168.188C296.631 168.188 296.953 168.092 297.261 167.901C297.569 167.705 297.821 167.418 298.017 167.04C298.213 166.662 298.311 166.195 298.311 165.64C298.311 165.108 298.22 164.653 298.038 164.275C297.86 163.897 297.62 163.608 297.317 163.407C297.013 163.206 296.677 163.106 296.309 163.106C295.991 163.106 295.693 163.183 295.413 163.337C295.133 163.491 294.906 163.717 294.734 164.016C294.561 164.31 294.475 164.674 294.475 165.108H294.013C294.013 164.459 294.12 163.916 294.335 163.477C294.549 163.034 294.841 162.7 295.21 162.476C295.578 162.252 295.991 162.14 296.449 162.14C296.971 162.14 297.459 162.28 297.912 162.56C298.364 162.84 298.731 163.241 299.011 163.764C299.291 164.287 299.431 164.912 299.431 165.64C299.431 166.377 299.288 167.01 299.004 167.537C298.724 168.064 298.355 168.468 297.898 168.748C297.44 169.028 296.948 169.168 296.421 169.168ZM293.383 172.29V162.308H294.293L294.475 163.876V172.29H293.383ZM303.896 169.168C303.318 169.168 302.8 169.021 302.342 168.727C301.89 168.428 301.53 168.015 301.264 167.488C301.003 166.961 300.872 166.354 300.872 165.668C300.872 164.935 301.003 164.305 301.264 163.778C301.526 163.251 301.883 162.847 302.335 162.567C302.793 162.282 303.313 162.14 303.896 162.14C304.405 162.14 304.839 162.243 305.198 162.448C305.558 162.653 305.847 162.931 306.066 163.281C306.286 163.631 306.437 164.028 306.521 164.471C306.61 164.91 306.636 165.365 306.598 165.836H301.754V165.164H305.877L305.555 165.374C305.569 165.099 305.553 164.823 305.506 164.548C305.464 164.273 305.383 164.021 305.261 163.792C305.14 163.559 304.97 163.372 304.75 163.232C304.531 163.092 304.251 163.022 303.91 163.022C303.481 163.022 303.122 163.132 302.832 163.351C302.543 163.57 302.326 163.86 302.181 164.219C302.037 164.574 301.964 164.959 301.964 165.374V165.822C301.964 166.289 302.034 166.706 302.174 167.075C302.319 167.444 302.534 167.735 302.818 167.95C303.103 168.165 303.462 168.272 303.896 168.272C304.33 168.272 304.687 168.167 304.967 167.957C305.247 167.747 305.418 167.437 305.478 167.026H306.612C306.542 167.469 306.384 167.852 306.136 168.174C305.889 168.491 305.574 168.736 305.191 168.909C304.809 169.082 304.377 169.168 303.896 169.168ZM308.764 169V162.294H309.856V169H308.764ZM309.52 165.976C309.52 165.127 309.601 164.422 309.765 163.862C309.928 163.297 310.166 162.877 310.479 162.602C310.796 162.322 311.181 162.182 311.634 162.182C311.783 162.182 311.918 162.194 312.04 162.217C312.166 162.236 312.292 162.266 312.418 162.308L312.348 163.386C312.217 163.344 312.075 163.309 311.921 163.281C311.767 163.248 311.629 163.232 311.508 163.232C311.111 163.232 310.791 163.346 310.549 163.575C310.306 163.799 310.129 164.116 310.017 164.527C309.909 164.938 309.856 165.421 309.856 165.976H309.52ZM314.186 169V161.272C314.186 160.829 314.27 160.467 314.438 160.187C314.611 159.902 314.84 159.692 315.124 159.557C315.414 159.422 315.736 159.354 316.09 159.354C316.282 159.354 316.475 159.368 316.671 159.396C316.872 159.424 317.07 159.466 317.266 159.522L317.056 160.39C316.916 160.334 316.776 160.292 316.636 160.264C316.501 160.236 316.37 160.222 316.244 160.222C316.095 160.222 315.946 160.25 315.796 160.306C315.647 160.362 315.523 160.467 315.425 160.621C315.327 160.775 315.278 160.997 315.278 161.286V169H314.186ZM313.094 163.064V162.308H316.664V163.064H313.094ZM321.043 169.168C320.441 169.168 319.904 169.035 319.433 168.769C318.966 168.503 318.598 168.109 318.327 167.586C318.056 167.063 317.921 166.419 317.921 165.654C317.921 164.884 318.056 164.24 318.327 163.722C318.598 163.199 318.966 162.805 319.433 162.539C319.904 162.273 320.441 162.14 321.043 162.14C321.64 162.14 322.172 162.273 322.639 162.539C323.11 162.805 323.479 163.199 323.745 163.722C324.016 164.24 324.151 164.884 324.151 165.654C324.151 166.419 324.016 167.063 323.745 167.586C323.479 168.109 323.11 168.503 322.639 168.769C322.172 169.035 321.64 169.168 321.043 169.168ZM321.015 168.216C321.449 168.216 321.818 168.113 322.121 167.908C322.424 167.698 322.653 167.402 322.807 167.019C322.966 166.636 323.045 166.181 323.045 165.654C323.045 164.856 322.879 164.228 322.548 163.771C322.217 163.309 321.724 163.078 321.071 163.078C320.632 163.078 320.261 163.183 319.958 163.393C319.659 163.598 319.431 163.895 319.272 164.282C319.118 164.665 319.041 165.122 319.041 165.654C319.041 166.443 319.207 167.068 319.538 167.53C319.874 167.987 320.366 168.216 321.015 168.216ZM326.277 169V162.294H327.369V169H326.277ZM327.033 165.976C327.033 165.127 327.115 164.422 327.278 163.862C327.442 163.297 327.68 162.877 327.992 162.602C328.31 162.322 328.695 162.182 329.147 162.182C329.297 162.182 329.432 162.194 329.553 162.217C329.679 162.236 329.805 162.266 329.931 162.308L329.861 163.386C329.731 163.344 329.588 163.309 329.434 163.281C329.28 163.248 329.143 163.232 329.021 163.232C328.625 163.232 328.305 163.346 328.062 163.575C327.82 163.799 327.642 164.116 327.53 164.527C327.423 164.938 327.369 165.421 327.369 165.976H327.033ZM340.744 169V165.066C340.744 164.427 340.59 163.941 340.282 163.61C339.979 163.274 339.568 163.106 339.05 163.106C338.443 163.106 337.979 163.342 337.657 163.813C337.335 164.28 337.174 164.926 337.174 165.752H336.67C336.67 165.15 336.728 164.623 336.845 164.17C336.966 163.717 337.141 163.342 337.37 163.043C337.599 162.74 337.876 162.513 338.203 162.364C338.53 162.215 338.901 162.14 339.316 162.14C339.843 162.14 340.294 162.259 340.667 162.497C341.045 162.73 341.334 163.066 341.535 163.505C341.736 163.944 341.836 164.464 341.836 165.066V169H340.744ZM331.336 169V162.308H332.274L332.4 163.652C332.61 163.167 332.904 162.793 333.282 162.532C333.665 162.271 334.122 162.14 334.654 162.14C335.181 162.14 335.632 162.259 336.005 162.497C336.383 162.73 336.672 163.066 336.873 163.505C337.074 163.944 337.174 164.464 337.174 165.066V169H336.096V165.066C336.096 164.427 335.942 163.941 335.634 163.61C335.331 163.274 334.915 163.106 334.388 163.106C333.987 163.106 333.639 163.216 333.345 163.435C333.051 163.654 332.825 163.969 332.666 164.38C332.507 164.786 332.428 165.271 332.428 165.836V169H331.336ZM345.05 160.726C344.826 160.726 344.648 160.663 344.518 160.537C344.387 160.406 344.322 160.236 344.322 160.026C344.322 159.821 344.387 159.657 344.518 159.536C344.648 159.415 344.826 159.354 345.05 159.354C345.274 159.354 345.451 159.415 345.582 159.536C345.712 159.657 345.778 159.821 345.778 160.026C345.778 160.236 345.712 160.406 345.582 160.537C345.451 160.663 345.274 160.726 345.05 160.726ZM344.504 169V162.294H345.596V169H344.504ZM353.363 169V165.066C353.363 164.427 353.209 163.941 352.901 163.61C352.598 163.274 352.183 163.106 351.655 163.106C351.254 163.106 350.906 163.216 350.612 163.435C350.318 163.654 350.092 163.969 349.933 164.38C349.775 164.786 349.695 165.271 349.695 165.836H349.275C349.275 165.057 349.378 164.392 349.583 163.841C349.789 163.29 350.087 162.87 350.479 162.581C350.876 162.287 351.357 162.14 351.921 162.14C352.449 162.14 352.899 162.259 353.272 162.497C353.65 162.73 353.94 163.066 354.14 163.505C354.341 163.944 354.441 164.464 354.441 165.066V169H353.363ZM348.603 169V162.308H349.541L349.695 163.848V169H348.603ZM359.419 172.444C358.733 172.444 358.138 172.346 357.634 172.15C357.13 171.959 356.738 171.7 356.458 171.373C356.182 171.051 356.045 170.694 356.045 170.302C356.045 169.784 356.234 169.387 356.612 169.112C356.994 168.841 357.487 168.706 358.089 168.706L358.691 169.084C358.187 169.084 357.797 169.189 357.522 169.399C357.246 169.609 357.109 169.896 357.109 170.26C357.109 170.624 357.305 170.932 357.697 171.184C358.089 171.436 358.663 171.562 359.419 171.562C359.979 171.562 360.469 171.48 360.889 171.317C361.313 171.158 361.642 170.948 361.876 170.687C362.114 170.43 362.233 170.153 362.233 169.854C362.233 169.644 362.156 169.462 362.002 169.308C361.848 169.159 361.612 169.084 361.295 169.084H358.691C358.238 169.084 357.846 169.016 357.515 168.881C357.188 168.741 356.936 168.559 356.759 168.335C356.581 168.111 356.493 167.866 356.493 167.6C356.493 167.32 356.572 167.082 356.731 166.886C356.889 166.69 357.095 166.541 357.347 166.438C357.603 166.335 357.879 166.284 358.173 166.284L358.383 166.69C358.243 166.69 358.1 166.723 357.956 166.788C357.816 166.849 357.697 166.942 357.599 167.068C357.505 167.189 357.459 167.343 357.459 167.53C357.459 167.745 357.547 167.924 357.725 168.069C357.902 168.214 358.224 168.286 358.691 168.286H361.295C361.925 168.286 362.419 168.419 362.779 168.685C363.143 168.951 363.325 169.322 363.325 169.798C363.325 170.237 363.168 170.657 362.856 171.058C362.543 171.464 362.095 171.795 361.512 172.052C360.928 172.313 360.231 172.444 359.419 172.444ZM359.615 167.04C359.101 167.04 358.637 166.937 358.222 166.732C357.811 166.527 357.484 166.24 357.242 165.871C357.004 165.502 356.885 165.075 356.885 164.59C356.885 164.1 357.004 163.671 357.242 163.302C357.484 162.933 357.811 162.649 358.222 162.448C358.637 162.243 359.101 162.14 359.615 162.14C360.114 162.14 360.567 162.243 360.973 162.448C361.383 162.649 361.71 162.933 361.953 163.302C362.195 163.671 362.317 164.1 362.317 164.59C362.317 165.075 362.195 165.502 361.953 165.871C361.71 166.24 361.383 166.527 360.973 166.732C360.567 166.937 360.114 167.04 359.615 167.04ZM359.615 166.256C360.128 166.256 360.527 166.097 360.812 165.78C361.096 165.463 361.239 165.066 361.239 164.59C361.239 164.1 361.096 163.703 360.812 163.4C360.527 163.092 360.128 162.938 359.615 162.938C359.106 162.938 358.705 163.092 358.411 163.4C358.121 163.703 357.977 164.1 357.977 164.59C357.977 165.066 358.121 165.463 358.411 165.78C358.705 166.097 359.106 166.256 359.615 166.256ZM361.813 163.204L361.295 162.994C361.295 162.602 361.372 162.259 361.526 161.965C361.68 161.666 361.899 161.435 362.184 161.272C362.468 161.104 362.807 161.02 363.199 161.02L363.115 162.098C362.695 162.098 362.373 162.189 362.149 162.371C361.925 162.548 361.813 162.826 361.813 163.204ZM237.472 191.168C237.108 191.168 236.781 191.098 236.492 190.958C236.203 190.818 235.974 190.608 235.806 190.328C235.638 190.048 235.554 189.698 235.554 189.278V182.446H236.632V189.25C236.632 189.941 236.954 190.286 237.598 190.286C237.789 190.286 237.974 190.265 238.151 190.223C238.333 190.181 238.536 190.118 238.76 190.034L238.914 190.818C238.676 190.921 238.438 191.005 238.2 191.07C237.967 191.135 237.724 191.168 237.472 191.168ZM234.476 185.064V184.308H238.746V185.064H234.476ZM240.678 191V184.294H241.77V191H240.678ZM241.434 187.976C241.434 187.127 241.515 186.422 241.679 185.862C241.842 185.297 242.08 184.877 242.393 184.602C242.71 184.322 243.095 184.182 243.548 184.182C243.697 184.182 243.832 184.194 243.954 184.217C244.08 184.236 244.206 184.266 244.332 184.308L244.262 185.386C244.131 185.344 243.989 185.309 243.835 185.281C243.681 185.248 243.543 185.232 243.422 185.232C243.025 185.232 242.705 185.346 242.463 185.575C242.22 185.799 242.043 186.116 241.931 186.527C241.823 186.938 241.77 187.421 241.77 187.976H241.434ZM249.88 191L249.74 189.53V186.66C249.74 186.058 249.612 185.626 249.355 185.365C249.099 185.099 248.714 184.966 248.2 184.966C247.911 184.966 247.647 185.008 247.409 185.092C247.176 185.176 246.989 185.307 246.849 185.484C246.714 185.657 246.646 185.881 246.646 186.156H245.428C245.428 185.671 245.547 185.281 245.785 184.987C246.023 184.688 246.35 184.474 246.765 184.343C247.185 184.208 247.664 184.14 248.2 184.14C248.714 184.14 249.169 184.226 249.565 184.399C249.962 184.572 250.272 184.847 250.496 185.225C250.72 185.598 250.832 186.086 250.832 186.688V191H249.88ZM247.598 191.168C247.048 191.168 246.593 191.07 246.233 190.874C245.874 190.678 245.606 190.424 245.428 190.111C245.251 189.798 245.162 189.469 245.162 189.124C245.162 188.671 245.274 188.303 245.498 188.018C245.727 187.733 246.037 187.526 246.429 187.395C246.821 187.26 247.262 187.192 247.752 187.192C248.102 187.192 248.452 187.227 248.802 187.297C249.157 187.367 249.502 187.463 249.838 187.584V188.27C249.558 188.158 249.241 188.069 248.886 188.004C248.536 187.939 248.214 187.906 247.92 187.906C247.472 187.906 247.094 187.999 246.786 188.186C246.478 188.368 246.324 188.681 246.324 189.124C246.324 189.451 246.441 189.731 246.674 189.964C246.912 190.197 247.29 190.314 247.808 190.314C248.172 190.314 248.499 190.23 248.788 190.062C249.082 189.889 249.313 189.675 249.481 189.418C249.654 189.161 249.74 188.905 249.74 188.648H250.006C250.006 189.096 249.908 189.511 249.712 189.894C249.521 190.277 249.246 190.585 248.886 190.818C248.527 191.051 248.098 191.168 247.598 191.168ZM255.841 191.168C255.3 191.168 254.803 191.023 254.35 190.734C253.898 190.44 253.536 190.029 253.265 189.502C252.995 188.97 252.859 188.345 252.859 187.626C252.859 186.912 252.992 186.294 253.258 185.771C253.524 185.248 253.877 184.847 254.315 184.567C254.759 184.282 255.244 184.14 255.771 184.14C256.261 184.14 256.691 184.259 257.059 184.497C257.433 184.735 257.722 185.078 257.927 185.526C258.133 185.974 258.235 186.515 258.235 187.15H257.815C257.815 186.707 257.727 186.333 257.549 186.03C257.377 185.727 257.15 185.498 256.87 185.344C256.59 185.185 256.289 185.106 255.967 185.106C255.603 185.106 255.27 185.209 254.966 185.414C254.668 185.615 254.427 185.904 254.245 186.282C254.068 186.655 253.979 187.103 253.979 187.626C253.979 188.158 254.068 188.615 254.245 188.998C254.427 189.381 254.668 189.675 254.966 189.88C255.27 190.085 255.603 190.188 255.967 190.188C256.271 190.188 256.562 190.109 256.842 189.95C257.127 189.791 257.36 189.56 257.542 189.257C257.724 188.949 257.815 188.578 257.815 188.144H258.235C258.235 188.793 258.128 189.343 257.913 189.796C257.703 190.244 257.416 190.585 257.052 190.818C256.693 191.051 256.289 191.168 255.841 191.168ZM257.997 191L257.815 189.432V181.452H258.907V191H257.997ZM262.362 182.726C262.138 182.726 261.961 182.663 261.83 182.537C261.699 182.406 261.634 182.236 261.634 182.026C261.634 181.821 261.699 181.657 261.83 181.536C261.961 181.415 262.138 181.354 262.362 181.354C262.586 181.354 262.763 181.415 262.894 181.536C263.025 181.657 263.09 181.821 263.09 182.026C263.09 182.236 263.025 182.406 262.894 182.537C262.763 182.663 262.586 182.726 262.362 182.726ZM261.816 191V184.294H262.908V191H261.816ZM267.974 191.168C267.61 191.168 267.283 191.098 266.994 190.958C266.705 190.818 266.476 190.608 266.308 190.328C266.14 190.048 266.056 189.698 266.056 189.278V182.446H267.134V189.25C267.134 189.941 267.456 190.286 268.1 190.286C268.291 190.286 268.476 190.265 268.653 190.223C268.835 190.181 269.038 190.118 269.262 190.034L269.416 190.818C269.178 190.921 268.94 191.005 268.702 191.07C268.469 191.135 268.226 191.168 267.974 191.168ZM264.978 185.064V184.308H269.248V185.064H264.978ZM271.796 182.726C271.572 182.726 271.394 182.663 271.264 182.537C271.133 182.406 271.068 182.236 271.068 182.026C271.068 181.821 271.133 181.657 271.264 181.536C271.394 181.415 271.572 181.354 271.796 181.354C272.02 181.354 272.197 181.415 272.328 181.536C272.458 181.657 272.524 181.821 272.524 182.026C272.524 182.236 272.458 182.406 272.328 182.537C272.197 182.663 272.02 182.726 271.796 182.726ZM271.25 191V184.294H272.342V191H271.25ZM277.772 191.168C277.17 191.168 276.633 191.035 276.162 190.769C275.695 190.503 275.326 190.109 275.056 189.586C274.785 189.063 274.65 188.419 274.65 187.654C274.65 186.884 274.785 186.24 275.056 185.722C275.326 185.199 275.695 184.805 276.162 184.539C276.633 184.273 277.17 184.14 277.772 184.14C278.369 184.14 278.901 184.273 279.368 184.539C279.839 184.805 280.208 185.199 280.474 185.722C280.744 186.24 280.88 186.884 280.88 187.654C280.88 188.419 280.744 189.063 280.474 189.586C280.208 190.109 279.839 190.503 279.368 190.769C278.901 191.035 278.369 191.168 277.772 191.168ZM277.744 190.216C278.178 190.216 278.546 190.113 278.85 189.908C279.153 189.698 279.382 189.402 279.536 189.019C279.694 188.636 279.774 188.181 279.774 187.654C279.774 186.856 279.608 186.228 279.277 185.771C278.945 185.309 278.453 185.078 277.8 185.078C277.361 185.078 276.99 185.183 276.687 185.393C276.388 185.598 276.159 185.895 276.001 186.282C275.847 186.665 275.77 187.122 275.77 187.654C275.77 188.443 275.935 189.068 276.267 189.53C276.603 189.987 277.095 190.216 277.744 190.216ZM287.766 191V187.066C287.766 186.427 287.612 185.941 287.304 185.61C287 185.274 286.585 185.106 286.058 185.106C285.656 185.106 285.309 185.216 285.015 185.435C284.721 185.654 284.494 185.969 284.336 186.38C284.177 186.786 284.098 187.271 284.098 187.836H283.678C283.678 187.057 283.78 186.392 283.986 185.841C284.191 185.29 284.49 184.87 284.882 184.581C285.278 184.287 285.759 184.14 286.324 184.14C286.851 184.14 287.301 184.259 287.675 184.497C288.053 184.73 288.342 185.066 288.543 185.505C288.743 185.944 288.844 186.464 288.844 187.066V191H287.766ZM283.006 191V184.308H283.944L284.098 185.848V191H283.006ZM295.599 191L295.459 189.53V186.66C295.459 186.058 295.331 185.626 295.074 185.365C294.817 185.099 294.432 184.966 293.919 184.966C293.63 184.966 293.366 185.008 293.128 185.092C292.895 185.176 292.708 185.307 292.568 185.484C292.433 185.657 292.365 185.881 292.365 186.156H291.147C291.147 185.671 291.266 185.281 291.504 184.987C291.742 184.688 292.069 184.474 292.484 184.343C292.904 184.208 293.382 184.14 293.919 184.14C294.432 184.14 294.887 184.226 295.284 184.399C295.681 184.572 295.991 184.847 296.215 185.225C296.439 185.598 296.551 186.086 296.551 186.688V191H295.599ZM293.317 191.168C292.766 191.168 292.311 191.07 291.952 190.874C291.593 190.678 291.324 190.424 291.147 190.111C290.97 189.798 290.881 189.469 290.881 189.124C290.881 188.671 290.993 188.303 291.217 188.018C291.446 187.733 291.756 187.526 292.148 187.395C292.54 187.26 292.981 187.192 293.471 187.192C293.821 187.192 294.171 187.227 294.521 187.297C294.876 187.367 295.221 187.463 295.557 187.584V188.27C295.277 188.158 294.96 188.069 294.605 188.004C294.255 187.939 293.933 187.906 293.639 187.906C293.191 187.906 292.813 187.999 292.505 188.186C292.197 188.368 292.043 188.681 292.043 189.124C292.043 189.451 292.16 189.731 292.393 189.964C292.631 190.197 293.009 190.314 293.527 190.314C293.891 190.314 294.218 190.23 294.507 190.062C294.801 189.889 295.032 189.675 295.2 189.418C295.373 189.161 295.459 188.905 295.459 188.648H295.725C295.725 189.096 295.627 189.511 295.431 189.894C295.24 190.277 294.964 190.585 294.605 190.818C294.246 191.051 293.816 191.168 293.317 191.168ZM299.166 191V181.452H300.258V191H299.166ZM306.412 182.208H308.988C309.875 182.208 310.645 182.39 311.298 182.754C311.951 183.113 312.458 183.622 312.817 184.28C313.176 184.938 313.356 185.713 313.356 186.604C313.356 187.486 313.176 188.256 312.817 188.914C312.458 189.572 311.951 190.085 311.298 190.454C310.645 190.818 309.875 191 308.988 191H306.412V182.208ZM307.504 183.174V190.048H308.988C309.651 190.048 310.22 189.899 310.696 189.6C311.177 189.301 311.545 188.893 311.802 188.375C312.063 187.852 312.194 187.262 312.194 186.604C312.194 185.941 312.063 185.353 311.802 184.84C311.545 184.322 311.177 183.916 310.696 183.622C310.22 183.323 309.651 183.174 308.988 183.174H307.504ZM318.706 191.168C317.932 191.168 317.264 190.974 316.704 190.587C316.144 190.195 315.713 189.654 315.409 188.963C315.106 188.268 314.954 187.463 314.954 186.548C314.954 185.573 315.118 184.751 315.444 184.084C315.776 183.417 316.224 182.913 316.788 182.572C317.358 182.227 317.997 182.054 318.706 182.054C319.644 182.054 320.398 182.29 320.967 182.761C321.541 183.228 321.936 183.837 322.15 184.588L320.974 184.826C320.792 184.28 320.501 183.846 320.099 183.524C319.703 183.197 319.238 183.034 318.706 183.034C318.244 183.034 317.817 183.167 317.425 183.433C317.038 183.694 316.725 184.086 316.487 184.609C316.249 185.132 316.13 185.778 316.13 186.548C316.13 187.248 316.224 187.871 316.41 188.417C316.602 188.963 316.886 189.392 317.264 189.705C317.647 190.018 318.128 190.174 318.706 190.174C319.402 190.174 319.952 189.987 320.358 189.614C320.769 189.241 320.974 188.751 320.974 188.144H322.164C322.164 188.774 322.02 189.315 321.73 189.768C321.441 190.216 321.035 190.561 320.512 190.804C319.994 191.047 319.392 191.168 318.706 191.168ZM323.19 191L326.214 182.208H327.544L330.498 191H329.35L328.608 188.746H325.108L324.338 191H323.19ZM325.388 187.892H328.328L326.858 183.538L325.388 187.892Z" fill="white"/>
<path d="M160 221C160 221 198.587 207.117 228.685 115.443C259.124 22.7294 335.957 28.0566 373 28.0566" stroke="#FFB636" stroke-width="4"/>
</svg>
