<svg width="425" height="267" viewBox="0 0 425 267" fill="none" xmlns="http://www.w3.org/2000/svg">
<line x1="160.5" y1="223.5" x2="385.5" y2="223.5" stroke="#9CCBF0" stroke-width="3"/>
<path d="M374 35L374 218" stroke="white"/>
<path d="M160 25L374 25" stroke="white" stroke-dasharray="2 2"/>
<line x1="159" y1="225" x2="159" y2="-6.55671e-08" stroke="#9CCBF0" stroke-width="3"/>
<path d="M160.5 222C160.5 222 193.116 126.368 235.49 69.1526C270.635 21.6997 336.788 27.1943 336.788 27.1943H374" stroke="#FFB636" stroke-width="4"/>
<path d="M372.5 35H375.5" stroke="white"/>
<line x1="372.5" y1="217.5" x2="375.5" y2="217.5" stroke="white"/>
<path d="M28.193 107.28C27.0397 107.28 26.0197 107.027 25.133 106.52C24.253 106.013 23.563 105.257 23.063 104.25C22.563 103.243 22.313 101.993 22.313 100.5C22.313 98.98 22.563 97.7233 23.063 96.73C23.563 95.73 24.253 94.9867 25.133 94.5C26.0197 94.0067 27.0397 93.76 28.193 93.76C29.353 93.76 30.3764 94.0133 31.263 94.52C32.1497 95.02 32.843 95.77 33.343 96.77C33.843 97.77 34.093 99.0133 34.093 100.5C34.093 102.013 33.843 103.273 33.343 104.28C32.843 105.287 32.1497 106.04 31.263 106.54C30.3764 107.033 29.353 107.28 28.193 107.28ZM28.193 105.14C29.253 105.14 30.093 104.74 30.713 103.94C31.3397 103.14 31.653 101.987 31.653 100.48C31.653 99.0267 31.3397 97.8967 30.713 97.09C30.093 96.2833 29.253 95.88 28.193 95.88C27.153 95.88 26.3197 96.2867 25.693 97.1C25.0664 97.9067 24.753 99.04 24.753 100.5C24.753 102 25.0664 103.15 25.693 103.95C26.3197 104.743 27.153 105.14 28.193 105.14ZM43.3454 97.26H45.7054V107H43.3454V97.26ZM36.6854 97.26H39.0454V103.22C39.0454 103.853 39.2021 104.33 39.5154 104.65C39.8287 104.963 40.2587 105.12 40.8054 105.12C41.2721 105.12 41.6954 105 42.0754 104.76C42.4621 104.513 42.7687 104.153 42.9954 103.68C43.2287 103.2 43.3454 102.607 43.3454 101.9H43.9854C43.9854 103.087 43.8321 104.07 43.5254 104.85C43.2187 105.63 42.7954 106.213 42.2554 106.6C41.7154 106.987 41.0921 107.18 40.3854 107.18C39.6921 107.18 39.0654 107.057 38.5054 106.81C37.9454 106.563 37.5021 106.167 37.1754 105.62C36.8487 105.073 36.6854 104.353 36.6854 103.46V97.26ZM52.7045 107.28C52.1311 107.28 51.6045 107.173 51.1245 106.96C50.6511 106.747 50.2711 106.42 49.9845 105.98C49.7045 105.54 49.5645 104.98 49.5645 104.3V94.72H51.9245V104.22C51.9245 105.02 52.3045 105.42 53.0645 105.42C53.2978 105.42 53.5311 105.393 53.7645 105.34C53.9978 105.287 54.2645 105.207 54.5645 105.1L54.9045 106.76C54.5311 106.907 54.1678 107.03 53.8145 107.13C53.4611 107.23 53.0911 107.28 52.7045 107.28ZM48.2045 98.86V97.3H54.5645V98.86H48.2045ZM62.1751 107.28C61.4617 107.28 60.8551 107.127 60.3551 106.82C59.8551 106.513 59.4717 106.05 59.2051 105.43C58.9451 104.803 58.8151 104.02 58.8151 103.08H59.6751C59.6751 103.513 59.7751 103.883 59.9751 104.19C60.1751 104.497 60.4384 104.733 60.7651 104.9C61.0984 105.06 61.4551 105.14 61.8351 105.14C62.2284 105.14 62.6151 105.033 62.9951 104.82C63.3817 104.6 63.7017 104.27 63.9551 103.83C64.2084 103.383 64.3351 102.82 64.3351 102.14C64.3351 101.52 64.2284 100.987 64.0151 100.54C63.8017 100.087 63.5084 99.74 63.1351 99.5C62.7684 99.26 62.3484 99.14 61.8751 99.14C61.4751 99.14 61.1084 99.23 60.7751 99.41C60.4417 99.59 60.1751 99.8533 59.9751 100.2C59.7751 100.54 59.6751 100.953 59.6751 101.44H58.8151C58.8151 100.42 58.9717 99.5867 59.2851 98.94C59.5984 98.2867 60.0184 97.8033 60.5451 97.49C61.0717 97.1767 61.6484 97.02 62.2751 97.02C63.0417 97.02 63.7617 97.2233 64.4351 97.63C65.1151 98.0367 65.6651 98.6233 66.0851 99.39C66.5051 100.15 66.7151 101.067 66.7151 102.14C66.7151 103.22 66.5017 104.143 66.0751 104.91C65.6484 105.677 65.0884 106.263 64.3951 106.67C63.7084 107.077 62.9684 107.28 62.1751 107.28ZM57.3151 111.74V97.3H59.2551L59.6751 99.7V111.74H57.3151ZM73.1421 107.28C72.3154 107.28 71.5588 107.067 70.8721 106.64C70.1854 106.213 69.6354 105.617 69.2221 104.85C68.8088 104.077 68.6021 103.173 68.6021 102.14C68.6021 101.073 68.8054 100.157 69.2121 99.39C69.6254 98.6233 70.1754 98.0367 70.8621 97.63C71.5488 97.2233 72.3088 97.02 73.1421 97.02C73.9154 97.02 74.5821 97.1767 75.1421 97.49C75.7088 97.7967 76.1621 98.2167 76.5021 98.75C76.8488 99.2767 77.0821 99.8733 77.2021 100.54C77.3221 101.207 77.3288 101.893 77.2221 102.6H70.4821V101.32H75.5521L75.0921 101.62C75.1121 101.307 75.0954 100.99 75.0421 100.67C74.9954 100.35 74.9021 100.057 74.7621 99.79C74.6221 99.5233 74.4221 99.31 74.1621 99.15C73.9088 98.9833 73.5821 98.9 73.1821 98.9C72.7021 98.9 72.2954 99.02 71.9621 99.26C71.6288 99.5 71.3754 99.8267 71.2021 100.24C71.0288 100.653 70.9421 101.12 70.9421 101.64V102.58C70.9421 103.127 71.0221 103.61 71.1821 104.03C71.3488 104.45 71.5921 104.78 71.9121 105.02C72.2388 105.26 72.6488 105.38 73.1421 105.38C73.6021 105.38 73.9888 105.273 74.3021 105.06C74.6154 104.847 74.8154 104.527 74.9021 104.1H77.2821C77.1821 104.727 76.9454 105.28 76.5721 105.76C76.2054 106.233 75.7288 106.607 75.1421 106.88C74.5554 107.147 73.8888 107.28 73.1421 107.28ZM80.1276 107V97.26H82.4876V107H80.1276ZM81.9076 102.74C81.9076 101.467 82.0509 100.413 82.3376 99.58C82.6242 98.7467 83.0076 98.13 83.4876 97.73C83.9742 97.3233 84.5142 97.12 85.1076 97.12C85.2676 97.12 85.4176 97.13 85.5576 97.15C85.7042 97.17 85.8476 97.2 85.9876 97.24L85.9476 99.6C85.7742 99.56 85.5876 99.5267 85.3876 99.5C85.1876 99.4733 85.0076 99.46 84.8476 99.46C84.3276 99.46 83.8909 99.5867 83.5376 99.84C83.1909 100.087 82.9276 100.453 82.7476 100.94C82.5742 101.427 82.4876 102.027 82.4876 102.74H81.9076ZM88.5391 107V96.12C88.5391 95.42 88.6758 94.85 88.9491 94.41C89.2225 93.97 89.5825 93.6467 90.0291 93.44C90.4825 93.2267 90.9725 93.12 91.4991 93.12C91.8258 93.12 92.1625 93.1433 92.5091 93.19C92.8558 93.2367 93.1925 93.2933 93.5191 93.36L93.0591 95.18C92.8925 95.12 92.7191 95.0733 92.5391 95.04C92.3591 95 92.1858 94.98 92.0191 94.98C91.8325 94.98 91.6558 95.0167 91.4891 95.09C91.3225 95.1567 91.1858 95.2767 91.0791 95.45C90.9725 95.6233 90.9191 95.86 90.9191 96.16V107H88.5391ZM87.0991 98.86V97.3H92.6991V98.86H87.0991ZM99.1429 107.28C98.2562 107.28 97.4529 107.09 96.7329 106.71C96.0196 106.33 95.4529 105.763 95.0329 105.01C94.6129 104.25 94.4029 103.3 94.4029 102.16C94.4029 101 94.6129 100.04 95.0329 99.28C95.4529 98.52 96.0196 97.9533 96.7329 97.58C97.4529 97.2067 98.2562 97.02 99.1429 97.02C100.016 97.02 100.806 97.2067 101.513 97.58C102.226 97.9533 102.793 98.52 103.213 99.28C103.633 100.04 103.843 101 103.843 102.16C103.843 103.3 103.633 104.25 103.213 105.01C102.793 105.763 102.226 106.33 101.513 106.71C100.806 107.09 100.016 107.28 99.1429 107.28ZM99.0629 105.22C99.5296 105.22 99.9429 105.107 100.303 104.88C100.67 104.647 100.956 104.303 101.163 103.85C101.376 103.397 101.483 102.833 101.483 102.16C101.483 101.133 101.28 100.36 100.873 99.84C100.473 99.32 99.9229 99.06 99.2229 99.06C98.7496 99.06 98.3296 99.1767 97.9629 99.41C97.5962 99.6367 97.3062 99.98 97.0929 100.44C96.8862 100.9 96.7829 101.473 96.7829 102.16C96.7829 103.173 96.9862 103.937 97.3929 104.45C97.8062 104.963 98.3629 105.22 99.0629 105.22ZM106.651 107V97.26H109.011V107H106.651ZM108.431 102.74C108.431 101.467 108.574 100.413 108.861 99.58C109.148 98.7467 109.531 98.13 110.011 97.73C110.498 97.3233 111.038 97.12 111.631 97.12C111.791 97.12 111.941 97.13 112.081 97.15C112.228 97.17 112.371 97.2 112.511 97.24L112.471 99.6C112.298 99.56 112.111 99.5267 111.911 99.5C111.711 99.4733 111.531 99.46 111.371 99.46C110.851 99.46 110.414 99.5867 110.061 99.84C109.714 100.087 109.451 100.453 109.271 100.94C109.098 101.427 109.011 102.027 109.011 102.74H108.431ZM127.683 107V101.32C127.683 100.6 127.509 100.057 127.163 99.69C126.816 99.3233 126.363 99.14 125.803 99.14C125.096 99.14 124.539 99.4267 124.133 100C123.726 100.573 123.523 101.44 123.523 102.6H122.543C122.543 101.58 122.636 100.717 122.823 100.01C123.016 99.2967 123.286 98.7233 123.633 98.29C123.986 97.85 124.399 97.53 124.873 97.33C125.346 97.1233 125.869 97.02 126.443 97.02C127.236 97.02 127.899 97.2 128.433 97.56C128.973 97.9133 129.379 98.4133 129.653 99.06C129.926 99.7067 130.063 100.46 130.063 101.32V107H127.683ZM114.503 107V97.3H116.563L116.823 98.96C117.143 98.3133 117.566 97.83 118.093 97.51C118.619 97.1833 119.223 97.02 119.903 97.02C120.703 97.02 121.369 97.2 121.903 97.56C122.443 97.9133 122.846 98.4133 123.113 99.06C123.386 99.7067 123.523 100.46 123.523 101.32V107H121.163V101.32C121.163 100.6 120.989 100.057 120.643 99.69C120.296 99.3233 119.843 99.14 119.283 99.14C118.809 99.14 118.389 99.27 118.023 99.53C117.663 99.79 117.379 100.183 117.173 100.71C116.966 101.23 116.863 101.88 116.863 102.66V107H114.503ZM30.7981 131.28C30.0848 131.28 29.4781 131.127 28.9781 130.82C28.4781 130.513 28.0948 130.05 27.8281 129.43C27.5681 128.803 27.4381 128.02 27.4381 127.08H28.2981C28.2981 127.513 28.3981 127.883 28.5981 128.19C28.7981 128.497 29.0615 128.733 29.3881 128.9C29.7215 129.06 30.0781 129.14 30.4581 129.14C30.8515 129.14 31.2381 129.033 31.6181 128.82C32.0048 128.6 32.3248 128.27 32.5781 127.83C32.8315 127.383 32.9581 126.82 32.9581 126.14C32.9581 125.52 32.8515 124.987 32.6381 124.54C32.4248 124.087 32.1315 123.74 31.7581 123.5C31.3915 123.26 30.9715 123.14 30.4981 123.14C30.0981 123.14 29.7315 123.23 29.3981 123.41C29.0648 123.59 28.7981 123.853 28.5981 124.2C28.3981 124.54 28.2981 124.953 28.2981 125.44H27.4381C27.4381 124.42 27.5948 123.587 27.9081 122.94C28.2215 122.287 28.6415 121.803 29.1681 121.49C29.6948 121.177 30.2715 121.02 30.8981 121.02C31.6648 121.02 32.3848 121.223 33.0581 121.63C33.7381 122.037 34.2881 122.623 34.7081 123.39C35.1281 124.15 35.3381 125.067 35.3381 126.14C35.3381 127.22 35.1248 128.143 34.6981 128.91C34.2715 129.677 33.7115 130.263 33.0181 130.67C32.3315 131.077 31.5915 131.28 30.7981 131.28ZM25.9381 135.74V121.3H27.8781L28.2981 123.7V135.74H25.9381ZM38.1452 131V121.26H40.5052V131H38.1452ZM39.9252 126.74C39.9252 125.467 40.0685 124.413 40.3552 123.58C40.6418 122.747 41.0252 122.13 41.5052 121.73C41.9918 121.323 42.5318 121.12 43.1252 121.12C43.2852 121.12 43.4352 121.13 43.5752 121.15C43.7218 121.17 43.8652 121.2 44.0052 121.24L43.9652 123.6C43.7918 123.56 43.6052 123.527 43.4052 123.5C43.2052 123.473 43.0252 123.46 42.8652 123.46C42.3452 123.46 41.9085 123.587 41.5552 123.84C41.2085 124.087 40.9452 124.453 40.7652 124.94C40.5918 125.427 40.5052 126.027 40.5052 126.74H39.9252ZM49.8167 131.28C48.9301 131.28 48.1267 131.09 47.4067 130.71C46.6934 130.33 46.1267 129.763 45.7067 129.01C45.2867 128.25 45.0767 127.3 45.0767 126.16C45.0767 125 45.2867 124.04 45.7067 123.28C46.1267 122.52 46.6934 121.953 47.4067 121.58C48.1267 121.207 48.9301 121.02 49.8167 121.02C50.6901 121.02 51.4801 121.207 52.1867 121.58C52.9001 121.953 53.4667 122.52 53.8867 123.28C54.3067 124.04 54.5167 125 54.5167 126.16C54.5167 127.3 54.3067 128.25 53.8867 129.01C53.4667 129.763 52.9001 130.33 52.1867 130.71C51.4801 131.09 50.6901 131.28 49.8167 131.28ZM49.7367 129.22C50.2034 129.22 50.6167 129.107 50.9767 128.88C51.3434 128.647 51.6301 128.303 51.8367 127.85C52.0501 127.397 52.1567 126.833 52.1567 126.16C52.1567 125.133 51.9534 124.36 51.5467 123.84C51.1467 123.32 50.5967 123.06 49.8967 123.06C49.4234 123.06 49.0034 123.177 48.6367 123.41C48.2701 123.637 47.9801 123.98 47.7667 124.44C47.5601 124.9 47.4567 125.473 47.4567 126.16C47.4567 127.173 47.6601 127.937 48.0667 128.45C48.4801 128.963 49.0367 129.22 49.7367 129.22ZM62.2848 131.28C61.6782 131.28 61.1215 131.11 60.6148 130.77C60.1148 130.43 59.7148 129.923 59.4148 129.25C59.1148 128.57 58.9648 127.72 58.9648 126.7H59.6848C59.6848 127.187 59.7948 127.613 60.0148 127.98C60.2348 128.347 60.5182 128.633 60.8648 128.84C61.2115 129.04 61.5715 129.14 61.9448 129.14C62.4048 129.14 62.8148 129.013 63.1748 128.76C63.5348 128.507 63.8182 128.153 64.0248 127.7C64.2382 127.247 64.3448 126.713 64.3448 126.1C64.3448 125.507 64.2415 124.99 64.0348 124.55C63.8282 124.103 63.5415 123.757 63.1748 123.51C62.8148 123.263 62.3982 123.14 61.9248 123.14C61.5315 123.14 61.1648 123.237 60.8248 123.43C60.4848 123.617 60.2082 123.89 59.9948 124.25C59.7882 124.603 59.6848 125.033 59.6848 125.54H58.9648C58.9648 124.56 59.1048 123.733 59.3848 123.06C59.6715 122.387 60.0748 121.88 60.5948 121.54C61.1215 121.193 61.7448 121.02 62.4648 121.02C63.2515 121.02 63.9648 121.23 64.6048 121.65C65.2515 122.063 65.7648 122.653 66.1448 123.42C66.5315 124.18 66.7248 125.073 66.7248 126.1C66.7248 127.14 66.5248 128.05 66.1248 128.83C65.7315 129.603 65.1982 130.207 64.5248 130.64C63.8515 131.067 63.1048 131.28 62.2848 131.28ZM57.3248 131V117.28H59.6848V128.6L58.8648 131H57.3248ZM75.79 131L75.49 128.64V124.74C75.49 124.06 75.35 123.557 75.07 123.23C74.7967 122.903 74.33 122.74 73.67 122.74C73.29 122.74 72.96 122.797 72.68 122.91C72.4 123.023 72.1833 123.187 72.03 123.4C71.8833 123.607 71.81 123.86 71.81 124.16H69.23C69.23 123.427 69.4067 122.83 69.76 122.37C70.1133 121.903 70.62 121.563 71.28 121.35C71.9467 121.13 72.7433 121.02 73.67 121.02C74.51 121.02 75.2433 121.157 75.87 121.43C76.4967 121.697 76.9833 122.11 77.33 122.67C77.6767 123.23 77.85 123.947 77.85 124.82V131H75.79ZM72.61 131.28C71.7767 131.28 71.08 131.137 70.52 130.85C69.9667 130.557 69.55 130.173 69.27 129.7C68.99 129.227 68.85 128.713 68.85 128.16C68.85 127.547 69.01 127.033 69.33 126.62C69.6567 126.2 70.1167 125.887 70.71 125.68C71.3033 125.467 72.0033 125.36 72.81 125.36C73.3367 125.36 73.8333 125.4 74.3 125.48C74.7733 125.56 75.2433 125.667 75.71 125.8V127.18C75.3433 127.06 74.9433 126.967 74.51 126.9C74.0767 126.833 73.67 126.8 73.29 126.8C72.73 126.8 72.27 126.903 71.91 127.11C71.55 127.317 71.37 127.667 71.37 128.16C71.37 128.52 71.5167 128.83 71.81 129.09C72.1033 129.35 72.57 129.48 73.21 129.48C73.6967 129.48 74.11 129.373 74.45 129.16C74.79 128.947 75.0467 128.68 75.22 128.36C75.4 128.04 75.49 127.72 75.49 127.4H76.05C76.05 128.1 75.92 128.747 75.66 129.34C75.4 129.927 75.0133 130.397 74.5 130.75C73.9933 131.103 73.3633 131.28 72.61 131.28ZM86.2692 131.28C85.6626 131.28 85.1059 131.11 84.5992 130.77C84.0992 130.43 83.6992 129.923 83.3992 129.25C83.0992 128.57 82.9492 127.72 82.9492 126.7H83.6692C83.6692 127.187 83.7792 127.613 83.9992 127.98C84.2192 128.347 84.5026 128.633 84.8492 128.84C85.1959 129.04 85.5559 129.14 85.9292 129.14C86.3892 129.14 86.7992 129.013 87.1592 128.76C87.5192 128.507 87.8026 128.153 88.0092 127.7C88.2226 127.247 88.3292 126.713 88.3292 126.1C88.3292 125.507 88.2259 124.99 88.0192 124.55C87.8126 124.103 87.5259 123.757 87.1592 123.51C86.7992 123.263 86.3826 123.14 85.9092 123.14C85.5159 123.14 85.1492 123.237 84.8092 123.43C84.4692 123.617 84.1926 123.89 83.9792 124.25C83.7726 124.603 83.6692 125.033 83.6692 125.54H82.9492C82.9492 124.56 83.0892 123.733 83.3692 123.06C83.6559 122.387 84.0592 121.88 84.5792 121.54C85.1059 121.193 85.7292 121.02 86.4492 121.02C87.2359 121.02 87.9492 121.23 88.5892 121.65C89.2359 122.063 89.7492 122.653 90.1292 123.42C90.5159 124.18 90.7092 125.073 90.7092 126.1C90.7092 127.14 90.5092 128.05 90.1092 128.83C89.7159 129.603 89.1826 130.207 88.5092 130.64C87.8359 131.067 87.0892 131.28 86.2692 131.28ZM81.3092 131V117.28H83.6692V128.6L82.8492 131H81.3092ZM94.9744 119.52C94.5144 119.52 94.1544 119.4 93.8944 119.16C93.641 118.913 93.5144 118.573 93.5144 118.14C93.5144 117.72 93.641 117.387 93.8944 117.14C94.1544 116.887 94.5144 116.76 94.9744 116.76C95.4277 116.76 95.7844 116.887 96.0444 117.14C96.3044 117.387 96.4344 117.72 96.4344 118.14C96.4344 118.573 96.3044 118.913 96.0444 119.16C95.7844 119.4 95.4277 119.52 94.9744 119.52ZM93.7944 131V121.26H96.1544V131H93.7944ZM100.157 131V117.28H102.517V131H100.157ZM107.631 119.52C107.171 119.52 106.811 119.4 106.551 119.16C106.297 118.913 106.171 118.573 106.171 118.14C106.171 117.72 106.297 117.387 106.551 117.14C106.811 116.887 107.171 116.76 107.631 116.76C108.084 116.76 108.441 116.887 108.701 117.14C108.961 117.387 109.091 117.72 109.091 118.14C109.091 118.573 108.961 118.913 108.701 119.16C108.441 119.4 108.084 119.52 107.631 119.52ZM106.451 131V121.26H108.811V131H106.451ZM116.093 131.28C115.52 131.28 114.993 131.173 114.513 130.96C114.04 130.747 113.66 130.42 113.373 129.98C113.093 129.54 112.953 128.98 112.953 128.3V118.72H115.313V128.22C115.313 129.02 115.693 129.42 116.453 129.42C116.686 129.42 116.92 129.393 117.153 129.34C117.386 129.287 117.653 129.207 117.953 129.1L118.293 130.76C117.92 130.907 117.556 131.03 117.203 131.13C116.85 131.23 116.48 131.28 116.093 131.28ZM111.593 122.86V121.3H117.953V122.86H111.593ZM119.224 121.3H121.904L124.484 128.94H124.064L126.284 121.3H128.684L124.964 132.76C124.584 133.907 124.114 134.737 123.554 135.25C123 135.763 122.324 136.02 121.524 136.02C121.064 136.02 120.614 135.967 120.174 135.86C119.74 135.76 119.297 135.6 118.844 135.38V133.3C119.21 133.527 119.564 133.693 119.904 133.8C120.25 133.907 120.597 133.96 120.944 133.96C121.257 133.96 121.53 133.873 121.764 133.7C122.004 133.533 122.21 133.297 122.384 132.99C122.557 132.69 122.704 132.34 122.824 131.94L123.124 131L119.224 121.3Z" fill="white"/>
<path d="M249.731 251.06V249.02H260.131V251.06H255.581L256.111 250.52V262H253.751V250.52L254.281 251.06H249.731ZM263.476 250.52C263.016 250.52 262.656 250.4 262.396 250.16C262.143 249.913 262.016 249.573 262.016 249.14C262.016 248.72 262.143 248.387 262.396 248.14C262.656 247.887 263.016 247.76 263.476 247.76C263.93 247.76 264.286 247.887 264.546 248.14C264.806 248.387 264.936 248.72 264.936 249.14C264.936 249.573 264.806 249.913 264.546 250.16C264.286 250.4 263.93 250.52 263.476 250.52ZM262.296 262V252.26H264.656V262H262.296ZM281.839 262V256.32C281.839 255.6 281.665 255.057 281.319 254.69C280.972 254.323 280.519 254.14 279.959 254.14C279.252 254.14 278.695 254.427 278.289 255C277.882 255.573 277.679 256.44 277.679 257.6H276.699C276.699 256.58 276.792 255.717 276.979 255.01C277.172 254.297 277.442 253.723 277.789 253.29C278.142 252.85 278.555 252.53 279.029 252.33C279.502 252.123 280.025 252.02 280.599 252.02C281.392 252.02 282.055 252.2 282.589 252.56C283.129 252.913 283.535 253.413 283.809 254.06C284.082 254.707 284.219 255.46 284.219 256.32V262H281.839ZM268.659 262V252.3H270.719L270.979 253.96C271.299 253.313 271.722 252.83 272.249 252.51C272.775 252.183 273.379 252.02 274.059 252.02C274.859 252.02 275.525 252.2 276.059 252.56C276.599 252.913 277.002 253.413 277.269 254.06C277.542 254.707 277.679 255.46 277.679 256.32V262H275.319V256.32C275.319 255.6 275.145 255.057 274.799 254.69C274.452 254.323 273.999 254.14 273.439 254.14C272.965 254.14 272.545 254.27 272.179 254.53C271.819 254.79 271.535 255.183 271.329 255.71C271.122 256.23 271.019 256.88 271.019 257.66V262H268.659ZM291.263 262.28C290.437 262.28 289.68 262.067 288.993 261.64C288.307 261.213 287.757 260.617 287.343 259.85C286.93 259.077 286.723 258.173 286.723 257.14C286.723 256.073 286.927 255.157 287.333 254.39C287.747 253.623 288.297 253.037 288.983 252.63C289.67 252.223 290.43 252.02 291.263 252.02C292.037 252.02 292.703 252.177 293.263 252.49C293.83 252.797 294.283 253.217 294.623 253.75C294.97 254.277 295.203 254.873 295.323 255.54C295.443 256.207 295.45 256.893 295.343 257.6H288.603V256.32H293.673L293.213 256.62C293.233 256.307 293.217 255.99 293.163 255.67C293.117 255.35 293.023 255.057 292.883 254.79C292.743 254.523 292.543 254.31 292.283 254.15C292.03 253.983 291.703 253.9 291.303 253.9C290.823 253.9 290.417 254.02 290.083 254.26C289.75 254.5 289.497 254.827 289.323 255.24C289.15 255.653 289.063 256.12 289.063 256.64V257.58C289.063 258.127 289.143 258.61 289.303 259.03C289.47 259.45 289.713 259.78 290.033 260.02C290.36 260.26 290.77 260.38 291.263 260.38C291.723 260.38 292.11 260.273 292.423 260.06C292.737 259.847 292.937 259.527 293.023 259.1H295.403C295.303 259.727 295.067 260.28 294.693 260.76C294.327 261.233 293.85 261.607 293.263 261.88C292.677 262.147 292.01 262.28 291.263 262.28Z" fill="white"/>
<path d="M134.846 247.216C134.282 247.216 133.736 247.138 133.208 246.982C132.686 246.82 132.215 246.586 131.795 246.28C131.381 245.968 131.054 245.584 130.814 245.128C130.574 244.672 130.454 244.144 130.454 243.544H131.894C131.906 244.06 132.044 244.495 132.308 244.849C132.572 245.203 132.923 245.47 133.361 245.65C133.805 245.83 134.3 245.92 134.846 245.92C135.686 245.92 136.337 245.716 136.799 245.308C137.261 244.9 137.492 244.39 137.492 243.778C137.492 243.388 137.396 243.043 137.204 242.743C137.012 242.443 136.706 242.209 136.286 242.041C135.872 241.867 135.326 241.78 134.648 241.78H133.37V240.664H134.234C135.11 240.664 135.8 240.49 136.304 240.142C136.808 239.794 137.06 239.314 137.06 238.702C137.06 238.162 136.856 237.706 136.448 237.334C136.04 236.962 135.458 236.776 134.702 236.776C134.12 236.776 133.601 236.896 133.145 237.136C132.689 237.37 132.38 237.802 132.218 238.432H130.778C130.874 237.73 131.102 237.163 131.462 236.731C131.822 236.299 132.278 235.987 132.83 235.795C133.382 235.597 133.994 235.498 134.666 235.498C135.416 235.498 136.085 235.63 136.673 235.894C137.261 236.158 137.723 236.521 138.059 236.983C138.401 237.445 138.572 237.976 138.572 238.576C138.572 239.17 138.401 239.68 138.059 240.106C137.723 240.526 137.234 240.85 136.592 241.078C137.306 241.282 137.888 241.618 138.338 242.086C138.794 242.554 139.022 243.154 139.022 243.886C139.022 244.534 138.851 245.11 138.509 245.614C138.173 246.112 137.693 246.505 137.069 246.793C136.445 247.075 135.704 247.216 134.846 247.216ZM145.481 247.216C144.593 247.216 143.816 247 143.15 246.568C142.49 246.136 141.974 245.485 141.602 244.615C141.236 243.745 141.053 242.656 141.053 241.348C141.053 240.04 141.236 238.954 141.602 238.09C141.974 237.22 142.49 236.572 143.15 236.146C143.816 235.714 144.593 235.498 145.481 235.498C146.363 235.498 147.137 235.714 147.803 236.146C148.469 236.572 148.985 237.22 149.351 238.09C149.723 238.954 149.909 240.04 149.909 241.348C149.909 242.656 149.723 243.745 149.351 244.615C148.985 245.485 148.469 246.136 147.803 246.568C147.137 247 146.363 247.216 145.481 247.216ZM145.481 245.92C146.453 245.92 147.191 245.524 147.695 244.732C148.199 243.934 148.451 242.806 148.451 241.348C148.451 239.89 148.199 238.765 147.695 237.973C147.191 237.175 146.453 236.776 145.481 236.776C144.521 236.776 143.786 237.175 143.276 237.973C142.766 238.765 142.511 239.89 142.511 241.348C142.511 242.806 142.766 243.934 143.276 244.732C143.786 245.524 144.521 245.92 145.481 245.92ZM156.912 235.696H160.224C161.364 235.696 162.354 235.93 163.194 236.398C164.034 236.86 164.685 237.514 165.147 238.36C165.609 239.206 165.84 240.202 165.84 241.348C165.84 242.482 165.609 243.472 165.147 244.318C164.685 245.164 164.034 245.824 163.194 246.298C162.354 246.766 161.364 247 160.224 247H156.912V235.696ZM158.316 236.938V245.776H160.224C161.076 245.776 161.808 245.584 162.42 245.2C163.038 244.816 163.512 244.291 163.842 243.625C164.178 242.953 164.346 242.194 164.346 241.348C164.346 240.496 164.178 239.74 163.842 239.08C163.512 238.414 163.038 237.892 162.42 237.514C161.808 237.13 161.076 236.938 160.224 236.938H158.316ZM174.123 247L173.943 245.11V241.42C173.943 240.646 173.778 240.091 173.448 239.755C173.118 239.413 172.623 239.242 171.963 239.242C171.591 239.242 171.252 239.296 170.946 239.404C170.646 239.512 170.406 239.68 170.226 239.908C170.052 240.13 169.965 240.418 169.965 240.772H168.399C168.399 240.148 168.552 239.647 168.858 239.269C169.164 238.885 169.584 238.609 170.118 238.441C170.658 238.267 171.273 238.18 171.963 238.18C172.623 238.18 173.208 238.291 173.718 238.513C174.228 238.735 174.627 239.089 174.915 239.575C175.203 240.055 175.347 240.682 175.347 241.456V247H174.123ZM171.189 247.216C170.481 247.216 169.896 247.09 169.434 246.838C168.972 246.586 168.627 246.259 168.399 245.857C168.171 245.455 168.057 245.032 168.057 244.588C168.057 244.006 168.201 243.532 168.489 243.166C168.783 242.8 169.182 242.533 169.686 242.365C170.19 242.191 170.757 242.104 171.387 242.104C171.837 242.104 172.287 242.149 172.737 242.239C173.193 242.329 173.637 242.452 174.069 242.608V243.49C173.709 243.346 173.301 243.232 172.845 243.148C172.395 243.064 171.981 243.022 171.603 243.022C171.027 243.022 170.541 243.142 170.145 243.382C169.749 243.616 169.551 244.018 169.551 244.588C169.551 245.008 169.701 245.368 170.001 245.668C170.307 245.968 170.793 246.118 171.459 246.118C171.927 246.118 172.347 246.01 172.719 245.794C173.097 245.572 173.394 245.296 173.61 244.966C173.832 244.636 173.943 244.306 173.943 243.976H174.285C174.285 244.552 174.159 245.086 173.907 245.578C173.661 246.07 173.307 246.466 172.845 246.766C172.383 247.066 171.831 247.216 171.189 247.216ZM177.287 238.396H178.853L181.661 245.776H181.337L183.515 238.396H184.955L181.715 248.728C181.445 249.592 181.085 250.258 180.635 250.726C180.185 251.194 179.609 251.428 178.907 251.428C178.529 251.428 178.169 251.374 177.827 251.266C177.491 251.158 177.143 251.002 176.783 250.798V249.502C177.101 249.754 177.407 249.934 177.701 250.042C178.001 250.15 178.313 250.204 178.637 250.204C178.997 250.204 179.297 250.09 179.537 249.862C179.783 249.634 179.987 249.34 180.149 248.98C180.311 248.626 180.449 248.254 180.563 247.864L180.815 247L177.287 238.396ZM190.189 247.216C189.355 247.216 188.659 247.099 188.101 246.865C187.543 246.625 187.12 246.298 186.832 245.884C186.544 245.464 186.391 244.984 186.373 244.444H187.723C187.753 244.99 187.972 245.401 188.38 245.677C188.794 245.947 189.355 246.082 190.063 246.082C190.435 246.082 190.777 246.022 191.089 245.902C191.401 245.782 191.65 245.617 191.836 245.407C192.022 245.197 192.115 244.96 192.115 244.696C192.115 244.36 191.992 244.096 191.746 243.904C191.5 243.712 191.107 243.544 190.567 243.4L188.893 242.86C188.167 242.632 187.609 242.32 187.219 241.924C186.835 241.522 186.643 241.042 186.643 240.484C186.643 239.788 186.949 239.23 187.561 238.81C188.173 238.39 188.977 238.18 189.973 238.18C191.029 238.18 191.848 238.396 192.43 238.828C193.012 239.26 193.315 239.8 193.339 240.448H191.953C191.899 240.07 191.707 239.785 191.377 239.593C191.047 239.395 190.579 239.296 189.973 239.296C189.391 239.296 188.935 239.428 188.605 239.692C188.281 239.95 188.119 240.238 188.119 240.556C188.119 241.15 188.629 241.588 189.649 241.87L191.359 242.446C192.097 242.668 192.661 242.959 193.051 243.319C193.447 243.679 193.645 244.138 193.645 244.696C193.645 245.128 193.504 245.536 193.222 245.92C192.94 246.304 192.541 246.616 192.025 246.856C191.509 247.096 190.897 247.216 190.189 247.216Z" fill="white"/>
<path d="M123.526 225.216C122.638 225.216 121.852 225.075 121.168 224.793C120.49 224.511 119.956 224.124 119.566 223.632C119.182 223.14 118.99 222.582 118.99 221.958C118.99 221.388 119.137 220.899 119.431 220.491C119.731 220.083 120.139 219.771 120.655 219.555C121.177 219.333 121.768 219.222 122.428 219.222C122.602 219.222 122.77 219.231 122.932 219.249C123.094 219.267 123.268 219.3 123.454 219.348V219.762C122.854 219.762 122.329 219.861 121.879 220.059C121.429 220.251 121.078 220.506 120.826 220.824C120.574 221.142 120.448 221.484 120.448 221.85C120.448 222.294 120.583 222.672 120.853 222.984C121.123 223.29 121.489 223.524 121.951 223.686C122.419 223.842 122.944 223.92 123.526 223.92C124.498 223.92 125.254 223.764 125.794 223.452C126.334 223.14 126.604 222.732 126.604 222.228C126.604 221.82 126.46 221.484 126.172 221.22C125.89 220.956 125.5 220.734 125.002 220.554L121.888 219.366C121.51 219.222 121.126 219.024 120.736 218.772C120.352 218.52 120.028 218.205 119.764 217.827C119.5 217.449 119.368 217.002 119.368 216.486C119.368 215.904 119.533 215.388 119.863 214.938C120.193 214.488 120.667 214.137 121.285 213.885C121.909 213.627 122.656 213.498 123.526 213.498C124.324 213.498 125.032 213.636 125.65 213.912C126.274 214.182 126.763 214.554 127.117 215.028C127.471 215.496 127.648 216.03 127.648 216.63C127.648 217.098 127.528 217.533 127.288 217.935C127.054 218.331 126.706 218.652 126.244 218.898C125.788 219.138 125.224 219.258 124.552 219.258C124.39 219.258 124.234 219.249 124.084 219.231C123.94 219.207 123.778 219.168 123.598 219.114V218.664C124.084 218.664 124.522 218.583 124.912 218.421C125.302 218.253 125.611 218.022 125.839 217.728C126.073 217.434 126.19 217.092 126.19 216.702C126.19 216.33 126.076 216 125.848 215.712C125.626 215.418 125.314 215.19 124.912 215.028C124.516 214.86 124.054 214.776 123.526 214.776C123.016 214.776 122.557 214.857 122.149 215.019C121.747 215.175 121.429 215.388 121.195 215.658C120.961 215.922 120.844 216.216 120.844 216.54C120.844 216.942 120.979 217.266 121.249 217.512C121.525 217.752 121.906 217.962 122.392 218.142L125.506 219.33C126.334 219.642 126.97 220.011 127.414 220.437C127.858 220.863 128.08 221.442 128.08 222.174C128.08 222.768 127.9 223.296 127.54 223.758C127.18 224.214 126.661 224.571 125.983 224.829C125.305 225.087 124.486 225.216 123.526 225.216ZM134.133 225.216C133.419 225.216 132.768 225.087 132.18 224.829C131.592 224.571 131.121 224.193 130.767 223.695C130.413 223.191 130.233 222.576 130.227 221.85H131.631C131.631 222.534 131.871 223.05 132.351 223.398C132.837 223.746 133.431 223.92 134.133 223.92C134.943 223.92 135.579 223.674 136.041 223.182C136.509 222.684 136.743 222.072 136.743 221.346C136.743 219.894 135.807 219.168 133.935 219.168H130.911L131.397 213.696H137.661V214.974H132.531L132.819 214.488L132.441 218.43L132.261 218.268C132.549 218.202 132.876 218.157 133.242 218.133C133.608 218.103 133.935 218.088 134.223 218.088C135.447 218.088 136.416 218.361 137.13 218.907C137.844 219.453 138.201 220.266 138.201 221.346C138.201 222.078 138.036 222.738 137.706 223.326C137.376 223.908 136.905 224.37 136.293 224.712C135.687 225.048 134.967 225.216 134.133 225.216ZM141.215 225L148.829 213.696H150.287L142.673 225H141.215ZM148.901 225.18C148.505 225.18 148.133 225.084 147.785 224.892C147.437 224.694 147.155 224.403 146.939 224.019C146.723 223.635 146.615 223.158 146.615 222.588C146.615 222.024 146.723 221.553 146.939 221.175C147.155 220.791 147.437 220.503 147.785 220.311C148.133 220.113 148.505 220.014 148.901 220.014C149.315 220.014 149.699 220.113 150.053 220.311C150.407 220.503 150.689 220.791 150.899 221.175C151.115 221.553 151.223 222.024 151.223 222.588C151.223 223.158 151.115 223.635 150.899 224.019C150.689 224.403 150.407 224.694 150.053 224.892C149.699 225.084 149.315 225.18 148.901 225.18ZM148.901 224.208C149.255 224.208 149.54 224.079 149.756 223.821C149.978 223.563 150.089 223.152 150.089 222.588C150.089 222.036 149.978 221.628 149.756 221.364C149.54 221.1 149.255 220.968 148.901 220.968C148.553 220.968 148.271 221.1 148.055 221.364C147.839 221.628 147.731 222.036 147.731 222.588C147.731 223.152 147.839 223.563 148.055 223.821C148.271 224.079 148.553 224.208 148.901 224.208ZM142.601 218.646C142.205 218.646 141.833 218.55 141.485 218.358C141.137 218.16 140.855 217.872 140.639 217.494C140.423 217.11 140.315 216.636 140.315 216.072C140.315 215.508 140.423 215.037 140.639 214.659C140.855 214.275 141.137 213.987 141.485 213.795C141.833 213.597 142.205 213.498 142.601 213.498C143.009 213.498 143.39 213.597 143.744 213.795C144.098 213.987 144.383 214.275 144.599 214.659C144.815 215.037 144.923 215.508 144.923 216.072C144.923 216.636 144.815 217.11 144.599 217.494C144.383 217.872 144.098 218.16 143.744 218.358C143.39 218.55 143.009 218.646 142.601 218.646ZM142.601 217.692C142.943 217.692 143.222 217.563 143.438 217.305C143.66 217.041 143.771 216.63 143.771 216.072C143.771 215.514 143.66 215.103 143.438 214.839C143.222 214.569 142.943 214.434 142.601 214.434C142.253 214.434 141.971 214.569 141.755 214.839C141.539 215.103 141.431 215.514 141.431 216.072C141.431 216.63 141.539 217.041 141.755 217.305C141.971 217.563 142.253 217.692 142.601 217.692Z" fill="white"/>
<path d="M114.988 5.66H116.122V17H114.718V7.316C114.43 7.514 114.127 7.667 113.809 7.775C113.497 7.877 113.182 7.934 112.864 7.946V6.578C113.242 6.524 113.608 6.425 113.962 6.281C114.322 6.137 114.664 5.93 114.988 5.66ZM123.287 17.216C122.399 17.216 121.622 17 120.956 16.568C120.296 16.136 119.78 15.485 119.408 14.615C119.042 13.745 118.859 12.656 118.859 11.348C118.859 10.04 119.042 8.954 119.408 8.09C119.78 7.22 120.296 6.572 120.956 6.146C121.622 5.714 122.399 5.498 123.287 5.498C124.169 5.498 124.943 5.714 125.609 6.146C126.275 6.572 126.791 7.22 127.157 8.09C127.529 8.954 127.715 10.04 127.715 11.348C127.715 12.656 127.529 13.745 127.157 14.615C126.791 15.485 126.275 16.136 125.609 16.568C124.943 17 124.169 17.216 123.287 17.216ZM123.287 15.92C124.259 15.92 124.997 15.524 125.501 14.732C126.005 13.934 126.257 12.806 126.257 11.348C126.257 9.89 126.005 8.765 125.501 7.973C124.997 7.175 124.259 6.776 123.287 6.776C122.327 6.776 121.592 7.175 121.082 7.973C120.572 8.765 120.317 9.89 120.317 11.348C120.317 12.806 120.572 13.934 121.082 14.732C121.592 15.524 122.327 15.92 123.287 15.92ZM133.975 17.216C133.087 17.216 132.31 17 131.644 16.568C130.984 16.136 130.468 15.485 130.096 14.615C129.73 13.745 129.547 12.656 129.547 11.348C129.547 10.04 129.73 8.954 130.096 8.09C130.468 7.22 130.984 6.572 131.644 6.146C132.31 5.714 133.087 5.498 133.975 5.498C134.857 5.498 135.631 5.714 136.297 6.146C136.963 6.572 137.479 7.22 137.845 8.09C138.217 8.954 138.403 10.04 138.403 11.348C138.403 12.656 138.217 13.745 137.845 14.615C137.479 15.485 136.963 16.136 136.297 16.568C135.631 17 134.857 17.216 133.975 17.216ZM133.975 15.92C134.947 15.92 135.685 15.524 136.189 14.732C136.693 13.934 136.945 12.806 136.945 11.348C136.945 9.89 136.693 8.765 136.189 7.973C135.685 7.175 134.947 6.776 133.975 6.776C133.015 6.776 132.28 7.175 131.77 7.973C131.26 8.765 131.005 9.89 131.005 11.348C131.005 12.806 131.26 13.934 131.77 14.732C132.28 15.524 133.015 15.92 133.975 15.92ZM141.314 17L148.928 5.696H150.386L142.772 17H141.314ZM149 17.18C148.604 17.18 148.232 17.084 147.884 16.892C147.536 16.694 147.254 16.403 147.038 16.019C146.822 15.635 146.714 15.158 146.714 14.588C146.714 14.024 146.822 13.553 147.038 13.175C147.254 12.791 147.536 12.503 147.884 12.311C148.232 12.113 148.604 12.014 149 12.014C149.414 12.014 149.798 12.113 150.152 12.311C150.506 12.503 150.788 12.791 150.998 13.175C151.214 13.553 151.322 14.024 151.322 14.588C151.322 15.158 151.214 15.635 150.998 16.019C150.788 16.403 150.506 16.694 150.152 16.892C149.798 17.084 149.414 17.18 149 17.18ZM149 16.208C149.354 16.208 149.639 16.079 149.855 15.821C150.077 15.563 150.188 15.152 150.188 14.588C150.188 14.036 150.077 13.628 149.855 13.364C149.639 13.1 149.354 12.968 149 12.968C148.652 12.968 148.37 13.1 148.154 13.364C147.938 13.628 147.83 14.036 147.83 14.588C147.83 15.152 147.938 15.563 148.154 15.821C148.37 16.079 148.652 16.208 149 16.208ZM142.7 10.646C142.304 10.646 141.932 10.55 141.584 10.358C141.236 10.16 140.954 9.872 140.738 9.494C140.522 9.11 140.414 8.636 140.414 8.072C140.414 7.508 140.522 7.037 140.738 6.659C140.954 6.275 141.236 5.987 141.584 5.795C141.932 5.597 142.304 5.498 142.7 5.498C143.108 5.498 143.489 5.597 143.843 5.795C144.197 5.987 144.482 6.275 144.698 6.659C144.914 7.037 145.022 7.508 145.022 8.072C145.022 8.636 144.914 9.11 144.698 9.494C144.482 9.872 144.197 10.16 143.843 10.358C143.489 10.55 143.108 10.646 142.7 10.646ZM142.7 9.692C143.042 9.692 143.321 9.563 143.537 9.305C143.759 9.041 143.87 8.63 143.87 8.072C143.87 7.514 143.759 7.103 143.537 6.839C143.321 6.569 143.042 6.434 142.7 6.434C142.352 6.434 142.07 6.569 141.854 6.839C141.638 7.103 141.53 7.514 141.53 8.072C141.53 8.63 141.638 9.041 141.854 9.305C142.07 9.563 142.352 9.692 142.7 9.692Z" fill="white"/>
<rect width="36" height="22" transform="translate(181 13)" fill="#171922"/>
<path d="M188.112 30.216C187.368 30.216 186.705 30.063 186.123 29.757C185.547 29.451 185.091 29.031 184.755 28.497C184.425 27.957 184.26 27.342 184.26 26.652H185.718C185.736 27.342 185.952 27.894 186.366 28.308C186.786 28.716 187.356 28.92 188.076 28.92C188.784 28.92 189.357 28.716 189.795 28.308C190.239 27.9 190.563 27.324 190.767 26.58C190.977 25.83 191.082 24.948 191.082 23.934C191.082 23.7 191.076 23.484 191.064 23.286C191.052 23.082 191.028 22.854 190.992 22.602C190.914 23.25 190.728 23.79 190.434 24.222C190.14 24.648 189.762 24.969 189.3 25.185C188.844 25.395 188.328 25.5 187.752 25.5C187.08 25.5 186.474 25.35 185.934 25.05C185.4 24.744 184.974 24.327 184.656 23.799C184.344 23.265 184.188 22.656 184.188 21.972C184.188 21.27 184.347 20.658 184.665 20.136C184.989 19.614 185.439 19.212 186.015 18.93C186.591 18.642 187.26 18.498 188.022 18.498C188.67 18.498 189.267 18.63 189.813 18.894C190.365 19.158 190.842 19.539 191.244 20.037C191.646 20.529 191.958 21.12 192.18 21.81C192.408 22.5 192.522 23.274 192.522 24.132C192.522 25.374 192.363 26.451 192.045 27.363C191.733 28.275 191.25 28.98 190.596 29.478C189.948 29.97 189.12 30.216 188.112 30.216ZM188.022 24.258C188.466 24.258 188.868 24.159 189.228 23.961C189.588 23.763 189.873 23.496 190.083 23.16C190.293 22.824 190.398 22.446 190.398 22.026C190.398 21.33 190.167 20.781 189.705 20.379C189.249 19.977 188.688 19.776 188.022 19.776C187.338 19.776 186.771 19.977 186.321 20.379C185.871 20.781 185.646 21.33 185.646 22.026C185.646 22.716 185.871 23.262 186.321 23.664C186.771 24.06 187.338 24.258 188.022 24.258ZM194.503 30L199.921 20.028H193.873V18.696H201.577V19.992L196.375 30H194.503ZM203.894 30L211.508 18.696H212.966L205.352 30H203.894ZM211.58 30.18C211.184 30.18 210.812 30.084 210.464 29.892C210.116 29.694 209.834 29.403 209.618 29.019C209.402 28.635 209.294 28.158 209.294 27.588C209.294 27.024 209.402 26.553 209.618 26.175C209.834 25.791 210.116 25.503 210.464 25.311C210.812 25.113 211.184 25.014 211.58 25.014C211.994 25.014 212.378 25.113 212.732 25.311C213.086 25.503 213.368 25.791 213.578 26.175C213.794 26.553 213.902 27.024 213.902 27.588C213.902 28.158 213.794 28.635 213.578 29.019C213.368 29.403 213.086 29.694 212.732 29.892C212.378 30.084 211.994 30.18 211.58 30.18ZM211.58 29.208C211.934 29.208 212.219 29.079 212.435 28.821C212.657 28.563 212.768 28.152 212.768 27.588C212.768 27.036 212.657 26.628 212.435 26.364C212.219 26.1 211.934 25.968 211.58 25.968C211.232 25.968 210.95 26.1 210.734 26.364C210.518 26.628 210.41 27.036 210.41 27.588C210.41 28.152 210.518 28.563 210.734 28.821C210.95 29.079 211.232 29.208 211.58 29.208ZM205.28 23.646C204.884 23.646 204.512 23.55 204.164 23.358C203.816 23.16 203.534 22.872 203.318 22.494C203.102 22.11 202.994 21.636 202.994 21.072C202.994 20.508 203.102 20.037 203.318 19.659C203.534 19.275 203.816 18.987 204.164 18.795C204.512 18.597 204.884 18.498 205.28 18.498C205.688 18.498 206.069 18.597 206.423 18.795C206.777 18.987 207.062 19.275 207.278 19.659C207.494 20.037 207.602 20.508 207.602 21.072C207.602 21.636 207.494 22.11 207.278 22.494C207.062 22.872 206.777 23.16 206.423 23.358C206.069 23.55 205.688 23.646 205.28 23.646ZM205.28 22.692C205.622 22.692 205.901 22.563 206.117 22.305C206.339 22.041 206.45 21.63 206.45 21.072C206.45 20.514 206.339 20.103 206.117 19.839C205.901 19.569 205.622 19.434 205.28 19.434C204.932 19.434 204.65 19.569 204.434 19.839C204.218 20.103 204.11 20.514 204.11 21.072C204.11 21.63 204.218 22.041 204.434 22.305C204.65 22.563 204.932 22.692 205.28 22.692Z" fill="white"/>
<path d="M353.846 247.216C353.282 247.216 352.736 247.138 352.208 246.982C351.686 246.82 351.215 246.586 350.795 246.28C350.381 245.968 350.054 245.584 349.814 245.128C349.574 244.672 349.454 244.144 349.454 243.544H350.894C350.906 244.06 351.044 244.495 351.308 244.849C351.572 245.203 351.923 245.47 352.361 245.65C352.805 245.83 353.3 245.92 353.846 245.92C354.686 245.92 355.337 245.716 355.799 245.308C356.261 244.9 356.492 244.39 356.492 243.778C356.492 243.388 356.396 243.043 356.204 242.743C356.012 242.443 355.706 242.209 355.286 242.041C354.872 241.867 354.326 241.78 353.648 241.78H352.37V240.664H353.234C354.11 240.664 354.8 240.49 355.304 240.142C355.808 239.794 356.06 239.314 356.06 238.702C356.06 238.162 355.856 237.706 355.448 237.334C355.04 236.962 354.458 236.776 353.702 236.776C353.12 236.776 352.601 236.896 352.145 237.136C351.689 237.37 351.38 237.802 351.218 238.432H349.778C349.874 237.73 350.102 237.163 350.462 236.731C350.822 236.299 351.278 235.987 351.83 235.795C352.382 235.597 352.994 235.498 353.666 235.498C354.416 235.498 355.085 235.63 355.673 235.894C356.261 236.158 356.723 236.521 357.059 236.983C357.401 237.445 357.572 237.976 357.572 238.576C357.572 239.17 357.401 239.68 357.059 240.106C356.723 240.526 356.234 240.85 355.592 241.078C356.306 241.282 356.888 241.618 357.338 242.086C357.794 242.554 358.022 243.154 358.022 243.886C358.022 244.534 357.851 245.11 357.509 245.614C357.173 246.112 356.693 246.505 356.069 246.793C355.445 247.075 354.704 247.216 353.846 247.216ZM364.553 247.216C363.647 247.216 362.855 246.967 362.177 246.469C361.505 245.971 360.983 245.296 360.611 244.444C360.239 243.586 360.053 242.62 360.053 241.546C360.053 240.28 360.242 239.197 360.62 238.297C360.998 237.391 361.538 236.698 362.24 236.218C362.942 235.738 363.779 235.498 364.751 235.498C365.423 235.498 366.014 235.627 366.524 235.885C367.04 236.137 367.451 236.491 367.757 236.947C368.069 237.403 368.255 237.934 368.315 238.54H366.785C366.695 238 366.491 237.571 366.173 237.253C365.855 236.935 365.393 236.776 364.787 236.776C363.755 236.776 362.945 237.223 362.357 238.117C361.769 239.005 361.475 240.22 361.475 241.762C361.475 241.984 361.481 242.242 361.493 242.536C361.505 242.824 361.529 243.094 361.565 243.346C361.619 242.548 361.802 241.921 362.114 241.465C362.432 241.003 362.828 240.676 363.302 240.484C363.776 240.292 364.277 240.196 364.805 240.196C365.489 240.196 366.101 240.346 366.641 240.646C367.187 240.946 367.616 241.363 367.928 241.897C368.246 242.425 368.405 243.034 368.405 243.724C368.405 244.42 368.243 245.032 367.919 245.56C367.595 246.082 367.142 246.49 366.56 246.784C365.984 247.072 365.315 247.216 364.553 247.216ZM364.553 245.92C365.237 245.92 365.804 245.719 366.254 245.317C366.704 244.915 366.929 244.372 366.929 243.688C366.929 242.986 366.704 242.437 366.254 242.041C365.804 241.639 365.237 241.438 364.553 241.438C364.103 241.438 363.701 241.537 363.347 241.735C362.993 241.927 362.711 242.194 362.501 242.536C362.297 242.872 362.195 243.256 362.195 243.688C362.195 244.372 362.42 244.915 362.87 245.317C363.32 245.719 363.881 245.92 364.553 245.92ZM374.512 247.216C373.798 247.216 373.147 247.087 372.559 246.829C371.971 246.571 371.5 246.193 371.146 245.695C370.792 245.191 370.612 244.576 370.606 243.85H372.01C372.01 244.534 372.25 245.05 372.73 245.398C373.216 245.746 373.81 245.92 374.512 245.92C375.322 245.92 375.958 245.674 376.42 245.182C376.888 244.684 377.122 244.072 377.122 243.346C377.122 241.894 376.186 241.168 374.314 241.168H371.29L371.776 235.696H378.04V236.974H372.91L373.198 236.488L372.82 240.43L372.64 240.268C372.928 240.202 373.255 240.157 373.621 240.133C373.987 240.103 374.314 240.088 374.602 240.088C375.826 240.088 376.795 240.361 377.509 240.907C378.223 241.453 378.58 242.266 378.58 243.346C378.58 244.078 378.415 244.738 378.085 245.326C377.755 245.908 377.284 246.37 376.672 246.712C376.066 247.048 375.346 247.216 374.512 247.216ZM385.685 235.696H388.997C390.137 235.696 391.127 235.93 391.967 236.398C392.807 236.86 393.458 237.514 393.92 238.36C394.382 239.206 394.613 240.202 394.613 241.348C394.613 242.482 394.382 243.472 393.92 244.318C393.458 245.164 392.807 245.824 391.967 246.298C391.127 246.766 390.137 247 388.997 247H385.685V235.696ZM387.089 236.938V245.776H388.997C389.849 245.776 390.581 245.584 391.193 245.2C391.811 244.816 392.285 244.291 392.615 243.625C392.951 242.953 393.119 242.194 393.119 241.348C393.119 240.496 392.951 239.74 392.615 239.08C392.285 238.414 391.811 237.892 391.193 237.514C390.581 237.13 389.849 236.938 388.997 236.938H387.089ZM402.896 247L402.716 245.11V241.42C402.716 240.646 402.551 240.091 402.221 239.755C401.891 239.413 401.396 239.242 400.736 239.242C400.364 239.242 400.025 239.296 399.719 239.404C399.419 239.512 399.179 239.68 398.999 239.908C398.825 240.13 398.738 240.418 398.738 240.772H397.172C397.172 240.148 397.325 239.647 397.631 239.269C397.937 238.885 398.357 238.609 398.891 238.441C399.431 238.267 400.046 238.18 400.736 238.18C401.396 238.18 401.981 238.291 402.491 238.513C403.001 238.735 403.4 239.089 403.688 239.575C403.976 240.055 404.12 240.682 404.12 241.456V247H402.896ZM399.962 247.216C399.254 247.216 398.669 247.09 398.207 246.838C397.745 246.586 397.4 246.259 397.172 245.857C396.944 245.455 396.83 245.032 396.83 244.588C396.83 244.006 396.974 243.532 397.262 243.166C397.556 242.8 397.955 242.533 398.459 242.365C398.963 242.191 399.53 242.104 400.16 242.104C400.61 242.104 401.06 242.149 401.51 242.239C401.966 242.329 402.41 242.452 402.842 242.608V243.49C402.482 243.346 402.074 243.232 401.618 243.148C401.168 243.064 400.754 243.022 400.376 243.022C399.8 243.022 399.314 243.142 398.918 243.382C398.522 243.616 398.324 244.018 398.324 244.588C398.324 245.008 398.474 245.368 398.774 245.668C399.08 245.968 399.566 246.118 400.232 246.118C400.7 246.118 401.12 246.01 401.492 245.794C401.87 245.572 402.167 245.296 402.383 244.966C402.605 244.636 402.716 244.306 402.716 243.976H403.058C403.058 244.552 402.932 245.086 402.68 245.578C402.434 246.07 402.08 246.466 401.618 246.766C401.156 247.066 400.604 247.216 399.962 247.216ZM406.06 238.396H407.626L410.434 245.776H410.11L412.288 238.396H413.728L410.488 248.728C410.218 249.592 409.858 250.258 409.408 250.726C408.958 251.194 408.382 251.428 407.68 251.428C407.302 251.428 406.942 251.374 406.6 251.266C406.264 251.158 405.916 251.002 405.556 250.798V249.502C405.874 249.754 406.18 249.934 406.474 250.042C406.774 250.15 407.086 250.204 407.41 250.204C407.77 250.204 408.07 250.09 408.31 249.862C408.556 249.634 408.76 249.34 408.922 248.98C409.084 248.626 409.222 248.254 409.336 247.864L409.588 247L406.06 238.396ZM418.963 247.216C418.129 247.216 417.433 247.099 416.875 246.865C416.317 246.625 415.894 246.298 415.606 245.884C415.318 245.464 415.165 244.984 415.147 244.444H416.497C416.527 244.99 416.746 245.401 417.154 245.677C417.568 245.947 418.129 246.082 418.837 246.082C419.209 246.082 419.551 246.022 419.863 245.902C420.175 245.782 420.424 245.617 420.61 245.407C420.796 245.197 420.889 244.96 420.889 244.696C420.889 244.36 420.766 244.096 420.52 243.904C420.274 243.712 419.881 243.544 419.341 243.4L417.667 242.86C416.941 242.632 416.383 242.32 415.993 241.924C415.609 241.522 415.417 241.042 415.417 240.484C415.417 239.788 415.723 239.23 416.335 238.81C416.947 238.39 417.751 238.18 418.747 238.18C419.803 238.18 420.622 238.396 421.204 238.828C421.786 239.26 422.089 239.8 422.113 240.448H420.727C420.673 240.07 420.481 239.785 420.151 239.593C419.821 239.395 419.353 239.296 418.747 239.296C418.165 239.296 417.709 239.428 417.379 239.692C417.055 239.95 416.893 240.238 416.893 240.556C416.893 241.15 417.403 241.588 418.423 241.87L420.133 242.446C420.871 242.668 421.435 242.959 421.825 243.319C422.221 243.679 422.419 244.138 422.419 244.696C422.419 245.128 422.278 245.536 421.996 245.92C421.714 246.304 421.315 246.616 420.799 246.856C420.283 247.096 419.671 247.216 418.963 247.216Z" fill="white"/>
<path d="M221.584 146.146V145.208H228.43V146.146H225.301L225.546 145.894V154H224.454V145.894L224.699 146.146H221.584ZM234.688 154V150.066C234.688 149.427 234.534 148.941 234.226 148.61C233.922 148.274 233.507 148.106 232.98 148.106C232.578 148.106 232.231 148.216 231.937 148.435C231.643 148.654 231.416 148.969 231.258 149.38C231.099 149.786 231.02 150.271 231.02 150.836H230.6C230.6 150.057 230.702 149.392 230.908 148.841C231.113 148.29 231.412 147.87 231.804 147.581C232.2 147.287 232.681 147.14 233.246 147.14C233.773 147.14 234.223 147.259 234.597 147.497C234.975 147.73 235.264 148.066 235.465 148.505C235.665 148.944 235.766 149.464 235.766 150.066V154H234.688ZM229.928 154V144.452H231.02V154H229.928ZM240.701 154.168C240.122 154.168 239.604 154.021 239.147 153.727C238.694 153.428 238.335 153.015 238.069 152.488C237.808 151.961 237.677 151.354 237.677 150.668C237.677 149.935 237.808 149.305 238.069 148.778C238.33 148.251 238.687 147.847 239.14 147.567C239.597 147.282 240.118 147.14 240.701 147.14C241.21 147.14 241.644 147.243 242.003 147.448C242.362 147.653 242.652 147.931 242.871 148.281C243.09 148.631 243.242 149.028 243.326 149.471C243.415 149.91 243.44 150.365 243.403 150.836H238.559V150.164H242.682L242.36 150.374C242.374 150.099 242.358 149.823 242.311 149.548C242.269 149.273 242.187 149.021 242.066 148.792C241.945 148.559 241.774 148.372 241.555 148.232C241.336 148.092 241.056 148.022 240.715 148.022C240.286 148.022 239.926 148.132 239.637 148.351C239.348 148.57 239.131 148.86 238.986 149.219C238.841 149.574 238.769 149.959 238.769 150.374V150.822C238.769 151.289 238.839 151.706 238.979 152.075C239.124 152.444 239.338 152.735 239.623 152.95C239.908 153.165 240.267 153.272 240.701 153.272C241.135 153.272 241.492 153.167 241.772 152.957C242.052 152.747 242.222 152.437 242.283 152.026H243.417C243.347 152.469 243.188 152.852 242.941 153.174C242.694 153.491 242.379 153.736 241.996 153.909C241.613 154.082 241.182 154.168 240.701 154.168ZM248.891 154V144.452H249.983V154H248.891ZM253.43 145.726C253.206 145.726 253.029 145.663 252.898 145.537C252.768 145.406 252.702 145.236 252.702 145.026C252.702 144.821 252.768 144.657 252.898 144.536C253.029 144.415 253.206 144.354 253.43 144.354C253.654 144.354 253.832 144.415 253.962 144.536C254.093 144.657 254.158 144.821 254.158 145.026C254.158 145.236 254.093 145.406 253.962 145.537C253.832 145.663 253.654 145.726 253.43 145.726ZM252.884 154V147.294H253.976V154H252.884ZM256.984 154V144.452H258.076V154H256.984ZM257.908 150.164L261.324 147.308H262.85L257.908 151.326V150.164ZM261.66 154L258.482 149.772L259.588 149.576L263.004 154H261.66ZM267.197 154.168C266.618 154.168 266.1 154.021 265.643 153.727C265.19 153.428 264.831 153.015 264.565 152.488C264.304 151.961 264.173 151.354 264.173 150.668C264.173 149.935 264.304 149.305 264.565 148.778C264.826 148.251 265.183 147.847 265.636 147.567C266.093 147.282 266.614 147.14 267.197 147.14C267.706 147.14 268.14 147.243 268.499 147.448C268.858 147.653 269.148 147.931 269.367 148.281C269.586 148.631 269.738 149.028 269.822 149.471C269.911 149.91 269.936 150.365 269.899 150.836H265.055V150.164H269.178L268.856 150.374C268.87 150.099 268.854 149.823 268.807 149.548C268.765 149.273 268.683 149.021 268.562 148.792C268.441 148.559 268.27 148.372 268.051 148.232C267.832 148.092 267.552 148.022 267.211 148.022C266.782 148.022 266.422 148.132 266.133 148.351C265.844 148.57 265.627 148.86 265.482 149.219C265.337 149.574 265.265 149.959 265.265 150.374V150.822C265.265 151.289 265.335 151.706 265.475 152.075C265.62 152.444 265.834 152.735 266.119 152.95C266.404 153.165 266.763 153.272 267.197 153.272C267.631 153.272 267.988 153.167 268.268 152.957C268.548 152.747 268.718 152.437 268.779 152.026H269.913C269.843 152.469 269.684 152.852 269.437 153.174C269.19 153.491 268.875 153.736 268.492 153.909C268.109 154.082 267.678 154.168 267.197 154.168ZM272.064 154V144.452H273.156V154H272.064ZM276.604 145.726C276.38 145.726 276.203 145.663 276.072 145.537C275.942 145.406 275.876 145.236 275.876 145.026C275.876 144.821 275.942 144.657 276.072 144.536C276.203 144.415 276.38 144.354 276.604 144.354C276.828 144.354 277.006 144.415 277.136 144.536C277.267 144.657 277.332 144.821 277.332 145.026C277.332 145.236 277.267 145.406 277.136 145.537C277.006 145.663 276.828 145.726 276.604 145.726ZM276.058 154V147.294H277.15V154H276.058ZM284.918 154V150.066C284.918 149.427 284.764 148.941 284.456 148.61C284.153 148.274 283.737 148.106 283.21 148.106C282.809 148.106 282.461 148.216 282.167 148.435C281.873 148.654 281.647 148.969 281.488 149.38C281.329 149.786 281.25 150.271 281.25 150.836H280.83C280.83 150.057 280.933 149.392 281.138 148.841C281.343 148.29 281.642 147.87 282.034 147.581C282.431 147.287 282.911 147.14 283.476 147.14C284.003 147.14 284.454 147.259 284.827 147.497C285.205 147.73 285.494 148.066 285.695 148.505C285.896 148.944 285.996 149.464 285.996 150.066V154H284.918ZM280.158 154V144.452H281.25V154H280.158ZM291.029 154.168C290.427 154.168 289.891 154.035 289.419 153.769C288.953 153.503 288.584 153.109 288.313 152.586C288.043 152.063 287.907 151.419 287.907 150.654C287.907 149.884 288.043 149.24 288.313 148.722C288.584 148.199 288.953 147.805 289.419 147.539C289.891 147.273 290.427 147.14 291.029 147.14C291.627 147.14 292.159 147.273 292.625 147.539C293.097 147.805 293.465 148.199 293.731 148.722C294.002 149.24 294.137 149.884 294.137 150.654C294.137 151.419 294.002 152.063 293.731 152.586C293.465 153.109 293.097 153.503 292.625 153.769C292.159 154.035 291.627 154.168 291.029 154.168ZM291.001 153.216C291.435 153.216 291.804 153.113 292.107 152.908C292.411 152.698 292.639 152.402 292.793 152.019C292.952 151.636 293.031 151.181 293.031 150.654C293.031 149.856 292.866 149.228 292.534 148.771C292.203 148.309 291.711 148.078 291.057 148.078C290.619 148.078 290.248 148.183 289.944 148.393C289.646 148.598 289.417 148.895 289.258 149.282C289.104 149.665 289.027 150.122 289.027 150.654C289.027 151.443 289.193 152.068 289.524 152.53C289.86 152.987 290.353 153.216 291.001 153.216ZM298.686 154.168C298.084 154.168 297.547 154.035 297.076 153.769C296.609 153.503 296.24 153.109 295.97 152.586C295.699 152.063 295.564 151.419 295.564 150.654C295.564 149.884 295.699 149.24 295.97 148.722C296.24 148.199 296.609 147.805 297.076 147.539C297.547 147.273 298.084 147.14 298.686 147.14C299.283 147.14 299.815 147.273 300.282 147.539C300.753 147.805 301.122 148.199 301.388 148.722C301.658 149.24 301.794 149.884 301.794 150.654C301.794 151.419 301.658 152.063 301.388 152.586C301.122 153.109 300.753 153.503 300.282 153.769C299.815 154.035 299.283 154.168 298.686 154.168ZM298.658 153.216C299.092 153.216 299.46 153.113 299.764 152.908C300.067 152.698 300.296 152.402 300.45 152.019C300.608 151.636 300.688 151.181 300.688 150.654C300.688 149.856 300.522 149.228 300.191 148.771C299.859 148.309 299.367 148.078 298.714 148.078C298.275 148.078 297.904 148.183 297.601 148.393C297.302 148.598 297.073 148.895 296.915 149.282C296.761 149.665 296.684 150.122 296.684 150.654C296.684 151.443 296.849 152.068 297.181 152.53C297.517 152.987 298.009 153.216 298.658 153.216ZM306.314 154.168C305.773 154.168 305.276 154.023 304.823 153.734C304.37 153.44 304.009 153.029 303.738 152.502C303.467 151.97 303.332 151.345 303.332 150.626C303.332 149.912 303.465 149.294 303.731 148.771C303.997 148.248 304.349 147.847 304.788 147.567C305.231 147.282 305.717 147.14 306.244 147.14C306.734 147.14 307.163 147.259 307.532 147.497C307.905 147.735 308.195 148.078 308.4 148.526C308.605 148.974 308.708 149.515 308.708 150.15H308.288C308.288 149.707 308.199 149.333 308.022 149.03C307.849 148.727 307.623 148.498 307.343 148.344C307.063 148.185 306.762 148.106 306.44 148.106C306.076 148.106 305.742 148.209 305.439 148.414C305.14 148.615 304.9 148.904 304.718 149.282C304.541 149.655 304.452 150.103 304.452 150.626C304.452 151.158 304.541 151.615 304.718 151.998C304.9 152.381 305.14 152.675 305.439 152.88C305.742 153.085 306.076 153.188 306.44 153.188C306.743 153.188 307.035 153.109 307.315 152.95C307.6 152.791 307.833 152.56 308.015 152.257C308.197 151.949 308.288 151.578 308.288 151.144H308.708C308.708 151.793 308.601 152.343 308.386 152.796C308.176 153.244 307.889 153.585 307.525 153.818C307.166 154.051 306.762 154.168 306.314 154.168ZM308.47 154L308.288 152.432V144.452H309.38V154H308.47ZM317.963 154.168C317.361 154.168 316.824 154.035 316.353 153.769C315.886 153.503 315.518 153.109 315.247 152.586C314.976 152.063 314.841 151.419 314.841 150.654C314.841 149.884 314.976 149.24 315.247 148.722C315.518 148.199 315.886 147.805 316.353 147.539C316.824 147.273 317.361 147.14 317.963 147.14C318.56 147.14 319.092 147.273 319.559 147.539C320.03 147.805 320.399 148.199 320.665 148.722C320.936 149.24 321.071 149.884 321.071 150.654C321.071 151.419 320.936 152.063 320.665 152.586C320.399 153.109 320.03 153.503 319.559 153.769C319.092 154.035 318.56 154.168 317.963 154.168ZM317.935 153.216C318.369 153.216 318.738 153.113 319.041 152.908C319.344 152.698 319.573 152.402 319.727 152.019C319.886 151.636 319.965 151.181 319.965 150.654C319.965 149.856 319.799 149.228 319.468 148.771C319.137 148.309 318.644 148.078 317.991 148.078C317.552 148.078 317.181 148.183 316.878 148.393C316.579 148.598 316.351 148.895 316.192 149.282C316.038 149.665 315.961 150.122 315.961 150.654C315.961 151.443 316.127 152.068 316.458 152.53C316.794 152.987 317.286 153.216 317.935 153.216ZM323.561 154V146.272C323.561 145.829 323.645 145.467 323.813 145.187C323.986 144.902 324.215 144.692 324.499 144.557C324.789 144.422 325.111 144.354 325.465 144.354C325.657 144.354 325.85 144.368 326.046 144.396C326.247 144.424 326.445 144.466 326.641 144.522L326.431 145.39C326.291 145.334 326.151 145.292 326.011 145.264C325.876 145.236 325.745 145.222 325.619 145.222C325.47 145.222 325.321 145.25 325.171 145.306C325.022 145.362 324.898 145.467 324.8 145.621C324.702 145.775 324.653 145.997 324.653 146.286V154H323.561ZM322.469 148.064V147.308H326.039V148.064H322.469ZM222.914 167.208H225.49C226.377 167.208 227.147 167.39 227.8 167.754C228.453 168.113 228.96 168.622 229.319 169.28C229.678 169.938 229.858 170.713 229.858 171.604C229.858 172.486 229.678 173.256 229.319 173.914C228.96 174.572 228.453 175.085 227.8 175.454C227.147 175.818 226.377 176 225.49 176H222.914V167.208ZM224.006 168.174V175.048H225.49C226.153 175.048 226.722 174.899 227.198 174.6C227.679 174.301 228.047 173.893 228.304 173.375C228.565 172.852 228.696 172.262 228.696 171.604C228.696 170.941 228.565 170.353 228.304 169.84C228.047 169.322 227.679 168.916 227.198 168.622C226.722 168.323 226.153 168.174 225.49 168.174H224.006ZM235.208 176.168C234.434 176.168 233.766 175.974 233.206 175.587C232.646 175.195 232.215 174.654 231.911 173.963C231.608 173.268 231.456 172.463 231.456 171.548C231.456 170.573 231.62 169.751 231.946 169.084C232.278 168.417 232.726 167.913 233.29 167.572C233.86 167.227 234.499 167.054 235.208 167.054C236.146 167.054 236.9 167.29 237.469 167.761C238.043 168.228 238.438 168.837 238.652 169.588L237.476 169.826C237.294 169.28 237.003 168.846 236.601 168.524C236.205 168.197 235.74 168.034 235.208 168.034C234.746 168.034 234.319 168.167 233.927 168.433C233.54 168.694 233.227 169.086 232.989 169.609C232.751 170.132 232.632 170.778 232.632 171.548C232.632 172.248 232.726 172.871 232.912 173.417C233.104 173.963 233.388 174.392 233.766 174.705C234.149 175.018 234.63 175.174 235.208 175.174C235.904 175.174 236.454 174.987 236.86 174.614C237.271 174.241 237.476 173.751 237.476 173.144H238.666C238.666 173.774 238.522 174.315 238.232 174.768C237.943 175.216 237.537 175.561 237.014 175.804C236.496 176.047 235.894 176.168 235.208 176.168ZM239.692 176L242.716 167.208H244.046L247 176H245.852L245.11 173.746H241.61L240.84 176H239.692ZM241.89 172.892H244.83L243.36 168.538L241.89 172.892ZM250.517 169.126H251.595V172.094H254.493V173.032H251.595V176H250.517V173.032H247.619V172.094H250.517V169.126ZM261.908 176.168C261.306 176.168 260.77 176.035 260.298 175.769C259.832 175.503 259.463 175.109 259.192 174.586C258.922 174.063 258.786 173.419 258.786 172.654C258.786 171.884 258.922 171.24 259.192 170.722C259.463 170.199 259.832 169.805 260.298 169.539C260.77 169.273 261.306 169.14 261.908 169.14C262.506 169.14 263.038 169.273 263.504 169.539C263.976 169.805 264.344 170.199 264.61 170.722C264.881 171.24 265.016 171.884 265.016 172.654C265.016 173.419 264.881 174.063 264.61 174.586C264.344 175.109 263.976 175.503 263.504 175.769C263.038 176.035 262.506 176.168 261.908 176.168ZM261.88 175.216C262.314 175.216 262.683 175.113 262.986 174.908C263.29 174.698 263.518 174.402 263.672 174.019C263.831 173.636 263.91 173.181 263.91 172.654C263.91 171.856 263.745 171.228 263.413 170.771C263.082 170.309 262.59 170.078 261.936 170.078C261.498 170.078 261.127 170.183 260.823 170.393C260.525 170.598 260.296 170.895 260.137 171.282C259.983 171.665 259.906 172.122 259.906 172.654C259.906 173.443 260.072 174.068 260.403 174.53C260.739 174.987 261.232 175.216 261.88 175.216ZM271.693 169.294H272.785V176H271.693V169.294ZM266.947 169.294H268.039V173.466C268.039 174.026 268.174 174.451 268.445 174.74C268.72 175.029 269.112 175.174 269.621 175.174C270.041 175.174 270.405 175.062 270.713 174.838C271.025 174.614 271.266 174.306 271.434 173.914C271.606 173.517 271.693 173.065 271.693 172.556H272.099C272.099 173.307 271.989 173.949 271.77 174.481C271.555 175.013 271.249 175.421 270.853 175.706C270.461 175.986 269.999 176.126 269.467 176.126C268.963 176.126 268.522 176.033 268.144 175.846C267.766 175.659 267.472 175.377 267.262 174.999C267.052 174.616 266.947 174.133 266.947 173.55V169.294ZM277.677 176.168C277.313 176.168 276.986 176.098 276.697 175.958C276.408 175.818 276.179 175.608 276.011 175.328C275.843 175.048 275.759 174.698 275.759 174.278V167.446H276.837V174.25C276.837 174.941 277.159 175.286 277.803 175.286C277.994 175.286 278.179 175.265 278.356 175.223C278.538 175.181 278.741 175.118 278.965 175.034L279.119 175.818C278.881 175.921 278.643 176.005 278.405 176.07C278.172 176.135 277.929 176.168 277.677 176.168ZM274.681 170.064V169.308H278.951V170.064H274.681ZM283.921 176.168C283.431 176.168 283.004 176.056 282.64 175.832C282.28 175.608 282.003 175.281 281.807 174.852C281.611 174.418 281.513 173.891 281.513 173.27H281.975C281.975 173.685 282.061 174.035 282.234 174.32C282.406 174.605 282.63 174.822 282.906 174.971C283.186 175.116 283.482 175.188 283.795 175.188C284.131 175.188 284.453 175.092 284.761 174.901C285.069 174.705 285.321 174.418 285.517 174.04C285.713 173.662 285.811 173.195 285.811 172.64C285.811 172.108 285.72 171.653 285.538 171.275C285.36 170.897 285.12 170.608 284.817 170.407C284.513 170.206 284.177 170.106 283.809 170.106C283.491 170.106 283.193 170.183 282.913 170.337C282.633 170.491 282.406 170.717 282.234 171.016C282.061 171.31 281.975 171.674 281.975 172.108H281.513C281.513 171.459 281.62 170.916 281.835 170.477C282.049 170.034 282.341 169.7 282.71 169.476C283.078 169.252 283.491 169.14 283.949 169.14C284.471 169.14 284.959 169.28 285.412 169.56C285.864 169.84 286.231 170.241 286.511 170.764C286.791 171.287 286.931 171.912 286.931 172.64C286.931 173.377 286.788 174.01 286.504 174.537C286.224 175.064 285.855 175.468 285.398 175.748C284.94 176.028 284.448 176.168 283.921 176.168ZM280.883 179.29V169.308H281.793L281.975 170.876V179.29H280.883ZM291.396 176.168C290.818 176.168 290.3 176.021 289.842 175.727C289.39 175.428 289.03 175.015 288.764 174.488C288.503 173.961 288.372 173.354 288.372 172.668C288.372 171.935 288.503 171.305 288.764 170.778C289.026 170.251 289.383 169.847 289.835 169.567C290.293 169.282 290.813 169.14 291.396 169.14C291.905 169.14 292.339 169.243 292.698 169.448C293.058 169.653 293.347 169.931 293.566 170.281C293.786 170.631 293.937 171.028 294.021 171.471C294.11 171.91 294.136 172.365 294.098 172.836H289.254V172.164H293.377L293.055 172.374C293.069 172.099 293.053 171.823 293.006 171.548C292.964 171.273 292.883 171.021 292.761 170.792C292.64 170.559 292.47 170.372 292.25 170.232C292.031 170.092 291.751 170.022 291.41 170.022C290.981 170.022 290.622 170.132 290.332 170.351C290.043 170.57 289.826 170.86 289.681 171.219C289.537 171.574 289.464 171.959 289.464 172.374V172.822C289.464 173.289 289.534 173.706 289.674 174.075C289.819 174.444 290.034 174.735 290.318 174.95C290.603 175.165 290.962 175.272 291.396 175.272C291.83 175.272 292.187 175.167 292.467 174.957C292.747 174.747 292.918 174.437 292.978 174.026H294.112C294.042 174.469 293.884 174.852 293.636 175.174C293.389 175.491 293.074 175.736 292.691 175.909C292.309 176.082 291.877 176.168 291.396 176.168ZM296.264 176V169.294H297.356V176H296.264ZM297.02 172.976C297.02 172.127 297.101 171.422 297.265 170.862C297.428 170.297 297.666 169.877 297.979 169.602C298.296 169.322 298.681 169.182 299.134 169.182C299.283 169.182 299.418 169.194 299.54 169.217C299.666 169.236 299.792 169.266 299.918 169.308L299.848 170.386C299.717 170.344 299.575 170.309 299.421 170.281C299.267 170.248 299.129 170.232 299.008 170.232C298.611 170.232 298.291 170.346 298.049 170.575C297.806 170.799 297.629 171.116 297.517 171.527C297.409 171.938 297.356 172.421 297.356 172.976H297.02ZM301.686 176V168.272C301.686 167.829 301.77 167.467 301.938 167.187C302.111 166.902 302.34 166.692 302.624 166.557C302.914 166.422 303.236 166.354 303.59 166.354C303.782 166.354 303.975 166.368 304.171 166.396C304.372 166.424 304.57 166.466 304.766 166.522L304.556 167.39C304.416 167.334 304.276 167.292 304.136 167.264C304.001 167.236 303.87 167.222 303.744 167.222C303.595 167.222 303.446 167.25 303.296 167.306C303.147 167.362 303.023 167.467 302.925 167.621C302.827 167.775 302.778 167.997 302.778 168.286V176H301.686ZM300.594 170.064V169.308H304.164V170.064H300.594ZM308.543 176.168C307.941 176.168 307.404 176.035 306.933 175.769C306.466 175.503 306.098 175.109 305.827 174.586C305.556 174.063 305.421 173.419 305.421 172.654C305.421 171.884 305.556 171.24 305.827 170.722C306.098 170.199 306.466 169.805 306.933 169.539C307.404 169.273 307.941 169.14 308.543 169.14C309.14 169.14 309.672 169.273 310.139 169.539C310.61 169.805 310.979 170.199 311.245 170.722C311.516 171.24 311.651 171.884 311.651 172.654C311.651 173.419 311.516 174.063 311.245 174.586C310.979 175.109 310.61 175.503 310.139 175.769C309.672 176.035 309.14 176.168 308.543 176.168ZM308.515 175.216C308.949 175.216 309.318 175.113 309.621 174.908C309.924 174.698 310.153 174.402 310.307 174.019C310.466 173.636 310.545 173.181 310.545 172.654C310.545 171.856 310.379 171.228 310.048 170.771C309.717 170.309 309.224 170.078 308.571 170.078C308.132 170.078 307.761 170.183 307.458 170.393C307.159 170.598 306.931 170.895 306.772 171.282C306.618 171.665 306.541 172.122 306.541 172.654C306.541 173.443 306.707 174.068 307.038 174.53C307.374 174.987 307.866 175.216 308.515 175.216ZM313.777 176V169.294H314.869V176H313.777ZM314.533 172.976C314.533 172.127 314.615 171.422 314.778 170.862C314.942 170.297 315.18 169.877 315.492 169.602C315.81 169.322 316.195 169.182 316.647 169.182C316.797 169.182 316.932 169.194 317.053 169.217C317.179 169.236 317.305 169.266 317.431 169.308L317.361 170.386C317.231 170.344 317.088 170.309 316.934 170.281C316.78 170.248 316.643 170.232 316.521 170.232C316.125 170.232 315.805 170.346 315.562 170.575C315.32 170.799 315.142 171.116 315.03 171.527C314.923 171.938 314.869 172.421 314.869 172.976H314.533ZM328.244 176V172.066C328.244 171.427 328.09 170.941 327.782 170.61C327.479 170.274 327.068 170.106 326.55 170.106C325.943 170.106 325.479 170.342 325.157 170.813C324.835 171.28 324.674 171.926 324.674 172.752H324.17C324.17 172.15 324.228 171.623 324.345 171.17C324.466 170.717 324.641 170.342 324.87 170.043C325.099 169.74 325.376 169.513 325.703 169.364C326.03 169.215 326.401 169.14 326.816 169.14C327.343 169.14 327.794 169.259 328.167 169.497C328.545 169.73 328.834 170.066 329.035 170.505C329.236 170.944 329.336 171.464 329.336 172.066V176H328.244ZM318.836 176V169.308H319.774L319.9 170.652C320.11 170.167 320.404 169.793 320.782 169.532C321.165 169.271 321.622 169.14 322.154 169.14C322.681 169.14 323.132 169.259 323.505 169.497C323.883 169.73 324.172 170.066 324.373 170.505C324.574 170.944 324.674 171.464 324.674 172.066V176H323.596V172.066C323.596 171.427 323.442 170.941 323.134 170.61C322.831 170.274 322.415 170.106 321.888 170.106C321.487 170.106 321.139 170.216 320.845 170.435C320.551 170.654 320.325 170.969 320.166 171.38C320.007 171.786 319.928 172.271 319.928 172.836V176H318.836ZM332.55 167.726C332.326 167.726 332.148 167.663 332.018 167.537C331.887 167.406 331.822 167.236 331.822 167.026C331.822 166.821 331.887 166.657 332.018 166.536C332.148 166.415 332.326 166.354 332.55 166.354C332.774 166.354 332.951 166.415 333.082 166.536C333.212 166.657 333.278 166.821 333.278 167.026C333.278 167.236 333.212 167.406 333.082 167.537C332.951 167.663 332.774 167.726 332.55 167.726ZM332.004 176V169.294H333.096V176H332.004ZM340.863 176V172.066C340.863 171.427 340.709 170.941 340.401 170.61C340.098 170.274 339.683 170.106 339.155 170.106C338.754 170.106 338.406 170.216 338.112 170.435C337.818 170.654 337.592 170.969 337.433 171.38C337.275 171.786 337.195 172.271 337.195 172.836H336.775C336.775 172.057 336.878 171.392 337.083 170.841C337.289 170.29 337.587 169.87 337.979 169.581C338.376 169.287 338.857 169.14 339.421 169.14C339.949 169.14 340.399 169.259 340.772 169.497C341.15 169.73 341.44 170.066 341.64 170.505C341.841 170.944 341.941 171.464 341.941 172.066V176H340.863ZM336.103 176V169.308H337.041L337.195 170.848V176H336.103ZM346.919 179.444C346.233 179.444 345.638 179.346 345.134 179.15C344.63 178.959 344.238 178.7 343.958 178.373C343.682 178.051 343.545 177.694 343.545 177.302C343.545 176.784 343.734 176.387 344.112 176.112C344.494 175.841 344.987 175.706 345.589 175.706L346.191 176.084C345.687 176.084 345.297 176.189 345.022 176.399C344.746 176.609 344.609 176.896 344.609 177.26C344.609 177.624 344.805 177.932 345.197 178.184C345.589 178.436 346.163 178.562 346.919 178.562C347.479 178.562 347.969 178.48 348.389 178.317C348.813 178.158 349.142 177.948 349.376 177.687C349.614 177.43 349.733 177.153 349.733 176.854C349.733 176.644 349.656 176.462 349.502 176.308C349.348 176.159 349.112 176.084 348.795 176.084H346.191C345.738 176.084 345.346 176.016 345.015 175.881C344.688 175.741 344.436 175.559 344.259 175.335C344.081 175.111 343.993 174.866 343.993 174.6C343.993 174.32 344.072 174.082 344.231 173.886C344.389 173.69 344.595 173.541 344.847 173.438C345.103 173.335 345.379 173.284 345.673 173.284L345.883 173.69C345.743 173.69 345.6 173.723 345.456 173.788C345.316 173.849 345.197 173.942 345.099 174.068C345.005 174.189 344.959 174.343 344.959 174.53C344.959 174.745 345.047 174.924 345.225 175.069C345.402 175.214 345.724 175.286 346.191 175.286H348.795C349.425 175.286 349.919 175.419 350.279 175.685C350.643 175.951 350.825 176.322 350.825 176.798C350.825 177.237 350.668 177.657 350.356 178.058C350.043 178.464 349.595 178.795 349.012 179.052C348.428 179.313 347.731 179.444 346.919 179.444ZM347.115 174.04C346.601 174.04 346.137 173.937 345.722 173.732C345.311 173.527 344.984 173.24 344.742 172.871C344.504 172.502 344.385 172.075 344.385 171.59C344.385 171.1 344.504 170.671 344.742 170.302C344.984 169.933 345.311 169.649 345.722 169.448C346.137 169.243 346.601 169.14 347.115 169.14C347.614 169.14 348.067 169.243 348.473 169.448C348.883 169.649 349.21 169.933 349.453 170.302C349.695 170.671 349.817 171.1 349.817 171.59C349.817 172.075 349.695 172.502 349.453 172.871C349.21 173.24 348.883 173.527 348.473 173.732C348.067 173.937 347.614 174.04 347.115 174.04ZM347.115 173.256C347.628 173.256 348.027 173.097 348.312 172.78C348.596 172.463 348.739 172.066 348.739 171.59C348.739 171.1 348.596 170.703 348.312 170.4C348.027 170.092 347.628 169.938 347.115 169.938C346.606 169.938 346.205 170.092 345.911 170.4C345.621 170.703 345.477 171.1 345.477 171.59C345.477 172.066 345.621 172.463 345.911 172.78C346.205 173.097 346.606 173.256 347.115 173.256ZM349.313 170.204L348.795 169.994C348.795 169.602 348.872 169.259 349.026 168.965C349.18 168.666 349.399 168.435 349.684 168.272C349.968 168.104 350.307 168.02 350.699 168.02L350.615 169.098C350.195 169.098 349.873 169.189 349.649 169.371C349.425 169.548 349.313 169.826 349.313 170.204ZM224.972 198.168C224.608 198.168 224.281 198.098 223.992 197.958C223.703 197.818 223.474 197.608 223.306 197.328C223.138 197.048 223.054 196.698 223.054 196.278V189.446H224.132V196.25C224.132 196.941 224.454 197.286 225.098 197.286C225.289 197.286 225.474 197.265 225.651 197.223C225.833 197.181 226.036 197.118 226.26 197.034L226.414 197.818C226.176 197.921 225.938 198.005 225.7 198.07C225.467 198.135 225.224 198.168 224.972 198.168ZM221.976 192.064V191.308H226.246V192.064H221.976ZM228.178 198V191.294H229.27V198H228.178ZM228.934 194.976C228.934 194.127 229.015 193.422 229.179 192.862C229.342 192.297 229.58 191.877 229.893 191.602C230.21 191.322 230.595 191.182 231.048 191.182C231.197 191.182 231.332 191.194 231.454 191.217C231.58 191.236 231.706 191.266 231.832 191.308L231.762 192.386C231.631 192.344 231.489 192.309 231.335 192.281C231.181 192.248 231.043 192.232 230.922 192.232C230.525 192.232 230.205 192.346 229.963 192.575C229.72 192.799 229.543 193.116 229.431 193.527C229.323 193.938 229.27 194.421 229.27 194.976H228.934ZM237.38 198L237.24 196.53V193.66C237.24 193.058 237.112 192.626 236.855 192.365C236.599 192.099 236.214 191.966 235.7 191.966C235.411 191.966 235.147 192.008 234.909 192.092C234.676 192.176 234.489 192.307 234.349 192.484C234.214 192.657 234.146 192.881 234.146 193.156H232.928C232.928 192.671 233.047 192.281 233.285 191.987C233.523 191.688 233.85 191.474 234.265 191.343C234.685 191.208 235.164 191.14 235.7 191.14C236.214 191.14 236.669 191.226 237.065 191.399C237.462 191.572 237.772 191.847 237.996 192.225C238.22 192.598 238.332 193.086 238.332 193.688V198H237.38ZM235.098 198.168C234.548 198.168 234.093 198.07 233.733 197.874C233.374 197.678 233.106 197.424 232.928 197.111C232.751 196.798 232.662 196.469 232.662 196.124C232.662 195.671 232.774 195.303 232.998 195.018C233.227 194.733 233.537 194.526 233.929 194.395C234.321 194.26 234.762 194.192 235.252 194.192C235.602 194.192 235.952 194.227 236.302 194.297C236.657 194.367 237.002 194.463 237.338 194.584V195.27C237.058 195.158 236.741 195.069 236.386 195.004C236.036 194.939 235.714 194.906 235.42 194.906C234.972 194.906 234.594 194.999 234.286 195.186C233.978 195.368 233.824 195.681 233.824 196.124C233.824 196.451 233.941 196.731 234.174 196.964C234.412 197.197 234.79 197.314 235.308 197.314C235.672 197.314 235.999 197.23 236.288 197.062C236.582 196.889 236.813 196.675 236.981 196.418C237.154 196.161 237.24 195.905 237.24 195.648H237.506C237.506 196.096 237.408 196.511 237.212 196.894C237.021 197.277 236.746 197.585 236.386 197.818C236.027 198.051 235.598 198.168 235.098 198.168ZM243.341 198.168C242.8 198.168 242.303 198.023 241.85 197.734C241.398 197.44 241.036 197.029 240.765 196.502C240.495 195.97 240.359 195.345 240.359 194.626C240.359 193.912 240.492 193.294 240.758 192.771C241.024 192.248 241.377 191.847 241.815 191.567C242.259 191.282 242.744 191.14 243.271 191.14C243.761 191.14 244.191 191.259 244.559 191.497C244.933 191.735 245.222 192.078 245.427 192.526C245.633 192.974 245.735 193.515 245.735 194.15H245.315C245.315 193.707 245.227 193.333 245.049 193.03C244.877 192.727 244.65 192.498 244.37 192.344C244.09 192.185 243.789 192.106 243.467 192.106C243.103 192.106 242.77 192.209 242.466 192.414C242.168 192.615 241.927 192.904 241.745 193.282C241.568 193.655 241.479 194.103 241.479 194.626C241.479 195.158 241.568 195.615 241.745 195.998C241.927 196.381 242.168 196.675 242.466 196.88C242.77 197.085 243.103 197.188 243.467 197.188C243.771 197.188 244.062 197.109 244.342 196.95C244.627 196.791 244.86 196.56 245.042 196.257C245.224 195.949 245.315 195.578 245.315 195.144H245.735C245.735 195.793 245.628 196.343 245.413 196.796C245.203 197.244 244.916 197.585 244.552 197.818C244.193 198.051 243.789 198.168 243.341 198.168ZM245.497 198L245.315 196.432V188.452H246.407V198H245.497ZM249.862 189.726C249.638 189.726 249.461 189.663 249.33 189.537C249.199 189.406 249.134 189.236 249.134 189.026C249.134 188.821 249.199 188.657 249.33 188.536C249.461 188.415 249.638 188.354 249.862 188.354C250.086 188.354 250.263 188.415 250.394 188.536C250.525 188.657 250.59 188.821 250.59 189.026C250.59 189.236 250.525 189.406 250.394 189.537C250.263 189.663 250.086 189.726 249.862 189.726ZM249.316 198V191.294H250.408V198H249.316ZM255.474 198.168C255.11 198.168 254.783 198.098 254.494 197.958C254.205 197.818 253.976 197.608 253.808 197.328C253.64 197.048 253.556 196.698 253.556 196.278V189.446H254.634V196.25C254.634 196.941 254.956 197.286 255.6 197.286C255.791 197.286 255.976 197.265 256.153 197.223C256.335 197.181 256.538 197.118 256.762 197.034L256.916 197.818C256.678 197.921 256.44 198.005 256.202 198.07C255.969 198.135 255.726 198.168 255.474 198.168ZM252.478 192.064V191.308H256.748V192.064H252.478ZM259.296 189.726C259.072 189.726 258.894 189.663 258.764 189.537C258.633 189.406 258.568 189.236 258.568 189.026C258.568 188.821 258.633 188.657 258.764 188.536C258.894 188.415 259.072 188.354 259.296 188.354C259.52 188.354 259.697 188.415 259.828 188.536C259.958 188.657 260.024 188.821 260.024 189.026C260.024 189.236 259.958 189.406 259.828 189.537C259.697 189.663 259.52 189.726 259.296 189.726ZM258.75 198V191.294H259.842V198H258.75ZM265.272 198.168C264.67 198.168 264.133 198.035 263.662 197.769C263.195 197.503 262.826 197.109 262.556 196.586C262.285 196.063 262.15 195.419 262.15 194.654C262.15 193.884 262.285 193.24 262.556 192.722C262.826 192.199 263.195 191.805 263.662 191.539C264.133 191.273 264.67 191.14 265.272 191.14C265.869 191.14 266.401 191.273 266.868 191.539C267.339 191.805 267.708 192.199 267.974 192.722C268.244 193.24 268.38 193.884 268.38 194.654C268.38 195.419 268.244 196.063 267.974 196.586C267.708 197.109 267.339 197.503 266.868 197.769C266.401 198.035 265.869 198.168 265.272 198.168ZM265.244 197.216C265.678 197.216 266.046 197.113 266.35 196.908C266.653 196.698 266.882 196.402 267.036 196.019C267.194 195.636 267.274 195.181 267.274 194.654C267.274 193.856 267.108 193.228 266.777 192.771C266.445 192.309 265.953 192.078 265.3 192.078C264.861 192.078 264.49 192.183 264.187 192.393C263.888 192.598 263.659 192.895 263.501 193.282C263.347 193.665 263.27 194.122 263.27 194.654C263.27 195.443 263.435 196.068 263.767 196.53C264.103 196.987 264.595 197.216 265.244 197.216ZM275.266 198V194.066C275.266 193.427 275.112 192.941 274.804 192.61C274.5 192.274 274.085 192.106 273.558 192.106C273.156 192.106 272.809 192.216 272.515 192.435C272.221 192.654 271.994 192.969 271.836 193.38C271.677 193.786 271.598 194.271 271.598 194.836H271.178C271.178 194.057 271.28 193.392 271.486 192.841C271.691 192.29 271.99 191.87 272.382 191.581C272.778 191.287 273.259 191.14 273.824 191.14C274.351 191.14 274.801 191.259 275.175 191.497C275.553 191.73 275.842 192.066 276.043 192.505C276.243 192.944 276.344 193.464 276.344 194.066V198H275.266ZM270.506 198V191.308H271.444L271.598 192.848V198H270.506ZM283.099 198L282.959 196.53V193.66C282.959 193.058 282.831 192.626 282.574 192.365C282.317 192.099 281.932 191.966 281.419 191.966C281.13 191.966 280.866 192.008 280.628 192.092C280.395 192.176 280.208 192.307 280.068 192.484C279.933 192.657 279.865 192.881 279.865 193.156H278.647C278.647 192.671 278.766 192.281 279.004 191.987C279.242 191.688 279.569 191.474 279.984 191.343C280.404 191.208 280.882 191.14 281.419 191.14C281.932 191.14 282.387 191.226 282.784 191.399C283.181 191.572 283.491 191.847 283.715 192.225C283.939 192.598 284.051 193.086 284.051 193.688V198H283.099ZM280.817 198.168C280.266 198.168 279.811 198.07 279.452 197.874C279.093 197.678 278.824 197.424 278.647 197.111C278.47 196.798 278.381 196.469 278.381 196.124C278.381 195.671 278.493 195.303 278.717 195.018C278.946 194.733 279.256 194.526 279.648 194.395C280.04 194.26 280.481 194.192 280.971 194.192C281.321 194.192 281.671 194.227 282.021 194.297C282.376 194.367 282.721 194.463 283.057 194.584V195.27C282.777 195.158 282.46 195.069 282.105 195.004C281.755 194.939 281.433 194.906 281.139 194.906C280.691 194.906 280.313 194.999 280.005 195.186C279.697 195.368 279.543 195.681 279.543 196.124C279.543 196.451 279.66 196.731 279.893 196.964C280.131 197.197 280.509 197.314 281.027 197.314C281.391 197.314 281.718 197.23 282.007 197.062C282.301 196.889 282.532 196.675 282.7 196.418C282.873 196.161 282.959 195.905 282.959 195.648H283.225C283.225 196.096 283.127 196.511 282.931 196.894C282.74 197.277 282.464 197.585 282.105 197.818C281.746 198.051 281.316 198.168 280.817 198.168ZM286.666 198V188.452H287.758V198H286.666ZM293.912 189.208H296.488C297.375 189.208 298.145 189.39 298.798 189.754C299.451 190.113 299.958 190.622 300.317 191.28C300.676 191.938 300.856 192.713 300.856 193.604C300.856 194.486 300.676 195.256 300.317 195.914C299.958 196.572 299.451 197.085 298.798 197.454C298.145 197.818 297.375 198 296.488 198H293.912V189.208ZM295.004 190.174V197.048H296.488C297.151 197.048 297.72 196.899 298.196 196.6C298.677 196.301 299.045 195.893 299.302 195.375C299.563 194.852 299.694 194.262 299.694 193.604C299.694 192.941 299.563 192.353 299.302 191.84C299.045 191.322 298.677 190.916 298.196 190.622C297.72 190.323 297.151 190.174 296.488 190.174H295.004ZM306.206 198.168C305.432 198.168 304.764 197.974 304.204 197.587C303.644 197.195 303.213 196.654 302.909 195.963C302.606 195.268 302.454 194.463 302.454 193.548C302.454 192.573 302.618 191.751 302.944 191.084C303.276 190.417 303.724 189.913 304.288 189.572C304.858 189.227 305.497 189.054 306.206 189.054C307.144 189.054 307.898 189.29 308.467 189.761C309.041 190.228 309.436 190.837 309.65 191.588L308.474 191.826C308.292 191.28 308.001 190.846 307.599 190.524C307.203 190.197 306.738 190.034 306.206 190.034C305.744 190.034 305.317 190.167 304.925 190.433C304.538 190.694 304.225 191.086 303.987 191.609C303.749 192.132 303.63 192.778 303.63 193.548C303.63 194.248 303.724 194.871 303.91 195.417C304.102 195.963 304.386 196.392 304.764 196.705C305.147 197.018 305.628 197.174 306.206 197.174C306.902 197.174 307.452 196.987 307.858 196.614C308.269 196.241 308.474 195.751 308.474 195.144H309.664C309.664 195.774 309.52 196.315 309.23 196.768C308.941 197.216 308.535 197.561 308.012 197.804C307.494 198.047 306.892 198.168 306.206 198.168ZM310.69 198L313.714 189.208H315.044L317.998 198H316.85L316.108 195.746H312.608L311.838 198H310.69ZM312.888 194.892H315.828L314.358 190.538L312.888 194.892Z" fill="white"/>
</svg>
