<svg width="485" height="267" viewBox="0 0 485 267" fill="none" xmlns="http://www.w3.org/2000/svg">
<line x1="160" y1="223.5" x2="385" y2="223.5" stroke="#9CCBF0" stroke-width="3"/>
<path d="M369 111C303.5 111 177.6 107.1 160 225.5" stroke="white" stroke-width="4"/>
<line x1="368.5" y1="61" x2="368.5" y2="111" stroke="#9CCBF0" stroke-dasharray="2 2"/>
<line x1="373.5" y1="61" x2="373.5" y2="72" stroke="white"/>
<line x1="158.5" y1="225" x2="158.5" y2="-6.55671e-08" stroke="#9CCBF0" stroke-width="3"/>
<path d="M370 61.5C304.5 73.5 177.6 107.1 160 225.5" stroke="#FFB636" stroke-width="4"/>
<line x1="372" y1="60.5" x2="375" y2="60.5" stroke="white"/>
<line x1="372" y1="71.5" x2="375" y2="71.5" stroke="white"/>
<path d="M45.1119 107L49.5319 94.02H52.4919L56.7319 107H54.2519L53.3519 104.2H48.5319L47.6119 107H45.1119ZM49.1319 102.42H52.7919L50.9719 96.84L49.1319 102.42ZM62.6714 107.28C61.7381 107.28 60.9347 107.153 60.2614 106.9C59.5947 106.64 59.0814 106.27 58.7214 105.79C58.3614 105.303 58.1781 104.72 58.1714 104.04H60.3514C60.3714 104.52 60.5614 104.87 60.9214 105.09C61.2814 105.31 61.7714 105.42 62.3914 105.42C62.7314 105.42 63.0314 105.37 63.2914 105.27C63.5581 105.17 63.7647 105.033 63.9114 104.86C64.0581 104.687 64.1314 104.493 64.1314 104.28C64.1314 104.007 64.0314 103.793 63.8314 103.64C63.6381 103.48 63.3247 103.333 62.8914 103.2L60.7714 102.44C60.0114 102.167 59.4281 101.807 59.0214 101.36C58.6147 100.913 58.4114 100.38 58.4114 99.76C58.4114 98.94 58.7814 98.28 59.5214 97.78C60.2681 97.2733 61.2647 97.02 62.5114 97.02C63.7514 97.02 64.7081 97.2933 65.3814 97.84C66.0614 98.38 66.4114 99.0667 66.4314 99.9H64.2114C64.1781 99.58 64.0247 99.3267 63.7514 99.14C63.4781 98.9533 63.0647 98.86 62.5114 98.86C62.0114 98.86 61.6181 98.9633 61.3314 99.17C61.0514 99.37 60.9114 99.6067 60.9114 99.88C60.9114 100.34 61.3047 100.687 62.0914 100.92L64.3914 101.78C65.1381 102.033 65.7181 102.36 66.1314 102.76C66.5447 103.16 66.7514 103.667 66.7514 104.28C66.7514 104.793 66.5781 105.28 66.2314 105.74C65.8914 106.193 65.4147 106.563 64.8014 106.85C64.1881 107.137 63.4781 107.28 62.6714 107.28ZM73.2183 107.28C72.2849 107.28 71.4816 107.153 70.8083 106.9C70.1416 106.64 69.6283 106.27 69.2683 105.79C68.9083 105.303 68.7249 104.72 68.7183 104.04H70.8983C70.9183 104.52 71.1083 104.87 71.4683 105.09C71.8283 105.31 72.3183 105.42 72.9383 105.42C73.2783 105.42 73.5783 105.37 73.8383 105.27C74.1049 105.17 74.3116 105.033 74.4583 104.86C74.6049 104.687 74.6783 104.493 74.6783 104.28C74.6783 104.007 74.5783 103.793 74.3783 103.64C74.1849 103.48 73.8716 103.333 73.4383 103.2L71.3183 102.44C70.5583 102.167 69.9749 101.807 69.5683 101.36C69.1616 100.913 68.9583 100.38 68.9583 99.76C68.9583 98.94 69.3283 98.28 70.0683 97.78C70.8149 97.2733 71.8116 97.02 73.0583 97.02C74.2983 97.02 75.2549 97.2933 75.9283 97.84C76.6083 98.38 76.9583 99.0667 76.9783 99.9H74.7583C74.7249 99.58 74.5716 99.3267 74.2983 99.14C74.0249 98.9533 73.6116 98.86 73.0583 98.86C72.5583 98.86 72.1649 98.9633 71.8783 99.17C71.5983 99.37 71.4583 99.6067 71.4583 99.88C71.4583 100.34 71.8516 100.687 72.6383 100.92L74.9383 101.78C75.6849 102.033 76.2649 102.36 76.6783 102.76C77.0916 103.16 77.2983 103.667 77.2983 104.28C77.2983 104.793 77.1249 105.28 76.7783 105.74C76.4383 106.193 75.9616 106.563 75.3483 106.85C74.7349 107.137 74.0249 107.28 73.2183 107.28ZM83.7652 107.28C82.9385 107.28 82.1818 107.067 81.4952 106.64C80.8085 106.213 80.2585 105.617 79.8452 104.85C79.4318 104.077 79.2252 103.173 79.2252 102.14C79.2252 101.073 79.4285 100.157 79.8352 99.39C80.2485 98.6233 80.7985 98.0367 81.4852 97.63C82.1718 97.2233 82.9318 97.02 83.7652 97.02C84.5385 97.02 85.2052 97.1767 85.7652 97.49C86.3318 97.7967 86.7852 98.2167 87.1252 98.75C87.4718 99.2767 87.7052 99.8733 87.8252 100.54C87.9452 101.207 87.9518 101.893 87.8452 102.6H81.1052V101.32H86.1752L85.7152 101.62C85.7352 101.307 85.7185 100.99 85.6652 100.67C85.6185 100.35 85.5252 100.057 85.3852 99.79C85.2452 99.5233 85.0452 99.31 84.7852 99.15C84.5318 98.9833 84.2052 98.9 83.8052 98.9C83.3252 98.9 82.9185 99.02 82.5852 99.26C82.2518 99.5 81.9985 99.8267 81.8252 100.24C81.6518 100.653 81.5652 101.12 81.5652 101.64V102.58C81.5652 103.127 81.6452 103.61 81.8052 104.03C81.9718 104.45 82.2152 104.78 82.5352 105.02C82.8618 105.26 83.2718 105.38 83.7652 105.38C84.2252 105.38 84.6118 105.273 84.9252 105.06C85.2385 104.847 85.4385 104.527 85.5252 104.1H87.9052C87.8052 104.727 87.5685 105.28 87.1952 105.76C86.8285 106.233 86.3518 106.607 85.7652 106.88C85.1785 107.147 84.5118 107.28 83.7652 107.28ZM94.0306 107.28C93.4573 107.28 92.9306 107.173 92.4506 106.96C91.9773 106.747 91.5973 106.42 91.3106 105.98C91.0306 105.54 90.8906 104.98 90.8906 104.3V94.72H93.2506V104.22C93.2506 105.02 93.6306 105.42 94.3906 105.42C94.624 105.42 94.8573 105.393 95.0906 105.34C95.324 105.287 95.5906 105.207 95.8906 105.1L96.2306 106.76C95.8573 106.907 95.494 107.03 95.1406 107.13C94.7873 107.23 94.4173 107.28 94.0306 107.28ZM89.5306 98.86V97.3H95.8906V98.86H89.5306ZM102.261 107.28C101.328 107.28 100.525 107.153 99.8513 106.9C99.1846 106.64 98.6713 106.27 98.3113 105.79C97.9513 105.303 97.7679 104.72 97.7613 104.04H99.9413C99.9613 104.52 100.151 104.87 100.511 105.09C100.871 105.31 101.361 105.42 101.981 105.42C102.321 105.42 102.621 105.37 102.881 105.27C103.148 105.17 103.355 105.033 103.501 104.86C103.648 104.687 103.721 104.493 103.721 104.28C103.721 104.007 103.621 103.793 103.421 103.64C103.228 103.48 102.915 103.333 102.481 103.2L100.361 102.44C99.6013 102.167 99.0179 101.807 98.6113 101.36C98.2046 100.913 98.0013 100.38 98.0013 99.76C98.0013 98.94 98.3713 98.28 99.1113 97.78C99.8579 97.2733 100.855 97.02 102.101 97.02C103.341 97.02 104.298 97.2933 104.971 97.84C105.651 98.38 106.001 99.0667 106.021 99.9H103.801C103.768 99.58 103.615 99.3267 103.341 99.14C103.068 98.9533 102.655 98.86 102.101 98.86C101.601 98.86 101.208 98.9633 100.921 99.17C100.641 99.37 100.501 99.6067 100.501 99.88C100.501 100.34 100.895 100.687 101.681 100.92L103.981 101.78C104.728 102.033 105.308 102.36 105.721 102.76C106.135 103.16 106.341 103.667 106.341 104.28C106.341 104.793 106.168 105.28 105.821 105.74C105.481 106.193 105.005 106.563 104.391 106.85C103.778 107.137 103.068 107.28 102.261 107.28ZM13.2759 131L17.6959 118.02H20.6559L24.8959 131H22.4159L21.5159 128.2H16.6959L15.7759 131H13.2759ZM17.2959 126.42H20.9559L19.1359 120.84L17.2959 126.42ZM30.8955 131.28C30.0821 131.28 29.3255 131.07 28.6255 130.65C27.9321 130.223 27.3688 129.627 26.9355 128.86C26.5088 128.087 26.2955 127.18 26.2955 126.14C26.2955 125.04 26.5088 124.11 26.9355 123.35C27.3688 122.583 27.9321 122.003 28.6255 121.61C29.3255 121.217 30.0821 121.02 30.8955 121.02C31.5288 121.02 32.0855 121.123 32.5655 121.33C33.0521 121.53 33.4655 121.803 33.8055 122.15C34.1455 122.49 34.4121 122.87 34.6055 123.29C34.7988 123.71 34.9221 124.133 34.9755 124.56L32.5955 124.62C32.4888 124.193 32.2888 123.84 31.9955 123.56C31.7088 123.28 31.3355 123.14 30.8755 123.14C30.4955 123.14 30.1388 123.247 29.8055 123.46C29.4721 123.667 29.1988 123.99 28.9855 124.43C28.7788 124.87 28.6755 125.44 28.6755 126.14C28.6755 126.807 28.7721 127.363 28.9655 127.81C29.1655 128.25 29.4321 128.583 29.7655 128.81C30.0988 129.03 30.4688 129.14 30.8755 129.14C31.4755 129.14 31.9121 128.997 32.1855 128.71C32.4588 128.417 32.5955 128.027 32.5955 127.54H34.9755C34.9755 128.227 34.8188 128.853 34.5055 129.42C34.1921 129.987 33.7321 130.44 33.1255 130.78C32.5188 131.113 31.7755 131.28 30.8955 131.28ZM41.4814 131.28C40.6681 131.28 39.9114 131.07 39.2114 130.65C38.5181 130.223 37.9547 129.627 37.5214 128.86C37.0947 128.087 36.8814 127.18 36.8814 126.14C36.8814 125.04 37.0947 124.11 37.5214 123.35C37.9547 122.583 38.5181 122.003 39.2114 121.61C39.9114 121.217 40.6681 121.02 41.4814 121.02C42.1147 121.02 42.6714 121.123 43.1514 121.33C43.6381 121.53 44.0514 121.803 44.3914 122.15C44.7314 122.49 44.9981 122.87 45.1914 123.29C45.3847 123.71 45.5081 124.133 45.5614 124.56L43.1814 124.62C43.0747 124.193 42.8747 123.84 42.5814 123.56C42.2947 123.28 41.9214 123.14 41.4614 123.14C41.0814 123.14 40.7247 123.247 40.3914 123.46C40.0581 123.667 39.7847 123.99 39.5714 124.43C39.3647 124.87 39.2614 125.44 39.2614 126.14C39.2614 126.807 39.3581 127.363 39.5514 127.81C39.7514 128.25 40.0181 128.583 40.3514 128.81C40.6847 129.03 41.0547 129.14 41.4614 129.14C42.0614 129.14 42.4981 128.997 42.7714 128.71C43.0447 128.417 43.1814 128.027 43.1814 127.54H45.5614C45.5614 128.227 45.4047 128.853 45.0914 129.42C44.7781 129.987 44.3181 130.44 43.7114 130.78C43.1047 131.113 42.3614 131.28 41.4814 131.28ZM54.8473 121.26H57.2073V131H54.8473V121.26ZM48.1873 121.26H50.5473V127.22C50.5473 127.853 50.704 128.33 51.0173 128.65C51.3307 128.963 51.7607 129.12 52.3073 129.12C52.774 129.12 53.1973 129 53.5773 128.76C53.964 128.513 54.2707 128.153 54.4973 127.68C54.7307 127.2 54.8473 126.607 54.8473 125.9H55.4873C55.4873 127.087 55.334 128.07 55.0273 128.85C54.7207 129.63 54.2973 130.213 53.7573 130.6C53.2173 130.987 52.594 131.18 51.8873 131.18C51.194 131.18 50.5673 131.057 50.0073 130.81C49.4473 130.563 49.004 130.167 48.6773 129.62C48.3507 129.073 48.1873 128.353 48.1873 127.46V121.26ZM74.1064 131V125.32C74.1064 124.6 73.9331 124.057 73.5864 123.69C73.2397 123.323 72.7864 123.14 72.2264 123.14C71.5197 123.14 70.9631 123.427 70.5564 124C70.1497 124.573 69.9464 125.44 69.9464 126.6H68.9664C68.9664 125.58 69.0597 124.717 69.2464 124.01C69.4397 123.297 69.7097 122.723 70.0564 122.29C70.4097 121.85 70.8231 121.53 71.2964 121.33C71.7697 121.123 72.2931 121.02 72.8664 121.02C73.6597 121.02 74.3231 121.2 74.8564 121.56C75.3964 121.913 75.8031 122.413 76.0764 123.06C76.3497 123.707 76.4864 124.46 76.4864 125.32V131H74.1064ZM60.9264 131V121.3H62.9864L63.2464 122.96C63.5664 122.313 63.9897 121.83 64.5164 121.51C65.0431 121.183 65.6464 121.02 66.3264 121.02C67.1264 121.02 67.7931 121.2 68.3264 121.56C68.8664 121.913 69.2697 122.413 69.5364 123.06C69.8097 123.707 69.9464 124.46 69.9464 125.32V131H67.5864V125.32C67.5864 124.6 67.4131 124.057 67.0664 123.69C66.7197 123.323 66.2664 123.14 65.7064 123.14C65.2331 123.14 64.8131 123.27 64.4464 123.53C64.0864 123.79 63.8031 124.183 63.5964 124.71C63.3897 125.23 63.2864 125.88 63.2864 126.66V131H60.9264ZM86.3708 121.26H88.7308V131H86.3708V121.26ZM79.7108 121.26H82.0708V127.22C82.0708 127.853 82.2274 128.33 82.5408 128.65C82.8541 128.963 83.2841 129.12 83.8308 129.12C84.2974 129.12 84.7208 129 85.1008 128.76C85.4874 128.513 85.7941 128.153 86.0208 127.68C86.2541 127.2 86.3708 126.607 86.3708 125.9H87.0108C87.0108 127.087 86.8574 128.07 86.5508 128.85C86.2441 129.63 85.8208 130.213 85.2808 130.6C84.7408 130.987 84.1174 131.18 83.4108 131.18C82.7174 131.18 82.0908 131.057 81.5308 130.81C80.9708 130.563 80.5274 130.167 80.2008 129.62C79.8741 129.073 79.7108 128.353 79.7108 127.46V121.26ZM92.4498 131V117.28H94.8098V131H92.4498ZM104.724 131L104.424 128.64V124.74C104.424 124.06 104.284 123.557 104.004 123.23C103.73 122.903 103.264 122.74 102.604 122.74C102.224 122.74 101.894 122.797 101.614 122.91C101.334 123.023 101.117 123.187 100.964 123.4C100.817 123.607 100.744 123.86 100.744 124.16H98.1636C98.1636 123.427 98.3403 122.83 98.6936 122.37C99.0469 121.903 99.5536 121.563 100.214 121.35C100.88 121.13 101.677 121.02 102.604 121.02C103.444 121.02 104.177 121.157 104.804 121.43C105.43 121.697 105.917 122.11 106.264 122.67C106.61 123.23 106.784 123.947 106.784 124.82V131H104.724ZM101.544 131.28C100.71 131.28 100.014 131.137 99.4536 130.85C98.9003 130.557 98.4836 130.173 98.2036 129.7C97.9236 129.227 97.7836 128.713 97.7836 128.16C97.7836 127.547 97.9436 127.033 98.2636 126.62C98.5903 126.2 99.0503 125.887 99.6436 125.68C100.237 125.467 100.937 125.36 101.744 125.36C102.27 125.36 102.767 125.4 103.234 125.48C103.707 125.56 104.177 125.667 104.644 125.8V127.18C104.277 127.06 103.877 126.967 103.444 126.9C103.01 126.833 102.604 126.8 102.224 126.8C101.664 126.8 101.204 126.903 100.844 127.11C100.484 127.317 100.304 127.667 100.304 128.16C100.304 128.52 100.45 128.83 100.744 129.09C101.037 129.35 101.504 129.48 102.144 129.48C102.63 129.48 103.044 129.373 103.384 129.16C103.724 128.947 103.98 128.68 104.154 128.36C104.334 128.04 104.424 127.72 104.424 127.4H104.984C104.984 128.1 104.854 128.747 104.594 129.34C104.334 129.927 103.947 130.397 103.434 130.75C102.927 131.103 102.297 131.28 101.544 131.28ZM113.523 131.28C112.949 131.28 112.423 131.173 111.943 130.96C111.469 130.747 111.089 130.42 110.803 129.98C110.523 129.54 110.383 128.98 110.383 128.3V118.72H112.743V128.22C112.743 129.02 113.123 129.42 113.883 129.42C114.116 129.42 114.349 129.393 114.583 129.34C114.816 129.287 115.083 129.207 115.383 129.1L115.723 130.76C115.349 130.907 114.986 131.03 114.633 131.13C114.279 131.23 113.909 131.28 113.523 131.28ZM109.023 122.86V121.3H115.383V122.86H109.023ZM121.753 131.28C120.927 131.28 120.17 131.067 119.483 130.64C118.797 130.213 118.247 129.617 117.833 128.85C117.42 128.077 117.213 127.173 117.213 126.14C117.213 125.073 117.417 124.157 117.823 123.39C118.237 122.623 118.787 122.037 119.473 121.63C120.16 121.223 120.92 121.02 121.753 121.02C122.527 121.02 123.193 121.177 123.753 121.49C124.32 121.797 124.773 122.217 125.113 122.75C125.46 123.277 125.693 123.873 125.813 124.54C125.933 125.207 125.94 125.893 125.833 126.6H119.093V125.32H124.163L123.703 125.62C123.723 125.307 123.707 124.99 123.653 124.67C123.607 124.35 123.513 124.057 123.373 123.79C123.233 123.523 123.033 123.31 122.773 123.15C122.52 122.983 122.193 122.9 121.793 122.9C121.313 122.9 120.907 123.02 120.573 123.26C120.24 123.5 119.987 123.827 119.813 124.24C119.64 124.653 119.553 125.12 119.553 125.64V126.58C119.553 127.127 119.633 127.61 119.793 128.03C119.96 128.45 120.203 128.78 120.523 129.02C120.85 129.26 121.26 129.38 121.753 129.38C122.213 129.38 122.6 129.273 122.913 129.06C123.227 128.847 123.427 128.527 123.513 128.1H125.893C125.793 128.727 125.557 129.28 125.183 129.76C124.817 130.233 124.34 130.607 123.753 130.88C123.167 131.147 122.5 131.28 121.753 131.28ZM132.319 131.28C131.506 131.28 130.762 131.067 130.089 130.64C129.422 130.207 128.889 129.603 128.489 128.83C128.096 128.05 127.899 127.14 127.899 126.1C127.899 125.073 128.089 124.18 128.469 123.42C128.856 122.653 129.369 122.063 130.009 121.65C130.656 121.23 131.372 121.02 132.159 121.02C132.879 121.02 133.502 121.193 134.029 121.54C134.556 121.88 134.959 122.387 135.239 123.06C135.519 123.733 135.659 124.56 135.659 125.54H134.919C134.919 125.033 134.816 124.603 134.609 124.25C134.402 123.89 134.129 123.617 133.789 123.43C133.456 123.237 133.092 123.14 132.699 123.14C132.226 123.14 131.806 123.263 131.439 123.51C131.079 123.757 130.796 124.103 130.589 124.55C130.382 124.99 130.279 125.507 130.279 126.1C130.279 126.713 130.382 127.247 130.589 127.7C130.796 128.153 131.079 128.507 131.439 128.76C131.806 129.013 132.219 129.14 132.679 129.14C133.052 129.14 133.409 129.04 133.749 128.84C134.096 128.633 134.376 128.347 134.589 127.98C134.809 127.613 134.919 127.187 134.919 126.7H135.659C135.659 127.72 135.506 128.57 135.199 129.25C134.899 129.923 134.496 130.43 133.989 130.77C133.482 131.11 132.926 131.28 132.319 131.28ZM135.359 131L134.919 128.6V117.28H137.299V131H135.359Z" fill="white"/>
<path d="M249.231 251.06V249.02H259.631V251.06H255.081L255.611 250.52V262H253.251V250.52L253.781 251.06H249.231ZM262.976 250.52C262.516 250.52 262.156 250.4 261.896 250.16C261.643 249.913 261.516 249.573 261.516 249.14C261.516 248.72 261.643 248.387 261.896 248.14C262.156 247.887 262.516 247.76 262.976 247.76C263.43 247.76 263.786 247.887 264.046 248.14C264.306 248.387 264.436 248.72 264.436 249.14C264.436 249.573 264.306 249.913 264.046 250.16C263.786 250.4 263.43 250.52 262.976 250.52ZM261.796 262V252.26H264.156V262H261.796ZM281.339 262V256.32C281.339 255.6 281.165 255.057 280.819 254.69C280.472 254.323 280.019 254.14 279.459 254.14C278.752 254.14 278.195 254.427 277.789 255C277.382 255.573 277.179 256.44 277.179 257.6H276.199C276.199 256.58 276.292 255.717 276.479 255.01C276.672 254.297 276.942 253.723 277.289 253.29C277.642 252.85 278.055 252.53 278.529 252.33C279.002 252.123 279.525 252.02 280.099 252.02C280.892 252.02 281.555 252.2 282.089 252.56C282.629 252.913 283.035 253.413 283.309 254.06C283.582 254.707 283.719 255.46 283.719 256.32V262H281.339ZM268.159 262V252.3H270.219L270.479 253.96C270.799 253.313 271.222 252.83 271.749 252.51C272.275 252.183 272.879 252.02 273.559 252.02C274.359 252.02 275.025 252.2 275.559 252.56C276.099 252.913 276.502 253.413 276.769 254.06C277.042 254.707 277.179 255.46 277.179 256.32V262H274.819V256.32C274.819 255.6 274.645 255.057 274.299 254.69C273.952 254.323 273.499 254.14 272.939 254.14C272.465 254.14 272.045 254.27 271.679 254.53C271.319 254.79 271.035 255.183 270.829 255.71C270.622 256.23 270.519 256.88 270.519 257.66V262H268.159ZM290.763 262.28C289.937 262.28 289.18 262.067 288.493 261.64C287.807 261.213 287.257 260.617 286.843 259.85C286.43 259.077 286.223 258.173 286.223 257.14C286.223 256.073 286.427 255.157 286.833 254.39C287.247 253.623 287.797 253.037 288.483 252.63C289.17 252.223 289.93 252.02 290.763 252.02C291.537 252.02 292.203 252.177 292.763 252.49C293.33 252.797 293.783 253.217 294.123 253.75C294.47 254.277 294.703 254.873 294.823 255.54C294.943 256.207 294.95 256.893 294.843 257.6H288.103V256.32H293.173L292.713 256.62C292.733 256.307 292.717 255.99 292.663 255.67C292.617 255.35 292.523 255.057 292.383 254.79C292.243 254.523 292.043 254.31 291.783 254.15C291.53 253.983 291.203 253.9 290.803 253.9C290.323 253.9 289.917 254.02 289.583 254.26C289.25 254.5 288.997 254.827 288.823 255.24C288.65 255.653 288.563 256.12 288.563 256.64V257.58C288.563 258.127 288.643 258.61 288.803 259.03C288.97 259.45 289.213 259.78 289.533 260.02C289.86 260.26 290.27 260.38 290.763 260.38C291.223 260.38 291.61 260.273 291.923 260.06C292.237 259.847 292.437 259.527 292.523 259.1H294.903C294.803 259.727 294.567 260.28 294.193 260.76C293.827 261.233 293.35 261.607 292.763 261.88C292.177 262.147 291.51 262.28 290.763 262.28Z" fill="white"/>
<path d="M236.818 68.696H240.13C241.27 68.696 242.26 68.93 243.1 69.398C243.94 69.86 244.591 70.514 245.053 71.36C245.515 72.206 245.746 73.202 245.746 74.348C245.746 75.482 245.515 76.472 245.053 77.318C244.591 78.164 243.94 78.824 243.1 79.298C242.26 79.766 241.27 80 240.13 80H236.818V68.696ZM238.222 69.938V78.776H240.13C240.982 78.776 241.714 78.584 242.326 78.2C242.944 77.816 243.418 77.291 243.748 76.625C244.084 75.953 244.252 75.194 244.252 74.348C244.252 73.496 244.084 72.74 243.748 72.08C243.418 71.414 242.944 70.892 242.326 70.514C241.714 70.13 240.982 69.938 240.13 69.938H238.222ZM252.625 80.216C251.629 80.216 250.771 79.967 250.051 79.469C249.331 78.965 248.776 78.269 248.386 77.381C247.996 76.487 247.801 75.452 247.801 74.276C247.801 73.022 248.011 71.966 248.431 71.108C248.857 70.25 249.433 69.602 250.159 69.164C250.891 68.72 251.713 68.498 252.625 68.498C253.831 68.498 254.8 68.801 255.532 69.407C256.27 70.007 256.777 70.79 257.053 71.756L255.541 72.062C255.307 71.36 254.932 70.802 254.416 70.388C253.906 69.968 253.309 69.758 252.625 69.758C252.031 69.758 251.482 69.929 250.978 70.271C250.48 70.607 250.078 71.111 249.772 71.783C249.466 72.455 249.313 73.286 249.313 74.276C249.313 75.176 249.433 75.977 249.673 76.679C249.919 77.381 250.285 77.933 250.771 78.335C251.263 78.737 251.881 78.938 252.625 78.938C253.519 78.938 254.227 78.698 254.749 78.218C255.277 77.738 255.541 77.108 255.541 76.328H257.071C257.071 77.138 256.885 77.834 256.513 78.416C256.141 78.992 255.619 79.436 254.947 79.748C254.281 80.06 253.507 80.216 252.625 80.216ZM258.39 80L262.278 68.696H263.988L267.786 80H266.31L265.356 77.102H260.856L259.866 80H258.39ZM261.216 76.004H264.996L263.106 70.406L261.216 76.004ZM272.308 71.162H273.694V74.978H277.42V76.184H273.694V80H272.308V76.184H268.582V74.978H272.308V71.162Z" fill="#FFB636"/>
<path d="M245.818 141.696H249.13C250.27 141.696 251.26 141.93 252.1 142.398C252.94 142.86 253.591 143.514 254.053 144.36C254.515 145.206 254.746 146.202 254.746 147.348C254.746 148.482 254.515 149.472 254.053 150.318C253.591 151.164 252.94 151.824 252.1 152.298C251.26 152.766 250.27 153 249.13 153H245.818V141.696ZM247.222 142.938V151.776H249.13C249.982 151.776 250.714 151.584 251.326 151.2C251.944 150.816 252.418 150.291 252.748 149.625C253.084 148.953 253.252 148.194 253.252 147.348C253.252 146.496 253.084 145.74 252.748 145.08C252.418 144.414 251.944 143.892 251.326 143.514C250.714 143.13 249.982 142.938 249.13 142.938H247.222ZM261.625 153.216C260.629 153.216 259.771 152.967 259.051 152.469C258.331 151.965 257.776 151.269 257.386 150.381C256.996 149.487 256.801 148.452 256.801 147.276C256.801 146.022 257.011 144.966 257.431 144.108C257.857 143.25 258.433 142.602 259.159 142.164C259.891 141.72 260.713 141.498 261.625 141.498C262.831 141.498 263.8 141.801 264.532 142.407C265.27 143.007 265.777 143.79 266.053 144.756L264.541 145.062C264.307 144.36 263.932 143.802 263.416 143.388C262.906 142.968 262.309 142.758 261.625 142.758C261.031 142.758 260.482 142.929 259.978 143.271C259.48 143.607 259.078 144.111 258.772 144.783C258.466 145.455 258.313 146.286 258.313 147.276C258.313 148.176 258.433 148.977 258.673 149.679C258.919 150.381 259.285 150.933 259.771 151.335C260.263 151.737 260.881 151.938 261.625 151.938C262.519 151.938 263.227 151.698 263.749 151.218C264.277 150.738 264.541 150.108 264.541 149.328H266.071C266.071 150.138 265.885 150.834 265.513 151.416C265.141 151.992 264.619 152.436 263.947 152.748C263.281 153.06 262.507 153.216 261.625 153.216ZM267.39 153L271.278 141.696H272.988L276.786 153H275.31L274.356 150.102H269.856L268.866 153H267.39ZM270.216 149.004H273.996L272.106 143.406L270.216 149.004Z" fill="white"/>
<path d="M382.386 68V59.208H385.214C386.18 59.208 386.917 59.453 387.426 59.943C387.939 60.4283 388.196 61.0887 388.196 61.924C388.196 62.75 387.939 63.4057 387.426 63.891C386.917 64.3717 386.18 64.612 385.214 64.612H383.492V68H382.386ZM383.492 63.66H385.214C385.825 63.66 386.287 63.5037 386.6 63.191C386.917 62.8783 387.076 62.456 387.076 61.924C387.076 61.3827 386.917 60.951 386.6 60.629C386.287 60.307 385.825 60.146 385.214 60.146H383.492V63.66ZM392.49 68.168C391.911 68.168 391.393 68.021 390.936 67.727C390.483 67.4283 390.124 67.0153 389.858 66.488C389.597 65.9607 389.466 65.354 389.466 64.668C389.466 63.9353 389.597 63.3053 389.858 62.778C390.119 62.2507 390.476 61.847 390.929 61.567C391.386 61.2823 391.907 61.14 392.49 61.14C392.999 61.14 393.433 61.2427 393.792 61.448C394.151 61.6533 394.441 61.931 394.66 62.281C394.879 62.631 395.031 63.0277 395.115 63.471C395.204 63.9097 395.229 64.3647 395.192 64.836H390.348V64.164H394.471L394.149 64.374C394.163 64.0987 394.147 63.8233 394.1 63.548C394.058 63.2727 393.976 63.0207 393.855 62.792C393.734 62.5587 393.563 62.372 393.344 62.232C393.125 62.092 392.845 62.022 392.504 62.022C392.075 62.022 391.715 62.1317 391.426 62.351C391.137 62.5703 390.92 62.8597 390.775 63.219C390.63 63.5737 390.558 63.9587 390.558 64.374V64.822C390.558 65.2887 390.628 65.7063 390.768 66.075C390.913 66.4437 391.127 66.7353 391.412 66.95C391.697 67.1647 392.056 67.272 392.49 67.272C392.924 67.272 393.281 67.167 393.561 66.957C393.841 66.747 394.011 66.4367 394.072 66.026H395.206C395.136 66.4693 394.977 66.852 394.73 67.174C394.483 67.4913 394.168 67.7363 393.785 67.909C393.402 68.0817 392.971 68.168 392.49 68.168ZM397.357 68V61.294H398.449V68H397.357ZM398.113 64.976C398.113 64.1267 398.195 63.422 398.358 62.862C398.522 62.2973 398.76 61.8773 399.072 61.602C399.39 61.322 399.775 61.182 400.227 61.182C400.377 61.182 400.512 61.1937 400.633 61.217C400.759 61.2357 400.885 61.266 401.011 61.308L400.941 62.386C400.811 62.344 400.668 62.309 400.514 62.281C400.36 62.2483 400.223 62.232 400.101 62.232C399.705 62.232 399.385 62.3463 399.142 62.575C398.9 62.799 398.722 63.1163 398.61 63.527C398.503 63.9377 398.449 64.4207 398.449 64.976H398.113ZM402.78 68V60.272C402.78 59.8287 402.864 59.467 403.032 59.187C403.205 58.9023 403.433 58.6923 403.718 58.557C404.007 58.4217 404.329 58.354 404.684 58.354C404.875 58.354 405.069 58.368 405.265 58.396C405.466 58.424 405.664 58.466 405.86 58.522L405.65 59.39C405.51 59.334 405.37 59.292 405.23 59.264C405.095 59.236 404.964 59.222 404.838 59.222C404.689 59.222 404.539 59.25 404.39 59.306C404.241 59.362 404.117 59.467 404.019 59.621C403.921 59.775 403.872 59.9967 403.872 60.286V68H402.78ZM401.688 62.064V61.308H405.258V62.064H401.688ZM409.637 68.168C409.035 68.168 408.498 68.035 408.027 67.769C407.56 67.503 407.191 67.1087 406.921 66.586C406.65 66.0633 406.515 65.4193 406.515 64.654C406.515 63.884 406.65 63.24 406.921 62.722C407.191 62.1993 407.56 61.805 408.027 61.539C408.498 61.273 409.035 61.14 409.637 61.14C410.234 61.14 410.766 61.273 411.233 61.539C411.704 61.805 412.073 62.1993 412.339 62.722C412.609 63.24 412.745 63.884 412.745 64.654C412.745 65.4193 412.609 66.0633 412.339 66.586C412.073 67.1087 411.704 67.503 411.233 67.769C410.766 68.035 410.234 68.168 409.637 68.168ZM409.609 67.216C410.043 67.216 410.411 67.1133 410.715 66.908C411.018 66.698 411.247 66.4017 411.401 66.019C411.559 65.6363 411.639 65.1813 411.639 64.654C411.639 63.856 411.473 63.2283 411.142 62.771C410.81 62.309 410.318 62.078 409.665 62.078C409.226 62.078 408.855 62.183 408.552 62.393C408.253 62.5983 408.024 62.8947 407.866 63.282C407.712 63.6647 407.635 64.122 407.635 64.654C407.635 65.4427 407.8 66.068 408.132 66.53C408.468 66.9873 408.96 67.216 409.609 67.216ZM414.871 68V61.294H415.963V68H414.871ZM415.627 64.976C415.627 64.1267 415.709 63.422 415.872 62.862C416.035 62.2973 416.273 61.8773 416.586 61.602C416.903 61.322 417.288 61.182 417.741 61.182C417.89 61.182 418.026 61.1937 418.147 61.217C418.273 61.2357 418.399 61.266 418.525 61.308L418.455 62.386C418.324 62.344 418.182 62.309 418.028 62.281C417.874 62.2483 417.736 62.232 417.615 62.232C417.218 62.232 416.899 62.3463 416.656 62.575C416.413 62.799 416.236 63.1163 416.124 63.527C416.017 63.9377 415.963 64.4207 415.963 64.976H415.627ZM429.338 68V64.066C429.338 63.4267 429.184 62.9413 428.876 62.61C428.572 62.274 428.162 62.106 427.644 62.106C427.037 62.106 426.573 62.3417 426.251 62.813C425.929 63.2797 425.768 63.926 425.768 64.752H425.264C425.264 64.15 425.322 63.6227 425.439 63.17C425.56 62.7173 425.735 62.3417 425.964 62.043C426.192 61.7397 426.47 61.5133 426.797 61.364C427.123 61.2147 427.494 61.14 427.91 61.14C428.437 61.14 428.887 61.259 429.261 61.497C429.639 61.7303 429.928 62.0663 430.129 62.505C430.329 62.9437 430.43 63.464 430.43 64.066V68H429.338ZM419.93 68V61.308H420.868L420.994 62.652C421.204 62.1667 421.498 61.7933 421.876 61.532C422.258 61.2707 422.716 61.14 423.248 61.14C423.775 61.14 424.225 61.259 424.599 61.497C424.977 61.7303 425.266 62.0663 425.467 62.505C425.667 62.9437 425.768 63.464 425.768 64.066V68H424.69V64.066C424.69 63.4267 424.536 62.9413 424.228 62.61C423.924 62.274 423.509 62.106 422.982 62.106C422.58 62.106 422.233 62.2157 421.939 62.435C421.645 62.6543 421.418 62.9693 421.26 63.38C421.101 63.786 421.022 64.2713 421.022 64.836V68H419.93ZM437.171 68L437.031 66.53V63.66C437.031 63.058 436.903 62.6263 436.646 62.365C436.39 62.099 436.005 61.966 435.491 61.966C435.202 61.966 434.938 62.008 434.7 62.092C434.467 62.176 434.28 62.3067 434.14 62.484C434.005 62.6567 433.937 62.8807 433.937 63.156H432.719C432.719 62.6707 432.838 62.281 433.076 61.987C433.314 61.6883 433.641 61.4737 434.056 61.343C434.476 61.2077 434.955 61.14 435.491 61.14C436.005 61.14 436.46 61.2263 436.856 61.399C437.253 61.5717 437.563 61.847 437.787 62.225C438.011 62.5983 438.123 63.086 438.123 63.688V68H437.171ZM434.889 68.168C434.339 68.168 433.884 68.07 433.524 67.874C433.165 67.678 432.897 67.4237 432.719 67.111C432.542 66.7983 432.453 66.4693 432.453 66.124C432.453 65.6713 432.565 65.3027 432.789 65.018C433.018 64.7333 433.328 64.5257 433.72 64.395C434.112 64.2597 434.553 64.192 435.043 64.192C435.393 64.192 435.743 64.227 436.093 64.297C436.448 64.367 436.793 64.4627 437.129 64.584V65.27C436.849 65.158 436.532 65.0693 436.177 65.004C435.827 64.9387 435.505 64.906 435.211 64.906C434.763 64.906 434.385 64.9993 434.077 65.186C433.769 65.368 433.615 65.6807 433.615 66.124C433.615 66.4507 433.732 66.7307 433.965 66.964C434.203 67.1973 434.581 67.314 435.099 67.314C435.463 67.314 435.79 67.23 436.079 67.062C436.373 66.8893 436.604 66.6747 436.772 66.418C436.945 66.1613 437.031 65.9047 437.031 65.648H437.297C437.297 66.096 437.199 66.5113 437.003 66.894C436.812 67.2767 436.537 67.5847 436.177 67.818C435.818 68.0513 435.389 68.168 434.889 68.168ZM445.498 68V64.066C445.498 63.4267 445.344 62.9413 445.036 62.61C444.733 62.274 444.318 62.106 443.79 62.106C443.389 62.106 443.041 62.2157 442.747 62.435C442.453 62.6543 442.227 62.9693 442.068 63.38C441.91 63.786 441.83 64.2713 441.83 64.836H441.41C441.41 64.0567 441.513 63.3917 441.718 62.841C441.924 62.2903 442.222 61.8703 442.614 61.581C443.011 61.287 443.492 61.14 444.056 61.14C444.584 61.14 445.034 61.259 445.407 61.497C445.785 61.7303 446.075 62.0663 446.275 62.505C446.476 62.9437 446.576 63.464 446.576 64.066V68H445.498ZM440.738 68V61.308H441.676L441.83 62.848V68H440.738ZM451.539 68.168C451.003 68.168 450.501 68.0233 450.034 67.734C449.572 67.4447 449.199 67.0363 448.914 66.509C448.63 65.9817 448.487 65.3587 448.487 64.64C448.487 63.9027 448.63 63.2727 448.914 62.75C449.199 62.2273 449.572 61.8283 450.034 61.553C450.501 61.2777 451.003 61.14 451.539 61.14C451.917 61.14 452.256 61.1983 452.554 61.315C452.858 61.427 453.121 61.5833 453.345 61.784C453.569 61.9847 453.754 62.2133 453.898 62.47C454.048 62.722 454.157 62.988 454.227 63.268L453.107 63.366C452.991 62.9787 452.795 62.673 452.519 62.449C452.249 62.2203 451.917 62.106 451.525 62.106C451.194 62.106 450.881 62.2017 450.587 62.393C450.298 62.5797 450.062 62.862 449.88 63.24C449.698 63.6133 449.607 64.08 449.607 64.64C449.607 65.158 449.689 65.6083 449.852 65.991C450.02 66.369 450.249 66.663 450.538 66.873C450.828 67.083 451.157 67.188 451.525 67.188C452.043 67.188 452.435 67.062 452.701 66.81C452.972 66.5533 453.107 66.1987 453.107 65.746H454.227C454.227 66.2127 454.118 66.628 453.898 66.992C453.679 67.356 453.366 67.643 452.96 67.853C452.559 68.063 452.085 68.168 451.539 68.168ZM458.73 68.168C458.152 68.168 457.634 68.021 457.176 67.727C456.724 67.4283 456.364 67.0153 456.098 66.488C455.837 65.9607 455.706 65.354 455.706 64.668C455.706 63.9353 455.837 63.3053 456.098 62.778C456.36 62.2507 456.717 61.847 457.169 61.567C457.627 61.2823 458.147 61.14 458.73 61.14C459.239 61.14 459.673 61.2427 460.032 61.448C460.392 61.6533 460.681 61.931 460.9 62.281C461.12 62.631 461.271 63.0277 461.355 63.471C461.444 63.9097 461.47 64.3647 461.432 64.836H456.588V64.164H460.711L460.389 64.374C460.403 64.0987 460.387 63.8233 460.34 63.548C460.298 63.2727 460.217 63.0207 460.095 62.792C459.974 62.5587 459.804 62.372 459.584 62.232C459.365 62.092 459.085 62.022 458.744 62.022C458.315 62.022 457.956 62.1317 457.666 62.351C457.377 62.5703 457.16 62.8597 457.015 63.219C456.871 63.5737 456.798 63.9587 456.798 64.374V64.822C456.798 65.2887 456.868 65.7063 457.008 66.075C457.153 66.4437 457.368 66.7353 457.652 66.95C457.937 67.1647 458.296 67.272 458.73 67.272C459.164 67.272 459.521 67.167 459.801 66.957C460.081 66.747 460.252 66.4367 460.312 66.026H461.446C461.376 66.4693 461.218 66.852 460.97 67.174C460.723 67.4913 460.408 67.7363 460.025 67.909C459.643 68.0817 459.211 68.168 458.73 68.168ZM467.284 68V60.272C467.284 59.8287 467.368 59.467 467.536 59.187C467.709 58.9023 467.937 58.6923 468.222 58.557C468.511 58.4217 468.833 58.354 469.188 58.354C469.379 58.354 469.573 58.368 469.769 58.396C469.97 58.424 470.168 58.466 470.364 58.522L470.154 59.39C470.014 59.334 469.874 59.292 469.734 59.264C469.599 59.236 469.468 59.222 469.342 59.222C469.193 59.222 469.043 59.25 468.894 59.306C468.745 59.362 468.621 59.467 468.523 59.621C468.425 59.775 468.376 59.9967 468.376 60.286V68H467.284ZM466.192 62.064V61.308H469.762V62.064H466.192ZM474.043 68.168C473.464 68.168 472.946 68.021 472.489 67.727C472.036 67.4283 471.677 67.0153 471.411 66.488C471.149 65.9607 471.019 65.354 471.019 64.668C471.019 63.9353 471.149 63.3053 471.411 62.778C471.672 62.2507 472.029 61.847 472.482 61.567C472.939 61.2823 473.459 61.14 474.043 61.14C474.551 61.14 474.985 61.2427 475.345 61.448C475.704 61.6533 475.993 61.931 476.213 62.281C476.432 62.631 476.584 63.0277 476.668 63.471C476.756 63.9097 476.782 64.3647 476.745 64.836H471.901V64.164H476.024L475.702 64.374C475.716 64.0987 475.699 63.8233 475.653 63.548C475.611 63.2727 475.529 63.0207 475.408 62.792C475.286 62.5587 475.116 62.372 474.897 62.232C474.677 62.092 474.397 62.022 474.057 62.022C473.627 62.022 473.268 62.1317 472.979 62.351C472.689 62.5703 472.472 62.8597 472.328 63.219C472.183 63.5737 472.111 63.9587 472.111 64.374V64.822C472.111 65.2887 472.181 65.7063 472.321 66.075C472.465 66.4437 472.68 66.7353 472.965 66.95C473.249 67.1647 473.609 67.272 474.043 67.272C474.477 67.272 474.834 67.167 475.114 66.957C475.394 66.747 475.564 66.4367 475.625 66.026H476.759C476.689 66.4693 476.53 66.852 476.283 67.174C476.035 67.4913 475.72 67.7363 475.338 67.909C474.955 68.0817 474.523 68.168 474.043 68.168ZM481.234 68.168C480.655 68.168 480.137 68.021 479.68 67.727C479.227 67.4283 478.868 67.0153 478.602 66.488C478.341 65.9607 478.21 65.354 478.21 64.668C478.21 63.9353 478.341 63.3053 478.602 62.778C478.863 62.2507 479.22 61.847 479.673 61.567C480.13 61.2823 480.651 61.14 481.234 61.14C481.743 61.14 482.177 61.2427 482.536 61.448C482.895 61.6533 483.185 61.931 483.404 62.281C483.623 62.631 483.775 63.0277 483.859 63.471C483.948 63.9097 483.973 64.3647 483.936 64.836H479.092V64.164H483.215L482.893 64.374C482.907 64.0987 482.891 63.8233 482.844 63.548C482.802 63.2727 482.72 63.0207 482.599 62.792C482.478 62.5587 482.307 62.372 482.088 62.232C481.869 62.092 481.589 62.022 481.248 62.022C480.819 62.022 480.459 62.1317 480.17 62.351C479.881 62.5703 479.664 62.8597 479.519 63.219C479.374 63.5737 479.302 63.9587 479.302 64.374V64.822C479.302 65.2887 479.372 65.7063 479.512 66.075C479.657 66.4437 479.871 66.7353 480.156 66.95C480.441 67.1647 480.8 67.272 481.234 67.272C481.668 67.272 482.025 67.167 482.305 66.957C482.585 66.747 482.755 66.4367 482.816 66.026H483.95C483.88 66.4693 483.721 66.852 483.474 67.174C483.227 67.4913 482.912 67.7363 482.529 67.909C482.146 68.0817 481.715 68.168 481.234 68.168Z" fill="white"/>
</svg>
