<svg width="189" height="27" viewBox="0 0 189 27" fill="none" xmlns="http://www.w3.org/2000/svg">
<g filter="url(#filter0_i_295_14590)">
<path d="M2.13794 20.9999V4.02283H8.76685C10.8922 4.02283 12.541 4.51199 13.7132 5.4903C14.894 6.46018 15.4843 7.76319 15.4843 9.39934C15.4843 11.0017 14.894 12.2879 13.7132 13.2578C12.541 14.2192 10.8922 14.6999 8.76685 14.6999H6.18613V20.9999H2.13794ZM10.9934 20.9999L6.85661 12.8023H11.1325L16.294 20.9999H10.9934ZM6.18613 12.0686H8.31143C9.31505 12.0686 10.0656 11.862 10.5632 11.4487C11.0693 11.027 11.3223 10.4915 11.3223 9.84211C11.3223 9.16741 11.1072 8.615 10.6771 8.18488C10.2554 7.74632 9.61866 7.52705 8.76685 7.52705H6.18613V12.0686Z" fill="#DDFEF8"/>
<path d="M24.271 20.9999V4.02283H35.6185V7.52705H28.3191V10.7909H35.1631V14.3078H28.3191V17.4578H35.6185V20.9999H24.271Z" fill="#DDFEF8"/>
<path d="M44.8485 20.9999V4.02283H52.1985C53.5732 4.02283 54.7118 4.22524 55.6142 4.63006C56.5166 5.02644 57.1913 5.57042 57.6383 6.26199C58.0937 6.94512 58.3214 7.72102 58.3214 8.5897C58.3214 9.52584 58.0516 10.3186 57.5118 10.968C56.9805 11.6174 56.2805 12.0897 55.4118 12.3849C55.9937 12.5367 56.5251 12.7686 57.0058 13.0807C57.4865 13.3927 57.8702 13.806 58.157 14.3204C58.4522 14.8264 58.5998 15.4548 58.5998 16.2054C58.5998 16.703 58.507 17.2301 58.3214 17.7867C58.1359 18.3433 57.8112 18.8662 57.3473 19.3554C56.8835 19.8361 56.2383 20.2325 55.4118 20.5445C54.5853 20.8481 53.5311 20.9999 52.2491 20.9999H44.8485ZM48.8967 17.4578H52.1226C52.8058 17.4578 53.3245 17.3313 53.6787 17.0783C54.0329 16.8168 54.21 16.4415 54.21 15.9523C54.21 15.4632 54.0413 15.071 53.704 14.7758C53.375 14.4807 52.8479 14.3331 52.1226 14.3331H48.8967V17.4578ZM48.8967 7.52705V10.7656H52.0214C52.7973 10.7656 53.3498 10.618 53.6787 10.3228C54.0076 10.0276 54.172 9.64391 54.172 9.17162C54.172 8.7162 54.0076 8.32825 53.6787 8.00777C53.3582 7.68729 52.8142 7.52705 52.0467 7.52705H48.8967Z" fill="#DDFEF8"/>
<path d="M65.3243 20.9999L71.0424 4.02283H76.1912L81.593 20.9999H77.3298L76.4063 18.0144H70.549L69.6255 20.9999H65.3243ZM71.5737 15.0162H75.4828L73.5599 8.80476L71.5737 15.0162Z" fill="#DDFEF8"/>
<path d="M93.2875 4.02283V17.4578H99.7013V20.9999H89.2393V4.02283H93.2875Z" fill="#DDFEF8"/>
<path d="M105.836 20.9999L111.554 4.02283H116.703L122.105 20.9999H117.841L116.918 18.0144H111.061L110.137 20.9999H105.836ZM112.085 15.0162H115.994L114.071 8.80476L112.085 15.0162Z" fill="#DDFEF8"/>
<path d="M129.675 4.02283H133.9L140.719 14.2951H140.441V4.02283H144.489V20.9999H140.58L133.053 9.7156H133.723V20.9999H129.675V4.02283Z" fill="#DDFEF8"/>
<path d="M160.288 21.4048C158.804 21.4048 157.497 21.0716 156.367 20.4054C155.245 19.7391 154.368 18.7481 153.735 17.4325C153.103 16.1168 152.786 14.4849 152.786 12.5367C152.786 10.5801 153.098 8.94391 153.723 7.62825C154.355 6.31259 155.236 5.32162 156.367 4.65536C157.497 3.98066 158.804 3.64331 160.288 3.64331C162.43 3.64331 164.062 4.14933 165.184 5.16138C166.306 6.17343 166.972 7.48488 167.183 9.09572L162.882 9.84211C162.688 9.11681 162.38 8.51801 161.958 8.04572C161.545 7.565 160.988 7.32464 160.288 7.32464C159.664 7.32464 159.112 7.51439 158.631 7.89391C158.159 8.265 157.792 8.83427 157.53 9.60174C157.269 10.3692 157.138 11.3475 157.138 12.5367C157.138 13.7005 157.273 14.6662 157.543 15.4337C157.813 16.1927 158.184 16.7578 158.656 17.1289C159.137 17.4999 159.681 17.6855 160.288 17.6855C161.157 17.6855 161.806 17.4578 162.236 17.0023C162.667 16.5385 162.882 15.9776 162.882 15.3198H167.158C167.158 16.627 166.892 17.7361 166.361 18.6469C165.838 19.5493 165.066 20.2367 164.045 20.709C163.025 21.1728 161.773 21.4048 160.288 21.4048Z" fill="#DDFEF8"/>
<path d="M175.451 20.9999V4.02283H186.798V7.52705H179.499V10.7909H186.343V14.3078H179.499V17.4578H186.798V20.9999H175.451Z" fill="#DDFEF8"/>
</g>
<g clip-path="url(#clip0_295_14590)">
<g filter="url(#filter1_i_295_14590)">
<path d="M2.13794 20.9999V4.02283H8.76685C10.8922 4.02283 12.541 4.51199 13.7132 5.4903C14.894 6.46018 15.4843 7.76319 15.4843 9.39934C15.4843 11.0017 14.894 12.2879 13.7132 13.2578C12.541 14.2192 10.8922 14.6999 8.76685 14.6999H6.18613V20.9999H2.13794ZM10.9934 20.9999L6.85661 12.8023H11.1325L16.294 20.9999H10.9934ZM6.18613 12.0686H8.31143C9.31505 12.0686 10.0656 11.862 10.5632 11.4487C11.0693 11.027 11.3223 10.4915 11.3223 9.84211C11.3223 9.16741 11.1072 8.615 10.6771 8.18488C10.2554 7.74632 9.61866 7.52705 8.76685 7.52705H6.18613V12.0686Z" fill="#F4B67C"/>
<path d="M24.271 20.9999V4.02283H35.6185V7.52705H28.3191V10.7909H35.1631V14.3078H28.3191V17.4578H35.6185V20.9999H24.271Z" fill="#F4B67C"/>
<path d="M44.8485 20.9999V4.02283H52.1985C53.5732 4.02283 54.7118 4.22524 55.6142 4.63006C56.5166 5.02644 57.1913 5.57042 57.6383 6.26199C58.0937 6.94512 58.3214 7.72102 58.3214 8.5897C58.3214 9.52584 58.0516 10.3186 57.5118 10.968C56.9805 11.6174 56.2805 12.0897 55.4118 12.3849C55.9937 12.5367 56.5251 12.7686 57.0058 13.0807C57.4865 13.3927 57.8702 13.806 58.157 14.3204C58.4522 14.8264 58.5998 15.4548 58.5998 16.2054C58.5998 16.703 58.507 17.2301 58.3214 17.7867C58.1359 18.3433 57.8112 18.8662 57.3473 19.3554C56.8835 19.8361 56.2383 20.2325 55.4118 20.5445C54.5853 20.8481 53.5311 20.9999 52.2491 20.9999H44.8485ZM48.8967 17.4578H52.1226C52.8058 17.4578 53.3245 17.3313 53.6787 17.0783C54.0329 16.8168 54.21 16.4415 54.21 15.9523C54.21 15.4632 54.0413 15.071 53.704 14.7758C53.375 14.4807 52.8479 14.3331 52.1226 14.3331H48.8967V17.4578ZM48.8967 7.52705V10.7656H52.0214C52.7973 10.7656 53.3498 10.618 53.6787 10.3228C54.0076 10.0276 54.172 9.64391 54.172 9.17162C54.172 8.7162 54.0076 8.32825 53.6787 8.00777C53.3582 7.68729 52.8142 7.52705 52.0467 7.52705H48.8967Z" fill="#F4B67C"/>
<path d="M65.3243 20.9999L71.0424 4.02283H76.1912L81.593 20.9999H77.3298L76.4063 18.0144H70.549L69.6255 20.9999H65.3243ZM71.5737 15.0162H75.4828L73.5599 8.80476L71.5737 15.0162Z" fill="#F4B67C"/>
<path d="M93.2875 4.02283V17.4578H99.7013V20.9999H89.2393V4.02283H93.2875Z" fill="#F4B67C"/>
<path d="M105.836 20.9999L111.554 4.02283H116.703L122.105 20.9999H117.841L116.918 18.0144H111.061L110.137 20.9999H105.836ZM112.085 15.0162H115.994L114.071 8.80476L112.085 15.0162Z" fill="#F4B67C"/>
<path d="M129.675 4.02283H133.9L140.719 14.2951H140.441V4.02283H144.489V20.9999H140.58L133.053 9.7156H133.723V20.9999H129.675V4.02283Z" fill="#F4B67C"/>
<path d="M160.288 21.4048C158.804 21.4048 157.497 21.0716 156.367 20.4054C155.245 19.7391 154.368 18.7481 153.735 17.4325C153.103 16.1168 152.786 14.4849 152.786 12.5367C152.786 10.5801 153.098 8.94391 153.723 7.62825C154.355 6.31259 155.236 5.32162 156.367 4.65536C157.497 3.98066 158.804 3.64331 160.288 3.64331C162.43 3.64331 164.062 4.14933 165.184 5.16138C166.306 6.17343 166.972 7.48488 167.183 9.09572L162.882 9.84211C162.688 9.11681 162.38 8.51801 161.958 8.04572C161.545 7.565 160.988 7.32464 160.288 7.32464C159.664 7.32464 159.112 7.51439 158.631 7.89391C158.159 8.265 157.792 8.83427 157.53 9.60174C157.269 10.3692 157.138 11.3475 157.138 12.5367C157.138 13.7005 157.273 14.6662 157.543 15.4337C157.813 16.1927 158.184 16.7578 158.656 17.1289C159.137 17.4999 159.681 17.6855 160.288 17.6855C161.157 17.6855 161.806 17.4578 162.236 17.0023C162.667 16.5385 162.882 15.9776 162.882 15.3198H167.158C167.158 16.627 166.892 17.7361 166.361 18.6469C165.838 19.5493 165.066 20.2367 164.045 20.709C163.025 21.1728 161.773 21.4048 160.288 21.4048Z" fill="#F4B67C"/>
<path d="M175.451 20.9999V4.02283H186.798V7.52705H179.499V10.7909H186.343V14.3078H179.499V17.4578H186.798V20.9999H175.451Z" fill="#F4B67C"/>
</g>
</g>
<defs>
<filter id="filter0_i_295_14590" x="2.13794" y="3.64331" width="184.66" height="21.7615" filterUnits="userSpaceOnUse" color-interpolation-filters="sRGB">
<feFlood flood-opacity="0" result="BackgroundImageFix"/>
<feBlend mode="normal" in="SourceGraphic" in2="BackgroundImageFix" result="shape"/>
<feColorMatrix in="SourceAlpha" type="matrix" values="0 0 0 0 0 0 0 0 0 0 0 0 0 0 0 0 0 0 127 0" result="hardAlpha"/>
<feOffset dy="4"/>
<feGaussianBlur stdDeviation="2"/>
<feComposite in2="hardAlpha" operator="arithmetic" k2="-1" k3="1"/>
<feColorMatrix type="matrix" values="0 0 0 0 0 0 0 0 0 0 0 0 0 0 0 0 0 0 0.25 0"/>
<feBlend mode="normal" in2="shape" result="effect1_innerShadow_295_14590"/>
</filter>
<filter id="filter1_i_295_14590" x="2.13794" y="3.64331" width="184.66" height="21.7615" filterUnits="userSpaceOnUse" color-interpolation-filters="sRGB">
<feFlood flood-opacity="0" result="BackgroundImageFix"/>
<feBlend mode="normal" in="SourceGraphic" in2="BackgroundImageFix" result="shape"/>
<feColorMatrix in="SourceAlpha" type="matrix" values="0 0 0 0 0 0 0 0 0 0 0 0 0 0 0 0 0 0 127 0" result="hardAlpha"/>
<feOffset dy="4"/>
<feGaussianBlur stdDeviation="2"/>
<feComposite in2="hardAlpha" operator="arithmetic" k2="-1" k3="1"/>
<feColorMatrix type="matrix" values="0 0 0 0 0 0 0 0 0 0 0 0 0 0 0 0 0 0 0.25 0"/>
<feBlend mode="normal" in2="shape" result="effect1_innerShadow_295_14590"/>
</filter>
<clipPath id="clip0_295_14590">
<rect width="189" height="12.9036" fill="white"/>
</clipPath>
</defs>
</svg>
