<svg width="72" height="73" viewBox="0 0 72 73" fill="none" xmlns="http://www.w3.org/2000/svg">
<path d="M71.9844 5.09366C71.9844 2.79922 70.1072 0.921875 67.8127 0.921875H4.58267C2.51773 0.921875 0.828125 2.61148 0.828125 4.67642V68.3236C0.828125 70.3885 2.51773 72.0781 4.58267 72.0781H67.8126C70.107 72.0781 71.9844 70.2008 71.9844 67.9063V5.09366V5.09366Z" fill="#00B89C"/>
<path d="M60.0617 17.0602L52.7302 12.7804C51.8273 12.2532 50.6678 12.5579 50.1408 13.461L32.1658 44.2526L20.3315 37.3442C19.5994 36.9168 18.6595 37.1639 18.2321 37.896L13.5909 45.8465C13.1636 46.5786 13.4106 47.5186 14.1427 47.9459L35.2522 60.2688C35.9843 60.6961 36.9243 60.449 37.3516 59.7169L37.5228 59.4237C37.5261 59.418 37.5302 59.4129 37.5336 59.4071L60.7423 19.6496C61.2694 18.7467 60.9647 17.5874 60.0617 17.0602Z" fill="white"/>
</svg>
