<svg width="616" height="70" viewBox="0 0 616 70" fill="none" xmlns="http://www.w3.org/2000/svg">
<rect width="70" height="70" transform="matrix(0.866646 0.498924 -0.866646 0.498924 301.985 0)" fill="url(#paint0_linear_29_4598)"/>
<rect width="70" height="70" transform="matrix(0.866646 0.498924 -0.866646 0.498924 301.985 0)" fill="url(#paint1_linear_29_4598)"/>
<path d="M279.626 27.1346C278.888 26.7096 278.403 26.2402 278.171 25.7264C277.944 25.2151 277.999 24.681 278.337 24.1243C278.675 23.5675 279.327 23.011 280.293 22.4548C281.263 21.8962 282.23 21.5184 283.193 21.3214C284.16 21.1269 285.09 21.0963 285.982 21.2297C286.879 21.3606 287.696 21.6386 288.434 22.0635C289.5 22.6769 290.061 23.2886 290.116 23.8987C290.172 24.5088 289.853 25.074 289.159 25.5943L286.65 24.5759C286.913 24.3133 287.057 24.0542 287.082 23.7986C287.115 23.543 286.957 23.315 286.609 23.1146C286.298 22.9359 285.93 22.8319 285.502 22.8026C285.083 22.7734 284.619 22.8309 284.108 22.9751C283.597 23.1194 283.047 23.3613 282.457 23.7008C281.88 24.0331 281.468 24.3474 281.222 24.6438C280.98 24.9378 280.884 25.2054 280.935 25.4466C280.99 25.6902 281.168 25.8989 281.47 26.0727C281.902 26.3214 282.338 26.4424 282.778 26.4355C283.222 26.4262 283.607 26.3276 283.933 26.1398L286.06 27.3641C285.412 27.7373 284.73 27.9779 284.014 28.0858C283.306 28.1938 282.581 28.1691 281.84 28.0117C281.102 27.852 280.364 27.5596 279.626 27.1346Z" fill="white"/>
<path d="M288.305 31.8999L299.568 28.69L302.129 30.1641L296.396 36.5579L294.276 35.3373L295.297 34.2204L292.384 32.5434L290.444 33.1314L288.305 31.8999ZM294.381 31.9808L296.325 33.1L298.449 30.776L294.381 31.9808Z" fill="white"/>
<path d="M312.393 36.0732L305.73 39.9091L308.92 41.7454L307.164 42.7568L301.96 39.7613L310.38 34.9142L312.393 36.0732Z" fill="white"/>
<path d="M315.821 47.9719C315.083 47.5469 314.598 47.0775 314.366 46.5637C314.139 46.0524 314.194 45.5183 314.532 44.9616C314.87 44.4048 315.522 43.8483 316.488 43.2921C317.458 42.7335 318.425 42.3557 319.388 42.1587C320.355 41.9642 321.285 41.9336 322.177 42.0669C323.074 42.1979 323.891 42.4758 324.629 42.9008C325.695 43.5142 326.256 44.1259 326.311 44.736C326.367 45.3461 326.048 45.9113 325.354 46.4316L322.845 45.4132C323.108 45.1506 323.252 44.8915 323.277 44.6359C323.31 44.3803 323.152 44.1523 322.804 43.9519C322.493 43.7732 322.125 43.6692 321.697 43.6399C321.278 43.6107 320.814 43.6682 320.303 43.8124C319.792 43.9567 319.242 44.1986 318.652 44.5381C318.075 44.8704 317.663 45.1847 317.417 45.4811C317.175 45.7751 317.079 46.0427 317.13 46.2839C317.185 46.5274 317.363 46.7362 317.665 46.91C318.097 47.1587 318.533 47.2797 318.973 47.2728C319.417 47.2635 319.802 47.1649 320.128 46.9771L322.255 48.2014C321.607 48.5746 320.925 48.8152 320.209 48.9231C319.501 49.031 318.776 49.0063 318.035 48.849C317.297 48.6893 316.559 48.3969 315.821 47.9719Z" fill="white"/>
<g clip-path="url(#clip0_29_4598)">
<path d="M279.628 27.1141C278.89 26.6891 278.405 26.2198 278.173 25.706C277.946 25.1946 278.001 24.6605 278.339 24.1038C278.677 23.547 279.329 22.9906 280.295 22.4343C281.265 21.8757 282.232 21.4979 283.195 21.3009C284.162 21.1064 285.092 21.0758 285.984 21.2092C286.881 21.3401 287.698 21.6181 288.437 22.0431C289.502 22.6564 290.063 23.2681 290.119 23.8782C290.174 24.4883 289.855 25.0535 289.161 25.5738L286.652 24.5554C286.915 24.2928 287.059 24.0337 287.084 23.7781C287.117 23.5225 286.959 23.2945 286.611 23.0941C286.3 22.9154 285.932 22.8114 285.504 22.7822C285.085 22.7529 284.621 22.8104 284.11 22.9546C283.599 23.0989 283.049 23.3408 282.459 23.6803C281.882 24.0126 281.47 24.3269 281.224 24.6233C280.982 24.9173 280.886 25.1849 280.937 25.4261C280.992 25.6697 281.17 25.8784 281.472 26.0522C281.904 26.301 282.34 26.4219 282.78 26.415C283.224 26.4057 283.609 26.3072 283.935 26.1193L286.062 27.3436C285.414 27.7168 284.732 27.9574 284.016 28.0653C283.308 28.1733 282.583 28.1486 281.842 27.9912C281.104 27.8315 280.366 27.5391 279.628 27.1141Z" fill="#F4B67C"/>
<path d="M288.307 31.8794L299.57 28.6695L302.131 30.1436L296.398 36.5374L294.278 35.3168L295.299 34.2L292.386 32.5229L290.446 33.1109L288.307 31.8794ZM294.383 31.9603L296.327 33.0795L298.451 30.7555L294.383 31.9603Z" fill="#F4B67C"/>
<path d="M312.395 36.0527L305.732 39.8886L308.922 41.7249L307.166 42.7363L301.962 39.7408L310.382 34.8937L312.395 36.0527Z" fill="#F4B67C"/>
<path d="M315.823 47.9514C315.085 47.5264 314.6 47.057 314.368 46.5432C314.141 46.0319 314.196 45.4978 314.534 44.9411C314.872 44.3843 315.524 43.8278 316.49 43.2716C317.46 42.713 318.427 42.3352 319.39 42.1382C320.357 41.9437 321.287 41.9131 322.179 42.0465C323.076 42.1774 323.893 42.4554 324.632 42.8803C325.697 43.4937 326.258 44.1054 326.314 44.7155C326.369 45.3256 326.05 45.8908 325.356 46.4111L322.847 45.3927C323.11 45.1301 323.254 44.871 323.279 44.6154C323.312 44.3598 323.154 44.1318 322.806 43.9314C322.495 43.7527 322.127 43.6487 321.699 43.6194C321.28 43.5902 320.816 43.6477 320.305 43.7919C319.794 43.9362 319.244 44.1781 318.654 44.5176C318.077 44.8499 317.665 45.1642 317.419 45.4606C317.177 45.7546 317.081 46.0222 317.132 46.2634C317.187 46.5069 317.365 46.7157 317.667 46.8895C318.099 47.1382 318.535 47.2592 318.975 47.2523C319.419 47.243 319.804 47.1444 320.13 46.9566L322.257 48.1809C321.609 48.5541 320.927 48.7947 320.211 48.9026C319.503 49.0106 318.778 48.9859 318.037 48.8285C317.299 48.6688 316.561 48.3764 315.823 47.9514Z" fill="#F4B67C"/>
</g>
<path d="M23.25 42.4999C23.25 42.6988 23.171 42.8896 23.0303 43.0303C22.8897 43.1709 22.6989 43.2499 22.5 43.2499H1.5C1.30109 43.2499 1.11032 43.1709 0.96967 43.0303C0.829018 42.8896 0.75 42.6988 0.75 42.4999C0.75 42.301 0.829018 42.1102 0.96967 41.9696C1.11032 41.8289 1.30109 41.7499 1.5 41.7499H22.5C22.6989 41.7499 22.8897 41.8289 23.0303 41.9696C23.171 42.1102 23.25 42.301 23.25 42.4999ZM1.52812 32.2062C1.48343 32.049 1.49129 31.8815 1.55052 31.7292C1.60975 31.5769 1.7171 31.4481 1.85625 31.3624L11.6063 25.3624C11.7242 25.2884 11.8607 25.2491 12 25.2491C12.1393 25.2491 12.2758 25.2884 12.3937 25.3624L22.1437 31.3624C22.2823 31.4483 22.3891 31.5769 22.448 31.7289C22.5069 31.8809 22.5147 32.0479 22.4702 32.2047C22.4257 32.3615 22.3313 32.4995 22.2014 32.5979C22.0714 32.6963 21.913 32.7496 21.75 32.7499H19.5V38.7499H21C21.1989 38.7499 21.3897 38.8289 21.5303 38.9696C21.671 39.1102 21.75 39.301 21.75 39.4999C21.75 39.6988 21.671 39.8896 21.5303 40.0303C21.3897 40.1709 21.1989 40.2499 21 40.2499H3C2.80109 40.2499 2.61032 40.1709 2.46967 40.0303C2.32902 39.8896 2.25 39.6988 2.25 39.4999C2.25 39.301 2.32902 39.1102 2.46967 38.9696C2.61032 38.8289 2.80109 38.7499 3 38.7499H4.5V32.7499H2.25C2.08692 32.7501 1.92823 32.6971 1.79796 32.599C1.6677 32.5009 1.57297 32.363 1.52812 32.2062ZM13.5 37.9999C13.5 38.1988 13.579 38.3896 13.7197 38.5303C13.8603 38.6709 14.0511 38.7499 14.25 38.7499C14.4489 38.7499 14.6397 38.6709 14.7803 38.5303C14.921 38.3896 15 38.1988 15 37.9999V33.4999C15 33.301 14.921 33.1102 14.7803 32.9696C14.6397 32.8289 14.4489 32.7499 14.25 32.7499C14.0511 32.7499 13.8603 32.8289 13.7197 32.9696C13.579 33.1102 13.5 33.301 13.5 33.4999V37.9999ZM9 37.9999C9 38.1988 9.07902 38.3896 9.21967 38.5303C9.36032 38.6709 9.55109 38.7499 9.75 38.7499C9.94891 38.7499 10.1397 38.6709 10.2803 38.5303C10.421 38.3896 10.5 38.1988 10.5 37.9999V33.4999C10.5 33.301 10.421 33.1102 10.2803 32.9696C10.1397 32.8289 9.94891 32.7499 9.75 32.7499C9.55109 32.7499 9.36032 32.8289 9.21967 32.9696C9.07902 33.1102 9 33.301 9 33.4999V37.9999Z" fill="#D5F8F9"/>
<path d="M612.25 29.75H597.25C597.051 29.75 596.86 29.671 596.72 29.5303C596.579 29.3897 596.5 29.1989 596.5 29C596.5 28.8011 596.579 28.6103 596.72 28.4697C596.86 28.329 597.051 28.25 597.25 28.25H610C610.199 28.25 610.39 28.171 610.53 28.0303C610.671 27.8897 610.75 27.6989 610.75 27.5C610.75 27.3011 610.671 27.1103 610.53 26.9697C610.39 26.829 610.199 26.75 610 26.75H597.25C596.654 26.7525 596.083 26.9903 595.662 27.4117C595.24 27.8332 595.002 28.404 595 29V41C595.002 41.596 595.24 42.1668 595.662 42.5883C596.083 43.0097 596.654 43.2475 597.25 43.25H612.25C612.648 43.25 613.029 43.092 613.311 42.8107C613.592 42.5294 613.75 42.1478 613.75 41.75V31.25C613.75 30.8522 613.592 30.4706 613.311 30.1893C613.029 29.908 612.648 29.75 612.25 29.75ZM608.875 37.625C608.652 37.625 608.435 37.559 608.25 37.4354C608.065 37.3118 607.921 37.1361 607.836 36.9305C607.75 36.725 607.728 36.4988 607.772 36.2805C607.815 36.0623 607.922 35.8618 608.08 35.7045C608.237 35.5472 608.437 35.44 608.656 35.3966C608.874 35.3532 609.1 35.3755 609.306 35.4606C609.511 35.5458 609.687 35.69 609.81 35.875C609.934 36.06 610 36.2775 610 36.5C610 36.7984 609.881 37.0845 609.67 37.2955C609.46 37.5065 609.173 37.625 608.875 37.625Z" fill="#D5F8F9"/>
<path d="M485.25 31.4V30.875C485.25 28.5219 481.706 26.75 477 26.75C472.294 26.75 468.75 28.5219 468.75 30.875V34.625C468.75 36.5844 471.206 38.1406 474.75 38.6094V39.125C474.75 41.4781 478.294 43.25 483 43.25C487.706 43.25 491.25 41.4781 491.25 39.125V35.375C491.25 33.4344 488.869 31.8781 485.25 31.4ZM474.75 37.0812V34.8594C475.496 34.9553 476.248 35.0022 477 35C477.752 35.0022 478.504 34.9553 479.25 34.8594V37.0812C478.506 37.1972 477.753 37.2537 477 37.25C476.247 37.2537 475.494 37.1972 474.75 37.0812ZM483.75 33.3031V34.625C483.75 35.4125 482.587 36.2562 480.75 36.7719V34.5781C481.959 34.2875 482.981 33.8469 483.75 33.3031ZM470.25 34.625V33.3031C471.019 33.8469 472.041 34.2875 473.25 34.5781V36.7719C471.412 36.2562 470.25 35.4125 470.25 34.625ZM476.25 39.125V38.7313L477 38.75C477.369 38.75 477.725 38.7406 478.069 38.7219C478.444 38.8531 478.837 38.9656 479.25 39.0687V41.2719C477.413 40.7562 476.25 39.9125 476.25 39.125ZM480.75 41.5812V39.35C481.496 39.4479 482.248 39.498 483 39.5C483.752 39.5022 484.504 39.4553 485.25 39.3594V41.5812C483.758 41.8062 482.242 41.8062 480.75 41.5812ZM486.75 41.2719V39.0781C487.959 38.7875 488.981 38.3469 489.75 37.8031V39.125C489.75 39.9125 488.587 40.7562 486.75 41.2719Z" fill="#D5F8F9"/>
<path d="M145.75 28.25H126.25C125.852 28.25 125.471 28.408 125.189 28.6893C124.908 28.9706 124.75 29.3522 124.75 29.75V40.25C124.75 40.6478 124.908 41.0294 125.189 41.3107C125.471 41.592 125.852 41.75 126.25 41.75H145.75C146.148 41.75 146.529 41.592 146.811 41.3107C147.092 41.0294 147.25 40.6478 147.25 40.25V29.75C147.25 29.3522 147.092 28.9706 146.811 28.6893C146.529 28.408 146.148 28.25 145.75 28.25ZM131.031 40.25L126.25 36.1531V33.8469L131.031 29.75H140.969L145.75 33.8469V36.1531L140.969 40.25H131.031ZM139.75 35C139.75 35.7417 139.53 36.4667 139.118 37.0834C138.706 37.7001 138.12 38.1807 137.435 38.4645C136.75 38.7484 135.996 38.8226 135.268 38.6779C134.541 38.5333 133.873 38.1761 133.348 37.6517C132.824 37.1272 132.467 36.459 132.322 35.7316C132.177 35.0042 132.252 34.2502 132.535 33.5649C132.819 32.8797 133.3 32.294 133.917 31.882C134.533 31.4699 135.258 31.25 136 31.25C136.995 31.25 137.948 31.6451 138.652 32.3483C139.355 33.0516 139.75 34.0054 139.75 35Z" fill="#D5F8F9"/>
<path d="M104.354 35.3536C104.549 35.1583 104.549 34.8417 104.354 34.6464L101.172 31.4645C100.976 31.2692 100.66 31.2692 100.464 31.4645C100.269 31.6597 100.269 31.9763 100.464 32.1716L103.293 35L100.464 37.8284C100.269 38.0237 100.269 38.3403 100.464 38.5355C100.66 38.7308 100.976 38.7308 101.172 38.5355L104.354 35.3536ZM44 35.5H104V34.5H44V35.5Z" fill="#CBF6F7"/>
<path d="M228.354 35.3536C228.549 35.1583 228.549 34.8417 228.354 34.6464L225.172 31.4645C224.976 31.2692 224.66 31.2692 224.464 31.4645C224.269 31.6597 224.269 31.9763 224.464 32.1716L227.293 35L224.464 37.8284C224.269 38.0237 224.269 38.3403 224.464 38.5355C224.66 38.7308 224.976 38.7308 225.172 38.5355L228.354 35.3536ZM168 35.5H228V34.5H168V35.5Z" fill="#CBF6F7"/>
<path d="M448.354 35.3536C448.549 35.1583 448.549 34.8417 448.354 34.6464L445.172 31.4645C444.976 31.2692 444.66 31.2692 444.464 31.4645C444.269 31.6597 444.269 31.9763 444.464 32.1716L447.293 35L444.464 37.8284C444.269 38.0237 444.269 38.3403 444.464 38.5355C444.66 38.7308 444.976 38.7308 445.172 38.5355L448.354 35.3536ZM388 35.5H448V34.5H388V35.5Z" fill="#CBF6F7"/>
<path d="M572.354 35.3536C572.549 35.1583 572.549 34.8417 572.354 34.6464L569.172 31.4645C568.976 31.2692 568.66 31.2692 568.464 31.4645C568.269 31.6597 568.269 31.9763 568.464 32.1716L571.293 35L568.464 37.8284C568.269 38.0237 568.269 38.3403 568.464 38.5355C568.66 38.7308 568.976 38.7308 569.172 38.5355L572.354 35.3536ZM512 35.5H572V34.5H512V35.5Z" fill="#CBF6F7"/>
<defs>
<linearGradient id="paint0_linear_29_4598" x1="0" y1="0" x2="70" y2="70" gradientUnits="userSpaceOnUse">
<stop stop-color="#C4C4C4" stop-opacity="0.22"/>
<stop offset="0.841856" stop-color="#C4C4C4" stop-opacity="0"/>
</linearGradient>
<linearGradient id="paint1_linear_29_4598" x1="0" y1="0" x2="70" y2="70" gradientUnits="userSpaceOnUse">
<stop stop-color="#C4C4C4" stop-opacity="0.22"/>
<stop offset="0.841856" stop-color="#C4C4C4" stop-opacity="0"/>
</linearGradient>
<clipPath id="clip0_29_4598">
<rect width="50.0619" height="4.97705" fill="white" transform="matrix(0.866646 0.498924 -0.866646 0.498924 284.706 19.8952)"/>
</clipPath>
</defs>
</svg>
