<?xml version="1.0" encoding="UTF-8"?>
<svg fill="none" viewBox="0 0 811 764" xmlns="http://www.w3.org/2000/svg">
<g opacity=".6" stroke-width="2">
<ellipse transform="rotate(140 340 381.94)" cx="340" cy="381.94" rx="48.17" ry="397.4" opacity=".016949" stroke="url(#bg)"/>
<ellipse transform="rotate(150 340 381.94)" cx="340" cy="381.94" rx="48.17" ry="391.38" opacity=".033898" stroke="url(#av)"/>
<ellipse transform="rotate(160 340 381.94)" cx="340" cy="381.94" rx="48.17" ry="385.36" opacity=".050848" stroke="url(#ak)"/>
<ellipse transform="rotate(170 340 381.94)" cx="340" cy="381.94" rx="48.17" ry="379.34" opacity=".067797" stroke="url(#z)"/>
<ellipse transform="rotate(180 340 381.94)" cx="340" cy="381.94" rx="48.17" ry="373.31" opacity=".084746" stroke="url(#o)"/>
<ellipse transform="rotate(190 340 381.94)" cx="340" cy="381.94" rx="48.17" ry="367.29" opacity=".1017" stroke="url(#e)"/>
<ellipse transform="rotate(200 340 381.94)" cx="340" cy="381.94" rx="48.17" ry="361.27" opacity=".11864" stroke="url(#d)"/>
<ellipse transform="rotate(210 340 381.94)" cx="340" cy="381.94" rx="48.17" ry="355.25" opacity=".13559" stroke="url(#c)"/>
<ellipse transform="rotate(220 340 381.94)" cx="340" cy="381.94" rx="48.17" ry="349.23" opacity=".15254" stroke="url(#b)"/>
<ellipse transform="rotate(230 340 381.94)" cx="340" cy="381.94" rx="48.17" ry="343.21" opacity=".16949" stroke="url(#a)"/>
<ellipse transform="rotate(240 340 381.94)" cx="340" cy="381.94" rx="48.17" ry="337.19" opacity=".18644" stroke="url(#bf)"/>
<ellipse transform="rotate(250 340 381.94)" cx="340" cy="381.94" rx="48.17" ry="331.16" opacity=".20339" stroke="url(#be)"/>
<ellipse transform="rotate(260 340 381.94)" cx="340" cy="381.94" rx="48.17" ry="325.14" opacity=".22034" stroke="url(#bd)"/>
<ellipse transform="rotate(-90 340 381.94)" cx="340" cy="381.94" rx="48.17" ry="319.12" opacity=".23729" stroke="url(#bc)"/>
<ellipse transform="rotate(-80 340 381.94)" cx="340" cy="381.94" rx="48.17" ry="313.1" opacity=".25424" stroke="url(#bb)"/>
<ellipse transform="rotate(-70 340 381.94)" cx="340" cy="381.94" rx="48.17" ry="307.08" opacity=".27119" stroke="url(#ba)"/>
<ellipse transform="rotate(-60 340 381.94)" cx="340" cy="381.94" rx="48.17" ry="301.06" opacity=".28814" stroke="url(#az)"/>
<ellipse transform="rotate(-50 340 381.94)" cx="340" cy="381.94" rx="48.17" ry="295.04" opacity=".30508" stroke="url(#ay)"/>
<ellipse transform="rotate(-40 340 381.94)" cx="340" cy="381.94" rx="48.17" ry="289.02" opacity=".32203" stroke="url(#ax)"/>
<ellipse transform="rotate(-30 340 381.94)" cx="340" cy="381.94" rx="48.17" ry="283" opacity=".33898" stroke="url(#aw)"/>
<ellipse transform="rotate(-20 340 381.94)" cx="340" cy="381.94" rx="48.17" ry="276.98" opacity=".35593" stroke="url(#au)"/>
<ellipse transform="rotate(-10 340 381.94)" cx="340" cy="381.94" rx="48.17" ry="270.95" opacity=".37288" stroke="url(#at)"/>
<ellipse cx="340" cy="381.94" rx="48.17" ry="264.93" opacity=".38983" stroke="url(#as)"/>
<ellipse transform="rotate(10 340 381.94)" cx="340" cy="381.94" rx="48.17" ry="258.91" opacity=".40678" stroke="url(#ar)"/>
<ellipse transform="rotate(20 340 381.94)" cx="340" cy="381.94" rx="48.17" ry="252.89" opacity=".42373" stroke="url(#aq)"/>
<ellipse transform="rotate(30 340 381.94)" cx="340" cy="381.94" rx="48.17" ry="246.87" opacity=".44068" stroke="url(#ap)"/>
<ellipse transform="rotate(40 340 381.94)" cx="340" cy="381.94" rx="48.17" ry="240.85" opacity=".45763" stroke="url(#ao)"/>
<ellipse transform="rotate(50 340 381.94)" cx="340" cy="381.94" rx="48.17" ry="234.83" opacity=".47458" stroke="url(#an)"/>
<ellipse transform="rotate(60 340 381.94)" cx="340" cy="381.94" rx="48.17" ry="228.8" opacity=".49152" stroke="url(#am)"/>
<ellipse transform="rotate(70 340 381.94)" cx="340" cy="381.94" rx="48.17" ry="222.78" opacity=".50848" stroke="url(#al)"/>
<ellipse transform="rotate(80 340 381.94)" cx="340" cy="381.94" rx="48.17" ry="216.76" opacity=".52542" stroke="url(#aj)"/>
<ellipse transform="rotate(90 340 381.94)" cx="340" cy="381.94" rx="48.17" ry="210.74" opacity=".54237" stroke="url(#ai)"/>
<ellipse transform="rotate(100 340 381.94)" cx="340" cy="381.94" rx="48.17" ry="204.72" opacity=".55932" stroke="url(#ah)"/>
<ellipse transform="rotate(110 340 381.94)" cx="340" cy="381.94" rx="48.17" ry="198.7" opacity=".57627" stroke="url(#ag)"/>
<ellipse transform="rotate(120 340 381.94)" cx="340" cy="381.94" rx="48.17" ry="192.68" opacity=".59322" stroke="url(#af)"/>
<ellipse transform="rotate(130 340 381.94)" cx="340" cy="381.94" rx="48.17" ry="186.66" opacity=".61017" stroke="url(#ae)"/>
<ellipse transform="rotate(140 340 381.94)" cx="340" cy="381.94" rx="48.17" ry="180.64" opacity=".62712" stroke="url(#ad)"/>
<ellipse transform="rotate(150 340 381.94)" cx="340" cy="381.94" rx="48.17" ry="174.61" opacity=".64407" stroke="url(#ac)"/>
<ellipse transform="rotate(160 340 381.94)" cx="340" cy="381.94" rx="48.17" ry="168.59" opacity=".66102" stroke="url(#ab)"/>
<ellipse transform="rotate(170 340 381.94)" cx="340" cy="381.94" rx="48.17" ry="162.57" opacity=".67797" stroke="url(#aa)"/>
<ellipse transform="rotate(180 340 381.94)" cx="340" cy="381.94" rx="48.17" ry="156.55" opacity=".69492" stroke="url(#y)"/>
<ellipse transform="rotate(190 340 381.94)" cx="340" cy="381.94" rx="48.17" ry="150.53" opacity=".71186" stroke="url(#x)"/>
<ellipse transform="rotate(200 340 381.94)" cx="340" cy="381.94" rx="48.17" ry="144.51" opacity=".72881" stroke="url(#w)"/>
<ellipse transform="rotate(210 340 381.94)" cx="340" cy="381.94" rx="48.17" ry="138.49" opacity=".74576" stroke="url(#v)"/>
<ellipse transform="rotate(220 340 381.94)" cx="340" cy="381.94" rx="48.17" ry="132.47" opacity=".76271" stroke="url(#u)"/>
<ellipse transform="rotate(230 340 381.94)" cx="340" cy="381.94" rx="48.17" ry="126.44" opacity=".77966" stroke="url(#t)"/>
<ellipse transform="rotate(240 340 381.94)" cx="340" cy="381.94" rx="48.17" ry="120.42" opacity=".79661" stroke="url(#s)"/>
<ellipse transform="rotate(250 340 381.94)" cx="340" cy="381.94" rx="48.17" ry="114.4" opacity=".81356" stroke="url(#r)"/>
<ellipse transform="rotate(260 340 381.94)" cx="340" cy="381.94" rx="48.17" ry="108.38" opacity=".83051" stroke="url(#q)"/>
<ellipse transform="rotate(-90 340 381.94)" cx="340" cy="381.94" rx="48.17" ry="102.36" opacity=".84746" stroke="url(#p)"/>
<ellipse transform="rotate(-80 340 381.94)" cx="340" cy="381.94" rx="48.17" ry="96.339" opacity=".86441" stroke="url(#n)"/>
<ellipse transform="rotate(-70 340 381.94)" cx="340" cy="381.94" rx="48.17" ry="90.318" opacity=".88136" stroke="url(#m)"/>
<ellipse transform="rotate(-60 340 381.94)" cx="340" cy="381.94" rx="48.17" ry="84.297" opacity=".8983" stroke="url(#l)"/>
<ellipse transform="rotate(-50 340 381.94)" cx="340" cy="381.94" rx="48.17" ry="78.275" opacity=".91525" stroke="url(#k)"/>
<ellipse transform="rotate(-40 340 381.94)" cx="340" cy="381.94" rx="48.17" ry="72.254" opacity=".9322" stroke="url(#j)"/>
<ellipse transform="rotate(-30 340 381.94)" cx="340" cy="381.94" rx="48.17" ry="66.233" opacity=".94915" stroke="url(#i)"/>
<ellipse transform="rotate(-20 340 381.94)" cx="340" cy="381.94" rx="48.17" ry="60.212" opacity=".9661" stroke="url(#h)"/>
<ellipse transform="rotate(-10 340 381.94)" cx="340" cy="381.94" rx="48.17" ry="54.191" opacity=".98305" stroke="url(#g)"/>
<circle cx="340" cy="381.94" r="48.17" stroke="url(#f)"/>
</g>
<rect x="18" y="19" width="793" height="719" fill="#171922" opacity=".7"/>
<defs>
<linearGradient id="bg" x1="340" x2="340" y1="-15.462" y2="809.14" gradientUnits="userSpaceOnUse">
<stop stop-color="#FFB636" offset="0"/>
<stop stop-color="#F4B67C" offset=".63306"/>
<stop stop-color="#CBF6F7" offset="1"/>
</linearGradient>
<linearGradient id="av" x1="340" x2="340" y1="-9.4412" y2="802.67" gradientUnits="userSpaceOnUse">
<stop stop-color="#FFB636" offset="0"/>
<stop stop-color="#F4B67C" offset=".63306"/>
<stop stop-color="#CBF6F7" offset="1"/>
</linearGradient>
<linearGradient id="ak" x1="340" x2="340" y1="-3.4199" y2="796.19" gradientUnits="userSpaceOnUse">
<stop stop-color="#FFB636" offset="0"/>
<stop stop-color="#F4B67C" offset=".63306"/>
<stop stop-color="#CBF6F7" offset="1"/>
</linearGradient>
<linearGradient id="z" x1="340" x2="340" y1="2.6015" y2="789.72" gradientUnits="userSpaceOnUse">
<stop stop-color="#FFB636" offset="0"/>
<stop stop-color="#F4B67C" offset=".63306"/>
<stop stop-color="#CBF6F7" offset="1"/>
</linearGradient>
<linearGradient id="o" x1="340" x2="340" y1="8.6222" y2="783.25" gradientUnits="userSpaceOnUse">
<stop stop-color="#FFB636" offset="0"/>
<stop stop-color="#F4B67C" offset=".63306"/>
<stop stop-color="#CBF6F7" offset="1"/>
</linearGradient>
<linearGradient id="e" x1="340" x2="340" y1="14.643" y2="776.78" gradientUnits="userSpaceOnUse">
<stop stop-color="#FFB636" offset="0"/>
<stop stop-color="#F4B67C" offset=".63306"/>
<stop stop-color="#CBF6F7" offset="1"/>
</linearGradient>
<linearGradient id="d" x1="340" x2="340" y1="20.665" y2="770.3" gradientUnits="userSpaceOnUse">
<stop stop-color="#FFB636" offset="0"/>
<stop stop-color="#F4B67C" offset=".63306"/>
<stop stop-color="#CBF6F7" offset="1"/>
</linearGradient>
<linearGradient id="c" x1="340" x2="340" y1="26.686" y2="763.83" gradientUnits="userSpaceOnUse">
<stop stop-color="#FFB636" offset="0"/>
<stop stop-color="#F4B67C" offset=".63306"/>
<stop stop-color="#CBF6F7" offset="1"/>
</linearGradient>
<linearGradient id="b" x1="340" x2="340" y1="32.707" y2="757.36" gradientUnits="userSpaceOnUse">
<stop stop-color="#FFB636" offset="0"/>
<stop stop-color="#F4B67C" offset=".63306"/>
<stop stop-color="#CBF6F7" offset="1"/>
</linearGradient>
<linearGradient id="a" x1="340" x2="340" y1="38.728" y2="750.88" gradientUnits="userSpaceOnUse">
<stop stop-color="#FFB636" offset="0"/>
<stop stop-color="#F4B67C" offset=".63306"/>
<stop stop-color="#CBF6F7" offset="1"/>
</linearGradient>
<linearGradient id="bf" x1="340" x2="340" y1="44.749" y2="744.41" gradientUnits="userSpaceOnUse">
<stop stop-color="#FFB636" offset="0"/>
<stop stop-color="#F4B67C" offset=".63306"/>
<stop stop-color="#CBF6F7" offset="1"/>
</linearGradient>
<linearGradient id="be" x1="340" x2="340" y1="50.771" y2="737.94" gradientUnits="userSpaceOnUse">
<stop stop-color="#FFB636" offset="0"/>
<stop stop-color="#F4B67C" offset=".63306"/>
<stop stop-color="#CBF6F7" offset="1"/>
</linearGradient>
<linearGradient id="bd" x1="340" x2="340" y1="56.792" y2="731.47" gradientUnits="userSpaceOnUse">
<stop stop-color="#FFB636" offset="0"/>
<stop stop-color="#F4B67C" offset=".63306"/>
<stop stop-color="#CBF6F7" offset="1"/>
</linearGradient>
<linearGradient id="bc" x1="340" x2="340" y1="62.814" y2="724.99" gradientUnits="userSpaceOnUse">
<stop stop-color="#FFB636" offset="0"/>
<stop stop-color="#F4B67C" offset=".63306"/>
<stop stop-color="#CBF6F7" offset="1"/>
</linearGradient>
<linearGradient id="bb" x1="340" x2="340" y1="68.834" y2="718.52" gradientUnits="userSpaceOnUse">
<stop stop-color="#FFB636" offset="0"/>
<stop stop-color="#F4B67C" offset=".63306"/>
<stop stop-color="#CBF6F7" offset="1"/>
</linearGradient>
<linearGradient id="ba" x1="340" x2="340" y1="74.855" y2="712.05" gradientUnits="userSpaceOnUse">
<stop stop-color="#FFB636" offset="0"/>
<stop stop-color="#F4B67C" offset=".63306"/>
<stop stop-color="#CBF6F7" offset="1"/>
</linearGradient>
<linearGradient id="az" x1="340" x2="340" y1="80.876" y2="705.57" gradientUnits="userSpaceOnUse">
<stop stop-color="#FFB636" offset="0"/>
<stop stop-color="#F4B67C" offset=".63306"/>
<stop stop-color="#CBF6F7" offset="1"/>
</linearGradient>
<linearGradient id="ay" x1="340" x2="340" y1="86.897" y2="699.1" gradientUnits="userSpaceOnUse">
<stop stop-color="#FFB636" offset="0"/>
<stop stop-color="#F4B67C" offset=".63306"/>
<stop stop-color="#CBF6F7" offset="1"/>
</linearGradient>
<linearGradient id="ax" x1="340" x2="340" y1="92.918" y2="692.63" gradientUnits="userSpaceOnUse">
<stop stop-color="#FFB636" offset="0"/>
<stop stop-color="#F4B67C" offset=".63306"/>
<stop stop-color="#CBF6F7" offset="1"/>
</linearGradient>
<linearGradient id="aw" x1="340" x2="340" y1="98.94" y2="686.16" gradientUnits="userSpaceOnUse">
<stop stop-color="#FFB636" offset="0"/>
<stop stop-color="#F4B67C" offset=".63306"/>
<stop stop-color="#CBF6F7" offset="1"/>
</linearGradient>
<linearGradient id="au" x1="340" x2="340" y1="104.96" y2="679.68" gradientUnits="userSpaceOnUse">
<stop stop-color="#FFB636" offset="0"/>
<stop stop-color="#F4B67C" offset=".63306"/>
<stop stop-color="#CBF6F7" offset="1"/>
</linearGradient>
<linearGradient id="at" x1="340" x2="340" y1="110.98" y2="673.21" gradientUnits="userSpaceOnUse">
<stop stop-color="#FFB636" offset="0"/>
<stop stop-color="#F4B67C" offset=".63306"/>
<stop stop-color="#CBF6F7" offset="1"/>
</linearGradient>
<linearGradient id="as" x1="340" x2="340" y1="117" y2="666.74" gradientUnits="userSpaceOnUse">
<stop stop-color="#FFB636" offset="0"/>
<stop stop-color="#F4B67C" offset=".63306"/>
<stop stop-color="#CBF6F7" offset="1"/>
</linearGradient>
<linearGradient id="ar" x1="340" x2="340" y1="123.02" y2="660.26" gradientUnits="userSpaceOnUse">
<stop stop-color="#FFB636" offset="0"/>
<stop stop-color="#F4B67C" offset=".63306"/>
<stop stop-color="#CBF6F7" offset="1"/>
</linearGradient>
<linearGradient id="aq" x1="340" x2="340" y1="129.05" y2="653.79" gradientUnits="userSpaceOnUse">
<stop stop-color="#FFB636" offset="0"/>
<stop stop-color="#F4B67C" offset=".63306"/>
<stop stop-color="#CBF6F7" offset="1"/>
</linearGradient>
<linearGradient id="ap" x1="340" x2="340" y1="135.07" y2="647.32" gradientUnits="userSpaceOnUse">
<stop stop-color="#FFB636" offset="0"/>
<stop stop-color="#F4B67C" offset=".63306"/>
<stop stop-color="#CBF6F7" offset="1"/>
</linearGradient>
<linearGradient id="ao" x1="340" x2="340" y1="141.09" y2="640.85" gradientUnits="userSpaceOnUse">
<stop stop-color="#FFB636" offset="0"/>
<stop stop-color="#F4B67C" offset=".63306"/>
<stop stop-color="#CBF6F7" offset="1"/>
</linearGradient>
<linearGradient id="an" x1="340" x2="340" y1="147.11" y2="634.38" gradientUnits="userSpaceOnUse">
<stop stop-color="#FFB636" offset="0"/>
<stop stop-color="#F4B67C" offset=".63306"/>
<stop stop-color="#CBF6F7" offset="1"/>
</linearGradient>
<linearGradient id="am" x1="340" x2="340" y1="153.13" y2="627.9" gradientUnits="userSpaceOnUse">
<stop stop-color="#FFB636" offset="0"/>
<stop stop-color="#F4B67C" offset=".63306"/>
<stop stop-color="#CBF6F7" offset="1"/>
</linearGradient>
<linearGradient id="al" x1="340" x2="340" y1="159.15" y2="621.43" gradientUnits="userSpaceOnUse">
<stop stop-color="#FFB636" offset="0"/>
<stop stop-color="#F4B67C" offset=".63306"/>
<stop stop-color="#CBF6F7" offset="1"/>
</linearGradient>
<linearGradient id="aj" x1="340" x2="340" y1="165.17" y2="614.96" gradientUnits="userSpaceOnUse">
<stop stop-color="#FFB636" offset="0"/>
<stop stop-color="#F4B67C" offset=".63306"/>
<stop stop-color="#CBF6F7" offset="1"/>
</linearGradient>
<linearGradient id="ai" x1="340" x2="340" y1="171.2" y2="608.48" gradientUnits="userSpaceOnUse">
<stop stop-color="#FFB636" offset="0"/>
<stop stop-color="#F4B67C" offset=".63306"/>
<stop stop-color="#CBF6F7" offset="1"/>
</linearGradient>
<linearGradient id="ah" x1="340" x2="340" y1="177.22" y2="602.01" gradientUnits="userSpaceOnUse">
<stop stop-color="#FFB636" offset="0"/>
<stop stop-color="#F4B67C" offset=".63306"/>
<stop stop-color="#CBF6F7" offset="1"/>
</linearGradient>
<linearGradient id="ag" x1="340" x2="340" y1="183.24" y2="595.54" gradientUnits="userSpaceOnUse">
<stop stop-color="#FFB636" offset="0"/>
<stop stop-color="#F4B67C" offset=".63306"/>
<stop stop-color="#CBF6F7" offset="1"/>
</linearGradient>
<linearGradient id="af" x1="340" x2="340" y1="189.26" y2="589.06" gradientUnits="userSpaceOnUse">
<stop stop-color="#FFB636" offset="0"/>
<stop stop-color="#F4B67C" offset=".63306"/>
<stop stop-color="#CBF6F7" offset="1"/>
</linearGradient>
<linearGradient id="ae" x1="340" x2="340" y1="195.28" y2="582.59" gradientUnits="userSpaceOnUse">
<stop stop-color="#FFB636" offset="0"/>
<stop stop-color="#F4B67C" offset=".63306"/>
<stop stop-color="#CBF6F7" offset="1"/>
</linearGradient>
<linearGradient id="ad" x1="340" x2="340" y1="201.3" y2="576.12" gradientUnits="userSpaceOnUse">
<stop stop-color="#FFB636" offset="0"/>
<stop stop-color="#F4B67C" offset=".63306"/>
<stop stop-color="#CBF6F7" offset="1"/>
</linearGradient>
<linearGradient id="ac" x1="340" x2="340" y1="207.32" y2="569.65" gradientUnits="userSpaceOnUse">
<stop stop-color="#FFB636" offset="0"/>
<stop stop-color="#F4B67C" offset=".63306"/>
<stop stop-color="#CBF6F7" offset="1"/>
</linearGradient>
<linearGradient id="ab" x1="340" x2="340" y1="213.34" y2="563.17" gradientUnits="userSpaceOnUse">
<stop stop-color="#FFB636" offset="0"/>
<stop stop-color="#F4B67C" offset=".63306"/>
<stop stop-color="#CBF6F7" offset="1"/>
</linearGradient>
<linearGradient id="aa" x1="340" x2="340" y1="219.36" y2="556.7" gradientUnits="userSpaceOnUse">
<stop stop-color="#FFB636" offset="0"/>
<stop stop-color="#F4B67C" offset=".63306"/>
<stop stop-color="#CBF6F7" offset="1"/>
</linearGradient>
<linearGradient id="y" x1="340" x2="340" y1="225.38" y2="550.23" gradientUnits="userSpaceOnUse">
<stop stop-color="#FFB636" offset="0"/>
<stop stop-color="#F4B67C" offset=".63306"/>
<stop stop-color="#CBF6F7" offset="1"/>
</linearGradient>
<linearGradient id="x" x1="340" x2="340" y1="231.41" y2="543.76" gradientUnits="userSpaceOnUse">
<stop stop-color="#FFB636" offset="0"/>
<stop stop-color="#F4B67C" offset=".63306"/>
<stop stop-color="#CBF6F7" offset="1"/>
</linearGradient>
<linearGradient id="w" x1="340" x2="340" y1="237.43" y2="537.28" gradientUnits="userSpaceOnUse">
<stop stop-color="#FFB636" offset="0"/>
<stop stop-color="#F4B67C" offset=".63306"/>
<stop stop-color="#CBF6F7" offset="1"/>
</linearGradient>
<linearGradient id="v" x1="340" x2="340" y1="243.45" y2="530.81" gradientUnits="userSpaceOnUse">
<stop stop-color="#FFB636" offset="0"/>
<stop stop-color="#F4B67C" offset=".63306"/>
<stop stop-color="#CBF6F7" offset="1"/>
</linearGradient>
<linearGradient id="u" x1="340" x2="340" y1="249.47" y2="524.34" gradientUnits="userSpaceOnUse">
<stop stop-color="#FFB636" offset="0"/>
<stop stop-color="#F4B67C" offset=".63306"/>
<stop stop-color="#CBF6F7" offset="1"/>
</linearGradient>
<linearGradient id="t" x1="340" x2="340" y1="255.49" y2="517.86" gradientUnits="userSpaceOnUse">
<stop stop-color="#FFB636" offset="0"/>
<stop stop-color="#F4B67C" offset=".63306"/>
<stop stop-color="#CBF6F7" offset="1"/>
</linearGradient>
<linearGradient id="s" x1="340" x2="340" y1="261.51" y2="511.39" gradientUnits="userSpaceOnUse">
<stop stop-color="#FFB636" offset="0"/>
<stop stop-color="#F4B67C" offset=".63306"/>
<stop stop-color="#CBF6F7" offset="1"/>
</linearGradient>
<linearGradient id="r" x1="340" x2="340" y1="267.53" y2="504.92" gradientUnits="userSpaceOnUse">
<stop stop-color="#FFB636" offset="0"/>
<stop stop-color="#F4B67C" offset=".63306"/>
<stop stop-color="#CBF6F7" offset="1"/>
</linearGradient>
<linearGradient id="q" x1="340" x2="340" y1="273.55" y2="498.45" gradientUnits="userSpaceOnUse">
<stop stop-color="#FFB636" offset="0"/>
<stop stop-color="#F4B67C" offset=".63306"/>
<stop stop-color="#CBF6F7" offset="1"/>
</linearGradient>
<linearGradient id="p" x1="340" x2="340" y1="279.58" y2="491.97" gradientUnits="userSpaceOnUse">
<stop stop-color="#FFB636" offset="0"/>
<stop stop-color="#F4B67C" offset=".63306"/>
<stop stop-color="#CBF6F7" offset="1"/>
</linearGradient>
<linearGradient id="n" x1="340" x2="340" y1="285.6" y2="485.5" gradientUnits="userSpaceOnUse">
<stop stop-color="#FFB636" offset="0"/>
<stop stop-color="#F4B67C" offset=".63306"/>
<stop stop-color="#CBF6F7" offset="1"/>
</linearGradient>
<linearGradient id="m" x1="340" x2="340" y1="291.62" y2="479.03" gradientUnits="userSpaceOnUse">
<stop stop-color="#FFB636" offset="0"/>
<stop stop-color="#F4B67C" offset=".63306"/>
<stop stop-color="#CBF6F7" offset="1"/>
</linearGradient>
<linearGradient id="l" x1="340" x2="340" y1="297.64" y2="472.55" gradientUnits="userSpaceOnUse">
<stop stop-color="#FFB636" offset="0"/>
<stop stop-color="#F4B67C" offset=".63306"/>
<stop stop-color="#CBF6F7" offset="1"/>
</linearGradient>
<linearGradient id="k" x1="340" x2="340" y1="303.66" y2="466.08" gradientUnits="userSpaceOnUse">
<stop stop-color="#FFB636" offset="0"/>
<stop stop-color="#F4B67C" offset=".63306"/>
<stop stop-color="#CBF6F7" offset="1"/>
</linearGradient>
<linearGradient id="j" x1="340" x2="340" y1="309.68" y2="459.61" gradientUnits="userSpaceOnUse">
<stop stop-color="#FFB636" offset="0"/>
<stop stop-color="#F4B67C" offset=".63306"/>
<stop stop-color="#CBF6F7" offset="1"/>
</linearGradient>
<linearGradient id="i" x1="340" x2="340" y1="315.7" y2="453.14" gradientUnits="userSpaceOnUse">
<stop stop-color="#FFB636" offset="0"/>
<stop stop-color="#F4B67C" offset=".63306"/>
<stop stop-color="#CBF6F7" offset="1"/>
</linearGradient>
<linearGradient id="h" x1="340" x2="340" y1="321.72" y2="446.66" gradientUnits="userSpaceOnUse">
<stop stop-color="#FFB636" offset="0"/>
<stop stop-color="#F4B67C" offset=".63306"/>
<stop stop-color="#CBF6F7" offset="1"/>
</linearGradient>
<linearGradient id="g" x1="340" x2="340" y1="327.74" y2="440.19" gradientUnits="userSpaceOnUse">
<stop stop-color="#FFB636" offset="0"/>
<stop stop-color="#F4B67C" offset=".63306"/>
<stop stop-color="#CBF6F7" offset="1"/>
</linearGradient>
<linearGradient id="f" x1="340" x2="340" y1="333.77" y2="433.72" gradientUnits="userSpaceOnUse">
<stop stop-color="#FFB636" offset="0"/>
<stop stop-color="#F4B67C" offset=".63306"/>
<stop stop-color="#CBF6F7" offset="1"/>
</linearGradient>
</defs>
</svg>
