<?xml version="1.0" encoding="UTF-8"?>
<svg fill="none" viewBox="0 0 704 218" xmlns="http://www.w3.org/2000/svg">
<g opacity=".3">
<g clip-path="url(#az)">
<g opacity=".6">
<ellipse transform="rotate(140 405 440.6)" cx="405" cy="440.6" rx="140.82" ry="1161.8" opacity=".016949" stroke="url(#ay)"/>
<ellipse transform="rotate(150 405 440.6)" cx="405" cy="440.6" rx="140.82" ry="1144.2" opacity=".033898" stroke="url(#an)"/>
<ellipse transform="rotate(160 405 440.6)" cx="405" cy="440.6" rx="140.82" ry="1126.6" opacity=".050848" stroke="url(#ac)"/>
<ellipse transform="rotate(170 405 440.6)" cx="405" cy="440.6" rx="140.82" ry="1109" opacity=".067797" stroke="url(#r)"/>
<ellipse transform="rotate(180 405 440.6)" cx="405" cy="440.6" rx="140.82" ry="1091.4" opacity=".084746" stroke="url(#g)"/>
<ellipse transform="rotate(190 405 440.6)" cx="405" cy="440.6" rx="140.82" ry="1073.8" opacity=".1017" stroke="url(#e)"/>
<ellipse transform="rotate(200 405 440.6)" cx="405" cy="440.6" rx="140.82" ry="1056.2" opacity=".11864" stroke="url(#d)"/>
<ellipse transform="rotate(210 405 440.6)" cx="405" cy="440.6" rx="140.82" ry="1038.6" opacity=".13559" stroke="url(#c)"/>
<ellipse transform="rotate(220 405 440.6)" cx="405" cy="440.6" rx="140.82" ry="1021" opacity=".15254" stroke="url(#b)"/>
<ellipse transform="rotate(230 405 440.6)" cx="405" cy="440.6" rx="140.82" ry="1003.4" opacity=".16949" stroke="url(#a)"/>
<ellipse transform="rotate(240 405 440.6)" cx="405" cy="440.6" rx="140.82" ry="985.77" opacity=".18644" stroke="url(#ax)"/>
<ellipse transform="rotate(250 405.01 440.6)" cx="405.01" cy="440.6" rx="140.82" ry="968.17" opacity=".20339" stroke="url(#aw)"/>
<ellipse transform="rotate(260 405 440.6)" cx="405" cy="440.6" rx="140.82" ry="950.57" opacity=".22034" stroke="url(#av)"/>
<ellipse transform="rotate(-80 405.01 440.6)" cx="405.01" cy="440.6" rx="140.82" ry="915.36" opacity=".25424" stroke="url(#au)"/>
<ellipse transform="rotate(-70 404.99 440.6)" cx="404.99" cy="440.6" rx="140.82" ry="897.76" opacity=".27119" stroke="url(#at)"/>
<ellipse transform="rotate(-60 405 440.6)" cx="405" cy="440.6" rx="140.82" ry="880.16" opacity=".28814" stroke="url(#as)"/>
<ellipse transform="rotate(-50 405 440.6)" cx="405" cy="440.6" rx="140.82" ry="862.55" opacity=".30508" stroke="url(#ar)"/>
<ellipse transform="rotate(-40 404.99 440.6)" cx="404.99" cy="440.6" rx="140.82" ry="844.95" opacity=".32203" stroke="url(#aq)"/>
<ellipse transform="rotate(-30 405 440.6)" cx="405" cy="440.6" rx="140.82" ry="827.35" opacity=".33898" stroke="url(#ap)"/>
<ellipse transform="rotate(-20 404.99 440.6)" cx="404.99" cy="440.6" rx="140.82" ry="809.74" opacity=".35593" stroke="url(#ao)"/>
<ellipse transform="rotate(-10 405 440.6)" cx="405" cy="440.6" rx="140.82" ry="792.14" opacity=".37288" stroke="url(#am)"/>
<ellipse cx="405" cy="440.6" rx="140.82" ry="774.54" opacity=".38983" stroke="url(#al)"/>
<ellipse transform="rotate(10 405 440.6)" cx="405" cy="440.6" rx="140.82" ry="756.93" opacity=".40678" stroke="url(#ak)"/>
<ellipse transform="rotate(20 405.01 440.6)" cx="405.01" cy="440.6" rx="140.82" ry="739.33" opacity=".42373" stroke="url(#aj)"/>
<ellipse transform="rotate(30 405 440.6)" cx="405" cy="440.6" rx="140.82" ry="721.73" opacity=".44068" stroke="url(#ai)"/>
<ellipse transform="rotate(40 405 440.6)" cx="405" cy="440.6" rx="140.82" ry="704.12" opacity=".45763" stroke="url(#ah)"/>
<ellipse transform="rotate(50 405 440.6)" cx="405" cy="440.6" rx="140.82" ry="686.52" opacity=".47458" stroke="url(#ag)"/>
<ellipse transform="rotate(60 405 440.6)" cx="405" cy="440.6" rx="140.82" ry="668.92" opacity=".49152" stroke="url(#af)"/>
<ellipse transform="rotate(70 405 440.6)" cx="405" cy="440.6" rx="140.82" ry="651.32" opacity=".50848" stroke="url(#ae)"/>
<ellipse transform="rotate(80 405 440.6)" cx="405" cy="440.6" rx="140.82" ry="633.71" opacity=".52542" stroke="url(#ad)"/>
<ellipse transform="rotate(100 405 440.6)" cx="405" cy="440.6" rx="140.82" ry="598.51" opacity=".55932" stroke="url(#ab)"/>
<ellipse transform="rotate(110 405 440.6)" cx="405" cy="440.6" rx="140.82" ry="580.9" opacity=".57627" stroke="url(#aa)"/>
<ellipse transform="rotate(120 405 440.6)" cx="405" cy="440.6" rx="140.82" ry="563.3" opacity=".59322" stroke="url(#z)"/>
<ellipse transform="rotate(130 405 440.6)" cx="405" cy="440.6" rx="140.82" ry="545.7" opacity=".61017" stroke="url(#y)"/>
<ellipse transform="rotate(140 405.01 440.6)" cx="405.01" cy="440.6" rx="140.82" ry="528.09" opacity=".62712" stroke="url(#x)"/>
<ellipse transform="rotate(150 405 440.6)" cx="405" cy="440.6" rx="140.82" ry="510.49" opacity=".64407" stroke="url(#w)"/>
<ellipse transform="rotate(160 405.01 440.6)" cx="405.01" cy="440.6" rx="140.82" ry="492.89" opacity=".66102" stroke="url(#v)"/>
<ellipse transform="rotate(170 405 440.6)" cx="405" cy="440.6" rx="140.82" ry="475.28" opacity=".67797" stroke="url(#u)"/>
<ellipse transform="rotate(180 404.99 440.6)" cx="404.99" cy="440.6" rx="140.82" ry="457.68" opacity=".69492" stroke="url(#t)"/>
<ellipse transform="rotate(190 405 440.6)" cx="405" cy="440.6" rx="140.82" ry="440.08" opacity=".71186" stroke="url(#s)"/>
<ellipse transform="rotate(200 405 440.6)" cx="405" cy="440.6" rx="140.82" ry="422.48" opacity=".72881" stroke="url(#q)"/>
<ellipse transform="rotate(210 405 440.6)" cx="405" cy="440.6" rx="140.82" ry="404.87" opacity=".74576" stroke="url(#p)"/>
<ellipse transform="rotate(220 405 440.6)" cx="405" cy="440.6" rx="140.82" ry="387.27" opacity=".76271" stroke="url(#o)"/>
<ellipse transform="rotate(230 405 440.6)" cx="405" cy="440.6" rx="140.82" ry="369.66" opacity=".77966" stroke="url(#n)"/>
<ellipse transform="rotate(240 405 440.6)" cx="405" cy="440.6" rx="140.82" ry="352.06" opacity=".79661" stroke="url(#m)"/>
<ellipse transform="rotate(250 405 440.6)" cx="405" cy="440.6" rx="140.82" ry="334.46" opacity=".81356" stroke="url(#l)"/>
<ellipse transform="rotate(-70 405 440.6)" cx="405" cy="440.6" rx="140.82" ry="264.05" opacity=".88136" stroke="url(#k)"/>
<ellipse transform="rotate(-60 404.99 440.6)" cx="404.99" cy="440.6" rx="140.82" ry="246.44" opacity=".8983" stroke="url(#j)"/>
<ellipse transform="rotate(-50 405 440.6)" cx="405" cy="440.6" rx="140.82" ry="228.84" opacity=".91525" stroke="url(#i)"/>
<ellipse transform="rotate(-40 405.01 440.6)" cx="405.01" cy="440.6" rx="140.82" ry="211.24" opacity=".9322" stroke="url(#h)"/>
<ellipse transform="rotate(-30 405.01 440.6)" cx="405.01" cy="440.6" rx="140.82" ry="193.63" opacity=".94915" stroke="url(#f)"/>
</g>
</g>
</g>
<defs>
<linearGradient id="ay" x1="405" x2="405" y1="-721.2" y2="1689.5" gradientUnits="userSpaceOnUse">
<stop stop-color="#FFB636" offset="0"/>
<stop stop-color="#F4B67C" offset=".63306"/>
<stop stop-color="#CBF6F7" offset="1"/>
</linearGradient>
<linearGradient id="an" x1="405" x2="405" y1="-703.6" y2="1670.6" gradientUnits="userSpaceOnUse">
<stop stop-color="#FFB636" offset="0"/>
<stop stop-color="#F4B67C" offset=".63306"/>
<stop stop-color="#CBF6F7" offset="1"/>
</linearGradient>
<linearGradient id="ac" x1="405" x2="405" y1="-686" y2="1651.7" gradientUnits="userSpaceOnUse">
<stop stop-color="#FFB636" offset="0"/>
<stop stop-color="#F4B67C" offset=".63306"/>
<stop stop-color="#CBF6F7" offset="1"/>
</linearGradient>
<linearGradient id="r" x1="405" x2="405" y1="-668.39" y2="1632.8" gradientUnits="userSpaceOnUse">
<stop stop-color="#FFB636" offset="0"/>
<stop stop-color="#F4B67C" offset=".63306"/>
<stop stop-color="#CBF6F7" offset="1"/>
</linearGradient>
<linearGradient id="g" x1="405" x2="405" y1="-650.79" y2="1613.8" gradientUnits="userSpaceOnUse">
<stop stop-color="#FFB636" offset="0"/>
<stop stop-color="#F4B67C" offset=".63306"/>
<stop stop-color="#CBF6F7" offset="1"/>
</linearGradient>
<linearGradient id="e" x1="405" x2="405" y1="-633.19" y2="1594.9" gradientUnits="userSpaceOnUse">
<stop stop-color="#FFB636" offset="0"/>
<stop stop-color="#F4B67C" offset=".63306"/>
<stop stop-color="#CBF6F7" offset="1"/>
</linearGradient>
<linearGradient id="d" x1="405" x2="405" y1="-615.59" y2="1576" gradientUnits="userSpaceOnUse">
<stop stop-color="#FFB636" offset="0"/>
<stop stop-color="#F4B67C" offset=".63306"/>
<stop stop-color="#CBF6F7" offset="1"/>
</linearGradient>
<linearGradient id="c" x1="405" x2="405" y1="-597.98" y2="1557.1" gradientUnits="userSpaceOnUse">
<stop stop-color="#FFB636" offset="0"/>
<stop stop-color="#F4B67C" offset=".63306"/>
<stop stop-color="#CBF6F7" offset="1"/>
</linearGradient>
<linearGradient id="b" x1="405" x2="405" y1="-580.38" y2="1538.2" gradientUnits="userSpaceOnUse">
<stop stop-color="#FFB636" offset="0"/>
<stop stop-color="#F4B67C" offset=".63306"/>
<stop stop-color="#CBF6F7" offset="1"/>
</linearGradient>
<linearGradient id="a" x1="405" x2="405" y1="-562.78" y2="1519.2" gradientUnits="userSpaceOnUse">
<stop stop-color="#FFB636" offset="0"/>
<stop stop-color="#F4B67C" offset=".63306"/>
<stop stop-color="#CBF6F7" offset="1"/>
</linearGradient>
<linearGradient id="ax" x1="405" x2="405" y1="-545.18" y2="1500.3" gradientUnits="userSpaceOnUse">
<stop stop-color="#FFB636" offset="0"/>
<stop stop-color="#F4B67C" offset=".63306"/>
<stop stop-color="#CBF6F7" offset="1"/>
</linearGradient>
<linearGradient id="aw" x1="405.01" x2="405.01" y1="-527.57" y2="1481.4" gradientUnits="userSpaceOnUse">
<stop stop-color="#FFB636" offset="0"/>
<stop stop-color="#F4B67C" offset=".63306"/>
<stop stop-color="#CBF6F7" offset="1"/>
</linearGradient>
<linearGradient id="av" x1="405" x2="405" y1="-509.97" y2="1462.5" gradientUnits="userSpaceOnUse">
<stop stop-color="#FFB636" offset="0"/>
<stop stop-color="#F4B67C" offset=".63306"/>
<stop stop-color="#CBF6F7" offset="1"/>
</linearGradient>
<linearGradient id="au" x1="405.01" x2="405.01" y1="-474.76" y2="1424.6" gradientUnits="userSpaceOnUse">
<stop stop-color="#FFB636" offset="0"/>
<stop stop-color="#F4B67C" offset=".63306"/>
<stop stop-color="#CBF6F7" offset="1"/>
</linearGradient>
<linearGradient id="at" x1="404.99" x2="404.99" y1="-457.16" y2="1405.7" gradientUnits="userSpaceOnUse">
<stop stop-color="#FFB636" offset="0"/>
<stop stop-color="#F4B67C" offset=".63306"/>
<stop stop-color="#CBF6F7" offset="1"/>
</linearGradient>
<linearGradient id="as" x1="405" x2="405" y1="-439.56" y2="1386.8" gradientUnits="userSpaceOnUse">
<stop stop-color="#FFB636" offset="0"/>
<stop stop-color="#F4B67C" offset=".63306"/>
<stop stop-color="#CBF6F7" offset="1"/>
</linearGradient>
<linearGradient id="ar" x1="405" x2="405" y1="-421.95" y2="1367.8" gradientUnits="userSpaceOnUse">
<stop stop-color="#FFB636" offset="0"/>
<stop stop-color="#F4B67C" offset=".63306"/>
<stop stop-color="#CBF6F7" offset="1"/>
</linearGradient>
<linearGradient id="aq" x1="404.99" x2="404.99" y1="-404.35" y2="1348.9" gradientUnits="userSpaceOnUse">
<stop stop-color="#FFB636" offset="0"/>
<stop stop-color="#F4B67C" offset=".63306"/>
<stop stop-color="#CBF6F7" offset="1"/>
</linearGradient>
<linearGradient id="ap" x1="405" x2="405" y1="-386.74" y2="1330" gradientUnits="userSpaceOnUse">
<stop stop-color="#FFB636" offset="0"/>
<stop stop-color="#F4B67C" offset=".63306"/>
<stop stop-color="#CBF6F7" offset="1"/>
</linearGradient>
<linearGradient id="ao" x1="404.99" x2="404.99" y1="-369.14" y2="1311.1" gradientUnits="userSpaceOnUse">
<stop stop-color="#FFB636" offset="0"/>
<stop stop-color="#F4B67C" offset=".63306"/>
<stop stop-color="#CBF6F7" offset="1"/>
</linearGradient>
<linearGradient id="am" x1="405" x2="405" y1="-351.54" y2="1292.2" gradientUnits="userSpaceOnUse">
<stop stop-color="#FFB636" offset="0"/>
<stop stop-color="#F4B67C" offset=".63306"/>
<stop stop-color="#CBF6F7" offset="1"/>
</linearGradient>
<linearGradient id="al" x1="405" x2="405" y1="-333.94" y2="1273.2" gradientUnits="userSpaceOnUse">
<stop stop-color="#FFB636" offset="0"/>
<stop stop-color="#F4B67C" offset=".63306"/>
<stop stop-color="#CBF6F7" offset="1"/>
</linearGradient>
<linearGradient id="ak" x1="405" x2="405" y1="-316.33" y2="1254.3" gradientUnits="userSpaceOnUse">
<stop stop-color="#FFB636" offset="0"/>
<stop stop-color="#F4B67C" offset=".63306"/>
<stop stop-color="#CBF6F7" offset="1"/>
</linearGradient>
<linearGradient id="aj" x1="405.01" x2="405.01" y1="-298.73" y2="1235.4" gradientUnits="userSpaceOnUse">
<stop stop-color="#FFB636" offset="0"/>
<stop stop-color="#F4B67C" offset=".63306"/>
<stop stop-color="#CBF6F7" offset="1"/>
</linearGradient>
<linearGradient id="ai" x1="405" x2="405" y1="-281.13" y2="1216.5" gradientUnits="userSpaceOnUse">
<stop stop-color="#FFB636" offset="0"/>
<stop stop-color="#F4B67C" offset=".63306"/>
<stop stop-color="#CBF6F7" offset="1"/>
</linearGradient>
<linearGradient id="ah" x1="405" x2="405" y1="-263.52" y2="1197.5" gradientUnits="userSpaceOnUse">
<stop stop-color="#FFB636" offset="0"/>
<stop stop-color="#F4B67C" offset=".63306"/>
<stop stop-color="#CBF6F7" offset="1"/>
</linearGradient>
<linearGradient id="ag" x1="405" x2="405" y1="-245.92" y2="1178.6" gradientUnits="userSpaceOnUse">
<stop stop-color="#FFB636" offset="0"/>
<stop stop-color="#F4B67C" offset=".63306"/>
<stop stop-color="#CBF6F7" offset="1"/>
</linearGradient>
<linearGradient id="af" x1="405" x2="405" y1="-228.32" y2="1159.7" gradientUnits="userSpaceOnUse">
<stop stop-color="#FFB636" offset="0"/>
<stop stop-color="#F4B67C" offset=".63306"/>
<stop stop-color="#CBF6F7" offset="1"/>
</linearGradient>
<linearGradient id="ae" x1="405" x2="405" y1="-210.71" y2="1140.8" gradientUnits="userSpaceOnUse">
<stop stop-color="#FFB636" offset="0"/>
<stop stop-color="#F4B67C" offset=".63306"/>
<stop stop-color="#CBF6F7" offset="1"/>
</linearGradient>
<linearGradient id="ad" x1="405" x2="405" y1="-193.11" y2="1121.8" gradientUnits="userSpaceOnUse">
<stop stop-color="#FFB636" offset="0"/>
<stop stop-color="#F4B67C" offset=".63306"/>
<stop stop-color="#CBF6F7" offset="1"/>
</linearGradient>
<linearGradient id="ab" x1="405" x2="405" y1="-157.9" y2="1084" gradientUnits="userSpaceOnUse">
<stop stop-color="#FFB636" offset="0"/>
<stop stop-color="#F4B67C" offset=".63306"/>
<stop stop-color="#CBF6F7" offset="1"/>
</linearGradient>
<linearGradient id="aa" x1="405" x2="405" y1="-140.3" y2="1065.1" gradientUnits="userSpaceOnUse">
<stop stop-color="#FFB636" offset="0"/>
<stop stop-color="#F4B67C" offset=".63306"/>
<stop stop-color="#CBF6F7" offset="1"/>
</linearGradient>
<linearGradient id="z" x1="405" x2="405" y1="-122.7" y2="1046.2" gradientUnits="userSpaceOnUse">
<stop stop-color="#FFB636" offset="0"/>
<stop stop-color="#F4B67C" offset=".63306"/>
<stop stop-color="#CBF6F7" offset="1"/>
</linearGradient>
<linearGradient id="y" x1="405" x2="405" y1="-105.09" y2="1027.2" gradientUnits="userSpaceOnUse">
<stop stop-color="#FFB636" offset="0"/>
<stop stop-color="#F4B67C" offset=".63306"/>
<stop stop-color="#CBF6F7" offset="1"/>
</linearGradient>
<linearGradient id="x" x1="405.01" x2="405.01" y1="-87.492" y2="1008.3" gradientUnits="userSpaceOnUse">
<stop stop-color="#FFB636" offset="0"/>
<stop stop-color="#F4B67C" offset=".63306"/>
<stop stop-color="#CBF6F7" offset="1"/>
</linearGradient>
<linearGradient id="w" x1="405" x2="405" y1="-69.889" y2="989.38" gradientUnits="userSpaceOnUse">
<stop stop-color="#FFB636" offset="0"/>
<stop stop-color="#F4B67C" offset=".63306"/>
<stop stop-color="#CBF6F7" offset="1"/>
</linearGradient>
<linearGradient id="v" x1="405.01" x2="405.01" y1="-52.286" y2="970.46" gradientUnits="userSpaceOnUse">
<stop stop-color="#FFB636" offset="0"/>
<stop stop-color="#F4B67C" offset=".63306"/>
<stop stop-color="#CBF6F7" offset="1"/>
</linearGradient>
<linearGradient id="u" x1="405" x2="405" y1="-34.682" y2="951.53" gradientUnits="userSpaceOnUse">
<stop stop-color="#FFB636" offset="0"/>
<stop stop-color="#F4B67C" offset=".63306"/>
<stop stop-color="#CBF6F7" offset="1"/>
</linearGradient>
<linearGradient id="t" x1="404.99" x2="404.99" y1="-17.08" y2="932.61" gradientUnits="userSpaceOnUse">
<stop stop-color="#FFB636" offset="0"/>
<stop stop-color="#F4B67C" offset=".63306"/>
<stop stop-color="#CBF6F7" offset="1"/>
</linearGradient>
<linearGradient id="s" x1="405" x2="405" y1=".52414" y2="913.69" gradientUnits="userSpaceOnUse">
<stop stop-color="#FFB636" offset="0"/>
<stop stop-color="#F4B67C" offset=".63306"/>
<stop stop-color="#CBF6F7" offset="1"/>
</linearGradient>
<linearGradient id="q" x1="405" x2="405" y1="18.126" y2="894.76" gradientUnits="userSpaceOnUse">
<stop stop-color="#FFB636" offset="0"/>
<stop stop-color="#F4B67C" offset=".63306"/>
<stop stop-color="#CBF6F7" offset="1"/>
</linearGradient>
<linearGradient id="p" x1="405" x2="405" y1="35.73" y2="875.84" gradientUnits="userSpaceOnUse">
<stop stop-color="#FFB636" offset="0"/>
<stop stop-color="#F4B67C" offset=".63306"/>
<stop stop-color="#CBF6F7" offset="1"/>
</linearGradient>
<linearGradient id="o" x1="405" x2="405" y1="53.332" y2="856.91" gradientUnits="userSpaceOnUse">
<stop stop-color="#FFB636" offset="0"/>
<stop stop-color="#F4B67C" offset=".63306"/>
<stop stop-color="#CBF6F7" offset="1"/>
</linearGradient>
<linearGradient id="n" x1="405" x2="405" y1="70.936" y2="837.99" gradientUnits="userSpaceOnUse">
<stop stop-color="#FFB636" offset="0"/>
<stop stop-color="#F4B67C" offset=".63306"/>
<stop stop-color="#CBF6F7" offset="1"/>
</linearGradient>
<linearGradient id="m" x1="405" x2="405" y1="88.538" y2="819.07" gradientUnits="userSpaceOnUse">
<stop stop-color="#FFB636" offset="0"/>
<stop stop-color="#F4B67C" offset=".63306"/>
<stop stop-color="#CBF6F7" offset="1"/>
</linearGradient>
<linearGradient id="l" x1="405" x2="405" y1="106.14" y2="800.14" gradientUnits="userSpaceOnUse">
<stop stop-color="#FFB636" offset="0"/>
<stop stop-color="#F4B67C" offset=".63306"/>
<stop stop-color="#CBF6F7" offset="1"/>
</linearGradient>
<linearGradient id="k" x1="405" x2="405" y1="176.55" y2="724.45" gradientUnits="userSpaceOnUse">
<stop stop-color="#FFB636" offset="0"/>
<stop stop-color="#F4B67C" offset=".63306"/>
<stop stop-color="#CBF6F7" offset="1"/>
</linearGradient>
<linearGradient id="j" x1="404.99" x2="404.99" y1="194.16" y2="705.53" gradientUnits="userSpaceOnUse">
<stop stop-color="#FFB636" offset="0"/>
<stop stop-color="#F4B67C" offset=".63306"/>
<stop stop-color="#CBF6F7" offset="1"/>
</linearGradient>
<linearGradient id="i" x1="405" x2="405" y1="211.76" y2="686.6" gradientUnits="userSpaceOnUse">
<stop stop-color="#FFB636" offset="0"/>
<stop stop-color="#F4B67C" offset=".63306"/>
<stop stop-color="#CBF6F7" offset="1"/>
</linearGradient>
<linearGradient id="h" x1="405.01" x2="405.01" y1="229.36" y2="667.68" gradientUnits="userSpaceOnUse">
<stop stop-color="#FFB636" offset="0"/>
<stop stop-color="#F4B67C" offset=".63306"/>
<stop stop-color="#CBF6F7" offset="1"/>
</linearGradient>
<linearGradient id="f" x1="405.01" x2="405.01" y1="246.97" y2="648.76" gradientUnits="userSpaceOnUse">
<stop stop-color="#FFB636" offset="0"/>
<stop stop-color="#F4B67C" offset=".63306"/>
<stop stop-color="#CBF6F7" offset="1"/>
</linearGradient>
<clipPath id="az">
<rect width="704" height="218" rx="16" fill="#fff"/>
</clipPath>
</defs>
</svg>
