<svg width="704" height="218" viewBox="0 0 704 218" fill="none" xmlns="http://www.w3.org/2000/svg">
<g opacity="0.3">
<g clip-path="url(#clip0_834_25639)">
<g opacity="0.6">
<ellipse opacity="0.0169492" cx="405.001" cy="440.602" rx="140.825" ry="1161.81" transform="rotate(140 405.001 440.602)" stroke="url(#paint0_linear_834_25639)"/>
<ellipse opacity="0.0338983" cx="404.996" cy="440.601" rx="140.825" ry="1144.2" transform="rotate(150 404.996 440.601)" stroke="url(#paint1_linear_834_25639)"/>
<ellipse opacity="0.0508475" cx="405.002" cy="440.601" rx="140.825" ry="1126.6" transform="rotate(160 405.002 440.601)" stroke="url(#paint2_linear_834_25639)"/>
<ellipse opacity="0.0677966" cx="405.005" cy="440.602" rx="140.825" ry="1109" transform="rotate(170 405.005 440.602)" stroke="url(#paint3_linear_834_25639)"/>
<ellipse opacity="0.0847458" cx="405.005" cy="440.6" rx="140.825" ry="1091.39" transform="rotate(-180 405.005 440.6)" stroke="url(#paint4_linear_834_25639)"/>
<ellipse opacity="0.101695" cx="405.004" cy="440.6" rx="140.825" ry="1073.79" transform="rotate(-170 405.004 440.6)" stroke="url(#paint5_linear_834_25639)"/>
<ellipse opacity="0.118644" cx="405.003" cy="440.601" rx="140.825" ry="1056.19" transform="rotate(-160 405.003 440.601)" stroke="url(#paint6_linear_834_25639)"/>
<ellipse opacity="0.135593" cx="404.996" cy="440.599" rx="140.825" ry="1038.58" transform="rotate(-150 404.996 440.599)" stroke="url(#paint7_linear_834_25639)"/>
<ellipse opacity="0.152542" cx="404.997" cy="440.601" rx="140.825" ry="1020.98" transform="rotate(-140 404.997 440.601)" stroke="url(#paint8_linear_834_25639)"/>
<ellipse opacity="0.169492" cx="405.004" cy="440.6" rx="140.825" ry="1003.38" transform="rotate(-130 405.004 440.6)" stroke="url(#paint9_linear_834_25639)"/>
<ellipse opacity="0.186441" cx="404.998" cy="440.6" rx="140.825" ry="985.774" transform="rotate(-120 404.998 440.6)" stroke="url(#paint10_linear_834_25639)"/>
<ellipse opacity="0.20339" cx="405.006" cy="440.601" rx="140.825" ry="968.171" transform="rotate(-110 405.006 440.601)" stroke="url(#paint11_linear_834_25639)"/>
<ellipse opacity="0.220339" cx="404.998" cy="440.602" rx="140.825" ry="950.568" transform="rotate(-100 404.998 440.602)" stroke="url(#paint12_linear_834_25639)"/>
<ellipse opacity="0.254237" cx="405.006" cy="440.6" rx="140.825" ry="915.362" transform="rotate(-80 405.006 440.6)" stroke="url(#paint13_linear_834_25639)"/>
<ellipse opacity="0.271186" cx="404.994" cy="440.6" rx="140.825" ry="897.759" transform="rotate(-70 404.994 440.6)" stroke="url(#paint14_linear_834_25639)"/>
<ellipse opacity="0.288136" cx="405.004" cy="440.601" rx="140.825" ry="880.156" transform="rotate(-60 405.004 440.601)" stroke="url(#paint15_linear_834_25639)"/>
<ellipse opacity="0.305085" cx="405" cy="440.599" rx="140.825" ry="862.553" transform="rotate(-50 405 440.599)" stroke="url(#paint16_linear_834_25639)"/>
<ellipse opacity="0.322034" cx="404.993" cy="440.6" rx="140.825" ry="844.95" transform="rotate(-40 404.993 440.6)" stroke="url(#paint17_linear_834_25639)"/>
<ellipse opacity="0.338983" cx="405.003" cy="440.601" rx="140.825" ry="827.346" transform="rotate(-30 405.003 440.601)" stroke="url(#paint18_linear_834_25639)"/>
<ellipse opacity="0.355932" cx="404.993" cy="440.601" rx="140.825" ry="809.743" transform="rotate(-20 404.993 440.601)" stroke="url(#paint19_linear_834_25639)"/>
<ellipse opacity="0.372881" cx="405.005" cy="440.602" rx="140.825" ry="792.14" transform="rotate(-10 405.005 440.602)" stroke="url(#paint20_linear_834_25639)"/>
<ellipse opacity="0.38983" cx="404.997" cy="440.602" rx="140.825" ry="774.537" stroke="url(#paint21_linear_834_25639)"/>
<ellipse opacity="0.40678" cx="405.002" cy="440.601" rx="140.825" ry="756.934" transform="rotate(10 405.002 440.601)" stroke="url(#paint22_linear_834_25639)"/>
<ellipse opacity="0.423729" cx="405.009" cy="440.601" rx="140.825" ry="739.331" transform="rotate(20 405.009 440.601)" stroke="url(#paint23_linear_834_25639)"/>
<ellipse opacity="0.440678" cx="404.996" cy="440.602" rx="140.825" ry="721.728" transform="rotate(30 404.996 440.602)" stroke="url(#paint24_linear_834_25639)"/>
<ellipse opacity="0.457627" cx="405.004" cy="440.601" rx="140.825" ry="704.125" transform="rotate(40 405.004 440.601)" stroke="url(#paint25_linear_834_25639)"/>
<ellipse opacity="0.474576" cx="405" cy="440.603" rx="140.825" ry="686.522" transform="rotate(50 405 440.603)" stroke="url(#paint26_linear_834_25639)"/>
<ellipse opacity="0.491525" cx="404.999" cy="440.6" rx="140.825" ry="668.918" transform="rotate(60 404.999 440.6)" stroke="url(#paint27_linear_834_25639)"/>
<ellipse opacity="0.508475" cx="405.001" cy="440.604" rx="140.825" ry="651.315" transform="rotate(70 405.001 440.604)" stroke="url(#paint28_linear_834_25639)"/>
<ellipse opacity="0.525424" cx="405" cy="440.601" rx="140.825" ry="633.712" transform="rotate(80 405 440.601)" stroke="url(#paint29_linear_834_25639)"/>
<ellipse opacity="0.559322" cx="405.005" cy="440.602" rx="140.825" ry="598.506" transform="rotate(100 405.005 440.602)" stroke="url(#paint30_linear_834_25639)"/>
<ellipse opacity="0.576271" cx="405.002" cy="440.602" rx="140.825" ry="580.903" transform="rotate(110 405.002 440.602)" stroke="url(#paint31_linear_834_25639)"/>
<ellipse opacity="0.59322" cx="405.004" cy="440.602" rx="140.825" ry="563.3" transform="rotate(120 405.004 440.602)" stroke="url(#paint32_linear_834_25639)"/>
<ellipse opacity="0.610169" cx="405.004" cy="440.603" rx="140.825" ry="545.697" transform="rotate(130 405.004 440.603)" stroke="url(#paint33_linear_834_25639)"/>
<ellipse opacity="0.627119" cx="405.006" cy="440.602" rx="140.825" ry="528.093" transform="rotate(140 405.006 440.602)" stroke="url(#paint34_linear_834_25639)"/>
<ellipse opacity="0.644068" cx="405" cy="440.602" rx="140.825" ry="510.49" transform="rotate(150 405 440.602)" stroke="url(#paint35_linear_834_25639)"/>
<ellipse opacity="0.661017" cx="405.006" cy="440.601" rx="140.825" ry="492.887" transform="rotate(160 405.006 440.601)" stroke="url(#paint36_linear_834_25639)"/>
<ellipse opacity="0.677966" cx="405.001" cy="440.602" rx="140.825" ry="475.284" transform="rotate(170 405.001 440.602)" stroke="url(#paint37_linear_834_25639)"/>
<ellipse opacity="0.694915" cx="404.992" cy="440.601" rx="140.825" ry="457.681" transform="rotate(-180 404.992 440.601)" stroke="url(#paint38_linear_834_25639)"/>
<ellipse opacity="0.711864" cx="404.997" cy="440.602" rx="140.825" ry="440.078" transform="rotate(-170 404.997 440.602)" stroke="url(#paint39_linear_834_25639)"/>
<ellipse opacity="0.728814" cx="404.996" cy="440.601" rx="140.825" ry="422.475" transform="rotate(-160 404.996 440.601)" stroke="url(#paint40_linear_834_25639)"/>
<ellipse opacity="0.745763" cx="405.001" cy="440.602" rx="140.825" ry="404.872" transform="rotate(-150 405.001 440.602)" stroke="url(#paint41_linear_834_25639)"/>
<ellipse opacity="0.762712" cx="404.999" cy="440.601" rx="140.825" ry="387.269" transform="rotate(-140 404.999 440.601)" stroke="url(#paint42_linear_834_25639)"/>
<ellipse opacity="0.779661" cx="405" cy="440.602" rx="140.825" ry="369.665" transform="rotate(-130 405 440.602)" stroke="url(#paint43_linear_834_25639)"/>
<ellipse opacity="0.79661" cx="404.999" cy="440.6" rx="140.825" ry="352.062" transform="rotate(-120 404.999 440.6)" stroke="url(#paint44_linear_834_25639)"/>
<ellipse opacity="0.813559" cx="405.004" cy="440.599" rx="140.825" ry="334.459" transform="rotate(-110 405.004 440.599)" stroke="url(#paint45_linear_834_25639)"/>
<ellipse opacity="0.881356" cx="405.003" cy="440.601" rx="140.825" ry="264.047" transform="rotate(-70 405.003 440.601)" stroke="url(#paint46_linear_834_25639)"/>
<ellipse opacity="0.898305" cx="404.993" cy="440.6" rx="140.825" ry="246.444" transform="rotate(-60 404.993 440.6)" stroke="url(#paint47_linear_834_25639)"/>
<ellipse opacity="0.915254" cx="404.997" cy="440.602" rx="140.825" ry="228.84" transform="rotate(-50 404.997 440.602)" stroke="url(#paint48_linear_834_25639)"/>
<ellipse opacity="0.932203" cx="405.009" cy="440.601" rx="140.825" ry="211.237" transform="rotate(-40 405.009 440.601)" stroke="url(#paint49_linear_834_25639)"/>
<ellipse opacity="0.949153" cx="405.008" cy="440.6" rx="140.825" ry="193.634" transform="rotate(-30 405.008 440.6)" stroke="url(#paint50_linear_834_25639)"/>
</g>
</g>
</g>
<defs>
<linearGradient id="paint0_linear_834_25639" x1="405.001" y1="-721.204" x2="405.002" y2="1689.54" gradientUnits="userSpaceOnUse">
<stop stop-color="#FFB636"/>
<stop offset="0.633057" stop-color="#F4B67C"/>
<stop offset="1" stop-color="#CBF6F7"/>
</linearGradient>
<linearGradient id="paint1_linear_834_25639" x1="404.996" y1="-703.601" x2="404.996" y2="1670.62" gradientUnits="userSpaceOnUse">
<stop stop-color="#FFB636"/>
<stop offset="0.633057" stop-color="#F4B67C"/>
<stop offset="1" stop-color="#CBF6F7"/>
</linearGradient>
<linearGradient id="paint2_linear_834_25639" x1="405.002" y1="-685.998" x2="405.003" y2="1651.7" gradientUnits="userSpaceOnUse">
<stop stop-color="#FFB636"/>
<stop offset="0.633057" stop-color="#F4B67C"/>
<stop offset="1" stop-color="#CBF6F7"/>
</linearGradient>
<linearGradient id="paint3_linear_834_25639" x1="405.005" y1="-668.394" x2="405.005" y2="1632.77" gradientUnits="userSpaceOnUse">
<stop stop-color="#FFB636"/>
<stop offset="0.633057" stop-color="#F4B67C"/>
<stop offset="1" stop-color="#CBF6F7"/>
</linearGradient>
<linearGradient id="paint4_linear_834_25639" x1="405.005" y1="-650.793" x2="405.005" y2="1613.85" gradientUnits="userSpaceOnUse">
<stop stop-color="#FFB636"/>
<stop offset="0.633057" stop-color="#F4B67C"/>
<stop offset="1" stop-color="#CBF6F7"/>
</linearGradient>
<linearGradient id="paint5_linear_834_25639" x1="405.004" y1="-633.19" x2="405.005" y2="1594.92" gradientUnits="userSpaceOnUse">
<stop stop-color="#FFB636"/>
<stop offset="0.633057" stop-color="#F4B67C"/>
<stop offset="1" stop-color="#CBF6F7"/>
</linearGradient>
<linearGradient id="paint6_linear_834_25639" x1="405.003" y1="-615.586" x2="405.003" y2="1576" gradientUnits="userSpaceOnUse">
<stop stop-color="#FFB636"/>
<stop offset="0.633057" stop-color="#F4B67C"/>
<stop offset="1" stop-color="#CBF6F7"/>
</linearGradient>
<linearGradient id="paint7_linear_834_25639" x1="404.996" y1="-597.984" x2="404.997" y2="1557.08" gradientUnits="userSpaceOnUse">
<stop stop-color="#FFB636"/>
<stop offset="0.633057" stop-color="#F4B67C"/>
<stop offset="1" stop-color="#CBF6F7"/>
</linearGradient>
<linearGradient id="paint8_linear_834_25639" x1="404.997" y1="-580.379" x2="404.997" y2="1538.16" gradientUnits="userSpaceOnUse">
<stop stop-color="#FFB636"/>
<stop offset="0.633057" stop-color="#F4B67C"/>
<stop offset="1" stop-color="#CBF6F7"/>
</linearGradient>
<linearGradient id="paint9_linear_834_25639" x1="405.004" y1="-562.777" x2="405.004" y2="1519.23" gradientUnits="userSpaceOnUse">
<stop stop-color="#FFB636"/>
<stop offset="0.633057" stop-color="#F4B67C"/>
<stop offset="1" stop-color="#CBF6F7"/>
</linearGradient>
<linearGradient id="paint10_linear_834_25639" x1="404.998" y1="-545.175" x2="404.998" y2="1500.31" gradientUnits="userSpaceOnUse">
<stop stop-color="#FFB636"/>
<stop offset="0.633057" stop-color="#F4B67C"/>
<stop offset="1" stop-color="#CBF6F7"/>
</linearGradient>
<linearGradient id="paint11_linear_834_25639" x1="405.006" y1="-527.57" x2="405.007" y2="1481.39" gradientUnits="userSpaceOnUse">
<stop stop-color="#FFB636"/>
<stop offset="0.633057" stop-color="#F4B67C"/>
<stop offset="1" stop-color="#CBF6F7"/>
</linearGradient>
<linearGradient id="paint12_linear_834_25639" x1="404.998" y1="-509.966" x2="404.999" y2="1462.46" gradientUnits="userSpaceOnUse">
<stop stop-color="#FFB636"/>
<stop offset="0.633057" stop-color="#F4B67C"/>
<stop offset="1" stop-color="#CBF6F7"/>
</linearGradient>
<linearGradient id="paint13_linear_834_25639" x1="405.006" y1="-474.762" x2="405.006" y2="1424.61" gradientUnits="userSpaceOnUse">
<stop stop-color="#FFB636"/>
<stop offset="0.633057" stop-color="#F4B67C"/>
<stop offset="1" stop-color="#CBF6F7"/>
</linearGradient>
<linearGradient id="paint14_linear_834_25639" x1="404.994" y1="-457.159" x2="404.994" y2="1405.69" gradientUnits="userSpaceOnUse">
<stop stop-color="#FFB636"/>
<stop offset="0.633057" stop-color="#F4B67C"/>
<stop offset="1" stop-color="#CBF6F7"/>
</linearGradient>
<linearGradient id="paint15_linear_834_25639" x1="405.004" y1="-439.555" x2="405.004" y2="1386.77" gradientUnits="userSpaceOnUse">
<stop stop-color="#FFB636"/>
<stop offset="0.633057" stop-color="#F4B67C"/>
<stop offset="1" stop-color="#CBF6F7"/>
</linearGradient>
<linearGradient id="paint16_linear_834_25639" x1="405" y1="-421.953" x2="405" y2="1367.84" gradientUnits="userSpaceOnUse">
<stop stop-color="#FFB636"/>
<stop offset="0.633057" stop-color="#F4B67C"/>
<stop offset="1" stop-color="#CBF6F7"/>
</linearGradient>
<linearGradient id="paint17_linear_834_25639" x1="404.993" y1="-404.35" x2="404.993" y2="1348.92" gradientUnits="userSpaceOnUse">
<stop stop-color="#FFB636"/>
<stop offset="0.633057" stop-color="#F4B67C"/>
<stop offset="1" stop-color="#CBF6F7"/>
</linearGradient>
<linearGradient id="paint18_linear_834_25639" x1="405.003" y1="-386.745" x2="405.003" y2="1330" gradientUnits="userSpaceOnUse">
<stop stop-color="#FFB636"/>
<stop offset="0.633057" stop-color="#F4B67C"/>
<stop offset="1" stop-color="#CBF6F7"/>
</linearGradient>
<linearGradient id="paint19_linear_834_25639" x1="404.993" y1="-369.142" x2="404.993" y2="1311.08" gradientUnits="userSpaceOnUse">
<stop stop-color="#FFB636"/>
<stop offset="0.633057" stop-color="#F4B67C"/>
<stop offset="1" stop-color="#CBF6F7"/>
</linearGradient>
<linearGradient id="paint20_linear_834_25639" x1="405.005" y1="-351.538" x2="405.005" y2="1292.15" gradientUnits="userSpaceOnUse">
<stop stop-color="#FFB636"/>
<stop offset="0.633057" stop-color="#F4B67C"/>
<stop offset="1" stop-color="#CBF6F7"/>
</linearGradient>
<linearGradient id="paint21_linear_834_25639" x1="404.998" y1="-333.935" x2="404.998" y2="1273.23" gradientUnits="userSpaceOnUse">
<stop stop-color="#FFB636"/>
<stop offset="0.633057" stop-color="#F4B67C"/>
<stop offset="1" stop-color="#CBF6F7"/>
</linearGradient>
<linearGradient id="paint22_linear_834_25639" x1="405.002" y1="-316.333" x2="405.002" y2="1254.31" gradientUnits="userSpaceOnUse">
<stop stop-color="#FFB636"/>
<stop offset="0.633057" stop-color="#F4B67C"/>
<stop offset="1" stop-color="#CBF6F7"/>
</linearGradient>
<linearGradient id="paint23_linear_834_25639" x1="405.009" y1="-298.73" x2="405.009" y2="1235.38" gradientUnits="userSpaceOnUse">
<stop stop-color="#FFB636"/>
<stop offset="0.633057" stop-color="#F4B67C"/>
<stop offset="1" stop-color="#CBF6F7"/>
</linearGradient>
<linearGradient id="paint24_linear_834_25639" x1="404.996" y1="-281.126" x2="404.996" y2="1216.46" gradientUnits="userSpaceOnUse">
<stop stop-color="#FFB636"/>
<stop offset="0.633057" stop-color="#F4B67C"/>
<stop offset="1" stop-color="#CBF6F7"/>
</linearGradient>
<linearGradient id="paint25_linear_834_25639" x1="405.004" y1="-263.524" x2="405.004" y2="1197.53" gradientUnits="userSpaceOnUse">
<stop stop-color="#FFB636"/>
<stop offset="0.633057" stop-color="#F4B67C"/>
<stop offset="1" stop-color="#CBF6F7"/>
</linearGradient>
<linearGradient id="paint26_linear_834_25639" x1="405" y1="-245.919" x2="405" y2="1178.61" gradientUnits="userSpaceOnUse">
<stop stop-color="#FFB636"/>
<stop offset="0.633057" stop-color="#F4B67C"/>
<stop offset="1" stop-color="#CBF6F7"/>
</linearGradient>
<linearGradient id="paint27_linear_834_25639" x1="404.999" y1="-228.319" x2="404.999" y2="1159.69" gradientUnits="userSpaceOnUse">
<stop stop-color="#FFB636"/>
<stop offset="0.633057" stop-color="#F4B67C"/>
<stop offset="1" stop-color="#CBF6F7"/>
</linearGradient>
<linearGradient id="paint28_linear_834_25639" x1="405.001" y1="-210.712" x2="405.002" y2="1140.77" gradientUnits="userSpaceOnUse">
<stop stop-color="#FFB636"/>
<stop offset="0.633057" stop-color="#F4B67C"/>
<stop offset="1" stop-color="#CBF6F7"/>
</linearGradient>
<linearGradient id="paint29_linear_834_25639" x1="405" y1="-193.111" x2="405" y2="1121.84" gradientUnits="userSpaceOnUse">
<stop stop-color="#FFB636"/>
<stop offset="0.633057" stop-color="#F4B67C"/>
<stop offset="1" stop-color="#CBF6F7"/>
</linearGradient>
<linearGradient id="paint30_linear_834_25639" x1="405.005" y1="-157.903" x2="405.005" y2="1084" gradientUnits="userSpaceOnUse">
<stop stop-color="#FFB636"/>
<stop offset="0.633057" stop-color="#F4B67C"/>
<stop offset="1" stop-color="#CBF6F7"/>
</linearGradient>
<linearGradient id="paint31_linear_834_25639" x1="405.002" y1="-140.3" x2="405.003" y2="1065.07" gradientUnits="userSpaceOnUse">
<stop stop-color="#FFB636"/>
<stop offset="0.633057" stop-color="#F4B67C"/>
<stop offset="1" stop-color="#CBF6F7"/>
</linearGradient>
<linearGradient id="paint32_linear_834_25639" x1="405.004" y1="-122.698" x2="405.004" y2="1046.15" gradientUnits="userSpaceOnUse">
<stop stop-color="#FFB636"/>
<stop offset="0.633057" stop-color="#F4B67C"/>
<stop offset="1" stop-color="#CBF6F7"/>
</linearGradient>
<linearGradient id="paint33_linear_834_25639" x1="405.004" y1="-105.094" x2="405.004" y2="1027.23" gradientUnits="userSpaceOnUse">
<stop stop-color="#FFB636"/>
<stop offset="0.633057" stop-color="#F4B67C"/>
<stop offset="1" stop-color="#CBF6F7"/>
</linearGradient>
<linearGradient id="paint34_linear_834_25639" x1="405.006" y1="-87.4915" x2="405.006" y2="1008.3" gradientUnits="userSpaceOnUse">
<stop stop-color="#FFB636"/>
<stop offset="0.633057" stop-color="#F4B67C"/>
<stop offset="1" stop-color="#CBF6F7"/>
</linearGradient>
<linearGradient id="paint35_linear_834_25639" x1="405" y1="-69.8888" x2="405" y2="989.379" gradientUnits="userSpaceOnUse">
<stop stop-color="#FFB636"/>
<stop offset="0.633057" stop-color="#F4B67C"/>
<stop offset="1" stop-color="#CBF6F7"/>
</linearGradient>
<linearGradient id="paint36_linear_834_25639" x1="405.006" y1="-52.286" x2="405.006" y2="970.455" gradientUnits="userSpaceOnUse">
<stop stop-color="#FFB636"/>
<stop offset="0.633057" stop-color="#F4B67C"/>
<stop offset="1" stop-color="#CBF6F7"/>
</linearGradient>
<linearGradient id="paint37_linear_834_25639" x1="405.001" y1="-34.6822" x2="405.001" y2="951.532" gradientUnits="userSpaceOnUse">
<stop stop-color="#FFB636"/>
<stop offset="0.633057" stop-color="#F4B67C"/>
<stop offset="1" stop-color="#CBF6F7"/>
</linearGradient>
<linearGradient id="paint38_linear_834_25639" x1="404.992" y1="-17.0796" x2="404.992" y2="932.608" gradientUnits="userSpaceOnUse">
<stop stop-color="#FFB636"/>
<stop offset="0.633057" stop-color="#F4B67C"/>
<stop offset="1" stop-color="#CBF6F7"/>
</linearGradient>
<linearGradient id="paint39_linear_834_25639" x1="404.997" y1="0.524139" x2="404.997" y2="913.686" gradientUnits="userSpaceOnUse">
<stop stop-color="#FFB636"/>
<stop offset="0.633057" stop-color="#F4B67C"/>
<stop offset="1" stop-color="#CBF6F7"/>
</linearGradient>
<linearGradient id="paint40_linear_834_25639" x1="404.996" y1="18.1263" x2="404.997" y2="894.761" gradientUnits="userSpaceOnUse">
<stop stop-color="#FFB636"/>
<stop offset="0.633057" stop-color="#F4B67C"/>
<stop offset="1" stop-color="#CBF6F7"/>
</linearGradient>
<linearGradient id="paint41_linear_834_25639" x1="405.001" y1="35.73" x2="405.001" y2="875.839" gradientUnits="userSpaceOnUse">
<stop stop-color="#FFB636"/>
<stop offset="0.633057" stop-color="#F4B67C"/>
<stop offset="1" stop-color="#CBF6F7"/>
</linearGradient>
<linearGradient id="paint42_linear_834_25639" x1="404.999" y1="53.3322" x2="404.999" y2="856.914" gradientUnits="userSpaceOnUse">
<stop stop-color="#FFB636"/>
<stop offset="0.633057" stop-color="#F4B67C"/>
<stop offset="1" stop-color="#CBF6F7"/>
</linearGradient>
<linearGradient id="paint43_linear_834_25639" x1="405" y1="70.9362" x2="405" y2="837.992" gradientUnits="userSpaceOnUse">
<stop stop-color="#FFB636"/>
<stop offset="0.633057" stop-color="#F4B67C"/>
<stop offset="1" stop-color="#CBF6F7"/>
</linearGradient>
<linearGradient id="paint44_linear_834_25639" x1="404.999" y1="88.5377" x2="404.999" y2="819.067" gradientUnits="userSpaceOnUse">
<stop stop-color="#FFB636"/>
<stop offset="0.633057" stop-color="#F4B67C"/>
<stop offset="1" stop-color="#CBF6F7"/>
</linearGradient>
<linearGradient id="paint45_linear_834_25639" x1="405.004" y1="106.14" x2="405.004" y2="800.142" gradientUnits="userSpaceOnUse">
<stop stop-color="#FFB636"/>
<stop offset="0.633057" stop-color="#F4B67C"/>
<stop offset="1" stop-color="#CBF6F7"/>
</linearGradient>
<linearGradient id="paint46_linear_834_25639" x1="405.003" y1="176.554" x2="405.003" y2="724.451" gradientUnits="userSpaceOnUse">
<stop stop-color="#FFB636"/>
<stop offset="0.633057" stop-color="#F4B67C"/>
<stop offset="1" stop-color="#CBF6F7"/>
</linearGradient>
<linearGradient id="paint47_linear_834_25639" x1="404.993" y1="194.156" x2="404.993" y2="705.526" gradientUnits="userSpaceOnUse">
<stop stop-color="#FFB636"/>
<stop offset="0.633057" stop-color="#F4B67C"/>
<stop offset="1" stop-color="#CBF6F7"/>
</linearGradient>
<linearGradient id="paint48_linear_834_25639" x1="404.997" y1="211.761" x2="404.997" y2="686.605" gradientUnits="userSpaceOnUse">
<stop stop-color="#FFB636"/>
<stop offset="0.633057" stop-color="#F4B67C"/>
<stop offset="1" stop-color="#CBF6F7"/>
</linearGradient>
<linearGradient id="paint49_linear_834_25639" x1="405.009" y1="229.364" x2="405.009" y2="667.681" gradientUnits="userSpaceOnUse">
<stop stop-color="#FFB636"/>
<stop offset="0.633057" stop-color="#F4B67C"/>
<stop offset="1" stop-color="#CBF6F7"/>
</linearGradient>
<linearGradient id="paint50_linear_834_25639" x1="405.008" y1="246.966" x2="405.008" y2="648.757" gradientUnits="userSpaceOnUse">
<stop stop-color="#FFB636"/>
<stop offset="0.633057" stop-color="#F4B67C"/>
<stop offset="1" stop-color="#CBF6F7"/>
</linearGradient>
<clipPath id="clip0_834_25639">
<rect width="704" height="218" rx="16" fill="white"/>
</clipPath>
</defs>
</svg>
