<?xml version="1.0" encoding="UTF-8"?>
<svg fill="none" viewBox="0 0 705 220" xmlns="http://www.w3.org/2000/svg">
<g opacity=".5">
<g clip-path="url(#as)">
<path d="m307.92-62.907c-27.303 13.192-86.845 56.211-106.59 122.75l-72.097 285.69" stroke="#fff" stroke-linecap="round"/>
<path d="m307.92-62.907c-27.303 13.192-86.845 56.211-106.59 122.75l-72.097 285.69" stroke="url(#ar)" stroke-linecap="round"/>
<path d="m318.76-65.608c-27.275 11.415-87.548 50.326-110.44 114.65l-85.97 276.9" stroke="#fff" stroke-linecap="round"/>
<path d="m318.76-65.608c-27.275 11.415-87.548 50.326-110.44 114.65l-85.97 276.9" stroke="url(#ag)" stroke-linecap="round"/>
<path d="m328.92-67.977c-27.136 9.686-87.871 44.55-113.72 106.52l-99.079 267.46" stroke="#fff" stroke-linecap="round"/>
<path d="m328.92-67.977c-27.136 9.686-87.871 44.55-113.72 106.52l-99.079 267.46" stroke="url(#v)" stroke-linecap="round"/>
<path d="m338.41-70.06c-26.89 8.0112-87.825 38.905-116.45 98.392l-111.4 257.46" stroke="#fff" stroke-linecap="round"/>
<path d="m338.41-70.06c-26.89 8.0112-87.825 38.905-116.45 98.392l-111.4 257.46" stroke="url(#k)" stroke-linecap="round"/>
<path d="m461.72-88.025c-37.121-1.6666-201.32 23.008-233.12 106.43l-122.9 246.93" stroke="#fff" stroke-linecap="round"/>
<path d="m461.72-88.025c-37.121-1.6666-201.32 23.008-233.12 106.43l-122.9 246.93" stroke="url(#f)" stroke-linecap="round"/>
<path d="m464.63-89.039c-28.812 4.429-198.54 24.849-229.55 97.785l-133.57 235.94" stroke="#fff" stroke-linecap="round"/>
<path d="m464.63-89.039c-28.812 4.429-198.54 24.849-229.55 97.785l-133.57 235.94" stroke="url(#e)" stroke-linecap="round"/>
<path d="m461.65-86.312c-26.842-1.2051-186.47 23.674-220.24 85.655l-143.39 224.56" stroke="#fff" stroke-linecap="round"/>
<path d="m461.65-86.312c-26.842-1.2051-186.47 23.674-220.24 85.655l-143.39 224.56" stroke="url(#d)" stroke-linecap="round"/>
<path d="m462.92-89.116c-24.968 1.9752-177.68 30.694-215.37 79.299l-152.36 212.84" stroke="#fff" stroke-linecap="round"/>
<path d="m462.92-89.116c-24.968 1.9752-177.68 30.694-215.37 79.299l-152.36 212.84" stroke="url(#c)" stroke-linecap="round"/>
<path d="m465.67-86.703c-24.286 0.6572-172.73 22.236-212.18 67.953l-160.46 200.84" stroke="#fff" stroke-linecap="round"/>
<path d="m465.67-86.703c-24.286 0.6572-172.73 22.236-212.18 67.953l-160.46 200.84" stroke="url(#b)" stroke-linecap="round"/>
<path d="m465.88-91.272c-23.537-0.576-165.63 21.011-206.64 63.8l-167.71 188.62" stroke="#fff" stroke-linecap="round"/>
<path d="m465.88-91.272c-23.537-0.576-165.63 21.011-206.64 63.8l-167.71 188.62" stroke="url(#a)" stroke-linecap="round"/>
<path d="m464.66-89.61c-22.73-1.7214-157.53 13.775-199.89 53.611l-174.09 176.25" stroke="#fff" stroke-linecap="round"/>
<path d="m464.66-89.61c-22.73-1.7214-157.53 13.775-199.89 53.611l-174.09 176.25" stroke="url(#aq)" stroke-linecap="round"/>
<path d="m85.34 216.13c2.9719 30.177 22.83 100.9 78.487 142.37l243.33 166.16" stroke="#fff" stroke-linecap="round"/>
<path d="m85.34 216.13c2.9719 30.177 22.83 100.9 78.487 142.37l243.33 166.16" stroke="url(#ap)" stroke-linecap="round"/>
<path d="m86.54 205.02c1.3136 29.538 17.064 99.53 69.552 143.19l230.29 176.15" stroke="#fff" stroke-linecap="round"/>
<path d="m86.54 205.02c1.3136 29.538 17.064 99.53 69.552 143.19l230.29 176.15" stroke="url(#ao)" stroke-linecap="round"/>
<path d="m87.82 194.66c-0.2615 28.811 11.53 97.841 60.787 143.47l216.92 185.2" stroke="#fff" stroke-linecap="round"/>
<path d="m87.82 194.66c-0.2615 28.811 11.53 97.841 60.787 143.47l216.92 185.2" stroke="url(#an)" stroke-linecap="round"/>
<path d="m89.137 185.04c-1.749 28.004 6.2466 95.854 52.22 143.23l203.28 193.32" stroke="#fff" stroke-linecap="round"/>
<path d="m89.137 185.04c-1.749 28.004 6.2466 95.854 52.22 143.23l203.28 193.32" stroke="url(#am)" stroke-linecap="round"/>
<path d="m90.44 176.13c-3.1449 27.122 1.2293 93.591 43.885 142.48l189.43 200.48" stroke="#fff" stroke-linecap="round"/>
<path d="m90.44 176.13c-3.1449 27.122 1.2293 93.591 43.885 142.48l189.43 200.48" stroke="url(#al)" stroke-linecap="round"/>
<path d="m91.686 167.93c-4.4458 26.175-3.5084 91.075 35.808 141.27l175.44 206.71" stroke="#fff" stroke-linecap="round"/>
<path d="m91.686 167.93c-4.4458 26.175-3.5084 91.075 35.808 141.27l175.44 206.71" stroke="url(#ak)" stroke-linecap="round"/>
<path d="m92.83 160.42c-5.6491 25.172-7.9547 88.334 28.017 139.61l161.37 212.01" stroke="#fff" stroke-linecap="round"/>
<path d="m92.83 160.42c-5.6491 25.172-7.9547 88.334 28.017 139.61l161.37 212.01" stroke="url(#aj)" stroke-linecap="round"/>
<path d="m93.831 153.58c-6.7526 24.119-12.1 85.39 20.533 137.53l147.27 216.39" stroke="#fff" stroke-linecap="round"/>
<path d="m93.831 153.58c-6.7526 24.119-12.1 85.39 20.533 137.53l147.27 216.39" stroke="url(#ai)" stroke-linecap="round"/>
<path d="m94.649 147.38c-7.7546 23.024-15.935 82.269 13.379 135.06l133.22 219.86" stroke="#fff" stroke-linecap="round"/>
<path d="m94.649 147.38c-7.7546 23.024-15.935 82.269 13.379 135.06l133.22 219.86" stroke="url(#ah)" stroke-linecap="round"/>
<path d="m95.245 141.8c-8.6541 21.896-19.455 78.998 6.5759 132.24l119.25 222.45" stroke="#fff" stroke-linecap="round"/>
<path d="m95.245 141.8c-8.6541 21.896-19.455 78.998 6.5759 132.24l119.25 222.45" stroke="url(#af)" stroke-linecap="round"/>
<path d="m95.585 136.82c-9.451 20.744-22.655 75.603 0.1385 129.1l105.43 224.17" stroke="#fff" stroke-linecap="round"/>
<path d="m95.585 136.82c-9.451 20.744-22.655 75.603 0.1385 129.1l105.43 224.17" stroke="url(#ae)" stroke-linecap="round"/>
<path d="m605.72 464.45c18.608-23.943 52.86-88.925 41.009-157.31l-62.24-288" stroke="#fff" stroke-linecap="round"/>
<path d="m605.72 464.45c18.608-23.943 52.86-88.925 41.009-157.31l-62.24-288" stroke="url(#ad)" stroke-linecap="round"/>
<path d="m597.21 471.68c19.371-22.338 56.103-83.964 48.058-151.76l-45.904-286.28" stroke="#fff" stroke-linecap="round"/>
<path d="m597.21 471.68c19.371-22.338 56.103-83.964 48.058-151.76l-45.904-286.28" stroke="url(#ac)" stroke-linecap="round"/>
<path d="m589.15 478.31c20.014-20.726 58.956-78.93 54.61-145.93l-29.971-283.65" stroke="#fff" stroke-linecap="round"/>
<path d="m589.15 478.31c20.014-20.726 58.956-78.93 54.61-145.93l-29.971-283.65" stroke="url(#ab)" stroke-linecap="round"/>
<path d="m581.57 484.39c20.538-19.117 61.422-73.854 60.659-139.86l-14.491-280.15" stroke="#fff" stroke-linecap="round"/>
<path d="m581.57 484.39c20.538-19.117 61.422-73.854 60.659-139.86l-14.491-280.15" stroke="url(#aa)" stroke-linecap="round"/>
<path d="m574.5 489.96c20.944-17.517 63.505-68.758 66.196-133.59l0.489-275.82" stroke="#fff" stroke-linecap="round"/>
<path d="m574.5 489.96c20.944-17.517 63.505-68.758 66.196-133.59l0.489-275.82" stroke="url(#z)" stroke-linecap="round"/>
<path d="m567.95 495.05c21.237-15.935 65.212-63.674 71.219-127.15l14.928-270.71" stroke="#fff" stroke-linecap="round"/>
<path d="m567.95 495.05c21.237-15.935 65.212-63.674 71.219-127.15l14.928-270.71" stroke="url(#y)" stroke-linecap="round"/>
<path d="m561.95 499.72c21.42-14.378 66.553-58.625 75.731-120.58l28.784-264.88" stroke="#fff" stroke-linecap="round"/>
<path d="m561.95 499.72c21.42-14.378 66.553-58.625 75.731-120.58l28.784-264.88" stroke="url(#x)" stroke-linecap="round"/>
<path d="m556.51 503.99c21.496-12.855 67.535-53.636 79.731-113.92l42.023-258.35" stroke="#fff" stroke-linecap="round"/>
<path d="m556.51 503.99c21.496-12.855 67.535-53.636 79.731-113.92l42.023-258.35" stroke="url(#w)" stroke-linecap="round"/>
<path d="m551.66 507.93c21.469-11.371 68.171-48.733 83.224-107.21l54.614-251.2" stroke="#fff" stroke-linecap="round"/>
<path d="m551.66 507.93c21.469-11.371 68.171-48.733 83.224-107.21l54.614-251.2" stroke="url(#u)" stroke-linecap="round"/>
<path d="m547.39 511.56c21.346-9.934 68.474-43.938 86.219-100.48l66.528-243.47" stroke="#fff" stroke-linecap="round"/>
<path d="m547.39 511.56c21.346-9.934 68.474-43.938 86.219-100.48l66.528-243.47" stroke="url(#t)" stroke-linecap="round"/>
<path d="m543.71 514.95c21.131-8.549 68.46-39.272 88.727-93.771l73.916-234.98" stroke="#fff" stroke-linecap="round"/>
<path d="m543.71 514.95c21.131-8.549 68.46-39.272 88.727-93.771l73.916-234.98" stroke="url(#s)" stroke-linecap="round"/>
<path d="m682.68 116.86c-14.98-26.364-61.868-82.91-129.58-98.181l-289.86-52.917" stroke="#fff" stroke-linecap="round"/>
<path d="m682.68 116.86c-14.98-26.364-61.868-82.91-129.58-98.181l-289.86-52.917" stroke="url(#r)" stroke-linecap="round"/>
<path d="m686.1 127.48c-13.205-26.455-56.043-84.004-121.75-102.56l-282.01-67.345" stroke="#fff" stroke-linecap="round"/>
<path d="m686.1 127.48c-13.205-26.455-56.043-84.004-121.75-102.56l-282.01-67.345" stroke="url(#q)" stroke-linecap="round"/>
<path d="m689.14 137.47c-11.471-26.43-50.301-84.709-113.85-106.38l-273.47-81.052" stroke="#fff" stroke-linecap="round"/>
<path d="m689.14 137.47c-11.471-26.43-50.301-84.709-113.85-106.38l-273.47-81.052" stroke="url(#p)" stroke-linecap="round"/>
<path d="m691.85 146.8c-9.784-26.296-44.666-85.04-105.93-109.64l-264.3-94.007" stroke="#fff" stroke-linecap="round"/>
<path d="m691.85 146.8c-9.784-26.296-44.666-85.04-105.93-109.64l-264.3-94.007" stroke="url(#o)" stroke-linecap="round"/>
<path d="m694.28 155.47c-8.151-26.059-39.162-85.012-98.009-112.35l-254.56-106.18" stroke="#fff" stroke-linecap="round"/>
<path d="m694.28 155.47c-8.151-26.059-39.162-85.012-98.009-112.35l-254.56-106.18" stroke="url(#n)" stroke-linecap="round"/>
<path d="m696.48 163.47c-6.577-25.723-33.811-84.64-90.135-114.52l-244.31-117.56" stroke="#fff" stroke-linecap="round"/>
<path d="m696.48 163.47c-6.577-25.723-33.811-84.64-90.135-114.52l-244.31-117.56" stroke="url(#m)" stroke-linecap="round"/>
<path d="m698.48 170.8c-5.069-25.295-28.634-83.941-82.34-116.17l-233.61-128.12" stroke="#fff" stroke-linecap="round"/>
<path d="m698.48 170.8c-5.069-25.295-28.634-83.941-82.34-116.17l-233.61-128.12" stroke="url(#l)" stroke-linecap="round"/>
<path d="m700.35 177.46c-3.633-24.781-23.651-82.937-74.657-117.31l-222.51-137.85" stroke="#fff" stroke-linecap="round"/>
<path d="m700.35 177.46c-3.633-24.781-23.651-82.937-74.657-117.31l-222.51-137.85" stroke="url(#j)" stroke-linecap="round"/>
<path d="m702.12 183.45c-2.272-24.188-18.878-81.645-67.119-117.97l-211.08-146.74" stroke="#fff" stroke-linecap="round"/>
<path d="m702.12 183.45c-2.272-24.188-18.878-81.645-67.119-117.97l-211.08-146.74" stroke="url(#i)" stroke-linecap="round"/>
<path d="m703.84 188.79c-0.992-23.524-14.333-80.087-59.756-118.15l-199.37-154.78" stroke="#fff" stroke-linecap="round"/>
<path d="m703.84 188.79c-0.992-23.524-14.333-80.087-59.756-118.15l-199.37-154.78" stroke="url(#h)" stroke-linecap="round"/>
<path d="m705.56 193.48c0.204-22.794-10.029-78.284-52.595-117.89l-187.44-161.97" stroke="#fff" stroke-linecap="round"/>
<path d="m705.56 193.48c0.204-22.794-10.029-78.284-52.595-117.89l-187.44-161.97" stroke="url(#g)" stroke-linecap="round"/>
<rect x="-54.03" y="-164.56" width="981" height="889.53" fill="#171922" opacity=".7"/>
</g>
</g>
<defs>
<linearGradient id="ar" x1="155.53" x2="284.13" y1="147.83" y2="135.37" gradientUnits="userSpaceOnUse">
<stop stop-color="#53F3C3" stop-opacity=".6" offset="0"/>
<stop stop-color="#53F3C3" stop-opacity=".6" offset=".17708"/>
</linearGradient>
<linearGradient id="ag" x1="158.9" x2="284.61" y1="132.97" y2="128.06" gradientUnits="userSpaceOnUse">
<stop stop-color="#53F3C3" stop-opacity=".6" offset="0"/>
<stop stop-color="#53F3C3" stop-opacity=".6" offset=".17708"/>
</linearGradient>
<linearGradient id="v" x1="162.48" x2="284.86" y1="118.29" y2="120.57" gradientUnits="userSpaceOnUse">
<stop stop-color="#53F3C3" stop-opacity=".6" offset="0"/>
<stop stop-color="#53F3C3" stop-opacity=".6" offset=".17708"/>
</linearGradient>
<linearGradient id="k" x1="166.26" x2="284.91" y1="103.8" y2="112.86" gradientUnits="userSpaceOnUse">
<stop stop-color="#53F3C3" stop-opacity=".6" offset="0"/>
<stop stop-color="#53F3C3" stop-opacity=".6" offset=".17708"/>
</linearGradient>
<linearGradient id="f" x1="195.27" x2="375.46" y1="77.164" y2="101.42" gradientUnits="userSpaceOnUse">
<stop stop-color="#53F3C3" stop-opacity=".6" offset="0"/>
<stop stop-color="#53F3C3" stop-opacity=".6" offset=".17708"/>
</linearGradient>
<linearGradient id="e" x1="199.08" x2="370.15" y1="61.966" y2="95.117" gradientUnits="userSpaceOnUse">
<stop stop-color="#53F3C3" stop-opacity=".6" offset="0"/>
<stop stop-color="#53F3C3" stop-opacity=".6" offset=".17708"/>
</linearGradient>
<linearGradient id="d" x1="201.7" x2="360.77" y1="49.346" y2="89.794" gradientUnits="userSpaceOnUse">
<stop stop-color="#53F3C3" stop-opacity=".6" offset="0"/>
<stop stop-color="#53F3C3" stop-opacity=".6" offset=".17708"/>
</linearGradient>
<linearGradient id="c" x1="205.94" x2="354.73" y1="34.23" y2="81.334" gradientUnits="userSpaceOnUse">
<stop stop-color="#53F3C3" stop-opacity=".6" offset="0"/>
<stop stop-color="#53F3C3" stop-opacity=".6" offset=".17708"/>
</linearGradient>
<linearGradient id="b" x1="210.38" x2="350.68" y1="21.828" y2="75.311" gradientUnits="userSpaceOnUse">
<stop stop-color="#53F3C3" stop-opacity=".6" offset="0"/>
<stop stop-color="#53F3C3" stop-opacity=".6" offset=".17708"/>
</linearGradient>
<linearGradient id="a" x1="215.14" x2="344.39" y1="6.8508" y2="64.848" gradientUnits="userSpaceOnUse">
<stop stop-color="#53F3C3" stop-opacity=".6" offset="0"/>
<stop stop-color="#53F3C3" stop-opacity=".6" offset=".17708"/>
</linearGradient>
<linearGradient id="aq" x1="219.03" x2="338.19" y1="-4.721" y2="57.221" gradientUnits="userSpaceOnUse">
<stop stop-color="#53F3C3" stop-opacity=".6" offset="0"/>
<stop stop-color="#53F3C3" stop-opacity=".6" offset=".17708"/>
</linearGradient>
<linearGradient id="ap" x1="230.63" x2="263.26" y1="431.82" y2="306.8" gradientUnits="userSpaceOnUse">
<stop stop-color="#53F3C3" stop-opacity=".6" offset="0"/>
<stop stop-color="#53F3C3" stop-opacity=".6" offset=".17708"/>
</linearGradient>
<linearGradient id="ao" x1="217.84" x2="256.57" y1="423.53" y2="303.84" gradientUnits="userSpaceOnUse">
<stop stop-color="#53F3C3" stop-opacity=".6" offset="0"/>
<stop stop-color="#53F3C3" stop-opacity=".6" offset=".17708"/>
</linearGradient>
<linearGradient id="an" x1="205.3" x2="249.62" y1="415.11" y2="301.02" gradientUnits="userSpaceOnUse">
<stop stop-color="#53F3C3" stop-opacity=".6" offset="0"/>
<stop stop-color="#53F3C3" stop-opacity=".6" offset=".17708"/>
</linearGradient>
<linearGradient id="am" x1="193" x2="242.41" y1="406.57" y2="298.31" gradientUnits="userSpaceOnUse">
<stop stop-color="#53F3C3" stop-opacity=".6" offset="0"/>
<stop stop-color="#53F3C3" stop-opacity=".6" offset=".17708"/>
</linearGradient>
<linearGradient id="al" x1="180.96" x2="234.93" y1="397.94" y2="295.71" gradientUnits="userSpaceOnUse">
<stop stop-color="#53F3C3" stop-opacity=".6" offset="0"/>
<stop stop-color="#53F3C3" stop-opacity=".6" offset=".17708"/>
</linearGradient>
<linearGradient id="ak" x1="169.18" x2="227.18" y1="389.23" y2="293.18" gradientUnits="userSpaceOnUse">
<stop stop-color="#53F3C3" stop-opacity=".6" offset="0"/>
<stop stop-color="#53F3C3" stop-opacity=".6" offset=".17708"/>
</linearGradient>
<linearGradient id="aj" x1="157.65" x2="219.17" y1="380.46" y2="290.72" gradientUnits="userSpaceOnUse">
<stop stop-color="#53F3C3" stop-opacity=".6" offset="0"/>
<stop stop-color="#53F3C3" stop-opacity=".6" offset=".17708"/>
</linearGradient>
<linearGradient id="ai" x1="146.38" x2="210.88" y1="371.65" y2="288.28" gradientUnits="userSpaceOnUse">
<stop stop-color="#53F3C3" stop-opacity=".6" offset="0"/>
<stop stop-color="#53F3C3" stop-opacity=".6" offset=".17708"/>
</linearGradient>
<linearGradient id="ah" x1="135.37" x2="202.33" y1="362.82" y2="285.87" gradientUnits="userSpaceOnUse">
<stop stop-color="#53F3C3" stop-opacity=".6" offset="0"/>
<stop stop-color="#53F3C3" stop-opacity=".6" offset=".17708"/>
</linearGradient>
<linearGradient id="af" x1="124.61" x2="193.51" y1="353.99" y2="283.46" gradientUnits="userSpaceOnUse">
<stop stop-color="#53F3C3" stop-opacity=".6" offset="0"/>
<stop stop-color="#53F3C3" stop-opacity=".6" offset=".17708"/>
</linearGradient>
<linearGradient id="ae" x1="114.1" x2="184.44" y1="345.18" y2="281.02" gradientUnits="userSpaceOnUse">
<stop stop-color="#53F3C3" stop-opacity=".6" offset="0"/>
<stop stop-color="#53F3C3" stop-opacity=".6" offset=".17708"/>
</linearGradient>
<linearGradient id="ad" x1="648.7" x2="539" y1="207.96" y2="276.22" gradientUnits="userSpaceOnUse">
<stop stop-color="#53F3C3" stop-opacity=".6" offset="0"/>
<stop stop-color="#53F3C3" stop-opacity=".6" offset=".17708"/>
</linearGradient>
<linearGradient id="ac" x1="652.28" x2="541.82" y1="222.78" y2="282.98" gradientUnits="userSpaceOnUse">
<stop stop-color="#53F3C3" stop-opacity=".6" offset="0"/>
<stop stop-color="#53F3C3" stop-opacity=".6" offset=".17708"/>
</linearGradient>
<linearGradient id="ab" x1="655.59" x2="544.92" y1="237.52" y2="289.81" gradientUnits="userSpaceOnUse">
<stop stop-color="#53F3C3" stop-opacity=".6" offset="0"/>
<stop stop-color="#53F3C3" stop-opacity=".6" offset=".17708"/>
</linearGradient>
<linearGradient id="aa" x1="658.64" x2="548.29" y1="252.17" y2="296.73" gradientUnits="userSpaceOnUse">
<stop stop-color="#53F3C3" stop-opacity=".6" offset="0"/>
<stop stop-color="#53F3C3" stop-opacity=".6" offset=".17708"/>
</linearGradient>
<linearGradient id="z" x1="661.43" x2="551.93" y1="266.72" y2="303.77" gradientUnits="userSpaceOnUse">
<stop stop-color="#53F3C3" stop-opacity=".6" offset="0"/>
<stop stop-color="#53F3C3" stop-opacity=".6" offset=".17708"/>
</linearGradient>
<linearGradient id="y" x1="663.99" x2="555.81" y1="281.15" y2="310.93" gradientUnits="userSpaceOnUse">
<stop stop-color="#53F3C3" stop-opacity=".6" offset="0"/>
<stop stop-color="#53F3C3" stop-opacity=".6" offset=".17708"/>
</linearGradient>
<linearGradient id="x" x1="666.32" x2="559.93" y1="295.45" y2="318.24" gradientUnits="userSpaceOnUse">
<stop stop-color="#53F3C3" stop-opacity=".6" offset="0"/>
<stop stop-color="#53F3C3" stop-opacity=".6" offset=".17708"/>
</linearGradient>
<linearGradient id="w" x1="668.43" x2="564.27" y1="309.6" y2="325.7" gradientUnits="userSpaceOnUse">
<stop stop-color="#53F3C3" stop-opacity=".6" offset="0"/>
<stop stop-color="#53F3C3" stop-opacity=".6" offset=".17708"/>
</linearGradient>
<linearGradient id="u" x1="670.35" x2="568.81" y1="323.58" y2="333.34" gradientUnits="userSpaceOnUse">
<stop stop-color="#53F3C3" stop-opacity=".6" offset="0"/>
<stop stop-color="#53F3C3" stop-opacity=".6" offset=".17708"/>
</linearGradient>
<linearGradient id="t" x1="672.08" x2="573.55" y1="337.39" y2="341.16" gradientUnits="userSpaceOnUse">
<stop stop-color="#53F3C3" stop-opacity=".6" offset="0"/>
<stop stop-color="#53F3C3" stop-opacity=".6" offset=".17708"/>
</linearGradient>
<linearGradient id="s" x1="670.62" x2="577.7" y1="351.11" y2="349.31" gradientUnits="userSpaceOnUse">
<stop stop-color="#53F3C3" stop-opacity=".6" offset="0"/>
<stop stop-color="#53F3C3" stop-opacity=".6" offset=".17708"/>
</linearGradient>
<linearGradient id="r" x1="462.27" x2="483.26" y1="-21.164" y2="106.32" gradientUnits="userSpaceOnUse">
<stop stop-color="#53F3C3" stop-opacity=".6" offset="0"/>
<stop stop-color="#53F3C3" stop-opacity=".6" offset=".17708"/>
</linearGradient>
<linearGradient id="q" x1="477.32" x2="490.58" y1="-18.794" y2="106.31" gradientUnits="userSpaceOnUse">
<stop stop-color="#53F3C3" stop-opacity=".6" offset="0"/>
<stop stop-color="#53F3C3" stop-opacity=".6" offset=".17708"/>
</linearGradient>
<linearGradient id="p" x1="492.21" x2="498.08" y1="-16.2" y2="106.06" gradientUnits="userSpaceOnUse">
<stop stop-color="#53F3C3" stop-opacity=".6" offset="0"/>
<stop stop-color="#53F3C3" stop-opacity=".6" offset=".17708"/>
</linearGradient>
<linearGradient id="o" x1="506.91" x2="505.77" y1="-13.396" y2="105.6" gradientUnits="userSpaceOnUse">
<stop stop-color="#53F3C3" stop-opacity=".6" offset="0"/>
<stop stop-color="#53F3C3" stop-opacity=".6" offset=".17708"/>
</linearGradient>
<linearGradient id="n" x1="521.42" x2="513.66" y1="-10.401" y2="104.94" gradientUnits="userSpaceOnUse">
<stop stop-color="#53F3C3" stop-opacity=".6" offset="0"/>
<stop stop-color="#53F3C3" stop-opacity=".6" offset=".17708"/>
</linearGradient>
<linearGradient id="m" x1="535.73" x2="521.77" y1="-7.2298" y2="104.1" gradientUnits="userSpaceOnUse">
<stop stop-color="#53F3C3" stop-opacity=".6" offset="0"/>
<stop stop-color="#53F3C3" stop-opacity=".6" offset=".17708"/>
</linearGradient>
<linearGradient id="l" x1="549.83" x2="530.1" y1="-3.9006" y2="103.1" gradientUnits="userSpaceOnUse">
<stop stop-color="#53F3C3" stop-opacity=".6" offset="0"/>
<stop stop-color="#53F3C3" stop-opacity=".6" offset=".17708"/>
</linearGradient>
<linearGradient id="j" x1="563.7" x2="538.65" y1="-.43128" y2="101.95" gradientUnits="userSpaceOnUse">
<stop stop-color="#53F3C3" stop-opacity=".6" offset="0"/>
<stop stop-color="#53F3C3" stop-opacity=".6" offset=".17708"/>
</linearGradient>
<linearGradient id="i" x1="577.36" x2="547.45" y1="3.1599" y2="100.68" gradientUnits="userSpaceOnUse">
<stop stop-color="#53F3C3" stop-opacity=".6" offset="0"/>
<stop stop-color="#53F3C3" stop-opacity=".6" offset=".17708"/>
</linearGradient>
<linearGradient id="h" x1="590.77" x2="556.48" y1="6.8544" y2="99.302" gradientUnits="userSpaceOnUse">
<stop stop-color="#53F3C3" stop-opacity=".6" offset="0"/>
<stop stop-color="#53F3C3" stop-opacity=".6" offset=".17708"/>
</linearGradient>
<linearGradient id="g" x1="603.96" x2="565.77" y1="10.634" y2="97.839" gradientUnits="userSpaceOnUse">
<stop stop-color="#53F3C3" stop-opacity=".6" offset="0"/>
<stop stop-color="#53F3C3" stop-opacity=".6" offset=".17708"/>
</linearGradient>
<clipPath id="as">
<rect width="705" height="220" rx="16" fill="#fff"/>
</clipPath>
</defs>
</svg>
