<?xml version="1.0" encoding="UTF-8"?>
<svg fill="none" viewBox="0 0 929 855" xmlns="http://www.w3.org/2000/svg">
<path d="m352.29 127.39c-23.88 11.538-75.957 49.163-93.225 107.36l-63.058 249.87" stroke="#fff" stroke-linecap="round"/>
<path d="m352.29 127.39c-23.88 11.538-75.957 49.163-93.225 107.36l-63.058 249.87" stroke="url(#bc)" stroke-linecap="round"/>
<path d="m361.77 125.03c-23.855 9.984-76.571 44.017-96.594 100.28l-75.191 242.18" stroke="#fff" stroke-linecap="round"/>
<path d="m361.77 125.03c-23.855 9.984-76.571 44.017-96.594 100.28l-75.191 242.18" stroke="url(#ar)" stroke-linecap="round"/>
<path d="m370.66 122.96c-23.733 8.471-76.853 38.964-99.466 93.162l-86.655 233.93" stroke="#fff" stroke-linecap="round"/>
<path d="m370.66 122.96c-23.733 8.471-76.853 38.964-99.466 93.162l-86.655 233.93" stroke="url(#ag)" stroke-linecap="round"/>
<path d="m378.96 121.13c-23.518 7.007-76.814 34.027-101.85 86.055l-97.427 225.18" stroke="#fff" stroke-linecap="round"/>
<path d="m378.96 121.13c-23.518 7.007-76.814 34.027-101.85 86.055l-97.427 225.18" stroke="url(#v)" stroke-linecap="round"/>
<path d="m486.81 105.42c-32.468-1.457-176.08 20.123-203.9 93.086l-107.49 215.97" stroke="#fff" stroke-linecap="round"/>
<path d="m486.81 105.42c-32.468-1.457-176.08 20.123-203.9 93.086l-107.49 215.97" stroke="url(#k)" stroke-linecap="round"/>
<path d="m489.35 104.54c-25.199 3.873-173.65 21.733-200.77 85.524l-116.82 206.36" stroke="#fff" stroke-linecap="round"/>
<path d="m489.35 104.54c-25.199 3.873-173.65 21.733-200.77 85.524l-116.82 206.36" stroke="url(#e)" stroke-linecap="round"/>
<path d="m486.74 106.92c-23.476-1.054-163.09 20.706-192.63 74.916l-125.41 196.4" stroke="#fff" stroke-linecap="round"/>
<path d="m486.74 106.92c-23.476-1.054-163.09 20.706-192.63 74.916l-125.41 196.4" stroke="url(#d)" stroke-linecap="round"/>
<path d="m487.85 104.47c-21.837 1.728-155.4 26.846-188.37 69.357l-133.25 186.15" stroke="#fff" stroke-linecap="round"/>
<path d="m487.85 104.47c-21.837 1.728-155.4 26.846-188.37 69.357l-133.25 186.15" stroke="url(#c)" stroke-linecap="round"/>
<path d="m490.26 106.58c-21.24 0.575-151.07 19.449-185.57 59.433l-140.34 175.66" stroke="#fff" stroke-linecap="round"/>
<path d="m490.26 106.58c-21.24 0.575-151.07 19.449-185.57 59.433l-140.34 175.66" stroke="url(#b)" stroke-linecap="round"/>
<path d="m490.44 102.58c-20.586-0.503-144.87 18.377-180.73 55.801l-146.68 164.97" stroke="#fff" stroke-linecap="round"/>
<path d="m490.44 102.58c-20.586-0.503-144.87 18.377-180.73 55.801l-146.68 164.97" stroke="url(#a)" stroke-linecap="round"/>
<path d="m489.37 104.04c-19.879-1.505-137.78 12.048-174.83 46.889l-152.26 154.15" stroke="#fff" stroke-linecap="round"/>
<path d="m489.37 104.04c-19.879-1.505-137.78 12.048-174.83 46.889l-152.26 154.15" stroke="url(#bb)" stroke-linecap="round"/>
<path d="m157.62 371.44c2.599 26.393 19.967 88.248 68.645 124.52l212.82 145.32" stroke="#fff" stroke-linecap="round"/>
<path d="m157.62 371.44c2.599 26.393 19.967 88.248 68.645 124.52l212.82 145.32" stroke="url(#ba)" stroke-linecap="round"/>
<path d="m158.67 361.73c1.149 25.835 14.924 87.051 60.833 125.24l201.42 154.06" stroke="#fff" stroke-linecap="round"/>
<path d="m158.67 361.73c1.149 25.835 14.924 87.051 60.833 125.24l201.42 154.06" stroke="url(#az)" stroke-linecap="round"/>
<path d="m159.79 352.67c-0.229 25.199 10.084 85.574 53.165 125.48l189.72 161.98" stroke="#fff" stroke-linecap="round"/>
<path d="m159.79 352.67c-0.229 25.199 10.084 85.574 53.165 125.48l189.72 161.98" stroke="url(#ay)" stroke-linecap="round"/>
<path d="m160.94 344.25c-1.53 24.492 5.463 83.835 45.673 125.27l177.79 169.08" stroke="#fff" stroke-linecap="round"/>
<path d="m160.94 344.25c-1.53 24.492 5.463 83.835 45.673 125.27l177.79 169.08" stroke="url(#ax)" stroke-linecap="round"/>
<path d="m162.08 336.46c-2.75 23.722 1.076 81.856 38.383 124.62l165.68 175.34" stroke="#fff" stroke-linecap="round"/>
<path d="m162.08 336.46c-2.75 23.722 1.076 81.856 38.383 124.62l165.68 175.34" stroke="url(#aw)" stroke-linecap="round"/>
<path d="m163.17 329.28c-3.889 22.893-3.069 79.656 31.318 123.56l153.44 180.79" stroke="#fff" stroke-linecap="round"/>
<path d="m163.17 329.28c-3.889 22.893-3.069 79.656 31.318 123.56l153.44 180.79" stroke="url(#av)" stroke-linecap="round"/>
<path d="m164.17 322.72c-4.941 22.016-6.958 77.258 24.503 122.1l141.14 185.43" stroke="#fff" stroke-linecap="round"/>
<path d="m164.17 322.72c-4.941 22.016-6.958 77.258 24.503 122.1l141.14 185.43" stroke="url(#au)" stroke-linecap="round"/>
<path d="m165.04 316.73c-5.906 21.095-10.582 74.684 17.958 120.28l128.81 189.26" stroke="#fff" stroke-linecap="round"/>
<path d="m165.04 316.73c-5.906 21.095-10.582 74.684 17.958 120.28l128.81 189.26" stroke="url(#at)" stroke-linecap="round"/>
<path d="m165.76 311.31c-6.782 20.137-13.937 71.954 11.702 118.13l116.51 192.29" stroke="#fff" stroke-linecap="round"/>
<path d="m165.76 311.31c-6.782 20.137-13.937 71.954 11.702 118.13l116.51 192.29" stroke="url(#as)" stroke-linecap="round"/>
<path d="m166.28 306.43c-7.57 19.151-17.016 69.094 5.751 115.66l104.3 194.56" stroke="#fff" stroke-linecap="round"/>
<path d="m166.28 306.43c-7.57 19.151-17.016 69.094 5.751 115.66l104.3 194.56" stroke="url(#aq)" stroke-linecap="round"/>
<path d="m166.58 302.07c-8.266 18.142-19.814 66.123 0.122 112.91l92.214 196.06" stroke="#fff" stroke-linecap="round"/>
<path d="m166.58 302.07c-8.266 18.142-19.814 66.123 0.122 112.91l92.214 196.06" stroke="url(#ap)" stroke-linecap="round"/>
<path d="m309.14 638.63c25.49 7.326 89.388 14.012 141.06-17.844l197.07-131.78" stroke="#fff" stroke-linecap="round"/>
<path d="m309.14 638.63c25.49 7.326 89.388 14.012 141.06-17.844l197.07-131.78" stroke="url(#ao)" stroke-linecap="round"/>
<path d="m300.5 634.08c24.435 8.466 86.413 18.257 138.85-10.317l207.38-122.77" stroke="#fff" stroke-linecap="round"/>
<path d="m300.5 634.08c24.435 8.466 86.413 18.257 138.85-10.317l207.38-122.77" stroke="url(#an)" stroke-linecap="round"/>
<path d="m292.49 629.69c23.335 9.513 83.254 22.21 136.25-3.101l220.57-116.55" stroke="#fff" stroke-linecap="round"/>
<path d="m292.49 629.69c23.335 9.513 83.254 22.21 136.25-3.101l220.57-116.55" stroke="url(#am)" stroke-linecap="round"/>
<path d="m285.09 625.51c22.199 10.461 79.933 25.863 133.28 3.783l222.76-102.84" stroke="#fff" stroke-linecap="round"/>
<path d="m285.09 625.51c22.199 10.461 79.933 25.863 133.28 3.783l222.76-102.84" stroke="url(#al)" stroke-linecap="round"/>
<path d="m278.27 621.58c21.032 11.311 76.474 29.211 129.99 10.319l224.11-89.269" stroke="#fff" stroke-linecap="round"/>
<path d="m278.27 621.58c21.032 11.311 76.474 29.211 129.99 10.319l224.11-89.269" stroke="url(#ak)" stroke-linecap="round"/>
<path d="m272.01 617.92c19.843 12.063 72.901 32.25 126.39 16.492l224.66-75.886" stroke="#fff" stroke-linecap="round"/>
<path d="m272.01 617.92c19.843 12.063 72.901 32.25 126.39 16.492l224.66-75.886" stroke="url(#aj)" stroke-linecap="round"/>
<path d="m266.27 614.56c18.638 12.717 69.237 34.979 122.53 22.289l224.42-62.737" stroke="#fff" stroke-linecap="round"/>
<path d="m266.27 614.56c18.638 12.717 69.237 34.979 122.53 22.289l224.42-62.737" stroke="url(#ai)" stroke-linecap="round"/>
<path d="m261.03 611.54c17.425 13.274 65.505 37.398 118.42 27.702l223.43-49.868" stroke="#fff" stroke-linecap="round"/>
<path d="m261.03 611.54c17.425 13.274 65.505 37.398 118.42 27.702l223.43-49.868" stroke="url(#ah)" stroke-linecap="round"/>
<path d="m256.26 608.88c16.212 13.735 61.731 39.509 114.11 32.72l221.72-37.319" stroke="#fff" stroke-linecap="round"/>
<path d="m256.26 608.88c16.212 13.735 61.731 39.509 114.11 32.72l221.72-37.319" stroke="url(#af)" stroke-linecap="round"/>
<path d="m257.9 611.16c15.006 14.103 51.957 36.741 103.64 32.767l219.32-25.133" stroke="#fff" stroke-linecap="round"/>
<path d="m257.9 611.16c15.006 14.103 51.957 36.741 103.64 32.767l219.32-25.133" stroke="url(#ae)" stroke-linecap="round"/>
<path d="m259.35 612.23c13.811 14.378 42.768 35.295 93.608 34.033l216.26-13.344" stroke="#fff" stroke-linecap="round"/>
<path d="m259.35 612.23c13.811 14.378 42.768 35.295 93.608 34.033l216.26-13.344" stroke="url(#ad)" stroke-linecap="round"/>
<path d="m612.75 588.62c16.274-20.94 46.232-77.775 35.867-137.59l-54.437-251.89" stroke="#fff" stroke-linecap="round"/>
<path d="m612.75 588.62c16.274-20.94 46.232-77.775 35.867-137.59l-54.437-251.89" stroke="url(#ac)" stroke-linecap="round"/>
<path d="m605.31 594.95c16.943-19.537 49.069-73.436 42.032-132.74l-40.148-250.38" stroke="#fff" stroke-linecap="round"/>
<path d="m605.31 594.95c16.943-19.537 49.069-73.436 42.032-132.74l-40.148-250.38" stroke="url(#ab)" stroke-linecap="round"/>
<path d="m598.26 600.75c17.505-18.128 51.564-69.034 47.764-127.64l-26.213-248.08" stroke="#fff" stroke-linecap="round"/>
<path d="m598.26 600.75c17.505-18.128 51.564-69.034 47.764-127.64l-26.213-248.08" stroke="url(#aa)" stroke-linecap="round"/>
<path d="m591.63 606.07c17.963-16.72 53.721-64.593 53.053-122.33l-12.674-245.02" stroke="#fff" stroke-linecap="round"/>
<path d="m591.63 606.07c17.963-16.72 53.721-64.593 53.053-122.33l-12.674-245.02" stroke="url(#z)" stroke-linecap="round"/>
<path d="m585.44 610.94c18.318-15.321 55.543-60.138 57.896-116.84l0.428-241.24" stroke="#fff" stroke-linecap="round"/>
<path d="m585.44 610.94c18.318-15.321 55.543-60.138 57.896-116.84l0.428-241.24" stroke="url(#y)" stroke-linecap="round"/>
<path d="m579.72 615.39c18.575-13.937 57.037-55.69 62.291-111.21l13.055-236.77" stroke="#fff" stroke-linecap="round"/>
<path d="m579.72 615.39c18.575-13.937 57.037-55.69 62.291-111.21l13.055-236.77" stroke="url(#x)" stroke-linecap="round"/>
<path d="m574.47 619.47c18.734-12.575 58.208-51.274 66.236-105.46l25.174-231.66" stroke="#fff" stroke-linecap="round"/>
<path d="m574.47 619.47c18.734-12.575 58.208-51.274 66.236-105.46l25.174-231.66" stroke="url(#w)" stroke-linecap="round"/>
<path d="m569.72 623.21c18.8-11.243 59.067-46.911 69.733-99.64l36.755-225.96" stroke="#fff" stroke-linecap="round"/>
<path d="m569.72 623.21c18.8-11.243 59.067-46.911 69.733-99.64l36.755-225.96" stroke="url(#u)" stroke-linecap="round"/>
<path d="m565.47 626.65c18.778-9.946 59.624-42.623 72.79-93.77l47.766-219.7" stroke="#fff" stroke-linecap="round"/>
<path d="m565.47 626.65c18.778-9.946 59.624-42.623 72.79-93.77l47.766-219.7" stroke="url(#t)" stroke-linecap="round"/>
<path d="m561.73 629.83c18.67-8.688 59.889-38.429 75.41-87.884l58.186-212.94" stroke="#fff" stroke-linecap="round"/>
<path d="m561.73 629.83c18.67-8.688 59.889-38.429 75.41-87.884l58.186-212.94" stroke="url(#s)" stroke-linecap="round"/>
<path d="m558.52 632.79c18.481-7.477 59.876-34.348 77.601-82.014l64.649-205.52" stroke="#fff" stroke-linecap="round"/>
<path d="m558.52 632.79c18.481-7.477 59.876-34.348 77.601-82.014l64.649-205.52" stroke="url(#r)" stroke-linecap="round"/>
<path d="m680.07 284.61c-13.102-23.059-54.111-72.515-113.33-85.871l-253.52-46.282" stroke="#fff" stroke-linecap="round"/>
<path d="m680.07 284.61c-13.102-23.059-54.111-72.515-113.33-85.871l-253.52-46.282" stroke="url(#q)" stroke-linecap="round"/>
<path d="m683.06 293.91c-11.55-23.137-49.017-73.471-106.48-89.704l-246.65-58.901" stroke="#fff" stroke-linecap="round"/>
<path d="m683.06 293.91c-11.55-23.137-49.017-73.471-106.48-89.704l-246.65-58.901" stroke="url(#p)" stroke-linecap="round"/>
<path d="m685.71 302.64c-10.033-23.117-43.994-74.089-99.577-93.043l-239.18-70.89" stroke="#fff" stroke-linecap="round"/>
<path d="m685.71 302.64c-10.033-23.117-43.994-74.089-99.577-93.043l-239.18-70.89" stroke="url(#o)" stroke-linecap="round"/>
<path d="m688.08 310.81c-8.557-23-39.065-74.378-92.645-95.893l-231.16-82.22" stroke="#fff" stroke-linecap="round"/>
<path d="m688.08 310.81c-8.557-23-39.065-74.378-92.645-95.893l-231.16-82.22" stroke="url(#n)" stroke-linecap="round"/>
<path d="m690.21 318.39c-7.128-22.791-34.251-74.352-85.719-98.262l-222.64-92.871" stroke="#fff" stroke-linecap="round"/>
<path d="m690.21 318.39c-7.128-22.791-34.251-74.352-85.719-98.262l-222.64-92.871" stroke="url(#m)" stroke-linecap="round"/>
<path d="m692.13 325.38c-5.752-22.498-29.571-74.027-78.833-100.16l-213.68-102.82" stroke="#fff" stroke-linecap="round"/>
<path d="m692.13 325.38c-5.752-22.498-29.571-74.027-78.833-100.16l-213.68-102.82" stroke="url(#l)" stroke-linecap="round"/>
<path d="m693.88 331.79c-4.434-22.123-25.044-73.417-72.016-101.6l-204.32-112.06" stroke="#fff" stroke-linecap="round"/>
<path d="m693.88 331.79c-4.434-22.123-25.044-73.417-72.016-101.6l-204.32-112.06" stroke="url(#j)" stroke-linecap="round"/>
<path d="m695.52 337.62c-3.178-21.673-20.685-72.537-65.297-102.6l-194.61-120.57" stroke="#fff" stroke-linecap="round"/>
<path d="m695.52 337.62c-3.178-21.673-20.685-72.537-65.297-102.6l-194.61-120.57" stroke="url(#i)" stroke-linecap="round"/>
<path d="m697.07 342.86c-1.988-21.156-16.511-71.408-58.704-103.18l-184.61-128.34" stroke="#fff" stroke-linecap="round"/>
<path d="m697.07 342.86c-1.988-21.156-16.511-71.408-58.704-103.18l-184.61-128.34" stroke="url(#h)" stroke-linecap="round"/>
<path d="m698.57 347.53c-0.868-20.574-12.536-70.045-52.264-103.34l-174.37-135.37" stroke="#fff" stroke-linecap="round"/>
<path d="m698.57 347.53c-0.868-20.574-12.536-70.045-52.264-103.34l-174.37-135.37" stroke="url(#g)" stroke-linecap="round"/>
<path d="m700.07 351.63c0.179-19.936-8.771-68.468-46.001-103.11l-163.94-141.66" stroke="#fff" stroke-linecap="round"/>
<path d="m700.07 351.63c0.179-19.936-8.771-68.468-46.001-103.11l-163.94-141.66" stroke="url(#f)" stroke-linecap="round"/>
<rect x="35.723" y="38.482" width="858" height="778" fill="#171922" opacity=".7"/>
<defs>
<linearGradient id="bc" x1="219.01" x2="331.49" y1="311.7" y2="300.81" gradientUnits="userSpaceOnUse">
<stop stop-color="#FFB636" offset="0"/>
<stop stop-color="#9CCBF0" offset=".17708"/>
</linearGradient>
<linearGradient id="ar" x1="221.96" x2="331.9" y1="298.7" y2="294.42" gradientUnits="userSpaceOnUse">
<stop stop-color="#FFB636" offset="0"/>
<stop stop-color="#9CCBF0" offset=".17708"/>
</linearGradient>
<linearGradient id="ag" x1="225.09" x2="332.12" y1="285.87" y2="287.86" gradientUnits="userSpaceOnUse">
<stop stop-color="#FFB636" offset="0"/>
<stop stop-color="#9CCBF0" offset=".17708"/>
</linearGradient>
<linearGradient id="v" x1="228.39" x2="332.17" y1="273.2" y2="281.12" gradientUnits="userSpaceOnUse">
<stop stop-color="#FFB636" offset="0"/>
<stop stop-color="#9CCBF0" offset=".17708"/>
</linearGradient>
<linearGradient id="k" x1="253.76" x2="411.36" y1="249.9" y2="271.11" gradientUnits="userSpaceOnUse">
<stop stop-color="#FFB636" offset="0"/>
<stop stop-color="#9CCBF0" offset=".17708"/>
</linearGradient>
<linearGradient id="e" x1="257.09" x2="406.72" y1="236.61" y2="265.6" gradientUnits="userSpaceOnUse">
<stop stop-color="#FFB636" offset="0"/>
<stop stop-color="#9CCBF0" offset=".17708"/>
</linearGradient>
<linearGradient id="d" x1="259.39" x2="398.52" y1="225.57" y2="260.94" gradientUnits="userSpaceOnUse">
<stop stop-color="#FFB636" offset="0"/>
<stop stop-color="#9CCBF0" offset=".17708"/>
</linearGradient>
<linearGradient id="c" x1="263.1" x2="393.23" y1="212.35" y2="253.55" gradientUnits="userSpaceOnUse">
<stop stop-color="#FFB636" offset="0"/>
<stop stop-color="#9CCBF0" offset=".17708"/>
</linearGradient>
<linearGradient id="b" x1="266.98" x2="389.69" y1="201.5" y2="248.28" gradientUnits="userSpaceOnUse">
<stop stop-color="#FFB636" offset="0"/>
<stop stop-color="#9CCBF0" offset=".17708"/>
</linearGradient>
<linearGradient id="a" x1="271.14" x2="384.19" y1="188.4" y2="239.13" gradientUnits="userSpaceOnUse">
<stop stop-color="#FFB636" offset="0"/>
<stop stop-color="#9CCBF0" offset=".17708"/>
</linearGradient>
<linearGradient id="bb" x1="274.55" x2="378.77" y1="178.28" y2="232.46" gradientUnits="userSpaceOnUse">
<stop stop-color="#FFB636" offset="0"/>
<stop stop-color="#9CCBF0" offset=".17708"/>
</linearGradient>
<linearGradient id="ba" x1="284.69" x2="313.24" y1="560.08" y2="450.74" gradientUnits="userSpaceOnUse">
<stop stop-color="#FFB636" offset="0"/>
<stop stop-color="#9CCBF0" offset=".17708"/>
</linearGradient>
<linearGradient id="az" x1="273.51" x2="307.38" y1="552.84" y2="448.15" gradientUnits="userSpaceOnUse">
<stop stop-color="#FFB636" offset="0"/>
<stop stop-color="#9CCBF0" offset=".17708"/>
</linearGradient>
<linearGradient id="ay" x1="262.53" x2="301.3" y1="545.47" y2="445.68" gradientUnits="userSpaceOnUse">
<stop stop-color="#FFB636" offset="0"/>
<stop stop-color="#9CCBF0" offset=".17708"/>
</linearGradient>
<linearGradient id="ax" x1="251.78" x2="294.99" y1="538.01" y2="443.32" gradientUnits="userSpaceOnUse">
<stop stop-color="#FFB636" offset="0"/>
<stop stop-color="#9CCBF0" offset=".17708"/>
</linearGradient>
<linearGradient id="aw" x1="241.25" x2="288.45" y1="530.45" y2="441.04" gradientUnits="userSpaceOnUse">
<stop stop-color="#FFB636" offset="0"/>
<stop stop-color="#9CCBF0" offset=".17708"/>
</linearGradient>
<linearGradient id="av" x1="230.94" x2="281.68" y1="522.83" y2="438.83" gradientUnits="userSpaceOnUse">
<stop stop-color="#FFB636" offset="0"/>
<stop stop-color="#9CCBF0" offset=".17708"/>
</linearGradient>
<linearGradient id="au" x1="220.86" x2="274.66" y1="515.16" y2="436.67" gradientUnits="userSpaceOnUse">
<stop stop-color="#FFB636" offset="0"/>
<stop stop-color="#9CCBF0" offset=".17708"/>
</linearGradient>
<linearGradient id="at" x1="211.01" x2="267.42" y1="507.46" y2="434.55" gradientUnits="userSpaceOnUse">
<stop stop-color="#FFB636" offset="0"/>
<stop stop-color="#9CCBF0" offset=".17708"/>
</linearGradient>
<linearGradient id="as" x1="201.37" x2="259.94" y1="499.74" y2="432.44" gradientUnits="userSpaceOnUse">
<stop stop-color="#FFB636" offset="0"/>
<stop stop-color="#9CCBF0" offset=".17708"/>
</linearGradient>
<linearGradient id="aq" x1="191.96" x2="252.23" y1="492.01" y2="430.32" gradientUnits="userSpaceOnUse">
<stop stop-color="#FFB636" offset="0"/>
<stop stop-color="#9CCBF0" offset=".17708"/>
</linearGradient>
<linearGradient id="ap" x1="182.77" x2="244.29" y1="484.31" y2="428.19" gradientUnits="userSpaceOnUse">
<stop stop-color="#FFB636" offset="0"/>
<stop stop-color="#9CCBF0" offset=".17708"/>
</linearGradient>
<linearGradient id="ao" x1="521.67" x2="433.46" y1="595.32" y2="530.56" gradientUnits="userSpaceOnUse">
<stop stop-color="#FFB636" offset="0"/>
<stop stop-color="#9CCBF0" offset=".17708"/>
</linearGradient>
<linearGradient id="an" x1="514.75" x2="431.33" y1="601.12" y2="532.13" gradientUnits="userSpaceOnUse">
<stop stop-color="#FFB636" offset="0"/>
<stop stop-color="#9CCBF0" offset=".17708"/>
</linearGradient>
<linearGradient id="am" x1="509.61" x2="431.17" y1="605.36" y2="532.5" gradientUnits="userSpaceOnUse">
<stop stop-color="#FFB636" offset="0"/>
<stop stop-color="#9CCBF0" offset=".17708"/>
</linearGradient>
<linearGradient id="al" x1="498.7" x2="426.64" y1="612.59" y2="537.49" gradientUnits="userSpaceOnUse">
<stop stop-color="#FFB636" offset="0"/>
<stop stop-color="#9CCBF0" offset=".17708"/>
</linearGradient>
<linearGradient id="ak" x1="487.79" x2="422.11" y1="619.59" y2="542.72" gradientUnits="userSpaceOnUse">
<stop stop-color="#FFB636" offset="0"/>
<stop stop-color="#9CCBF0" offset=".17708"/>
</linearGradient>
<linearGradient id="aj" x1="476.91" x2="417.56" y1="626.36" y2="548.21" gradientUnits="userSpaceOnUse">
<stop stop-color="#FFB636" offset="0"/>
<stop stop-color="#9CCBF0" offset=".17708"/>
</linearGradient>
<linearGradient id="ai" x1="466.06" x2="412.96" y1="632.9" y2="553.93" gradientUnits="userSpaceOnUse">
<stop stop-color="#FFB636" offset="0"/>
<stop stop-color="#9CCBF0" offset=".17708"/>
</linearGradient>
<linearGradient id="ah" x1="455.26" x2="408.32" y1="639.22" y2="559.88" gradientUnits="userSpaceOnUse">
<stop stop-color="#FFB636" offset="0"/>
<stop stop-color="#9CCBF0" offset=".17708"/>
</linearGradient>
<linearGradient id="af" x1="444.53" x2="403.59" y1="645.32" y2="566.05" gradientUnits="userSpaceOnUse">
<stop stop-color="#FFB636" offset="0"/>
<stop stop-color="#9CCBF0" offset=".17708"/>
</linearGradient>
<linearGradient id="ae" x1="436.08" x2="402.59" y1="651.74" y2="576.55" gradientUnits="userSpaceOnUse">
<stop stop-color="#FFB636" offset="0"/>
<stop stop-color="#9CCBF0" offset=".17708"/>
</linearGradient>
<linearGradient id="ad" x1="427.86" x2="400.74" y1="657.66" y2="585.93" gradientUnits="userSpaceOnUse">
<stop stop-color="#FFB636" offset="0"/>
<stop stop-color="#9CCBF0" offset=".17708"/>
</linearGradient>
<linearGradient id="ac" x1="650.34" x2="554.4" y1="364.3" y2="424" gradientUnits="userSpaceOnUse">
<stop stop-color="#FFB636" offset="0"/>
<stop stop-color="#9CCBF0" offset=".17708"/>
</linearGradient>
<linearGradient id="ab" x1="653.47" x2="556.86" y1="377.25" y2="429.91" gradientUnits="userSpaceOnUse">
<stop stop-color="#FFB636" offset="0"/>
<stop stop-color="#9CCBF0" offset=".17708"/>
</linearGradient>
<linearGradient id="aa" x1="656.37" x2="559.58" y1="390.15" y2="435.88" gradientUnits="userSpaceOnUse">
<stop stop-color="#FFB636" offset="0"/>
<stop stop-color="#9CCBF0" offset=".17708"/>
</linearGradient>
<linearGradient id="z" x1="659.03" x2="562.52" y1="402.96" y2="441.94" gradientUnits="userSpaceOnUse">
<stop stop-color="#FFB636" offset="0"/>
<stop stop-color="#9CCBF0" offset=".17708"/>
</linearGradient>
<linearGradient id="y" x1="661.48" x2="565.7" y1="415.69" y2="448.09" gradientUnits="userSpaceOnUse">
<stop stop-color="#FFB636" offset="0"/>
<stop stop-color="#9CCBF0" offset=".17708"/>
</linearGradient>
<linearGradient id="x" x1="663.71" x2="569.1" y1="428.31" y2="454.36" gradientUnits="userSpaceOnUse">
<stop stop-color="#FFB636" offset="0"/>
<stop stop-color="#9CCBF0" offset=".17708"/>
</linearGradient>
<linearGradient id="w" x1="665.75" x2="572.7" y1="440.82" y2="460.75" gradientUnits="userSpaceOnUse">
<stop stop-color="#FFB636" offset="0"/>
<stop stop-color="#9CCBF0" offset=".17708"/>
</linearGradient>
<linearGradient id="u" x1="667.6" x2="576.5" y1="453.19" y2="467.28" gradientUnits="userSpaceOnUse">
<stop stop-color="#FFB636" offset="0"/>
<stop stop-color="#9CCBF0" offset=".17708"/>
</linearGradient>
<linearGradient id="t" x1="669.28" x2="580.47" y1="465.42" y2="473.96" gradientUnits="userSpaceOnUse">
<stop stop-color="#FFB636" offset="0"/>
<stop stop-color="#9CCBF0" offset=".17708"/>
</linearGradient>
<linearGradient id="s" x1="670.79" x2="584.62" y1="477.5" y2="480.79" gradientUnits="userSpaceOnUse">
<stop stop-color="#FFB636" offset="0"/>
<stop stop-color="#9CCBF0" offset=".17708"/>
</linearGradient>
<linearGradient id="r" x1="669.51" x2="588.25" y1="489.5" y2="487.92" gradientUnits="userSpaceOnUse">
<stop stop-color="#FFB636" offset="0"/>
<stop stop-color="#9CCBF0" offset=".17708"/>
</linearGradient>
<linearGradient id="q" x1="487.29" x2="505.65" y1="163.9" y2="275.4" gradientUnits="userSpaceOnUse">
<stop stop-color="#FFB636" offset="0"/>
<stop stop-color="#9CCBF0" offset=".17708"/>
</linearGradient>
<linearGradient id="p" x1="500.46" x2="512.05" y1="165.97" y2="275.39" gradientUnits="userSpaceOnUse">
<stop stop-color="#FFB636" offset="0"/>
<stop stop-color="#9CCBF0" offset=".17708"/>
</linearGradient>
<linearGradient id="o" x1="513.47" x2="518.61" y1="168.24" y2="275.17" gradientUnits="userSpaceOnUse">
<stop stop-color="#FFB636" offset="0"/>
<stop stop-color="#9CCBF0" offset=".17708"/>
</linearGradient>
<linearGradient id="n" x1="526.33" x2="525.34" y1="170.69" y2="274.77" gradientUnits="userSpaceOnUse">
<stop stop-color="#FFB636" offset="0"/>
<stop stop-color="#9CCBF0" offset=".17708"/>
</linearGradient>
<linearGradient id="m" x1="539.02" x2="532.24" y1="173.31" y2="274.19" gradientUnits="userSpaceOnUse">
<stop stop-color="#FFB636" offset="0"/>
<stop stop-color="#9CCBF0" offset=".17708"/>
</linearGradient>
<linearGradient id="l" x1="551.54" x2="539.33" y1="176.09" y2="273.46" gradientUnits="userSpaceOnUse">
<stop stop-color="#FFB636" offset="0"/>
<stop stop-color="#9CCBF0" offset=".17708"/>
</linearGradient>
<linearGradient id="j" x1="563.87" x2="546.61" y1="179" y2="272.58" gradientUnits="userSpaceOnUse">
<stop stop-color="#FFB636" offset="0"/>
<stop stop-color="#9CCBF0" offset=".17708"/>
</linearGradient>
<linearGradient id="i" x1="576" x2="554.09" y1="182.03" y2="271.58" gradientUnits="userSpaceOnUse">
<stop stop-color="#FFB636" offset="0"/>
<stop stop-color="#9CCBF0" offset=".17708"/>
</linearGradient>
<linearGradient id="h" x1="587.94" x2="561.79" y1="185.17" y2="270.46" gradientUnits="userSpaceOnUse">
<stop stop-color="#FFB636" offset="0"/>
<stop stop-color="#9CCBF0" offset=".17708"/>
</linearGradient>
<linearGradient id="g" x1="599.68" x2="569.69" y1="188.4" y2="269.26" gradientUnits="userSpaceOnUse">
<stop stop-color="#FFB636" offset="0"/>
<stop stop-color="#9CCBF0" offset=".17708"/>
</linearGradient>
<linearGradient id="f" x1="611.21" x2="577.81" y1="191.71" y2="267.98" gradientUnits="userSpaceOnUse">
<stop stop-color="#FFB636" offset="0"/>
<stop stop-color="#9CCBF0" offset=".17708"/>
</linearGradient>
</defs>
</svg>
