<svg width="1200" height="56" viewBox="0 0 1200 56" fill="none" xmlns="http://www.w3.org/2000/svg">
<g opacity="0.2">
<g clip-path="url(#clip0_901_27239)">
<path opacity="0.010101" d="M392.477 15.0912L588.5 -476.508C592.139 -485.634 601.753 -490.976 610.735 -488.864L1015.75 -393.635C1022.74 -391.991 1027.78 -386.151 1028.56 -378.789L1087.21 177.686C1087.98 185.048 1084.35 192.514 1077.96 196.665L708.325 437.068C700.127 442.4 689.781 440.798 684.397 433.363L394.349 32.8558C390.754 27.8912 390.047 21.1851 392.477 15.0912Z" stroke="url(#paint0_linear_901_27239)" stroke-width="3"/>
<path opacity="0.020202" d="M388.312 8.30586L590.349 -477.719C594.112 -486.769 603.83 -491.897 612.81 -489.57L1015.66 -385.151C1022.64 -383.343 1027.6 -377.398 1028.28 -370.033L1079.54 186.71C1080.22 194.075 1076.48 201.444 1070.05 205.448L698.103 436.722C689.812 441.877 679.452 440.037 674.16 432.468L389.947 26.0565C386.426 21.0227 385.81 14.3256 388.312 8.30586Z" stroke="url(#paint1_linear_901_27239)" stroke-width="3"/>
<path opacity="0.030303" d="M384.264 1.53386L592.229 -478.786C596.114 -487.758 605.929 -492.666 614.9 -490.124L1015.48 -376.584C1022.44 -374.614 1027.32 -368.564 1027.9 -361.197L1071.79 195.635C1072.37 203.002 1068.54 210.273 1062.04 214.128L687.917 436.244C679.539 441.218 669.173 439.138 663.974 431.439L385.662 19.272C382.216 14.1693 381.689 7.48025 384.264 1.53386Z" stroke="url(#paint2_linear_901_27239)" stroke-width="3"/>
<path opacity="0.040404" d="M380.329 -5.22418L594.135 -479.712C598.139 -488.599 608.045 -493.285 617 -490.528L1015.21 -367.94C1022.13 -365.807 1026.93 -359.653 1027.42 -352.283L1063.94 204.455C1064.43 211.825 1060.5 218.997 1053.96 222.701L677.765 435.633C669.306 440.422 658.941 438.1 653.839 430.275L381.492 12.5033C378.12 7.33176 377.682 0.649411 380.329 -5.22418Z" stroke="url(#paint3_linear_901_27239)" stroke-width="3"/>
<path opacity="0.050505" d="M376.509 -11.9644L596.066 -480.494C600.19 -489.294 610.177 -493.753 619.11 -490.783L1014.83 -359.218C1021.73 -356.924 1026.45 -350.665 1026.84 -343.294L1056.02 213.171C1056.4 220.542 1052.39 227.615 1045.79 231.167L667.653 434.891C659.116 439.49 648.761 436.927 643.759 428.978L377.438 5.7542C374.14 0.51377 373.79 -6.16297 376.509 -11.9644Z" stroke="url(#paint4_linear_901_27239)" stroke-width="3"/>
<path opacity="0.0606061" d="M372.802 -18.6889L598.02 -481.137C602.261 -489.845 612.322 -494.074 621.227 -490.892L1014.36 -350.426C1021.23 -347.972 1025.87 -341.61 1026.16 -334.238L1048.01 221.776C1048.3 229.148 1044.19 236.121 1037.55 239.52L657.578 434.013C648.971 438.419 638.633 435.615 633.733 427.546L373.498 -0.977302C370.274 -6.28674 370.012 -12.9591 372.802 -18.6889Z" stroke="url(#paint5_linear_901_27239)" stroke-width="3"/>
<path opacity="0.0707071" d="M369.211 -25.3866L599.997 -481.634C604.352 -490.245 614.48 -494.241 623.351 -490.849L1013.79 -341.559C1020.63 -338.945 1025.18 -332.48 1025.37 -325.107L1039.92 230.276C1040.11 237.649 1035.91 244.521 1029.22 247.766L647.545 433.009C638.873 437.218 628.561 434.173 623.766 425.989L369.675 -7.67998C366.523 -13.0586 366.349 -19.7279 369.211 -25.3866Z" stroke="url(#paint6_linear_901_27239)" stroke-width="3"/>
<path opacity="0.0808081" d="M365.732 -32.0581L601.993 -481.985C606.462 -490.496 616.647 -494.257 625.478 -490.657L1013.12 -332.623C1019.93 -329.849 1024.39 -323.282 1024.49 -315.908L1031.75 238.666C1031.84 246.04 1027.55 252.811 1020.83 255.9L637.554 431.877C628.823 435.886 618.545 432.601 613.856 424.304L365.964 -14.3545C362.885 -19.8026 362.798 -26.47 365.732 -32.0581Z" stroke="url(#paint7_linear_901_27239)" stroke-width="3"/>
<path opacity="0.0909091" d="M362.368 -38.7051L604.007 -482.197C608.587 -490.603 618.824 -494.126 627.607 -490.321L1012.35 -323.623C1019.12 -320.692 1023.5 -314.022 1023.5 -306.648V246.94C1023.5 254.314 1019.12 260.984 1012.35 263.915L627.607 430.613C618.824 434.419 608.587 430.895 604.007 422.489L362.368 -21.0025C359.361 -26.5204 359.361 -33.1872 362.368 -38.7051Z" stroke="url(#paint8_linear_901_27239)" stroke-width="3"/>
<path opacity="0.10101" d="M359.115 -45.3206L606.037 -482.264C610.726 -490.561 621.005 -493.846 629.735 -489.837L1011.48 -314.559C1018.21 -311.47 1022.5 -304.699 1022.41 -297.325L1015.17 255.101C1015.08 262.475 1010.61 269.043 1003.81 271.816L617.705 429.223C608.874 432.823 598.688 429.062 594.219 420.551L358.883 -27.617C355.949 -33.2051 356.036 -39.8725 359.115 -45.3206Z" stroke="url(#paint9_linear_901_27239)" stroke-width="3"/>
<path opacity="0.111111" d="M355.973 -51.8988L608.08 -482.183C612.876 -490.368 623.188 -493.412 631.86 -489.203L1010.51 -305.429C1017.2 -302.185 1021.4 -295.312 1021.21 -287.939L1006.77 263.151C1006.58 270.524 1002.03 276.989 995.192 279.604L607.848 427.709C598.977 431.101 588.849 427.105 584.493 418.494L355.509 -34.1922C352.646 -39.8509 352.821 -46.5202 355.973 -51.8988Z" stroke="url(#paint10_linear_901_27239)" stroke-width="3"/>
<path opacity="0.121212" d="M352.943 -58.4453L610.137 -481.962C615.037 -490.031 625.375 -492.834 633.982 -488.428L1009.44 -296.244C1016.08 -292.846 1020.19 -285.872 1019.9 -278.5L998.301 271.079C998.012 278.451 993.376 284.813 986.506 287.268L598.04 426.066C589.135 429.248 579.073 425.019 574.833 416.312L352.246 -40.7337C349.456 -46.4634 349.718 -53.1358 352.943 -58.4453Z" stroke="url(#paint11_linear_901_27239)" stroke-width="3"/>
<path opacity="0.131313" d="M350.025 -64.9494L612.205 -481.593C617.207 -489.542 627.562 -492.104 636.098 -487.505L1008.27 -287C1014.86 -283.448 1018.88 -276.375 1018.49 -269.004L989.759 278.892C989.373 286.263 984.655 292.522 977.755 294.816L588.283 424.303C579.35 427.273 569.363 422.813 565.239 414.014L349.095 -47.2308C346.377 -53.0322 346.727 -59.709 350.025 -64.9494Z" stroke="url(#paint12_linear_901_27239)" stroke-width="3"/>
<path opacity="0.141414" d="M347.216 -71.4131L614.28 -481.081C619.382 -488.906 629.747 -491.227 638.207 -486.439L1006.99 -277.702C1013.53 -273.998 1017.46 -266.826 1016.97 -259.457L981.147 286.585C980.664 293.954 975.864 300.109 968.936 302.241L578.576 422.414C569.621 425.171 559.716 420.485 555.711 411.598L346.053 -53.6856C343.406 -59.5592 343.844 -66.2415 347.216 -71.4131Z" stroke="url(#paint13_linear_901_27239)" stroke-width="3"/>
<path opacity="0.151515" d="M344.516 -77.8329L616.363 -480.424C621.561 -488.123 631.927 -490.203 640.305 -485.229L1005.6 -268.354C1012.1 -264.499 1015.93 -257.228 1015.35 -249.861L972.467 294.156C971.887 301.523 967.006 307.573 960.054 309.544L568.922 420.404C559.952 422.946 550.137 418.038 546.252 409.066L343.118 -60.0948C340.543 -66.0411 341.071 -72.7302 344.516 -77.8329Z" stroke="url(#paint14_linear_901_27239)" stroke-width="3"/>
<path opacity="0.161616" d="M341.925 -84.2042L618.449 -479.622C623.742 -487.19 634.102 -489.03 642.393 -483.875L1004.12 -258.954C1010.56 -254.95 1014.29 -247.581 1013.61 -240.217L963.722 301.606C963.044 308.971 958.084 314.916 951.11 316.724L559.323 418.274C550.343 420.601 540.625 415.473 536.863 406.423L340.291 -66.4536C337.788 -72.4734 338.405 -79.1704 341.925 -84.2042Z" stroke="url(#paint15_linear_901_27239)" stroke-width="3"/>
<path opacity="0.171717" d="M339.44 -90.5289L620.538 -478.677C625.922 -486.112 636.268 -487.714 644.466 -482.382L1002.53 -249.511C1008.91 -245.359 1012.54 -237.894 1011.77 -230.532L954.911 308.93C954.136 316.291 949.097 322.132 942.103 323.776L549.778 416.021C540.795 418.133 531.181 412.791 527.542 403.665L337.568 -72.7642C335.138 -78.8581 335.845 -85.5642 339.44 -90.5289Z" stroke="url(#paint16_linear_901_27239)" stroke-width="3"/>
<path opacity="0.181818" d="M337.066 -96.7974L622.63 -477.584C628.103 -484.882 638.427 -486.247 646.528 -480.743L1000.83 -240.019C1007.16 -235.722 1010.69 -228.16 1009.82 -220.802L946.042 316.132C945.168 323.491 940.052 329.225 933.041 330.706L540.293 413.654C531.314 415.55 521.811 409.998 518.297 400.802L334.954 -79.0171C332.597 -85.1857 333.395 -91.902 337.066 -96.7974Z" stroke="url(#paint17_linear_901_27239)" stroke-width="3"/>
<path opacity="0.191919" d="M334.796 -103.016L624.72 -476.351C630.279 -483.51 640.574 -484.64 648.572 -478.969L999.029 -230.491C1005.29 -226.05 1008.73 -218.392 1007.76 -211.038L937.112 323.205C936.139 330.559 930.947 336.188 923.921 337.505L530.867 411.165C521.897 412.846 512.512 407.089 509.125 397.827L332.443 -85.2187C330.159 -91.4627 331.049 -98.1901 334.796 -103.016Z" stroke="url(#paint18_linear_901_27239)" stroke-width="3"/>
<path opacity="0.20202" d="M332.634 -109.179L626.808 -474.975C632.451 -481.991 642.71 -482.889 650.6 -477.056L997.123 -220.925C1003.32 -216.341 1006.66 -208.59 1005.59 -201.24L928.124 330.149C927.053 337.498 921.785 343.021 914.747 344.173L521.503 408.558C512.548 410.024 503.288 404.068 500.028 394.744L330.037 -91.363C327.826 -97.6831 328.809 -104.423 332.634 -109.179Z" stroke="url(#paint19_linear_901_27239)" stroke-width="3"/>
<path opacity="0.212121" d="M330.573 -115.275L628.89 -473.449C634.613 -480.32 644.828 -480.987 652.608 -474.998L995.108 -211.316C1001.25 -206.592 1004.47 -198.747 1003.3 -191.402L919.078 336.971C917.908 344.315 912.566 349.732 905.518 350.719L512.199 405.844C503.265 407.096 494.136 400.946 491.004 391.565L327.73 -97.4399C325.594 -103.837 326.671 -110.589 330.573 -115.275Z" stroke="url(#paint20_linear_901_27239)" stroke-width="3"/>
<path opacity="0.222222" d="M328.618 -121.313L630.967 -471.782C636.767 -478.505 646.932 -478.945 654.596 -472.805L992.989 -201.677C999.059 -196.814 1002.18 -188.877 1000.91 -181.538L909.98 343.66C908.709 350.999 903.294 356.308 896.239 357.131L502.961 403.012C494.055 404.051 485.062 397.713 482.06 388.28L325.526 -103.457C323.465 -109.932 324.637 -116.698 328.618 -121.313Z" stroke="url(#paint21_linear_901_27239)" stroke-width="3"/>
<path opacity="0.232323" d="M326.765 -127.286L633.035 -469.972C638.909 -476.545 649.019 -476.761 656.563 -470.475L990.763 -192.008C996.764 -187.008 999.778 -178.979 998.407 -171.647L900.829 350.219C899.458 357.551 893.971 362.753 886.911 363.411L493.79 400.067C484.916 400.895 476.066 394.375 473.193 384.894L323.423 -109.41C321.438 -115.963 322.706 -122.744 326.765 -127.286Z" stroke="url(#paint22_linear_901_27239)" stroke-width="3"/>
<path opacity="0.242424" d="M325.013 -133.194L635.092 -468.02C641.037 -474.44 651.084 -474.436 658.505 -468.01L988.429 -182.31C994.359 -177.175 997.264 -169.057 995.792 -161.732L891.627 356.646C890.155 363.971 884.596 369.065 877.534 369.558L484.684 397.012C475.848 397.629 467.146 390.934 464.404 381.41L321.417 -115.296C319.508 -121.927 320.874 -128.724 325.013 -133.194Z" stroke="url(#paint23_linear_901_27239)" stroke-width="3"/>
<path opacity="0.252525" d="M323.363 -139.029L637.137 -465.921C643.152 -472.187 653.13 -471.966 660.424 -465.406L985.989 -172.584C991.846 -167.316 994.64 -159.109 993.066 -151.793L882.378 362.944C880.804 370.261 875.174 375.246 868.113 375.575L475.65 393.85C466.857 394.26 458.308 387.396 455.697 377.832L319.51 -121.109C317.678 -127.819 319.143 -134.632 323.363 -139.029Z" stroke="url(#paint24_linear_901_27239)" stroke-width="3"/>
<path opacity="0.262626" d="M321.811 -144.796L639.167 -463.686C645.247 -469.795 655.151 -469.361 662.314 -462.673L983.44 -162.839C989.222 -157.44 991.903 -149.147 990.227 -141.839L873.08 369.104C871.404 376.412 865.704 381.289 858.646 381.453L466.684 390.576C457.94 390.78 449.547 383.754 447.069 374.156L317.697 -126.854C315.944 -133.645 317.51 -140.474 321.811 -144.796Z" stroke="url(#paint25_linear_901_27239)" stroke-width="3"/>
<path opacity="0.272727" d="M320.358 -150.486L641.182 -461.304C647.324 -467.254 657.149 -466.612 664.179 -459.801L980.785 -153.07C986.49 -147.542 989.056 -139.163 987.278 -131.865L863.738 375.135C861.96 382.433 856.191 387.201 849.138 387.201L457.792 387.201C449.102 387.201 440.871 380.02 438.525 370.392L315.981 -132.522C314.307 -139.393 315.975 -146.24 320.358 -150.486Z" stroke="url(#paint26_linear_901_27239)" stroke-width="3"/>
<path opacity="0.282828" d="M319.003 -156.097L643.179 -458.779C649.381 -464.569 659.12 -463.723 666.015 -456.795L978.022 -143.281C983.649 -137.626 986.098 -129.163 984.217 -121.876L854.355 381.033C852.473 388.32 846.635 392.978 839.591 392.814L448.975 383.723C440.343 383.522 432.277 376.192 430.064 366.539L314.359 -138.112C312.765 -145.064 314.538 -151.928 319.003 -156.097Z" stroke="url(#paint27_linear_901_27239)" stroke-width="3"/>
<path opacity="0.292929" d="M317.744 -161.631L645.155 -456.114C651.413 -461.743 661.063 -460.697 667.82 -453.658L975.151 -133.477C980.698 -127.699 983.029 -119.153 981.043 -111.878L844.929 386.795C842.943 394.07 837.038 398.618 830.004 398.291L440.232 380.141C431.663 379.742 423.767 372.271 421.686 362.596L312.829 -143.625C311.316 -150.658 313.195 -157.54 317.744 -161.631Z" stroke="url(#paint28_linear_901_27239)" stroke-width="3"/>
<path opacity="0.30303" d="M316.58 -167.084L647.111 -453.31C653.422 -458.775 662.978 -457.533 669.594 -450.39L972.174 -123.661C977.638 -117.76 979.849 -109.134 977.759 -101.872L835.466 392.421C833.375 399.683 827.404 404.121 820.382 403.63L431.568 376.458C423.067 375.864 415.342 368.26 413.395 358.567L311.391 -149.058C309.961 -156.173 311.947 -163.073 316.58 -167.084Z" stroke="url(#paint29_linear_901_27239)" stroke-width="3"/>
<path opacity="0.313131" d="M315.508 -172.456L649.041 -450.368C655.402 -455.668 664.86 -454.236 671.333 -446.993L969.087 -113.836C974.467 -107.816 976.556 -99.1111 974.36 -91.8634L825.963 397.909C823.767 405.156 817.73 409.483 810.723 408.83L422.98 372.675C414.551 371.889 407.001 364.157 405.187 354.453L310.04 -154.41C308.694 -161.607 310.79 -168.525 315.508 -172.456Z" stroke="url(#paint30_linear_901_27239)" stroke-width="3"/>
<path opacity="0.323232" d="M314.53 -177.741L650.947 -447.285C657.355 -452.419 666.711 -450.802 673.04 -443.466L965.894 -104.003C971.189 -97.8655 973.154 -89.0835 970.852 -81.8512L816.428 403.261C814.126 410.493 808.023 414.708 801.034 413.893L414.475 368.796C406.121 367.822 398.749 359.97 397.068 350.257L308.78 -159.677C307.52 -166.957 309.727 -173.893 314.53 -177.741Z" stroke="url(#paint31_linear_901_27239)" stroke-width="3"/>
<path opacity="0.333333" d="M313.644 -182.935L652.826 -444.062C659.278 -449.029 668.529 -447.231 674.711 -439.808L962.595 -94.1618C967.802 -87.9095 969.642 -79.0525 967.233 -71.8372L806.86 408.479C804.451 415.694 798.283 419.797 791.314 418.82L406.052 364.825C397.778 363.666 390.586 355.702 389.037 345.984L307.607 -164.856C306.434 -172.218 308.756 -179.172 313.644 -182.935Z" stroke="url(#paint32_linear_901_27239)" stroke-width="3"/>
<path opacity="0.343434" d="M312.845 -188.044L654.674 -440.706C661.167 -445.505 670.309 -443.531 676.344 -436.026L959.186 -84.3225C964.304 -77.9576 966.017 -69.0278 963.501 -61.8308L797.259 413.555C794.742 420.752 788.511 424.742 781.564 423.605L397.71 360.757C389.519 359.416 382.509 351.347 381.092 341.629L306.518 -169.952C305.433 -177.396 307.871 -184.368 312.845 -188.044Z" stroke="url(#paint33_linear_901_27239)" stroke-width="3"/>
<path opacity="0.353535" d="M312.136 -193.057L656.492 -437.209C663.023 -441.839 672.053 -439.694 677.939 -432.114L955.67 -74.4787C960.699 -68.0037 962.283 -59.0032 959.658 -51.826L787.629 418.498C785.004 425.675 778.71 429.552 771.788 428.254L389.454 356.603C381.35 355.084 374.523 346.916 373.238 337.203L305.514 -174.952C304.519 -182.48 307.075 -189.468 312.136 -193.057Z" stroke="url(#paint34_linear_901_27239)" stroke-width="3"/>
<path opacity="0.363636" d="M311.514 -197.975L658.276 -433.575C664.842 -438.036 673.758 -435.725 679.495 -428.075L952.048 -64.6373C956.984 -58.0547 958.438 -48.9858 955.704 -41.8299L777.972 423.303C775.238 430.458 768.881 434.221 761.986 432.765L381.283 352.361C373.27 350.668 366.627 342.409 365.474 332.704L304.593 -179.862C303.689 -187.472 306.366 -194.477 311.514 -197.975Z" stroke="url(#paint35_linear_901_27239)" stroke-width="3"/>
<path opacity="0.373737" d="M310.977 -202.799L660.026 -429.809C666.623 -434.1 675.421 -431.628 681.008 -423.913L948.318 -54.8031C953.161 -48.1154 954.483 -38.9803 951.639 -31.8474L768.29 427.967C765.445 435.1 759.027 438.747 752.161 437.133L373.199 348.03C365.279 346.168 358.822 337.824 357.8 328.131L303.752 -184.68C302.941 -192.373 305.741 -199.393 310.977 -202.799Z" stroke="url(#paint36_linear_901_27239)" stroke-width="3"/>
<path opacity="0.383838" d="M310.525 -207.524L661.74 -425.909C668.366 -430.03 677.045 -427.401 682.482 -419.627L944.484 -44.9761C949.232 -38.1857 950.42 -28.9871 947.465 -21.8789L758.585 432.493C755.63 439.601 749.151 443.133 742.316 441.362L365.206 343.616C357.382 341.588 351.111 333.166 350.22 323.489L302.993 -189.403C302.277 -197.178 305.201 -204.213 310.525 -207.524Z" stroke="url(#paint37_linear_901_27239)" stroke-width="3"/>
<path opacity="0.393939" d="M310.152 -212.149L663.411 -421.877C670.064 -425.826 678.622 -423.047 683.907 -415.219L940.539 -35.1597C945.191 -28.2693 946.243 -19.0095 943.177 -11.9278L748.855 436.88C745.789 443.962 739.249 447.377 732.448 445.45L357.299 339.119C349.572 336.929 343.488 328.437 342.727 318.78L302.307 -194.03C301.688 -201.887 304.74 -208.936 310.152 -212.149Z" stroke="url(#paint38_linear_901_27239)" stroke-width="3"/>
<path opacity="0.40404" d="M309.864 -216.67L665.047 -417.71C671.722 -421.488 680.157 -418.562 685.291 -410.686L936.492 -25.3535C941.047 -18.3655 941.961 -9.04719 938.783 -1.99397L739.109 441.131C735.931 448.184 729.332 451.483 722.566 449.4L349.486 334.546C341.861 332.199 335.963 323.642 335.331 314.008L301.702 -198.556C301.181 -206.494 304.363 -213.557 309.864 -216.67Z" stroke="url(#paint39_linear_901_27239)" stroke-width="3"/>
<path opacity="0.414141" d="M309.655 -221.091L666.64 -413.417C673.336 -417.025 681.646 -413.957 686.629 -406.038L932.339 -15.5675C936.796 -8.48452 937.571 0.889625 934.28 7.91245L729.345 445.238C726.054 452.261 719.396 455.441 712.668 453.204L341.766 329.891C334.244 327.39 328.533 318.776 328.029 309.169L301.171 -202.987C300.751 -211.006 304.066 -218.08 309.655 -221.091Z" stroke="url(#paint40_linear_901_27239)" stroke-width="3"/>
<path opacity="0.424242" d="M309.524 -225.4L668.188 -408.988C674.902 -412.424 683.086 -409.22 687.918 -401.262L928.08 -5.79193C932.438 1.38335 933.072 10.8104 929.668 17.8009L719.565 449.213C716.161 456.203 709.444 459.265 702.756 456.875L334.138 325.169C326.721 322.519 321.197 313.853 320.82 304.277L300.714 -207.31C300.395 -215.409 303.846 -222.494 309.524 -225.4Z" stroke="url(#paint41_linear_901_27239)" stroke-width="3"/>
<path opacity="0.434343" d="M309.469 -229.604L669.693 -404.434C676.421 -407.7 684.477 -404.363 689.159 -396.372L923.718 3.95981C927.975 11.2249 928.467 20.702 924.948 27.6579L709.772 453.046C706.253 460.002 699.479 462.944 692.833 460.402L326.606 320.371C319.296 317.576 313.957 308.865 313.707 299.323L300.329 -211.535C300.115 -219.713 303.702 -226.805 309.469 -229.604Z" stroke="url(#paint42_linear_901_27239)" stroke-width="3"/>
<path opacity="0.444444" d="M309.489 -233.696L671.149 -399.751C677.889 -402.846 685.817 -399.381 690.349 -391.362L919.25 13.6914C923.405 21.0436 923.753 30.5678 920.12 37.487L699.966 456.742C696.333 463.661 689.502 466.483 682.9 463.791L319.168 315.506C311.967 312.57 306.813 303.82 306.689 294.316L300.013 -215.652C299.905 -223.909 303.633 -231.008 309.489 -233.696Z" stroke="url(#paint43_linear_901_27239)" stroke-width="3"/>
<path opacity="0.454545" d="M309.581 -237.682L672.556 -394.947C679.305 -397.871 687.105 -394.283 691.488 -386.24L914.679 23.393C918.731 30.8297 918.934 40.398 915.185 47.2781L690.15 460.295C686.401 467.175 679.514 469.875 672.958 467.035L311.827 310.569C304.736 307.496 299.767 298.713 299.767 289.25L299.767 -219.669C299.767 -228.003 303.637 -235.107 309.581 -237.682Z" stroke="url(#paint44_linear_901_27239)" stroke-width="3"/>
<path opacity="0.464646" d="M309.742 -241.549L673.91 -390.012C680.665 -392.766 688.337 -389.06 692.571 -380.997L910.002 33.0732C913.95 40.5918 914.006 50.2009 910.141 57.0396L680.323 463.716C676.458 470.555 669.516 473.132 663.008 470.143L304.581 305.573C297.601 302.369 292.815 293.557 292.938 284.139L299.584 -223.574C299.694 -231.983 303.71 -239.09 309.742 -241.549Z" stroke="url(#paint45_linear_901_27239)" stroke-width="3"/>
<path opacity="0.474747" d="M309.977 -245.306L675.216 -384.96C681.975 -387.544 689.517 -383.724 693.604 -375.645L905.226 42.7181C909.07 50.316 908.977 59.9628 904.996 66.7575L670.494 466.993C666.513 473.788 659.515 476.241 653.057 473.107L297.437 300.511C290.569 297.178 285.965 288.344 286.21 278.974L299.471 -227.375C299.693 -235.86 303.857 -242.966 309.977 -245.306Z" stroke="url(#paint46_linear_901_27239)" stroke-width="3"/>
<path opacity="0.484848" d="M310.276 -248.947L676.465 -379.785C683.226 -382.201 690.638 -378.27 694.578 -370.18L900.346 52.3313C904.083 60.0059 903.841 69.6869 899.743 76.4352L660.657 470.133C656.559 476.882 649.508 479.21 643.101 475.931L290.389 295.39C283.635 291.933 279.211 283.082 279.577 273.762L299.418 -231.067C299.755 -239.625 304.069 -246.729 310.276 -248.947Z" stroke="url(#paint47_linear_901_27239)" stroke-width="3"/>
<path opacity="0.494949" d="M310.643 -252.467L677.661 -374.489C684.42 -376.736 691.702 -372.699 695.497 -364.602L895.365 61.9121C898.996 69.6607 898.603 79.3725 894.387 86.0718L650.819 473.138C646.603 479.838 639.499 482.04 633.146 478.617L283.443 290.214C276.803 286.637 272.558 277.775 273.043 268.509L299.429 -234.647C299.882 -243.276 304.349 -250.374 310.643 -252.467Z" stroke="url(#paint48_linear_901_27239)" stroke-width="3"/>
<path opacity="0.50505" d="M311.074 -255.87L678.799 -369.075C685.554 -371.154 692.707 -367.015 696.357 -358.915L890.283 71.4542C893.807 79.2743 893.262 89.0134 888.928 95.661L640.98 476.004C636.647 482.652 629.49 484.727 623.192 481.163L276.597 284.983C270.073 281.291 266.004 272.422 266.608 263.212L299.5 -238.116C300.071 -246.815 304.693 -253.905 311.074 -255.87Z" stroke="url(#paint49_linear_901_27239)" stroke-width="3"/>
<path opacity="0.515152" d="M311.566 -259.15L679.878 -363.542C686.627 -365.455 693.65 -361.218 697.157 -353.117L885.101 80.9589C888.516 88.8478 887.818 98.6106 883.366 105.204L631.141 478.736C626.69 485.329 619.481 487.276 613.241 483.571L269.851 279.703C263.443 275.898 259.549 267.027 260.27 257.877L299.629 -241.471C300.32 -250.238 305.1 -257.317 311.566 -259.15Z" stroke="url(#paint50_linear_901_27239)" stroke-width="3"/>
<path opacity="0.525253" d="M312.119 -262.308L680.897 -357.894C687.637 -359.641 694.531 -355.31 697.897 -347.213L879.819 90.421C883.126 98.376 882.273 108.159 877.702 114.694L621.306 481.33C616.735 487.866 609.476 489.683 603.294 485.839L263.208 274.373C256.916 270.461 253.195 261.592 254.031 252.504L299.815 -244.714C300.628 -253.546 305.569 -260.61 312.119 -262.308Z" stroke="url(#paint51_linear_901_27239)" stroke-width="3"/>
<path opacity="0.535354" d="M312.731 -265.343L681.854 -352.133C688.584 -353.715 695.35 -349.293 698.575 -341.203L874.439 99.839C877.636 107.858 876.628 117.657 871.938 124.132L611.475 483.788C606.785 490.264 599.476 491.95 593.355 487.969L256.668 268.998C250.492 264.981 246.941 256.119 247.892 247.096L300.057 -247.842C300.994 -256.737 306.097 -263.784 312.731 -265.343Z" stroke="url(#paint52_linear_901_27239)" stroke-width="3"/>
<path opacity="0.545455" d="M313.401 -268.258L682.749 -346.264C689.466 -347.682 696.103 -343.172 699.191 -335.093L868.962 109.207C872.049 117.286 870.884 127.098 866.075 133.51L601.651 486.108C596.842 492.52 589.484 494.074 583.425 489.957L250.231 263.575C244.172 259.458 240.79 250.607 241.853 241.651L300.352 -250.859C301.416 -259.815 306.684 -266.839 313.401 -268.258Z" stroke="url(#paint53_linear_901_27239)" stroke-width="3"/>
<path opacity="0.555556" d="M314.123 -271.041L683.578 -340.279C690.279 -341.535 696.789 -336.941 699.74 -328.875L863.385 118.531C866.362 126.669 865.039 136.489 860.111 142.834L591.833 488.297C586.905 494.643 579.499 496.063 573.504 491.812L243.896 258.117C237.953 253.904 234.738 245.067 235.913 236.181L300.698 -253.755C301.89 -262.769 307.325 -269.767 314.123 -271.041Z" stroke="url(#paint54_linear_901_27239)" stroke-width="3"/>
<path opacity="0.565657" d="M314.899 -273.699L684.342 -334.187C691.026 -335.281 697.409 -330.606 700.224 -322.556L857.714 127.803C860.58 135.997 859.098 145.821 854.051 152.097L582.026 490.352C576.979 496.628 569.526 497.913 563.596 493.53L237.666 252.62C231.84 248.314 228.788 239.496 230.073 230.682L301.096 -256.534C302.418 -265.604 308.022 -272.572 314.899 -273.699Z" stroke="url(#paint55_linear_901_27239)" stroke-width="3"/>
<path opacity="0.575758" d="M315.726 -276.231L685.039 -327.991C691.703 -328.924 697.961 -324.172 700.642 -316.141L851.948 137.019C854.702 145.266 853.061 155.091 847.895 161.294L572.23 492.27C567.064 498.473 559.565 499.622 553.702 495.108L231.54 247.085C225.831 242.69 222.941 233.894 224.334 225.154L301.541 -259.2C302.995 -268.322 308.77 -275.256 315.726 -276.231Z" stroke="url(#paint56_linear_901_27239)" stroke-width="3"/>
<path opacity="0.585859" d="M316.602 -278.63L685.667 -321.686C692.309 -322.461 698.442 -317.634 700.992 -309.625L846.088 146.183C848.729 154.481 846.929 164.302 841.643 170.429L562.448 494.059C557.163 500.186 549.619 501.196 543.824 496.554L225.52 241.521C219.926 237.04 217.195 228.27 218.695 219.606L302.034 -261.743C303.622 -270.915 309.57 -277.81 316.602 -278.63Z" stroke="url(#paint57_linear_901_27239)" stroke-width="3"/>
<path opacity="0.59596" d="M317.525 -280.9L686.225 -315.28C692.843 -315.897 698.852 -310.998 701.272 -303.012L840.134 155.289C842.662 163.634 840.701 173.448 835.297 179.495L552.681 495.715C547.276 501.762 539.688 502.633 533.964 497.863L219.604 235.927C214.126 231.363 211.551 222.622 213.157 214.037L302.571 -264.169C304.295 -273.387 310.417 -280.238 317.525 -280.9Z" stroke="url(#paint58_linear_901_27239)" stroke-width="3"/>
<path opacity="0.606061" d="M318.492 -283.039L686.711 -308.771C693.305 -309.232 699.19 -304.264 701.482 -296.305L834.087 164.336C836.503 172.727 834.381 182.528 828.857 188.492L542.93 497.24C537.406 503.204 529.776 503.934 524.123 499.039L213.793 230.307C208.431 225.663 206.01 216.954 207.719 208.45L303.152 -266.474C305.013 -275.736 311.312 -282.537 318.492 -283.039Z" stroke="url(#paint59_linear_901_27239)" stroke-width="3"/>
<path opacity="0.616162" d="M319.501 -285.049L687.124 -302.167C693.69 -302.473 699.454 -297.439 701.619 -289.507L827.948 173.318C830.25 181.751 827.967 191.536 822.325 197.414L533.196 498.631C527.554 504.509 519.882 505.096 514.302 500.077L208.086 224.659C202.839 219.939 200.57 211.264 202.381 202.843L303.773 -268.664C305.773 -277.964 312.25 -284.711 319.501 -285.049Z" stroke="url(#paint60_linear_901_27239)" stroke-width="3"/>
<path opacity="0.626263" d="M320.55 -286.924L687.463 -295.464C693.999 -295.616 699.642 -290.518 701.683 -282.617L821.718 182.238C823.906 190.712 821.461 200.475 815.702 206.263L523.481 499.895C517.721 505.683 510.009 506.126 504.503 500.985L202.485 218.992C197.352 214.199 195.232 205.561 197.144 197.224L304.435 -270.73C306.575 -280.066 313.23 -286.753 320.55 -286.924Z" stroke="url(#paint61_linear_901_27239)" stroke-width="3"/>
<path opacity="0.636364" d="M321.64 -288.665L687.728 -288.665C694.234 -288.665 699.757 -283.506 701.674 -275.637L815.401 191.092C817.475 199.604 814.868 209.342 808.991 215.035L513.789 501.03C507.912 506.724 500.161 507.021 494.731 501.76L196.991 213.306C191.971 208.443 189.998 199.844 192.009 191.593L305.136 -272.676C307.418 -282.043 314.254 -288.665 321.64 -288.665Z" stroke="url(#paint62_linear_901_27239)" stroke-width="3"/>
<path opacity="0.646465" d="M322.766 -290.271L687.917 -281.772C694.39 -281.621 699.795 -276.402 701.591 -268.567L808.995 199.879C810.955 208.427 808.186 218.135 802.192 223.731L504.12 502.04C498.126 507.636 490.338 507.785 484.985 502.406L191.603 207.606C186.696 202.676 184.866 194.118 186.974 185.956L305.874 -274.499C308.3 -283.894 315.316 -290.444 322.766 -290.271Z" stroke="url(#paint63_linear_901_27239)" stroke-width="3"/>
<path opacity="0.656566" d="M323.925 -291.744L688.026 -274.79C694.466 -274.49 699.753 -269.214 701.43 -261.414L802.501 208.595C804.346 217.175 801.415 226.849 795.305 232.344L494.474 502.919C488.365 508.414 480.541 508.414 475.266 502.919L186.318 201.891C181.524 196.896 179.836 188.382 182.039 180.309L306.645 -276.203C309.216 -285.621 316.413 -292.094 323.925 -291.744Z" stroke="url(#paint64_linear_901_27239)" stroke-width="3"/>
<path opacity="0.666667" d="M325.117 -293.085L688.059 -267.721C694.463 -267.274 699.634 -261.942 701.194 -254.18L795.922 217.236C797.652 225.847 794.559 235.481 788.335 240.871L484.855 503.671C478.631 509.061 470.773 508.91 465.577 503.3L181.141 196.163C176.458 191.105 174.908 182.637 177.206 174.655L307.452 -277.787C310.168 -287.224 317.547 -293.614 325.117 -293.085Z" stroke="url(#paint65_linear_901_27239)" stroke-width="3"/>
<path opacity="0.676768" d="M326.339 -294.284L688.011 -260.56C694.378 -259.966 699.434 -254.581 700.878 -246.857L789.257 225.81C790.872 234.448 787.618 244.038 781.279 249.32L475.263 504.303C468.925 509.585 461.034 509.281 455.919 503.558L176.069 190.433C171.495 185.316 170.082 176.895 172.473 169.005L308.289 -279.244C311.152 -288.695 318.713 -294.995 326.339 -294.284Z" stroke="url(#paint66_linear_901_27239)" stroke-width="3"/>
<path opacity="0.686869" d="M327.589 -295.351L687.883 -253.318C694.211 -252.58 699.153 -247.143 700.484 -239.458L782.509 234.303C784.009 242.967 780.594 252.508 774.142 257.677L465.7 504.808C459.249 509.977 451.327 509.518 446.295 503.685L171.102 184.693C166.638 179.519 165.359 171.147 167.841 163.351L309.157 -280.583C312.168 -290.043 319.911 -296.246 327.589 -295.351Z" stroke="url(#paint67_linear_901_27239)" stroke-width="3"/>
<path opacity="0.69697" d="M328.865 -296.281L687.673 -245.993C693.961 -245.112 698.792 -239.626 700.01 -231.981L775.679 242.719C777.063 251.406 773.488 260.894 766.925 265.946L456.167 505.19C449.605 510.242 441.654 509.627 436.705 503.685L166.241 178.952C161.885 173.723 160.737 165.401 163.309 157.7L310.053 -281.799C313.214 -291.264 321.138 -297.364 328.865 -296.281Z" stroke="url(#paint68_linear_901_27239)" stroke-width="3"/>
<path opacity="0.707071" d="M330.163 -297.074L687.38 -238.588C693.626 -237.565 698.346 -232.031 699.454 -224.427L768.766 251.056C770.035 259.763 766.3 269.193 759.627 274.125L446.665 505.45C439.993 510.382 432.015 509.609 427.15 503.56L161.483 173.211C157.235 167.929 156.216 159.659 158.876 152.054L310.976 -282.892C314.285 -292.357 322.39 -298.347 330.163 -297.074Z" stroke="url(#paint69_linear_901_27239)" stroke-width="3"/>
<path opacity="0.717172" d="M331.483 -297.728L687.002 -231.102C693.207 -229.939 697.816 -224.357 698.816 -216.796L761.773 259.315C762.927 268.04 759.032 277.408 752.251 282.215L437.196 505.593C430.415 510.401 422.413 509.469 417.634 503.314L156.831 167.477C152.689 162.144 151.796 153.927 154.543 146.418L311.924 -283.86C315.383 -293.319 323.668 -299.192 331.483 -297.728Z" stroke="url(#paint70_linear_901_27239)" stroke-width="3"/>
<path opacity="0.727273" d="M332.825 -298.248L686.544 -223.543C692.704 -222.242 697.205 -216.615 698.098 -209.097L754.705 267.487C755.743 276.228 751.69 285.527 744.803 290.207L427.764 505.612C420.876 510.292 412.852 509.198 408.159 502.94L152.285 161.744C148.249 156.362 147.48 148.199 150.312 140.788L312.898 -284.709C316.509 -294.157 324.971 -299.907 332.825 -298.248Z" stroke="url(#paint71_linear_901_27239)" stroke-width="3"/>
<path opacity="0.737374" d="M334.182 -298.63L685.996 -215.91C692.112 -214.472 696.505 -208.8 697.293 -201.325L747.557 275.575C748.479 284.33 744.269 293.557 737.277 298.104L418.365 505.515C411.373 510.062 403.328 508.806 398.723 502.446L147.841 156.021C143.909 150.592 143.262 142.483 146.178 135.171L313.893 -285.435C317.654 -294.866 326.292 -300.485 334.182 -298.63Z" stroke="url(#paint72_linear_901_27239)" stroke-width="3"/>
<path opacity="0.747475" d="M335.553 -298.873L685.362 -208.203C691.432 -206.63 695.72 -200.915 696.404 -193.484L740.332 283.58C741.139 292.345 736.773 301.495 729.678 305.906L409.003 505.302C401.908 509.714 393.845 508.293 389.328 501.834L143.501 150.311C139.672 144.836 139.144 136.783 142.142 129.571L314.908 -286.036C318.819 -295.446 327.633 -300.926 335.553 -298.873Z" stroke="url(#paint73_linear_901_27239)" stroke-width="3"/>
<path opacity="0.757576" d="M336.938 -298.982L684.642 -200.43C690.665 -198.723 694.848 -192.965 695.43 -185.579L733.033 291.493C733.725 300.267 729.204 309.335 722.009 313.607L399.68 504.971C392.485 509.243 384.406 507.655 379.979 501.099L139.265 144.612C135.538 139.093 135.128 131.095 138.207 123.984L315.943 -286.517C320.005 -295.9 328.99 -301.234 336.938 -298.982Z" stroke="url(#paint74_linear_901_27239)" stroke-width="3"/>
<path opacity="0.767677" d="M338.333 -298.955L683.834 -192.591C689.809 -190.752 693.888 -184.952 694.37 -177.611L725.661 299.317C726.237 308.097 721.564 317.077 714.271 321.206L390.396 504.524C383.103 508.653 375.011 506.897 370.675 500.245L135.131 138.929C131.505 133.367 131.21 125.426 134.369 118.416L316.996 -286.877C321.208 -296.227 330.363 -301.408 338.333 -298.955Z" stroke="url(#paint75_linear_901_27239)" stroke-width="3"/>
<path opacity="0.777778" d="M339.738 -298.787L682.938 -184.684C688.865 -182.714 692.841 -176.873 693.224 -169.577L718.218 307.053C718.679 315.836 713.854 324.726 706.466 328.706L381.154 503.968C373.765 507.949 365.664 506.024 361.419 499.279L131.1 133.267C127.575 127.664 127.393 119.78 130.63 112.872L318.066 -287.111C322.428 -296.422 331.749 -301.443 339.738 -298.787Z" stroke="url(#paint76_linear_901_27239)" stroke-width="3"/>
<path opacity="0.787879" d="M341.149 -298.485L681.952 -176.717C687.829 -174.617 691.705 -168.736 691.99 -161.485L710.705 314.694C711.05 323.479 706.076 332.272 698.594 336.102L371.953 503.298C364.472 507.127 356.363 505.031 352.211 498.195L127.172 127.626C123.745 121.983 123.674 114.155 126.988 107.35L319.15 -287.225C323.663 -296.491 333.146 -301.345 341.149 -298.485Z" stroke="url(#paint77_linear_901_27239)" stroke-width="3"/>
<path opacity="0.79798" d="M342.563 -298.049L680.875 -168.691C686.703 -166.463 690.478 -160.543 690.667 -153.337L703.121 322.24C703.351 331.025 698.23 339.716 690.658 343.391L362.796 502.515C355.224 506.19 347.111 503.921 343.053 496.995L123.344 122.007C120.014 116.325 120.053 108.554 123.443 101.852L320.248 -287.219C324.909 -296.433 334.551 -301.112 342.563 -298.049Z" stroke="url(#paint78_linear_901_27239)" stroke-width="3"/>
<path opacity="0.808081" d="M343.98 -297.474L679.708 -160.605C685.485 -158.25 689.161 -152.291 689.255 -145.13L695.47 329.694C695.585 338.475 690.319 347.061 682.66 350.577L353.682 501.626C346.024 505.142 337.91 502.7 333.946 495.686L119.616 116.417C116.384 110.697 116.529 102.983 119.994 96.3853L321.358 -287.087C326.167 -296.245 335.963 -300.743 343.98 -297.474Z" stroke="url(#paint79_linear_901_27239)" stroke-width="3"/>
<path opacity="0.818182" d="M345.397 -296.769L678.45 -152.468C684.175 -149.988 687.753 -143.99 687.753 -136.874L687.753 337.046C687.753 345.821 682.343 354.297 674.602 357.651L344.614 500.624C336.872 503.978 328.76 501.361 324.891 494.262L115.988 110.852C112.851 105.095 113.102 97.4383 116.641 90.9443L322.479 -286.839C327.434 -295.934 337.379 -300.243 345.397 -296.769Z" stroke="url(#paint80_linear_901_27239)" stroke-width="3"/>
<path opacity="0.828283" d="M346.812 -295.928L677.1 -144.278C682.773 -141.673 686.254 -135.637 686.162 -128.566L679.972 344.301C679.857 353.069 674.307 361.43 666.485 364.618L335.593 499.516C327.771 502.705 319.664 499.912 315.892 492.729L112.46 105.32C109.418 99.5266 109.773 91.9262 113.384 85.5369L323.609 -286.469C328.71 -295.494 338.799 -299.607 346.812 -295.928Z" stroke="url(#paint81_linear_901_27239)" stroke-width="3"/>
<path opacity="0.838384" d="M348.223 -294.953L675.657 -136.037C681.277 -133.309 684.662 -127.234 684.478 -120.208L672.126 351.458C671.897 360.215 666.209 368.456 658.311 371.477L326.619 498.303C318.72 501.323 310.621 498.353 306.947 491.088L109.03 99.822C106.082 93.9932 106.539 86.4492 110.221 80.1648L324.747 -285.976C329.991 -294.927 340.219 -298.838 348.223 -294.953Z" stroke="url(#paint82_linear_901_27239)" stroke-width="3"/>
<path opacity="0.848485" d="M349.628 -293.843L674.121 -127.746C679.688 -124.897 682.978 -118.784 682.704 -111.801L664.22 358.514C663.876 367.259 658.053 375.377 650.082 378.226L317.693 496.987C309.722 499.835 301.635 496.687 298.059 489.343L105.698 94.3619C102.842 88.498 103.4 81.0101 107.152 74.8311L325.891 -285.362C331.278 -294.231 341.637 -297.933 349.628 -293.843Z" stroke="url(#paint83_linear_901_27239)" stroke-width="3"/>
<path opacity="0.858586" d="M351.025 -292.604L672.493 -119.413C678.006 -116.443 681.202 -110.292 680.839 -103.353L656.254 365.467C655.796 374.197 649.841 382.187 641.8 384.86L308.819 495.566C300.778 498.239 292.707 494.912 289.23 487.49L102.464 88.9377C99.7001 83.0393 100.357 75.607 104.179 69.5337L327.042 -284.63C332.568 -293.412 343.054 -296.898 351.025 -292.604Z" stroke="url(#paint84_linear_901_27239)" stroke-width="3"/>
<path opacity="0.868687" d="M352.412 -291.232L670.771 -111.036C676.229 -107.946 679.332 -101.757 678.88 -94.862L648.228 372.316C647.657 381.029 641.573 388.887 633.467 391.383L299.994 494.043C291.889 496.539 283.837 493.032 280.459 485.535L99.3253 83.5553C96.6521 77.6228 97.4066 70.2458 101.297 64.2783L328.196 -283.777C333.86 -292.466 344.465 -295.73 352.412 -291.232Z" stroke="url(#paint85_linear_901_27239)" stroke-width="3"/>
<path opacity="0.878788" d="M353.787 -289.728L668.954 -102.616C674.358 -99.4082 677.369 -93.1804 676.829 -86.3288L640.146 379.063C639.461 387.757 633.251 395.479 625.085 397.794L291.222 492.422C283.055 494.737 275.027 491.05 271.75 483.48L96.2822 78.2183C93.6989 72.2519 94.5498 64.9295 98.5076 59.0683L329.353 -282.803C335.152 -291.391 345.87 -294.429 353.787 -289.728Z" stroke="url(#paint86_linear_901_27239)" stroke-width="3"/>
<path opacity="0.888889" d="M355.149 -288.099L667.043 -94.1628C672.391 -90.8374 675.311 -84.571 674.684 -77.762L632.008 385.701C631.21 394.373 624.878 401.955 616.654 404.087L282.502 490.698C274.279 492.83 266.278 488.962 263.102 481.321L93.3332 72.9226C90.839 66.9226 91.7852 59.6543 95.8097 53.8995L330.511 -281.713C336.443 -290.196 347.265 -293.001 355.149 -288.099Z" stroke="url(#paint87_linear_901_27239)" stroke-width="3"/>
<path opacity="0.89899" d="M356.494 -286.341L665.038 -85.6732C670.33 -82.2312 673.158 -75.9259 672.445 -69.1591L623.816 392.232C622.905 400.881 616.454 408.319 608.179 410.265L273.837 488.877C265.561 490.823 257.591 486.775 254.517 479.064L90.4775 67.6755C88.0717 61.642 89.1121 54.4271 93.2025 48.779L331.669 -280.504C337.731 -288.875 348.65 -291.442 356.494 -286.341Z" stroke="url(#paint88_linear_901_27239)" stroke-width="3"/>
<path opacity="0.909091" d="M357.822 -284.451L662.937 -77.1468C668.173 -73.5891 670.911 -67.2446 670.112 -60.5194L615.572 398.66C614.548 407.282 607.982 414.574 599.659 416.332L265.226 486.963C256.903 488.721 248.968 484.492 245.996 476.714L87.7143 62.4822C85.3961 56.4153 86.5297 49.2531 90.6852 43.7119L332.826 -279.171C339.015 -287.425 350.023 -289.75 357.822 -284.451Z" stroke="url(#paint89_linear_901_27239)" stroke-width="3"/>
<path opacity="0.919192" d="M359.131 -282.437L660.741 -68.5929C665.921 -64.9204 668.569 -58.5362 667.685 -51.852L607.277 404.975C606.141 413.569 599.463 420.71 591.097 422.278L256.671 484.951C248.305 486.519 240.41 482.109 237.541 474.266L85.0429 57.338C82.8116 51.2376 84.0374 44.1274 88.2574 38.6934L333.98 -277.724C340.294 -285.854 351.381 -287.932 359.131 -282.437Z" stroke="url(#paint90_linear_901_27239)" stroke-width="3"/>
<path opacity="0.929293" d="M360.418 -280.3L658.449 -60.0116C663.572 -56.225 666.13 -49.8007 665.162 -43.157L598.932 411.181C597.684 419.744 590.899 426.731 582.495 428.107L248.172 482.845C239.768 484.221 231.917 479.63 229.152 471.724L82.4613 52.2473C80.3163 46.1133 81.6335 39.0544 85.9172 33.7277L335.129 -276.159C341.564 -284.161 352.723 -285.988 360.418 -280.3Z" stroke="url(#paint91_linear_901_27239)" stroke-width="3"/>
<path opacity="0.939394" d="M361.685 -278.037L656.063 -51.4034C661.129 -47.5036 663.599 -41.0386 662.546 -34.4347L590.542 417.276C589.182 425.807 582.293 432.637 573.856 433.819L239.733 480.647C231.296 481.83 223.492 477.059 220.832 469.092L79.9712 47.2142C77.9118 41.0465 79.3198 34.038 83.6666 28.819L336.276 -274.476C342.828 -282.343 354.049 -283.915 361.685 -278.037Z" stroke="url(#paint92_linear_901_27239)" stroke-width="3"/>
<path opacity="0.949495" d="M362.924 -275.648L653.58 -42.7686C658.588 -38.7562 660.969 -32.2498 659.833 -25.6853L582.104 423.264C580.633 431.759 573.644 438.429 565.179 439.417L231.351 478.362C222.885 479.349 215.134 474.399 212.579 466.373L77.5672 42.2431C75.593 36.0414 77.091 29.0826 81.5003 23.9715L337.413 -272.672C344.079 -280.398 355.354 -281.714 362.924 -275.648Z" stroke="url(#paint93_linear_901_27239)" stroke-width="3"/>
<path opacity="0.959596" d="M364.14 -273.142L651.003 -34.1181C655.952 -29.9937 658.246 -23.4455 657.025 -16.9196L573.623 429.134C572.041 437.592 564.957 444.099 556.468 444.891L223.03 475.982C214.542 476.773 206.847 471.644 204.398 463.562L75.2524 37.3274C73.363 31.0914 74.9503 24.1814 79.4216 19.1785L338.545 -270.755C345.321 -278.337 356.639 -279.392 364.14 -273.142Z" stroke="url(#paint94_linear_901_27239)" stroke-width="3"/>
<path opacity="0.969697" d="M365.327 -270.514L648.328 -25.4471C653.22 -21.2112 655.425 -14.6205 654.121 -8.1327L565.098 434.893C563.406 443.312 556.231 449.654 547.724 450.248L214.769 473.516C206.262 474.11 198.629 468.803 196.286 460.666L73.0225 32.4765C71.2174 26.2059 72.8938 19.3439 77.4264 14.4495L339.667 -268.72C346.548 -276.151 357.901 -276.945 365.327 -270.514Z" stroke="url(#paint95_linear_901_27239)" stroke-width="3"/>
<path opacity="0.979798" d="M363.52 -267.767L642.593 -16.7615C647.426 -12.4148 649.543 -5.78075 648.156 0.669561L553.567 440.536C551.766 448.914 544.503 455.088 535.983 455.485L203.605 470.962C195.085 471.359 187.516 465.875 185.281 457.686L67.9123 27.6888C66.1912 21.3832 67.9561 14.5684 72.5497 9.78277L337.812 -266.57C344.796 -273.846 356.173 -274.376 363.52 -267.767Z" stroke="url(#paint96_linear_901_27239)" stroke-width="3"/>
<path opacity="0.989899" d="M361.684 -264.9L636.764 -8.05936C641.537 -3.60227 643.567 3.07576 642.096 9.48909L541.999 446.068C540.088 454.402 532.742 460.407 524.214 460.605L192.505 468.326C183.977 468.524 176.479 462.865 174.351 454.626L62.8881 22.9705C61.2507 16.6295 63.1039 9.86109 67.7579 5.18456L335.948 -264.301C343.029 -271.417 354.421 -271.682 361.684 -264.9Z" stroke="url(#paint97_linear_901_27239)" stroke-width="3"/>
<path d="M362.779 -261.917L633.802 0.653442C638.516 5.22046 640.458 11.9433 638.904 18.3202L533.356 451.485C531.336 459.773 523.912 465.605 515.382 465.605H184.432C175.901 465.605 168.477 459.773 166.458 451.485L60.9094 18.3202C59.3556 11.9433 61.2968 5.22046 66.0109 0.653442L337.034 -261.917C344.208 -268.868 355.605 -268.868 362.779 -261.917Z" stroke="url(#paint98_linear_901_27239)" stroke-width="3"/>
</g>
</g>
<defs>
<linearGradient id="paint0_linear_901_27239" x1="789.874" y1="244.615" x2="681.017" y2="-336.246" gradientUnits="userSpaceOnUse">
<stop stop-color="#9CCBF0"/>
<stop offset="1" stop-color="#D5F8F9"/>
</linearGradient>
<linearGradient id="paint1_linear_901_27239" x1="781.925" y1="246.596" x2="686.446" y2="-336.558" gradientUnits="userSpaceOnUse">
<stop stop-color="#9CCBF0"/>
<stop offset="1" stop-color="#D5F8F9"/>
</linearGradient>
<linearGradient id="paint2_linear_901_27239" x1="773.983" y1="248.488" x2="691.992" y2="-336.525" gradientUnits="userSpaceOnUse">
<stop stop-color="#9CCBF0"/>
<stop offset="1" stop-color="#D5F8F9"/>
</linearGradient>
<linearGradient id="paint3_linear_901_27239" x1="766.046" y1="250.29" x2="697.632" y2="-336.141" gradientUnits="userSpaceOnUse">
<stop stop-color="#9CCBF0"/>
<stop offset="1" stop-color="#D5F8F9"/>
</linearGradient>
<linearGradient id="paint4_linear_901_27239" x1="758.117" y1="252.002" x2="703.346" y2="-335.398" gradientUnits="userSpaceOnUse">
<stop stop-color="#9CCBF0"/>
<stop offset="1" stop-color="#D5F8F9"/>
</linearGradient>
<linearGradient id="paint5_linear_901_27239" x1="750.197" y1="253.62" x2="709.112" y2="-334.296" gradientUnits="userSpaceOnUse">
<stop stop-color="#9CCBF0"/>
<stop offset="1" stop-color="#D5F8F9"/>
</linearGradient>
<linearGradient id="paint6_linear_901_27239" x1="742.289" y1="255.154" x2="714.909" y2="-332.822" gradientUnits="userSpaceOnUse">
<stop stop-color="#9CCBF0"/>
<stop offset="1" stop-color="#D5F8F9"/>
</linearGradient>
<linearGradient id="paint7_linear_901_27239" x1="734.391" y1="256.599" x2="720.715" y2="-330.977" gradientUnits="userSpaceOnUse">
<stop stop-color="#9CCBF0"/>
<stop offset="1" stop-color="#D5F8F9"/>
</linearGradient>
<linearGradient id="paint8_linear_901_27239" x1="726.507" y1="257.953" x2="726.507" y2="-328.765" gradientUnits="userSpaceOnUse">
<stop stop-color="#9CCBF0"/>
<stop offset="1" stop-color="#D5F8F9"/>
</linearGradient>
<linearGradient id="paint9_linear_901_27239" x1="718.635" y1="259.219" x2="732.261" y2="-326.184" gradientUnits="userSpaceOnUse">
<stop stop-color="#9CCBF0"/>
<stop offset="1" stop-color="#D5F8F9"/>
</linearGradient>
<linearGradient id="paint10_linear_901_27239" x1="710.778" y1="260.402" x2="737.955" y2="-323.234" gradientUnits="userSpaceOnUse">
<stop stop-color="#9CCBF0"/>
<stop offset="1" stop-color="#D5F8F9"/>
</linearGradient>
<linearGradient id="paint11_linear_901_27239" x1="702.937" y1="261.494" x2="743.568" y2="-319.926" gradientUnits="userSpaceOnUse">
<stop stop-color="#9CCBF0"/>
<stop offset="1" stop-color="#D5F8F9"/>
</linearGradient>
<linearGradient id="paint12_linear_901_27239" x1="695.114" y1="262.503" x2="749.081" y2="-316.259" gradientUnits="userSpaceOnUse">
<stop stop-color="#9CCBF0"/>
<stop offset="1" stop-color="#D5F8F9"/>
</linearGradient>
<linearGradient id="paint13_linear_901_27239" x1="687.309" y1="263.425" x2="754.468" y2="-312.246" gradientUnits="userSpaceOnUse">
<stop stop-color="#9CCBF0"/>
<stop offset="1" stop-color="#D5F8F9"/>
</linearGradient>
<linearGradient id="paint14_linear_901_27239" x1="679.523" y1="264.262" x2="759.712" y2="-307.894" gradientUnits="userSpaceOnUse">
<stop stop-color="#9CCBF0"/>
<stop offset="1" stop-color="#D5F8F9"/>
</linearGradient>
<linearGradient id="paint15_linear_901_27239" x1="671.758" y1="265.017" x2="764.793" y2="-303.212" gradientUnits="userSpaceOnUse">
<stop stop-color="#9CCBF0"/>
<stop offset="1" stop-color="#D5F8F9"/>
</linearGradient>
<linearGradient id="paint16_linear_901_27239" x1="664.012" y1="265.684" x2="769.69" y2="-298.217" gradientUnits="userSpaceOnUse">
<stop stop-color="#9CCBF0"/>
<stop offset="1" stop-color="#D5F8F9"/>
</linearGradient>
<linearGradient id="paint17_linear_901_27239" x1="656.292" y1="266.273" x2="774.392" y2="-292.915" gradientUnits="userSpaceOnUse">
<stop stop-color="#9CCBF0"/>
<stop offset="1" stop-color="#D5F8F9"/>
</linearGradient>
<linearGradient id="paint18_linear_901_27239" x1="648.594" y1="266.775" x2="778.878" y2="-287.328" gradientUnits="userSpaceOnUse">
<stop stop-color="#9CCBF0"/>
<stop offset="1" stop-color="#D5F8F9"/>
</linearGradient>
<linearGradient id="paint19_linear_901_27239" x1="640.923" y1="267.194" x2="783.135" y2="-281.469" gradientUnits="userSpaceOnUse">
<stop stop-color="#9CCBF0"/>
<stop offset="1" stop-color="#D5F8F9"/>
</linearGradient>
<linearGradient id="paint20_linear_901_27239" x1="633.274" y1="267.539" x2="787.146" y2="-275.344" gradientUnits="userSpaceOnUse">
<stop stop-color="#9CCBF0"/>
<stop offset="1" stop-color="#D5F8F9"/>
</linearGradient>
<linearGradient id="paint21_linear_901_27239" x1="625.655" y1="267.8" x2="790.904" y2="-268.982" gradientUnits="userSpaceOnUse">
<stop stop-color="#9CCBF0"/>
<stop offset="1" stop-color="#D5F8F9"/>
</linearGradient>
<linearGradient id="paint22_linear_901_27239" x1="618.063" y1="267.982" x2="794.396" y2="-262.396" gradientUnits="userSpaceOnUse">
<stop stop-color="#9CCBF0"/>
<stop offset="1" stop-color="#D5F8F9"/>
</linearGradient>
<linearGradient id="paint23_linear_901_27239" x1="610.498" y1="268.084" x2="797.611" y2="-255.604" gradientUnits="userSpaceOnUse">
<stop stop-color="#9CCBF0"/>
<stop offset="1" stop-color="#D5F8F9"/>
</linearGradient>
<linearGradient id="paint24_linear_901_27239" x1="602.966" y1="268.111" x2="800.544" y2="-248.62" gradientUnits="userSpaceOnUse">
<stop stop-color="#9CCBF0"/>
<stop offset="1" stop-color="#D5F8F9"/>
</linearGradient>
<linearGradient id="paint25_linear_901_27239" x1="595.461" y1="268.057" x2="803.184" y2="-241.471" gradientUnits="userSpaceOnUse">
<stop stop-color="#9CCBF0"/>
<stop offset="1" stop-color="#D5F8F9"/>
</linearGradient>
<linearGradient id="paint26_linear_901_27239" x1="587.99" y1="267.93" x2="805.531" y2="-234.165" gradientUnits="userSpaceOnUse">
<stop stop-color="#9CCBF0"/>
<stop offset="1" stop-color="#D5F8F9"/>
</linearGradient>
<linearGradient id="paint27_linear_901_27239" x1="580.552" y1="267.731" x2="807.578" y2="-226.723" gradientUnits="userSpaceOnUse">
<stop stop-color="#9CCBF0"/>
<stop offset="1" stop-color="#D5F8F9"/>
</linearGradient>
<linearGradient id="paint28_linear_901_27239" x1="573.147" y1="267.455" x2="809.323" y2="-219.167" gradientUnits="userSpaceOnUse">
<stop stop-color="#9CCBF0"/>
<stop offset="1" stop-color="#D5F8F9"/>
</linearGradient>
<linearGradient id="paint29_linear_901_27239" x1="565.777" y1="267.106" x2="810.766" y2="-211.512" gradientUnits="userSpaceOnUse">
<stop stop-color="#9CCBF0"/>
<stop offset="1" stop-color="#D5F8F9"/>
</linearGradient>
<linearGradient id="paint30_linear_901_27239" x1="558.441" y1="266.683" x2="811.903" y2="-203.779" gradientUnits="userSpaceOnUse">
<stop stop-color="#9CCBF0"/>
<stop offset="1" stop-color="#D5F8F9"/>
</linearGradient>
<linearGradient id="paint31_linear_901_27239" x1="551.143" y1="266.19" x2="812.74" y2="-195.981" gradientUnits="userSpaceOnUse">
<stop stop-color="#9CCBF0"/>
<stop offset="1" stop-color="#D5F8F9"/>
</linearGradient>
<linearGradient id="paint32_linear_901_27239" x1="543.883" y1="265.629" x2="813.277" y2="-188.132" gradientUnits="userSpaceOnUse">
<stop stop-color="#9CCBF0"/>
<stop offset="1" stop-color="#D5F8F9"/>
</linearGradient>
<linearGradient id="paint33_linear_901_27239" x1="536.659" y1="264.994" x2="813.516" y2="-180.257" gradientUnits="userSpaceOnUse">
<stop stop-color="#9CCBF0"/>
<stop offset="1" stop-color="#D5F8F9"/>
</linearGradient>
<linearGradient id="paint34_linear_901_27239" x1="529.475" y1="264.295" x2="813.463" y2="-172.361" gradientUnits="userSpaceOnUse">
<stop stop-color="#9CCBF0"/>
<stop offset="1" stop-color="#D5F8F9"/>
</linearGradient>
<linearGradient id="paint35_linear_901_27239" x1="522.33" y1="263.53" x2="813.121" y2="-164.463" gradientUnits="userSpaceOnUse">
<stop stop-color="#9CCBF0"/>
<stop offset="1" stop-color="#D5F8F9"/>
</linearGradient>
<linearGradient id="paint36_linear_901_27239" x1="515.226" y1="262.696" x2="812.496" y2="-156.58" gradientUnits="userSpaceOnUse">
<stop stop-color="#9CCBF0"/>
<stop offset="1" stop-color="#D5F8F9"/>
</linearGradient>
<linearGradient id="paint37_linear_901_27239" x1="508.165" y1="261.797" x2="811.598" y2="-148.721" gradientUnits="userSpaceOnUse">
<stop stop-color="#9CCBF0"/>
<stop offset="1" stop-color="#D5F8F9"/>
</linearGradient>
<linearGradient id="paint38_linear_901_27239" x1="501.141" y1="260.835" x2="810.426" y2="-140.901" gradientUnits="userSpaceOnUse">
<stop stop-color="#9CCBF0"/>
<stop offset="1" stop-color="#D5F8F9"/>
</linearGradient>
<linearGradient id="paint39_linear_901_27239" x1="494.165" y1="259.812" x2="808.997" y2="-133.128" gradientUnits="userSpaceOnUse">
<stop stop-color="#9CCBF0"/>
<stop offset="1" stop-color="#D5F8F9"/>
</linearGradient>
<linearGradient id="paint40_linear_901_27239" x1="487.232" y1="258.722" x2="807.314" y2="-125.421" gradientUnits="userSpaceOnUse">
<stop stop-color="#9CCBF0"/>
<stop offset="1" stop-color="#D5F8F9"/>
</linearGradient>
<linearGradient id="paint41_linear_901_27239" x1="480.343" y1="257.58" x2="805.385" y2="-117.777" gradientUnits="userSpaceOnUse">
<stop stop-color="#9CCBF0"/>
<stop offset="1" stop-color="#D5F8F9"/>
</linearGradient>
<linearGradient id="paint42_linear_901_27239" x1="473.5" y1="256.374" x2="803.221" y2="-110.216" gradientUnits="userSpaceOnUse">
<stop stop-color="#9CCBF0"/>
<stop offset="1" stop-color="#D5F8F9"/>
</linearGradient>
<linearGradient id="paint43_linear_901_27239" x1="466.702" y1="255.113" x2="800.829" y2="-102.741" gradientUnits="userSpaceOnUse">
<stop stop-color="#9CCBF0"/>
<stop offset="1" stop-color="#D5F8F9"/>
</linearGradient>
<linearGradient id="paint44_linear_901_27239" x1="459.951" y1="253.791" x2="798.219" y2="-95.3665" gradientUnits="userSpaceOnUse">
<stop stop-color="#9CCBF0"/>
<stop offset="1" stop-color="#D5F8F9"/>
</linearGradient>
<linearGradient id="paint45_linear_901_27239" x1="453.245" y1="252.419" x2="795.397" y2="-88.0891" gradientUnits="userSpaceOnUse">
<stop stop-color="#9CCBF0"/>
<stop offset="1" stop-color="#D5F8F9"/>
</linearGradient>
<linearGradient id="paint46_linear_901_27239" x1="446.59" y1="250.987" x2="792.38" y2="-80.9263" gradientUnits="userSpaceOnUse">
<stop stop-color="#9CCBF0"/>
<stop offset="1" stop-color="#D5F8F9"/>
</linearGradient>
<linearGradient id="paint47_linear_901_27239" x1="439.981" y1="249.503" x2="789.171" y2="-73.8775" gradientUnits="userSpaceOnUse">
<stop stop-color="#9CCBF0"/>
<stop offset="1" stop-color="#D5F8F9"/>
</linearGradient>
<linearGradient id="paint48_linear_901_27239" x1="433.422" y1="247.97" x2="785.782" y2="-66.9462" gradientUnits="userSpaceOnUse">
<stop stop-color="#9CCBF0"/>
<stop offset="1" stop-color="#D5F8F9"/>
</linearGradient>
<linearGradient id="paint49_linear_901_27239" x1="426.914" y1="246.384" x2="782.223" y2="-60.1403" gradientUnits="userSpaceOnUse">
<stop stop-color="#9CCBF0"/>
<stop offset="1" stop-color="#D5F8F9"/>
</linearGradient>
<linearGradient id="paint50_linear_901_27239" x1="420.454" y1="244.752" x2="778.502" y2="-53.46" gradientUnits="userSpaceOnUse">
<stop stop-color="#9CCBF0"/>
<stop offset="1" stop-color="#D5F8F9"/>
</linearGradient>
<linearGradient id="paint51_linear_901_27239" x1="414.046" y1="243.071" x2="774.628" y2="-46.9109" gradientUnits="userSpaceOnUse">
<stop stop-color="#9CCBF0"/>
<stop offset="1" stop-color="#D5F8F9"/>
</linearGradient>
<linearGradient id="paint52_linear_901_27239" x1="407.689" y1="241.343" x2="770.612" y2="-40.4949" gradientUnits="userSpaceOnUse">
<stop stop-color="#9CCBF0"/>
<stop offset="1" stop-color="#D5F8F9"/>
</linearGradient>
<linearGradient id="paint53_linear_901_27239" x1="401.385" y1="239.566" x2="766.463" y2="-34.2175" gradientUnits="userSpaceOnUse">
<stop stop-color="#9CCBF0"/>
<stop offset="1" stop-color="#D5F8F9"/>
</linearGradient>
<linearGradient id="paint54_linear_901_27239" x1="395.131" y1="237.75" x2="762.187" y2="-28.0717" gradientUnits="userSpaceOnUse">
<stop stop-color="#9CCBF0"/>
<stop offset="1" stop-color="#D5F8F9"/>
</linearGradient>
<linearGradient id="paint55_linear_901_27239" x1="388.932" y1="235.891" x2="757.797" y2="-22.0639" gradientUnits="userSpaceOnUse">
<stop stop-color="#9CCBF0"/>
<stop offset="1" stop-color="#D5F8F9"/>
</linearGradient>
<linearGradient id="paint56_linear_901_27239" x1="382.786" y1="233.988" x2="753.298" y2="-16.1969" gradientUnits="userSpaceOnUse">
<stop stop-color="#9CCBF0"/>
<stop offset="1" stop-color="#D5F8F9"/>
</linearGradient>
<linearGradient id="paint57_linear_901_27239" x1="376.694" y1="232.048" x2="748.7" y2="-10.4644" gradientUnits="userSpaceOnUse">
<stop stop-color="#9CCBF0"/>
<stop offset="1" stop-color="#D5F8F9"/>
</linearGradient>
<linearGradient id="paint58_linear_901_27239" x1="370.655" y1="230.069" x2="744.01" y2="-4.87038" gradientUnits="userSpaceOnUse">
<stop stop-color="#9CCBF0"/>
<stop offset="1" stop-color="#D5F8F9"/>
</linearGradient>
<linearGradient id="paint59_linear_901_27239" x1="364.672" y1="228.054" x2="739.236" y2="0.587691" gradientUnits="userSpaceOnUse">
<stop stop-color="#9CCBF0"/>
<stop offset="1" stop-color="#D5F8F9"/>
</linearGradient>
<linearGradient id="paint60_linear_901_27239" x1="358.742" y1="225.999" x2="734.385" y2="5.90623" gradientUnits="userSpaceOnUse">
<stop stop-color="#9CCBF0"/>
<stop offset="1" stop-color="#D5F8F9"/>
</linearGradient>
<linearGradient id="paint61_linear_901_27239" x1="352.868" y1="223.912" x2="729.464" y2="11.0923" gradientUnits="userSpaceOnUse">
<stop stop-color="#9CCBF0"/>
<stop offset="1" stop-color="#D5F8F9"/>
</linearGradient>
<linearGradient id="paint62_linear_901_27239" x1="347.05" y1="221.792" x2="724.483" y2="16.1454" gradientUnits="userSpaceOnUse">
<stop stop-color="#9CCBF0"/>
<stop offset="1" stop-color="#D5F8F9"/>
</linearGradient>
<linearGradient id="paint63_linear_901_27239" x1="341.289" y1="219.643" x2="719.447" y2="21.0691" gradientUnits="userSpaceOnUse">
<stop stop-color="#9CCBF0"/>
<stop offset="1" stop-color="#D5F8F9"/>
</linearGradient>
<linearGradient id="paint64_linear_901_27239" x1="335.582" y1="217.46" x2="714.36" y2="25.8614" gradientUnits="userSpaceOnUse">
<stop stop-color="#9CCBF0"/>
<stop offset="1" stop-color="#D5F8F9"/>
</linearGradient>
<linearGradient id="paint65_linear_901_27239" x1="329.934" y1="215.247" x2="709.231" y2="30.5246" gradientUnits="userSpaceOnUse">
<stop stop-color="#9CCBF0"/>
<stop offset="1" stop-color="#D5F8F9"/>
</linearGradient>
<linearGradient id="paint66_linear_901_27239" x1="324.341" y1="213.012" x2="704.065" y2="35.0698" gradientUnits="userSpaceOnUse">
<stop stop-color="#9CCBF0"/>
<stop offset="1" stop-color="#D5F8F9"/>
</linearGradient>
<linearGradient id="paint67_linear_901_27239" x1="318.806" y1="210.747" x2="698.869" y2="39.489" gradientUnits="userSpaceOnUse">
<stop stop-color="#9CCBF0"/>
<stop offset="1" stop-color="#D5F8F9"/>
</linearGradient>
<linearGradient id="paint68_linear_901_27239" x1="313.329" y1="208.457" x2="693.647" y2="43.79" gradientUnits="userSpaceOnUse">
<stop stop-color="#9CCBF0"/>
<stop offset="1" stop-color="#D5F8F9"/>
</linearGradient>
<linearGradient id="paint69_linear_901_27239" x1="307.908" y1="206.145" x2="688.403" y2="47.9758" gradientUnits="userSpaceOnUse">
<stop stop-color="#9CCBF0"/>
<stop offset="1" stop-color="#D5F8F9"/>
</linearGradient>
<linearGradient id="paint70_linear_901_27239" x1="302.544" y1="203.815" x2="683.143" y2="52.0524" gradientUnits="userSpaceOnUse">
<stop stop-color="#9CCBF0"/>
<stop offset="1" stop-color="#D5F8F9"/>
</linearGradient>
<linearGradient id="paint71_linear_901_27239" x1="297.242" y1="201.459" x2="677.875" y2="56.0156" gradientUnits="userSpaceOnUse">
<stop stop-color="#9CCBF0"/>
<stop offset="1" stop-color="#D5F8F9"/>
</linearGradient>
<linearGradient id="paint72_linear_901_27239" x1="291.994" y1="199.087" x2="672.598" y2="59.8747" gradientUnits="userSpaceOnUse">
<stop stop-color="#9CCBF0"/>
<stop offset="1" stop-color="#D5F8F9"/>
</linearGradient>
<linearGradient id="paint73_linear_901_27239" x1="286.805" y1="196.699" x2="667.318" y2="63.6336" gradientUnits="userSpaceOnUse">
<stop stop-color="#9CCBF0"/>
<stop offset="1" stop-color="#D5F8F9"/>
</linearGradient>
<linearGradient id="paint74_linear_901_27239" x1="281.674" y1="194.292" x2="662.041" y2="67.2909" gradientUnits="userSpaceOnUse">
<stop stop-color="#9CCBF0"/>
<stop offset="1" stop-color="#D5F8F9"/>
</linearGradient>
<linearGradient id="paint75_linear_901_27239" x1="276.602" y1="191.87" x2="656.769" y2="70.8527" gradientUnits="userSpaceOnUse">
<stop stop-color="#9CCBF0"/>
<stop offset="1" stop-color="#D5F8F9"/>
</linearGradient>
<linearGradient id="paint76_linear_901_27239" x1="271.589" y1="189.439" x2="651.506" y2="74.3268" gradientUnits="userSpaceOnUse">
<stop stop-color="#9CCBF0"/>
<stop offset="1" stop-color="#D5F8F9"/>
</linearGradient>
<linearGradient id="paint77_linear_901_27239" x1="266.635" y1="186.994" x2="646.256" y2="77.7116" gradientUnits="userSpaceOnUse">
<stop stop-color="#9CCBF0"/>
<stop offset="1" stop-color="#D5F8F9"/>
</linearGradient>
<linearGradient id="paint78_linear_901_27239" x1="261.738" y1="184.537" x2="641.019" y2="81.0113" gradientUnits="userSpaceOnUse">
<stop stop-color="#9CCBF0"/>
<stop offset="1" stop-color="#D5F8F9"/>
</linearGradient>
<linearGradient id="paint79_linear_901_27239" x1="256.9" y1="182.075" x2="635.802" y2="84.234" gradientUnits="userSpaceOnUse">
<stop stop-color="#9CCBF0"/>
<stop offset="1" stop-color="#D5F8F9"/>
</linearGradient>
<linearGradient id="paint80_linear_901_27239" x1="252.12" y1="179.601" x2="630.604" y2="87.3764" gradientUnits="userSpaceOnUse">
<stop stop-color="#9CCBF0"/>
<stop offset="1" stop-color="#D5F8F9"/>
</linearGradient>
<linearGradient id="paint81_linear_901_27239" x1="247.4" y1="177.122" x2="625.431" y2="90.4478" gradientUnits="userSpaceOnUse">
<stop stop-color="#9CCBF0"/>
<stop offset="1" stop-color="#D5F8F9"/>
</linearGradient>
<linearGradient id="paint82_linear_901_27239" x1="242.737" y1="174.639" x2="620.282" y2="93.4518" gradientUnits="userSpaceOnUse">
<stop stop-color="#9CCBF0"/>
<stop offset="1" stop-color="#D5F8F9"/>
</linearGradient>
<linearGradient id="paint83_linear_901_27239" x1="238.132" y1="172.155" x2="615.162" y2="96.3929" gradientUnits="userSpaceOnUse">
<stop stop-color="#9CCBF0"/>
<stop offset="1" stop-color="#D5F8F9"/>
</linearGradient>
<linearGradient id="paint84_linear_901_27239" x1="233.587" y1="169.666" x2="610.072" y2="99.271" gradientUnits="userSpaceOnUse">
<stop stop-color="#9CCBF0"/>
<stop offset="1" stop-color="#D5F8F9"/>
</linearGradient>
<linearGradient id="paint85_linear_901_27239" x1="229.099" y1="167.177" x2="605.012" y2="102.094" gradientUnits="userSpaceOnUse">
<stop stop-color="#9CCBF0"/>
<stop offset="1" stop-color="#D5F8F9"/>
</linearGradient>
<linearGradient id="paint86_linear_901_27239" x1="224.67" y1="164.692" x2="599.986" y2="104.866" gradientUnits="userSpaceOnUse">
<stop stop-color="#9CCBF0"/>
<stop offset="1" stop-color="#D5F8F9"/>
</linearGradient>
<linearGradient id="paint87_linear_901_27239" x1="220.298" y1="162.205" x2="594.995" y2="107.585" gradientUnits="userSpaceOnUse">
<stop stop-color="#9CCBF0"/>
<stop offset="1" stop-color="#D5F8F9"/>
</linearGradient>
<linearGradient id="paint88_linear_901_27239" x1="215.984" y1="159.723" x2="590.039" y2="110.26" gradientUnits="userSpaceOnUse">
<stop stop-color="#9CCBF0"/>
<stop offset="1" stop-color="#D5F8F9"/>
</linearGradient>
<linearGradient id="paint89_linear_901_27239" x1="211.728" y1="157.249" x2="585.12" y2="112.898" gradientUnits="userSpaceOnUse">
<stop stop-color="#9CCBF0"/>
<stop offset="1" stop-color="#D5F8F9"/>
</linearGradient>
<linearGradient id="paint90_linear_901_27239" x1="207.529" y1="154.779" x2="580.24" y2="115.496" gradientUnits="userSpaceOnUse">
<stop stop-color="#9CCBF0"/>
<stop offset="1" stop-color="#D5F8F9"/>
</linearGradient>
<linearGradient id="paint91_linear_901_27239" x1="203.386" y1="152.315" x2="575.397" y2="118.061" gradientUnits="userSpaceOnUse">
<stop stop-color="#9CCBF0"/>
<stop offset="1" stop-color="#D5F8F9"/>
</linearGradient>
<linearGradient id="paint92_linear_901_27239" x1="199.303" y1="149.863" x2="570.597" y2="120.597" gradientUnits="userSpaceOnUse">
<stop stop-color="#9CCBF0"/>
<stop offset="1" stop-color="#D5F8F9"/>
</linearGradient>
<linearGradient id="paint93_linear_901_27239" x1="195.274" y1="147.424" x2="565.834" y2="123.111" gradientUnits="userSpaceOnUse">
<stop stop-color="#9CCBF0"/>
<stop offset="1" stop-color="#D5F8F9"/>
</linearGradient>
<linearGradient id="paint94_linear_901_27239" x1="191.303" y1="144.991" x2="561.113" y2="125.598" gradientUnits="userSpaceOnUse">
<stop stop-color="#9CCBF0"/>
<stop offset="1" stop-color="#D5F8F9"/>
</linearGradient>
<linearGradient id="paint95_linear_901_27239" x1="187.387" y1="142.574" x2="556.433" y2="128.07" gradientUnits="userSpaceOnUse">
<stop stop-color="#9CCBF0"/>
<stop offset="1" stop-color="#D5F8F9"/>
</linearGradient>
<linearGradient id="paint96_linear_901_27239" x1="180.561" y1="140.17" x2="548.828" y2="130.526" gradientUnits="userSpaceOnUse">
<stop stop-color="#9CCBF0"/>
<stop offset="1" stop-color="#D5F8F9"/>
</linearGradient>
<linearGradient id="paint97_linear_901_27239" x1="173.794" y1="137.785" x2="541.267" y2="132.975" gradientUnits="userSpaceOnUse">
<stop stop-color="#9CCBF0"/>
<stop offset="1" stop-color="#D5F8F9"/>
</linearGradient>
<linearGradient id="paint98_linear_901_27239" x1="170.044" y1="135.416" x2="536.709" y2="135.416" gradientUnits="userSpaceOnUse">
<stop stop-color="#9CCBF0"/>
<stop offset="1" stop-color="#D5F8F9"/>
</linearGradient>
<clipPath id="clip0_901_27239">
<rect width="520" height="885" fill="white" transform="translate(483 -406)"/>
</clipPath>
</defs>
</svg>
