<?xml version="1.0" encoding="UTF-8"?>
<svg fill="none" viewBox="0 0 1200 56" xmlns="http://www.w3.org/2000/svg">
<g opacity=".2">
<g clip-path="url(#cv)" stroke-width="3">
<path d="m392.48 15.091 196.02-491.6c3.639-9.126 13.253-14.468 22.235-12.356l405.02 95.229c6.99 1.644 12.03 7.484 12.81 14.846l58.65 556.48c0.77 7.362-2.86 14.828-9.25 18.979l-369.64 240.4c-8.198 5.332-18.544 3.73-23.928-3.705l-290.05-400.51c-3.595-4.9646-4.302-11.671-1.872-17.765z" opacity=".010101" stroke="url(#cu)"/>
<path d="m388.31 8.3059 202.04-486.02c3.763-9.05 13.481-14.178 22.461-11.851l402.85 104.42c6.98 1.808 11.94 7.753 12.62 15.118l51.26 556.74c0.68 7.365-3.06 14.734-9.49 18.738l-371.95 231.27c-8.291 5.155-18.651 3.315-23.943-4.254l-284.21-406.41c-3.521-5.0338-4.137-11.731-1.635-17.751z" opacity=".020202" stroke="url(#cj)"/>
<path d="m384.26 1.5339 207.96-480.32c3.885-8.972 13.7-13.88 22.671-11.338l400.58 113.54c6.96 1.97 11.84 8.02 12.42 15.387l43.89 556.83c0.58 7.367-3.25 14.638-9.75 18.493l-374.12 222.12c-8.378 4.974-18.744 2.894-23.943-4.805l-278.31-412.17c-3.446-5.1027-3.973-11.792-1.398-17.738z" opacity=".030303" stroke="url(#by)"/>
<path d="m380.33-5.2242 213.81-474.49c4.004-8.887 13.91-13.573 22.865-10.816l398.21 122.59c6.92 2.133 11.72 8.287 12.21 15.657l36.52 556.74c0.49 7.37-3.44 14.542-9.98 18.246l-376.2 212.93c-8.459 4.789-18.824 2.467-23.926-5.358l-272.35-417.77c-3.372-5.1715-3.81-11.854-1.163-17.727z" opacity=".040404" stroke="url(#bn)"/>
<path d="m376.51-11.964 219.56-468.53c4.124-8.8 14.111-13.259 23.044-10.289l395.72 131.56c6.9 2.294 11.62 8.553 12.01 15.924l29.18 556.46c0.38 7.371-3.63 14.444-10.23 17.996l-378.14 203.72c-8.537 4.599-18.892 2.036-23.894-5.913l-266.32-423.22c-3.298-5.2404-3.648-11.917-0.929-17.719z" opacity=".050505" stroke="url(#bc)"/>
<path d="m372.8-18.689 225.22-462.45c4.241-8.708 14.302-12.937 23.207-9.755l393.13 140.47c6.87 2.454 11.51 8.816 11.8 16.188l21.85 556.01c0.29 7.372-3.82 14.345-10.46 17.744l-379.97 194.49c-8.607 4.406-18.945 1.602-23.845-6.467l-260.24-428.52c-3.224-5.3094-3.486-11.982-0.696-17.712z" opacity=".060606" stroke="url(#ar)"/>
<path d="m369.21-25.387 230.79-456.25c4.355-8.611 14.483-12.607 23.354-9.215l390.44 149.29c6.84 2.614 11.39 9.079 11.58 16.452l14.55 555.38c0.19 7.373-4.01 14.245-10.7 17.49l-381.68 185.24c-8.672 4.209-18.984 1.164-23.779-7.02l-254.09-433.67c-3.152-5.3786-3.326-12.048-0.464-17.707z" opacity=".070707" stroke="url(#ag)"/>
<path d="m365.73-32.058 236.26-449.93c4.469-8.511 14.654-12.272 23.485-8.672l387.64 158.03c6.81 2.774 11.27 9.341 11.37 16.715l7.26 554.57c0.09 7.374-4.2 14.145-10.92 17.234l-383.28 175.98c-8.731 4.009-19.009 0.724-23.698-7.573l-247.89-438.66c-3.079-5.4481-3.166-12.116-0.232-17.704z" opacity=".080808" stroke="url(#v)"/>
<path d="m362.37-38.705 241.64-443.49c4.58-8.406 14.817-11.929 23.6-8.124l384.74 166.7c6.77 2.931 11.15 9.601 11.15 16.975v553.59c0 7.374-4.38 14.044-11.15 16.975l-384.74 166.7c-8.783 3.806-19.02 0.282-23.6-8.124l-241.64-443.49c-3.007-5.5179-3.007-12.185 0-17.703z" opacity=".090909" stroke="url(#k)"/>
<path d="m359.12-45.321 246.92-436.94c4.689-8.297 14.968-11.582 23.698-7.573l381.74 175.28c6.73 3.089 11.02 9.86 10.93 17.234l-7.24 552.43c-0.09 7.374-4.56 13.942-11.36 16.715l-386.1 157.41c-8.831 3.6-19.017-0.161-23.486-8.672l-235.34-448.17c-2.934-5.5881-2.847-12.256 0.232-17.704z" opacity=".10101" stroke="url(#a)"/>
<path d="m355.97-51.899 252.11-430.28c4.796-8.185 15.108-11.229 23.78-7.02l378.65 183.77c6.69 3.244 10.89 10.117 10.7 17.49l-14.44 551.09c-0.19 7.373-4.74 13.838-11.578 16.453l-387.34 148.1c-8.871 3.392-18.999-0.604-23.355-9.215l-228.98-452.69c-2.863-5.6587-2.688-12.328 0.464-17.707z" opacity=".11111" stroke="url(#ct)"/>
<path d="m352.94-58.445 257.19-423.52c4.9-8.069 15.238-10.872 23.845-6.466l375.46 192.18c6.64 3.398 10.75 10.372 10.46 17.744l-21.599 549.58c-0.289 7.372-4.925 13.734-11.795 16.189l-388.47 138.8c-8.905 3.182-18.967-1.047-23.207-9.754l-222.59-457.05c-2.79-5.7297-2.528-12.402 0.697-17.712z" opacity=".12121" stroke="url(#cs)"/>
<path d="m350.02-64.949 262.18-416.64c5.002-7.949 15.357-10.511 23.893-5.912l372.17 200.5c6.59 3.552 10.61 10.625 10.22 17.996l-28.731 547.9c-0.386 7.371-5.104 13.63-12.004 15.924l-389.47 129.49c-8.933 2.97-18.92-1.49-23.044-10.289l-216.14-461.24c-2.718-5.8014-2.368-12.478 0.93-17.719z" opacity=".13131" stroke="url(#cr)"/>
<path d="m347.22-71.413 267.06-409.67c5.102-7.825 15.467-10.146 23.927-5.358l368.78 208.74c6.54 3.704 10.47 10.876 9.98 18.245l-35.823 546.04c-0.483 7.369-5.283 13.524-12.211 15.656l-390.36 120.17c-8.955 2.757-18.86-1.929-22.865-10.816l-209.66-465.28c-2.647-5.8736-2.209-12.556 1.163-17.728z" opacity=".14141" stroke="url(#cq)"/>
<path d="m344.52-77.833 271.85-402.59c5.198-7.699 15.564-9.779 23.942-4.805l365.3 216.88c6.5 3.855 10.33 11.126 9.75 18.493l-42.883 544.02c-0.58 7.367-5.461 13.417-12.413 15.388l-391.13 110.86c-8.97 2.542-18.785-2.366-22.67-11.338l-203.13-469.16c-2.575-5.9463-2.047-12.635 1.398-17.738z" opacity=".15152" stroke="url(#cp)"/>
<path d="m341.92-84.204 276.52-395.42c5.293-7.568 15.653-9.408 23.944-4.253l361.73 224.92c6.44 4.004 10.17 11.373 9.49 18.737l-49.888 541.82c-0.678 7.365-5.638 13.31-12.612 15.118l-391.79 101.55c-8.98 2.327-18.698-2.801-22.46-11.851l-196.57-472.88c-2.503-6.0198-1.886-12.717 1.634-17.751z" opacity=".16162" stroke="url(#co)"/>
<path d="m339.44-90.529 281.1-388.15c5.384-7.435 15.73-9.037 23.928-3.705l358.06 232.87c6.38 4.152 10.01 11.617 9.24 18.979l-56.859 539.46c-0.775 7.361-5.814 13.202-12.808 14.846l-392.32 92.245c-8.983 2.112-18.597-3.23-22.236-12.356l-189.97-476.43c-2.43-6.0939-1.723-12.8 1.872-17.765z" opacity=".17172" stroke="url(#cn)"/>
<path d="m337.07-96.797 285.56-380.79c5.473-7.298 15.797-8.663 23.898-3.159l354.3 240.72c6.33 4.297 9.86 11.859 8.99 19.217l-63.778 536.93c-0.874 7.359-5.99 13.093-13.001 14.574l-392.75 82.948c-8.979 1.896-18.482-3.656-21.996-12.852l-183.34-479.82c-2.357-6.1686-1.559-12.885 2.112-17.78z" opacity=".18182" stroke="url(#cm)"/>
<path d="m334.8-103.02 289.92-373.34c5.559-7.159 15.854-8.289 23.852-2.618l350.46 248.48c6.261 4.441 9.701 12.099 8.731 19.453l-70.648 534.24c-0.973 7.354-6.165 12.983-13.191 14.3l-393.05 73.66c-8.97 1.681-18.355-4.076-21.742-13.338l-176.68-483.05c-2.284-6.244-1.394-12.971 2.353-17.797z" opacity=".19192" stroke="url(#cl)"/>
<path d="m332.63-109.18 294.17-365.8c5.643-7.016 15.902-7.914 23.792-2.081l346.52 256.13c6.197 4.584 9.537 12.335 8.467 19.685l-77.466 531.39c-1.071 7.349-6.339 12.872-13.377 14.024l-393.24 64.385c-8.955 1.466-18.215-4.49-21.475-13.814l-169.99-486.11c-2.211-6.3201-1.228-13.06 2.597-17.816z" opacity=".20202" stroke="url(#ck)"/>
<path d="m330.57-115.28 298.32-358.17c5.723-6.871 15.938-7.538 23.718-1.549l342.5 263.68c6.142 4.724 9.362 12.569 8.192 19.914l-84.222 528.37c-1.17 7.344-6.512 12.761-13.56 13.748l-393.32 55.125c-8.934 1.252-18.063-4.898-21.195-14.279l-163.27-489c-2.136-6.3971-1.059-13.149 2.843-17.835z" opacity=".21212" stroke="url(#ci)"/>
<path d="m328.62-121.31 302.35-350.47c5.8-6.723 15.965-7.163 23.629-1.023l338.39 271.13c6.07 4.863 9.191 12.8 7.921 20.139l-90.93 525.2c-1.271 7.339-6.686 12.648-13.741 13.471l-393.28 45.881c-8.906 1.039-17.899-5.299-20.901-14.732l-156.53-491.74c-2.061-6.475-0.889-13.241 3.092-17.856z" opacity=".22222" stroke="url(#ch)"/>
<path d="m326.76-127.29 306.27-342.69c5.874-6.573 15.984-6.789 23.528-0.503l334.2 278.47c6.001 5 9.015 13.029 7.644 20.361l-97.578 521.87c-1.371 7.332-6.858 12.534-13.918 13.192l-393.12 36.656c-8.874 0.828-17.724-5.692-20.597-15.173l-149.77-494.3c-1.985-6.553-0.717-13.334 3.342-17.876z" opacity=".23232" stroke="url(#cg)"/>
<path d="m325.01-133.19 310.08-334.83c5.945-6.42 15.992-6.416 23.413 0.01l329.92 285.7c5.93 5.135 8.835 13.253 7.363 20.578l-104.16 518.38c-1.472 7.325-7.031 12.419-14.093 12.912l-392.85 27.454c-8.836 0.617-17.538-6.078-20.28-15.602l-142.99-496.71c-1.909-6.631-0.543-13.428 3.596-17.898z" opacity=".24242" stroke="url(#cf)"/>
<path d="m323.36-139.03 313.77-326.89c6.015-6.266 15.993-6.045 23.287 0.515l325.56 292.82c5.857 5.268 8.651 13.475 7.077 20.791l-110.69 514.74c-1.574 7.317-7.204 12.302-14.265 12.631l-392.46 18.275c-8.793 0.41-17.342-6.454-19.953-16.018l-136.19-498.94c-1.832-6.71-0.367-13.523 3.853-17.92z" opacity=".25252" stroke="url(#ce)"/>
<path d="m321.81-144.8 317.36-318.89c6.08-6.109 15.984-5.675 23.147 1.013l321.13 299.83c5.782 5.399 8.463 13.692 6.787 21l-117.15 510.94c-1.676 7.308-7.376 12.185-14.434 12.349l-391.96 9.123c-8.744 0.204-17.137-6.822-19.615-16.42l-129.37-501.01c-1.753-6.791-0.187-13.62 4.114-17.942z" opacity=".26263" stroke="url(#cd)"/>
<path d="m320.36-150.49 320.82-310.82c6.142-5.95 15.967-5.308 22.997 1.503l316.61 306.73c5.705 5.528 8.271 13.907 6.493 21.205l-123.54 507c-1.778 7.298-7.547 12.066-14.6 12.066h-391.35c-8.69 0-16.921-7.181-19.267-16.809l-122.54-502.91c-1.674-6.871-6e-3 -13.718 4.377-17.964z" opacity=".27273" stroke="url(#cc)"/>
<path d="m319-156.1 324.18-302.68c6.202-5.79 15.941-4.944 22.836 1.984l312.01 313.51c5.627 5.655 8.076 14.118 6.195 21.405l-129.86 502.91c-1.882 7.287-7.72 11.945-14.764 11.781l-390.62-9.091c-8.632-0.201-16.698-7.531-18.911-17.184l-115.7-504.65c-1.594-6.952 0.179-13.816 4.644-17.985z" opacity=".28283" stroke="url(#cb)"/>
<path d="m317.74-161.63 327.41-294.48c6.258-5.629 15.908-4.583 22.665 2.456l307.33 320.18c5.547 5.778 7.878 14.324 5.892 21.599l-136.11 498.67c-1.986 7.275-7.891 11.823-14.925 11.496l-389.77-18.15c-8.569-0.399-16.465-7.87-18.546-17.545l-108.86-506.22c-1.513-7.033 0.366-13.915 4.915-18.006z" opacity=".29293" stroke="url(#ca)"/>
<path d="m316.58-167.08 330.53-286.23c6.311-5.465 15.867-4.223 22.483 2.92l302.58 326.73c5.464 5.901 7.675 14.527 5.585 21.789l-142.29 494.29c-2.091 7.262-8.062 11.7-15.084 11.209l-388.81-27.172c-8.501-0.594-16.226-8.198-18.173-17.891l-102-507.62c-1.43-7.115 0.556-14.015 5.189-18.026z" opacity=".30303" stroke="url(#bz)"/>
<path d="m315.51-172.46 333.53-277.91c6.361-5.3 15.819-3.868 22.292 3.375l297.75 333.16c5.38 6.02 7.469 14.725 5.273 21.973l-148.4 489.77c-2.196 7.247-8.233 11.574-15.24 10.921l-387.74-36.155c-8.429-0.786-15.979-8.518-17.793-18.222l-95.147-508.86c-1.346-7.197 0.75-14.115 5.468-18.046z" opacity=".31313" stroke="url(#bx)"/>
<path d="m314.53-177.74 336.42-269.54c6.408-5.134 15.764-3.517 22.093 3.819l292.85 339.46c5.295 6.1375 7.26 14.92 4.958 22.152l-154.42 485.11c-2.302 7.232-8.405 11.447-15.394 10.632l-386.56-45.097c-8.354-0.974-15.726-8.826-17.407-18.539l-88.288-509.93c-1.26-7.28 0.947-14.216 5.75-18.064z" opacity=".32323" stroke="url(#bw)"/>
<path d="m313.64-182.94 339.18-261.13c6.452-4.967 15.703-3.169 21.885 4.254l287.88 345.65c5.207 6.2523 7.047 15.109 4.638 22.325l-160.37 480.32c-2.409 7.215-8.577 11.318-15.546 10.341l-385.26-53.995c-8.274-1.159-15.466-9.123-17.015-18.841l-81.43-510.84c-1.173-7.362 1.149-14.316 6.037-18.079z" opacity=".33333" stroke="url(#bv)"/>
<path d="m312.84-188.04 341.83-252.66c6.493-4.799 15.635-2.825 21.67 4.68l282.84 351.7c5.118 6.3649 6.831 15.295 4.315 22.492l-166.24 475.39c-2.517 7.197-8.748 11.187-15.695 10.05l-383.85-62.848c-8.191-1.341-15.201-9.41-16.618-19.128l-74.574-511.58c-1.085-7.444 1.353-14.416 6.327-18.092z" opacity=".34343" stroke="url(#bu)"/>
<path d="m312.14-193.06 344.36-244.15c6.531-4.63 15.561-2.485 21.447 5.095l277.73 357.64c5.029 6.475 6.613 15.476 3.988 22.653l-172.03 470.32c-2.625 7.177-8.919 11.054-15.841 9.756l-382.33-71.651c-8.104-1.519-14.931-9.687-16.216-19.4l-67.724-512.16c-0.995-7.528 1.561-14.516 6.622-18.105z" opacity=".35354" stroke="url(#bt)"/>
<path d="m311.51-197.98 346.76-235.6c6.566-4.461 15.482-2.15 21.219 5.5l272.55 363.44c4.936 6.5826 6.39 15.652 3.656 22.807l-177.73 465.13c-2.734 7.155-9.091 10.918-15.986 9.462l-380.7-80.404c-8.013-1.693-14.656-9.952-15.809-19.657l-60.881-512.57c-0.904-7.61 1.773-14.615 6.921-18.113z" opacity=".36364" stroke="url(#bs)"/>
<path d="m310.98-202.8 349.05-227.01c6.597-4.291 15.395-1.819 20.982 5.896l267.31 369.11c4.843 6.6877 6.165 15.823 3.321 22.956l-183.35 459.81c-2.845 7.133-9.263 10.78-16.129 9.166l-378.96-89.103c-7.92-1.862-14.377-10.206-15.399-19.899l-54.048-512.81c-0.811-7.693 1.989-14.713 7.225-18.119z" opacity=".37374" stroke="url(#br)"/>
<path d="m310.52-207.52 351.22-218.38c6.626-4.121 15.305-1.492 20.742 6.282l262 374.65c4.748 6.7904 5.936 15.989 2.981 23.097l-188.88 454.37c-2.955 7.108-9.434 10.64-16.269 8.869l-377.11-97.746c-7.824-2.028-14.095-10.45-14.986-20.127l-47.227-512.89c-0.716-7.775 2.208-14.81 7.532-18.121z" opacity=".38384" stroke="url(#bq)"/>
<path d="m310.15-212.15 353.26-209.73c6.653-3.949 15.211-1.17 20.496 6.658l256.63 380.06c4.652 6.8904 5.704 16.15 2.638 23.232l-194.32 448.81c-3.066 7.082-9.606 10.497-16.407 8.57l-375.15-106.33c-7.727-2.19-13.811-10.682-14.572-20.339l-40.42-512.81c-0.619-7.857 2.433-14.906 7.845-18.119z" opacity=".39394" stroke="url(#bp)"/>
<path d="m309.86-216.67 355.18-201.04c6.675-3.778 15.11-0.852 20.244 7.024l251.2 385.33c4.555 6.988 5.469 16.306 2.291 23.36l-199.67 443.12c-3.178 7.053-9.777 10.352-16.543 8.269l-373.08-114.85c-7.625-2.347-13.523-10.904-14.155-20.538l-33.629-512.56c-0.521-7.938 2.661-15.001 8.162-18.114z" opacity=".40404" stroke="url(#bo)"/>
<path d="m309.66-221.09 356.98-192.33c6.696-3.608 15.006-0.54 19.989 7.379l245.71 390.47c4.457 7.083 5.232 16.457 1.941 23.48l-204.94 437.33c-3.291 7.023-9.949 10.203-16.677 7.966l-370.9-123.31c-7.522-2.501-13.233-11.115-13.737-20.722l-26.858-512.16c-0.42-8.019 2.895-15.093 8.484-18.104z" opacity=".41414" stroke="url(#bm)"/>
<path d="m309.52-225.4 358.66-183.59c6.714-3.436 14.898-0.232 19.73 7.726l240.16 395.47c4.358 7.1753 4.992 16.602 1.588 23.593l-210.1 431.41c-3.404 6.99-10.121 10.052-16.809 7.662l-368.62-131.71c-7.417-2.65-12.941-11.316-13.318-20.892l-20.106-511.59c-0.319-8.099 3.132-15.184 8.81-18.09z" opacity=".42424" stroke="url(#bl)"/>
<path d="m309.47-229.6 360.22-174.83c6.728-3.266 14.784 0.071 19.466 8.062l234.56 400.33c4.257 7.2651 4.749 16.742 1.23 23.698l-215.18 425.39c-3.519 6.956-10.293 9.898-16.939 7.356l-366.23-140.03c-7.31-2.795-12.649-11.506-12.899-21.048l-13.378-510.86c-0.214-8.178 3.373-15.27 9.14-18.069z" opacity=".43434" stroke="url(#bk)"/>
<path d="m309.49-233.7 361.66-166.06c6.74-3.095 14.668 0.37 19.2 8.389l228.9 405.05c4.155 7.3522 4.503 16.876 0.87 23.796l-220.15 419.26c-3.633 6.919-10.464 9.741-17.066 7.049l-363.73-148.28c-7.201-2.936-12.355-11.686-12.479-21.19l-6.676-509.97c-0.108-8.257 3.62-15.356 9.476-18.044z" opacity=".44444" stroke="url(#bj)"/>
<path d="m309.58-237.68 362.98-157.26c6.749-2.924 14.549 0.664 18.932 8.707l223.19 409.63c4.052 7.4367 4.255 17.005 0.506 23.885l-225.04 413.02c-3.749 6.88-10.636 9.58-17.192 6.74l-361.13-156.47c-7.091-3.073-12.06-11.856-12.06-21.319v-508.92c0-8.334 3.87-15.438 9.814-18.013z" opacity=".45454" stroke="url(#bi)"/>
<path d="m309.74-241.55 364.17-148.46c6.755-2.754 14.427 0.952 18.661 9.015l217.43 414.07c3.948 7.5186 4.004 17.128 0.139 23.966l-229.82 406.68c-3.865 6.839-10.807 9.416-17.315 6.427l-358.43-164.57c-6.98-3.204-11.766-12.016-11.643-21.434l6.646-507.71c0.11-8.409 4.126-15.516 10.158-17.975z" opacity=".46465" stroke="url(#bh)"/>
<path d="m309.98-245.31 365.24-139.65c6.759-2.584 14.301 1.236 18.388 9.315l211.62 418.36c3.844 7.5979 3.751 17.245-0.23 24.039l-234.5 400.24c-3.981 6.795-10.979 9.248-17.437 6.114l-355.62-172.6c-6.868-3.333-11.472-12.167-11.227-21.537l13.261-506.35c0.222-8.485 4.386-15.591 10.506-17.931z" opacity=".47475" stroke="url(#bg)"/>
<path d="m310.28-248.95 366.19-130.84c6.761-2.416 14.173 1.515 18.113 9.605l205.77 422.51c3.737 7.6746 3.495 17.356-0.603 24.104l-239.09 393.7c-4.098 6.749-11.149 9.077-17.556 5.798l-352.71-180.54c-6.754-3.457-11.178-12.308-10.812-21.628l19.841-504.83c0.337-8.558 4.651-15.662 10.858-17.88z" opacity=".48485" stroke="url(#bf)"/>
<path d="m310.64-252.47 367.02-122.02c6.759-2.247 14.041 1.79 17.836 9.887l199.87 426.51c3.631 7.7486 3.238 17.46-0.978 24.16l-243.57 387.07c-4.216 6.7-11.32 8.902-17.673 5.479l-349.7-188.4c-6.64-3.577-10.885-12.439-10.4-21.705l26.386-503.16c0.453-8.629 4.92-15.727 11.214-17.82z" opacity=".49495" stroke="url(#be)"/>
<path d="m311.07-255.87 367.72-113.2c6.755-2.079 13.908 2.06 17.558 10.16l193.93 430.37c3.524 7.8201 2.979 17.559-1.355 24.207l-247.95 380.34c-4.333 6.648-11.49 8.723-17.788 5.159l-346.6-196.18c-6.524-3.692-10.593-12.561-9.989-21.771l32.892-501.33c0.571-8.699 5.193-15.789 11.574-17.754z" opacity=".50505" stroke="url(#bd)"/>
<path d="m311.57-259.15 368.31-104.39c6.749-1.913 13.772 2.324 17.279 10.425l187.94 434.08c3.415 7.8889 2.717 17.652-1.735 24.245l-252.22 373.53c-4.451 6.593-11.66 8.54-17.9 4.835l-343.39-203.87c-6.408-3.805-10.302-12.676-9.581-21.826l39.359-499.35c0.691-8.767 5.471-15.846 11.937-17.679z" opacity=".51515" stroke="url(#bb)"/>
<path d="m312.12-262.31 368.78-95.586c6.74-1.747 13.634 2.584 17 10.681l181.92 437.63c3.307 7.955 2.454 17.738-2.117 24.273l-256.4 366.64c-4.571 6.536-11.83 8.353-18.012 4.509l-340.09-211.47c-6.292-3.912-10.013-12.781-9.177-21.869l45.784-497.22c0.813-8.832 5.754-15.896 12.304-17.594z" opacity=".52525" stroke="url(#ba)"/>
<path d="m312.73-265.34 369.12-86.79c6.73-1.582 13.496 2.84 16.721 10.93l175.86 441.04c3.197 8.019 2.189 17.818-2.501 24.293l-260.46 359.66c-4.69 6.476-11.999 8.162-18.12 4.181l-336.69-218.97c-6.176-4.017-9.727-12.879-8.776-21.902l52.165-494.94c0.937-8.895 6.04-15.942 12.674-17.501z" opacity=".53535" stroke="url(#az)"/>
<path d="m313.4-268.26 369.35-78.006c6.717-1.418 13.354 3.092 16.442 11.171l169.77 444.3c3.087 8.079 1.922 17.891-2.887 24.303l-264.42 352.6c-4.809 6.412-12.167 7.966-18.226 3.849l-333.19-226.38c-6.059-4.117-9.441-12.968-8.378-21.924l58.499-492.51c1.064-8.956 6.332-15.98 13.049-17.399z" opacity=".54546" stroke="url(#ay)"/>
<path d="m314.12-271.04 369.46-69.238c6.701-1.256 13.211 3.338 16.162 11.404l163.64 447.41c2.977 8.138 1.654 17.958-3.274 24.303l-268.28 345.46c-4.928 6.346-12.334 7.766-18.329 3.515l-329.61-233.7c-5.943-4.213-9.158-13.05-7.983-21.936l64.785-489.94c1.192-9.014 6.627-16.012 13.425-17.286z" opacity=".55556" stroke="url(#ax)"/>
<path d="m314.9-273.7 369.44-60.488c6.684-1.094 13.067 3.581 15.882 11.631l157.49 450.36c2.866 8.194 1.384 18.018-3.663 24.294l-272.02 338.26c-5.047 6.276-12.5 7.561-18.43 3.178l-325.93-240.91c-5.826-4.306-8.878-13.124-7.593-21.938l71.023-487.22c1.322-9.07 6.926-16.038 13.803-17.165z" opacity=".56566" stroke="url(#aw)"/>
<path d="m315.73-276.23 369.31-51.76c6.664-0.933 12.922 3.819 15.603 11.85l151.31 453.16c2.754 8.247 1.113 18.072-4.053 24.275l-275.66 330.98c-5.166 6.203-12.665 7.352-18.528 2.838l-322.16-248.02c-5.709-4.395-8.599-13.191-7.206-21.931l77.207-484.35c1.454-9.122 7.229-16.056 14.185-17.031z" opacity=".57576" stroke="url(#av)"/>
<path d="m316.6-278.63 369.06-43.056c6.642-0.775 12.775 4.052 15.325 12.061l145.1 455.81c2.641 8.298 0.841 18.119-4.445 24.246l-279.2 323.63c-5.285 6.127-12.829 7.137-18.624 2.495l-318.3-255.03c-5.594-4.481-8.325-13.251-6.825-21.915l83.339-481.35c1.588-9.172 7.536-16.067 14.568-16.887z" opacity=".58586" stroke="url(#au)"/>
<path d="m317.52-280.9 368.7-34.38c6.618-0.617 12.627 4.282 15.047 12.268l138.86 458.3c2.528 8.345 0.567 18.159-4.837 24.206l-282.62 316.22c-5.405 6.047-12.993 6.918-18.717 2.148l-314.36-261.94c-5.478-4.564-8.053-13.305-6.447-21.89l89.414-478.21c1.724-9.218 7.846-16.069 14.954-16.731z" opacity=".59596" stroke="url(#at)"/>
<path d="m318.49-283.04 368.22-25.732c6.594-0.461 12.479 4.507 14.771 12.466l132.6 460.64c2.416 8.391 0.294 18.192-5.23 24.156l-285.93 308.75c-5.524 5.964-13.154 6.694-18.807 1.799l-310.33-268.73c-5.362-4.644-7.783-13.353-6.074-21.857l95.433-474.92c1.861-9.262 8.16-16.063 15.34-16.565z" opacity=".60606" stroke="url(#as)"/>
<path d="m319.5-285.05 367.62-17.118c6.566-0.306 12.33 4.728 14.495 12.66l126.33 462.82c2.302 8.433 0.019 18.218-5.623 24.096l-289.13 301.22c-5.642 5.878-13.314 6.465-18.894 1.446l-306.22-275.42c-5.247-4.72-7.516-13.395-5.705-21.816l101.39-471.51c2-9.3 8.477-16.047 15.728-16.385z" opacity=".61616" stroke="url(#aq)"/>
<path d="m320.55-286.92 366.91-8.54c6.536-0.152 12.179 4.946 14.22 12.847l120.04 464.86c2.188 8.474-0.257 18.237-6.016 24.025l-292.22 293.63c-5.76 5.788-13.472 6.231-18.978 1.09l-302.02-281.99c-5.133-4.793-7.253-13.431-5.341-21.768l107.29-467.95c2.14-9.336 8.795-16.023 16.115-16.194z" opacity=".62626" stroke="url(#ap)"/>
<path d="m321.64-288.66h366.09c6.506 0 12.029 5.159 13.946 13.028l113.73 466.73c2.074 8.512-0.533 18.25-6.41 23.943l-295.2 286c-5.877 5.694-13.628 5.991-19.058 0.73l-297.74-288.45c-5.02-4.863-6.993-13.462-4.982-21.713l113.13-464.27c2.282-9.367 9.118-15.989 16.504-15.989z" opacity=".63636" stroke="url(#ao)"/>
<path d="m322.77-290.27 365.15 8.499c6.473 0.151 11.878 5.37 13.674 13.205l107.4 468.45c1.96 8.548-0.809 18.256-6.803 23.852l-298.07 278.31c-5.994 5.596-13.782 5.745-19.135 0.366l-293.38-294.8c-4.907-4.93-6.737-13.488-4.629-21.65l118.9-460.46c2.426-9.395 9.442-15.945 16.892-15.772z" opacity=".64646" stroke="url(#an)"/>
<path d="m323.92-291.74 364.1 16.954c6.44 0.3 11.727 5.576 13.404 13.376l101.07 470.01c1.845 8.58-1.086 18.254-7.196 23.749l-300.83 270.58c-6.109 5.495-13.933 5.495-19.208 0l-288.95-301.03c-4.794-4.995-6.482-13.509-4.279-21.582l124.61-456.51c2.571-9.418 9.768-15.891 17.28-15.541z" opacity=".65657" stroke="url(#am)"/>
<path d="m325.12-293.08 362.94 25.364c6.404 0.447 11.575 5.779 13.135 13.541l94.728 471.42c1.73 8.611-1.363 18.245-7.587 23.635l-303.48 262.8c-6.224 5.39-14.082 5.239-19.278-0.371l-284.44-307.14c-4.683-5.058-6.233-13.526-3.935-21.508l130.25-452.44c2.716-9.437 10.095-15.827 17.665-15.298z" opacity=".66667" stroke="url(#al)"/>
<path d="m326.34-294.28 361.67 33.724c6.367 0.594 11.423 5.979 12.867 13.703l88.379 472.67c1.615 8.638-1.639 18.228-7.978 23.51l-306.02 254.98c-6.338 5.282-14.229 4.978-19.344-0.745l-279.85-313.12c-4.574-5.117-5.987-13.538-3.596-21.428l135.82-448.25c2.863-9.451 10.424-15.751 18.05-15.04z" opacity=".67677" stroke="url(#ak)"/>
<path d="m327.59-295.35 360.29 42.033c6.328 0.738 11.27 6.175 12.601 13.86l82.025 473.76c1.5 8.664-1.915 18.205-8.367 23.374l-308.44 247.13c-6.451 5.169-14.373 4.71-19.405-1.123l-275.19-318.99c-4.464-5.174-5.743-13.546-3.261-21.342l141.32-443.93c3.011-9.46 10.754-15.663 18.432-14.768z" opacity=".68687" stroke="url(#aj)"/>
<path d="m328.86-296.28 358.81 50.288c6.288 0.881 11.119 6.367 12.337 14.012l75.669 474.7c1.384 8.687-2.191 18.175-8.754 23.227l-310.76 239.24c-6.562 5.052-14.513 4.437-19.462-1.505l-270.46-324.73c-4.356-5.229-5.504-13.551-2.932-21.252l146.74-439.5c3.161-9.465 11.085-15.565 18.812-14.482z" opacity=".69697" stroke="url(#ai)"/>
<path d="m330.16-297.07 357.22 58.486c6.246 1.023 10.966 6.557 12.074 14.161l69.312 475.48c1.269 8.707-2.466 18.137-9.139 23.069l-312.96 231.32c-6.672 4.932-14.65 4.159-19.515-1.89l-265.67-330.35c-4.248-5.282-5.267-13.552-2.607-21.157l152.1-434.95c3.309-9.465 11.414-15.455 19.187-14.182z" opacity=".70707" stroke="url(#ah)"/>
<path d="m331.48-297.73 355.52 66.626c6.205 1.163 10.814 6.745 11.814 14.306l62.957 476.11c1.154 8.725-2.741 18.093-9.522 22.9l-315.06 223.38c-6.781 4.808-14.783 3.876-19.562-2.279l-260.8-335.84c-4.142-5.333-5.035-13.55-2.288-21.059l157.38-430.28c3.459-9.459 11.744-15.332 19.559-13.868z" opacity=".71717" stroke="url(#af)"/>
<path d="m332.82-298.25 353.72 74.705c6.16 1.301 10.661 6.928 11.554 14.446l56.607 476.58c1.038 8.741-3.015 18.04-9.902 22.72l-317.04 215.4c-6.888 4.68-14.912 3.586-19.605-2.672l-255.87-341.2c-4.036-5.382-4.805-13.545-1.973-20.956l162.59-425.5c3.611-9.448 12.073-15.198 19.927-13.539z" opacity=".72727" stroke="url(#ae)"/>
<path d="m334.18-298.63 351.81 82.72c6.116 1.438 10.509 7.11 11.297 14.585l50.264 476.9c0.922 8.755-3.288 17.982-10.28 22.529l-318.91 207.41c-6.992 4.547-15.037 3.291-19.642-3.069l-250.88-346.42c-3.932-5.429-4.579-13.538-1.663-20.85l167.72-420.61c3.761-9.431 12.399-15.05 20.289-13.195z" opacity=".73737" stroke="url(#ad)"/>
<path d="m335.55-298.87 349.81 90.67c6.07 1.573 10.358 7.288 11.042 14.719l43.928 477.06c0.807 8.765-3.559 17.915-10.654 22.326l-320.68 199.4c-7.095 4.412-15.158 2.991-19.675-3.468l-245.83-351.52c-3.829-5.475-4.357-13.528-1.359-20.74l172.77-415.61c3.911-9.41 12.725-14.89 20.645-12.837z" opacity=".74748" stroke="url(#ac)"/>
<path d="m336.94-298.98 347.7 98.552c6.023 1.707 10.206 7.465 10.788 14.851l37.603 477.07c0.692 8.774-3.829 17.842-11.024 22.114l-322.33 191.36c-7.195 4.272-15.274 2.684-19.701-3.872l-240.71-356.49c-3.727-5.519-4.137-13.517-1.058-20.628l177.74-410.5c4.062-9.383 13.047-14.717 20.995-12.465z" opacity=".75758" stroke="url(#ab)"/>
<path d="m338.33-298.96 345.5 106.36c5.975 1.839 10.054 7.639 10.536 14.98l31.291 476.93c0.576 8.78-4.097 17.76-11.39 21.889l-323.88 183.32c-7.293 4.129-15.385 2.373-19.721-4.279l-235.54-361.32c-3.626-5.562-3.921-13.503-0.762-20.513l182.63-405.29c4.212-9.35 13.367-14.531 21.337-12.078z" opacity=".76768" stroke="url(#aa)"/>
<path d="m339.74-298.79 343.2 114.1c5.927 1.97 9.903 7.811 10.286 15.107l24.994 476.63c0.461 8.783-4.364 17.673-11.752 21.653l-325.31 175.26c-7.389 3.981-15.49 2.056-19.735-4.689l-230.32-366.01c-3.525-5.603-3.707-13.487-0.47-20.395l187.44-399.98c4.362-9.311 13.683-14.332 21.672-11.676z" opacity=".77778" stroke="url(#z)"/>
<path d="m341.15-298.48 340.8 121.77c5.877 2.1 9.753 7.981 10.038 15.232l18.715 476.18c0.345 8.785-4.629 17.578-12.111 21.408l-326.64 167.2c-7.481 3.829-15.59 1.733-19.742-5.103l-225.04-370.57c-3.427-5.643-3.498-13.471-0.184-20.276l192.16-394.58c4.513-9.266 13.996-14.12 21.999-11.26z" opacity=".78788" stroke="url(#y)"/>
<path d="m342.56-298.05 338.31 129.36c5.828 2.228 9.603 8.148 9.792 15.354l12.454 475.58c0.23 8.785-4.891 17.476-12.463 21.151l-327.86 159.12c-7.572 3.675-15.685 1.406-19.743-5.52l-219.71-374.99c-3.33-5.682-3.291-13.453 0.099-20.155l196.8-389.07c4.661-9.214 14.303-13.893 22.315-10.83z" opacity=".79798" stroke="url(#x)"/>
<path d="m343.98-297.47 335.73 136.87c5.777 2.355 9.453 8.314 9.547 15.475l6.215 474.82c0.115 8.781-5.151 17.367-12.81 20.883l-328.98 151.05c-7.658 3.516-15.772 1.074-19.736-5.94l-214.33-379.27c-3.232-5.72-3.087-13.434 0.378-20.032l201.36-383.47c4.809-9.158 14.605-13.656 22.622-10.387z" opacity=".80808" stroke="url(#w)"/>
<path d="m345.4-296.77 333.05 144.3c5.725 2.48 9.303 8.478 9.303 15.594v473.92c0 8.775-5.41 17.251-13.151 20.605l-329.99 142.97c-7.742 3.354-15.854 0.737-19.723-6.362l-208.9-383.41c-3.137-5.757-2.886-13.414 0.653-19.908l205.84-377.78c4.955-9.095 14.9-13.404 22.918-9.93z" opacity=".81818" stroke="url(#u)"/>
<path d="m346.81-295.93 330.29 151.65c5.673 2.605 9.154 8.641 9.062 15.712l-6.19 472.87c-0.115 8.768-5.665 17.129-13.487 20.317l-330.89 134.9c-7.822 3.189-15.929 0.396-19.701-6.787l-203.43-387.41c-3.042-5.7934-2.687-13.394 0.924-19.783l210.22-372.01c5.101-9.025 15.19-13.138 23.203-9.459z" opacity=".82828" stroke="url(#t)"/>
<path d="m348.22-294.95 327.43 158.92c5.62 2.728 9.005 8.803 8.821 15.829l-12.352 471.67c-0.229 8.757-5.917 16.998-13.815 20.019l-331.69 126.83c-7.899 3.02-15.998 0.05-19.672-7.215l-197.92-391.27c-2.948-5.8288-2.491-13.373 1.191-19.657l214.53-366.14c5.244-8.951 15.472-12.862 23.476-8.977z" opacity=".83838" stroke="url(#s)"/>
<path d="m349.63-293.84 324.49 166.1c5.567 2.849 8.857 8.962 8.583 15.945l-18.484 470.32c-0.344 8.745-6.167 16.863-14.138 19.712l-332.39 118.76c-7.971 2.848-16.058-0.3-19.634-7.644l-192.36-394.98c-2.856-5.8639-2.298-13.352 1.454-19.531l218.74-360.19c5.387-8.869 15.746-12.571 23.737-8.481z" opacity=".84848" stroke="url(#r)"/>
<path d="m351.02-292.6 321.47 173.19c5.513 2.97 8.709 9.121 8.346 16.06l-24.585 468.82c-0.458 8.73-6.413 16.72-14.454 19.393l-332.98 110.71c-8.041 2.673-16.112-0.654-19.589-8.076l-186.77-398.55c-2.7639-5.8984-2.107-13.331 1.715-19.404l222.86-354.16c5.526-8.782 16.012-12.268 23.983-7.974z" opacity=".85859" stroke="url(#q)"/>
<path d="m352.41-291.23 318.36 180.2c5.458 3.09 8.561 9.279 8.109 16.174l-30.652 467.18c-0.571 8.713-6.655 16.571-14.761 19.067l-333.47 102.66c-8.105 2.496-16.157-1.011-19.535-8.508l-181.13-401.98c-2.6732-5.9325-1.9187-13.31 1.9717-19.277l226.9-348.06c5.664-8.689 16.269-11.953 24.216-7.455z" opacity=".86869" stroke="url(#p)"/>
<path d="m353.79-289.73 315.17 187.11c5.404 3.2078 8.415 9.4356 7.875 16.287l-36.683 465.39c-0.685 8.694-6.895 16.416-15.061 18.731l-333.86 94.628c-8.167 2.315-16.195-1.372-19.472-8.942l-175.47-405.26c-2.5833-5.9664-1.7324-13.289 2.2254-19.15l230.85-341.87c5.799-8.588 16.517-11.626 24.434-6.925z" opacity=".87879" stroke="url(#o)"/>
<path d="m355.15-288.1 311.89 193.94c5.348 3.3254 8.268 9.5918 7.641 16.401l-42.676 463.46c-0.798 8.672-7.13 16.254-15.354 18.386l-334.15 86.611c-8.223 2.132-16.224-1.736-19.4-9.377l-169.77-408.4c-2.4942-6-1.548-13.268 2.4765-19.023l234.7-335.61c5.932-8.483 16.754-11.288 24.638-6.386z" opacity=".88889" stroke="url(#n)"/>
<path d="m356.49-286.34 308.54 200.67c5.292 3.442 8.12 9.7473 7.407 16.514l-48.629 461.39c-0.911 8.649-7.362 16.087-15.637 18.033l-334.34 78.612c-8.276 1.946-16.246-2.102-19.32-9.813l-164.04-411.39c-2.4058-6.0335-1.3654-13.248 2.725-18.896l238.47-329.28c6.062-8.371 16.981-10.938 24.825-5.837z" opacity=".89899" stroke="url(#m)"/>
<path d="m357.82-284.45 305.12 207.3c5.236 3.5577 7.974 9.9022 7.175 16.627l-54.54 459.18c-1.024 8.622-7.59 15.914-15.913 17.672l-334.43 70.631c-8.323 1.758-16.258-2.471-19.23-10.249l-158.28-414.23c-2.3182-6.0669-1.1846-13.229 2.9709-18.77l242.14-322.88c6.189-8.254 17.197-10.579 24.996-5.28z" opacity=".90909" stroke="url(#l)"/>
<path d="m359.13-282.44 301.61 213.84c5.18 3.6725 7.828 10.057 6.944 16.741l-60.408 456.83c-1.136 8.594-7.814 15.735-16.18 17.303l-334.43 62.673c-8.366 1.568-16.261-2.842-19.13-10.685l-152.5-416.93c-2.2313-6.1004-1.0055-13.211 3.2145-18.645l245.72-316.42c6.314-8.13 17.401-10.208 25.151-4.713z" opacity=".91919" stroke="url(#j)"/>
<path d="m360.42-280.3 298.03 220.29c5.123 3.7866 7.681 10.211 6.713 16.855l-66.23 454.34c-1.248 8.563-8.033 15.55-16.437 16.926l-334.32 54.738c-8.404 1.376-16.255-3.215-19.02-11.121l-146.69-419.48c-2.145-6.134-0.8278-13.193 3.4559-18.52l249.21-309.89c6.435-8.002 17.594-9.829 25.289-4.141z" opacity=".92929" stroke="url(#i)"/>
<path d="m361.68-278.04 294.38 226.63c5.066 3.8998 7.536 10.365 6.483 16.969l-72.004 451.71c-1.36 8.531-8.249 15.361-16.686 16.543l-334.12 46.828c-8.437 1.183-16.241-3.588-18.901-11.555l-140.86-421.88c-2.0594-6.1677-0.6514-13.176 3.6954-18.395l252.61-303.3c6.552-7.867 17.773-9.439 25.409-3.561z" opacity=".93939" stroke="url(#h)"/>
<path d="m362.92-275.65 290.66 232.88c5.008 4.0124 7.389 10.519 6.253 17.083l-77.729 448.95c-1.471 8.495-8.46 15.165-16.925 16.153l-333.83 38.945c-8.466 0.987-16.217-3.963-18.772-11.989l-135.01-424.13c-1.9742-6.2017-0.4762-13.16 3.9331-18.272l255.91-296.64c6.666-7.726 17.941-9.042 25.511-2.976z" opacity=".9495" stroke="url(#g)"/>
<path d="m364.14-273.14 286.86 239.02c4.949 4.1244 7.243 10.673 6.022 17.198l-83.402 446.05c-1.582 8.458-8.666 14.965-17.155 15.757l-333.44 31.091c-8.488 0.791-16.183-4.338-18.632-12.42l-129.15-426.23c-1.8894-6.236-0.3021-13.146 4.1692-18.149l259.12-289.93c6.776-7.582 18.094-8.637 25.595-2.387z" opacity=".9596" stroke="url(#f)"/>
<path d="m365.33-270.51 283 245.07c4.892 4.2359 7.097 10.827 5.793 17.314l-89.023 443.03c-1.692 8.419-8.867 14.761-17.374 15.355l-332.96 23.268c-8.507 0.594-16.14-4.713-18.483-12.85l-123.26-428.19c-1.8051-6.2706-0.1287-13.133 4.4039-18.027l262.24-283.17c6.881-7.431 18.234-8.225 25.66-1.794z" opacity=".9697" stroke="url(#e)"/>
<path d="m363.52-267.77 279.07 251.01c4.833 4.3467 6.95 10.981 5.563 17.431l-94.589 439.87c-1.801 8.378-9.064 14.552-17.584 14.949l-332.38 15.477c-8.52 0.397-16.089-5.087-18.324-13.276l-117.37-430c-1.7211-6.3056 0.0438-13.12 4.6374-17.906l265.26-276.35c6.984-7.276 18.361-7.806 25.708-1.197z" opacity=".9798" stroke="url(#d)"/>
<path d="m361.68-264.9 275.08 256.84c4.773 4.4571 6.803 11.135 5.332 17.548l-100.1 436.58c-1.911 8.334-9.257 14.339-17.785 14.537l-331.71 7.721c-8.528 0.198-16.026-5.461-18.154-13.7l-111.46-431.66c-1.6374-6.341 0.2158-13.109 4.8698-17.786l268.19-269.49c7.081-7.116 18.473-7.381 25.736-0.599z" opacity=".9899" stroke="url(#c)"/>
<path d="m362.78-261.92 271.02 262.57c4.714 4.567 6.656 11.29 5.102 17.667l-105.55 433.16c-2.02 8.288-9.444 14.12-17.974 14.12h-330.95c-8.531 0-15.955-5.832-17.974-14.12l-105.55-433.16c-1.5538-6.3769 0.3874-13.1 5.1015-17.667l271.02-262.57c7.174-6.951 18.571-6.951 25.745 0z" stroke="url(#b)"/>
</g>
</g>
<defs>
<linearGradient id="cu" x1="789.87" x2="681.02" y1="244.62" y2="-336.25" gradientUnits="userSpaceOnUse">
<stop stop-color="#9CCBF0" offset="0"/>
<stop stop-color="#D5F8F9" offset="1"/>
</linearGradient>
<linearGradient id="cj" x1="781.92" x2="686.45" y1="246.6" y2="-336.56" gradientUnits="userSpaceOnUse">
<stop stop-color="#9CCBF0" offset="0"/>
<stop stop-color="#D5F8F9" offset="1"/>
</linearGradient>
<linearGradient id="by" x1="773.98" x2="691.99" y1="248.49" y2="-336.52" gradientUnits="userSpaceOnUse">
<stop stop-color="#9CCBF0" offset="0"/>
<stop stop-color="#D5F8F9" offset="1"/>
</linearGradient>
<linearGradient id="bn" x1="766.05" x2="697.63" y1="250.29" y2="-336.14" gradientUnits="userSpaceOnUse">
<stop stop-color="#9CCBF0" offset="0"/>
<stop stop-color="#D5F8F9" offset="1"/>
</linearGradient>
<linearGradient id="bc" x1="758.12" x2="703.35" y1="252" y2="-335.4" gradientUnits="userSpaceOnUse">
<stop stop-color="#9CCBF0" offset="0"/>
<stop stop-color="#D5F8F9" offset="1"/>
</linearGradient>
<linearGradient id="ar" x1="750.2" x2="709.11" y1="253.62" y2="-334.3" gradientUnits="userSpaceOnUse">
<stop stop-color="#9CCBF0" offset="0"/>
<stop stop-color="#D5F8F9" offset="1"/>
</linearGradient>
<linearGradient id="ag" x1="742.29" x2="714.91" y1="255.15" y2="-332.82" gradientUnits="userSpaceOnUse">
<stop stop-color="#9CCBF0" offset="0"/>
<stop stop-color="#D5F8F9" offset="1"/>
</linearGradient>
<linearGradient id="v" x1="734.39" x2="720.72" y1="256.6" y2="-330.98" gradientUnits="userSpaceOnUse">
<stop stop-color="#9CCBF0" offset="0"/>
<stop stop-color="#D5F8F9" offset="1"/>
</linearGradient>
<linearGradient id="k" x1="726.51" x2="726.51" y1="257.95" y2="-328.76" gradientUnits="userSpaceOnUse">
<stop stop-color="#9CCBF0" offset="0"/>
<stop stop-color="#D5F8F9" offset="1"/>
</linearGradient>
<linearGradient id="a" x1="718.64" x2="732.26" y1="259.22" y2="-326.18" gradientUnits="userSpaceOnUse">
<stop stop-color="#9CCBF0" offset="0"/>
<stop stop-color="#D5F8F9" offset="1"/>
</linearGradient>
<linearGradient id="ct" x1="710.78" x2="737.96" y1="260.4" y2="-323.23" gradientUnits="userSpaceOnUse">
<stop stop-color="#9CCBF0" offset="0"/>
<stop stop-color="#D5F8F9" offset="1"/>
</linearGradient>
<linearGradient id="cs" x1="702.94" x2="743.57" y1="261.49" y2="-319.93" gradientUnits="userSpaceOnUse">
<stop stop-color="#9CCBF0" offset="0"/>
<stop stop-color="#D5F8F9" offset="1"/>
</linearGradient>
<linearGradient id="cr" x1="695.11" x2="749.08" y1="262.5" y2="-316.26" gradientUnits="userSpaceOnUse">
<stop stop-color="#9CCBF0" offset="0"/>
<stop stop-color="#D5F8F9" offset="1"/>
</linearGradient>
<linearGradient id="cq" x1="687.31" x2="754.47" y1="263.42" y2="-312.25" gradientUnits="userSpaceOnUse">
<stop stop-color="#9CCBF0" offset="0"/>
<stop stop-color="#D5F8F9" offset="1"/>
</linearGradient>
<linearGradient id="cp" x1="679.52" x2="759.71" y1="264.26" y2="-307.89" gradientUnits="userSpaceOnUse">
<stop stop-color="#9CCBF0" offset="0"/>
<stop stop-color="#D5F8F9" offset="1"/>
</linearGradient>
<linearGradient id="co" x1="671.76" x2="764.79" y1="265.02" y2="-303.21" gradientUnits="userSpaceOnUse">
<stop stop-color="#9CCBF0" offset="0"/>
<stop stop-color="#D5F8F9" offset="1"/>
</linearGradient>
<linearGradient id="cn" x1="664.01" x2="769.69" y1="265.68" y2="-298.22" gradientUnits="userSpaceOnUse">
<stop stop-color="#9CCBF0" offset="0"/>
<stop stop-color="#D5F8F9" offset="1"/>
</linearGradient>
<linearGradient id="cm" x1="656.29" x2="774.39" y1="266.27" y2="-292.92" gradientUnits="userSpaceOnUse">
<stop stop-color="#9CCBF0" offset="0"/>
<stop stop-color="#D5F8F9" offset="1"/>
</linearGradient>
<linearGradient id="cl" x1="648.59" x2="778.88" y1="266.78" y2="-287.33" gradientUnits="userSpaceOnUse">
<stop stop-color="#9CCBF0" offset="0"/>
<stop stop-color="#D5F8F9" offset="1"/>
</linearGradient>
<linearGradient id="ck" x1="640.92" x2="783.14" y1="267.19" y2="-281.47" gradientUnits="userSpaceOnUse">
<stop stop-color="#9CCBF0" offset="0"/>
<stop stop-color="#D5F8F9" offset="1"/>
</linearGradient>
<linearGradient id="ci" x1="633.27" x2="787.15" y1="267.54" y2="-275.34" gradientUnits="userSpaceOnUse">
<stop stop-color="#9CCBF0" offset="0"/>
<stop stop-color="#D5F8F9" offset="1"/>
</linearGradient>
<linearGradient id="ch" x1="625.66" x2="790.9" y1="267.8" y2="-268.98" gradientUnits="userSpaceOnUse">
<stop stop-color="#9CCBF0" offset="0"/>
<stop stop-color="#D5F8F9" offset="1"/>
</linearGradient>
<linearGradient id="cg" x1="618.06" x2="794.4" y1="267.98" y2="-262.4" gradientUnits="userSpaceOnUse">
<stop stop-color="#9CCBF0" offset="0"/>
<stop stop-color="#D5F8F9" offset="1"/>
</linearGradient>
<linearGradient id="cf" x1="610.5" x2="797.61" y1="268.08" y2="-255.6" gradientUnits="userSpaceOnUse">
<stop stop-color="#9CCBF0" offset="0"/>
<stop stop-color="#D5F8F9" offset="1"/>
</linearGradient>
<linearGradient id="ce" x1="602.97" x2="800.54" y1="268.11" y2="-248.62" gradientUnits="userSpaceOnUse">
<stop stop-color="#9CCBF0" offset="0"/>
<stop stop-color="#D5F8F9" offset="1"/>
</linearGradient>
<linearGradient id="cd" x1="595.46" x2="803.18" y1="268.06" y2="-241.47" gradientUnits="userSpaceOnUse">
<stop stop-color="#9CCBF0" offset="0"/>
<stop stop-color="#D5F8F9" offset="1"/>
</linearGradient>
<linearGradient id="cc" x1="587.99" x2="805.53" y1="267.93" y2="-234.16" gradientUnits="userSpaceOnUse">
<stop stop-color="#9CCBF0" offset="0"/>
<stop stop-color="#D5F8F9" offset="1"/>
</linearGradient>
<linearGradient id="cb" x1="580.55" x2="807.58" y1="267.73" y2="-226.72" gradientUnits="userSpaceOnUse">
<stop stop-color="#9CCBF0" offset="0"/>
<stop stop-color="#D5F8F9" offset="1"/>
</linearGradient>
<linearGradient id="ca" x1="573.15" x2="809.32" y1="267.46" y2="-219.17" gradientUnits="userSpaceOnUse">
<stop stop-color="#9CCBF0" offset="0"/>
<stop stop-color="#D5F8F9" offset="1"/>
</linearGradient>
<linearGradient id="bz" x1="565.78" x2="810.77" y1="267.11" y2="-211.51" gradientUnits="userSpaceOnUse">
<stop stop-color="#9CCBF0" offset="0"/>
<stop stop-color="#D5F8F9" offset="1"/>
</linearGradient>
<linearGradient id="bx" x1="558.44" x2="811.9" y1="266.68" y2="-203.78" gradientUnits="userSpaceOnUse">
<stop stop-color="#9CCBF0" offset="0"/>
<stop stop-color="#D5F8F9" offset="1"/>
</linearGradient>
<linearGradient id="bw" x1="551.14" x2="812.74" y1="266.19" y2="-195.98" gradientUnits="userSpaceOnUse">
<stop stop-color="#9CCBF0" offset="0"/>
<stop stop-color="#D5F8F9" offset="1"/>
</linearGradient>
<linearGradient id="bv" x1="543.88" x2="813.28" y1="265.63" y2="-188.13" gradientUnits="userSpaceOnUse">
<stop stop-color="#9CCBF0" offset="0"/>
<stop stop-color="#D5F8F9" offset="1"/>
</linearGradient>
<linearGradient id="bu" x1="536.66" x2="813.52" y1="264.99" y2="-180.26" gradientUnits="userSpaceOnUse">
<stop stop-color="#9CCBF0" offset="0"/>
<stop stop-color="#D5F8F9" offset="1"/>
</linearGradient>
<linearGradient id="bt" x1="529.48" x2="813.46" y1="264.3" y2="-172.36" gradientUnits="userSpaceOnUse">
<stop stop-color="#9CCBF0" offset="0"/>
<stop stop-color="#D5F8F9" offset="1"/>
</linearGradient>
<linearGradient id="bs" x1="522.33" x2="813.12" y1="263.53" y2="-164.46" gradientUnits="userSpaceOnUse">
<stop stop-color="#9CCBF0" offset="0"/>
<stop stop-color="#D5F8F9" offset="1"/>
</linearGradient>
<linearGradient id="br" x1="515.23" x2="812.5" y1="262.7" y2="-156.58" gradientUnits="userSpaceOnUse">
<stop stop-color="#9CCBF0" offset="0"/>
<stop stop-color="#D5F8F9" offset="1"/>
</linearGradient>
<linearGradient id="bq" x1="508.16" x2="811.6" y1="261.8" y2="-148.72" gradientUnits="userSpaceOnUse">
<stop stop-color="#9CCBF0" offset="0"/>
<stop stop-color="#D5F8F9" offset="1"/>
</linearGradient>
<linearGradient id="bp" x1="501.14" x2="810.43" y1="260.84" y2="-140.9" gradientUnits="userSpaceOnUse">
<stop stop-color="#9CCBF0" offset="0"/>
<stop stop-color="#D5F8F9" offset="1"/>
</linearGradient>
<linearGradient id="bo" x1="494.16" x2="809" y1="259.81" y2="-133.13" gradientUnits="userSpaceOnUse">
<stop stop-color="#9CCBF0" offset="0"/>
<stop stop-color="#D5F8F9" offset="1"/>
</linearGradient>
<linearGradient id="bm" x1="487.23" x2="807.31" y1="258.72" y2="-125.42" gradientUnits="userSpaceOnUse">
<stop stop-color="#9CCBF0" offset="0"/>
<stop stop-color="#D5F8F9" offset="1"/>
</linearGradient>
<linearGradient id="bl" x1="480.34" x2="805.38" y1="257.58" y2="-117.78" gradientUnits="userSpaceOnUse">
<stop stop-color="#9CCBF0" offset="0"/>
<stop stop-color="#D5F8F9" offset="1"/>
</linearGradient>
<linearGradient id="bk" x1="473.5" x2="803.22" y1="256.37" y2="-110.22" gradientUnits="userSpaceOnUse">
<stop stop-color="#9CCBF0" offset="0"/>
<stop stop-color="#D5F8F9" offset="1"/>
</linearGradient>
<linearGradient id="bj" x1="466.7" x2="800.83" y1="255.11" y2="-102.74" gradientUnits="userSpaceOnUse">
<stop stop-color="#9CCBF0" offset="0"/>
<stop stop-color="#D5F8F9" offset="1"/>
</linearGradient>
<linearGradient id="bi" x1="459.95" x2="798.22" y1="253.79" y2="-95.366" gradientUnits="userSpaceOnUse">
<stop stop-color="#9CCBF0" offset="0"/>
<stop stop-color="#D5F8F9" offset="1"/>
</linearGradient>
<linearGradient id="bh" x1="453.24" x2="795.4" y1="252.42" y2="-88.089" gradientUnits="userSpaceOnUse">
<stop stop-color="#9CCBF0" offset="0"/>
<stop stop-color="#D5F8F9" offset="1"/>
</linearGradient>
<linearGradient id="bg" x1="446.59" x2="792.38" y1="250.99" y2="-80.926" gradientUnits="userSpaceOnUse">
<stop stop-color="#9CCBF0" offset="0"/>
<stop stop-color="#D5F8F9" offset="1"/>
</linearGradient>
<linearGradient id="bf" x1="439.98" x2="789.17" y1="249.5" y2="-73.878" gradientUnits="userSpaceOnUse">
<stop stop-color="#9CCBF0" offset="0"/>
<stop stop-color="#D5F8F9" offset="1"/>
</linearGradient>
<linearGradient id="be" x1="433.42" x2="785.78" y1="247.97" y2="-66.946" gradientUnits="userSpaceOnUse">
<stop stop-color="#9CCBF0" offset="0"/>
<stop stop-color="#D5F8F9" offset="1"/>
</linearGradient>
<linearGradient id="bd" x1="426.91" x2="782.22" y1="246.38" y2="-60.14" gradientUnits="userSpaceOnUse">
<stop stop-color="#9CCBF0" offset="0"/>
<stop stop-color="#D5F8F9" offset="1"/>
</linearGradient>
<linearGradient id="bb" x1="420.45" x2="778.5" y1="244.75" y2="-53.46" gradientUnits="userSpaceOnUse">
<stop stop-color="#9CCBF0" offset="0"/>
<stop stop-color="#D5F8F9" offset="1"/>
</linearGradient>
<linearGradient id="ba" x1="414.05" x2="774.63" y1="243.07" y2="-46.911" gradientUnits="userSpaceOnUse">
<stop stop-color="#9CCBF0" offset="0"/>
<stop stop-color="#D5F8F9" offset="1"/>
</linearGradient>
<linearGradient id="az" x1="407.69" x2="770.61" y1="241.34" y2="-40.495" gradientUnits="userSpaceOnUse">
<stop stop-color="#9CCBF0" offset="0"/>
<stop stop-color="#D5F8F9" offset="1"/>
</linearGradient>
<linearGradient id="ay" x1="401.38" x2="766.46" y1="239.57" y2="-34.218" gradientUnits="userSpaceOnUse">
<stop stop-color="#9CCBF0" offset="0"/>
<stop stop-color="#D5F8F9" offset="1"/>
</linearGradient>
<linearGradient id="ax" x1="395.13" x2="762.19" y1="237.75" y2="-28.072" gradientUnits="userSpaceOnUse">
<stop stop-color="#9CCBF0" offset="0"/>
<stop stop-color="#D5F8F9" offset="1"/>
</linearGradient>
<linearGradient id="aw" x1="388.93" x2="757.8" y1="235.89" y2="-22.064" gradientUnits="userSpaceOnUse">
<stop stop-color="#9CCBF0" offset="0"/>
<stop stop-color="#D5F8F9" offset="1"/>
</linearGradient>
<linearGradient id="av" x1="382.79" x2="753.3" y1="233.99" y2="-16.197" gradientUnits="userSpaceOnUse">
<stop stop-color="#9CCBF0" offset="0"/>
<stop stop-color="#D5F8F9" offset="1"/>
</linearGradient>
<linearGradient id="au" x1="376.69" x2="748.7" y1="232.05" y2="-10.464" gradientUnits="userSpaceOnUse">
<stop stop-color="#9CCBF0" offset="0"/>
<stop stop-color="#D5F8F9" offset="1"/>
</linearGradient>
<linearGradient id="at" x1="370.66" x2="744.01" y1="230.07" y2="-4.8704" gradientUnits="userSpaceOnUse">
<stop stop-color="#9CCBF0" offset="0"/>
<stop stop-color="#D5F8F9" offset="1"/>
</linearGradient>
<linearGradient id="as" x1="364.67" x2="739.24" y1="228.05" y2=".58769" gradientUnits="userSpaceOnUse">
<stop stop-color="#9CCBF0" offset="0"/>
<stop stop-color="#D5F8F9" offset="1"/>
</linearGradient>
<linearGradient id="aq" x1="358.74" x2="734.38" y1="226" y2="5.9062" gradientUnits="userSpaceOnUse">
<stop stop-color="#9CCBF0" offset="0"/>
<stop stop-color="#D5F8F9" offset="1"/>
</linearGradient>
<linearGradient id="ap" x1="352.87" x2="729.46" y1="223.91" y2="11.092" gradientUnits="userSpaceOnUse">
<stop stop-color="#9CCBF0" offset="0"/>
<stop stop-color="#D5F8F9" offset="1"/>
</linearGradient>
<linearGradient id="ao" x1="347.05" x2="724.48" y1="221.79" y2="16.145" gradientUnits="userSpaceOnUse">
<stop stop-color="#9CCBF0" offset="0"/>
<stop stop-color="#D5F8F9" offset="1"/>
</linearGradient>
<linearGradient id="an" x1="341.29" x2="719.45" y1="219.64" y2="21.069" gradientUnits="userSpaceOnUse">
<stop stop-color="#9CCBF0" offset="0"/>
<stop stop-color="#D5F8F9" offset="1"/>
</linearGradient>
<linearGradient id="am" x1="335.58" x2="714.36" y1="217.46" y2="25.861" gradientUnits="userSpaceOnUse">
<stop stop-color="#9CCBF0" offset="0"/>
<stop stop-color="#D5F8F9" offset="1"/>
</linearGradient>
<linearGradient id="al" x1="329.93" x2="709.23" y1="215.25" y2="30.525" gradientUnits="userSpaceOnUse">
<stop stop-color="#9CCBF0" offset="0"/>
<stop stop-color="#D5F8F9" offset="1"/>
</linearGradient>
<linearGradient id="ak" x1="324.34" x2="704.06" y1="213.01" y2="35.07" gradientUnits="userSpaceOnUse">
<stop stop-color="#9CCBF0" offset="0"/>
<stop stop-color="#D5F8F9" offset="1"/>
</linearGradient>
<linearGradient id="aj" x1="318.81" x2="698.87" y1="210.75" y2="39.489" gradientUnits="userSpaceOnUse">
<stop stop-color="#9CCBF0" offset="0"/>
<stop stop-color="#D5F8F9" offset="1"/>
</linearGradient>
<linearGradient id="ai" x1="313.33" x2="693.65" y1="208.46" y2="43.79" gradientUnits="userSpaceOnUse">
<stop stop-color="#9CCBF0" offset="0"/>
<stop stop-color="#D5F8F9" offset="1"/>
</linearGradient>
<linearGradient id="ah" x1="307.91" x2="688.4" y1="206.14" y2="47.976" gradientUnits="userSpaceOnUse">
<stop stop-color="#9CCBF0" offset="0"/>
<stop stop-color="#D5F8F9" offset="1"/>
</linearGradient>
<linearGradient id="af" x1="302.54" x2="683.14" y1="203.82" y2="52.052" gradientUnits="userSpaceOnUse">
<stop stop-color="#9CCBF0" offset="0"/>
<stop stop-color="#D5F8F9" offset="1"/>
</linearGradient>
<linearGradient id="ae" x1="297.24" x2="677.88" y1="201.46" y2="56.016" gradientUnits="userSpaceOnUse">
<stop stop-color="#9CCBF0" offset="0"/>
<stop stop-color="#D5F8F9" offset="1"/>
</linearGradient>
<linearGradient id="ad" x1="291.99" x2="672.6" y1="199.09" y2="59.875" gradientUnits="userSpaceOnUse">
<stop stop-color="#9CCBF0" offset="0"/>
<stop stop-color="#D5F8F9" offset="1"/>
</linearGradient>
<linearGradient id="ac" x1="286.8" x2="667.32" y1="196.7" y2="63.634" gradientUnits="userSpaceOnUse">
<stop stop-color="#9CCBF0" offset="0"/>
<stop stop-color="#D5F8F9" offset="1"/>
</linearGradient>
<linearGradient id="ab" x1="281.67" x2="662.04" y1="194.29" y2="67.291" gradientUnits="userSpaceOnUse">
<stop stop-color="#9CCBF0" offset="0"/>
<stop stop-color="#D5F8F9" offset="1"/>
</linearGradient>
<linearGradient id="aa" x1="276.6" x2="656.77" y1="191.87" y2="70.853" gradientUnits="userSpaceOnUse">
<stop stop-color="#9CCBF0" offset="0"/>
<stop stop-color="#D5F8F9" offset="1"/>
</linearGradient>
<linearGradient id="z" x1="271.59" x2="651.51" y1="189.44" y2="74.327" gradientUnits="userSpaceOnUse">
<stop stop-color="#9CCBF0" offset="0"/>
<stop stop-color="#D5F8F9" offset="1"/>
</linearGradient>
<linearGradient id="y" x1="266.64" x2="646.26" y1="186.99" y2="77.712" gradientUnits="userSpaceOnUse">
<stop stop-color="#9CCBF0" offset="0"/>
<stop stop-color="#D5F8F9" offset="1"/>
</linearGradient>
<linearGradient id="x" x1="261.74" x2="641.02" y1="184.54" y2="81.011" gradientUnits="userSpaceOnUse">
<stop stop-color="#9CCBF0" offset="0"/>
<stop stop-color="#D5F8F9" offset="1"/>
</linearGradient>
<linearGradient id="w" x1="256.9" x2="635.8" y1="182.08" y2="84.234" gradientUnits="userSpaceOnUse">
<stop stop-color="#9CCBF0" offset="0"/>
<stop stop-color="#D5F8F9" offset="1"/>
</linearGradient>
<linearGradient id="u" x1="252.12" x2="630.6" y1="179.6" y2="87.376" gradientUnits="userSpaceOnUse">
<stop stop-color="#9CCBF0" offset="0"/>
<stop stop-color="#D5F8F9" offset="1"/>
</linearGradient>
<linearGradient id="t" x1="247.4" x2="625.43" y1="177.12" y2="90.448" gradientUnits="userSpaceOnUse">
<stop stop-color="#9CCBF0" offset="0"/>
<stop stop-color="#D5F8F9" offset="1"/>
</linearGradient>
<linearGradient id="s" x1="242.74" x2="620.28" y1="174.64" y2="93.452" gradientUnits="userSpaceOnUse">
<stop stop-color="#9CCBF0" offset="0"/>
<stop stop-color="#D5F8F9" offset="1"/>
</linearGradient>
<linearGradient id="r" x1="238.13" x2="615.16" y1="172.16" y2="96.393" gradientUnits="userSpaceOnUse">
<stop stop-color="#9CCBF0" offset="0"/>
<stop stop-color="#D5F8F9" offset="1"/>
</linearGradient>
<linearGradient id="q" x1="233.59" x2="610.07" y1="169.67" y2="99.271" gradientUnits="userSpaceOnUse">
<stop stop-color="#9CCBF0" offset="0"/>
<stop stop-color="#D5F8F9" offset="1"/>
</linearGradient>
<linearGradient id="p" x1="229.1" x2="605.01" y1="167.18" y2="102.09" gradientUnits="userSpaceOnUse">
<stop stop-color="#9CCBF0" offset="0"/>
<stop stop-color="#D5F8F9" offset="1"/>
</linearGradient>
<linearGradient id="o" x1="224.67" x2="599.99" y1="164.69" y2="104.87" gradientUnits="userSpaceOnUse">
<stop stop-color="#9CCBF0" offset="0"/>
<stop stop-color="#D5F8F9" offset="1"/>
</linearGradient>
<linearGradient id="n" x1="220.3" x2="595" y1="162.2" y2="107.58" gradientUnits="userSpaceOnUse">
<stop stop-color="#9CCBF0" offset="0"/>
<stop stop-color="#D5F8F9" offset="1"/>
</linearGradient>
<linearGradient id="m" x1="215.98" x2="590.04" y1="159.72" y2="110.26" gradientUnits="userSpaceOnUse">
<stop stop-color="#9CCBF0" offset="0"/>
<stop stop-color="#D5F8F9" offset="1"/>
</linearGradient>
<linearGradient id="l" x1="211.73" x2="585.12" y1="157.25" y2="112.9" gradientUnits="userSpaceOnUse">
<stop stop-color="#9CCBF0" offset="0"/>
<stop stop-color="#D5F8F9" offset="1"/>
</linearGradient>
<linearGradient id="j" x1="207.53" x2="580.24" y1="154.78" y2="115.5" gradientUnits="userSpaceOnUse">
<stop stop-color="#9CCBF0" offset="0"/>
<stop stop-color="#D5F8F9" offset="1"/>
</linearGradient>
<linearGradient id="i" x1="203.39" x2="575.4" y1="152.32" y2="118.06" gradientUnits="userSpaceOnUse">
<stop stop-color="#9CCBF0" offset="0"/>
<stop stop-color="#D5F8F9" offset="1"/>
</linearGradient>
<linearGradient id="h" x1="199.3" x2="570.6" y1="149.86" y2="120.6" gradientUnits="userSpaceOnUse">
<stop stop-color="#9CCBF0" offset="0"/>
<stop stop-color="#D5F8F9" offset="1"/>
</linearGradient>
<linearGradient id="g" x1="195.27" x2="565.83" y1="147.42" y2="123.11" gradientUnits="userSpaceOnUse">
<stop stop-color="#9CCBF0" offset="0"/>
<stop stop-color="#D5F8F9" offset="1"/>
</linearGradient>
<linearGradient id="f" x1="191.3" x2="561.11" y1="144.99" y2="125.6" gradientUnits="userSpaceOnUse">
<stop stop-color="#9CCBF0" offset="0"/>
<stop stop-color="#D5F8F9" offset="1"/>
</linearGradient>
<linearGradient id="e" x1="187.39" x2="556.43" y1="142.57" y2="128.07" gradientUnits="userSpaceOnUse">
<stop stop-color="#9CCBF0" offset="0"/>
<stop stop-color="#D5F8F9" offset="1"/>
</linearGradient>
<linearGradient id="d" x1="180.56" x2="548.83" y1="140.17" y2="130.53" gradientUnits="userSpaceOnUse">
<stop stop-color="#9CCBF0" offset="0"/>
<stop stop-color="#D5F8F9" offset="1"/>
</linearGradient>
<linearGradient id="c" x1="173.79" x2="541.27" y1="137.78" y2="132.98" gradientUnits="userSpaceOnUse">
<stop stop-color="#9CCBF0" offset="0"/>
<stop stop-color="#D5F8F9" offset="1"/>
</linearGradient>
<linearGradient id="b" x1="170.04" x2="536.71" y1="135.42" y2="135.42" gradientUnits="userSpaceOnUse">
<stop stop-color="#9CCBF0" offset="0"/>
<stop stop-color="#D5F8F9" offset="1"/>
</linearGradient>
<clipPath id="cv">
<rect transform="translate(483 -406)" width="520" height="885" fill="#fff"/>
</clipPath>
</defs>
</svg>
