<svg width="1434" height="982" viewBox="0 0 1434 982" fill="none" xmlns="http://www.w3.org/2000/svg">
<g opacity="0.3">
<path opacity="0.0144928" d="M1364.44 851.553C1374.43 853.853 1384.73 849.265 1389.71 840.303L1501.84 638.31C1504.78 633.01 1505.51 626.762 1503.87 620.926L1412.74 296.53C1411.46 291.94 1408.77 287.865 1405.07 284.867L1177.12 100.512C1170.4 95.0768 1161.2 93.8683 1153.3 97.3841L970.528 178.76C962.632 182.276 957.373 189.922 956.915 198.554L941.393 491.307C941.14 496.067 942.374 500.789 944.922 504.818L1125.02 789.602C1128.26 794.725 1133.39 798.362 1139.3 799.722L1364.44 851.553Z" stroke="#9CCBF0" stroke-width="4"/>
<path opacity="0.0289855" d="M1328.03 859.972C1337.86 862.768 1348.36 858.738 1353.79 850.08L1475.75 655.868C1478.98 650.727 1480.04 644.518 1478.71 638.595L1405.54 312.914C1404.49 308.249 1402.01 304.026 1398.45 300.833L1182.12 106.818C1175.7 101.054 1166.59 99.3746 1158.53 102.468L972.888 173.728C964.829 176.822 959.181 184.168 958.261 192.751L927.319 481.685C926.81 486.439 927.795 491.234 930.138 495.403L1093.68 786.395C1096.66 791.687 1101.6 795.589 1107.44 797.25L1328.03 859.972Z" stroke="#9CCBF0" stroke-width="4"/>
<path opacity="0.0434783" d="M1291.61 867.223C1301.26 870.505 1311.92 867.041 1317.8 858.712L1449.08 672.751C1452.59 667.785 1453.99 661.631 1452.97 655.637L1397.63 329.654C1396.82 324.925 1394.56 320.566 1391.16 317.186L1186.83 114.214C1180.71 108.138 1171.71 105.993 1163.51 108.658L975.564 169.725C967.365 172.389 961.344 179.415 959.967 187.926L913.964 472.236C913.197 476.97 913.931 481.826 916.061 486.124L1062.9 782.38C1065.6 787.827 1070.34 791.984 1076.1 793.941L1291.61 867.223Z" stroke="#9CCBF0" stroke-width="4"/>
<path opacity="0.057971" d="M1255.26 873.319C1264.7 877.077 1275.5 874.184 1281.8 866.207L1421.87 688.935C1425.65 684.158 1427.38 678.078 1426.67 672.029L1388.99 346.71C1388.44 341.93 1386.4 337.445 1383.17 333.885L1191.17 122.675C1185.38 116.304 1176.52 113.701 1168.2 115.93L978.499 166.76C970.182 168.989 963.807 175.675 961.977 184.088L901.312 462.998C900.289 467.699 900.767 472.602 902.677 477.018L1032.7 777.594C1035.12 783.182 1039.66 787.584 1045.31 789.834L1255.26 873.319Z" stroke="#9CCBF0" stroke-width="4"/>
<path opacity="0.0724638" d="M1219.03 878.274C1228.25 882.493 1239.14 880.177 1245.85 872.573L1394.17 704.397C1398.2 699.823 1400.25 693.834 1399.87 687.748L1379.63 364.039C1379.33 359.222 1377.52 354.622 1374.46 350.891L1195.1 132.171C1189.65 125.523 1180.95 122.47 1172.54 124.258L981.632 164.836C973.222 166.624 966.511 172.953 964.234 181.244L889.347 454.004C888.069 458.658 888.288 463.596 889.972 468.119L1003.14 772.075C1005.27 777.79 1009.58 782.426 1015.13 784.964L1219.03 878.274Z" stroke="#9CCBF0" stroke-width="4"/>
<path opacity="0.0869565" d="M1182.98 882.107C1191.95 886.774 1202.92 885.037 1210 877.827L1366 719.118C1370.29 714.762 1372.66 708.882 1372.6 702.774L1369.52 381.602C1369.48 376.761 1367.9 372.058 1365.03 368.163L1198.57 142.671C1193.47 135.764 1184.95 132.271 1176.47 133.614L984.906 163.954C976.426 165.298 969.4 171.252 966.685 179.398L878.052 445.292C876.521 449.885 876.478 454.844 877.93 459.463L974.252 765.867C976.083 771.693 980.157 776.552 985.575 779.372L1182.98 882.107Z" stroke="#9CCBF0" stroke-width="4"/>
<path opacity="0.101449" d="M1147.19 884.836C1155.88 889.937 1166.89 888.781 1174.33 881.983L1337.43 733.08C1341.95 728.955 1344.64 723.201 1344.9 717.089L1358.67 399.356C1358.88 394.503 1357.55 389.709 1354.86 385.659L1201.51 154.139C1196.78 146.991 1188.46 143.07 1179.93 143.966L988.264 164.111C979.737 165.008 972.416 170.572 969.271 178.549L867.406 436.893C865.624 441.412 865.319 446.378 866.533 451.081L946.06 759.009C947.59 764.932 951.416 770.001 956.693 773.097L1147.19 884.836Z" stroke="#9CCBF0" stroke-width="4"/>
<path opacity="0.115942" d="M1111.69 886.489C1120.09 892.007 1131.11 891.43 1138.88 885.064L1308.49 746.269C1313.23 742.389 1316.23 736.777 1316.81 730.678L1347.06 417.258C1347.52 412.408 1346.44 407.534 1343.96 403.339L1203.89 166.538C1199.53 159.169 1191.44 154.831 1182.89 155.279L991.647 165.302C983.097 165.75 975.504 170.91 971.939 178.694L857.388 428.84C855.359 433.27 854.79 438.231 855.762 443.006L918.601 751.548C919.823 757.551 923.391 762.819 928.512 766.182L1111.69 886.489Z" stroke="#9CCBF0" stroke-width="4"/>
<path opacity="0.130435" d="M1076.56 887.091C1084.65 893.009 1095.64 893.009 1103.72 887.091L1279.22 758.672C1284.17 755.049 1287.47 749.596 1288.38 743.528L1334.69 435.266C1335.41 430.431 1334.58 425.49 1332.31 421.161L1205.65 179.827C1201.68 172.257 1193.83 167.516 1185.28 167.516H995.001C986.452 167.516 978.608 172.257 974.635 179.827L847.975 421.161C845.703 425.49 844.87 430.431 845.596 435.266L891.9 743.528C892.812 749.596 896.111 755.049 901.063 758.672L1076.56 887.091Z" stroke="#9CCBF0" stroke-width="4"/>
<path opacity="0.144928" d="M1041.84 886.673C1049.6 892.973 1060.53 893.546 1068.9 888.091L1249.68 770.282C1254.83 766.926 1258.42 761.649 1259.65 755.627L1321.56 453.339C1322.54 448.533 1321.97 443.538 1319.91 439.084L1206.75 193.965C1203.17 186.215 1195.6 181.084 1187.07 180.637L998.269 170.742C989.744 170.295 981.673 174.606 977.305 181.94L839.143 413.888C836.632 418.103 835.535 423.01 836.012 427.892L865.984 734.996C866.581 741.113 869.602 746.737 874.372 750.613L1041.84 886.673Z" stroke="#9CCBF0" stroke-width="4"/>
<path opacity="0.15942" d="M1007.59 885.267C1014.99 891.931 1025.85 893.071 1034.47 888.093L1219.9 781.088C1225.23 778.011 1229.11 772.925 1230.66 766.968L1307.68 471.433C1308.92 466.669 1308.6 461.633 1306.76 457.065L1207.15 208.906C1203.98 200.996 1196.69 195.49 1188.21 194.599L1001.4 174.965C992.921 174.074 984.647 177.943 979.896 185.02L830.866 407.046C828.122 411.133 826.763 415.993 826.987 420.91L840.875 726C841.155 732.15 843.889 737.931 848.465 742.049L1007.59 885.267Z" stroke="#9CCBF0" stroke-width="4"/>
<path opacity="0.173913" d="M973.856 882.91C980.891 889.917 991.629 891.618 1000.49 887.128L1189.93 791.089C1195.43 788.3 1199.58 783.42 1201.45 777.544L1293.04 489.508C1294.53 484.8 1294.48 479.736 1292.87 475.064L1206.81 224.604C1204.05 216.555 1197.07 210.692 1188.66 209.361L1004.33 180.166C995.928 178.835 987.475 182.253 982.358 189.053L823.116 400.662C820.146 404.609 818.525 409.408 818.494 414.347L816.592 716.588C816.553 722.755 818.992 728.678 823.361 733.03L973.856 882.91Z" stroke="#9CCBF0" stroke-width="4"/>
<path opacity="0.188406" d="M940.686 879.64C947.338 886.97 957.933 889.222 966.991 885.231L1159.82 800.281C1165.47 797.79 1169.89 793.131 1172.07 787.352L1277.65 507.523C1279.4 502.885 1279.61 497.805 1278.24 493.042L1205.7 241.011C1203.35 232.846 1196.69 226.641 1188.38 224.875L1007.03 186.327C998.715 184.56 990.107 187.519 984.64 194.023L815.866 394.762C812.676 398.556 810.797 403.279 810.509 408.228L793.151 706.812C792.793 712.978 794.93 719.029 799.081 723.603L940.686 879.64Z" stroke="#9CCBF0" stroke-width="4"/>
<path opacity="0.202899" d="M908.124 875.497C914.378 883.128 924.801 885.921 934.032 882.439L1129.61 808.664C1135.4 806.48 1140.06 802.056 1142.55 796.392L1261.53 525.436C1263.53 520.881 1264 515.8 1262.87 510.956L1203.78 258.077C1201.85 249.817 1195.53 243.289 1187.34 241.094L1009.43 193.421C1001.23 191.226 992.495 193.719 986.693 199.907L809.086 389.365C805.683 392.994 803.549 397.629 803.004 402.574L770.567 696.719C769.889 702.869 771.717 709.033 775.638 713.818L908.124 875.497Z" stroke="#9CCBF0" stroke-width="4"/>
<path opacity="0.217391" d="M876.214 870.523C882.056 878.434 892.28 881.756 901.655 878.789L1099.34 816.242C1105.25 814.372 1110.15 810.197 1112.94 804.663L1244.68 543.209C1246.93 538.75 1247.66 533.681 1246.77 528.768L1201.03 275.751C1199.52 267.417 1193.56 260.585 1185.5 257.968L1011.48 201.426C1003.43 198.809 994.589 200.83 988.472 206.686L802.745 384.494C799.139 387.947 796.754 392.48 795.95 397.408L748.85 686.362C747.853 692.479 749.366 698.739 753.048 703.724L876.214 870.523Z" stroke="#9CCBF0" stroke-width="4"/>
<path opacity="0.231884" d="M844.995 864.764C850.412 872.932 860.409 876.769 869.9 874.325L1069.06 823.02C1075.07 821.471 1080.2 817.558 1083.29 812.169L1227.12 560.802C1229.6 556.453 1230.6 551.409 1229.96 546.439L1197.41 293.98C1196.33 285.595 1190.74 278.478 1182.85 275.448L1013.16 210.311C1005.26 207.281 996.345 208.826 989.93 214.334L796.814 380.168C793.012 383.433 790.38 387.851 789.319 392.748L728.007 675.79C726.693 681.858 727.887 688.199 731.319 693.372L844.995 864.764Z" stroke="#9CCBF0" stroke-width="4"/>
<path opacity="0.246377" d="M814.502 858.266C819.484 866.667 829.228 871.005 838.805 869.086L1038.81 829.004C1044.91 827.782 1050.25 824.143 1053.62 818.916L1208.85 578.178C1211.58 573.951 1212.84 568.946 1212.45 563.931L1192.91 312.71C1192.26 304.295 1187.05 296.915 1179.34 293.482L1014.4 220.047C1006.69 216.614 997.717 217.68 991.026 222.824L791.259 376.404C787.271 379.47 784.398 383.759 783.081 388.613L708.045 665.055C706.416 671.057 707.286 677.462 710.458 682.811L814.502 858.266Z" stroke="#9CCBF0" stroke-width="4"/>
<path opacity="0.26087" d="M784.77 851.077C789.307 859.688 798.773 864.511 808.406 863.12L1008.63 834.205C1014.8 833.315 1020.34 829.962 1023.99 824.912L1189.9 595.3C1192.86 591.207 1194.39 586.255 1194.25 581.208L1187.51 331.888C1187.28 323.466 1182.46 315.842 1174.96 312.017L1015.17 230.6C1007.66 226.775 998.663 227.361 991.716 232.127L786.048 373.218C781.884 376.074 778.776 380.222 777.204 385.02L688.964 654.208C687.023 660.128 687.567 666.581 690.471 672.093L784.77 851.077Z" stroke="#9CCBF0" stroke-width="4"/>
<path opacity="0.275362" d="M755.829 843.245C759.912 852.042 769.075 857.332 778.736 856.47L978.57 838.634C984.786 838.079 990.51 835.022 994.428 830.165L1170.29 612.13C1173.47 608.185 1175.26 603.299 1175.38 598.231L1181.18 351.456C1181.38 343.048 1176.97 335.203 1169.69 330.997L1015.43 241.935C1008.14 237.73 999.144 237.836 991.961 242.211L781.148 370.621C776.819 373.258 773.482 377.251 771.657 381.98L670.763 643.297C668.516 649.119 668.73 655.604 671.358 661.265L755.829 843.245Z" stroke="#9CCBF0" stroke-width="4"/>
<path opacity="0.289855" d="M727.706 834.823C731.329 843.782 740.165 849.521 749.823 849.187L948.658 842.307C954.907 842.091 960.798 839.341 964.975 834.689L1150.03 628.638C1153.43 624.852 1155.48 620.045 1155.86 614.97L1173.92 371.363C1174.54 362.991 1170.55 354.945 1163.51 350.373L1015.13 254.018C1008.09 249.446 999.121 249.073 991.725 253.046L776.525 368.629C772.042 371.037 768.484 374.863 766.408 379.51L653.44 632.376C650.89 638.084 650.773 644.584 653.117 650.38L727.706 834.823Z" stroke="#9CCBF0" stroke-width="4"/>
<path opacity="0.304348" d="M700.426 825.862C703.582 834.959 712.071 841.126 721.697 841.317L918.939 845.238C925.201 845.363 931.243 842.928 935.669 838.497L1129.15 644.787C1132.76 641.172 1135.07 636.458 1135.7 631.388L1165.71 391.549C1166.75 383.234 1163.19 375.011 1156.41 370.086L1014.26 266.809C1007.48 261.884 998.559 261.035 990.973 264.594L772.145 367.248C767.52 369.418 763.748 373.066 761.426 377.617L636.987 621.491C634.141 627.07 633.692 633.569 635.746 639.486L700.426 825.862Z" stroke="#9CCBF0" stroke-width="4"/>
<path opacity="0.318841" d="M674.008 816.415C676.694 825.623 684.814 832.198 694.379 832.911L889.448 847.445C895.705 847.911 901.881 845.801 906.545 841.603L1107.68 660.546C1111.49 657.114 1114.05 652.505 1114.94 647.454L1156.55 411.959C1158.01 403.722 1154.88 395.345 1148.38 390.082L1012.77 280.267C1006.27 275.004 997.424 273.683 989.67 276.819L767.973 366.486C763.218 368.41 759.242 371.868 756.677 376.311L621.395 610.693C618.258 616.127 617.478 622.607 619.235 628.631L674.008 816.415Z" stroke="#9CCBF0" stroke-width="4"/>
<path opacity="0.333333" d="M648.473 806.535C650.686 815.831 658.416 822.791 667.892 824.019L860.223 848.949C866.457 849.757 872.75 847.978 877.639 844.026L1085.63 675.886C1089.64 672.648 1092.44 668.158 1093.59 663.138L1146.44 432.537C1148.31 424.401 1145.62 415.892 1139.41 410.307L1010.63 294.353C1004.43 288.767 995.686 286.981 987.789 289.686L763.976 366.352C759.103 368.021 754.932 371.278 752.13 375.6L606.652 600.029C603.233 605.304 602.121 611.748 603.577 617.864L648.473 806.535Z" stroke="#9CCBF0" stroke-width="4"/>
<path opacity="0.347826" d="M623.834 796.277C625.571 805.636 632.893 812.958 642.252 814.695L831.297 849.772C837.489 850.92 843.882 849.48 848.983 845.786L1063.04 690.779C1067.23 687.745 1070.27 683.388 1071.68 678.41L1135.37 453.229C1137.64 445.213 1135.4 436.597 1129.51 430.706L1007.82 309.023C1001.93 303.132 993.316 300.888 985.3 303.155L760.119 366.848C755.142 368.256 750.784 371.3 747.75 375.49L592.743 589.546C589.049 594.647 587.609 601.04 588.758 607.232L623.834 796.277Z" stroke="#9CCBF0" stroke-width="4"/>
<path opacity="0.362319" d="M600.102 785.693C601.363 795.09 608.261 802.751 617.475 804.987L802.704 849.934C808.836 851.422 815.31 850.326 820.61 846.901L1039.93 705.196C1044.29 702.377 1047.57 698.164 1049.24 693.242L1123.35 473.978C1126.02 466.101 1124.22 457.401 1118.66 451.223L1004.32 324.233C998.753 318.054 990.288 315.359 982.177 317.184L756.366 367.975C751.298 369.115 746.765 371.937 743.505 375.981L579.651 579.289C575.691 584.202 573.924 590.526 574.763 596.78L600.102 785.693Z" stroke="#9CCBF0" stroke-width="4"/>
<path opacity="0.376812" d="M577.287 774.84C578.072 784.25 584.53 792.224 593.571 794.949L774.477 849.464C780.53 851.288 787.066 850.54 792.551 847.396L1016.34 719.113C1020.86 716.519 1024.37 712.462 1026.29 707.61L1110.39 494.73C1113.44 487.013 1112.1 478.253 1106.87 471.805L1000.09 339.94C994.87 333.492 986.58 330.356 978.398 331.733L752.685 369.735C747.54 370.601 742.843 373.191 739.364 377.079L567.356 569.304C563.141 574.015 561.05 580.253 561.576 586.553L577.287 774.84Z" stroke="#9CCBF0" stroke-width="4"/>
<path opacity="0.391304" d="M555.392 763.771C555.704 773.171 561.707 781.433 570.55 784.634L746.643 848.387C752.599 850.543 759.18 850.148 764.835 847.294L992.289 732.508C996.967 730.147 1000.7 726.26 1002.87 721.489L1096.49 515.432C1099.91 507.894 1099.02 499.097 1094.16 492.398L995.128 356.097C990.262 349.399 982.171 345.833 973.943 346.761L749.04 372.127C743.833 372.714 738.982 375.062 735.291 378.782L555.837 559.632C551.375 564.129 548.965 570.266 549.176 576.596L555.392 763.771Z" stroke="#9CCBF0" stroke-width="4"/>
<path opacity="0.405797" d="M534.42 752.542C534.263 761.905 539.798 770.429 548.416 774.094L719.232 846.73C725.073 849.213 731.68 849.173 737.489 846.619L967.817 745.359C972.636 743.24 976.582 739.533 978.997 734.856L1081.66 536.03C1085.45 528.689 1085.02 519.879 1080.52 512.95L989.412 372.66C984.912 365.731 977.042 361.748 968.794 362.225L745.399 375.146C740.144 375.45 735.152 377.547 731.257 381.088L545.068 550.316C540.372 554.585 537.648 560.604 537.541 566.95L534.42 752.542Z" stroke="#9CCBF0" stroke-width="4"/>
<path opacity="0.42029" d="M514.369 741.204C513.747 750.508 518.804 759.267 527.173 763.381L692.27 844.523C697.977 847.327 704.591 847.644 710.54 845.398L942.956 757.645C947.903 755.777 952.055 752.262 954.713 747.691L1065.93 556.473C1070.07 549.347 1070.09 540.548 1065.97 533.409L982.928 389.581C978.806 382.442 971.179 378.054 962.935 378.081L741.727 378.788C736.439 378.805 731.319 380.643 727.228 383.993L535.023 541.395C530.104 545.424 527.071 551.31 526.647 557.655L514.369 741.204Z" stroke="#9CCBF0" stroke-width="4"/>
<path opacity="0.434783" d="M495.236 729.812C494.155 739.033 498.724 748 506.819 752.545L665.782 841.795C671.337 844.914 677.938 845.589 684.01 843.658L917.739 769.35C922.801 767.74 927.151 764.428 930.048 759.975L1049.3 576.71C1053.79 569.816 1054.25 561.052 1050.52 553.723L975.666 406.813C971.932 399.485 964.569 394.708 956.355 394.285L737.993 383.045C732.687 382.772 727.451 384.344 723.173 387.493L525.674 532.906C520.543 536.684 517.209 542.421 516.467 548.749L495.236 729.812Z" stroke="#9CCBF0" stroke-width="4"/>
<path opacity="0.449275" d="M477.012 718.417C475.479 727.532 479.552 736.68 487.352 741.64L639.789 838.578C645.176 842.004 651.745 843.036 657.923 841.428L892.201 780.457C897.366 779.113 901.903 776.014 905.034 771.692L1031.81 596.693C1036.62 590.048 1037.53 581.341 1034.19 573.845L967.618 424.31C964.28 416.814 957.201 411.664 949.042 410.795L734.163 387.909C728.856 387.344 723.517 388.642 719.062 391.581L516.99 524.886C511.661 528.402 508.032 533.974 506.974 540.27L477.012 718.417Z" stroke="#9CCBF0" stroke-width="4"/>
<path opacity="0.463768" d="M459.688 707.073C457.712 716.059 461.282 725.359 468.764 730.715L614.312 834.905C619.514 838.628 626.032 840.017 632.3 838.738L866.378 790.956C871.632 789.883 876.347 787.008 879.706 782.828L1013.47 616.375C1018.59 609.994 1019.94 601.368 1017.01 593.726L958.779 442.027C955.845 434.384 949.07 428.877 940.99 427.566L730.208 393.371C724.914 392.512 719.487 393.53 714.864 396.249L508.938 517.369C503.424 520.612 499.509 526.006 498.135 532.254L459.688 707.073Z" stroke="#9CCBF0" stroke-width="4"/>
<path opacity="0.478261" d="M443.251 695.828C440.84 704.664 443.902 714.088 451.046 719.82L589.37 830.807C594.37 834.819 600.818 836.562 607.158 835.616L840.305 800.833C845.635 800.037 850.516 797.396 854.098 793.369L994.303 635.711C999.73 629.609 1001.51 621.086 998.991 613.319L949.147 459.915C946.623 452.148 940.17 446.302 932.193 444.555L726.095 399.418C720.831 398.265 715.329 398.997 710.549 401.487L501.484 510.386C495.799 513.348 491.607 518.548 489.92 524.732L443.251 695.828Z" stroke="#9CCBF0" stroke-width="4"/>
<path opacity="0.492754" d="M427.684 684.731C424.85 693.395 427.401 702.915 434.187 709.002L564.98 826.319C569.762 830.608 576.12 832.702 582.515 832.094L814.019 810.078C819.41 809.565 824.448 807.166 828.244 803.303L974.348 654.655C980.058 648.846 982.269 640.449 980.161 632.58L938.722 477.927C936.613 470.059 930.5 463.892 922.65 461.716L721.796 406.035C716.577 404.588 711.015 405.029 706.09 407.281L494.593 503.966C488.751 506.637 484.292 511.629 482.295 517.735L427.684 684.731Z" stroke="#9CCBF0" stroke-width="4"/>
<path opacity="0.507246" d="M412.968 673.832C409.724 682.303 411.761 691.891 418.171 698.31L541.156 821.475C545.704 826.03 551.954 828.47 558.385 828.203L787.556 818.685C792.994 818.459 798.177 816.312 802.181 812.625L953.63 673.169C959.607 667.665 962.237 659.415 960.548 651.467L927.506 496.021C925.817 488.073 920.059 481.606 912.36 479.009L717.283 413.21C712.125 411.47 706.517 411.616 701.457 413.622L488.228 498.139C482.244 500.511 477.527 505.282 475.225 511.293L412.968 673.832Z" stroke="#9CCBF0" stroke-width="4"/>
<path opacity="0.521739" d="M399.084 663.175C395.44 671.434 396.965 681.061 402.982 687.79L517.91 816.309C522.21 821.118 528.332 823.899 534.782 823.976L760.953 826.65C766.424 826.714 771.739 824.826 775.943 821.325L932.183 691.211C938.41 686.025 941.449 677.944 940.181 669.939L915.506 514.149C914.239 506.145 908.852 499.398 901.326 496.39L712.526 420.925C707.445 418.894 701.807 418.741 696.624 420.493L482.349 492.927C476.238 494.993 471.275 499.53 468.672 505.432L399.084 663.175Z" stroke="#9CCBF0" stroke-width="4"/>
<path opacity="0.536232" d="M386.006 652.807C381.977 660.834 382.99 670.472 388.6 677.487L495.252 810.857C499.29 815.906 505.266 819.022 511.717 819.444L734.247 833.968C739.735 834.326 745.17 832.706 749.567 829.401L910.041 708.745C916.502 703.888 919.938 695.996 919.093 687.957L902.73 532.269C901.885 524.23 896.883 517.225 889.554 513.817L707.5 429.163C702.513 426.844 696.859 426.389 691.565 427.881L476.918 488.354C470.695 490.108 465.498 494.399 462.598 500.177L386.006 652.807Z" stroke="#9CCBF0" stroke-width="4"/>
<path opacity="0.550725" d="M373.708 642.767C369.31 650.545 369.814 660.166 375.002 667.442L473.192 805.152C476.953 810.428 482.765 813.872 489.198 814.638L707.474 840.639C712.965 841.293 718.508 839.947 723.087 836.847L887.242 725.736C893.917 721.217 897.74 713.535 897.318 705.485L889.187 550.335C888.765 542.286 884.16 535.045 877.049 531.249L702.179 437.905C697.301 435.301 691.648 434.542 686.256 435.766L471.893 484.44C465.575 485.875 460.155 489.908 456.966 495.547L373.708 642.767Z" stroke="#9CCBF0" stroke-width="4"/>
<path opacity="0.565217" d="M362.164 633.099C357.411 640.609 357.411 650.187 362.164 657.698L451.735 799.232C455.207 804.719 460.837 808.482 467.234 809.593L680.672 846.664C686.15 847.615 691.787 846.55 696.54 843.666L863.823 742.151C870.695 737.981 874.891 730.526 874.891 722.488V568.308C874.891 560.27 870.695 552.815 863.823 548.645L696.54 447.13C691.787 444.246 686.15 443.181 680.672 444.132L467.234 481.203C460.837 482.314 455.207 486.077 451.735 491.564L362.164 633.099Z" stroke="#9CCBF0" stroke-width="4"/>
<path opacity="0.57971" d="M351.342 623.84C346.251 631.067 345.752 640.573 350.061 648.293L430.886 793.131C434.057 798.813 439.487 802.887 445.83 804.341L653.876 852.046C659.325 853.296 665.043 852.518 669.961 849.857L839.825 757.962C846.874 754.148 851.43 746.94 851.85 738.936L859.857 586.145C860.276 578.141 856.499 570.496 849.887 565.966L690.559 456.819C685.947 453.659 680.341 452.287 674.791 452.961L462.898 478.658C456.438 479.441 450.612 482.924 446.864 488.244L351.342 623.84Z" stroke="#9CCBF0" stroke-width="4"/>
<path opacity="0.594203" d="M341.21 615.026C335.797 621.954 334.808 631.363 338.662 639.266L410.646 786.882C413.505 792.744 418.718 797.117 424.988 798.913L627.122 856.79C632.527 858.337 638.312 857.851 643.384 855.424L815.288 773.139C822.496 769.689 827.397 762.745 828.232 754.797L844.102 603.806C844.937 595.858 841.588 588.047 835.255 583.174L684.214 466.946C679.759 463.517 674.201 461.839 668.592 462.229L458.842 476.815C452.335 477.268 446.327 480.461 442.312 485.601L341.21 615.026Z" stroke="#9CCBF0" stroke-width="4"/>
<path opacity="0.608696" d="M331.733 606.693C326.017 613.309 324.547 622.593 327.938 630.652L391.017 780.523C393.553 786.548 398.532 791.21 404.711 793.342L600.446 860.904C605.791 862.749 611.629 862.56 616.844 860.373L790.256 787.661C797.603 784.58 802.833 777.916 804.079 770.048L827.645 621.255C828.892 613.386 825.977 605.433 819.942 600.232L677.487 477.491C673.203 473.8 667.709 471.817 662.055 471.919L455.023 475.689C448.487 475.808 442.311 478.702 438.037 483.649L331.733 606.693Z" stroke="#9CCBF0" stroke-width="4"/>
<path opacity="0.623188" d="M322.877 598.871C316.876 605.161 314.935 614.296 317.858 622.482L371.996 774.086C374.199 780.256 378.93 785.194 385 787.66L573.882 864.395C579.152 866.536 585.028 866.648 590.376 864.71L764.772 801.502C772.238 798.796 777.78 792.429 779.432 784.661L810.509 638.453C812.16 630.684 809.687 622.614 803.966 617.104L670.357 488.428C666.26 484.482 660.846 482.195 655.161 482.007L451.397 475.283C444.849 475.067 438.52 477.653 433.997 482.394L322.877 598.871Z" stroke="#9CCBF0" stroke-width="4"/>
<path opacity="0.637681" d="M314.603 591.592C308.337 597.543 305.936 606.504 308.386 614.791L353.58 767.607C355.442 773.904 359.908 779.105 365.851 781.899L547.464 867.277C552.643 869.711 558.543 870.128 564.012 868.445L738.879 814.647C746.446 812.319 752.283 806.263 754.332 798.617L792.716 655.367C794.765 647.72 792.737 639.557 787.348 633.758L662.808 499.733C658.913 495.541 653.595 492.952 647.893 492.471L447.922 475.604C441.378 475.052 434.911 477.323 430.15 481.846L314.603 591.592Z" stroke="#9CCBF0" stroke-width="4"/>
<path opacity="0.652174" d="M306.873 584.88C300.361 590.482 297.514 599.246 299.489 607.605L335.764 761.118C337.277 767.523 341.463 772.974 347.261 776.089L521.225 869.561C526.297 872.286 532.206 873.009 537.786 871.589L712.625 827.078C720.271 825.131 726.386 819.4 728.825 811.896L774.292 671.963C776.73 664.459 775.151 656.228 770.109 650.159L654.825 511.381C651.146 506.952 645.94 504.064 640.235 503.287L444.553 476.654C438.031 475.766 431.442 477.715 426.452 482.008L306.873 584.88Z" stroke="#9CCBF0" stroke-width="4"/>
<path opacity="0.666667" d="M299.647 578.761C292.91 584.004 289.63 592.547 291.129 600.951L318.539 754.65C319.697 761.145 323.589 766.83 329.225 770.26L495.198 871.26C500.147 874.272 506.05 875.305 511.728 874.153L686.053 838.78C693.76 837.216 700.134 831.823 702.952 824.481L755.262 688.209C758.08 680.867 756.952 672.595 752.271 666.276L646.392 523.342C642.943 518.687 637.865 515.504 632.172 514.431L441.248 478.431C434.764 477.209 428.068 478.83 422.861 482.881L299.647 578.761Z" stroke="#9CCBF0" stroke-width="4"/>
<path opacity="0.681159" d="M292.885 573.257C285.942 578.132 282.247 586.432 283.269 594.853L301.898 748.238C302.695 754.803 306.28 760.707 311.737 764.443L469.413 872.393C474.224 875.687 480.107 877.031 485.871 876.152L659.212 849.744C666.959 848.564 673.572 843.52 676.759 836.362L735.656 704.077C738.844 696.918 738.167 688.628 733.86 682.082L637.497 535.593C634.293 530.722 629.358 527.25 623.691 525.879L437.963 480.935C431.535 479.38 424.749 480.667 419.336 484.467L292.885 573.257Z" stroke="#9CCBF0" stroke-width="4"/>
<path opacity="0.695652" d="M286.543 568.386C279.417 572.886 275.322 580.923 275.871 589.333L285.829 741.91C286.261 748.525 289.526 754.633 294.787 758.666L443.901 872.977C448.559 876.547 454.405 878.202 460.242 877.603L632.146 859.962C639.914 859.165 646.746 854.482 650.291 847.524L715.504 719.538C719.049 712.581 718.821 704.3 714.901 697.547L628.13 548.105C625.183 543.03 620.408 539.274 614.782 537.604L434.656 484.159C428.3 482.273 421.44 483.222 415.835 486.761L286.543 568.386Z" stroke="#9CCBF0" stroke-width="4"/>
<path opacity="0.710145" d="M280.581 564.166C273.291 568.283 268.815 576.037 268.894 584.409L270.321 735.698C270.384 742.343 273.317 748.636 278.366 752.957L418.691 873.03C423.179 876.871 428.973 878.838 434.872 878.522L604.903 869.429C612.671 869.014 619.703 864.7 623.593 857.962L694.835 734.568C698.725 727.83 698.945 719.583 695.421 712.648L618.28 560.851C615.604 555.584 611.003 551.55 605.433 549.583L431.284 488.095C425.018 485.883 418.101 486.489 412.315 489.757L280.581 564.166Z" stroke="#9CCBF0" stroke-width="4"/>
<path opacity="0.724638" d="M274.955 560.609C267.523 564.34 262.684 571.792 262.299 580.098L255.359 729.631C255.05 736.285 257.641 742.746 262.463 747.343L393.809 872.576C398.113 876.68 403.84 878.957 409.788 878.929L577.528 878.143C585.278 878.107 592.489 874.17 596.71 867.67L673.682 749.143C677.903 742.643 678.567 734.454 675.448 727.36L607.94 573.802C605.546 568.357 601.136 564.052 595.636 561.788L427.808 492.734C421.647 490.2 414.69 490.46 408.737 493.449L274.955 560.609Z" stroke="#9CCBF0" stroke-width="4"/>
<path opacity="0.73913" d="M269.622 557.728C262.07 561.068 256.888 568.2 256.045 576.414L240.928 723.735C240.246 730.378 242.485 736.99 247.064 741.851L369.282 871.634C373.388 875.994 379.033 878.581 385.016 878.844L550.068 886.105C557.781 886.444 565.149 882.891 569.686 876.646L652.079 763.242C656.617 756.997 657.719 748.891 655.013 741.661L597.103 586.93C595.004 581.321 590.8 576.753 585.385 574.195L424.186 498.063C418.147 495.211 411.168 495.125 405.06 497.826L269.622 557.728Z" stroke="#9CCBF0" stroke-width="4"/>
<path opacity="0.753623" d="M264.537 555.53C256.886 558.476 251.382 565.273 250.09 573.369L227.011 718.039C225.956 724.65 227.834 731.392 232.155 736.506L345.136 870.231C349.028 874.838 354.574 877.732 360.58 878.289L522.569 893.317C530.225 894.027 537.729 890.865 542.568 884.89L630.059 776.847C634.898 770.872 636.431 762.874 634.144 755.533L585.765 600.208C583.971 594.45 579.988 589.626 574.672 586.777L420.379 504.068C414.479 500.905 407.493 500.47 401.246 502.876L264.537 555.53Z" stroke="#9CCBF0" stroke-width="4"/>
<path opacity="0.768116" d="M259.657 554.02C251.929 556.572 246.125 563.018 244.395 570.971L213.59 712.566C212.163 719.123 213.672 725.977 217.721 731.33L321.392 868.389C325.057 873.234 330.49 876.432 336.505 877.286L495.075 899.785C502.656 900.861 510.275 898.094 515.398 892.403L607.657 789.94C612.78 784.25 614.736 776.383 612.874 768.956L573.922 613.606C572.445 607.714 568.696 602.645 563.495 599.507L416.35 510.73C410.604 507.263 403.629 506.479 397.257 508.583L259.657 554.02Z" stroke="#9CCBF0" stroke-width="4"/>
<path opacity="0.782609" d="M254.94 553.201C247.155 555.358 241.073 561.44 238.916 569.225L200.646 707.34C198.85 713.824 199.982 720.769 203.746 726.347L298.074 866.135C301.497 871.208 306.801 874.707 312.812 875.859L467.631 905.519C475.119 906.953 482.831 904.584 488.222 899.193L584.908 802.507C590.299 797.116 592.668 789.404 591.234 781.916L561.574 627.097C560.422 621.086 556.923 615.782 551.85 612.359L412.062 518.031C406.484 514.267 399.539 513.135 393.055 514.931L254.94 553.201Z" stroke="#9CCBF0" stroke-width="4"/>
<path opacity="0.797101" d="M250.34 553.076C242.522 554.839 236.184 560.545 233.614 568.137L188.159 702.386C185.996 708.775 186.746 715.792 190.212 721.579L275.2 863.497C278.368 868.788 283.528 872.584 289.521 874.035L440.28 910.53C447.657 912.316 455.441 910.347 461.082 905.268L561.848 814.538C567.488 809.459 570.26 801.924 569.255 794.4L548.719 640.652C547.903 634.54 544.666 629.012 539.736 625.308L407.479 525.951C402.085 521.899 395.186 520.419 388.605 521.903L250.34 553.076Z" stroke="#9CCBF0" stroke-width="4"/>
<path opacity="0.811594" d="M245.817 553.641C237.984 555.011 231.415 560.331 228.446 567.707L176.107 697.723C173.581 703.997 173.944 711.064 177.1 717.045L252.79 860.503C255.69 865.999 260.69 870.088 266.652 871.839L413.064 914.831C420.314 916.96 428.147 915.392 434.019 910.637L538.512 826.02C544.384 821.265 547.546 813.93 546.971 806.396L535.359 654.245C534.886 648.048 531.926 642.307 527.153 638.328L402.567 534.466C397.372 530.136 390.535 528.311 383.874 529.477L245.817 553.641Z" stroke="#9CCBF0" stroke-width="4"/>
<path opacity="0.826087" d="M241.326 554.889C233.501 555.872 226.725 560.795 223.372 567.934L164.467 693.371C161.585 699.509 161.557 706.605 164.392 712.764L230.86 857.182C233.479 862.871 238.304 867.247 244.222 869.298L386.025 918.438C393.131 920.9 400.992 919.734 407.075 915.313L514.937 836.948C521.021 832.527 524.559 825.412 524.413 817.893L521.498 667.845C521.376 661.583 518.706 655.642 514.104 651.393L397.294 543.551C392.312 538.952 385.555 536.785 378.828 537.629L241.326 554.889Z" stroke="#9CCBF0" stroke-width="4"/>
<path opacity="0.84058" d="M236.828 556.817C229.03 557.415 222.071 561.934 218.353 568.815L153.216 689.35C149.985 695.331 149.564 702.434 152.067 708.754L209.425 853.563C211.75 859.434 216.387 864.09 222.247 866.44L359.203 921.371C366.148 924.157 374.015 923.39 380.291 919.314L491.159 847.316C497.435 843.24 501.336 836.365 501.616 828.887L507.139 681.429C507.375 675.12 505.007 668.991 500.59 664.479L391.63 553.181C386.875 548.323 380.214 545.818 373.436 546.338L236.828 556.817Z" stroke="#9CCBF0" stroke-width="4"/>
<path opacity="0.855072" d="M232.136 559.561C224.386 559.781 217.268 563.89 213.203 570.492L142.187 685.824C138.613 691.628 137.798 698.718 139.96 705.181L188.354 849.828C190.374 855.865 194.806 860.795 200.595 863.444L332.49 923.8C339.26 926.898 347.112 926.527 353.56 922.804L467.069 857.27C473.517 853.547 477.764 846.933 478.466 839.52L492.144 695.119C492.744 688.781 490.691 682.477 486.472 677.709L385.402 563.476C380.885 558.371 374.338 555.533 367.525 555.726L232.136 559.561Z" stroke="#9CCBF0" stroke-width="4"/>
<path opacity="0.869565" d="M227.501 562.811C219.818 562.658 212.566 566.353 208.173 572.659L131.643 682.509C127.736 688.116 126.526 695.17 128.338 701.759L167.947 845.705C169.651 851.896 173.864 857.092 179.569 860.039L306.212 925.447C312.794 928.846 320.609 928.868 327.209 925.505L442.992 866.51C449.592 863.148 454.168 856.812 455.287 849.49L476.809 708.587C477.779 702.24 476.051 695.777 472.044 690.76L378.87 574.106C374.605 568.767 368.187 565.6 361.355 565.465L227.501 562.811Z" stroke="#9CCBF0" stroke-width="4"/>
<path opacity="0.884058" d="M222.738 566.702C215.141 566.185 207.781 569.462 203.081 575.453L121.414 679.568C117.185 684.959 115.58 691.955 117.036 698.65L148.07 841.378C149.446 847.707 153.426 853.162 159.033 856.403L280.261 926.489C286.639 930.176 294.398 930.585 301.128 927.588L418.819 875.189C425.55 872.192 430.437 866.153 431.965 858.946L460.999 721.959C462.342 715.624 460.951 709.016 457.169 703.758L371.867 585.192C367.866 579.63 361.593 576.142 354.757 575.677L222.738 566.702Z" stroke="#9CCBF0" stroke-width="4"/>
<path opacity="0.898551" d="M217.811 571.216C210.319 570.344 202.875 573.202 197.89 578.863L111.474 677.013C106.934 682.169 104.937 689.085 106.029 695.867L128.729 836.878C129.767 843.329 133.501 849.034 138.997 852.568L254.669 926.95C260.831 930.912 268.512 931.702 275.352 929.077L394.585 883.307C401.425 880.682 406.604 874.955 408.532 867.888L444.722 735.211C446.442 728.907 445.399 722.169 441.854 716.68L364.369 596.7C360.642 590.929 354.53 587.126 347.706 586.332L217.812 571.216L218.043 569.23L217.811 571.216Z" stroke="#9CCBF0" stroke-width="4"/>
<path opacity="0.913043" d="M212.686 576.336C205.316 575.118 197.813 577.556 192.566 582.873L101.799 674.854C96.9612 679.757 94.5752 686.57 95.2974 693.42L109.932 832.236C110.623 838.794 114.096 844.739 119.468 848.563L229.469 926.86C235.403 931.084 242.987 932.247 249.914 929.997L370.325 890.873C377.252 888.622 382.703 883.223 385.021 876.318L427.992 748.317C430.091 742.066 429.406 735.215 426.11 729.504L356.356 608.597C352.914 602.631 346.978 598.521 340.182 597.398L212.686 576.336Z" stroke="#9CCBF0" stroke-width="4"/>
<path opacity="0.927536" d="M207.326 582.04C200.095 580.488 192.558 582.507 187.073 587.467L185.731 585.984L187.073 587.467L92.3615 673.099C87.2384 677.731 84.468 684.42 84.8158 691.318L91.6813 827.486C92.0165 834.134 95.2147 840.31 100.45 844.419L204.687 926.25C210.382 930.721 217.85 932.249 224.843 930.375L346.07 897.893C353.063 896.019 358.766 890.962 361.462 884.243L410.819 761.256C413.298 755.079 412.98 748.132 409.947 742.207L347.808 620.849C344.66 614.701 338.916 610.294 332.164 608.844L207.326 582.04L207.746 580.085L207.326 582.04Z" stroke="#9CCBF0" stroke-width="4"/>
<path opacity="0.942029" d="M201.699 588.307C194.624 586.431 187.078 588.035 181.377 592.626L83.1343 671.755C77.7411 676.099 74.5922 682.642 74.5619 689.567L73.9798 822.66C73.9504 829.379 76.861 835.775 81.9466 840.167L180.353 925.152C185.798 929.854 193.13 931.738 200.168 930.242L321.854 904.377C328.892 902.881 334.824 898.178 337.885 891.667L393.218 774.005C396.077 767.924 396.135 760.897 393.375 754.77L338.709 633.421C335.865 627.107 330.327 622.41 323.633 620.636L201.699 588.307Z" stroke="#9CCBF0" stroke-width="4"/>
<path opacity="0.956522" d="M195.775 595.11C188.871 592.923 181.34 594.116 175.45 598.329L74.0922 670.827C68.4446 674.867 64.9242 681.241 64.5132 688.173L56.8284 817.788C56.4268 824.562 59.0369 831.167 63.9604 835.837L156.49 923.597C161.677 928.516 168.856 930.744 175.916 929.626L297.709 910.336C304.769 909.218 310.908 904.88 314.321 898.599L375.202 786.541C378.442 780.578 378.883 773.49 376.408 767.171L329.046 646.275C326.513 639.81 321.195 634.835 314.575 632.738L195.775 595.11Z" stroke="#9CCBF0" stroke-width="4"/>
<path opacity="0.971014" d="M189.526 602.425C182.808 599.94 175.315 600.728 169.26 604.555L65.2084 670.319C59.3232 674.039 55.4396 680.224 54.6464 687.141L40.2255 812.904C39.4446 819.714 41.7417 826.517 46.4908 831.46L133.122 921.622C138.042 926.742 145.05 929.303 152.111 928.561L273.665 915.785C280.726 915.043 287.049 911.081 290.796 905.05L356.789 798.846C360.406 793.024 361.239 785.892 359.059 779.393L318.806 659.377C316.592 652.776 311.507 647.533 304.977 645.119L189.526 602.425Z" stroke="#9CCBF0" stroke-width="4"/>
<path opacity="0.985507" d="M182.923 610.222C176.404 607.454 168.973 607.844 162.78 611.278L56.4561 670.232C50.3509 673.618 46.1137 679.592 44.938 686.474L24.1672 808.039C23.0008 814.866 24.9726 821.855 29.5351 827.065L110.269 919.261C114.914 924.566 121.735 927.447 128.776 927.078L249.75 920.738C256.791 920.369 263.274 916.791 267.339 911.03L337.993 810.899C341.986 805.241 343.217 798.084 341.343 791.417L307.979 672.688C306.09 665.968 301.252 660.468 294.826 657.74L182.923 610.222Z" stroke="#9CCBF0" stroke-width="4"/>
<path d="M176.086 618.323C169.779 615.286 162.433 615.286 156.127 618.322L47.954 670.416C41.6477 673.453 37.0676 679.196 35.51 686.02L8.79349 803.073C7.23596 809.897 8.87061 817.059 13.2347 822.531L88.0927 916.4C92.4568 921.873 99.0754 925.06 106.075 925.06H226.138C233.137 925.06 239.756 921.873 244.12 916.4L318.978 822.531C323.342 817.059 324.977 809.897 323.419 803.073L296.703 686.02C295.145 679.196 290.565 673.453 284.259 670.416L176.086 618.323Z" stroke="#9CCBF0" stroke-width="4"/>
</g>
</svg>
