<svg width="1202" height="222" viewBox="0 0 1202 222" fill="none" xmlns="http://www.w3.org/2000/svg">
<g opacity="0.3">
<mask id="mask0_834_25343" style="mask-type:alpha" maskUnits="userSpaceOnUse" x="123" y="-319" width="1501" height="841">
<g opacity="0.3">
<path opacity="0.0144928" d="M1481.44 439.553C1491.43 441.853 1501.73 437.265 1506.71 428.303L1618.84 226.31C1621.78 221.01 1622.51 214.763 1620.87 208.927L1529.74 -115.47C1528.46 -120.06 1525.77 -124.135 1522.07 -127.133L1294.12 -311.487C1287.4 -316.923 1278.2 -318.131 1270.3 -314.616L1087.53 -233.239C1079.63 -229.724 1074.37 -222.077 1073.92 -213.446L1058.39 79.3072C1058.14 84.0677 1059.37 88.7891 1061.92 92.8183L1242.02 377.602C1245.26 382.725 1250.39 386.363 1256.3 387.723L1481.44 439.553Z" stroke="#9CCBF0" stroke-width="4"/>
<path opacity="0.0289855" d="M1445.03 447.972C1454.86 450.768 1465.36 446.738 1470.79 438.08L1592.75 243.868C1595.98 238.727 1597.04 232.518 1595.71 226.595L1522.54 -99.0865C1521.49 -103.752 1519.01 -107.974 1515.45 -111.167L1299.12 -305.182C1292.7 -310.946 1283.59 -312.626 1275.53 -309.532L1089.89 -238.272C1081.83 -235.179 1076.18 -227.833 1075.26 -219.249L1044.32 69.6845C1043.81 74.439 1044.8 79.2339 1047.14 83.4023L1210.68 374.395C1213.66 379.687 1218.6 383.589 1224.44 385.249L1445.03 447.972Z" stroke="#9CCBF0" stroke-width="4"/>
<path opacity="0.0434783" d="M1408.61 455.223C1418.26 458.505 1428.92 455.041 1434.8 446.712L1566.08 260.751C1569.59 255.784 1570.99 249.631 1569.97 243.637L1514.63 -82.3465C1513.82 -87.075 1511.56 -91.4343 1508.16 -94.8144L1303.83 -297.786C1297.71 -303.862 1288.71 -306.007 1280.51 -303.343L1092.56 -242.275C1084.36 -239.611 1078.34 -232.585 1076.97 -224.074L1030.96 60.2357C1030.2 64.9703 1030.93 69.826 1033.06 74.1234L1179.9 370.38C1182.6 375.827 1187.34 379.984 1193.1 381.941L1408.61 455.223Z" stroke="#9CCBF0" stroke-width="4"/>
<path opacity="0.057971" d="M1372.26 461.319C1381.7 465.076 1392.5 462.184 1398.8 454.207L1538.87 276.935C1542.65 272.157 1544.38 266.078 1543.67 260.029L1505.99 -65.2906C1505.44 -70.0697 1503.4 -74.5549 1500.17 -78.115L1308.17 -289.325C1302.38 -295.696 1293.52 -298.299 1285.2 -296.07L1095.5 -245.24C1087.18 -243.011 1080.81 -236.325 1078.98 -227.912L1018.31 50.9974C1017.29 55.6985 1017.77 60.6019 1019.68 65.0176L1149.7 365.594C1152.12 371.182 1156.66 375.584 1162.31 377.834L1372.26 461.319Z" stroke="#9CCBF0" stroke-width="4"/>
<path opacity="0.0724638" d="M1336.03 466.275C1345.25 470.494 1356.14 468.178 1362.85 460.574L1511.17 292.397C1515.2 287.823 1517.25 281.835 1516.87 275.748L1496.63 -47.9604C1496.33 -52.7772 1494.52 -57.3772 1491.46 -61.109L1312.1 -279.828C1306.65 -286.477 1297.95 -289.529 1289.54 -287.742L1098.63 -247.164C1090.22 -245.376 1083.51 -239.047 1081.23 -230.756L1006.35 42.0047C1005.07 46.6587 1005.29 51.5966 1006.97 56.1195L1120.14 360.076C1122.27 365.791 1126.58 370.427 1132.13 372.964L1336.03 466.275Z" stroke="#9CCBF0" stroke-width="4"/>
<path opacity="0.0869565" d="M1299.98 470.107C1308.95 474.774 1319.92 473.037 1327 465.827L1483 307.118C1487.29 302.762 1489.66 296.882 1489.6 290.774L1486.52 -30.3976C1486.48 -35.2389 1484.9 -39.9421 1482.03 -43.8373L1315.57 -269.329C1310.47 -276.236 1301.95 -279.729 1293.47 -278.386L1101.91 -248.046C1093.43 -246.702 1086.4 -240.748 1083.68 -232.602L995.052 33.2922C993.521 37.8853 993.478 42.8444 994.93 47.4631L1091.25 353.867C1093.08 359.693 1097.16 364.552 1102.58 367.372L1299.98 470.107Z" stroke="#9CCBF0" stroke-width="4"/>
<path opacity="0.101449" d="M1264.19 472.837C1272.88 477.938 1283.89 476.781 1291.33 469.984L1454.43 321.08C1458.95 316.955 1461.64 311.201 1461.9 305.09L1475.67 -12.6438C1475.88 -17.4964 1474.55 -22.291 1471.86 -26.3405L1318.51 -257.86C1313.78 -265.009 1305.46 -268.93 1296.93 -268.033L1105.26 -247.888C1096.74 -246.992 1089.42 -241.427 1086.27 -233.451L984.406 24.8934C982.624 29.412 982.319 34.3787 983.534 39.0816L1063.06 347.01C1064.59 352.932 1068.42 358.002 1073.69 361.097L1264.19 472.837Z" stroke="#9CCBF0" stroke-width="4"/>
<path opacity="0.115942" d="M1228.69 474.489C1237.09 480.007 1248.11 479.43 1255.89 473.064L1425.49 334.269C1430.23 330.389 1433.23 324.777 1433.81 318.678L1464.06 5.25806C1464.52 0.407517 1463.44 -4.46637 1460.96 -8.66067L1320.89 -245.462C1316.53 -252.831 1308.44 -257.169 1299.89 -256.721L1108.65 -246.698C1100.1 -246.25 1092.5 -241.09 1088.94 -233.306L974.388 16.8395C972.359 21.2701 971.79 26.2307 972.762 31.0057L1035.6 339.548C1036.82 345.551 1040.39 350.819 1045.51 354.182L1228.69 474.489Z" stroke="#9CCBF0" stroke-width="4"/>
<path opacity="0.130435" d="M1193.56 475.091C1201.65 481.009 1212.64 481.009 1220.72 475.091L1396.22 346.672C1401.17 343.049 1404.47 337.596 1405.38 331.528L1451.69 23.2662C1452.41 18.4312 1451.58 13.4904 1449.31 9.16116L1322.65 -232.173C1318.68 -239.743 1310.83 -244.484 1302.28 -244.484H1112C1103.45 -244.484 1095.61 -239.743 1091.64 -232.173L964.975 9.16116C962.703 13.4904 961.87 18.4312 962.596 23.2662L1008.9 331.528C1009.81 337.596 1013.11 343.049 1018.06 346.672L1193.56 475.091Z" stroke="#9CCBF0" stroke-width="4"/>
<path opacity="0.144928" d="M1158.84 474.673C1166.6 480.973 1177.53 481.546 1185.9 476.091L1366.68 358.281C1371.83 354.926 1375.42 349.648 1376.65 343.627L1438.56 41.3384C1439.54 36.5324 1438.97 31.5375 1436.91 27.0835L1323.75 -218.035C1320.17 -225.786 1312.6 -230.917 1304.07 -231.364L1115.27 -241.258C1106.74 -241.705 1098.67 -237.394 1094.3 -230.06L956.143 1.88757C953.633 6.10232 952.535 11.0093 953.012 15.8919L982.984 322.996C983.581 329.113 986.602 334.737 991.373 338.613L1158.84 474.673Z" stroke="#9CCBF0" stroke-width="4"/>
<path opacity="0.15942" d="M1124.59 473.267C1131.99 479.931 1142.85 481.071 1151.47 476.093L1336.9 369.088C1342.23 366.011 1346.11 360.925 1347.66 354.968L1424.68 59.4329C1425.92 54.6694 1425.6 49.6333 1423.76 45.065L1324.15 -203.094C1320.98 -211.004 1313.69 -216.51 1305.21 -217.4L1118.4 -237.035C1109.92 -237.926 1101.65 -234.057 1096.9 -226.98L947.866 -4.95386C945.122 -0.866648 943.763 3.99294 943.987 8.91046L957.875 314C958.155 320.15 960.889 325.931 965.465 330.049L1124.59 473.267Z" stroke="#9CCBF0" stroke-width="4"/>
<path opacity="0.173913" d="M1090.86 470.91C1097.89 477.917 1108.63 479.618 1117.49 475.128L1306.93 379.089C1312.43 376.3 1316.58 371.42 1318.45 365.544L1410.04 77.5077C1411.53 72.8003 1411.48 67.736 1409.87 63.0644L1323.81 -187.396C1321.05 -195.445 1314.07 -201.308 1305.66 -202.639L1121.33 -231.834C1112.93 -233.165 1104.47 -229.746 1099.36 -222.947L940.116 -11.3375C937.146 -7.39058 935.525 -2.59219 935.494 2.3474L933.592 304.588C933.553 310.755 935.992 316.678 940.361 321.03L1090.86 470.91Z" stroke="#9CCBF0" stroke-width="4"/>
<path opacity="0.188406" d="M1057.69 467.64C1064.34 474.97 1074.93 477.222 1083.99 473.231L1276.82 388.28C1282.47 385.79 1286.89 381.131 1289.07 375.352L1394.65 95.5223C1396.4 90.8844 1396.61 85.8051 1395.24 81.0413L1322.7 -170.989C1320.35 -179.154 1313.69 -185.359 1305.38 -187.125L1124.03 -225.674C1115.72 -227.44 1107.11 -224.481 1101.64 -217.978L932.866 -17.2387C929.676 -13.4444 927.797 -8.72106 927.509 -3.77225L910.151 294.812C909.793 300.978 911.93 307.029 916.081 311.603L1057.69 467.64Z" stroke="#9CCBF0" stroke-width="4"/>
<path opacity="0.202899" d="M1025.12 463.497C1031.38 471.128 1041.8 473.921 1051.03 470.439L1246.61 396.664C1252.4 394.48 1257.06 390.056 1259.55 384.392L1378.53 113.436C1380.53 108.881 1381 103.8 1379.87 98.9556L1320.78 -153.923C1318.85 -162.183 1312.53 -168.711 1304.34 -170.906L1126.43 -218.579C1118.23 -220.774 1109.49 -218.281 1103.69 -212.093L926.086 -22.6352C922.683 -19.0057 920.549 -14.3709 920.004 -9.42596L887.567 284.719C886.889 290.869 888.717 297.033 892.638 301.818L1025.12 463.497Z" stroke="#9CCBF0" stroke-width="4"/>
<path opacity="0.217391" d="M993.214 458.523C999.056 466.434 1009.28 469.756 1018.65 466.79L1216.34 404.242C1222.25 402.372 1227.15 398.197 1229.94 392.663L1361.68 131.209C1363.93 126.75 1364.66 121.681 1363.77 116.768L1318.03 -136.249C1316.52 -144.583 1310.56 -151.415 1302.5 -154.032L1128.48 -210.574C1120.43 -213.191 1111.59 -211.17 1105.47 -205.314L919.745 -27.5058C916.139 -24.0529 913.754 -19.5202 912.95 -14.5923L865.85 274.362C864.853 280.479 866.366 286.739 870.048 291.724L993.214 458.523Z" stroke="#9CCBF0" stroke-width="4"/>
<path opacity="0.231884" d="M961.995 452.764C967.412 460.932 977.409 464.769 986.9 462.324L1186.06 411.019C1192.07 409.471 1197.2 405.557 1200.29 400.169L1344.12 148.802C1346.6 144.453 1347.6 139.409 1346.96 134.439L1314.41 -118.02C1313.33 -126.406 1307.74 -133.522 1299.85 -136.552L1130.16 -201.689C1122.26 -204.719 1113.34 -203.174 1106.93 -197.666L913.814 -31.8318C910.012 -28.567 907.38 -24.1496 906.319 -19.2518L845.007 263.79C843.693 269.857 844.887 276.199 848.319 281.372L961.995 452.764Z" stroke="#9CCBF0" stroke-width="4"/>
<path opacity="0.246377" d="M931.502 446.266C936.484 454.667 946.228 459.005 955.805 457.086L1155.81 417.004C1161.91 415.782 1167.25 412.143 1170.62 406.916L1325.85 166.178C1328.58 161.951 1329.84 156.946 1329.45 151.931L1309.91 -99.2899C1309.26 -107.705 1304.05 -115.085 1296.34 -118.518L1131.4 -191.953C1123.69 -195.386 1114.72 -194.32 1108.03 -189.176L908.259 -35.5958C904.271 -32.5299 901.398 -28.2412 900.081 -23.3866L825.045 253.055C823.416 259.057 824.286 265.462 827.458 270.811L931.502 446.266Z" stroke="#9CCBF0" stroke-width="4"/>
<path opacity="0.26087" d="M901.77 439.076C906.307 447.687 915.773 452.511 925.406 451.119L1125.63 422.205C1131.8 421.315 1137.34 417.961 1140.99 412.912L1306.9 183.3C1309.86 179.207 1311.39 174.255 1311.25 169.207L1304.51 -80.1124C1304.28 -88.5348 1299.46 -96.1586 1291.96 -99.9837L1132.17 -181.4C1124.66 -185.225 1115.66 -184.64 1108.72 -179.873L903.048 -38.7824C898.884 -35.926 895.776 -31.7787 894.204 -26.9806L805.964 242.207C804.023 248.127 804.567 254.581 807.471 260.093L901.77 439.076Z" stroke="#9CCBF0" stroke-width="4"/>
<path opacity="0.275362" d="M872.829 431.245C876.912 440.042 886.075 445.333 895.736 444.47L1095.57 426.635C1101.79 426.08 1107.51 423.023 1111.43 418.165L1287.29 200.131C1290.47 196.185 1292.26 191.299 1292.38 186.232L1298.18 -60.5431C1298.38 -68.9513 1293.97 -76.7969 1286.69 -81.0021L1132.43 -170.064C1125.14 -174.269 1116.14 -174.164 1108.96 -169.789L898.148 -41.3783C893.819 -38.7414 890.482 -34.7483 888.657 -30.0195L787.763 231.298C785.516 237.119 785.73 243.605 788.358 249.265L872.829 431.245Z" stroke="#9CCBF0" stroke-width="4"/>
<path opacity="0.289855" d="M844.705 422.823C848.328 431.782 857.165 437.521 866.823 437.187L1065.66 430.307C1071.91 430.091 1077.8 427.34 1081.97 422.689L1267.03 216.637C1270.43 212.851 1272.48 208.045 1272.86 202.97L1290.92 -40.6375C1291.54 -49.0098 1287.55 -57.0551 1280.51 -61.6275L1132.13 -157.982C1125.09 -162.554 1116.12 -162.927 1108.72 -158.955L893.524 -43.3716C889.041 -40.9637 885.483 -37.137 883.408 -32.4908L770.439 220.376C767.889 226.084 767.773 232.584 770.117 238.38L844.705 422.823Z" stroke="#9CCBF0" stroke-width="4"/>
<path opacity="0.304348" d="M817.426 413.862C820.582 422.958 829.071 429.126 838.697 429.317L1035.94 433.238C1042.2 433.362 1048.24 430.928 1052.67 426.496L1246.15 232.786C1249.76 229.172 1252.07 224.458 1252.7 219.388L1282.71 -20.4515C1283.75 -28.7663 1280.19 -36.9889 1273.41 -41.9144L1131.26 -145.191C1124.48 -150.117 1115.56 -150.965 1107.97 -147.407L889.145 -44.7525C884.52 -42.5826 880.748 -38.9344 878.426 -34.3835L753.987 209.491C751.141 215.07 750.692 221.569 752.746 227.486L817.426 413.862Z" stroke="#9CCBF0" stroke-width="4"/>
<path opacity="0.318841" d="M791.008 404.415C793.694 413.624 801.813 420.198 811.379 420.911L1006.45 435.445C1012.71 435.911 1018.88 433.801 1023.54 429.603L1224.68 248.546C1228.49 245.114 1231.05 240.506 1231.94 235.454L1273.55 -0.0411268C1275.01 -8.2773 1271.88 -16.6543 1265.38 -21.9178L1129.77 -131.733C1123.27 -136.996 1114.42 -138.316 1106.67 -135.18L884.973 -45.5132C880.218 -43.5898 876.242 -40.1317 873.677 -35.6888L738.395 198.693C735.258 204.127 734.478 210.607 736.235 216.631L791.008 404.415Z" stroke="#9CCBF0" stroke-width="4"/>
<path opacity="0.333333" d="M765.473 394.535C767.686 403.831 775.416 410.791 784.892 412.02L977.223 436.949C983.457 437.757 989.75 435.978 994.639 432.026L1202.63 263.886C1206.64 260.648 1209.44 256.159 1210.59 251.138L1263.44 20.5375C1265.31 12.4009 1262.62 3.89269 1256.41 -1.69292L1127.63 -117.647C1121.43 -123.233 1112.69 -125.019 1104.79 -122.314L880.976 -45.648C876.103 -43.9788 871.932 -40.722 869.13 -36.3996L723.652 188.029C720.233 193.304 719.121 199.749 720.577 205.864L765.473 394.535Z" stroke="#9CCBF0" stroke-width="4"/>
<path opacity="0.347826" d="M740.834 384.276C742.571 393.635 749.893 400.958 759.252 402.694L948.297 437.771C954.489 438.92 960.882 437.479 965.983 433.786L1180.04 278.779C1184.23 275.745 1187.27 271.387 1188.68 266.41L1252.37 41.229C1254.64 33.2125 1252.4 24.5965 1246.51 18.7055L1124.82 -102.977C1118.93 -108.868 1110.32 -111.113 1102.3 -108.846L877.119 -45.1526C872.142 -43.7447 867.784 -40.7002 864.75 -36.5107L709.743 177.546C706.049 182.647 704.609 189.039 705.758 195.232L740.834 384.276Z" stroke="#9CCBF0" stroke-width="4"/>
<path opacity="0.362319" d="M717.102 373.693C718.363 383.09 725.261 390.751 734.475 392.987L919.704 437.934C925.836 439.422 932.31 438.326 937.61 434.902L1156.93 293.196C1161.29 290.377 1164.57 286.164 1166.24 281.243L1240.35 61.9781C1243.02 54.1017 1241.22 45.4016 1235.66 39.223L1121.32 -87.7666C1115.75 -93.9453 1107.29 -96.6405 1099.18 -94.816L873.366 -44.0249C868.298 -42.8849 863.765 -40.0629 860.505 -36.0183L696.651 167.289C692.691 172.202 690.924 178.526 691.763 184.78L717.102 373.693Z" stroke="#9CCBF0" stroke-width="4"/>
<path opacity="0.376812" d="M694.287 362.84C695.072 372.25 701.53 380.225 710.571 382.949L891.477 437.464C897.53 439.288 904.066 438.54 909.551 435.396L1133.34 307.114C1137.86 304.519 1141.37 300.463 1143.29 295.61L1227.39 82.7301C1230.44 75.0134 1229.1 66.253 1223.87 59.805L1117.09 -72.0601C1111.87 -78.5081 1103.58 -81.644 1095.4 -80.2665L869.685 -42.2646C864.54 -41.3984 859.843 -38.8088 856.364 -34.9209L684.356 157.304C680.141 162.015 678.05 168.254 678.576 174.554L694.287 362.84Z" stroke="#9CCBF0" stroke-width="4"/>
<path opacity="0.391304" d="M672.392 351.771C672.704 361.171 678.707 369.433 687.55 372.634L863.643 436.387C869.599 438.543 876.18 438.147 881.835 435.294L1109.29 320.508C1113.97 318.147 1117.7 314.26 1119.87 309.489L1213.49 103.431C1216.91 95.8935 1216.02 87.0965 1211.16 80.3983L1112.13 -55.9026C1107.26 -62.6009 1099.17 -66.1666 1090.94 -65.2386L866.04 -39.8732C860.833 -39.2859 855.982 -36.9381 852.291 -33.2184L672.837 147.632C668.375 152.129 665.965 158.266 666.176 164.596L672.392 351.771Z" stroke="#9CCBF0" stroke-width="4"/>
<path opacity="0.405797" d="M651.42 340.541C651.263 349.905 656.798 358.429 665.416 362.094L836.232 434.73C842.073 437.213 848.68 437.173 854.489 434.619L1084.82 333.358C1089.64 331.24 1093.58 327.533 1096 322.856L1198.66 124.029C1202.45 116.689 1202.02 107.879 1197.52 100.95L1106.41 -39.3403C1101.91 -46.2691 1094.04 -50.2523 1085.79 -49.7752L862.399 -36.8541C857.144 -36.5501 852.152 -34.4529 848.257 -30.9126L662.068 138.316C657.372 142.585 654.648 148.604 654.541 154.95L651.42 340.541Z" stroke="#9CCBF0" stroke-width="4"/>
<path opacity="0.42029" d="M631.369 329.204C630.747 338.508 635.804 347.267 644.173 351.38L809.27 432.522C814.977 435.327 821.591 435.644 827.54 433.398L1059.96 345.645C1064.9 343.777 1069.05 340.262 1071.71 335.691L1182.93 144.472C1187.07 137.346 1187.09 128.548 1182.97 121.409L1099.93 -22.4196C1095.81 -29.5586 1088.18 -33.9459 1079.94 -33.9195L858.727 -33.2125C853.439 -33.1955 848.319 -31.3572 844.228 -28.0071L652.023 129.395C647.104 133.424 644.071 139.31 643.647 145.654L631.369 329.204Z" stroke="#9CCBF0" stroke-width="4"/>
<path opacity="0.434783" d="M612.236 317.811C611.155 327.033 615.724 336 623.819 340.545L782.782 429.795C788.337 432.914 794.938 433.589 801.01 431.658L1034.74 357.35C1039.8 355.74 1044.15 352.428 1047.05 347.975L1166.3 164.71C1170.79 157.816 1171.25 149.052 1167.52 141.723L1092.67 -5.18701C1088.93 -12.5153 1081.57 -17.292 1073.35 -17.7148L854.993 -28.955C849.687 -29.2281 844.451 -27.6564 840.173 -24.5068L642.674 120.906C637.543 124.684 634.209 130.421 633.467 136.749L612.236 317.811Z" stroke="#9CCBF0" stroke-width="4"/>
<path opacity="0.449275" d="M594.012 306.417C592.479 315.532 596.552 324.68 604.352 329.64L756.789 426.578C762.176 430.004 768.745 431.036 774.923 429.428L1009.2 368.458C1014.37 367.113 1018.9 364.015 1022.03 359.692L1148.81 184.693C1153.62 178.048 1154.53 169.341 1151.19 161.845L1084.62 12.3105C1081.28 4.81423 1074.2 -0.336121 1066.04 -1.20517L851.163 -24.0906C845.856 -24.6558 840.517 -23.3577 836.062 -20.4187L633.99 112.886C628.661 116.402 625.032 121.974 623.973 128.27L594.012 306.417Z" stroke="#9CCBF0" stroke-width="4"/>
<path opacity="0.463768" d="M576.688 295.072C574.712 304.059 578.282 313.359 585.764 318.715L731.312 422.904C736.514 426.628 743.032 428.017 749.3 426.738L983.378 378.956C988.632 377.883 993.347 375.008 996.706 370.828L1130.47 204.375C1135.59 197.994 1136.94 189.368 1134.01 181.725L1075.78 30.0264C1072.85 22.3839 1066.07 16.8766 1057.99 15.5657L847.208 -18.6293C841.914 -19.4881 836.487 -18.47 831.864 -15.7511L625.938 105.369C620.424 108.612 616.509 114.006 615.135 120.254L576.688 295.072Z" stroke="#9CCBF0" stroke-width="4"/>
<path opacity="0.478261" d="M560.251 283.827C557.84 292.664 560.902 302.087 568.046 307.819L706.37 418.807C711.37 422.819 717.818 424.562 724.158 423.616L957.305 388.832C962.635 388.037 967.516 385.395 971.098 381.368L1111.3 223.711C1116.73 217.608 1118.51 209.086 1115.99 201.319L1066.15 47.9143C1063.62 40.1475 1057.17 34.3013 1049.19 32.5541L843.095 -12.5828C837.831 -13.7358 832.329 -13.0035 827.549 -10.5139L618.484 98.3858C612.799 101.347 608.607 106.547 606.92 112.732L560.251 283.827Z" stroke="#9CCBF0" stroke-width="4"/>
<path opacity="0.492754" d="M544.684 272.732C541.85 281.396 544.401 290.915 551.187 297.002L681.98 414.319C686.762 418.608 693.12 420.702 699.515 420.094L931.019 398.078C936.41 397.565 941.448 395.166 945.244 391.304L1091.35 242.656C1097.06 236.846 1099.27 228.449 1097.16 220.58L1055.72 65.9276C1053.61 58.059 1047.5 51.8927 1039.65 49.7164L838.796 -5.96482C833.577 -7.41168 828.015 -6.97035 823.09 -4.71861L611.593 91.9666C605.751 94.6375 601.292 99.6299 599.295 105.736L544.684 272.732Z" stroke="#9CCBF0" stroke-width="4"/>
<path opacity="0.507246" d="M529.968 261.832C526.724 270.304 528.761 279.891 535.171 286.31L658.156 409.475C662.704 414.03 668.954 416.471 675.385 416.203L904.556 406.685C909.994 406.46 915.177 404.312 919.181 400.625L1070.63 261.169C1076.61 255.665 1079.24 247.415 1077.55 239.467L1044.51 84.021C1042.82 76.073 1037.06 69.6063 1029.36 67.0093L834.283 1.20986C829.125 -0.529886 823.517 -0.383904 818.457 1.62186L605.228 86.1387C599.244 88.5107 594.527 93.2821 592.225 99.2936L529.968 261.832Z" stroke="#9CCBF0" stroke-width="4"/>
<path opacity="0.521739" d="M516.083 251.176C512.44 259.435 513.965 269.061 519.982 275.79L634.909 404.309C639.21 409.118 645.332 411.9 651.782 411.976L877.953 414.65C883.424 414.714 888.739 412.827 892.943 409.325L1049.18 279.211C1055.41 274.025 1058.45 265.944 1057.18 257.939L1032.51 102.149C1031.24 94.1448 1025.85 87.3982 1018.33 84.3902L829.526 8.92503C824.445 6.89425 818.807 6.74121 813.624 8.49338L599.349 80.927C593.238 82.9929 588.275 87.5303 585.671 93.4325L516.083 251.176Z" stroke="#9CCBF0" stroke-width="4"/>
<path opacity="0.536232" d="M503.006 240.806C498.977 248.834 499.99 258.472 505.6 265.487L612.252 398.857C616.29 403.906 622.266 407.022 628.717 407.443L851.247 421.968C856.735 422.326 862.17 420.706 866.567 417.4L1027.04 296.745C1033.5 291.888 1036.94 283.996 1036.09 275.957L1019.73 120.269C1018.89 112.23 1013.88 105.225 1006.55 101.817L824.5 17.1631C819.513 14.8439 813.859 14.3889 808.565 15.8804L593.918 76.3542C587.695 78.1073 582.498 82.3984 579.598 88.1765L503.006 240.806Z" stroke="#9CCBF0" stroke-width="4"/>
<path opacity="0.550725" d="M490.708 230.767C486.31 238.545 486.814 248.167 492.002 255.442L590.192 393.153C593.953 398.428 599.765 401.872 606.198 402.638L824.474 428.639C829.965 429.293 835.508 427.947 840.087 424.847L1004.24 313.736C1010.92 309.218 1014.74 301.535 1014.32 293.485L1006.19 138.335C1005.77 130.286 1001.16 123.045 994.049 119.249L819.179 25.9049C814.301 23.3009 808.648 22.5417 803.256 23.7661L588.893 72.4403C582.575 73.8749 577.155 77.9077 573.966 83.5473L490.708 230.767Z" stroke="#9CCBF0" stroke-width="4"/>
<path opacity="0.565217" d="M479.164 221.099C474.411 228.609 474.411 238.187 479.164 245.698L568.735 387.232C572.207 392.719 577.837 396.482 584.234 397.593L797.672 434.664C803.15 435.615 808.787 434.55 813.54 431.666L980.823 330.151C987.695 325.981 991.891 318.526 991.891 310.488V156.308C991.891 148.27 987.695 140.815 980.823 136.645L813.54 35.1303C808.787 32.2459 803.15 31.1809 797.672 32.1323L584.234 69.2029C577.837 70.314 572.207 74.0774 568.735 79.5641L479.164 221.099Z" stroke="#9CCBF0" stroke-width="4"/>
<path opacity="0.57971" d="M468.342 211.839C463.251 219.067 462.752 228.573 467.061 236.293L547.886 381.13C551.057 386.813 556.487 390.886 562.83 392.341L770.876 440.046C776.325 441.295 782.043 440.517 786.961 437.857L956.825 345.961C963.874 342.148 968.43 334.94 968.85 326.936L976.857 174.144C977.276 166.141 973.499 158.496 966.887 153.966L807.559 44.8182C802.947 41.6586 797.341 40.2871 791.791 40.9601L579.898 66.6572C573.438 67.4406 567.612 70.924 563.864 76.244L468.342 211.839Z" stroke="#9CCBF0" stroke-width="4"/>
<path opacity="0.594203" d="M458.21 203.026C452.797 209.955 451.808 219.363 455.662 227.266L527.646 374.882C530.505 380.745 535.718 385.118 541.988 386.913L744.122 444.79C749.528 446.338 755.312 445.852 760.384 443.424L932.288 361.139C939.496 357.689 944.397 350.745 945.232 342.798L961.102 191.806C961.937 183.859 958.588 176.048 952.255 171.174L801.215 54.9462C796.759 51.5174 791.201 49.8394 785.592 50.2295L575.842 64.8157C569.336 65.2682 563.327 68.4617 559.312 73.6014L458.21 203.026Z" stroke="#9CCBF0" stroke-width="4"/>
<path opacity="0.608696" d="M448.733 194.693C443.017 201.309 441.547 210.593 444.938 218.651L508.017 368.523C510.553 374.548 515.532 379.209 521.711 381.342L717.446 448.904C722.791 450.749 728.629 450.56 733.844 448.373L907.256 375.66C914.603 372.58 919.833 365.916 921.079 358.047L944.645 209.255C945.892 201.386 942.977 193.432 936.942 188.232L794.487 65.491C790.203 61.7999 784.709 59.8163 779.055 59.9192L572.023 63.6886C565.487 63.8076 559.311 66.7019 555.037 71.6484L448.733 194.693Z" stroke="#9CCBF0" stroke-width="4"/>
<path opacity="0.623188" d="M439.877 186.872C433.876 193.161 431.934 202.296 434.858 210.483L488.996 362.087C491.199 368.257 495.93 373.195 501.999 375.66L690.882 452.396C696.152 454.537 702.028 454.649 707.376 452.711L881.771 389.503C889.238 386.796 894.78 380.429 896.432 372.661L927.509 226.453C929.16 218.685 926.687 210.614 920.966 205.105L787.357 76.4286C783.26 72.4827 777.846 70.1951 772.161 70.0075L568.397 63.2831C561.849 63.067 555.52 65.6538 550.997 70.3943L439.877 186.872Z" stroke="#9CCBF0" stroke-width="4"/>
<path opacity="0.637681" d="M431.603 179.592C425.337 185.543 422.936 194.504 425.386 202.791L470.58 355.607C472.442 361.904 476.908 367.105 482.851 369.899L664.464 455.277C669.643 457.711 675.543 458.128 681.012 456.445L855.879 402.647C863.446 400.319 869.283 394.263 871.332 386.617L909.716 243.367C911.765 235.72 909.737 227.557 904.348 221.758L779.808 87.7334C775.913 83.5414 770.595 80.9521 764.893 80.4711L564.922 63.6039C558.378 63.052 551.911 65.3234 547.15 69.8458L431.603 179.592Z" stroke="#9CCBF0" stroke-width="4"/>
<path opacity="0.652174" d="M423.873 172.88C417.361 178.482 414.514 187.245 416.489 195.605L452.764 349.117C454.277 355.523 458.463 360.973 464.261 364.089L638.225 457.56C643.297 460.285 649.206 461.009 654.786 459.589L829.625 415.077C837.271 413.13 843.386 407.4 845.825 399.895L891.292 259.963C893.73 252.458 892.151 244.228 887.109 238.158L771.825 99.3801C768.146 94.9514 762.94 92.0635 757.235 91.2871L561.553 64.6535C555.031 63.7658 548.442 65.7149 543.452 70.0076L423.873 172.88Z" stroke="#9CCBF0" stroke-width="4"/>
<path opacity="0.666667" d="M416.647 166.761C409.91 172.004 406.63 180.547 408.129 188.951L435.539 342.65C436.697 349.145 440.589 354.83 446.225 358.26L612.198 459.26C617.147 462.272 623.05 463.305 628.728 462.153L803.053 426.78C810.76 425.216 817.134 419.823 819.952 412.482L872.262 276.209C875.08 268.867 873.952 260.595 869.271 254.276L763.392 111.342C759.943 106.687 754.865 103.505 749.172 102.431L558.248 66.4316C551.764 65.2091 545.068 66.8297 539.861 70.8815L416.647 166.761Z" stroke="#9CCBF0" stroke-width="4"/>
<path opacity="0.681159" d="M409.885 161.257C402.942 166.132 399.247 174.432 400.269 182.853L418.898 336.237C419.696 342.803 423.28 348.707 428.737 352.443L586.413 460.393C591.224 463.687 597.107 465.03 602.871 464.152L776.212 437.744C783.959 436.564 790.572 431.52 793.759 424.361L852.656 292.076C855.844 284.918 855.167 276.628 850.86 270.081L754.497 123.593C751.293 118.722 746.358 115.25 740.692 113.879L554.963 68.9351C548.535 67.3797 541.749 68.6664 536.336 72.4668L409.885 161.257Z" stroke="#9CCBF0" stroke-width="4"/>
<path opacity="0.695652" d="M403.543 156.386C396.417 160.886 392.322 168.923 392.871 177.333L402.829 329.91C403.261 336.525 406.526 342.632 411.787 346.666L560.901 460.977C565.559 464.547 571.405 466.202 577.242 465.603L749.146 447.962C756.914 447.165 763.746 442.482 767.291 435.524L832.504 307.538C836.049 300.58 835.821 292.3 831.901 285.547L745.13 136.105C742.183 131.03 737.408 127.274 731.782 125.604L551.656 72.159C545.3 70.2733 538.44 71.2215 532.835 74.7605L403.543 156.386Z" stroke="#9CCBF0" stroke-width="4"/>
<path opacity="0.710145" d="M397.581 152.166C390.291 156.284 385.815 164.037 385.894 172.409L387.321 323.698C387.384 330.343 390.317 336.636 395.366 340.957L535.691 461.03C540.179 464.871 545.973 466.838 551.872 466.522L721.903 457.43C729.671 457.014 736.703 452.7 740.593 445.962L811.835 322.568C815.725 315.83 815.945 307.583 812.421 300.648L735.28 148.851C732.604 143.584 728.003 139.55 722.433 137.583L548.284 76.0955C542.018 73.8831 535.101 74.489 529.315 77.7572L397.581 152.166Z" stroke="#9CCBF0" stroke-width="4"/>
<path opacity="0.724638" d="M391.955 148.609C384.523 152.34 379.684 159.792 379.299 168.098L372.359 317.631C372.05 324.285 374.641 330.746 379.463 335.343L510.809 460.575C515.113 464.68 520.84 466.957 526.788 466.929L694.528 466.143C702.278 466.107 709.489 462.17 713.71 455.67L790.682 337.143C794.903 330.643 795.567 322.454 792.448 315.36L724.94 161.802C722.546 156.357 718.136 152.051 712.636 149.788L544.808 80.7343C538.647 78.1996 531.69 78.4603 525.737 81.449L391.955 148.609Z" stroke="#9CCBF0" stroke-width="4"/>
<path opacity="0.73913" d="M386.622 145.728C379.07 149.068 373.888 156.2 373.045 164.414L357.928 311.735C357.246 318.378 359.485 324.99 364.064 329.851L486.282 459.634C490.388 463.994 496.033 466.581 502.016 466.844L667.068 474.105C674.781 474.444 682.149 470.891 686.686 464.646L769.079 351.242C773.617 344.997 774.719 336.891 772.013 329.661L714.103 174.93C712.004 169.321 707.8 164.753 702.385 162.195L541.186 86.0632C535.147 83.2114 528.168 83.1248 522.06 85.8259L386.622 145.728Z" stroke="#9CCBF0" stroke-width="4"/>
<path opacity="0.753623" d="M381.537 143.529C373.886 146.476 368.382 153.272 367.09 161.369L344.011 306.038C342.956 312.649 344.834 319.391 349.155 324.505L462.136 458.23C466.028 462.837 471.574 465.731 477.58 466.288L639.569 481.317C647.225 482.027 654.729 478.865 659.568 472.889L747.059 364.847C751.898 358.871 753.431 350.873 751.144 343.532L702.765 188.208C700.971 182.449 696.988 177.626 691.672 174.776L537.379 92.0672C531.479 88.9044 524.493 88.4692 518.246 90.8753L381.537 143.529Z" stroke="#9CCBF0" stroke-width="4"/>
<path opacity="0.768116" d="M376.657 142.02C368.929 144.572 363.125 151.018 361.395 158.97L330.59 300.565C329.163 307.123 330.672 313.977 334.721 319.33L438.392 456.389C442.057 461.234 447.49 464.432 453.505 465.285L612.075 487.785C619.656 488.861 627.275 486.093 632.398 480.403L724.657 377.94C729.78 372.25 731.736 364.383 729.874 356.956L690.922 201.606C689.445 195.714 685.696 190.645 680.495 187.507L533.35 98.7296C527.604 95.2626 520.629 94.4785 514.257 96.5829L376.657 142.02Z" stroke="#9CCBF0" stroke-width="4"/>
<path opacity="0.782609" d="M371.94 141.202C364.155 143.359 358.073 149.441 355.916 157.225L317.646 295.34C315.85 301.824 316.982 308.77 320.746 314.347L415.074 454.135C418.497 459.208 423.801 462.708 429.812 463.859L584.631 493.519C592.119 494.954 599.831 492.584 605.222 487.193L701.908 390.508C707.299 385.117 709.668 377.404 708.234 369.917L678.574 215.097C677.422 209.086 673.923 203.783 668.85 200.359L529.062 106.031C523.484 102.268 516.539 101.135 510.055 102.932L371.94 141.202Z" stroke="#9CCBF0" stroke-width="4"/>
<path opacity="0.797101" d="M367.34 141.076C359.522 142.839 353.184 148.545 350.614 156.137L305.159 290.386C302.996 296.775 303.746 303.792 307.212 309.579L392.2 451.497C395.368 456.788 400.528 460.584 406.521 462.035L557.28 498.53C564.657 500.316 572.441 498.347 578.082 493.268L678.848 402.538C684.488 397.459 687.26 389.924 686.255 382.4L665.719 228.652C664.903 222.54 661.666 217.012 656.736 213.308L524.479 113.951C519.085 109.899 512.186 108.419 505.605 109.903L367.34 141.076Z" stroke="#9CCBF0" stroke-width="4"/>
<path opacity="0.811594" d="M362.817 141.64C354.984 143.011 348.416 148.331 345.446 155.707L293.107 285.723C290.581 291.997 290.945 299.064 294.1 305.045L369.79 448.503C372.69 453.999 377.69 458.088 383.652 459.839L530.065 502.831C537.314 504.959 545.147 503.392 551.019 498.637L655.512 414.02C661.384 409.265 664.546 401.929 663.971 394.396L652.359 242.244C651.886 236.048 648.926 230.307 644.153 226.328L519.567 122.466C514.372 118.135 507.535 116.311 500.874 117.477L362.817 141.64Z" stroke="#9CCBF0" stroke-width="4"/>
<path opacity="0.826087" d="M358.326 142.89C350.501 143.872 343.725 148.795 340.372 155.934L281.467 281.372C278.585 287.509 278.557 294.605 281.392 300.764L347.86 445.182C350.479 450.872 355.304 455.247 361.222 457.298L503.025 506.438C510.131 508.901 517.992 507.734 524.075 503.314L631.937 424.948C638.021 420.528 641.559 413.412 641.413 405.894L638.498 255.846C638.376 249.584 635.706 243.642 631.104 239.393L514.294 131.551C509.312 126.952 502.555 124.785 495.828 125.629L358.326 142.89Z" stroke="#9CCBF0" stroke-width="4"/>
<path opacity="0.84058" d="M353.828 144.816C346.03 145.414 339.071 149.934 335.353 156.814L270.216 277.35C266.985 283.33 266.564 290.434 269.067 296.754L326.425 441.563C328.75 447.433 333.387 452.09 339.247 454.44L476.203 509.371C483.148 512.157 491.015 511.389 497.291 507.313L608.159 435.315C614.435 431.239 618.336 424.365 618.616 416.887L624.139 269.429C624.375 263.119 622.007 256.99 617.59 252.478L508.63 141.18C503.875 136.323 497.214 133.818 490.436 134.338L353.828 144.816Z" stroke="#9CCBF0" stroke-width="4"/>
<path opacity="0.855072" d="M349.136 147.561C341.386 147.781 334.268 151.891 330.203 158.493L259.187 273.824C255.613 279.628 254.798 286.718 256.96 293.181L305.354 437.828C307.374 443.865 311.806 448.795 317.595 451.445L449.49 511.8C456.26 514.899 464.112 514.528 470.56 510.805L584.069 445.27C590.517 441.547 594.764 434.933 595.466 427.521L609.144 283.119C609.744 276.781 607.691 270.477 603.472 265.709L502.402 151.476C497.885 146.371 491.338 143.533 484.525 143.726L349.136 147.561Z" stroke="#9CCBF0" stroke-width="4"/>
<path opacity="0.869565" d="M344.501 150.811C336.818 150.659 329.566 154.354 325.173 160.659L248.643 270.509C244.736 276.116 243.526 283.17 245.339 289.759L284.947 433.705C286.651 439.896 290.864 445.093 296.569 448.039L423.212 513.448C429.794 516.847 437.609 516.868 444.209 513.505L559.992 454.511C566.592 451.148 571.168 444.813 572.287 437.491L593.809 296.587C594.779 290.24 593.051 283.777 589.044 278.76L495.87 162.106C491.605 156.767 485.187 153.6 478.355 153.465L344.501 150.811Z" stroke="#9CCBF0" stroke-width="4"/>
<path opacity="0.884058" d="M339.738 154.702C332.141 154.185 324.781 157.462 320.081 163.453L238.414 267.568C234.185 272.959 232.58 279.955 234.036 286.65L265.07 429.378C266.446 435.707 270.426 441.162 276.033 444.403L397.261 514.488C403.639 518.176 411.398 518.585 418.128 515.588L535.819 463.188C542.55 460.192 547.437 454.153 548.965 446.946L577.999 309.959C579.342 303.624 577.951 297.016 574.169 291.758L488.867 173.192C484.866 167.63 478.593 164.142 471.757 163.677L339.738 154.702Z" stroke="#9CCBF0" stroke-width="4"/>
<path opacity="0.898551" d="M334.811 159.216C327.319 158.344 319.875 161.202 314.89 166.863L228.474 265.013C223.934 270.169 221.937 277.085 223.029 283.867L245.729 424.878C246.767 431.329 250.501 437.034 255.997 440.568L371.669 514.95C377.831 518.912 385.512 519.702 392.352 517.077L511.585 471.307C518.425 468.682 523.604 462.955 525.532 455.888L561.722 323.211C563.442 316.907 562.399 310.169 558.854 304.68L481.369 184.7C477.642 178.929 471.53 175.126 464.706 174.332L334.812 159.216L335.043 157.23L334.811 159.216Z" stroke="#9CCBF0" stroke-width="4"/>
<path opacity="0.913043" d="M329.686 164.336C322.316 163.119 314.813 165.556 309.566 170.874L218.799 262.854C213.961 267.757 211.575 274.57 212.297 281.42L226.932 420.237C227.623 426.794 231.096 432.74 236.468 436.563L346.469 514.86C352.403 519.084 359.987 520.248 366.914 517.997L487.325 478.873C494.252 476.622 499.703 471.223 502.021 464.318L544.992 336.318C547.091 330.067 546.406 323.216 543.11 317.504L473.356 196.597C469.914 190.631 463.978 186.521 457.182 185.399L329.686 164.336Z" stroke="#9CCBF0" stroke-width="4"/>
<path opacity="0.927536" d="M324.326 170.041C317.095 168.488 309.558 170.507 304.073 175.467L302.731 173.984L304.073 175.467L209.362 261.099C204.238 265.731 201.468 272.42 201.816 279.318L208.681 415.486C209.016 422.134 212.215 428.31 217.45 432.42L321.687 514.25C327.382 518.721 334.85 520.249 341.843 518.376L463.07 485.893C470.063 484.019 475.766 478.962 478.462 472.243L527.819 349.256C530.298 343.079 529.98 336.132 526.947 330.208L464.808 208.849C461.66 202.702 455.916 198.294 449.164 196.844L324.326 170.041L324.746 168.085L324.326 170.041Z" stroke="#9CCBF0" stroke-width="4"/>
<path opacity="0.942029" d="M318.699 176.307C311.624 174.431 304.078 176.035 298.377 180.626L200.134 259.755C194.741 264.099 191.592 270.642 191.562 277.567L190.98 410.66C190.95 417.379 193.861 423.775 198.947 428.167L297.353 513.152C302.798 517.854 310.13 519.738 317.168 518.242L438.854 492.377C445.892 490.881 451.824 486.178 454.885 479.667L510.218 362.005C513.077 355.924 513.135 348.897 510.375 342.77L455.709 221.421C452.865 215.107 447.327 210.41 440.633 208.635L318.699 176.307Z" stroke="#9CCBF0" stroke-width="4"/>
<path opacity="0.956522" d="M312.776 183.11C305.872 180.923 298.341 182.116 292.45 186.329L191.092 258.827C185.445 262.867 181.924 269.242 181.513 276.173L173.829 405.788C173.427 412.562 176.037 419.168 180.961 423.837L273.49 511.597C278.677 516.517 285.856 518.745 292.916 517.626L414.709 498.336C421.769 497.218 427.908 492.881 431.321 486.6L492.203 374.541C495.442 368.579 495.883 361.49 493.408 355.172L446.046 234.275C443.513 227.81 438.195 222.835 431.576 220.738L312.776 183.11Z" stroke="#9CCBF0" stroke-width="4"/>
<path opacity="0.971014" d="M306.526 190.424C299.808 187.94 292.315 188.727 286.26 192.554L182.208 258.319C176.323 262.039 172.44 268.224 171.646 275.141L157.225 400.904C156.445 407.714 158.742 414.517 163.491 419.46L250.122 509.622C255.042 514.742 262.05 517.303 269.111 516.561L390.665 503.785C397.726 503.043 404.049 499.081 407.796 493.05L473.789 386.846C477.406 381.024 478.239 373.892 476.059 367.393L435.806 247.377C433.592 240.776 428.507 235.533 421.977 233.118L306.526 190.424Z" stroke="#9CCBF0" stroke-width="4"/>
<path opacity="0.985507" d="M299.923 198.222C293.404 195.454 285.973 195.843 279.78 199.278L173.456 258.232C167.351 261.617 163.114 267.592 161.938 274.473L141.167 396.039C140.001 402.865 141.973 409.854 146.535 415.065L227.269 507.261C231.914 512.566 238.735 515.446 245.776 515.077L366.75 508.737C373.791 508.368 380.274 504.79 384.339 499.029L454.993 398.899C458.986 393.24 460.217 386.084 458.343 379.416L424.979 260.688C423.09 253.967 418.252 248.468 411.826 245.74L299.923 198.222Z" stroke="#9CCBF0" stroke-width="4"/>
<path d="M293.086 206.322C286.779 203.285 279.433 203.285 273.127 206.322L164.954 258.416C158.648 261.453 154.068 267.196 152.51 274.02L125.793 391.073C124.236 397.897 125.871 405.059 130.235 410.531L205.093 504.4C209.457 509.872 216.075 513.06 223.075 513.06H343.138C350.137 513.06 356.756 509.872 361.12 504.4L435.978 410.531C440.342 405.059 441.977 397.897 440.419 391.073L413.703 274.02C412.145 267.196 407.565 261.453 401.259 258.416L293.086 206.322Z" stroke="#9CCBF0" stroke-width="4"/>
</g>
</mask>
<g mask="url(#mask0_834_25343)">
<rect x="-1" y="1" width="1201" height="218" rx="15" fill="#FFB636"/>
<rect x="-1" y="1" width="1201" height="218" rx="15" stroke="#FFB636" stroke-width="2"/>
</g>
</g>
</svg>
