<svg width="1085" height="222" viewBox="0 0 1085 222" fill="none" xmlns="http://www.w3.org/2000/svg">
<g opacity="0.3">
<mask id="mask0_3815_35636" style="mask-type:alpha" maskUnits="userSpaceOnUse" x="6" y="-364" width="1501" height="841">
<g opacity="0.3">
<path opacity="0.0144928" d="M1389.71 -270.434L1501.84 -68.441C1504.78 -63.1409 1505.51 -56.8937 1503.87 -51.0577L1412.75 273.339C1411.46 277.929 1408.77 282.004 1405.07 285.002L1177.12 469.356C1170.4 474.792 1161.2 476 1153.3 472.485L970.529 391.108C962.632 387.592 957.373 379.946 956.916 371.314L941.393 78.5617C941.141 73.8012 942.374 69.0798 944.922 65.0506L1125.02 -219.733C1128.26 -224.857 1133.39 -228.494 1139.3 -229.854L1364.44 -281.685C1374.43 -283.984 1384.73 -279.396 1389.71 -270.434Z" stroke="#9CCBF0" stroke-width="4"/>
<path opacity="0.0289855" d="M1353.79 -280.211L1475.75 -85.9992C1478.98 -80.858 1480.05 -74.6489 1478.71 -68.7258L1405.54 256.955C1404.49 261.621 1402.01 265.843 1398.45 269.036L1182.13 463.051C1175.7 468.815 1166.59 470.495 1158.53 467.401L972.889 396.141C964.829 393.048 959.181 385.702 958.262 377.118L927.32 88.1843C926.811 83.4299 927.796 78.635 930.139 74.4666L1093.68 -216.526C1096.66 -221.818 1101.6 -225.72 1107.44 -227.38L1328.03 -290.103C1337.86 -292.899 1348.36 -288.869 1353.79 -280.211Z" stroke="#9CCBF0" stroke-width="4"/>
<path opacity="0.0434783" d="M1317.8 -288.843L1449.08 -102.882C1452.59 -97.9155 1453.99 -91.7623 1452.97 -85.7682L1397.62 240.215C1396.82 244.944 1394.56 249.303 1391.16 252.683L1186.83 455.655C1180.71 461.731 1171.71 463.876 1163.51 461.212L975.564 400.144C967.365 397.48 961.344 390.454 959.967 381.943L913.963 97.6332C913.197 92.8986 913.93 88.0428 916.06 83.7455L1062.89 -212.511C1065.59 -217.958 1070.34 -222.115 1076.1 -224.072L1291.61 -297.354C1301.26 -300.636 1311.92 -297.172 1317.8 -288.843Z" stroke="#9CCBF0" stroke-width="4"/>
<path opacity="0.057971" d="M1281.8 -296.338L1421.87 -119.066C1425.65 -114.289 1427.38 -108.209 1426.68 -102.16L1388.99 223.159C1388.44 227.939 1386.4 232.424 1383.17 235.984L1191.17 447.194C1185.38 453.565 1176.52 456.168 1168.2 453.939L978.499 403.109C970.182 400.88 963.807 394.194 961.977 385.781L901.312 106.872C900.289 102.17 900.767 97.2669 902.677 92.8513L1032.7 -207.725C1035.12 -213.313 1039.66 -217.715 1045.31 -219.965L1255.26 -303.45C1264.7 -307.207 1275.5 -304.315 1281.8 -296.338Z" stroke="#9CCBF0" stroke-width="4"/>
<path opacity="0.0724638" d="M1245.85 -302.705L1394.17 -134.528C1398.2 -129.954 1400.25 -123.966 1399.87 -117.88L1379.63 205.829C1379.33 210.646 1377.52 215.246 1374.46 218.978L1195.1 437.697C1189.65 444.346 1180.95 447.398 1172.54 445.611L981.631 405.032C973.221 403.245 966.511 396.916 964.234 388.624L889.347 115.864C888.069 111.21 888.287 106.272 889.971 101.749L1003.14 -202.207C1005.27 -207.922 1009.58 -212.558 1015.13 -215.095L1219.03 -308.406C1228.25 -312.625 1239.14 -310.309 1245.85 -302.705Z" stroke="#9CCBF0" stroke-width="4"/>
<path opacity="0.0869565" d="M1210 -307.958L1366 -149.249C1370.29 -144.893 1372.66 -139.013 1372.6 -132.905L1369.52 188.267C1369.48 193.108 1367.9 197.811 1365.03 201.706L1198.57 427.198C1193.47 434.105 1184.95 437.598 1176.47 436.255L984.906 405.914C976.426 404.571 969.4 398.616 966.684 390.471L878.052 124.577C876.521 119.984 876.478 115.025 877.93 110.406L974.251 -195.998C976.083 -201.824 980.157 -206.683 985.575 -209.503L1182.98 -312.238C1191.95 -316.905 1202.92 -315.168 1210 -307.958Z" stroke="#9CCBF0" stroke-width="4"/>
<path opacity="0.101449" d="M1174.33 -312.115L1337.43 -163.211C1341.95 -159.087 1344.63 -153.332 1344.9 -147.221L1358.67 170.513C1358.88 175.365 1357.55 180.16 1354.86 184.209L1201.51 415.729C1196.78 422.877 1188.46 426.799 1179.93 425.902L988.263 405.757C979.736 404.861 972.415 399.296 969.27 391.32L867.405 132.975C865.623 128.457 865.318 123.49 866.533 118.787L946.06 -189.141C947.589 -195.063 951.415 -200.133 956.692 -203.228L1147.19 -314.968C1155.88 -320.069 1166.88 -318.912 1174.33 -312.115Z" stroke="#9CCBF0" stroke-width="4"/>
<path opacity="0.115942" d="M1138.88 -315.195L1308.49 -176.4C1313.23 -172.52 1316.22 -166.908 1316.81 -160.81L1347.06 152.611C1347.52 157.461 1346.44 162.335 1343.96 166.529L1203.89 403.331C1199.53 410.7 1191.44 415.038 1182.89 414.59L991.647 404.567C983.097 404.119 975.503 398.959 971.939 391.175L857.387 141.029C855.358 136.599 854.789 131.638 855.761 126.863L918.6 -181.679C919.823 -187.683 923.39 -192.95 928.511 -196.314L1111.69 -316.62C1120.09 -322.138 1131.11 -321.561 1138.88 -315.195Z" stroke="#9CCBF0" stroke-width="4"/>
<path opacity="0.130435" d="M1103.72 -317.222L1279.22 -188.804C1284.17 -185.18 1287.47 -179.727 1288.38 -173.659L1334.69 134.603C1335.41 139.438 1334.58 144.378 1332.31 148.708L1205.65 390.042C1201.67 397.612 1193.83 402.353 1185.28 402.353H995C986.451 402.353 978.607 397.612 974.634 390.042L847.974 148.708C845.702 144.378 844.869 139.438 845.595 134.603L891.9 -173.659C892.811 -179.727 896.11 -185.18 901.062 -188.804L1076.56 -317.222C1084.65 -323.14 1095.64 -323.14 1103.72 -317.222Z" stroke="#9CCBF0" stroke-width="4"/>
<path opacity="0.144928" d="M1068.9 -318.222L1249.68 -200.412C1254.83 -197.057 1258.42 -191.779 1259.65 -185.758L1321.56 116.53C1322.55 121.337 1321.97 126.331 1319.91 130.785L1206.75 375.904C1203.17 383.655 1195.6 388.786 1187.07 389.232L998.27 399.127C989.745 399.574 981.674 395.263 977.306 387.929L839.144 155.981C836.633 151.767 835.536 146.86 836.013 141.977L865.985 -165.127C866.582 -171.244 869.603 -176.868 874.374 -180.744L1041.84 -316.804C1049.6 -323.104 1060.53 -323.677 1068.9 -318.222Z" stroke="#9CCBF0" stroke-width="4"/>
<path opacity="0.15942" d="M1034.47 -318.224L1219.9 -211.219C1225.23 -208.142 1229.11 -203.056 1230.66 -197.099L1307.68 98.436C1308.92 103.2 1308.6 108.236 1306.76 112.804L1207.15 360.963C1203.98 368.873 1196.69 374.379 1188.21 375.269L1001.4 394.904C992.921 395.795 984.647 391.926 979.897 384.849L830.866 162.823C828.123 158.736 826.763 153.876 826.987 148.958L840.875 -156.131C841.155 -162.281 843.889 -168.062 848.465 -172.18L1007.59 -315.398C1014.99 -322.062 1025.85 -323.202 1034.47 -318.224Z" stroke="#9CCBF0" stroke-width="4"/>
<path opacity="0.173913" d="M1000.49 -317.259L1189.93 -221.22C1195.43 -218.431 1199.58 -213.551 1201.45 -207.675L1293.04 80.3612C1294.53 85.0687 1294.48 90.1329 1292.87 94.8046L1206.81 345.265C1204.05 353.313 1197.06 359.177 1188.66 360.508L1004.33 389.703C995.927 391.034 987.474 387.615 982.357 380.816L823.115 169.206C820.145 165.26 818.524 160.461 818.493 155.522L816.591 -146.719C816.552 -152.886 818.991 -158.809 823.36 -163.161L973.855 -313.041C980.891 -320.048 991.629 -321.749 1000.49 -317.259Z" stroke="#9CCBF0" stroke-width="4"/>
<path opacity="0.188406" d="M966.99 -315.362L1159.82 -230.412C1165.47 -227.921 1169.88 -223.262 1172.06 -217.483L1277.65 62.3466C1279.4 66.9845 1279.61 72.0638 1278.24 76.8276L1205.7 328.858C1203.35 337.023 1196.69 343.228 1188.38 344.994L1007.03 383.543C998.714 385.309 990.107 382.35 984.639 375.846L815.865 175.108C812.675 171.313 810.796 166.59 810.508 161.641L793.15 -136.943C792.792 -143.109 794.929 -149.16 799.08 -153.734L940.685 -309.771C947.337 -317.101 957.932 -319.353 966.99 -315.362Z" stroke="#9CCBF0" stroke-width="4"/>
<path opacity="0.202899" d="M934.032 -312.57L1129.61 -238.795C1135.4 -236.611 1140.06 -232.188 1142.55 -226.523L1261.53 44.433C1263.53 48.9881 1264 54.0689 1262.87 58.9133L1203.78 311.792C1201.85 320.052 1195.53 326.58 1187.34 328.775L1009.43 376.447C1001.23 378.643 992.494 376.15 986.693 369.961L809.085 180.504C805.683 176.875 803.549 172.24 803.003 167.295L770.566 -126.85C769.888 -133 771.716 -139.164 775.638 -143.949L908.124 -305.628C914.377 -313.259 924.801 -316.052 934.032 -312.57Z" stroke="#9CCBF0" stroke-width="4"/>
<path opacity="0.217391" d="M901.655 -308.921L1099.34 -246.373C1105.25 -244.503 1110.15 -240.328 1112.94 -234.794L1244.68 26.6601C1246.93 31.119 1247.66 36.188 1246.77 41.1013L1201.03 294.118C1199.52 302.452 1193.56 309.284 1185.51 311.901L1011.49 368.443C1003.43 371.06 994.59 369.039 988.472 363.183L802.746 185.375C799.139 181.922 796.754 177.389 795.951 172.461L748.85 -116.493C747.853 -122.61 749.367 -128.87 753.048 -133.855L876.215 -300.654C882.056 -308.565 892.28 -311.887 901.655 -308.921Z" stroke="#9CCBF0" stroke-width="4"/>
<path opacity="0.231884" d="M869.899 -304.455L1069.06 -253.15C1075.07 -251.602 1080.2 -247.689 1083.29 -242.3L1227.11 9.0667C1229.6 13.4164 1230.6 18.46 1229.96 23.4303L1197.41 275.889C1196.33 284.275 1190.74 291.391 1182.85 294.421L1013.16 359.558C1005.26 362.588 996.344 361.043 989.93 355.535L796.813 189.701C793.011 186.436 790.38 182.019 789.319 177.121L728.007 -105.921C726.693 -111.989 727.887 -118.33 731.318 -123.503L844.994 -294.895C850.411 -303.063 860.409 -306.9 869.899 -304.455Z" stroke="#9CCBF0" stroke-width="4"/>
<path opacity="0.246377" d="M838.805 -299.217L1038.81 -259.135C1044.91 -257.913 1050.25 -254.274 1053.62 -249.047L1208.85 -8.30919C1211.58 -4.0816 1212.84 0.923016 1212.45 5.93811L1192.91 257.159C1192.26 265.574 1187.05 272.954 1179.34 276.387L1014.4 349.822C1006.69 353.255 997.717 352.189 991.026 347.045L791.26 193.465C787.272 190.399 784.399 186.11 783.081 181.256L708.045 -95.1862C706.416 -101.188 707.287 -107.593 710.459 -112.943L814.503 -288.397C819.485 -296.798 829.229 -301.136 838.805 -299.217Z" stroke="#9CCBF0" stroke-width="4"/>
<path opacity="0.26087" d="M808.406 -293.251L1008.63 -264.336C1014.8 -263.446 1020.34 -260.092 1023.99 -255.043L1189.9 -25.4307C1192.86 -21.3379 1194.39 -16.3858 1194.25 -11.3382L1187.51 237.981C1187.28 246.404 1182.46 254.027 1174.96 257.853L1015.17 339.269C1007.66 343.094 998.663 342.508 991.715 337.742L786.048 196.651C781.884 193.795 778.776 189.648 777.203 184.849L688.963 -84.3385C687.023 -90.2583 687.567 -96.7121 690.471 -102.224L784.77 -281.208C789.307 -289.819 798.772 -294.642 808.406 -293.251Z" stroke="#9CCBF0" stroke-width="4"/>
<path opacity="0.275362" d="M778.735 -286.602L978.57 -268.766C984.786 -268.211 990.51 -265.154 994.428 -260.296L1170.29 -42.2619C1173.47 -38.3164 1175.26 -33.4302 1175.38 -28.3627L1181.18 218.412C1181.38 226.82 1176.97 234.666 1169.69 238.871L1015.43 327.933C1008.14 332.138 999.144 332.033 991.961 327.657L781.148 199.247C776.819 196.61 773.482 192.617 771.656 187.888L670.763 -73.4287C668.515 -79.2505 668.73 -85.7359 671.357 -91.3965L755.828 -273.376C759.912 -282.173 769.075 -287.464 778.735 -286.602Z" stroke="#9CCBF0" stroke-width="4"/>
<path opacity="0.289855" d="M749.823 -279.318L948.658 -272.438C954.906 -272.222 960.797 -269.471 964.975 -264.82L1150.03 -58.7685C1153.43 -54.9825 1155.48 -50.1756 1155.86 -45.1008L1173.92 198.506C1174.54 206.879 1170.55 214.924 1163.51 219.496L1015.13 315.851C1008.09 320.423 999.121 320.796 991.725 316.824L776.524 201.24C772.041 198.833 768.483 195.006 766.408 190.36L653.439 -62.5067C650.889 -68.2149 650.773 -74.7152 653.117 -80.5111L727.705 -264.954C731.328 -273.913 740.165 -279.652 749.823 -279.318Z" stroke="#9CCBF0" stroke-width="4"/>
<path opacity="0.304348" d="M721.697 -271.448L918.939 -275.369C925.201 -275.493 931.243 -273.059 935.669 -268.627L1129.15 -74.9176C1132.76 -71.3028 1135.07 -66.5887 1135.7 -61.519L1165.71 178.32C1166.75 186.635 1163.19 194.858 1156.41 199.783L1014.26 303.06C1007.48 307.986 998.559 308.834 990.973 305.275L772.145 202.621C767.52 200.452 763.749 196.803 761.426 192.252L636.987 -51.6224C634.141 -57.2012 633.692 -63.6998 635.746 -69.6168L700.426 -255.993C703.583 -265.089 712.071 -271.257 721.697 -271.448Z" stroke="#9CCBF0" stroke-width="4"/>
<path opacity="0.318841" d="M694.38 -263.042L889.449 -277.576C895.706 -278.043 901.882 -275.932 906.545 -271.734L1107.68 -90.6772C1111.49 -87.2451 1114.05 -82.637 1114.94 -77.5853L1156.55 157.91C1158.01 166.146 1154.88 174.523 1148.38 179.787L1012.77 289.601C1006.27 294.865 997.425 296.185 989.671 293.049L767.974 203.382C763.218 201.459 759.242 198.001 756.678 193.558L621.395 -40.8242C618.259 -46.2586 617.479 -52.7385 619.236 -58.7621L674.009 -246.546C676.695 -255.755 684.814 -262.329 694.38 -263.042Z" stroke="#9CCBF0" stroke-width="4"/>
<path opacity="0.333333" d="M667.892 -254.151L860.222 -279.08C866.456 -279.888 872.749 -278.109 877.638 -274.157L1085.63 -106.017C1089.64 -102.779 1092.44 -98.2899 1093.59 -93.269L1146.44 137.331C1148.31 145.468 1145.62 153.976 1139.41 159.562L1010.63 275.516C1004.43 281.102 995.686 282.888 987.789 280.183L763.976 203.517C759.103 201.848 754.931 198.591 752.129 194.269L606.651 -30.1601C603.232 -35.435 602.121 -41.8796 603.576 -47.9951L648.473 -236.666C650.685 -245.962 658.415 -252.923 667.892 -254.151Z" stroke="#9CCBF0" stroke-width="4"/>
<path opacity="0.347826" d="M642.252 -244.826L831.297 -279.902C837.489 -281.051 843.882 -279.611 848.983 -275.917L1063.04 -120.91C1067.23 -117.876 1070.27 -113.518 1071.68 -108.541L1135.37 116.64C1137.64 124.656 1135.4 133.272 1129.51 139.163L1007.82 260.846C1001.93 266.737 993.316 268.982 985.299 266.714L760.119 203.022C755.141 201.614 750.784 198.569 747.75 194.38L592.743 -19.677C589.049 -24.7779 587.608 -31.1704 588.757 -37.3627L623.834 -226.407C625.571 -235.767 632.893 -243.089 642.252 -244.826Z" stroke="#9CCBF0" stroke-width="4"/>
<path opacity="0.362319" d="M617.474 -235.118L802.704 -280.066C808.836 -281.553 815.31 -280.457 820.61 -277.033L1039.93 -135.327C1044.29 -132.508 1047.57 -128.295 1049.24 -123.374L1123.35 95.8908C1126.02 103.767 1124.22 112.467 1118.66 118.646L1004.32 245.636C998.753 251.814 990.288 254.509 982.177 252.685L756.366 201.894C751.298 200.754 746.765 197.932 743.505 193.887L579.651 -9.42057C575.691 -14.3334 573.924 -20.6572 574.763 -26.911L600.102 -215.824C601.363 -225.221 608.26 -232.882 617.474 -235.118Z" stroke="#9CCBF0" stroke-width="4"/>
<path opacity="0.376812" d="M593.572 -225.08L774.478 -279.595C780.53 -281.419 787.067 -280.671 792.552 -277.527L1016.34 -149.245C1020.86 -146.65 1024.37 -142.594 1026.29 -137.741L1110.39 75.1388C1113.44 82.8554 1112.1 91.6159 1106.87 98.0639L1000.09 229.929C994.871 236.377 986.581 239.513 978.399 238.135L752.686 200.134C747.541 199.267 742.844 196.678 739.365 192.79L567.357 0.564995C563.142 -4.14611 561.051 -10.3847 561.577 -16.6847L577.288 -204.971C578.073 -214.382 584.531 -222.356 593.572 -225.08Z" stroke="#9CCBF0" stroke-width="4"/>
<path opacity="0.391304" d="M570.55 -214.765L746.643 -278.518C752.599 -280.674 759.18 -280.279 764.835 -277.425L992.289 -162.639C996.967 -160.278 1000.7 -156.391 1002.87 -151.62L1096.49 54.4374C1099.91 61.9753 1099.02 70.7723 1094.16 77.4706L995.129 213.771C990.262 220.47 982.171 224.035 973.944 223.108L749.04 197.742C743.833 197.155 738.983 194.807 735.292 191.087L555.837 10.2365C551.376 5.74032 548.966 -0.396737 549.176 -6.72728L555.392 -193.903C555.704 -203.302 561.707 -211.564 570.55 -214.765Z" stroke="#9CCBF0" stroke-width="4"/>
<path opacity="0.405797" d="M548.417 -204.225L719.233 -276.861C725.074 -279.344 731.681 -279.304 737.49 -276.75L967.818 -175.489C972.637 -173.371 976.583 -169.664 978.998 -164.987L1081.67 33.8395C1085.46 41.1802 1085.02 49.99 1080.52 56.9188L989.413 197.209C984.913 204.138 977.043 208.121 968.795 207.644L745.4 194.723C740.145 194.419 735.153 192.322 731.258 188.782L545.069 19.5527C540.373 15.2841 537.649 9.26473 537.542 2.91925L534.421 -182.672C534.264 -192.036 539.799 -200.56 548.417 -204.225Z" stroke="#9CCBF0" stroke-width="4"/>
<path opacity="0.42029" d="M527.172 -193.511L692.269 -274.653C697.976 -277.458 704.59 -277.775 710.539 -275.529L942.955 -187.776C947.902 -185.908 952.054 -182.393 954.713 -177.822L1065.93 13.3967C1070.07 20.5225 1070.09 29.3214 1065.97 36.4603L982.927 180.289C978.805 187.428 971.178 191.815 962.935 191.788L741.726 191.081C736.438 191.064 731.318 189.226 727.227 185.876L535.022 28.4741C530.103 24.4452 527.07 18.5594 526.646 12.2146L514.368 -171.335C513.746 -180.639 518.803 -189.398 527.172 -193.511Z" stroke="#9CCBF0" stroke-width="4"/>
<path opacity="0.434783" d="M506.82 -182.676L665.783 -271.926C671.338 -275.045 677.939 -275.72 684.011 -273.789L917.74 -199.481C922.802 -197.871 927.152 -194.559 930.049 -190.106L1049.31 -6.84088C1053.79 0.0528233 1054.25 8.81725 1050.52 16.1456L975.666 163.056C971.933 170.384 964.57 175.161 956.356 175.584L737.994 186.824C732.688 187.097 727.452 185.525 723.174 182.376L525.675 36.9627C520.544 33.185 517.21 27.4482 516.468 21.12L495.237 -159.943C494.156 -169.164 498.725 -178.131 506.82 -182.676Z" stroke="#9CCBF0" stroke-width="4"/>
<path opacity="0.449275" d="M487.353 -171.771L639.79 -268.709C645.177 -272.135 651.746 -273.168 657.924 -271.56L892.202 -210.589C897.367 -209.245 901.904 -206.146 905.035 -201.824L1031.81 -26.8242C1036.62 -20.179 1037.53 -11.4723 1034.2 -3.97601L967.619 145.558C964.281 153.055 957.202 158.205 949.043 159.074L734.164 181.959C728.857 182.525 723.518 181.227 719.063 178.288L516.991 44.9827C511.661 41.4671 508.033 35.8945 506.974 29.5986L477.013 -148.548C475.48 -157.664 479.553 -166.811 487.353 -171.771Z" stroke="#9CCBF0" stroke-width="4"/>
<path opacity="0.463768" d="M468.764 -160.846L614.312 -265.036C619.514 -268.759 626.032 -270.148 632.3 -268.869L866.378 -221.087C871.633 -220.014 876.347 -217.139 879.706 -212.959L1013.47 -46.5063C1018.59 -40.1251 1019.94 -31.4992 1017.01 -23.8566L958.779 127.842C955.845 135.485 949.071 140.992 940.99 142.303L730.208 176.498C724.914 177.357 719.487 176.339 714.864 173.62L508.938 52.5001C503.424 49.2568 499.51 43.8633 498.136 37.6153L459.689 -137.204C457.712 -146.19 461.282 -155.49 468.764 -160.846Z" stroke="#9CCBF0" stroke-width="4"/>
<path opacity="0.478261" d="M451.045 -149.95L589.369 -260.938C594.369 -264.95 600.817 -266.693 607.157 -265.747L840.304 -230.963C845.634 -230.168 850.516 -227.527 854.097 -223.5L994.303 -65.8417C999.73 -59.7393 1001.51 -51.2167 998.99 -43.45L949.146 109.955C946.622 117.721 940.169 123.568 932.192 125.315L726.094 170.452C720.83 171.605 715.328 170.872 710.548 168.383L501.483 59.4831C495.798 56.5217 491.606 51.3217 489.92 45.1372L443.25 -125.959C440.84 -134.795 443.902 -144.219 451.045 -149.95Z" stroke="#9CCBF0" stroke-width="4"/>
<path opacity="0.492754" d="M434.187 -139.133L564.98 -256.45C569.762 -260.739 576.12 -262.833 582.515 -262.225L814.019 -240.209C819.41 -239.696 824.448 -237.297 828.245 -233.435L974.348 -84.7868C980.058 -78.9771 982.269 -70.5802 980.161 -62.7116L938.722 91.9413C936.613 99.8099 930.5 105.976 922.65 108.152L721.797 163.834C716.578 165.281 711.015 164.839 706.09 162.588L494.594 65.9023C488.751 63.2314 484.292 58.239 482.296 52.1334L427.684 -114.863C424.85 -123.527 427.401 -133.047 434.187 -139.133Z" stroke="#9CCBF0" stroke-width="4"/>
<path opacity="0.507246" d="M418.171 -128.441L541.155 -251.606C545.704 -256.161 551.953 -258.602 558.385 -258.335L787.555 -248.817C792.994 -248.591 798.176 -246.443 802.18 -242.756L953.629 -103.3C959.607 -97.796 962.236 -89.5465 960.547 -81.5985L927.506 73.8479C925.816 81.7959 920.059 88.2626 912.359 90.8596L717.282 156.659C712.124 158.399 706.516 158.253 701.456 156.247L488.227 71.7302C482.243 69.3582 477.526 64.5868 475.224 58.5753L412.968 -103.963C409.723 -112.435 411.761 -122.022 418.171 -128.441Z" stroke="#9CCBF0" stroke-width="4"/>
<path opacity="0.521739" d="M402.982 -117.921L517.91 -246.44C522.21 -251.249 528.332 -254.031 534.783 -254.107L760.953 -256.781C766.424 -256.846 771.739 -254.958 775.943 -251.456L932.183 -121.342C938.411 -116.156 941.449 -108.075 940.181 -100.07L915.507 55.7195C914.239 63.7241 908.852 70.4707 901.326 73.4787L712.526 148.944C707.446 150.975 701.807 151.128 696.624 149.376L482.35 76.9419C476.238 74.876 471.275 70.3386 468.672 64.4364L399.084 -93.3067C395.44 -101.566 396.965 -111.193 402.982 -117.921Z" stroke="#9CCBF0" stroke-width="4"/>
<path opacity="0.536232" d="M388.6 -107.618L495.253 -240.988C499.29 -246.037 505.267 -249.153 511.718 -249.574L734.247 -264.099C739.736 -264.457 745.171 -262.837 749.567 -259.531L910.042 -138.876C916.502 -134.019 919.939 -126.127 919.094 -118.088L902.731 37.6003C901.886 45.6387 896.883 52.6436 889.554 56.0516L707.501 140.706C702.513 143.025 696.86 143.48 691.566 141.988L476.919 81.5147C470.696 79.7615 465.499 75.4705 462.599 69.6924L386.006 -82.9375C381.978 -90.965 382.991 -100.603 388.6 -107.618Z" stroke="#9CCBF0" stroke-width="4"/>
<path opacity="0.550725" d="M375.003 -97.5731L473.193 -235.284C476.954 -240.559 482.766 -244.003 489.199 -244.769L707.475 -270.77C712.966 -271.424 718.509 -270.078 723.088 -266.979L887.243 -155.867C893.918 -151.349 897.741 -143.666 897.319 -135.616L889.188 19.5334C888.766 27.5829 884.161 34.8242 877.05 38.62L702.18 131.964C697.302 134.568 691.649 135.327 686.257 134.103L471.894 85.4286C465.576 83.994 460.156 79.9612 456.967 74.3216L373.709 -72.8982C369.311 -80.6761 369.815 -90.2976 375.003 -97.5731Z" stroke="#9CCBF0" stroke-width="4"/>
<path opacity="0.565217" d="M362.164 -87.8288L451.735 -229.363C455.207 -234.85 460.837 -238.613 467.234 -239.724L680.672 -276.795C686.15 -277.746 691.787 -276.681 696.54 -273.797L863.823 -172.282C870.695 -168.112 874.891 -160.658 874.891 -152.62V1.56117C874.891 9.59911 870.695 17.0539 863.823 21.2239L696.54 122.739C691.787 125.623 686.15 126.688 680.672 125.737L467.234 88.666C460.837 87.5549 455.207 83.7915 451.735 78.3048L362.164 -63.2296C357.411 -70.7405 357.411 -80.3179 362.164 -87.8288Z" stroke="#9CCBF0" stroke-width="4"/>
<path opacity="0.57971" d="M350.06 -78.4242L430.885 -223.261C434.056 -228.944 439.486 -233.017 445.829 -234.472L653.876 -282.177C659.325 -283.426 665.043 -282.648 669.96 -279.988L839.825 -188.093C846.874 -184.279 851.43 -177.071 851.849 -169.067L859.857 -16.2755C860.276 -8.27174 856.499 -0.626768 849.887 3.90283L690.558 113.051C685.946 116.21 680.341 117.582 674.791 116.909L462.898 91.2117C456.437 90.4283 450.611 86.9449 446.864 81.6249L351.342 -53.9704C346.25 -61.1979 345.752 -70.7041 350.06 -78.4242Z" stroke="#9CCBF0" stroke-width="4"/>
<path opacity="0.594203" d="M338.662 -69.397L410.646 -217.014C413.505 -222.876 418.718 -227.249 424.988 -229.044L627.122 -286.921C632.527 -288.469 638.312 -287.983 643.384 -285.555L815.288 -203.27C822.496 -199.82 827.397 -192.876 828.232 -184.929L844.102 -33.9372C844.937 -25.9899 841.587 -18.1786 835.254 -13.3052L684.214 102.923C679.758 106.352 674.201 108.029 668.592 107.639L458.842 93.0532C452.335 92.6007 446.327 89.4072 442.312 84.2675L341.21 -45.1571C335.797 -52.0859 334.808 -61.4942 338.662 -69.397Z" stroke="#9CCBF0" stroke-width="4"/>
<path opacity="0.608696" d="M327.938 -60.7824L391.017 -210.654C393.553 -216.679 398.532 -221.34 404.711 -223.473L600.446 -291.035C605.791 -292.88 611.629 -292.691 616.844 -290.504L790.256 -217.791C797.603 -214.711 802.833 -208.047 804.079 -200.179L827.645 -51.3856C828.892 -43.5169 825.977 -35.5636 819.942 -30.3633L677.487 92.3778C673.203 96.069 667.709 98.0526 662.055 97.9497L455.023 94.1803C448.487 94.0613 442.311 91.167 438.037 86.2205L331.733 -36.8238C326.017 -43.4396 324.547 -52.7241 327.938 -60.7824Z" stroke="#9CCBF0" stroke-width="4"/>
<path opacity="0.623188" d="M317.858 -52.6139L371.996 -204.218C374.2 -210.388 378.93 -215.326 385 -217.792L573.882 -294.527C579.152 -296.668 585.028 -296.78 590.376 -294.842L764.772 -231.634C772.238 -228.928 777.781 -222.561 779.432 -214.792L810.509 -68.5843C812.161 -60.8159 809.687 -52.7452 803.967 -47.236L670.357 81.4403C666.26 85.3862 660.846 87.6738 655.161 87.8614L451.398 94.5858C444.849 94.8018 438.52 92.2151 433.997 87.4746L322.877 -29.0026C316.876 -35.2923 314.935 -44.4274 317.858 -52.6139Z" stroke="#9CCBF0" stroke-width="4"/>
<path opacity="0.637681" d="M308.386 -44.922L353.579 -197.738C355.442 -204.035 359.907 -209.236 365.85 -212.03L547.463 -297.408C552.642 -299.842 558.542 -300.259 564.012 -298.576L738.879 -244.778C746.445 -242.45 752.283 -236.394 754.332 -228.748L792.715 -85.498C794.764 -77.8511 792.737 -69.688 787.348 -63.8887L662.808 70.1355C658.912 74.3275 653.594 76.9168 647.892 77.3978L447.921 94.265C441.378 94.8169 434.91 92.5455 430.149 88.0231L314.602 -21.7226C308.336 -27.6739 305.935 -36.6352 308.386 -44.922Z" stroke="#9CCBF0" stroke-width="4"/>
<path opacity="0.652174" d="M299.49 -37.736L335.764 -191.248C337.278 -197.654 341.463 -203.104 347.262 -206.22L521.226 -299.691C526.298 -302.416 532.207 -303.14 537.786 -301.72L712.625 -257.208C720.272 -255.261 726.387 -249.531 728.825 -242.027L774.292 -102.094C776.73 -94.5893 775.152 -86.3589 770.11 -80.2894L654.825 58.4888C651.146 62.9175 645.94 65.8054 640.235 66.5818L444.554 93.2154C438.032 94.1031 431.442 92.154 426.452 87.8613L306.873 -15.011C300.362 -20.6129 297.514 -29.3765 299.49 -37.736Z" stroke="#9CCBF0" stroke-width="4"/>
<path opacity="0.666667" d="M291.128 -31.0822L318.538 -184.781C319.697 -191.276 323.588 -196.961 329.225 -200.391L495.197 -301.391C500.146 -304.403 506.05 -305.436 511.727 -304.284L686.052 -268.911C693.759 -267.347 700.133 -261.954 702.951 -254.613L755.261 -118.34C758.079 -110.999 756.951 -102.726 752.27 -96.4071L646.391 46.5265C642.942 51.1818 637.864 54.3642 632.171 55.4377L441.247 91.4373C434.764 92.6598 428.067 91.0392 422.86 86.9874L299.646 -8.89238C292.909 -14.135 289.629 -22.678 291.128 -31.0822Z" stroke="#9CCBF0" stroke-width="4"/>
<path opacity="0.681159" d="M283.269 -24.9842L301.898 -178.369C302.695 -184.934 306.28 -190.838 311.737 -194.574L469.413 -302.524C474.224 -305.818 480.106 -307.161 485.87 -306.283L659.212 -279.875C666.959 -278.695 673.572 -273.651 676.759 -266.492L735.656 -134.208C738.843 -127.049 738.167 -118.759 733.86 -112.212L637.497 34.2757C634.293 39.1467 629.358 42.619 623.691 43.9903L437.963 88.9338C431.535 90.4892 424.749 89.2025 419.336 85.4021L292.884 -3.38807C285.942 -8.2628 282.246 -16.5632 283.269 -24.9842Z" stroke="#9CCBF0" stroke-width="4"/>
<path opacity="0.695652" d="M275.871 -19.4639L285.829 -172.041C286.261 -178.656 289.526 -184.764 294.787 -188.797L443.901 -303.108C448.558 -306.678 454.404 -308.333 460.242 -307.734L632.146 -290.093C639.913 -289.296 646.746 -284.613 650.291 -277.655L715.503 -149.669C719.048 -142.712 718.821 -134.431 714.901 -127.678L628.13 21.7637C625.183 26.8386 620.408 30.5953 614.782 32.2646L434.655 85.7099C428.3 87.5956 421.44 86.6474 415.835 83.1084L286.543 1.48257C279.417 -3.01675 275.322 -11.0536 275.871 -19.4639Z" stroke="#9CCBF0" stroke-width="4"/>
<path opacity="0.710145" d="M268.893 -14.5401L270.32 -165.829C270.383 -172.474 273.317 -178.767 278.366 -183.088L418.69 -303.162C423.178 -307.002 428.973 -308.969 434.872 -308.653L604.902 -299.561C612.67 -299.145 619.702 -294.831 623.592 -288.093L694.834 -164.699C698.724 -157.961 698.944 -149.714 695.42 -142.779L618.279 9.01803C615.603 14.2845 611.003 18.3192 605.432 20.286L431.284 81.7734C425.017 83.9858 418.101 83.3799 412.315 80.1117L280.581 5.70298C273.291 1.5854 268.814 -6.16818 268.893 -14.5401Z" stroke="#9CCBF0" stroke-width="4"/>
<path opacity="0.724638" d="M262.299 -10.2293L255.359 -159.762C255.05 -166.416 257.641 -172.877 262.462 -177.474L393.809 -302.707C398.113 -306.811 403.84 -309.088 409.788 -309.06L577.528 -308.274C585.278 -308.238 592.488 -304.301 596.709 -297.801L673.682 -179.274C677.903 -172.774 678.567 -164.585 675.448 -157.491L607.94 -3.93296C605.546 1.51169 601.136 5.81741 595.636 8.08049L427.807 77.1346C421.647 79.6693 414.69 79.4086 408.737 76.4199L274.955 9.25968C267.523 5.52891 262.684 -1.92272 262.299 -10.2293Z" stroke="#9CCBF0" stroke-width="4"/>
<path opacity="0.73913" d="M256.044 -6.54552L240.927 -153.866C240.246 -160.509 242.485 -167.121 247.063 -171.982L369.282 -301.765C373.388 -306.125 379.032 -308.712 385.015 -308.975L550.068 -316.236C557.78 -316.575 565.148 -313.023 569.686 -306.777L652.079 -193.373C656.616 -187.128 657.718 -179.022 655.012 -171.792L597.103 -17.0615C595.003 -11.4526 590.799 -6.8837 585.384 -4.32615L424.185 71.8056C418.147 74.6575 411.167 74.7441 405.06 72.043L269.621 12.1413C262.069 8.80118 256.887 1.66897 256.044 -6.54552Z" stroke="#9CCBF0" stroke-width="4"/>
<path opacity="0.753623" d="M250.091 -3.49989L227.011 -148.169C225.956 -154.78 227.834 -161.523 232.155 -166.636L345.136 -300.361C349.028 -304.968 354.575 -307.862 360.58 -308.419L522.569 -323.448C530.225 -324.158 537.729 -320.996 542.568 -315.02L630.059 -206.978C634.898 -201.002 636.431 -193.004 634.144 -185.664L585.765 -30.3389C583.972 -24.5805 579.988 -19.757 574.672 -16.9075L420.379 65.8017C414.479 68.9645 407.494 69.3997 401.246 66.9936L264.537 14.3397C256.886 11.393 251.382 4.5964 250.091 -3.49989Z" stroke="#9CCBF0" stroke-width="4"/>
<path opacity="0.768116" d="M244.394 -1.10142L213.589 -142.696C212.163 -149.254 213.671 -156.108 217.72 -161.461L321.392 -298.52C325.056 -303.365 330.489 -306.563 336.504 -307.417L495.074 -329.916C502.655 -330.992 510.274 -328.225 515.398 -322.534L607.656 -220.071C612.78 -214.381 614.736 -206.514 612.873 -199.087L573.922 -43.7373C572.444 -37.8447 568.696 -32.776 563.494 -29.6377L416.349 59.1393C410.603 62.6063 403.629 63.3904 397.256 61.286L259.657 15.8493C251.928 13.2973 246.124 6.85118 244.394 -1.10142Z" stroke="#9CCBF0" stroke-width="4"/>
<path opacity="0.782609" d="M238.916 0.643776L200.646 -137.471C198.849 -143.955 199.982 -150.901 203.745 -156.478L298.073 -296.266C301.497 -301.339 306.8 -304.839 312.811 -305.99L467.631 -335.65C475.118 -337.085 482.831 -334.716 488.222 -329.325L584.907 -232.639C590.299 -227.248 592.668 -219.536 591.233 -212.048L561.573 -57.2282C560.422 -51.2175 556.922 -45.9136 551.849 -42.4904L412.061 51.8377C406.484 55.6012 399.538 56.7339 393.054 54.9372L254.939 16.667C247.155 14.5101 241.073 8.42791 238.916 0.643776Z" stroke="#9CCBF0" stroke-width="4"/>
<path opacity="0.797101" d="M233.613 1.73203L188.158 -132.517C185.995 -138.906 186.745 -145.923 190.211 -151.71L275.2 -293.628C278.368 -298.919 283.527 -302.715 289.52 -304.166L440.279 -340.661C447.657 -342.447 455.44 -340.478 461.081 -335.399L561.847 -244.669C567.488 -239.59 570.259 -232.055 569.254 -224.531L548.718 -70.7834C547.902 -64.6714 544.665 -59.1431 539.735 -55.4394L407.478 43.9181C402.085 47.9696 395.185 49.4494 388.605 47.9658L250.34 16.7927C242.521 15.0298 236.184 9.32377 233.613 1.73203Z" stroke="#9CCBF0" stroke-width="4"/>
<path opacity="0.811594" d="M228.445 2.16193L176.106 -127.854C173.58 -134.128 173.944 -141.195 177.1 -147.176L252.789 -290.634C255.689 -296.13 260.689 -300.219 266.652 -301.97L413.064 -344.962C420.313 -347.091 428.146 -345.523 434.018 -340.768L538.511 -256.151C544.383 -251.396 547.545 -244.061 546.97 -236.527L535.358 -84.3755C534.886 -78.1795 531.926 -72.4384 527.153 -68.4594L402.566 35.4031C397.372 39.7335 390.535 41.5583 383.873 40.3924L245.816 16.2284C237.984 14.8575 231.415 9.53822 228.445 2.16193Z" stroke="#9CCBF0" stroke-width="4"/>
<path opacity="0.826087" d="M223.372 1.93489L164.467 -123.503C161.585 -129.64 161.557 -136.736 164.392 -142.895L230.86 -287.313C233.479 -293.003 238.304 -297.378 244.222 -299.429L386.025 -348.569C393.131 -351.032 400.992 -349.865 407.075 -345.445L514.937 -267.079C521.021 -262.659 524.559 -255.543 524.413 -248.025L521.498 -97.9768C521.376 -91.7147 518.706 -85.7731 514.104 -81.5244L397.294 26.3178C392.312 30.9171 385.555 33.084 378.828 32.2395L241.326 14.9793C233.501 13.997 226.725 9.07369 223.372 1.93489Z" stroke="#9CCBF0" stroke-width="4"/>
<path opacity="0.84058" d="M218.352 1.05457L153.216 -119.481C149.984 -125.461 149.563 -132.565 152.067 -138.885L209.425 -283.694C211.75 -289.564 216.386 -294.221 222.246 -296.571L359.202 -351.502C366.148 -354.288 374.015 -353.52 380.291 -349.444L491.158 -277.446C497.434 -273.371 501.335 -266.496 501.615 -259.018L507.138 -111.56C507.375 -105.251 505.007 -99.1213 500.59 -94.6094L391.63 16.6887C386.874 21.5462 380.213 24.0513 373.435 23.5314L236.828 13.0526C229.03 12.4545 222.07 7.93494 218.352 1.05457Z" stroke="#9CCBF0" stroke-width="4"/>
<path opacity="0.855072" d="M213.202 -0.623763L142.187 -115.956C138.613 -121.759 137.797 -128.849 139.96 -135.312L188.354 -279.959C190.374 -285.996 194.806 -290.927 200.595 -293.576L332.489 -353.931C339.26 -357.03 347.112 -356.659 353.56 -352.936L467.069 -287.401C473.517 -283.679 477.764 -277.064 478.466 -269.652L492.144 -125.25C492.744 -118.912 490.69 -112.608 486.472 -107.84L385.401 6.39311C380.885 11.4976 374.337 14.3362 367.524 14.1432L232.136 10.3075C224.386 10.088 217.268 5.97837 213.202 -0.623763Z" stroke="#9CCBF0" stroke-width="4"/>
<path opacity="0.869565" d="M208.173 -2.79009L131.642 -112.64C127.736 -118.247 126.525 -125.301 128.338 -131.89L167.947 -275.837C169.65 -282.027 173.864 -287.224 179.568 -290.17L306.212 -355.579C312.793 -358.978 320.609 -358.999 327.208 -355.636L442.992 -296.642C449.592 -293.279 454.168 -286.944 455.286 -279.622L476.809 -138.718C477.778 -132.371 476.051 -125.908 472.044 -120.891L378.87 -4.23759C374.605 1.10189 368.187 4.26847 361.355 4.40393L227.501 7.05784C219.817 7.21018 212.566 3.51527 208.173 -2.79009Z" stroke="#9CCBF0" stroke-width="4"/>
<path opacity="0.884058" d="M203.081 -5.58446L121.414 -109.699C117.185 -115.09 115.58 -122.086 117.036 -128.781L148.07 -271.509C149.446 -277.838 153.426 -283.293 159.033 -286.534L280.262 -356.62C286.639 -360.307 294.398 -360.716 301.128 -357.719L418.819 -305.32C425.55 -302.323 430.437 -296.284 431.965 -289.077L460.999 -152.09C462.342 -145.755 460.951 -139.147 457.169 -133.889L371.867 -15.323C367.866 -9.76118 361.593 -6.27292 354.757 -5.80817L222.738 3.16739C215.141 3.6839 207.781 0.406888 203.081 -5.58446Z" stroke="#9CCBF0" stroke-width="4"/>
<path opacity="0.898551" d="M197.891 -8.99439L111.475 -107.144C106.935 -112.3 104.938 -119.216 106.03 -125.999L128.729 -267.009C129.768 -273.46 133.501 -279.165 138.997 -282.699L254.67 -357.081C260.832 -361.044 268.513 -361.833 275.352 -359.208L394.586 -313.439C401.425 -310.813 406.605 -305.087 408.533 -298.019L444.723 -165.342C446.443 -159.038 445.4 -152.301 441.855 -146.812L364.369 -26.8312C360.642 -21.0602 354.531 -17.2574 347.707 -16.4633L217.812 -1.34738C210.32 -0.475469 202.876 -3.33291 197.891 -8.99439Z" stroke="#9CCBF0" stroke-width="4"/>
<path opacity="0.913043" d="M192.567 -13.0046L101.8 -104.985C96.962 -109.888 94.5759 -116.701 95.2981 -123.551L109.933 -262.368C110.624 -268.925 114.096 -274.871 119.468 -278.694L229.47 -356.992C235.404 -361.215 242.987 -362.379 249.914 -360.128L370.325 -321.004C377.253 -318.753 382.704 -313.354 385.022 -306.45L427.993 -178.449C430.092 -172.198 429.406 -165.347 426.111 -159.635L356.357 -38.7284C352.914 -32.762 346.979 -28.6524 340.183 -27.5297L212.687 -6.46727C205.316 -5.2497 197.814 -7.68742 192.567 -13.0046Z" stroke="#9CCBF0" stroke-width="4"/>
<path opacity="0.927536" d="M187.072 -17.5985L92.3612 -103.23C87.2381 -107.862 84.4677 -114.551 84.8155 -121.449L91.681 -257.618C92.0161 -264.265 95.2143 -270.441 100.449 -274.551L204.687 -356.382C210.382 -360.852 217.849 -362.38 224.842 -360.507L346.07 -328.024C353.063 -326.15 358.766 -321.093 361.462 -314.374L410.819 -191.387C413.298 -185.211 412.98 -178.263 409.946 -172.339L347.808 -50.9803C344.66 -44.8327 338.916 -40.425 332.163 -38.9752L207.326 -12.1716C200.095 -10.6191 192.558 -12.6385 187.072 -17.5985Z" stroke="#9CCBF0" stroke-width="4"/>
<path opacity="0.942029" d="M181.377 -22.7573L83.1337 -101.886C77.7404 -106.23 74.5915 -112.773 74.5612 -119.698L73.9791 -252.791C73.9497 -259.51 76.8603 -265.907 81.9459 -270.298L180.352 -355.283C185.797 -359.985 193.129 -361.869 200.167 -360.373L321.853 -334.508C328.891 -333.012 334.823 -328.309 337.885 -321.798L393.217 -204.136C396.076 -198.055 396.134 -191.028 393.374 -184.901L338.708 -63.5517C335.864 -57.2377 330.326 -52.5413 323.632 -50.7666L201.698 -18.4378C194.623 -16.5619 187.077 -18.1658 181.377 -22.7573Z" stroke="#9CCBF0" stroke-width="4"/>
<path opacity="0.956522" d="M175.45 -28.4604L74.0925 -100.958C68.4448 -104.998 64.9244 -111.373 64.5135 -118.304L56.8286 -247.919C56.427 -254.693 59.0372 -261.299 63.9606 -265.968L156.49 -353.729C161.677 -358.648 168.856 -360.876 175.916 -359.758L297.709 -340.467C304.769 -339.349 310.908 -335.012 314.321 -328.731L375.203 -216.672C378.442 -210.71 378.883 -203.621 376.408 -197.303L329.046 -76.4064C326.513 -69.9411 321.195 -64.9662 314.576 -62.8695L195.776 -25.2411C188.872 -23.0543 181.341 -24.2471 175.45 -28.4604Z" stroke="#9CCBF0" stroke-width="4"/>
</g>
</mask>
<g mask="url(#mask0_3815_35636)">
<rect x="-118" y="1" width="1201" height="218" rx="15" fill="#9CCBF0"/>
<rect x="-118" y="1" width="1201" height="218" rx="15" stroke="#FFB636" stroke-width="2"/>
</g>
</g>
</svg>
