<?xml version="1.0" encoding="UTF-8"?>
<svg fill="none" viewBox="0 0 1085 222" xmlns="http://www.w3.org/2000/svg">
<g opacity=".3">
<mask id="a" x="6" y="-364" width="1501" height="841" style="mask-type:alpha" maskUnits="userSpaceOnUse">
<g opacity=".3">
<path d="m1389.7-270.43 112.13 201.99c2.94 5.3001 3.67 11.547 2.03 17.383l-91.12 324.4c-1.29 4.59-3.98 8.665-7.68 11.663l-227.95 184.35c-6.72 5.436-15.92 6.644-23.82 3.129l-182.77-81.377c-7.897-3.516-13.156-11.162-13.613-19.794l-15.523-292.75c-0.252-4.7605 0.981-9.4819 3.529-13.511l180.1-284.78c3.24-5.124 8.37-8.761 14.28-10.121l225.14-51.831c9.99-2.299 20.29 2.289 25.27 11.251z" opacity=".014493" stroke="#9CCBF0" stroke-width="4"/>
<path d="m1353.8-280.21 121.96 194.21c3.23 5.1412 4.3 11.35 2.96 17.273l-73.17 325.68c-1.05 4.666-3.53 8.888-7.09 12.081l-216.32 194.02c-6.43 5.764-15.54 7.444-23.6 4.35l-185.64-71.26c-8.06-3.093-13.708-10.439-14.627-19.023l-30.942-288.93c-0.509-4.7544 0.476-9.5493 2.819-13.718l163.54-290.99c2.98-5.292 7.92-9.194 13.76-10.854l220.59-62.723c9.83-2.796 20.33 1.234 25.76 9.892z" opacity=".028986" stroke="#9CCBF0" stroke-width="4"/>
<path d="m1317.8-288.84 131.28 185.96c3.51 4.9665 4.91 11.12 3.89 17.114l-55.35 325.98c-0.8 4.729-3.06 9.088-6.46 12.468l-204.33 202.97c-6.12 6.076-15.12 8.221-23.32 5.557l-187.95-61.068c-8.199-2.664-14.22-9.69-15.597-18.201l-46.004-284.31c-0.766-4.7346-0.033-9.5904 2.097-13.888l146.83-296.26c2.7-5.447 7.45-9.604 13.21-11.561l215.51-73.282c9.65-3.282 20.31 0.182 26.19 8.511z" opacity=".043478" stroke="#9CCBF0" stroke-width="4"/>
<path d="m1281.8-296.34 140.07 177.27c3.78 4.777 5.51 10.857 4.81 16.906l-37.69 325.32c-0.55 4.78-2.59 9.265-5.82 12.825l-192 211.21c-5.79 6.371-14.65 8.974-22.97 6.745l-189.7-50.83c-8.317-2.229-14.692-8.915-16.522-17.328l-60.665-278.91c-1.023-4.702-0.545-9.6051 1.365-14.021l130.02-300.58c2.42-5.588 6.96-9.99 12.61-12.24l209.95-83.485c9.44-3.757 20.24-0.865 26.54 7.112z" opacity=".057971" stroke="#9CCBF0" stroke-width="4"/>
<path d="m1245.8-302.7 148.32 168.18c4.03 4.574 6.08 10.562 5.7 16.648l-20.24 323.71c-0.3 4.817-2.11 9.417-5.17 13.149l-179.36 218.72c-5.45 6.649-14.15 9.701-22.56 7.914l-190.91-40.579c-8.41-1.787-15.12-8.116-17.397-16.408l-74.887-272.76c-1.278-4.654-1.06-9.592 0.624-14.115l113.17-303.96c2.13-5.715 6.44-10.351 11.99-12.888l203.9-93.311c9.22-4.219 20.11-1.903 26.82 5.701z" opacity=".072464" stroke="#9CCBF0" stroke-width="4"/>
<path d="m1210-307.96 156 158.71c4.29 4.356 6.66 10.236 6.6 16.344l-3.08 321.17c-0.04 4.841-1.62 9.544-4.49 13.439l-166.46 225.49c-5.1 6.907-13.62 10.4-22.1 9.057l-191.56-30.341c-8.48-1.343-15.506-7.298-18.222-15.443l-88.632-265.89c-1.531-4.593-1.574-9.552-0.122-14.171l96.321-306.4c1.832-5.826 5.906-10.685 11.324-13.505l197.4-102.74c8.97-4.667 19.94-2.93 27.02 4.28z" opacity=".086956" stroke="#9CCBF0" stroke-width="4"/>
<path d="m1174.3-312.12 163.1 148.9c4.52 4.124 7.2 9.879 7.47 15.99l13.77 317.73c0.21 4.852-1.12 9.647-3.81 13.696l-153.35 231.52c-4.73 7.148-13.05 11.07-21.58 10.173l-191.67-20.145c-8.527-0.896-15.848-6.461-18.993-14.437l-101.86-258.34c-1.782-4.518-2.087-9.485-0.872-14.188l79.527-307.93c1.529-5.922 5.355-10.992 10.632-14.087l190.5-111.74c8.69-5.101 19.69-3.944 27.14 2.853z" opacity=".10145" stroke="#9CCBF0" stroke-width="4"/>
<path d="m1138.9-315.2 169.61 138.8c4.74 3.88 7.73 9.492 8.32 15.59l30.25 313.42c0.46 4.85-0.62 9.724-3.1 13.918l-140.07 236.8c-4.36 7.369-12.45 11.707-21 11.259l-191.24-10.023c-8.55-0.448-16.144-5.608-19.708-13.392l-114.55-250.15c-2.029-4.43-2.598-9.391-1.626-14.166l62.839-308.54c1.223-6.004 4.79-11.271 9.911-14.635l183.18-120.31c8.4-5.518 19.42-4.941 27.19 1.425z" opacity=".11594" stroke="#9CCBF0" stroke-width="4"/>
<path d="m1103.7-317.22 175.5 128.42c4.95 3.624 8.25 9.077 9.16 15.145l46.31 308.26c0.72 4.835-0.11 9.775-2.38 14.105l-126.66 241.33c-3.98 7.57-11.82 12.311-20.37 12.311h-190.28c-8.549 0-16.393-4.741-20.366-12.311l-126.66-241.33c-2.272-4.33-3.105-9.27-2.379-14.105l46.305-308.26c0.911-6.068 4.21-11.521 9.162-15.145l175.5-128.42c8.09-5.918 19.08-5.918 27.16 0z" opacity=".13044" stroke="#9CCBF0" stroke-width="4"/>
<path d="m1068.9-318.22 180.78 117.81c5.15 3.355 8.74 8.633 9.97 14.654l61.91 302.29c0.99 4.807 0.41 9.801-1.65 14.255l-113.16 245.12c-3.58 7.751-11.15 12.882-19.68 13.328l-188.8 9.895c-8.525 0.447-16.596-3.864-20.964-11.198l-138.16-231.95c-2.511-4.214-3.608-9.121-3.131-14.004l29.972-307.1c0.597-6.117 3.618-11.741 8.389-15.617l167.47-136.06c7.76-6.3 18.69-6.873 27.06-1.418z" opacity=".14493" stroke="#9CCBF0" stroke-width="4"/>
<path d="m1034.5-318.22 185.43 107c5.33 3.077 9.21 8.163 10.76 14.12l77.02 295.54c1.24 4.764 0.92 9.8-0.92 14.368l-99.61 248.16c-3.17 7.91-10.46 13.416-18.94 14.306l-186.81 19.635c-8.479 0.891-16.753-2.978-21.503-10.055l-149.03-222.03c-2.743-4.087-4.103-8.947-3.879-13.865l13.888-305.09c0.28-6.15 3.014-11.931 7.59-16.049l159.12-143.22c7.4-6.664 18.26-7.804 26.88-2.826z" opacity=".15942" stroke="#9CCBF0" stroke-width="4"/>
<path d="m1000.5-317.26 189.44 96.039c5.5 2.789 9.65 7.669 11.52 13.545l91.59 288.04c1.49 4.7075 1.44 9.7717-0.17 14.443l-86.06 250.46c-2.76 8.048-9.75 13.912-18.15 15.243l-184.33 29.195c-8.403 1.331-16.856-2.088-21.973-8.887l-159.24-211.61c-2.97-3.946-4.591-8.745-4.622-13.684l-1.902-302.24c-0.039-6.167 2.4-12.09 6.769-16.442l150.5-149.88c7.036-7.007 17.774-8.708 26.635-4.218z" opacity=".17391" stroke="#9CCBF0" stroke-width="4"/>
<path d="m966.99-315.36 192.83 84.95c5.65 2.491 10.06 7.15 12.24 12.929l105.59 279.83c1.75 4.6379 1.96 9.7172 0.59 14.481l-72.54 252.03c-2.35 8.165-9.01 14.37-17.32 16.136l-181.35 38.549c-8.316 1.766-16.923-1.193-22.391-7.697l-168.77-200.74c-3.19-3.795-5.069-8.518-5.357-13.467l-17.358-298.58c-0.358-6.166 1.779-12.217 5.93-16.791l141.6-156.04c6.652-7.33 17.247-9.582 26.305-5.591z" opacity=".18841" stroke="#9CCBF0" stroke-width="4"/>
<path d="m934.03-312.57 195.58 73.775c5.79 2.184 10.45 6.607 12.94 12.272l118.98 270.96c2 4.5551 2.47 9.6359 1.34 14.48l-59.09 252.88c-1.93 8.26-8.25 14.788-16.44 16.983l-177.91 47.672c-8.2 2.196-16.936-0.297-22.737-6.486l-177.61-189.46c-3.402-3.629-5.536-8.264-6.082-13.209l-32.437-294.14c-0.678-6.15 1.15-12.314 5.072-17.099l132.49-161.68c6.253-7.631 16.677-10.424 25.908-6.942z" opacity=".2029" stroke="#9CCBF0" stroke-width="4"/>
<path d="m901.66-308.92 197.68 62.548c5.91 1.87 10.81 6.045 13.6 11.579l131.74 261.45c2.25 4.4589 2.98 9.5279 2.09 14.441l-45.74 253.02c-1.51 8.334-7.47 15.166-15.52 17.783l-174.02 56.542c-8.06 2.617-16.9 0.596-23.018-5.26l-185.73-177.81c-3.607-3.453-5.992-7.986-6.795-12.914l-47.101-288.95c-0.997-6.117 0.517-12.377 4.198-17.362l123.17-166.8c5.841-7.911 16.065-11.233 25.44-8.267z" opacity=".21739" stroke="#9CCBF0" stroke-width="4"/>
<path d="m869.9-304.46 199.16 51.305c6.01 1.548 11.14 5.461 14.23 10.85l143.82 251.37c2.49 4.3497 3.49 9.3933 2.85 14.364l-32.55 252.46c-1.08 8.386-6.67 15.502-14.56 18.532l-169.69 65.137c-7.9 3.03-16.816 1.485-23.23-4.023l-193.12-165.83c-3.802-3.265-6.433-7.682-7.494-12.58l-61.312-283.04c-1.314-6.068-0.12-12.409 3.311-17.582l113.68-171.39c5.417-8.168 15.415-12.005 24.905-9.56z" opacity=".23188" stroke="#9CCBF0" stroke-width="4"/>
<path d="m838.8-299.22 200 40.082c6.1 1.222 11.44 4.861 14.81 10.088l155.23 240.74c2.73 4.2276 3.99 9.2322 3.6 14.247l-19.54 251.22c-0.65 8.415-5.86 15.795-13.57 19.228l-164.94 73.435c-7.71 3.433-16.683 2.367-23.374-2.777l-199.77-153.58c-3.988-3.066-6.861-7.355-8.179-12.209l-75.036-276.44c-1.629-6.0018-0.758-12.407 2.414-17.757l104.04-175.45c4.982-8.401 14.726-12.739 24.302-10.82z" opacity=".24638" stroke="#9CCBF0" stroke-width="4"/>
<path d="m808.41-293.25 200.22 28.915c6.17 0.89 11.71 4.244 15.36 9.293l165.91 229.61c2.96 4.0928 4.49 9.0449 4.35 14.092l-6.74 249.32c-0.23 8.423-5.05 16.046-12.55 19.872l-159.79 81.416c-7.51 3.825-16.507 3.239-23.455-1.527l-205.67-141.09c-4.164-2.856-7.272-7.003-8.845-11.802l-88.24-269.19c-1.94-5.9198-1.396-12.374 1.508-17.886l94.299-178.98c4.537-8.611 14.002-13.434 23.636-12.043z" opacity=".26087" stroke="#9CCBF0" stroke-width="4"/>
<path d="m778.74-286.6 199.84 17.836c6.216 0.555 11.94 3.612 15.858 8.47l175.86 218.03c3.18 3.9455 4.97 8.8317 5.09 13.899l5.8 246.77c0.2 8.408-4.21 16.254-11.49 20.459l-154.26 89.062c-7.29 4.205-16.286 4.1-23.469-0.276l-210.81-128.41c-4.329-2.637-7.666-6.63-9.492-11.359l-100.89-261.32c-2.248-5.8218-2.033-12.307 0.594-17.968l84.471-181.98c4.084-8.797 13.247-14.088 22.907-13.226z" opacity=".27536" stroke="#9CCBF0" stroke-width="4"/>
<path d="m749.82-279.32 198.84 6.88c6.248 0.216 12.139 2.967 16.317 7.618l185.06 206.05c3.4 3.786 5.45 8.5929 5.83 13.668l18.06 243.61c0.62 8.373-3.37 16.418-10.41 20.99l-148.38 96.355c-7.04 4.572-16.009 4.945-23.405 0.973l-215.2-115.58c-4.483-2.407-8.041-6.234-10.116-10.88l-112.97-252.87c-2.55-5.7082-2.666-12.208-0.322-18.004l74.588-184.44c3.623-8.959 12.46-14.698 22.118-14.364z" opacity=".28986" stroke="#9CCBF0" stroke-width="4"/>
<path d="m721.7-271.45 197.24-3.921c6.262-0.124 12.304 2.31 16.73 6.742l193.48 193.71c3.61 3.6148 5.92 8.3289 6.55 13.399l30.01 239.84c1.04 8.315-2.52 16.538-9.3 21.463l-142.15 103.28c-6.78 4.926-15.701 5.774-23.287 2.215l-218.83-102.65c-4.625-2.169-8.396-5.818-10.719-10.369l-124.44-243.87c-2.846-5.5788-3.295-12.077-1.241-17.994l64.68-186.38c3.157-9.096 11.645-15.264 21.271-15.455z" opacity=".30435" stroke="#9CCBF0" stroke-width="4"/>
<path d="m694.38-263.04 195.07-14.534c6.257-0.467 12.433 1.644 17.096 5.842l201.14 181.06c3.81 3.4321 6.37 8.0402 7.26 13.092l41.61 235.5c1.46 8.236-1.67 16.613-8.17 21.877l-135.61 109.81c-6.5 5.264-15.345 6.584-23.099 3.448l-221.7-89.667c-4.756-1.923-8.732-5.381-11.296-9.824l-135.28-234.38c-3.136-5.4344-3.916-11.914-2.159-17.938l54.773-187.78c2.686-9.209 10.805-15.783 20.371-16.496z" opacity=".31884" stroke="#9CCBF0" stroke-width="4"/>
<path d="m667.89-254.15 192.33-24.929c6.234-0.808 12.527 0.971 17.416 4.923l207.99 168.14c4.01 3.238 6.81 7.7271 7.96 12.748l52.85 230.6c1.87 8.137-0.82 16.645-7.03 22.231l-128.78 115.95c-6.2 5.586-14.944 7.372-22.841 4.667l-223.81-76.666c-4.873-1.669-9.045-4.926-11.847-9.248l-145.48-224.43c-3.419-5.2749-4.53-11.72-3.075-17.835l44.897-188.67c2.212-9.296 9.942-16.257 19.419-17.485z" opacity=".33333" stroke="#9CCBF0" stroke-width="4"/>
<path d="m642.25-244.83 189.04-35.076c6.192-1.149 12.585 0.291 17.686 3.985l214.06 155.01c4.19 3.034 7.23 7.392 8.64 12.369l63.69 225.18c2.27 8.016 0.03 16.632-5.86 22.523l-121.69 121.68c-5.89 5.891-14.504 8.136-22.521 5.868l-225.18-63.692c-4.978-1.408-9.335-4.453-12.369-8.642l-155.01-214.06c-3.694-5.1009-5.135-11.493-3.986-17.686l35.077-189.04c1.737-9.36 9.059-16.682 18.418-18.419z" opacity=".34783" stroke="#9CCBF0" stroke-width="4"/>
<path d="m617.47-235.12 185.23-44.948c6.132-1.487 12.606-0.391 17.906 3.033l219.32 141.71c4.36 2.819 7.64 7.032 9.31 11.953l74.11 219.26c2.67 7.8762 0.87 16.576-4.69 22.755l-114.34 126.99c-5.567 6.178-14.032 8.873-22.143 7.049l-225.81-50.791c-5.068-1.14-9.601-3.962-12.861-8.007l-163.85-203.31c-3.96-4.9128-5.727-11.237-4.888-17.49l25.339-188.91c1.261-9.397 8.158-17.058 17.372-19.294z" opacity=".36232" stroke="#9CCBF0" stroke-width="4"/>
<path d="m593.57-225.08 180.91-54.515c6.052-1.824 12.589-1.076 18.074 2.068l223.79 128.28c4.52 2.595 8.03 6.651 9.95 11.504l84.1 212.88c3.05 7.7166 1.71 16.477-3.52 22.925l-106.78 131.87c-5.219 6.448-13.509 9.584-21.691 8.206l-225.71-38.001c-5.145-0.867-9.842-3.456-13.321-7.344l-172.01-192.23c-4.215-4.7111-6.306-10.95-5.78-17.25l15.711-188.29c0.785-9.411 7.243-17.385 16.284-20.109z" opacity=".37681" stroke="#9CCBF0" stroke-width="4"/>
<path d="m570.55-214.76 176.09-63.753c5.956-2.156 12.537-1.761 18.192 1.093l227.45 114.79c4.678 2.361 8.411 6.248 10.581 11.019l93.62 206.06c3.42 7.5379 2.53 16.335-2.33 23.033l-99.031 136.3c-4.867 6.699-12.958 10.264-21.185 9.337l-224.9-25.366c-5.207-0.587-10.057-2.935-13.748-6.655l-179.46-180.85c-4.461-4.4962-6.871-10.633-6.661-16.964l6.216-187.18c0.312-9.399 6.315-17.661 15.158-20.862z" opacity=".3913" stroke="#9CCBF0" stroke-width="4"/>
<path d="m548.42-204.22 170.82-72.636c5.841-2.483 12.448-2.443 18.257 0.111l230.33 101.26c4.819 2.118 8.765 5.825 11.18 10.502l102.67 198.83c3.79 7.3407 3.35 16.15-1.15 23.079l-91.107 140.29c-4.5 6.929-12.37 10.912-20.618 10.435l-223.4-12.921c-5.255-0.304-10.247-2.401-14.142-5.941l-186.19-169.23c-4.696-4.2686-7.42-10.288-7.527-16.633l-3.121-185.59c-0.157-9.364 5.378-17.888 13.996-21.553z" opacity=".4058" stroke="#9CCBF0" stroke-width="4"/>
<path d="m527.17-193.51 165.1-81.142c5.707-2.805 12.321-3.122 18.27-0.876l232.42 87.753c4.947 1.868 9.099 5.383 11.758 9.954l111.22 191.22c4.14 7.1258 4.16 15.925 0.04 23.064l-83.043 143.83c-4.122 7.139-11.749 11.526-19.992 11.499l-221.21-0.707c-5.288-0.017-10.408-1.855-14.499-5.205l-192.2-157.4c-4.919-4.0289-7.952-9.9147-8.376-16.26l-12.278-183.55c-0.622-9.304 4.435-18.063 12.804-22.176z" opacity=".42029" stroke="#9CCBF0" stroke-width="4"/>
<path d="m506.82-182.68 158.96-89.25c5.555-3.119 12.156-3.794 18.228-1.863l233.73 74.308c5.062 1.61 9.412 4.922 12.309 9.375l119.26 183.27c4.48 6.8937 4.94 15.658 1.21 22.986l-74.854 146.91c-3.733 7.328-11.096 12.105-19.31 12.528l-218.36 11.24c-5.306 0.273-10.542-1.299-14.82-4.448l-197.5-145.41c-5.131-3.7777-8.465-9.5145-9.207-15.843l-21.231-181.06c-1.081-9.221 3.488-18.188 11.583-22.733z" opacity=".43478" stroke="#9CCBF0" stroke-width="4"/>
<path d="m487.35-171.77 152.44-96.938c5.387-3.426 11.956-4.459 18.134-2.851l234.28 60.971c5.165 1.344 9.702 4.443 12.833 8.765l126.78 175c4.81 6.6452 5.72 15.352 2.39 22.848l-66.581 149.53c-3.338 7.497-10.417 12.647-18.576 13.516l-214.88 22.885c-5.307 0.566-10.646-0.732-15.101-3.671l-202.07-133.31c-5.33-3.5156-8.958-9.0882-10.017-15.384l-29.961-178.15c-1.533-9.116 2.54-18.263 10.34-23.223z" opacity=".44928" stroke="#9CCBF0" stroke-width="4"/>
<path d="m468.76-160.85 145.55-104.19c5.202-3.723 11.72-5.112 17.988-3.833l234.08 47.782c5.255 1.073 9.969 3.948 13.328 8.128l133.76 166.45c5.12 6.3812 6.47 15.007 3.54 22.65l-58.231 151.7c-2.934 7.643-9.708 13.15-17.789 14.461l-210.78 34.195c-5.294 0.859-10.721-0.159-15.344-2.878l-205.93-121.12c-5.514-3.2433-9.428-8.6368-10.802-14.885l-38.447-174.82c-1.977-8.986 1.593-18.286 9.075-23.642z" opacity=".46377" stroke="#9CCBF0" stroke-width="4"/>
<path d="m451.04-149.95 138.32-110.99c5-4.012 11.448-5.755 17.788-4.809l233.15 34.784c5.33 0.795 10.212 3.436 13.793 7.463l140.21 157.66c5.427 6.1024 7.207 14.625 4.687 22.392l-49.844 153.4c-2.524 7.766-8.977 13.613-16.954 15.36l-206.1 45.137c-5.264 1.153-10.766 0.42-15.546-2.069l-209.06-108.9c-5.685-2.9614-9.877-8.1614-11.563-14.346l-46.67-171.1c-2.41-8.836 0.652-18.26 7.795-23.991z" opacity=".47826" stroke="#9CCBF0" stroke-width="4"/>
<path d="m434.19-139.13 130.79-117.32c4.782-4.289 11.14-6.383 17.535-5.775l231.5 22.016c5.391 0.513 10.429 2.912 14.226 6.774l146.1 148.65c5.71 5.8097 7.921 14.207 5.813 22.075l-41.439 154.65c-2.109 7.8686-8.222 14.035-16.072 16.211l-200.85 55.682c-5.219 1.447-10.782 1.005-15.707-1.246l-211.5-96.686c-5.843-2.6709-10.302-7.6633-12.298-13.769l-54.612-167c-2.834-8.664-0.283-18.184 6.503-24.27z" opacity=".49275" stroke="#9CCBF0" stroke-width="4"/>
<path d="m418.17-128.44 122.98-123.16c4.549-4.555 10.798-6.996 17.23-6.729l229.17 9.518c5.439 0.226 10.621 2.374 14.625 6.061l151.45 139.46c5.978 5.504 8.607 13.754 6.918 21.702l-33.041 155.45c-1.69 7.948-7.447 14.415-15.147 17.012l-195.08 65.799c-5.158 1.74-10.766 1.594-15.826-0.412l-213.23-84.517c-5.984-2.372-10.701-7.1434-13.003-13.155l-62.256-162.54c-3.245-8.472-1.207-18.059 5.203-24.478z" opacity=".50725" stroke="#9CCBF0" stroke-width="4"/>
<path d="m402.98-117.92 114.93-128.52c4.3-4.809 10.422-7.591 16.873-7.667l226.17-2.674c5.471-0.065 10.786 1.823 14.99 5.325l156.24 130.11c6.228 5.186 9.266 13.267 7.998 21.272l-24.674 155.79c-1.268 8.0046-6.655 14.751-14.181 17.759l-188.8 75.465c-5.08 2.031-10.719 2.184-15.902 0.432l-214.27-72.434c-6.112-2.0659-11.075-6.6033-13.678-12.506l-69.588-157.74c-3.644-8.2593-2.119-17.886 3.898-24.614z" opacity=".52174" stroke="#9CCBF0" stroke-width="4"/>
<path d="m388.6-107.62 106.65-133.37c4.037-5.049 10.014-8.165 16.465-8.586l222.53-14.525c5.489-0.358 10.924 1.262 15.32 4.568l160.48 120.66c6.46 4.857 9.897 12.749 9.052 20.788l-16.363 155.69c-0.845 8.0384-5.848 15.043-13.177 18.451l-182.05 84.654c-4.988 2.319-10.641 2.774-15.935 1.282l-214.65-60.473c-6.223-1.7532-11.42-6.0442-14.32-11.822l-76.593-152.63c-4.028-8.0275-3.015-17.666 2.594-24.68z" opacity=".53623" stroke="#9CCBF0" stroke-width="4"/>
<path d="m375-97.573 98.19-137.71c3.761-5.275 9.573-8.719 16.006-9.485l218.28-26.001c5.491-0.654 11.034 0.692 15.613 3.791l164.16 111.11c6.675 4.518 10.498 12.201 10.076 20.251l-8.131 155.15c-0.422 8.0495-5.027 15.291-12.138 19.087l-174.87 93.344c-4.878 2.604-10.531 3.363-15.923 2.139l-214.36-48.674c-6.318-1.4346-11.738-5.4674-14.927-11.107l-83.258-147.22c-4.398-7.7779-3.894-17.399 1.294-24.675z" opacity=".55072" stroke="#9CCBF0" stroke-width="4"/>
<path d="m362.16-87.829 89.571-141.53c3.472-5.487 9.102-9.25 15.499-10.361l213.44-37.071c5.478-0.951 11.115 0.114 15.868 2.998l167.28 101.52c6.872 4.17 11.068 11.624 11.068 19.662v154.18c0 8.0379-4.196 15.493-11.068 19.663l-167.28 101.52c-4.753 2.884-10.39 3.949-15.868 2.998l-213.44-37.071c-6.397-1.1111-12.027-4.8745-15.499-10.361l-89.571-141.53c-4.753-7.5109-4.753-17.088 0-24.599z" opacity=".56522" stroke="#9CCBF0" stroke-width="4"/>
<path d="m350.06-78.424 80.825-144.84c3.171-5.683 8.601-9.756 14.944-11.211l208.05-47.705c5.449-1.249 11.167-0.471 16.084 2.189l169.86 91.895c7.049 3.814 11.605 11.022 12.024 19.026l8.008 152.79c0.419 8.0038-3.358 15.649-9.97 20.178l-159.33 109.15c-4.612 3.159-10.217 4.531-15.767 3.858l-211.89-25.697c-6.461-0.7834-12.287-4.2668-16.034-9.5868l-95.522-135.6c-5.092-7.2275-5.59-16.734-1.282-24.454z" opacity=".57971" stroke="#9CCBF0" stroke-width="4"/>
<path d="m338.66-69.397 71.984-147.62c2.859-5.862 8.072-10.235 14.342-12.03l202.13-57.877c5.405-1.548 11.19-1.062 16.262 1.366l171.9 82.285c7.208 3.45 12.109 10.394 12.944 18.341l15.87 150.99c0.835 7.9473-2.515 15.759-8.848 20.632l-151.04 116.23c-4.456 3.429-10.013 5.106-15.622 4.716l-209.75-14.586c-6.507-0.4525-12.515-3.646-16.53-8.7857l-101.1-129.42c-5.413-6.9288-6.402-16.337-2.548-24.24z" opacity=".5942" stroke="#9CCBF0" stroke-width="4"/>
<path d="m327.94-60.782 63.079-149.87c2.536-6.025 7.515-10.686 13.694-12.819l195.74-67.562c5.345-1.845 11.183-1.656 16.398 0.531l173.41 72.713c7.347 3.08 12.577 9.744 13.823 17.612l23.566 148.79c1.247 7.8687-1.668 15.822-7.703 21.022l-142.46 122.74c-4.284 3.6912-9.778 5.6748-15.432 5.5719l-207.03-3.7694c-6.536-0.119-12.712-3.0133-16.986-7.9598l-106.3-123.04c-5.716-6.6158-7.186-15.9-3.795-23.959z" opacity=".6087" stroke="#9CCBF0" stroke-width="4"/>
<path d="m317.86-52.614 54.138-151.6c2.204-6.17 6.934-11.108 13.004-13.574l188.88-76.735c5.27-2.141 11.146-2.253 16.494-0.315l174.4 63.208c7.466 2.706 13.009 9.073 14.66 16.842l31.077 146.21c1.652 7.7684-0.822 15.839-6.542 21.348l-133.61 128.68c-4.097 3.9459-9.511 6.2335-15.196 6.4211l-203.76 6.7244c-6.549 0.216-12.878-2.3707-17.401-7.1112l-111.12-116.48c-6.001-6.2897-7.942-15.425-5.019-23.611z" opacity=".62319" stroke="#9CCBF0" stroke-width="4"/>
<path d="m308.39-44.922 45.193-152.82c1.863-6.297 6.328-11.498 12.271-14.292l181.61-85.378c5.179-2.434 11.079-2.851 16.549-1.168l174.87 53.798c7.566 2.328 13.404 8.384 15.453 16.03l38.383 143.25c2.049 7.6469 0.022 15.81-5.367 21.609l-124.54 134.02c-3.896 4.192-9.214 6.7813-14.916 7.2623l-199.97 16.867c-6.543 0.5519-13.011-1.7195-17.772-6.2419l-115.55-109.75c-6.266-5.9513-8.667-14.913-6.216-23.199z" opacity=".63768" stroke="#9CCBF0" stroke-width="4"/>
<path d="m299.49-37.736 36.274-153.51c1.514-6.406 5.699-11.856 11.498-14.972l173.96-93.471c5.072-2.725 10.981-3.449 16.56-2.029l174.84 44.512c7.647 1.947 13.762 7.677 16.2 15.181l45.467 139.93c2.438 7.5047 0.86 15.735-4.182 21.805l-115.28 138.78c-3.679 4.4287-8.885 7.3166-14.59 8.093l-195.68 26.634c-6.522 0.8877-13.112-1.0614-18.102-5.3541l-119.58-102.87c-6.511-5.6019-9.359-14.366-7.383-22.725z" opacity=".65217" stroke="#9CCBF0" stroke-width="4"/>
<path d="m291.13-31.082 27.41-153.7c1.159-6.495 5.05-12.18 10.687-15.61l165.97-101c4.949-3.012 10.853-4.045 16.53-2.893l174.32 35.373c7.707 1.564 14.081 6.957 16.899 14.298l52.31 136.27c2.818 7.341 1.69 15.614-2.991 21.933l-105.88 142.93c-3.449 4.6553-8.527 7.8377-14.22 8.9112l-190.92 36c-6.483 1.2225-13.18-0.3981-18.387-4.4499l-123.21-95.88c-6.737-5.2426-10.017-13.786-8.518-22.19z" opacity=".66667" stroke="#9CCBF0" stroke-width="4"/>
<path d="m283.27-24.984 18.629-153.38c0.797-6.565 4.382-12.469 9.839-16.205l157.68-107.95c4.811-3.294 10.693-4.637 16.457-3.759l173.34 26.408c7.747 1.18 14.36 6.224 17.547 13.383l58.897 132.28c3.187 7.159 2.511 15.449-1.796 21.996l-96.363 146.49c-3.204 4.871-8.139 8.3433-13.806 9.7146l-185.73 44.944c-6.428 1.5554-13.214 0.2687-18.627-3.5317l-126.45-88.79c-6.942-4.8747-10.638-13.175-9.615-21.596z" opacity=".68116" stroke="#9CCBF0" stroke-width="4"/>
<path d="m275.87-19.464 9.958-152.58c0.432-6.615 3.697-12.723 8.958-16.756l149.11-114.31c4.657-3.57 10.503-5.225 16.341-4.626l171.9 17.641c7.767 0.797 14.6 5.48 18.145 12.438l65.212 127.99c3.545 6.957 3.318 15.238-0.602 21.991l-86.771 149.44c-2.947 5.0749-7.722 8.8316-13.348 10.501l-180.13 53.445c-6.355 1.8857-13.215 0.9375-18.82-2.6015l-129.29-81.626c-7.126-4.4993-11.221-12.536-10.672-20.946z" opacity=".69565" stroke="#9CCBF0" stroke-width="4"/>
<path d="m268.89-14.54 1.427-151.29c0.063-6.645 2.997-12.938 8.046-17.259l140.32-120.07c4.488-3.84 10.283-5.807 16.182-5.491l170.03 9.092c7.768 0.416 14.8 4.73 18.69 11.468l71.242 123.39c3.89 6.738 4.11 14.985 0.586 21.92l-77.141 151.8c-2.676 5.2665-7.276 9.3012-12.847 11.268l-174.15 61.487c-6.267 2.2124-13.183 1.6065-18.969-1.6617l-131.73-74.409c-7.29-4.1176-11.767-11.871-11.688-20.243z" opacity=".71014" stroke="#9CCBF0" stroke-width="4"/>
<path d="m262.3-10.229-6.94-149.53c-0.309-6.654 2.282-13.115 7.103-17.712l131.35-125.23c4.304-4.104 10.031-6.381 15.979-6.353l167.74 0.786c7.75 0.036 14.96 3.973 19.181 10.473l76.973 118.53c4.221 6.5 4.885 14.689 1.766 21.783l-67.508 153.56c-2.394 5.4446-6.804 9.7504-12.304 12.013l-167.83 69.054c-6.16 2.5347-13.117 2.274-19.07-0.7147l-133.78-67.16c-7.432-3.7308-12.271-11.182-12.656-19.489z" opacity=".72464" stroke="#9CCBF0" stroke-width="4"/>
<path d="m256.04-6.5455-15.117-147.32c-0.681-6.643 1.558-13.255 6.136-18.116l122.22-129.78c4.106-4.36 9.75-6.947 15.733-7.21l165.05-7.261c7.712-0.339 15.08 3.213 19.618 9.459l82.393 113.4c4.537 6.245 5.639 14.351 2.933 21.581l-57.909 154.73c-2.1 5.6089-6.304 10.178-11.719 12.735l-161.2 76.132c-6.038 2.8519-13.018 2.9385-19.125 0.2374l-135.44-59.902c-7.552-3.3401-12.734-10.472-13.577-18.687z" opacity=".73913" stroke="#9CCBF0" stroke-width="4"/>
<path d="m250.09-3.4999-23.08-144.67c-1.055-6.611 0.823-13.354 5.144-18.467l112.98-133.72c3.892-4.607 9.439-7.501 15.444-8.058l161.99-15.029c7.656-0.71 15.16 2.452 19.999 8.428l87.491 108.04c4.839 5.976 6.372 13.974 4.085 21.314l-48.379 155.33c-1.793 5.7584-5.777 10.582-11.093 13.431l-154.29 82.709c-5.9 3.1628-12.885 3.598-19.133 1.1919l-136.71-52.654c-7.651-2.9467-13.155-9.7433-14.446-17.84z" opacity=".75362" stroke="#9CCBF0" stroke-width="4"/>
<path d="m244.39-1.1014-30.805-141.59c-1.426-6.558 0.082-13.412 4.131-18.765l103.67-137.06c3.664-4.845 9.097-8.043 15.112-8.897l158.57-22.499c7.581-1.076 15.2 1.691 20.324 7.382l92.258 102.46c5.124 5.69 7.08 13.557 5.217 20.984l-38.951 155.35c-1.478 5.8926-5.226 10.961-10.428 14.1l-147.14 88.777c-5.746 3.467-12.72 4.2511-19.093 2.1467l-137.6-45.437c-7.729-2.552-13.533-8.9981-15.263-16.951z" opacity=".76812" stroke="#9CCBF0" stroke-width="4"/>
<path d="m238.92 0.64378-38.27-138.11c-1.797-6.484-0.664-13.43 3.099-19.007l94.328-139.79c3.424-5.073 8.727-8.573 14.738-9.724l154.82-29.66c7.487-1.435 15.2 0.934 20.591 6.325l96.685 96.686c5.392 5.391 7.761 13.103 6.326 20.591l-29.66 154.82c-1.151 6.0107-4.651 11.315-9.724 14.738l-139.79 94.328c-5.577 3.7635-12.523 4.8962-19.007 3.0995l-138.12-38.27c-7.784-2.1569-13.866-8.2391-16.023-16.023z" opacity=".78261" stroke="#9CCBF0" stroke-width="4"/>
<path d="m233.61 1.732-45.455-134.25c-2.163-6.389-1.413-13.406 2.053-19.193l84.989-141.92c3.168-5.291 8.327-9.087 14.32-10.538l150.76-36.495c7.378-1.786 15.161 0.183 20.802 5.262l100.77 90.73c5.641 5.079 8.412 12.614 7.407 20.138l-20.536 153.75c-0.816 6.112-4.053 11.64-8.983 15.344l-132.26 99.358c-5.393 4.0515-12.293 5.5313-18.873 4.0477l-138.26-31.173c-7.819-1.7629-14.156-7.4689-16.727-15.061z" opacity=".7971" stroke="#9CCBF0" stroke-width="4"/>
<path d="m228.44 2.1619-52.339-130.02c-2.526-6.274-2.162-13.341 0.994-19.322l75.689-143.46c2.9-5.496 7.9-9.585 13.863-11.336l146.41-42.992c7.249-2.129 15.082-0.561 20.954 4.194l104.49 84.617c5.872 4.755 9.034 12.09 8.459 19.624l-11.612 152.15c-0.472 6.196-3.432 11.937-8.205 15.916l-124.59 103.86c-5.194 4.3304-12.031 6.1552-18.693 4.9893l-138.06-24.164c-7.832-1.3709-14.401-6.6902-17.371-14.066z" opacity=".81159" stroke="#9CCBF0" stroke-width="4"/>
<path d="m223.37 1.9349-58.905-125.44c-2.882-6.137-2.91-13.233-0.075-19.392l66.468-144.42c2.619-5.69 7.444-10.065 13.362-12.116l141.8-49.14c7.106-2.463 14.967-1.296 21.05 3.124l107.86 78.366c6.084 4.42 9.622 11.536 9.476 19.054l-2.915 150.05c-0.122 6.2621-2.792 12.204-7.394 16.452l-116.81 107.84c-4.982 4.5993-11.739 6.7662-18.466 5.9217l-137.5-17.26c-7.825-0.9823-14.601-5.9056-17.954-13.044z" opacity=".82609" stroke="#9CCBF0" stroke-width="4"/>
<path d="m218.35 1.0546-65.136-120.54c-3.232-5.98-3.653-13.084-1.149-19.404l57.358-144.81c2.325-5.87 6.961-10.527 12.821-12.877l136.96-54.931c6.946-2.786 14.813-2.018 21.089 2.058l110.87 71.998c6.276 4.075 10.177 10.95 10.457 18.428l5.523 147.46c0.237 6.309-2.131 12.439-6.548 16.951l-108.96 111.3c-4.756 4.8575-11.417 7.3626-18.195 6.8427l-136.61-10.479c-7.798-0.5981-14.758-5.1177-18.476-11.998z" opacity=".84058" stroke="#9CCBF0" stroke-width="4"/>
<path d="m213.2-0.62376-71.015-115.33c-3.574-5.803-4.39-12.893-2.227-19.356l48.394-144.65c2.02-6.037 6.452-10.968 12.241-13.617l131.89-60.355c6.771-3.099 14.623-2.728 21.071 0.995l113.51 65.535c6.448 3.722 10.695 10.337 11.397 17.749l13.678 144.4c0.6 6.338-1.454 12.642-5.672 17.41l-101.07 114.23c-4.516 5.1045-11.064 7.9431-17.877 7.7501l-135.39-3.8357c-7.75-0.2195-14.868-4.3291-18.934-10.931z" opacity=".85507" stroke="#9CCBF0" stroke-width="4"/>
<path d="m208.17-2.7901-76.531-109.85c-3.906-5.607-5.117-12.661-3.304-19.25l39.609-143.95c1.703-6.19 5.917-11.387 11.621-14.333l126.64-65.409c6.581-3.399 14.397-3.42 20.996-0.057l115.78 58.994c6.6 3.363 11.176 9.698 12.294 17.02l21.523 140.9c0.969 6.347-0.758 12.81-4.765 17.827l-93.174 116.65c-4.265 5.3395-10.683 8.5061-17.515 8.6415l-133.85 2.6539c-7.684 0.15234-14.935-3.5426-19.328-9.8479z" opacity=".86956" stroke="#9CCBF0" stroke-width="4"/>
<path d="m203.08-5.5845-81.667-104.11c-4.229-5.391-5.834-12.387-4.378-19.082l31.034-142.73c1.376-6.329 5.356-11.784 10.963-15.025l121.23-70.086c6.377-3.687 14.136-4.096 20.866-1.099l117.69 52.399c6.731 2.997 11.618 9.036 13.146 16.243l29.034 136.99c1.343 6.335-0.048 12.943-3.83 18.201l-85.302 118.57c-4.001 5.5618-10.274 9.0501-17.11 9.5148l-132.02 8.9756c-7.597 0.51651-14.957-2.7605-19.657-8.7518z" opacity=".88406" stroke="#9CCBF0" stroke-width="4"/>
<path d="m197.89-8.9944-86.416-98.15c-4.54-5.156-6.537-12.072-5.445-18.855l22.699-141.01c1.039-6.451 4.772-12.156 10.268-15.69l115.67-74.382c6.162-3.963 13.843-4.752 20.682-2.127l119.23 45.769c6.839 2.626 12.019 8.352 13.947 15.42l36.19 132.68c1.72 6.304 0.677 13.041-2.868 18.53l-77.486 119.98c-3.727 5.771-9.838 9.5738-16.662 10.368l-129.9 15.116c-7.492 0.87191-14.936-1.9855-19.921-7.647z" opacity=".89855" stroke="#9CCBF0" stroke-width="4"/>
<path d="m192.57-13.005-90.767-91.98c-4.838-4.903-7.2241-11.716-6.5019-18.566l14.635-138.82c0.691-6.557 4.163-12.503 9.535-16.326l110-78.298c5.934-4.223 13.517-5.387 20.444-3.136l120.41 39.124c6.928 2.251 12.379 7.65 14.697 14.554l42.971 128c2.099 6.251 1.413 13.102-1.882 18.814l-69.754 120.91c-3.443 5.9664-9.378 10.076-16.174 11.199l-127.5 21.062c-7.371 1.2176-14.873-1.2202-20.12-6.5373z" opacity=".91304" stroke="#9CCBF0" stroke-width="4"/>
<path d="m187.07-17.598-94.711-85.632c-5.1231-4.632-7.8935-11.321-7.5457-18.219l6.8655-136.17c0.3351-6.647 3.5333-12.823 8.768-16.933l104.24-81.831c5.695-4.47 13.162-5.998 20.155-4.125l121.23 32.483c6.993 1.874 12.696 6.931 15.392 13.65l49.357 122.99c2.479 6.176 2.161 13.124-0.873 19.048l-62.138 121.36c-3.148 6.1476-8.892 10.555-15.645 12.005l-124.84 26.804c-7.231 1.5525-14.768-0.4669-20.254-5.4269z" opacity=".92754" stroke="#9CCBF0" stroke-width="4"/>
<path d="m181.38-22.757-98.243-79.129c-5.3933-4.344-8.5422-10.887-8.5725-17.812l-0.5821-133.09c-0.0294-6.719 2.8812-13.116 7.9668-17.507l98.406-84.985c5.445-4.702 12.777-6.586 19.815-5.09l121.69 25.865c7.038 1.496 12.97 6.199 16.032 12.71l55.332 117.66c2.859 6.081 2.917 13.108 0.157 19.235l-54.666 121.35c-2.844 6.314-8.382 11.01-15.076 12.785l-121.93 32.329c-7.075 1.8759-14.621 0.272-20.321-4.3195z" opacity=".94203" stroke="#9CCBF0" stroke-width="4"/>
<path d="m175.45-28.46-101.36-72.498c-5.6477-4.04-9.1681-10.415-9.579-17.346l-7.6849-129.62c-0.4016-6.774 2.2086-13.38 7.132-18.049l92.529-87.761c5.187-4.919 12.366-7.147 19.426-6.029l121.79 19.291c7.06 1.118 13.199 5.455 16.612 11.736l60.882 112.06c3.239 5.962 3.68 13.051 1.205 19.369l-47.362 120.9c-2.533 6.4653-7.851 11.44-14.47 13.537l-118.8 37.628c-6.904 2.1868-14.435 0.994-20.326-3.2193z" opacity=".95652" stroke="#9CCBF0" stroke-width="4"/>
</g>
</mask>
<g mask="url(#a)">
<rect x="-118" y="1" width="1201" height="218" rx="15" fill="#9CCBF0"/>
<rect x="-118" y="1" width="1201" height="218" rx="15" stroke="#FFB636" stroke-width="2"/>
</g>
</g>
</svg>
