<?xml version="1.0" encoding="UTF-8"?>
<svg fill="none" viewBox="0 0 1434 982" xmlns="http://www.w3.org/2000/svg">
<g opacity=".3" stroke="#9CCBF0" stroke-width="4">
<path d="m1364.4 851.55c9.99 2.3 20.29-2.288 25.27-11.25l112.13-201.99c2.94-5.3 3.67-11.548 2.03-17.384l-91.13-324.4c-1.28-4.59-3.97-8.665-7.67-11.663l-227.95-184.36c-6.72-5.4352-15.92-6.6437-23.82-3.1279l-182.77 81.376c-7.896 3.516-13.155 11.162-13.613 19.794l-15.522 292.75c-0.253 4.76 0.981 9.482 3.529 13.511l180.1 284.78c3.24 5.123 8.37 8.76 14.28 10.12l225.14 51.831z" opacity=".014493"/>
<path d="m1328 859.97c9.83 2.796 20.33-1.234 25.76-9.892l121.96-194.21c3.23-5.141 4.29-11.35 2.96-17.273l-73.17-325.68c-1.05-4.665-3.53-8.888-7.09-12.081l-216.33-194.02c-6.42-5.764-15.53-7.4434-23.59-4.35l-185.64 71.26c-8.059 3.094-13.707 10.44-14.627 19.023l-30.942 288.93c-0.509 4.754 0.476 9.549 2.819 13.718l163.54 290.99c2.98 5.292 7.92 9.194 13.76 10.855l220.59 62.722z" opacity=".028986"/>
<path d="m1291.6 867.22c9.65 3.282 20.31-0.182 26.19-8.511l131.28-185.96c3.51-4.966 4.91-11.12 3.89-17.114l-55.34-325.98c-0.81-4.729-3.07-9.088-6.47-12.468l-204.33-202.97c-6.12-6.076-15.12-8.221-23.32-5.556l-187.95 61.067c-8.199 2.664-14.22 9.69-15.597 18.201l-46.003 284.31c-0.767 4.734-0.033 9.59 2.097 13.888l146.84 296.26c2.7 5.447 7.44 9.604 13.2 11.561l215.51 73.282z" opacity=".043478"/>
<path d="m1255.3 873.32c9.44 3.758 20.24 0.865 26.54-7.112l140.07-177.27c3.78-4.777 5.51-10.857 4.8-16.906l-37.68-325.32c-0.55-4.78-2.59-9.265-5.82-12.825l-192-211.21c-5.79-6.371-14.65-8.974-22.97-6.745l-189.7 50.83c-8.317 2.229-14.692 8.915-16.522 17.328l-60.665 278.91c-1.023 4.701-0.545 9.604 1.365 14.02l130.02 300.58c2.42 5.588 6.96 9.99 12.61 12.24l209.95 83.485z" opacity=".057971"/>
<path d="m1219 878.27c9.22 4.219 20.11 1.903 26.82-5.701l148.32-168.18c4.03-4.574 6.08-10.563 5.7-16.649l-20.24-323.71c-0.3-4.817-2.11-9.417-5.17-13.148l-179.36-218.72c-5.45-6.648-14.15-9.701-22.56-7.913l-190.91 40.578c-8.41 1.788-15.121 8.117-17.398 16.408l-74.887 272.76c-1.278 4.654-1.059 9.592 0.625 14.115l113.17 303.96c2.13 5.715 6.44 10.351 11.99 12.889l203.9 93.31z" opacity=".072464"/>
<path d="m1183 882.11c8.97 4.667 19.94 2.93 27.02-4.28l156-158.71c4.29-4.356 6.66-10.236 6.6-16.344l-3.08-321.17c-0.04-4.841-1.62-9.544-4.49-13.439l-166.46-225.49c-5.1-6.907-13.62-10.4-22.1-9.057l-191.56 30.34c-8.48 1.344-15.506 7.298-18.221 15.444l-88.633 265.89c-1.531 4.593-1.574 9.552-0.122 14.171l96.322 306.4c1.831 5.826 5.905 10.685 11.323 13.505l197.4 102.74z" opacity=".086956"/>
<path d="m1147.2 884.84c8.69 5.101 19.7 3.945 27.14-2.853l163.1-148.9c4.52-4.125 7.21-9.879 7.47-15.991l13.77-317.73c0.21-4.853-1.12-9.647-3.81-13.697l-153.35-231.52c-4.73-7.148-13.05-11.069-21.58-10.173l-191.67 20.145c-8.527 0.897-15.848 6.461-18.993 14.438l-101.86 258.34c-1.782 4.519-2.087 9.485-0.873 14.188l79.527 307.93c1.53 5.923 5.356 10.992 10.633 14.088l190.5 111.74z" opacity=".10145"/>
<path d="m1111.7 886.49c8.4 5.518 19.42 4.941 27.19-1.425l169.61-138.8c4.74-3.88 7.74-9.492 8.32-15.591l30.25-313.42c0.46-4.85-0.62-9.724-3.1-13.919l-140.07-236.8c-4.36-7.369-12.45-11.707-21-11.259l-191.24 10.023c-8.55 0.448-16.143 5.608-19.708 13.392l-114.55 250.15c-2.029 4.43-2.598 9.391-1.626 14.166l62.839 308.54c1.222 6.003 4.79 11.271 9.911 14.634l183.18 120.31z" opacity=".11594"/>
<path d="m1076.6 887.09c8.09 5.918 19.08 5.918 27.16 0l175.5-128.42c4.95-3.623 8.25-9.076 9.16-15.144l46.31-308.26c0.72-4.835-0.11-9.776-2.38-14.105l-126.66-241.33c-3.97-7.57-11.82-12.311-20.37-12.311h-190.28c-8.549 0-16.393 4.741-20.366 12.311l-126.66 241.33c-2.272 4.329-3.105 9.27-2.379 14.105l46.304 308.26c0.912 6.068 4.211 11.521 9.163 15.144l175.5 128.42z" opacity=".13044"/>
<path d="m1041.8 886.67c7.76 6.3 18.69 6.873 27.06 1.418l180.78-117.81c5.15-3.356 8.74-8.633 9.97-14.655l61.91-302.29c0.98-4.806 0.41-9.801-1.65-14.255l-113.16-245.12c-3.58-7.75-11.15-12.881-19.68-13.328l-188.8-9.895c-8.525-0.447-16.596 3.864-20.964 11.198l-138.16 231.95c-2.511 4.215-3.608 9.122-3.131 14.004l29.972 307.1c0.597 6.117 3.618 11.741 8.388 15.617l167.47 136.06z" opacity=".14493"/>
<path d="m1007.6 885.27c7.4 6.664 18.26 7.804 26.88 2.826l185.43-107c5.33-3.077 9.21-8.163 10.76-14.12l77.02-295.54c1.24-4.764 0.92-9.8-0.92-14.368l-99.61-248.16c-3.17-7.91-10.46-13.416-18.94-14.307l-186.81-19.634c-8.479-0.891-16.753 2.978-21.504 10.055l-149.03 222.03c-2.744 4.087-4.103 8.947-3.879 13.864l13.888 305.09c0.28 6.15 3.014 11.931 7.59 16.049l159.12 143.22z" opacity=".15942"/>
<path d="m973.86 882.91c7.035 7.007 17.773 8.708 26.634 4.218l189.44-96.039c5.5-2.789 9.65-7.669 11.52-13.545l91.59-288.04c1.49-4.708 1.44-9.772-0.17-14.444l-86.06-250.46c-2.76-8.049-9.74-13.912-18.15-15.243l-184.33-29.195c-8.402-1.331-16.855 2.087-21.972 8.887l-159.24 211.61c-2.97 3.947-4.591 8.746-4.622 13.685l-1.902 302.24c-0.039 6.167 2.4 12.09 6.769 16.442l150.5 149.88z" opacity=".17391"/>
<path d="m940.69 879.64c6.652 7.33 17.247 9.582 26.305 5.591l192.83-84.95c5.65-2.491 10.07-7.15 12.25-12.929l105.58-279.83c1.75-4.638 1.96-9.718 0.59-14.481l-72.54-252.03c-2.35-8.165-9.01-14.37-17.32-16.136l-181.35-38.548c-8.315-1.767-16.923 1.192-22.39 7.696l-168.77 200.74c-3.19 3.794-5.069 8.517-5.357 13.466l-17.358 298.58c-0.358 6.166 1.779 12.217 5.93 16.791l141.6 156.04z" opacity=".18841"/>
<path d="m908.12 875.5c6.254 7.631 16.677 10.424 25.908 6.942l195.58-73.775c5.79-2.184 10.45-6.608 12.94-12.272l118.98-270.96c2-4.555 2.47-9.636 1.34-14.48l-59.09-252.88c-1.93-8.26-8.25-14.788-16.44-16.983l-177.91-47.673c-8.2-2.195-16.935 0.298-22.737 6.486l-177.61 189.46c-3.403 3.629-5.537 8.264-6.082 13.209l-32.437 294.14c-0.678 6.15 1.15 12.314 5.071 17.099l132.49 161.68z" opacity=".2029"/>
<path d="m876.21 870.52c5.842 7.911 16.066 11.233 25.441 8.266l197.68-62.547c5.91-1.87 10.81-6.045 13.6-11.579l131.74-261.45c2.25-4.459 2.98-9.528 2.09-14.441l-45.74-253.02c-1.51-8.334-7.47-15.166-15.53-17.783l-174.02-56.542c-8.05-2.617-16.891-0.596-23.008 5.26l-185.73 177.81c-3.606 3.453-5.991 7.986-6.795 12.914l-47.1 288.95c-0.997 6.117 0.516 12.377 4.198 17.362l123.17 166.8z" opacity=".21739"/>
<path d="m845 864.76c5.417 8.168 15.414 12.005 24.905 9.561l199.16-51.305c6.01-1.549 11.14-5.462 14.23-10.851l143.83-251.37c2.48-4.349 3.48-9.393 2.84-14.363l-32.55-252.46c-1.08-8.385-6.67-15.502-14.56-18.532l-169.69-65.137c-7.9-3.03-16.815-1.485-23.23 4.023l-193.12 165.83c-3.802 3.265-6.434 7.683-7.495 12.58l-61.312 283.04c-1.314 6.068-0.12 12.409 3.312 17.582l113.68 171.39z" opacity=".23188"/>
<path d="m814.5 858.27c4.982 8.401 14.726 12.739 24.303 10.82l200-40.082c6.1-1.222 11.44-4.861 14.81-10.088l155.23-240.74c2.73-4.227 3.99-9.232 3.6-14.247l-19.54-251.22c-0.65-8.415-5.86-15.795-13.57-19.228l-164.94-73.435c-7.71-3.433-16.683-2.367-23.374 2.777l-199.77 153.58c-3.988 3.066-6.861 7.355-8.178 12.209l-75.036 276.44c-1.629 6.002-0.759 12.407 2.413 17.756l104.04 175.46z" opacity=".24638"/>
<path d="m784.77 851.08c4.537 8.611 14.003 13.434 23.636 12.043l200.22-28.915c6.17-0.89 11.71-4.243 15.36-9.293l165.91-229.61c2.96-4.093 4.49-9.045 4.35-14.092l-6.74-249.32c-0.23-8.422-5.05-16.046-12.55-19.871l-159.79-81.417c-7.51-3.825-16.507-3.239-23.454 1.527l-205.67 141.09c-4.164 2.856-7.272 7.004-8.844 11.802l-88.24 269.19c-1.941 5.92-1.397 12.373 1.507 17.885l94.299 178.98z" opacity=".26087"/>
<path d="m755.83 843.24c4.083 8.797 13.246 14.087 22.907 13.225l199.83-17.836c6.216-0.555 11.94-3.612 15.858-8.469l175.86-218.04c3.18-3.945 4.97-8.831 5.09-13.899l5.8-246.78c0.2-8.408-4.21-16.253-11.49-20.459l-154.26-89.062c-7.29-4.205-16.286-4.099-23.469 0.276l-210.81 128.41c-4.329 2.637-7.666 6.63-9.491 11.359l-100.89 261.32c-2.247 5.822-2.033 12.307 0.595 17.968l84.471 181.98z" opacity=".27536"/>
<path d="m727.71 834.82c3.623 8.959 12.459 14.698 22.117 14.364l198.84-6.88c6.249-0.216 12.14-2.966 16.317-7.618l185.06-206.05c3.4-3.786 5.45-8.593 5.83-13.668l18.06-243.61c0.62-8.372-3.37-16.418-10.41-20.99l-148.38-96.355c-7.04-4.572-16.009-4.945-23.405-0.972l-215.2 115.58c-4.483 2.408-8.041 6.234-10.117 10.881l-112.97 252.87c-2.55 5.708-2.667 12.208-0.323 18.004l74.589 184.44z" opacity=".28986"/>
<path d="m700.43 825.86c3.156 9.097 11.645 15.264 21.271 15.455l197.24 3.921c6.262 0.125 12.304-2.31 16.73-6.741l193.48-193.71c3.61-3.615 5.92-8.329 6.55-13.399l30.01-239.84c1.04-8.315-2.52-16.538-9.3-21.463l-142.15-103.28c-6.78-4.925-15.701-5.774-23.287-2.215l-218.83 102.65c-4.625 2.17-8.397 5.818-10.719 10.369l-124.44 243.87c-2.846 5.579-3.295 12.078-1.241 17.995l64.68 186.38z" opacity=".30435"/>
<path d="m674.01 816.42c2.686 9.208 10.806 15.783 20.371 16.496l195.07 14.534c6.257 0.466 12.433-1.644 17.097-5.842l201.14-181.06c3.81-3.432 6.37-8.041 7.26-13.092l41.61-235.5c1.46-8.237-1.67-16.614-8.17-21.877l-135.61-109.82c-6.5-5.263-15.346-6.584-23.1-3.448l-221.7 89.667c-4.755 1.924-8.731 5.382-11.296 9.825l-135.28 234.38c-3.137 5.434-3.917 11.914-2.16 17.938l54.773 187.78z" opacity=".31884"/>
<path d="m648.47 806.54c2.213 9.296 9.943 16.256 19.419 17.484l192.33 24.93c6.234 0.808 12.527-0.971 17.416-4.923l207.99-168.14c4.01-3.238 6.81-7.728 7.96-12.748l52.85-230.6c1.87-8.136-0.82-16.645-7.03-22.23l-128.78-115.95c-6.2-5.586-14.944-7.372-22.841-4.667l-223.81 76.666c-4.873 1.669-9.044 4.926-11.846 9.248l-145.48 224.43c-3.419 5.275-4.531 11.719-3.075 17.835l44.896 188.67z" opacity=".33333"/>
<path d="m623.83 796.28c1.737 9.359 9.059 16.681 18.418 18.418l189.04 35.077c6.192 1.148 12.585-0.292 17.686-3.986l214.06-155.01c4.19-3.034 7.23-7.391 8.64-12.369l63.69-225.18c2.27-8.016 0.03-16.632-5.86-22.523l-121.69-121.68c-5.89-5.891-14.504-8.135-22.52-5.868l-225.18 63.693c-4.977 1.408-9.335 4.452-12.369 8.642l-155.01 214.06c-3.694 5.101-5.134 11.494-3.985 17.686l35.076 189.04z" opacity=".34783"/>
<path d="m600.1 785.69c1.261 9.397 8.159 17.058 17.373 19.294l185.23 44.947c6.132 1.488 12.606 0.392 17.906-3.033l219.32-141.7c4.36-2.819 7.64-7.032 9.31-11.954l74.11-219.26c2.67-7.877 0.87-16.577-4.69-22.755l-114.34-126.99c-5.567-6.179-14.032-8.874-22.143-7.049l-225.81 50.791c-5.068 1.14-9.601 3.962-12.861 8.006l-163.85 203.31c-3.96 4.913-5.727 11.237-4.888 17.491l25.339 188.91z" opacity=".36232"/>
<path d="m577.29 774.84c0.785 9.41 7.243 17.384 16.284 20.109l180.91 54.515c6.053 1.824 12.589 1.076 18.074-2.068l223.79-128.28c4.52-2.594 8.03-6.651 9.95-11.503l84.1-212.88c3.05-7.717 1.71-16.477-3.52-22.925l-106.78-131.86c-5.22-6.448-13.51-9.584-21.692-8.207l-225.71 38.002c-5.145 0.866-9.842 3.456-13.321 7.344l-172.01 192.22c-4.215 4.711-6.306 10.949-5.78 17.249l15.711 188.29z" opacity=".37681"/>
<path d="m555.39 763.77c0.312 9.4 6.315 17.662 15.158 20.863l176.09 63.753c5.956 2.156 12.537 1.761 18.192-1.093l227.45-114.79c4.678-2.361 8.411-6.248 10.581-11.019l93.62-206.06c3.42-7.538 2.53-16.335-2.33-23.034l-99.032-136.3c-4.866-6.698-12.957-10.264-21.185-9.336l-224.9 25.366c-5.207 0.587-10.058 2.935-13.749 6.655l-179.45 180.85c-4.462 4.497-6.872 10.634-6.661 16.964l6.216 187.18z" opacity=".3913"/>
<path d="m534.42 752.54c-0.157 9.363 5.378 17.887 13.996 21.552l170.82 72.636c5.841 2.483 12.448 2.443 18.257-0.111l230.33-101.26c4.819-2.119 8.765-5.826 11.18-10.503l102.66-198.83c3.79-7.341 3.36-16.151-1.14-23.08l-91.108-140.29c-4.5-6.929-12.37-10.912-20.618-10.435l-223.4 12.921c-5.255 0.304-10.247 2.401-14.142 5.942l-186.19 169.23c-4.696 4.269-7.42 10.288-7.527 16.634l-3.121 185.59z" opacity=".4058"/>
<path d="m514.37 741.2c-0.622 9.304 4.435 18.063 12.804 22.177l165.1 81.142c5.707 2.804 12.321 3.121 18.27 0.875l232.42-87.753c4.947-1.868 9.099-5.383 11.757-9.954l111.22-191.22c4.14-7.126 4.16-15.925 0.04-23.064l-83.042-143.83c-4.122-7.139-11.749-11.527-19.993-11.5l-221.21 0.707c-5.288 0.017-10.408 1.855-14.499 5.205l-192.2 157.4c-4.919 4.029-7.952 9.915-8.376 16.26l-12.278 183.55z" opacity=".42029"/>
<path d="m495.24 729.81c-1.081 9.221 3.488 18.188 11.583 22.733l158.96 89.25c5.555 3.119 12.156 3.794 18.228 1.863l233.73-74.308c5.062-1.61 9.412-4.922 12.309-9.375l119.25-183.26c4.49-6.894 4.95-15.658 1.22-22.987l-74.854-146.91c-3.734-7.328-11.097-12.105-19.311-12.528l-218.36-11.24c-5.306-0.273-10.542 1.299-14.82 4.448l-197.5 145.41c-5.131 3.778-8.465 9.515-9.207 15.843l-21.231 181.06z" opacity=".43478"/>
<path d="m477.01 718.42c-1.533 9.115 2.54 18.263 10.34 23.223l152.44 96.938c5.387 3.426 11.956 4.458 18.134 2.85l234.28-60.971c5.165-1.344 9.702-4.443 12.833-8.765l126.78-175c4.81-6.645 5.72-15.352 2.38-22.848l-66.572-149.54c-3.338-7.496-10.417-12.646-18.576-13.515l-214.88-22.886c-5.307-0.565-10.646 0.733-15.101 3.672l-202.07 133.3c-5.329 3.516-8.958 9.088-10.016 15.384l-29.962 178.15z" opacity=".44928"/>
<path d="m459.69 707.07c-1.976 8.986 1.594 18.286 9.076 23.642l145.55 104.19c5.202 3.723 11.72 5.112 17.988 3.833l234.08-47.782c5.254-1.073 9.969-3.948 13.328-8.128l133.76-166.45c5.12-6.381 6.47-15.007 3.54-22.649l-58.231-151.7c-2.934-7.643-9.709-13.15-17.789-14.461l-210.78-34.195c-5.294-0.859-10.721 0.159-15.344 2.878l-205.93 121.12c-5.514 3.243-9.429 8.637-10.803 14.885l-38.447 174.82z" opacity=".46377"/>
<path d="m443.25 695.83c-2.411 8.836 0.651 18.26 7.795 23.992l138.32 110.99c5 4.012 11.448 5.755 17.788 4.809l233.15-34.783c5.33-0.796 10.211-3.437 13.793-7.464l140.2-157.66c5.427-6.102 7.207-14.625 4.688-22.392l-49.844-153.4c-2.524-7.767-8.977-13.613-16.954-15.36l-206.1-45.137c-5.264-1.153-10.766-0.421-15.546 2.069l-209.06 108.9c-5.685 2.962-9.877 8.162-11.564 14.346l-46.669 171.1z" opacity=".47826"/>
<path d="m427.68 684.73c-2.834 8.664-0.283 18.184 6.503 24.271l130.79 117.32c4.782 4.289 11.14 6.383 17.535 5.775l231.5-22.016c5.391-0.513 10.429-2.912 14.225-6.775l146.1-148.65c5.71-5.809 7.921-14.206 5.813-22.075l-41.439-154.65c-2.109-7.868-8.222-14.035-16.072-16.211l-200.85-55.681c-5.219-1.447-10.781-1.006-15.706 1.246l-211.5 96.685c-5.842 2.671-10.301 7.663-12.298 13.769l-54.611 167z" opacity=".49275"/>
<path d="m412.97 673.83c-3.244 8.471-1.207 18.059 5.203 24.478l122.98 123.16c4.548 4.555 10.798 6.995 17.229 6.728l229.17-9.518c5.438-0.226 10.621-2.373 14.625-6.06l151.45-139.46c5.977-5.504 8.607-13.754 6.918-21.702l-33.042-155.45c-1.689-7.948-7.447-14.415-15.146-17.012l-195.08-65.799c-5.158-1.74-10.766-1.594-15.826 0.412l-213.23 84.517c-5.984 2.372-10.701 7.143-13.003 13.154l-62.257 162.54z" opacity=".50725"/>
<path d="m399.08 663.18c-3.644 8.259-2.119 17.886 3.898 24.615l114.93 128.52c4.3 4.809 10.422 7.59 16.872 7.667l226.17 2.674c5.471 0.064 10.786-1.824 14.99-5.325l156.24-130.11c6.227-5.186 9.266-13.267 7.998-21.272l-24.675-155.79c-1.267-8.004-6.654-14.751-14.18-17.759l-188.8-75.465c-5.081-2.031-10.719-2.184-15.902-0.432l-214.28 72.434c-6.111 2.066-11.074 6.603-13.677 12.505l-69.588 157.74z" opacity=".52174"/>
<path d="m386.01 652.81c-4.029 8.027-3.016 17.665 2.594 24.68l106.65 133.37c4.038 5.049 10.014 8.165 16.465 8.587l222.53 14.524c5.488 0.358 10.923-1.262 15.32-4.567l160.47-120.66c6.461-4.857 9.897-12.749 9.052-20.788l-16.363-155.69c-0.845-8.039-5.847-15.044-13.176-18.452l-182.05-84.654c-4.987-2.319-10.641-2.774-15.935-1.282l-214.65 60.473c-6.223 1.754-11.42 6.045-14.32 11.823l-76.592 152.63z" opacity=".53623"/>
<path d="m373.71 642.77c-4.398 7.778-3.894 17.399 1.294 24.675l98.19 137.71c3.761 5.276 9.573 8.72 16.006 9.486l218.28 26.001c5.491 0.654 11.034-0.692 15.613-3.792l164.16-111.11c6.675-4.519 10.498-12.201 10.076-20.251l-8.131-155.15c-0.422-8.049-5.027-15.29-12.138-19.086l-174.87-93.344c-4.878-2.604-10.531-3.363-15.923-2.139l-214.36 48.674c-6.318 1.435-11.738 5.468-14.927 11.107l-83.258 147.22z" opacity=".55072"/>
<path d="m362.16 633.1c-4.753 7.51-4.753 17.088 0 24.599l89.571 141.53c3.472 5.487 9.102 9.25 15.499 10.361l213.44 37.071c5.478 0.951 11.115-0.114 15.868-2.998l167.28-101.52c6.872-4.17 11.068-11.625 11.068-19.663v-154.18c0-8.038-4.196-15.493-11.068-19.663l-167.28-101.52c-4.753-2.884-10.39-3.949-15.868-2.998l-213.44 37.071c-6.397 1.111-12.027 4.874-15.499 10.361l-89.571 141.54z" opacity=".56522"/>
<path d="m351.34 623.84c-5.091 7.227-5.59 16.733-1.281 24.453l80.825 144.84c3.171 5.682 8.601 9.756 14.944 11.21l208.05 47.705c5.449 1.25 11.167 0.472 16.085-2.189l169.86-91.895c7.049-3.814 11.605-11.022 12.025-19.026l8.007-152.79c0.419-8.004-3.358-15.649-9.97-20.179l-159.33-109.15c-4.612-3.16-10.218-4.532-15.768-3.858l-211.89 25.697c-6.46 0.783-12.286 4.266-16.034 9.586l-95.522 135.6z" opacity=".57971"/>
<path d="m341.21 615.03c-5.413 6.928-6.402 16.337-2.548 24.24l71.984 147.62c2.859 5.862 8.072 10.235 14.342 12.031l202.13 57.877c5.405 1.547 11.19 1.061 16.262-1.366l171.9-82.285c7.208-3.45 12.109-10.394 12.944-18.342l15.87-150.99c0.835-7.948-2.514-15.759-8.847-20.632l-151.04-116.23c-4.455-3.429-10.013-5.107-15.622-4.717l-209.75 14.586c-6.507 0.453-12.515 3.646-16.53 8.786l-101.1 129.42z" opacity=".5942"/>
<path d="m331.73 606.69c-5.716 6.616-7.186 15.9-3.795 23.959l63.079 149.87c2.536 6.025 7.515 10.687 13.694 12.819l195.74 67.562c5.345 1.845 11.183 1.656 16.398-0.531l173.41-72.712c7.347-3.081 12.577-9.745 13.823-17.613l23.566-148.79c1.247-7.869-1.668-15.822-7.703-21.023l-142.46-122.74c-4.284-3.691-9.778-5.674-15.432-5.572l-207.03 3.77c-6.536 0.119-12.712 3.013-16.986 7.96l-106.3 123.04z" opacity=".6087"/>
<path d="m322.88 598.87c-6.001 6.29-7.942 15.425-5.019 23.611l54.138 151.6c2.203 6.17 6.934 11.108 13.004 13.574l188.88 76.735c5.27 2.141 11.146 2.253 16.494 0.315l174.4-63.208c7.466-2.706 13.008-9.073 14.66-16.841l31.077-146.21c1.651-7.769-0.822-15.839-6.543-21.349l-133.61-128.68c-4.097-3.946-9.511-6.233-15.196-6.421l-203.76-6.724c-6.548-0.216-12.877 2.37-17.4 7.111l-111.12 116.48z" opacity=".62319"/>
<path d="m314.6 591.59c-6.266 5.951-8.667 14.912-6.217 23.199l45.194 152.82c1.862 6.297 6.328 11.498 12.271 14.292l181.61 85.378c5.179 2.434 11.079 2.851 16.548 1.168l174.87-53.798c7.567-2.328 13.404-8.384 15.453-16.03l38.384-143.25c2.049-7.647 0.021-15.81-5.368-21.609l-124.54-134.02c-3.895-4.192-9.213-6.781-14.915-7.262l-199.97-16.867c-6.544-0.552-13.011 1.719-17.772 6.242l-115.55 109.75z" opacity=".63768"/>
<path d="m306.87 584.88c-6.512 5.602-9.359 14.366-7.384 22.725l36.275 153.51c1.513 6.405 5.699 11.856 11.497 14.971l173.96 93.472c5.072 2.725 10.981 3.448 16.561 2.028l174.84-44.511c7.646-1.947 13.761-7.678 16.2-15.182l45.467-139.93c2.438-7.504 0.859-15.735-4.183-21.804l-115.28-138.78c-3.679-4.429-8.885-7.317-14.59-8.094l-195.68-26.633c-6.522-0.888-13.111 1.061-18.101 5.354l-119.58 102.87z" opacity=".65217"/>
<path d="m299.65 578.76c-6.737 5.243-10.017 13.786-8.518 22.19l27.41 153.7c1.158 6.495 5.05 12.18 10.686 15.61l165.97 101c4.949 3.012 10.852 4.045 16.53 2.893l174.32-35.373c7.707-1.564 14.081-6.957 16.899-14.299l52.31-136.27c2.818-7.342 1.69-15.614-2.991-21.933l-105.88-142.93c-3.449-4.655-8.527-7.838-14.22-8.911l-190.92-36c-6.484-1.222-13.18 0.399-18.387 4.45l-123.21 95.88z" opacity=".66667"/>
<path d="m292.88 573.26c-6.943 4.875-10.638 13.175-9.616 21.596l18.629 153.38c0.797 6.565 4.382 12.469 9.839 16.205l157.68 107.95c4.811 3.294 10.694 4.638 16.458 3.759l173.34-26.408c7.747-1.18 14.36-6.224 17.547-13.382l58.897-132.28c3.188-7.159 2.511-15.449-1.796-21.995l-96.363-146.49c-3.204-4.871-8.139-8.343-13.806-9.714l-185.73-44.944c-6.428-1.555-13.214-0.268-18.627 3.532l-126.45 88.79z" opacity=".68116"/>
<path d="m286.54 568.39c-7.126 4.5-11.221 12.537-10.672 20.947l9.958 152.58c0.432 6.615 3.697 12.723 8.958 16.756l149.11 114.31c4.658 3.57 10.504 5.225 16.341 4.626l171.9-17.641c7.768-0.797 14.6-5.48 18.145-12.438l65.213-127.99c3.545-6.957 3.317-15.238-0.603-21.991l-86.771-149.44c-2.947-5.075-7.722-8.831-13.348-10.501l-180.13-53.445c-6.356-1.886-13.216-0.937-18.821 2.602l-129.29 81.625z" opacity=".69565"/>
<path d="m280.58 564.17c-7.29 4.117-11.766 11.871-11.687 20.243l1.427 151.29c0.063 6.645 2.996 12.938 8.045 17.259l140.32 120.07c4.488 3.841 10.282 5.808 16.181 5.492l170.03-9.093c7.768-0.415 14.8-4.729 18.69-11.467l71.242-123.39c3.89-6.738 4.11-14.985 0.586-21.92l-77.141-151.8c-2.676-5.267-7.277-9.301-12.847-11.268l-174.15-61.488c-6.266-2.212-13.183-1.606-18.969 1.662l-131.73 74.409z" opacity=".71014"/>
<path d="m274.96 560.61c-7.432 3.731-12.271 11.183-12.656 19.489l-6.94 149.53c-0.309 6.654 2.282 13.115 7.104 17.712l131.35 125.23c4.304 4.104 10.031 6.381 15.979 6.353l167.74-0.786c7.75-0.036 14.961-3.973 19.182-10.473l76.972-118.53c4.221-6.5 4.885-14.689 1.766-21.783l-67.508-153.56c-2.394-5.445-6.804-9.75-12.304-12.014l-167.83-69.054c-6.161-2.534-13.118-2.274-19.071 0.715l-133.78 67.16z" opacity=".72464"/>
<path d="m269.62 557.73c-7.552 3.34-12.734 10.472-13.577 18.686l-15.117 147.32c-0.682 6.643 1.557 13.255 6.136 18.116l122.22 129.78c4.106 4.36 9.751 6.947 15.734 7.21l165.05 7.261c7.713 0.339 15.081-3.214 19.618-9.459l82.393-113.4c4.538-6.245 5.64-14.351 2.934-21.581l-57.91-154.73c-2.099-5.609-6.303-10.177-11.718-12.735l-161.2-76.132c-6.039-2.852-13.018-2.938-19.126-0.237l-135.44 59.902z" opacity=".73913"/>
<path d="m264.54 555.53c-7.651 2.946-13.155 9.743-14.447 17.839l-23.079 144.67c-1.055 6.611 0.823 13.353 5.144 18.467l112.98 133.72c3.892 4.607 9.438 7.501 15.444 8.058l161.99 15.028c7.656 0.71 15.16-2.452 19.999-8.427l87.491-108.04c4.839-5.975 6.372-13.973 4.085-21.314l-48.379-155.32c-1.794-5.758-5.777-10.582-11.093-13.431l-154.29-82.709c-5.9-3.163-12.886-3.598-19.133-1.192l-136.71 52.654z" opacity=".75362"/>
<path d="m259.66 554.02c-7.728 2.552-13.532 8.998-15.262 16.951l-30.805 141.6c-1.427 6.557 0.082 13.411 4.131 18.764l103.67 137.06c3.665 4.845 9.098 8.043 15.113 8.897l158.57 22.499c7.581 1.076 15.2-1.691 20.323-7.382l92.259-102.46c5.123-5.69 7.079-13.557 5.217-20.984l-38.952-155.35c-1.477-5.892-5.226-10.961-10.427-14.099l-147.14-88.777c-5.746-3.467-12.721-4.251-19.093-2.147l-137.6 45.437z" opacity=".76812"/>
<path d="m254.94 553.2c-7.785 2.157-13.867 8.239-16.024 16.024l-38.27 138.12c-1.796 6.484-0.664 13.429 3.1 19.007l94.328 139.79c3.423 5.073 8.727 8.572 14.738 9.724l154.82 29.66c7.488 1.434 15.2-0.935 20.591-6.326l96.686-96.686c5.391-5.391 7.76-13.103 6.326-20.591l-29.66-154.82c-1.152-6.011-4.651-11.315-9.724-14.738l-139.79-94.328c-5.578-3.764-12.523-4.896-19.007-3.1l-138.12 38.27z" opacity=".78261"/>
<path d="m250.34 553.08c-7.818 1.763-14.156 7.469-16.726 15.061l-45.455 134.25c-2.163 6.389-1.413 13.406 2.053 19.193l84.988 141.92c3.168 5.291 8.328 9.087 14.321 10.538l150.76 36.495c7.377 1.786 15.161-0.183 20.802-5.262l100.77-90.73c5.64-5.079 8.412-12.614 7.407-20.138l-20.536-153.75c-0.816-6.112-4.053-11.64-8.983-15.344l-132.26-99.357c-5.394-4.052-12.293-5.532-18.874-4.048l-138.26 31.173z" opacity=".7971"/>
<path d="m245.82 553.64c-7.833 1.37-14.402 6.69-17.371 14.066l-52.339 130.02c-2.526 6.274-2.163 13.341 0.993 19.322l75.69 143.46c2.9 5.496 7.9 9.585 13.862 11.336l146.41 42.992c7.25 2.129 15.083 0.561 20.955-4.194l104.49-84.617c5.872-4.755 9.034-12.09 8.459-19.624l-11.612-152.15c-0.473-6.197-3.433-11.938-8.206-15.917l-124.59-103.86c-5.195-4.33-12.032-6.155-18.693-4.989l-138.06 24.164z" opacity=".81159"/>
<path d="m241.33 554.89c-7.825 0.983-14.601 5.906-17.954 13.045l-58.905 125.44c-2.882 6.138-2.91 13.234-0.075 19.393l66.468 144.42c2.619 5.689 7.444 10.065 13.362 12.116l141.8 49.14c7.106 2.462 14.967 1.296 21.05-3.125l107.86-78.365c6.084-4.421 9.622-11.536 9.476-19.055l-2.915-150.05c-0.122-6.262-2.792-12.203-7.394-16.452l-116.81-107.84c-4.982-4.599-11.739-6.766-18.466-5.922l-137.5 17.26z" opacity=".82609"/>
<path d="m236.83 556.82c-7.798 0.598-14.757 5.117-18.475 11.998l-65.137 120.54c-3.231 5.981-3.652 13.084-1.149 19.404l57.358 144.81c2.325 5.871 6.962 10.527 12.822 12.877l136.96 54.931c6.945 2.786 14.812 2.019 21.088-2.057l110.87-71.998c6.276-4.076 10.177-10.951 10.457-18.429l5.523-147.46c0.236-6.309-2.132-12.438-6.549-16.95l-108.96-111.3c-4.755-4.858-11.416-7.363-18.194-6.843l-136.61 10.479z" opacity=".84058"/>
<path d="m232.14 559.56c-7.75 0.22-14.868 4.329-18.933 10.931l-71.016 115.33c-3.574 5.804-4.389 12.894-2.227 19.357l48.394 144.65c2.02 6.037 6.452 10.967 12.241 13.616l131.9 60.356c6.77 3.098 14.622 2.727 21.07-0.996l113.51-65.534c6.448-3.723 10.695-10.337 11.397-17.75l13.678-144.4c0.6-6.338-1.453-12.642-5.672-17.41l-101.07-114.23c-4.517-5.105-11.064-7.943-17.877-7.75l-135.39 3.835z" opacity=".85507"/>
<path d="m227.5 562.81c-7.683-0.153-14.935 3.542-19.328 9.848l-76.53 109.85c-3.907 5.607-5.117 12.661-3.305 19.25l39.609 143.95c1.704 6.191 5.917 11.387 11.622 14.334l126.64 65.408c6.582 3.399 14.397 3.421 20.997 0.058l115.78-58.995c6.6-3.362 11.176-9.698 12.295-17.02l21.522-140.9c0.97-6.347-0.758-12.81-4.765-17.827l-93.174-116.65c-4.265-5.339-10.683-8.506-17.515-8.641l-133.85-2.654z" opacity=".86956"/>
<path d="m222.74 566.7c-7.597-0.517-14.957 2.76-19.657 8.751l-81.667 104.12c-4.229 5.391-5.834 12.387-4.378 19.082l31.034 142.73c1.376 6.329 5.356 11.784 10.963 15.025l121.23 70.086c6.378 3.687 14.137 4.096 20.867 1.099l117.69-52.399c6.731-2.997 11.618-9.036 13.146-16.243l29.034-136.99c1.343-6.335-0.048-12.943-3.83-18.201l-85.302-118.57c-4.001-5.562-10.274-9.05-17.11-9.515l-132.02-8.975z" opacity=".88406"/>
<path d="m217.81 571.22c-7.492-0.872-14.936 1.986-19.921 7.647l-86.416 98.15c-4.54 5.156-6.537 12.072-5.445 18.854l22.7 141.01c1.038 6.451 4.772 12.156 10.268 15.69l115.67 74.382c6.162 3.962 13.843 4.752 20.683 2.127l119.23-45.77c6.84-2.625 12.019-8.352 13.947-15.419l36.19-132.68c1.72-6.304 0.677-13.042-2.868-18.531l-77.485-119.98c-3.727-5.771-9.839-9.574-16.663-10.368l-129.89-15.116 0.231-1.986-0.232 1.986z" opacity=".89855"/>
<path d="m212.69 576.34c-7.37-1.218-14.873 1.22-20.12 6.537l-90.767 91.981c-4.8378 4.903-7.2238 11.716-6.5016 18.566l14.635 138.82c0.691 6.558 4.164 12.503 9.536 16.327l110 78.297c5.934 4.224 13.518 5.387 20.445 3.137l120.41-39.124c6.927-2.251 12.378-7.65 14.696-14.555l42.971-128c2.099-6.251 1.414-13.102-1.882-18.813l-69.754-120.91c-3.442-5.966-9.378-10.076-16.174-11.199l-127.5-21.062z" opacity=".91304"/>
<path d="m207.33 582.04c-7.231-1.552-14.768 0.467-20.253 5.427l-1.342-1.483 1.342 1.483-94.712 85.632c-5.1231 4.632-7.8935 11.321-7.5457 18.219l6.8655 136.17c0.3352 6.648 3.5334 12.824 8.7687 16.933l104.24 81.831c5.695 4.471 13.163 5.999 20.156 4.125l121.23-32.482c6.993-1.874 12.696-6.931 15.392-13.65l49.357-122.99c2.479-6.177 2.161-13.124-0.872-19.049l-62.139-121.36c-3.148-6.148-8.892-10.555-15.644-12.005l-124.84-26.804 0.42-1.955-0.42 1.955z" opacity=".92754"/>
<path d="m201.7 588.31c-7.075-1.876-14.621-0.272-20.322 4.319l-98.243 79.129c-5.3932 4.344-8.5421 10.887-8.5724 17.812l-0.5821 133.09c-0.0294 6.719 2.8812 13.115 7.9668 17.507l98.406 84.985c5.445 4.702 12.777 6.586 19.815 5.09l121.69-25.865c7.038-1.496 12.97-6.199 16.031-12.71l55.333-117.66c2.859-6.081 2.917-13.108 0.157-19.235l-54.666-121.35c-2.844-6.314-8.382-11.011-15.076-12.785l-121.93-32.329z" opacity=".94203"/>
<path d="m195.78 595.11c-6.904-2.187-14.435-0.994-20.325 3.219l-101.36 72.498c-5.6476 4.04-9.168 10.414-9.579 17.346l-7.6848 129.62c-0.4016 6.774 2.2085 13.379 7.132 18.049l92.53 87.76c5.187 4.919 12.366 7.147 19.426 6.029l121.79-19.29c7.06-1.118 13.199-5.456 16.612-11.737l60.881-112.06c3.24-5.963 3.681-13.051 1.206-19.37l-47.362-120.9c-2.533-6.465-7.851-11.44-14.471-13.537l-118.8-37.628z" opacity=".95652"/>
<path d="m189.53 602.42c-6.718-2.485-14.211-1.697-20.266 2.13l-104.05 65.764c-5.8852 3.72-9.7688 9.905-10.562 16.822l-14.421 125.76c-0.7809 6.81 1.5162 13.613 6.2653 18.556l86.631 90.162c4.92 5.12 11.928 7.681 18.989 6.939l121.55-12.776c7.061-0.742 13.384-4.704 17.131-10.735l65.993-106.2c3.617-5.822 4.45-12.954 2.27-19.453l-40.253-120.02c-2.214-6.601-7.299-11.844-13.829-14.258l-115.45-42.694z" opacity=".97101"/>
<path d="m182.92 610.22c-6.519-2.768-13.95-2.378-20.143 1.056l-106.32 58.954c-6.1052 3.386-10.342 9.36-11.518 16.242l-20.771 121.56c-1.1664 6.827 0.8054 13.816 5.3679 19.026l80.734 92.196c4.645 5.305 11.466 8.186 18.507 7.817l120.97-6.34c7.041-0.369 13.524-3.947 17.589-9.708l70.654-100.13c3.993-5.658 5.224-12.815 3.35-19.482l-33.364-118.73c-1.889-6.72-6.727-12.22-13.153-14.948l-111.9-47.518z" opacity=".98551"/>
<path d="m176.09 618.32c-6.307-3.037-13.653-3.037-19.959-1e-3l-108.17 52.094c-6.3063 3.037-10.886 8.78-12.444 15.604l-26.717 117.05c-1.5575 6.824 0.07712 13.986 4.4412 19.458l74.858 93.869c4.3641 5.473 10.983 8.66 17.982 8.66h120.06c6.999 0 13.618-3.187 17.982-8.66l74.858-93.869c4.364-5.472 5.999-12.634 4.441-19.458l-26.716-117.05c-1.558-6.824-6.138-12.567-12.444-15.604l-108.17-52.093z"/>
</g>
</svg>
