<svg class="icon-denom" xmlns="http://www.w3.org/2000/svg" viewBox="0 0 140 140"><g fill="none" fill-rule="nonzero"><path fill="#2D374B" d="m86.125 64.144 10.28-17.445 27.712 43.162.013 8.28-.09-56.998a4.29 4.29 0 0 0-1.986-3.42L72.163 9.027a4.398 4.398 0 0 0-3.812.018 4.342 4.342 0 0 0-.447.258l-.174.11-48.428 28.063-.189.085c-.25.116-.49.256-.715.417a4.28 4.28 0 0 0-1.787 3.228l.076 46.448 25.812-40.007c3.25-5.304 10.33-7.013 16.903-6.92l7.714.199L21.66 113.82l5.359 3.085L73.019 41l20.332-.074-45.88 77.82 19.12 11.003 2.286 1.314a4.39 4.39 0 0 0 3.08.061l50.592-29.319-9.678 5.605-26.746-43.265Zm3.922 56.496L70.737 90.33 82.523 70.33l25.361 39.973-17.838 10.338Z"></path><path fill="#28A0F0" d="m70.736 90.331 19.311 30.308 17.839-10.338-25.36-39.972zM124.133 98.143l-.013-8.28L96.41 46.7 86.122 64.143l26.751 43.265 9.678-5.605a4.29 4.29 0 0 0 1.583-3.121v-.54Z"></path><path fill="#FFF" d="m8.005 105.955 13.66 7.87 45.454-72.894-7.714-.2c-6.573-.093-13.654 1.616-16.903 6.921L16.69 87.66l-8.68 13.342v4.958l-.005-.004ZM93.353 40.93l-20.331.074-45.999 75.906 16.077 9.258 4.372-7.416z"></path><path fill="#96BEDC" d="M132.697 40.825a12.95 12.95 0 0 0-6.079-10.41L76.074 1.347a13.147 13.147 0 0 0-11.597 0c-.422.212-49.154 28.476-49.154 28.476-.677.325-1.325.708-1.936 1.145A12.851 12.851 0 0 0 8 40.8v60.198l8.68-13.342-.067-46.446a4.315 4.315 0 0 1 1.787-3.228c.23-.165 49.793-28.854 49.95-28.933a4.398 4.398 0 0 1 3.813-.018l49.891 28.698a4.29 4.29 0 0 1 1.985 3.42v57.539a4.19 4.19 0 0 1-1.491 3.121l-9.678 5.605-4.988 2.894-17.839 10.338-18.09 10.484c-1 .353-2.095.332-3.08-.06l-21.404-12.311-4.372 7.415 19.236 11.074c.636.361 1.203.682 1.668.944.72.399 1.211.673 1.384.757 1.609.705 3.349 1.063 5.106 1.051a12.867 12.867 0 0 0 4.709-.886l52.545-30.43c3-2.334 4.814-5.878 4.95-9.677l.002-58.182Z"></path></g></svg>
