<svg class="icon-denom" viewBox="0 0 300 300" version="1.1"
    xmlns="http://www.w3.org/2000/svg">
    <rect id="Rectangle" fill="#000000" x="0" y="0" width="300" height="300"></rect>
    <path d="M161.686172,134.209181 L223.075503,73.1593001 L199.785536,50 L150.042609,99.4688104 L100.299682,50 L77.0111351,73.1593001 L138.399046,134.209181 C141.614589,137.406261 145.828599,139.005511 150.042609,139.005511 C154.256619,139.005511 158.470628,137.407681 161.686172,134.209181 Z M250.553914,199.427622 L200.810987,149.958811 L250.553914,100.488581 L227.265368,77.3292808 L165.878877,138.379161 C159.44921,144.774742 159.44921,155.142881 165.878877,161.538462 L227.265368,222.588342 L250.553914,199.429042 L250.553914,199.429042 L250.553914,199.427622 Z M149.957391,200.53119 L199.700318,250 L222.987445,226.8407 L161.600954,165.790819 C155.168447,159.395239 144.744915,159.395239 138.312408,165.790819 L76.9259175,226.8407 L100.214464,250 L149.957391,200.53119 L149.957391,200.53119 Z M134.121123,161.622259 C137.21026,158.550165 138.944438,154.385865 138.944438,150.042609 C138.944438,145.699352 137.21026,141.533633 134.121123,138.462959 L72.7346324,77.4130781 L49.4460857,100.573798 L99.1890126,150.042609 L49.4460857,199.512839 L72.7346324,222.67214 L134.122543,161.622259 L134.122543,161.622259 L134.121123,161.622259 Z" id="Shape" fill="#FFFFFF" fill-rule="nonzero"></path>
</svg>