<svg width="20" height="20" viewBox="0 0 20 20" fill="none" xmlns="http://www.w3.org/2000/svg">
<path fill-rule="evenodd" clip-rule="evenodd" d="M10 0C15.523 0 20 4.47705 20 10C20 15.5225 15.523 20 10 20C4.47705 20 0 15.5225 0 10C0 4.47705 4.47705 0 10 0Z" fill="#2775CA"/>
<path fill-rule="evenodd" clip-rule="evenodd" d="M8.12569 16.9523C8.12569 17.1875 7.94148 17.3211 7.71398 17.2501C4.69045 16.2855 2.49829 13.4504 2.49829 10.1052C2.49829 6.76008 4.69045 3.92485 7.71398 2.9603C7.94148 2.88973 8.12569 3.02292 8.12569 3.25814V3.83883C8.12569 3.99542 8.00432 4.17974 7.85512 4.23076C5.46296 5.10917 3.74932 7.40724 3.74932 10.1012C3.74932 12.7952 5.46296 15.0937 7.85512 15.9717C8.00432 16.0267 8.12569 16.2069 8.12569 16.3641V16.9523Z" fill="white"/>
<path fill-rule="evenodd" clip-rule="evenodd" d="M10.6235 14.7919C10.6235 14.9646 10.4824 15.1057 10.3099 15.1057H9.68625C9.51375 15.1057 9.37261 14.9646 9.37261 14.7919V13.8038C8.00784 13.6196 7.34136 12.8547 7.16091 11.8156C7.12943 11.6389 7.27057 11.4782 7.45102 11.4782H8.16477C8.31375 11.4782 8.43932 11.5843 8.47068 11.733C8.60409 12.3527 8.96091 12.8272 10.0549 12.8272C10.8627 12.8272 11.4355 12.3762 11.4355 11.702C11.4355 11.0272 11.0981 10.7724 9.91375 10.5762C8.16477 10.341 7.33738 9.81141 7.33738 8.43891C7.33738 7.38016 8.1375 6.55675 9.37659 6.38016V5.41152C9.37659 5.23891 9.51784 5.09766 9.69023 5.09766H10.3139C10.4864 5.09766 10.6275 5.23891 10.6275 5.41152V6.40766C11.6353 6.58834 12.2745 7.1605 12.4825 8.10948C12.5216 8.29016 12.3805 8.45846 12.1963 8.45846H11.5373C11.3961 8.45846 11.2785 8.36425 11.2355 8.22709C11.059 7.62346 10.6275 7.36471 9.87841 7.36471C9.05102 7.36471 8.62352 7.76459 8.62352 8.32528C8.62352 8.91744 8.86682 9.21528 10.1375 9.39994C11.8549 9.63516 12.7414 10.1253 12.7414 11.5883C12.7414 12.698 11.9177 13.5961 10.6275 13.8038V14.7919H10.6235Z" fill="white"/>
<path fill-rule="evenodd" clip-rule="evenodd" d="M12.2862 17.2497C12.0589 17.3207 11.8745 17.1871 11.8745 16.9519V16.3716C11.8745 16.199 11.9804 16.0383 12.1451 15.9793C14.5372 15.1008 16.2509 12.8028 16.2509 10.1088C16.2509 7.41481 14.5372 5.11673 12.1451 4.23832C11.9961 4.18332 11.8745 4.0031 11.8745 3.84594V3.26571C11.8745 3.03048 12.0589 2.89332 12.2862 2.96741C15.3097 3.93253 17.5019 6.76765 17.5019 10.1128C17.4982 13.4499 15.3097 16.2812 12.2862 17.2497Z" fill="white"/>
</svg>
