<svg width="24" height="24" viewBox="0 0 24 24" fill="none" xmlns="http://www.w3.org/2000/svg"><path d="M24 12C24 18.6274 18.6274 24 12 24C5.37258 24 0 18.6274 0 12C0 5.37258 5.37258 0 12 0C18.6274 0 24 5.37258 24 12Z" fill="#161721"></path><path d="M18.6947 12C18.6947 15.6974 15.6974 18.6947 12 18.6947C8.30261 18.6947 5.3053 15.6974 5.3053 12C5.3053 8.30267 8.30261 5.30536 12 5.30536C15.6974 5.30536 18.6947 8.30267 18.6947 12Z" fill="url(#paint0_linear_6_307)"></path><path fill-rule="evenodd" clip-rule="evenodd" d="M22.2916 13.1703C22.2442 13.5868 21.8443 13.8577 21.4323 13.78C21.0204 13.7022 20.7529 13.3052 20.795 12.8881C20.8997 11.8507 20.8203 10.8009 20.5583 9.78752C20.2964 8.77417 19.857 7.81738 19.2626 6.96072C19.0236 6.61628 19.0652 6.13939 19.3879 5.87173C19.7106 5.60406 20.1917 5.64717 20.435 5.98858C21.1696 7.01936 21.7103 8.1779 22.0282 9.40753C22.3461 10.6371 22.4346 11.9126 22.2916 13.1703Z" fill="white"></path><path fill-rule="evenodd" clip-rule="evenodd" d="M17.9301 3.50764C18.2738 3.74767 18.3215 4.22832 18.057 4.55355C17.7924 4.87879 17.316 4.92497 16.9692 4.68929C16.4611 4.3439 15.9183 4.05242 15.3497 3.8196C14.9618 3.66073 14.7371 3.23803 14.8621 2.83786C14.9871 2.43768 15.4141 2.21199 15.8041 2.36596C16.5548 2.66239 17.2683 3.04555 17.9301 3.50764Z" fill="white"></path><path fill-rule="evenodd" clip-rule="evenodd" d="M12.3397 1.64767C12.7587 1.66143 13.0609 2.03831 13.0165 2.45519C12.9721 2.87208 12.5978 3.1706 12.1787 3.16212C10.4854 3.12785 8.81732 3.581 7.37418 4.46729C7.01693 4.68669 6.54308 4.61856 6.29385 4.28144C6.04462 3.94432 6.11454 3.46637 6.469 3.24249C8.22189 2.13534 10.2676 1.57962 12.3397 1.64767Z" fill="white"></path><path fill-rule="evenodd" clip-rule="evenodd" d="M3.86616 5.58706C4.12573 5.25784 4.60834 5.23809 4.91767 5.52107C5.22701 5.80405 5.24545 6.2824 4.99004 6.61486C4.43632 7.33565 3.99704 8.1376 3.68777 8.9923C3.54512 9.38652 3.1321 9.62853 2.72709 9.52022C2.32208 9.41191 2.07888 8.99459 2.21656 8.59859C2.59503 7.50999 3.15259 6.49211 3.86616 5.58706Z" fill="white"></path><path fill-rule="evenodd" clip-rule="evenodd" d="M1.64383 12.1879C1.63622 11.7687 1.99722 11.4478 2.41583 11.4709C2.83443 11.494 3.15163 11.8525 3.16451 12.2716C3.18081 12.8021 3.24486 13.33 3.35588 13.849C3.44357 14.259 3.22129 14.683 2.82036 14.8055C2.41942 14.928 1.99216 14.7027 1.89932 14.2939C1.7423 13.6025 1.65668 12.8968 1.64383 12.1879Z" fill="white"></path><path fill-rule="evenodd" clip-rule="evenodd" d="M3.24666 17.5376C3.02253 17.1833 3.16442 16.7216 3.53418 16.524C3.90394 16.3264 4.36119 16.4681 4.58976 16.8196C5.60082 18.3742 7.07961 19.5774 8.82203 20.2487C10.5645 20.92 12.4682 21.02 14.261 20.5457C14.6663 20.4384 15.1004 20.6401 15.242 21.0347C15.3836 21.4293 15.1791 21.8669 14.7751 21.9792C12.6379 22.5736 10.3587 22.4677 8.27621 21.6654C6.19371 20.863 4.43261 19.4124 3.24666 17.5376Z" fill="white"></path><path fill-rule="evenodd" clip-rule="evenodd" d="M17.965 20.4679C17.6223 20.7093 17.1541 20.5905 16.9384 20.231C16.7227 19.8715 16.8416 19.4078 17.1813 19.1621C18.3068 18.3478 19.2247 17.2796 19.8603 16.0443C20.0521 15.6716 20.4926 15.4842 20.8805 15.6434C21.2683 15.8025 21.4563 16.2475 21.2692 16.6227C20.5034 18.1582 19.3678 19.4797 17.965 20.4679Z" fill="white"></path><defs><linearGradient id="paint0_linear_6_307" x1="6.11328" y1="6.03639" x2="18.0406" y2="17.0788" gradientUnits="userSpaceOnUse"><stop stop-color="#FBA367"></stop><stop offset="1" stop-color="#EF6100"></stop></linearGradient></defs></svg>