<svg xmlns="http://www.w3.org/2000/svg" fill-rule="evenodd" clip-rule="evenodd" viewBox="0 0 24 24"><path fill="url(#mars_a)" fill-rule="nonzero" d="M12.985.812c.964 0 1.294.116 1.944.343.162.056.344.12.561.19 4.457 1.45 7.76 5.726 7.76 10.66 0 .824-.117 1.716-.287 2.501-.767 3.116-2.75 5.763-5.42 7.298-1.33.764-2.873 1.327-4.475 1.435-.268.018-1.138.01-1.729.004l-.489-.004C5.061 22.419.75 18.142.75 12.005c0-1.558.297-3.118.903-4.551.629-1.486 1.709-2.755 2.833-3.854.99-.966 2.214-1.5 3.42-2.026.175-.076.349-.152.522-.229.622-.277 1.041-.337 1.568-.413.218-.032.454-.066.731-.12.487-.093.999-.062 1.507-.031.252.016.504.031.751.031Z"></path><path fill="none" stroke="#fff" d="M12.985.812c.964 0 1.294.116 1.944.343.162.056.344.12.561.19 4.457 1.45 7.76 5.726 7.76 10.66 0 .824-.117 1.716-.287 2.501-.767 3.116-2.75 5.763-5.42 7.298-1.33.764-2.873 1.327-4.475 1.435-.268.018-1.138.01-1.729.004l-.489-.004C5.061 22.419.75 18.142.75 12.005c0-1.558.297-3.118.903-4.551.629-1.486 1.709-2.755 2.833-3.854.99-.966 2.214-1.5 3.42-2.026.175-.076.349-.152.522-.229.622-.277 1.041-.337 1.568-.413.218-.032.454-.066.731-.12.487-.093.999-.062 1.507-.031.252.016.504.031.751.031Z"></path><path fill="#fff" d="m11.999.166 3.657.58 3.299 1.68 2.618 2.618 1.681 3.298.58 3.657-.58 3.657-1.681 3.299-2.618 2.618-3.299 1.681-3.657.58-3.656-.58-3.299-1.681-2.618-2.618-1.68-3.299-.58-3.657.58-3.656 1.68-3.299 2.618-2.618L8.343.746l3.656-.58Zm-3.45 1.215L5.436 2.966l-2.469 2.47-1.586 3.113-.547 3.45.547 3.451 1.586 3.112 2.469 2.47 3.113 1.587 3.45.547 3.451-.547 3.112-1.587 2.47-2.47 1.587-3.112.547-3.451-.547-3.45-1.587-3.113-2.47-2.47-3.112-1.585-3.451-.547-3.45.547Z"></path><path fill="#fff" d="M11.915 3.928a.165.165 0 0 1 .226.057l2.597 4.358a.165.165 0 1 1-.283.169l-2.598-4.358a.165.165 0 0 1 .058-.226Z"></path><path fill="#fff" d="m11.999 3.904 5.361.58-.035.328-5.326-.576-5.325.576-.035-.328 5.36-.58ZM9.237 8.426c0-.092.074-.165.165-.165h5.194a.165.165 0 0 1 0 .33H9.402a.165.165 0 0 1-.165-.165Z"></path><path fill="#fff" d="M12.083 3.928a.165.165 0 0 1 .057.226L9.544 8.512a.165.165 0 1 1-.283-.169l2.596-4.358a.164.164 0 0 1 .226-.057Z"></path><path fill="#fff" d="m8.392.803 3.607 3.05 3.607-3.05 1.884 3.77-.295.148-1.696-3.395-3.5 2.959-3.5-2.959-1.695 3.395-.295-.148L8.392.803Z"></path><path fill="#fff" d="M5.143 2.563a.165.165 0 0 1 .231.036l6.625 9.12 6.626-9.12a.165.165 0 0 1 .267.194l-6.759 9.304a.165.165 0 0 1-.267 0L5.107 2.793a.164.164 0 0 1 .036-.23Z"></path><path fill="#fff" d="M9.525 8.314c.04.044.053.106.035.162l-1.568 4.827 4.089 2.971 4.646 1.992a.165.165 0 0 1-.13.303l-4.663-1.999a.202.202 0 0 1-.032-.018l-4.201-3.053a.164.164 0 0 1-.06-.184l1.515-4.664-4.663 1.058a.165.165 0 1 1-.073-.322l4.947-1.122a.162.162 0 0 1 .158.049Z"></path><path fill="#fff" d="M4.347 9.426a.165.165 0 0 1 .233.016l3.342 3.817a.166.166 0 0 1-.015.233.166.166 0 0 1-.233-.015L4.332 9.659a.166.166 0 0 1 .015-.233Z"></path><path fill="#fff" d="M6.931 4.439 4.635 9.553l.026.063-.058.036-1.069 5.099 3.901 3.533 4.643 2.664 3.364 1.748 1.093-4.452 4.57.337-.624-3.744.326-.054.692 4.158-4.71-.348-1.127 4.589-3.745-1.946-4.677-2.683-4.002-3.625-3.004-2.957L4.25 9.483 2.464 5.109l4.467-.67ZM4.215 9.893.765 12.03l2.489 2.45.961-4.587Zm.248-.762 1.919-4.276-3.454.518 1.535 3.758Z"></path><path fill="#fff" d="M7.814 13.202c.09.009.157.089.149.18l-.461 5.051a.165.165 0 1 1-.328-.03l.46-5.051a.166.166 0 0 1 .18-.15Z"></path><path fill="#fff" d="M12.151 16.353a.165.165 0 0 1-.086.216l-4.662 2a.165.165 0 1 1-.13-.304l4.662-1.999a.164.164 0 0 1 .216.087Z"></path><path fill="#fff" d="m2.893 18.581.624-3.744-.326-.054-.692 4.158 4.712-.347 1.125 4.588 3.739-1.942-.152-.293-3.367 1.749-1.091-4.452-4.572.337Z"></path><path fill="#fff" d="M12.097 11.865a.164.164 0 0 1 .068.133V23.5a.165.165 0 0 1-.33 0V12.226l-10.72 3.483a.164.164 0 0 1-.207-.106.165.165 0 0 1 .105-.208l10.936-3.553a.163.163 0 0 1 .148.023ZM17.212 4.547a.164.164 0 0 1 .156-.063l3.959.594a.163.163 0 0 1 .128.225l-1.706 4.18 3.838 2.378a.164.164 0 0 1 .029.257l-2.854 2.808-.006.006h-.001a.002.002 0 0 1-.002.002l-3.98 3.607a.164.164 0 0 1-.171.031.164.164 0 0 1-.104-.138l-.459-5.034-1.599-4.922a.165.165 0 0 1 .193-.212l4.625 1.049-2.065-4.6a.164.164 0 0 1 .019-.168Zm2.025 5.102-4.394-.997 1.426 4.388 2.968-3.391Zm-2.865 3.773.425 4.652 3.667-3.323-1.014-4.844-3.078 3.515Zm3.412-3.529.96 4.587 2.49-2.45-3.45-2.137Zm-.248-.763 1.534-3.757-3.453-.518 1.919 4.275Z"></path><path fill="#fff" d="M11.842 11.947a.164.164 0 0 1 .208-.105l10.937 3.553a.165.165 0 0 1-.102.314l-10.937-3.554a.165.165 0 0 1-.106-.208Z"></path><path fill="#fff" d="M16.335 13.27a.164.164 0 0 1-.037.23l-4.202 3.052a.165.165 0 0 1-.194-.267l4.202-3.052a.166.166 0 0 1 .231.037ZM16.58 18.276a.166.166 0 0 1 .216.046l2.096 2.886a.165.165 0 1 1-.267.194l-2.009-2.766-4.535 2.601a.165.165 0 0 1-.164-.286l4.663-2.675ZM11.999.335c.091 0 .165.074.165.165v3.568a.165.165 0 0 1-.33 0V.5c0-.091.074-.165.165-.165ZM23.093 8.396a.166.166 0 0 1-.106.208l-3.393 1.102a.164.164 0 1 1-.102-.313l3.393-1.103a.166.166 0 0 1 .208.106ZM7.435 18.286c.074.054.09.157.036.23l-2.097 2.886a.165.165 0 1 1-.267-.194l2.097-2.886a.166.166 0 0 1 .231-.036ZM.908 8.396a.164.164 0 0 1 .207-.106l3.393 1.103a.165.165 0 1 1-.102.313L1.013 8.604a.164.164 0 0 1-.105-.208Z"></path><defs><linearGradient id="mars_a" x1="0" x2="1" y1="0" y2="0" gradientTransform="scale(-20.976) rotate(44.864 .49 -1.582)" gradientUnits="userSpaceOnUse"><stop offset="0" stop-color="#ef4136"></stop><stop offset=".01" stop-color="#ef4136"></stop><stop offset=".32" stop-color="#df5153"></stop><stop offset="1" stop-color="#ac0b1b"></stop></linearGradient></defs></svg>