<svg class="icon-denom"
    xmlns="http://www.w3.org/2000/svg" viewBox="0 0 751 751" fill="none">
    <path fill="url(#nbtcgrad)" d="M739.336 466.587C689.25 667.48 485.78 789.74 284.864 739.643 84.03 689.558-38.231 486.076 11.878 285.195 61.94 84.279 265.41-37.993 466.268 12.092c200.904 50.086 323.153 253.591 273.068 454.495Z"></path>
    <path fill="#fff" d="M540.938 322.446c7.464-49.898-30.527-76.722-82.476-94.616l16.851-67.593-41.144-10.254-16.406 65.812c-10.816-2.696-21.926-5.238-32.965-7.758l16.524-66.246-41.121-10.253-16.863 67.569c-8.953-2.039-17.742-4.054-26.273-6.175l.047-.211-56.742-14.168-10.945 43.945s30.527 6.996 29.882 7.429c16.664 4.16 19.676 15.187 19.172 23.93l-19.195 77.003c1.148.293 2.637.715 4.277 1.371-1.371-.34-2.836-.715-4.347-1.078l-26.906 107.87c-2.039 5.062-7.207 12.656-18.855 9.773.41.598-29.906-7.465-29.906-7.465l-20.426 47.098 53.542 13.347c9.961 2.496 19.723 5.109 29.332 7.57l-17.027 68.367 41.097 10.254 16.863-67.64a1568.388 1568.388 0 0 0 32.789 8.508l-16.804 67.323 41.144 10.254 17.027-68.238c70.159 13.277 122.917 7.922 145.123-55.534 17.895-51.094-.89-80.566-37.804-99.784 26.882-6.2 47.132-23.883 52.535-60.41Zm-94.007 131.823c-12.715 51.093-98.742 23.472-126.632 16.546l22.594-90.573c27.89 6.961 117.327 20.742 104.038 74.027Zm12.726-132.561c-11.601 46.476-83.202 22.863-106.429 17.074l20.485-82.148c23.226 5.789 98.026 16.594 85.944 65.074Z"></path>
    <defs>
        <linearGradient id="nbtcgrad" x1="1584.28" x2="-76.801" y1="-175.357" y2="601.409" gradientUnits="userSpaceOnUse">
            <stop stop-color="#F0C9BD"></stop>
            <stop offset="1" stop-color="#5C00F5"></stop>
        </linearGradient>
    </defs>
</svg>