<svg xmlns="http://www.w3.org/2000/svg" viewBox="0 0 580 580" class="icon-denom"><g fill="none" fill-rule="evenodd"><circle cx="289.99" cy="289.99" r="289.99" fill="#F5F411"></circle><path fill="#000" d="M290 579.979C129.876 579.979.011 450.113.011 289.989S129.876 0 290 0c160.125 0 289.989 129.865 289.989 289.99S450.125 579.98 290 579.98m0-567.37c-153.19 0-277.381 124.19-277.381 277.38S136.81 567.371 290 567.371c153.19 0 277.381-124.191 277.381-277.381C567.381 136.8 443.19 12.608 290 12.608"></path><path fill="#000" d="M274.709 286.49a.42.42 0 0 0-.114.518c.346.719 7.731 15.816 14.079 19.575l-.098 23.019c-.401.012-.806.016-1.198.028-1.265.082-2.507.169-3.717.247-2.396.244-4.647.535-6.595.818-1.937.322-3.583.608-4.753.844-1.21.248-1.894.405-1.894.405-.487.102-.97.318-1.386.636a3.495 3.495 0 0 0-.676 4.895 3.504 3.504 0 0 0 4.899.679l.023-.023s.126-.091.365-.28c.201-.137.472-.376.884-.643a24.518 24.518 0 0 1 3.803-1.976c.833-.323 1.728-.727 2.718-.998.982-.267 2.027-.625 3.135-.813 1.108-.177 2.247-.452 3.429-.55 1.163-.071 2.338-.142 3.52-.208 1.241.082 2.475.16 3.693.239 1.198.102 2.282.397 3.378.574 1.088.196 2.133.569 3.119.836.986.295 1.878.704 2.702 1.034a23.69 23.69 0 0 1 3.795 2.007c.864.58 1.206.923 1.183.903a3.406 3.406 0 1 0 3.02-6.108s-.192-.06-.557-.15c-.323-.074-.79-.172-1.391-.298a194.27 194.27 0 0 0-4.741-.88 136.544 136.544 0 0 0-6.604-.876c-1.225-.09-2.475-.192-3.751-.283-.197-.007-.385-.02-.57-.023l.09-23.41c6.262-4.23 13.341-18.367 13.679-19.07a.437.437 0 0 0-.114-.523c-3.744-3.048-8.497-4.945-13.737-5.495-7.264-.758-14.417 1.194-19.618 5.35M273.063 251.804c-.02.46-.13.918-.24 1.41a14.7 14.7 0 0 0-.157.71l-.094.334c-.181.617-.357 1.198-.577 1.744l-.103.26c-.239.586-.467 1.132-.746 1.654-.228.49-.487.942-.738 1.375l-.15.262a25.18 25.18 0 0 1-1.599 2.322c-.208.267-.365.457-.467.57l-.224.26a1.715 1.715 0 0 0 .047 2.298c.279.29.652.478 1.061.518a1.72 1.72 0 0 0 1.355-.464l.232-.224c.161-.165.397-.389.656-.668.632-.668 1.371-1.57 2.078-2.526l.169-.25c.33-.46.699-.99 1.025-1.545.409-.627.754-1.308 1.124-2.026l.066-.13c.381-.755.688-1.555 1.053-2.478.075-.268.161-.535.248-.806.192-.601.4-1.218.487-1.858l.275-1.39a23.7 23.7 0 0 0 .082-.905l.043-.513c.004-.154.016-.308.032-.457.027-.305.059-.625.031-.942-.023-.433-.035-.852-.063-1.32-.004-.763-.145-1.462-.275-2.133l-.161-.797a6.854 6.854 0 0 0-.196-.869c-.118-.362-.24-.714-.35-1.056-.082-.216-.153-.428-.22-.628-.145-.445-.279-.862-.467-1.215l-1.237-2.466a1.943 1.943 0 0 0-.114-.194 2.03 2.03 0 0 0-.421-.518c-1.434-2.012-4.682-3.46-8.697-3.876a21.71 21.71 0 0 0-2.223-.123c-.57-.004-1.175.023-1.858.075l-12.673-.052-.019.41c-.008.118-.099 2.934 3.606 7.994l.243.305.016-.007c1.548 1.827 4.655 3.13 8.414 3.52.727.082 1.473.125 2.22.125a22.068 22.068 0 0 0 4.042-.358v.017l.573-.126s.727-.161 1.619-.066c1.551.156 2.62.923 3.154 2.163.028.126.047.251.059.413.039.236.071.468.11.704l.047.349c.036.192.032.38.032.581-.008.15-.008.294.004.412v.42c.004.22.007.448 0 .645l-.134 1.136ZM307.856 249.887l.02.345c.023.35.043.7.094 1.084l.242 1.34c.096.663.291 1.292.493 1.901.082.26.153.523.25.873.315.805.637 1.637 1.01 2.4l.052.098c.365.73.718 1.421 1.11 2.043.33.58.685 1.087 1.025 1.575l.173.259c.677.938 1.4 1.842 2.048 2.534.267.286.495.519.66.683.149.142.231.224.231.224.267.264.632.429 1.005.471.469.048.943-.101 1.298-.404.707-.618.784-1.693.144-2.447l-.189-.224a7.123 7.123 0 0 1-.466-.575 23.685 23.685 0 0 1-1.563-2.325l-.154-.259c-.248-.435-.507-.892-.747-1.406-.262-.51-.494-1.077-.738-1.678l-.082-.22c-.22-.55-.385-1.12-.563-1.735l-.09-.307c-.039-.251-.098-.502-.153-.755-.101-.49-.209-.95-.228-1.445l-.113-1.089c-.017-.227 0-.447 0-.67l.007-.393c.012-.145.012-.296.012-.436 0-.204 0-.401.043-.68.055-.33.099-.645.154-.999.012-.128.043-.254.03-.281.964-2.233 3.144-2.35 4.35-2.225.29.032.455.076.478.076l2.392.55-.31-.197c.817.103 1.681.154 2.53.157 4.644.02 8.764-1.36 10.662-3.543l.02.016.243-.319c3.748-5.02 3.68-7.844 3.668-7.963l-.007-.407-12.68-.052a23.927 23.927 0 0 0-1.85-.095c-4.935-.014-9.236 1.518-10.91 3.85a2.558 2.558 0 0 0-.58.758l-1.262 2.451c-.2.358-.334.774-.478 1.21-.075.21-.147.417-.233.648l-.368 1.053c-.084.26-.139.535-.194.826l-.172.84c-.134.673-.28 1.368-.29 2.106l-.084 1.332c-.022.333 0 .655.033.974.002.15.019.29.026.452"></path><path fill="#000" d="M418.974 174.397c-7.118-8.65-14.487-14.672-19.967-18.482L412.846 160c.522.153 1.1-.047 1.422-.495a1.295 1.295 0 0 0-.031-1.493c-24.018-32.47-80.808-40.08-94.997-41.427 2.023-1.536 6.15-4.1 14.342-7.589.562-.236.884-.833.754-1.434-.126-.593-.676-1.04-1.253-1.018-15.697-.066-36.454 8.737-40.63 11.255-4.14-2.553-39.978-11.502-55.675-11.56-.61 0-1.131.42-1.261 1.012a1.282 1.282 0 0 0 .743 1.438c8.178 3.56 12.29 6.168 14.287 7.707-14.197 1.218-60.963 10.827-85.267 43.097a1.286 1.286 0 0 0-.031 1.493c.31.456.88.656 1.402.507l13.879-3.968c-5.512 3.76-7.892 7.197-15.077 15.788-12.578 15.041-26.614 58.943-22.034 98.524a1.273 1.273 0 0 0 1.093 1.116c.553.043 1.139-.244 1.359-.782l6.662-16.228c-.9 25.451.97 90.012 58.437 134.142a1.26 1.26 0 0 0 1.35.134c.44-.228.716-.68.7-1.17l-.196-11.028c5.539 11.714 18.62 22.47 32.274 33.705 17.575 14.456 35.755 26.885 42.158 46.07 1.567 4.698 2.357 9.534 2.333 14.362v.027c0 .66.495 1.218 1.15 1.277.045.006.084.006.123.006.707 0 1.285-.568 1.285-1.27a44.68 44.68 0 0 1 2.247-13.75c6.383-19.417 24.92-31.858 42.833-46.322C351 401.01 371.764 382.782 377.4 371.108l-.28 11.042a1.24 1.24 0 0 0 .689 1.167c.444.232.97.192 1.355-.11 57.844-43.63 52.847-118.268 52.163-143.727l6.525 16.283c.212.542.766.864 1.35.793a1.286 1.286 0 0 0 1.105-1.11c4.926-39.539-8.89-65.898-21.334-81.049M204.276 198.3s3.72.322 5.873 1.34c-5.194 1.933-5.712 10.296-5.712 10.296-11.918-12.02-16.762-26.539-10.818-32.432 5.943-5.888 19.825-1.143 30.36 9.797 0 .004-15.956 1.73-19.703 11m127.452 90.125 26.229 29.046c-.134 30.534 3.5 46.636-65.743 46.341l-.012-.008c-37.598-.157-53.652-4.98-60.464-14.228a20.692 20.692 0 0 1-2.55-4.568c-2.934-7.303-2.376-16.688-2.325-28.095l26.469-28.814s-35.398-24.269-35.16-78.903c0 0 33.506-15.108 74.764-14.932 41.25.178 74.633 15.573 74.633 15.573-.247 54.634-35.841 78.588-35.841 78.588m47.425-78.596s-.443-8.367-5.617-10.339c2.157-1.002 7.42 1.422 7.42 1.422-3.672-9.302-21.137-13.883-21.137-13.883 10.618-10.85 24.543-15.473 30.432-9.538 5.888 5.948.923 20.423-11.098 32.338"></path></g></svg>