<svg class="icon-denom" xmlns="http://www.w3.org/2000/svg" viewBox="0 0 500 500"><g fill="none" fill-rule="evenodd"><path fill="#E50571" d="M250 500c138.071 0 250-111.929 250-250S388.071 0 250 0 0 111.929 0 250s111.929 250 250 250Z"></path><path fill="#FFF" fill-rule="nonzero" d="M257.924 376.245c-31.154 0-56.688-6.919-76.602-20.76-18.288-12.711-29.94-30.427-34.954-53.144-.766-3.472 1.396-6.854 4.754-7.746l43.104-11.439c3.719-.985 7.451 1.448 8.49 5.244 2.253 8.235 5.399 14.945 9.441 20.126 5.458 6.591 12.043 11.369 19.752 14.335 8.03 2.637 16.702 3.954 26.015 3.954 14.133 0 24.572-2.472 31.317-7.415 6.744-5.272 10.118-11.698 10.118-19.276 0-7.579-3.213-13.346-9.637-17.302-6.424-4.283-16.702-7.744-30.833-10.381l-13.489-2.47c-16.704-3.295-31.959-7.745-45.77-13.345-13.812-5.933-24.892-14.007-33.243-24.222-8.35-10.215-12.525-23.398-12.525-39.544 0-24.386 8.671-43.004 26.015-55.857 17.345-13.181 40.147-19.771 68.412-19.771 26.659 0 48.82 6.096 66.485 18.288 15.724 10.853 26.613 24.707 32.665 41.564 1.259 3.502-.754 7.261-4.23 8.358l-43.109 13.61c-3.761 1.187-7.657-1.222-8.933-5.042-2.932-8.769-7.591-15.249-13.971-19.439-7.709-5.273-17.344-7.909-28.907-7.909-11.563 0-20.396 2.142-26.498 6.426-6.102 3.954-9.154 9.556-9.154 16.807 0 7.908 3.213 13.84 9.637 17.794 6.422 3.624 15.093 6.426 26.015 8.402l13.489 2.472c17.987 3.295 34.207 7.743 48.661 13.345 14.774 5.274 26.337 13.018 34.687 23.233 8.672 9.887 13.009 23.398 13.009 40.535 0 25.702-9.155 45.639-27.463 59.809-17.985 13.841-42.235 20.76-72.748 20.76Z"></path></g></svg>